<svg xmlns="http://www.w3.org/2000/svg" width="80.63" height="88.581" viewBox="0 0 80.63 88.581">
  <g id="Group_11834" data-name="Group 11834" transform="translate(-30.111 -9.017)">
    <path id="Path_62897" data-name="Path 62897" d="M105.58,32.256C92.8,14.14,79.34,22.763,70.443,27.029c-8.9-4.266-22.353-12.889-35.138,5.228-13.187,18.689,14.619,66.6,34.933,47.259C90.555,98.857,118.769,50.945,105.58,32.256Z" transform="translate(0 11.767)" fill="#d12600" stroke="#3a3939" stroke-linecap="round" stroke-linejoin="round" stroke-width="3.5"/>
    <path id="Path_62898" data-name="Path 62898" d="M57.558,24.287s-.374-5.219-7.9-8.306c-.738-.3-5.042-2.445-5.042-2.445a7.974,7.974,0,0,0,3.332,8.649C51.354,24.631,54.313,25.376,57.558,24.287Z" transform="translate(14.074 3.122)" fill="#6caf1e" stroke="#3a3939" stroke-linecap="round" stroke-linejoin="round" stroke-width="3.5"/>
    <path id="Path_62899" data-name="Path 62899" d="M57.96,24.646s11.3.2,12.97,10.393" transform="translate(29.401 15.65)" fill="none" stroke="#3a3939" stroke-linecap="round" stroke-linejoin="round" stroke-width="3.5"/>
    <path id="Path_62900" data-name="Path 62900" d="M59.239,11.088c.536-1.787,6.551,4.476,6.551,4.476S52.173,27.409,52.609,38l-3.466-.172s.928-9.651,3.594-13.936S57.319,17.49,59.239,11.088Z" transform="translate(19.459 0)" fill="#93603e" stroke="#3a3939" stroke-linecap="round" stroke-linejoin="round" stroke-width="3.5"/>
  </g>
</svg>
