<svg xmlns="http://www.w3.org/2000/svg" width="43.276" height="59.756" viewBox="0 0 43.276 59.756"><defs><style>.a{fill:#438243;}.b{fill:#429642;}.c{fill:#77ad77;}</style></defs><title>artichoke</title><path class="a" d="M22.827,51.9c3.861,0,3.867-6,0-6s-3.867,6,0,6Z"/><path class="a" d="M16.918,30.065a8.728,8.728,0,0,0-.842,2.361,3.016,3.016,0,0,0,4.407,3.388c.261-.12.524-.236.785-.358.605-.282-.331.056.108-.015h-1.6l.137.024-1.324-.772.1.092-.771-1.324q-.1-.816-.111-.343a2.981,2.981,0,0,0,.409,1.514,2.948,2.948,0,0,0,1.5,1.347,9.828,9.828,0,0,0,2.356.491,3.079,3.079,0,0,0,3.691-2.095c.326-1.434-.437-3.433-2.1-3.69a11.805,11.805,0,0,1-2-.341l1.792,1.379L23.4,31.6l.41,1.514a3.252,3.252,0,0,0-2.433-3.462c-1.451-.323-2.65.4-3.922.977l4.407,3.388c.044-.249.107-.481.164-.726.141-.6-.225.4.073-.2a3,3,0,1,0-5.18-3.028Z"/><path class="a" d="M24.763,35.046a20.083,20.083,0,0,0,5.479-.866l-3.791-2.887a4.343,4.343,0,0,1-1.266,3.245c-1.784,2.232-.2,5.8,2.914,5.005a22.222,22.222,0,0,0,5.188-2.051c3.453-1.859.42-6.726-3.023-5.171-1.861.841-4.295,1.45-4.733,3.751a3.035,3.035,0,0,0,3.683,3.683c4.591-1.044,8.454-4.415,11.635-7.729l-5.112-2.117,0,.268a3.019,3.019,0,0,0,2.994,2.994q-.468-.138.005-.016V27.38c-6.659,2.232-14.5,3.543-20.723,6.79a2.9,2.9,0,0,0-1.483,2.586c.617,4.674,4.425,2.633,7.66,3.671l-2.2-2.888q1.065-2.268-.451-.734c-2.221,1.67-1.719,5.6,1.511,5.579l.551,0-.8-5.882c-6.1,1.916-14.671-1.342-16.746-7.734l-5,2.914c2.971,3.017,7.629,3,9.975,6.7,1.7,2.678,5.246,1.348,5.58-1.511L17,33.541l-5.58,1.511c2.445,3.467,3.2,5.406,7.353,6.644,0,0,1.711.052,1.506-.175a34.7,34.7,0,0,1-.919,3.414,17.8,17.8,0,0,0-.288,6.931l5.775-1.592c-.71-2.8-1.513-5.563-2.417-8.308-1.02-3.1-5.956-2.714-5.881.8a26.357,26.357,0,0,0,1.157,7.354c1.123,3.675,6.906,2.108,5.775-1.592a20.549,20.549,0,0,1-.944-5.762l-5.881.8c.9,2.746,1.706,5.506,2.416,8.308.976,3.846,6.287,2.1,5.775-1.592-.573-4.138,3.758-9.675.163-13.321a5.716,5.716,0,0,0-3.367-1.472c-.571-.12-1.366.414-1.915.24-1.518-.481-2.3-2.506-3.137-3.692a3.024,3.024,0,0,0-5.58,1.512l-.389,3.323,5.58-1.512a14.1,14.1,0,0,0-4.186-4.473C9.9,29.5,7.089,29.268,5.293,27.444c-2.042-2.074-5.942.025-5,2.914C3.356,39.807,15.029,45.215,24.4,42.274c3.159-.992,2.673-5.905-.8-5.882l-.551,0,1.512,5.58c1.722-1.3,3.241-2.125,3.417-4.437a3.032,3.032,0,0,0-2.2-2.887c-1.361-.437-3.562.377-4.706-.173l1.483,2.586-.04-.309-1.483,2.586c5.688-2.967,13.194-4.144,19.292-6.187,2.667-.893,3.023-5.045,0-5.775a5.137,5.137,0,0,0-1.6-.2l3,2.994,0-.268a3.027,3.027,0,0,0-5.112-2.117c-2.492,2.6-5.389,5.369-8.992,6.188l3.684,3.684q-1.859,1.758-.205.816l2.186-.988-3.023-5.171a10.45,10.45,0,0,1-3.758,1.447l2.914,5.005c2.244-2.808,2.879-3.945,3.02-7.48a3.018,3.018,0,0,0-3.79-2.888,9.307,9.307,0,0,1-3.887.652c-3.846.1-3.861,6.094,0,5.989Z"/><path class="a" d="M16.2,49.239,15.867,50.8h5.786l-.2-.5c-.963-2.441-5.191-3.234-5.786,0-.3,1.613-.432,3.213-.614,4.843-.241,2.15,2.777,3.9,4.514,2.59l.226-.191-2.121-.879c2.467,2.412,5.139,1.247,6.841-1.29H19.334l-.067-.185,5.892-.8c-2.152-6.171-.87-12.06,1.7-17.876,1.546-3.5-3.622-6.556-5.181-3.028-3.212,7.268-5,14.759-2.3,22.5,1.048,3.007,6.128,2.779,5.893-.8a7.247,7.247,0,0,0-.752-2.843c-1.024-2.183-4.038-1.705-5.181,0l-.1.122,2.312-.3c1.142.254-1.385-.574-1.747-.622a3.99,3.99,0,0,0-3.254,1.01l4.514,2.591q.169-1.628.4-3.248H15.669l.2.5c.985,2.5,5.1,3.183,5.786,0l.337-1.556c.815-3.765-4.968-5.373-5.786-1.6Z"/><path class="b" d="M29.091,22.451a36.52,36.52,0,0,0-1.77,3.9c-1.024,2.613,2.306,4.489,4.407,3.388l1.258-.658-4.1-4.1-1.633,2.673c-1.834,3,2.24,5.853,4.712,3.636L34.6,28.916,29.585,26l-.324,1.98c-.527,3.222,3.6,5.381,5.483,2.312l1.665-2.709-5.591-1.514.062,1.277a3.015,3.015,0,0,0,5.893.8c.7-2.052,1.3-4.114,1.812-6.222L32.8,20.323c-.47,3.318-1.493,6.358.709,9.166a3.01,3.01,0,0,0,4.712-.607c1.178-2.732,1.066-5.594,1.157-8.546.072-2.347.006-3.574-1.671-5.3a3.037,3.037,0,0,0-4.243,0c-.947.987-2.049,1.525-2.932,2.593-1.158,1.4-2.077,2.847-3.353,4.161a13.1,13.1,0,0,0-4.119,7.538c-.46,2.777,2.746,5.23,5.015,2.918,5.5-5.6,2.364-15.258,3.367-22.11H25.655a21.072,21.072,0,0,0,1.725,4.69A15.368,15.368,0,0,0,28.909,17.2q.678,1.372.636-.157l1.793-1.378a36.866,36.866,0,0,0-2.331-4.319A4.247,4.247,0,0,0,26.432,9.5a2.953,2.953,0,0,0-2.919.772c-2,2.37-2.979,5.684-4.158,8.536a36.5,36.5,0,0,0-2.9,9.308c-.432,3.3,4.073,3.574,5.59,1.514l4.33-5.879-5.59-1.514L20.215,27.6c-.411,3.835,5.592,3.806,6,0l.573-5.355c.353-3.295-4.049-3.608-5.591-1.515l-4.33,5.88,5.591,1.514a26.233,26.233,0,0,1,2.07-6.217c.861-2.122,1.728-5.611,3.228-7.384l-2.919.771.579.169-1.792-1.379C25.642,17,28.413,23.953,33.291,21.3c5.369-2.922-.956-9.28-1.85-12.753-.691-2.682-5.342-3.031-5.786,0-.481,3.283-.021,6.454-.137,9.749-.1,2.791.347,7.641-1.687,9.714l5.014,2.919c.752-4.533,5.788-8.443,8.861-11.644H33.463a9.424,9.424,0,0,0,.823.813l-.879-2.122c.105,2.121.472,5.932-.368,7.88l4.712-.608c.23.294.853-3.464.834-3.328.524-3.7-4.854-5.455-5.786-1.595-.508,2.108-1.109,4.171-1.812,6.222l5.893.8-.062-1.277a3.025,3.025,0,0,0-5.59-1.514L29.563,27.26l5.484,2.312.324-1.98c.477-2.915-2.663-5.028-5.015-2.918l-2.639,2.367,4.712,3.636L34.062,28c1.629-2.667-1.541-5.447-4.1-4.105l-1.257.659,4.407,3.387a15.848,15.848,0,0,1,1.165-2.464c1.817-3.406-3.36-6.44-5.181-3.029Z"/><path class="b" d="M18.3,26.539l.011-.563a3.032,3.032,0,0,0-5.121-2.121A26.194,26.194,0,0,0,8.663,29.9l5.483,2.311a17.366,17.366,0,0,0,.4-4.4c-.169-3.949-5.549-3.756-6,0l-.333,1.074,5.893.8a20.522,20.522,0,0,0-.786-4.7c-.5-1.692-2.793-2.98-4.407-1.793a20.578,20.578,0,0,1-2.83,1.758l3.635.469-.855-.878C6.83,21.656,2.885,23.479,3.38,26.842l.267,1.814c.524,3.557,5.631,2.331,5.893-.8l1.024-12.234-.879,2.121q-1.05.53-.14.277a3.052,3.052,0,0,0,2.1-3.691l-.023-.106L6.134,16.538c1.754,2.785.017,6.845,2.6,9.377a3.049,3.049,0,0,0,3.635.469,6.659,6.659,0,0,0,1.714-1.621L9.071,23.439l.608,1.993a3.042,3.042,0,0,0,4.407,1.793c2.111-1.125,2.8-3.478,3.762-5.53l-5.483-.716c.708,2,1.245,4.554,3.721,4.944,2.393.376,4.015-1.727,5.559-3.2L16.631,21.4l.182.833C17.634,26,23.42,24.406,22.6,20.635l-.181-.833c-.5-2.278-3.461-2.806-5.014-1.323-.076.071-2.11,1.618-.918,1.5l2.121.879a5.189,5.189,0,0,0-.456-1.471c-.775-2.192-4.3-3.246-5.483-.717-.3.653-.987,3.046-1.609,3.378l4.407,1.792-.609-1.993c-.6-1.97-3.521-3.166-5.014-1.324l-.5.683,3.635.469c-.249-.244-.294-3.588-.391-4.313a8.8,8.8,0,0,0-1.272-3.849,3.015,3.015,0,0,0-5.484,2.311l.023.106,2.095-3.69c-2.643.5-3.266,2.154-3.488,4.611-.331,3.668-.614,7.341-.921,11.011l5.893-.8-.267-1.814L3.683,27.559a11.1,11.1,0,0,0,1.793,2.092,3.115,3.115,0,0,0,3.635.469,20.578,20.578,0,0,0,2.83-1.758L7.534,26.569a12.892,12.892,0,0,1,.572,3.107,3.015,3.015,0,0,0,5.893.8,11.264,11.264,0,0,0,.547-2.669h-6a7.453,7.453,0,0,1-.186,2.808c-.662,3.188,3.778,5.444,5.483,2.312A20.586,20.586,0,0,1,17.43,28.1l-5.122-2.122-.011.563c-.077,3.862,5.923,3.862,6,0Z"/><path class="c" d="M31.1,12.555c-4.318-1.864-7.234.141-9.84,3.664l5.483,2.312.4-2.037c.639-3.23-3.68-5.372-5.483-2.312l-.975,1.656,5.59,1.514a23.086,23.086,0,0,0-.686-4.181,3.033,3.033,0,0,0-5.014-1.324L18.959,13.3l5.015,2.919.518-2.682c.6-3.1-3.987-5.616-5.484-2.311l-.733,1.619,5.483,2.312c1.489-4.271,2.813-9.423-.465-13.122-1.162-1.313-3.034-.954-4.242,0-1.378,1.087-1.581,2.129-2.3,3.672a22,22,0,0,0-1.411,2.284c-.059.762,1.75.322.964-.133a2.941,2.941,0,0,0-3.028,0,4.8,4.8,0,0,1-.566.4l3.636.469.134.976-2.2,2.893-1.456-1.146.469-3.636a28.69,28.69,0,0,1-3.959,3.828c-1.05.783-1.99.975-2.551,2.278a3.132,3.132,0,0,0,.469,3.635l.291.286a2.964,2.964,0,0,0,2.919.771c1.7-.634,3.653-3.98,4.942-4.182l-3.69-2.1c.3,1.375-1.354,4.42-1.408,5.916a4.555,4.555,0,0,0,.617,2.865c.914,1.482,3.465,2.181,4.711.607l1.542-1.947-5.122-2.121q.04,1.818.143,3.633A3.029,3.029,0,0,0,16.7,23.88a6.862,6.862,0,0,0,3.049-3.765,25.714,25.714,0,0,0,.736-3.267c.256-1.083,1.987-3.832-.094-3.284l-3.388-1.379c1.395,1.95,3.334,3.275,5.818,2.439a4.719,4.719,0,0,0,2.49-2.2A7.546,7.546,0,0,0,25.582,9.5l-2.591,1.486c-1.609.21-.529,2.129-.3,3.11a3.032,3.032,0,0,0,5.484.717,10.324,10.324,0,0,0,.888-1.8q.426-1.476-.4-.228L26.075,11.3c1.011,2.09,2.349,4.4,2.038,6.773h6l-.084-1.27c-.254-3.817-5.984-3.9-6,0l0,.629,5.59-1.514-1.035-1.7L27.87,17.849c3.432,3.4,7.9,4.951,10.5-.283l-5.484-.717a7.544,7.544,0,0,1-.092,1.868c-.415,3.834,5.588,3.8,6,0a11.8,11.8,0,0,0-.122-3.463c-.421-2.519-4.382-2.931-5.483-.717a15.866,15.866,0,0,1-1.667,1.592l2.919-.772a5.692,5.692,0,0,1-2.329-1.751c-2.391-2.368-6.51.679-4.711,3.636l1.034,1.7a3.024,3.024,0,0,0,5.591-1.514l0-.629h-6l.084,1.27c.262,3.948,5.507,3.758,6,0,.476-3.63-1.319-6.621-2.857-9.8a2.905,2.905,0,0,0-2.59-1.486c-4.047.4-4.019,1.952-5.67,5l5.483.716c-.682-2.9-1.264-7.669-5.2-7.553A3.49,3.49,0,0,0,20.239,6.7a3.377,3.377,0,0,0-.572,1.748c-.029,2.948,1.22-1.11,2.521.707A3.118,3.118,0,0,0,18.8,7.778c-1.445.38-1.945,1.3-2.6,2.5-.965,1.772-.853,7.365-2.526,8.42L18.19,21.29q-.1-1.815-.143-3.633c-.072-2.343-3.406-4.288-5.121-2.121l-1.541,1.946,4.711.608c-.367-.6,1.76-5.677,1.4-7.348a3.076,3.076,0,0,0-3.691-2.1c-2.471.388-3.026,3.467-4.942,4.182l2.918.772-.29-.285.469,3.635c-.247.574-1.094.659.048.238a6.07,6.07,0,0,0,1.759-1.3,43.282,43.282,0,0,0,3.765-3.824A3.137,3.137,0,0,0,18,8.424c-.959-2.047-3.446-1.877-5.32-1.61a3.009,3.009,0,0,0-2.2,2.892A5.039,5.039,0,0,0,12.1,12.972a3.012,3.012,0,0,0,3.636.47,4.869,4.869,0,0,0,.565-.4H13.272c1.971,1.14,3.339,1.36,5.305.123a10.112,10.112,0,0,0,2.608-2.685c.786-1.171,1.021-3.342,2.108-4.2H19.051c1.3,1.465-.533,5.718-1.079,7.285-1.105,3.169,4.074,5.423,5.484,2.312l.733-1.62-5.483-2.312-.518,2.682A3.026,3.026,0,0,0,23.2,17.543l1.613-1.453L19.8,14.766l.472,2.586c.254,2.838,3.984,4.241,5.591,1.514l.975-1.656L21.356,14.9l-.4,2.037a3.015,3.015,0,0,0,5.483,2.311,2.593,2.593,0,0,1,1.631-1.511c3.508,1.515,6.567-3.653,3.028-5.181Z"/><path class="c" d="M7.473,15.875c-.285,1.679-1.234,2.2-2.393,3.472A8.034,8.034,0,0,0,2.8,25.1c.055,3.858,6.055,3.869,6,0-.019-1.309.683-1.644,1.728-2.7a9.2,9.2,0,0,0,2.728-4.929,3.09,3.09,0,0,0-2.1-3.691,3.024,3.024,0,0,0-3.69,2.1Z"/><path class="c" d="M3.407,17.242a12.118,12.118,0,0,0-.178,2.741c.185,2.461,3.218,4.125,5.122,2.122A12.107,12.107,0,0,0,9.73,20.342L4.14,18.828,4.165,21.1c.032,2.838,4.211,4.266,5.591,1.514L11.5,19.127l-5.59-1.514a11.844,11.844,0,0,1-.142,2.078c-.445,2.836,2.689,5.144,5.014,2.919a9.1,9.1,0,0,0,2.3-3.7l-5.893-.8a2.449,2.449,0,0,1-.052.8,3.031,3.031,0,0,0,1.737,3.539,2.972,2.972,0,0,0,3.746-1.227l.632-1.4a3,3,0,0,0-5.18-3.029c-1.028,1.371-2.447,2.419-3.517,3.763A9.618,9.618,0,0,0,2.35,26.114c-.249,3.855,5.752,3.84,6,0,.077-1.189,1.116-2.131,1.9-2.921a32.524,32.524,0,0,0,3.013-3.37L8.08,16.794l-.633,1.4L12.931,20.5a13.456,13.456,0,0,0,.266-2.392c.037-3.517-4.8-3.895-5.893-.8a2.537,2.537,0,0,1-.762,1.052l5.014,2.919a21.189,21.189,0,0,0,.357-3.673c-.05-2.828-4.2-4.277-5.59-1.514L4.575,19.583l5.59,1.514-.025-2.269a3.025,3.025,0,0,0-5.59-1.515,1.339,1.339,0,0,1-.442.549l5.121,2.121a5.778,5.778,0,0,1-.036-1.146,3.1,3.1,0,0,0-2.1-3.69c-1.414-.389-3.45.482-3.69,2.1Z"/><path class="c" d="M14.267,18.886a12.626,12.626,0,0,0,.547,2.947,3.041,3.041,0,0,0,5.484.717l.888-1.411L15.6,19.625a39.3,39.3,0,0,1,.229,5.831c-.1,2.905,4.244,4.18,5.59,1.514,1.2-2.376,1.318-4.984,2.307-7.417H17.937a19.174,19.174,0,0,1,.2,3.89c-.123,3.37,5.092,4.091,5.893.8l.835-3.439-5.893-.8q.021,2.432-.122,4.856c-.206,3.5,4.892,3.907,5.893.8L26,21.737H20.216l.068.361c-.057,2.895,4.22,4.193,5.59,1.514l.7-1.361-5.484-.716c.209.749-.407,1.531-.725,2.176A21.682,21.682,0,0,0,19.3,26.434l1.378-1.793-.141.1h3.029l-.232-.168,1.076,1.076-1.875-2.761c-.822-1.21-2.75-2.119-4.105-1.076A5.289,5.289,0,0,0,16.2,27.636c.939,3.743,6.727,2.157,5.786-1.595L21.458,27l-4.1-1.077a14.927,14.927,0,0,0,3.183,4.006,2.9,2.9,0,0,0,3.029,0c1.418-1.031,1.755-2.664,2.488-4.186a7.96,7.96,0,0,0,.82-5.8c-.661-2.381-4.281-3.066-5.483-.717l-.7,1.361L26.284,22.1A5.48,5.48,0,0,0,26,20.142a3.027,3.027,0,0,0-5.785,0l-1.262,3.921,5.893.8q.142-2.428.122-4.856c-.028-3.323-5.078-4.152-5.893-.8l-.835,3.439,5.893.8a27.043,27.043,0,0,0-.412-5.485,3.014,3.014,0,0,0-2.892-2.2,3.143,3.143,0,0,0-2.893,2.2c-.781,1.919-.772,4.141-1.7,5.984l5.591,1.514a39.3,39.3,0,0,0-.229-5.831c-.326-2.858-3.895-4.208-5.591-1.515l-.888,1.411,5.483.717a5.876,5.876,0,0,1-.333-1.352c-.322-3.82-6.325-3.854-6,0Z"/><path class="c" d="M27.363,14.819c-.9,1.6-3.137,5.241-.8,6.572,1.343.767,2.32-.591,2.984-1.541a26.169,26.169,0,0,0,1.809-3.03c.879-1.714-1.708-3.234-2.59-1.514a15.673,15.673,0,0,1-2.3,3.673l.662-.385-.2.056,1.156.151-.179-.13.538.538-.1-.23.205.757a3.991,3.991,0,0,1,.506-1.594,18.658,18.658,0,0,1,.911-1.809c.946-1.686-1.644-3.2-2.59-1.514Z"/><path class="c" d="M32.612,19.685l.228-.538L34,19l-.647-.189a1.519,1.519,0,0,0-2.2.9c-.309,1.161-.293,2.5.931,3.073a2.155,2.155,0,0,0,2.772-1.144l-2.356.3c.5.578.5,2.925.62,3.653.17,1.051,1.419,1.246,2.2.9l.317-.141-2.257-1.3c.051.643.076,1.271.079,1.915a1.507,1.507,0,0,0,2.946.4c.924-2.4.533-5.331,1.034-7.858l-2.507.662c.251.286-.051,2.128-.07,2.451q-.088,1.581-.3,3.152c-.215,1.6,1.771,2.707,2.742,1.156,1.167-1.862.958-3.935,1.416-6H35.825c.381,1.983-.05,4.779-1.655,6.1-1.491,1.228.641,3.34,2.121,2.121,2.461-2.026,3-6.045,2.427-9.018a1.511,1.511,0,0,0-2.893,0c-.384,1.733-.148,3.744-1.113,5.285l2.741,1.156c.332-2.461,1.394-6.474-.4-8.523a1.509,1.509,0,0,0-2.507.662,35.526,35.526,0,0,0-.565,3.894,14.044,14.044,0,0,1-.469,3.965l2.947.4c0-.644-.028-1.272-.079-1.915a1.524,1.524,0,0,0-2.257-1.295L33.8,23.9l2.2.9c-.271-1.667-.239-3.651-1.392-4.977a1.513,1.513,0,0,0-2.356.3l.177-.083,1.156.151-.28-.137.689.9.038-.445-2.2.9c1.547.814,3.936.536,3.777-1.713-.136-1.915-3.137-1.93-3,0Z"/><path class="c" d="M15.151,24.637a12.631,12.631,0,0,0,1.5,2.132,3,3,0,0,0,5.122-2.121l-.107-.8a3.006,3.006,0,0,0-.772-1.324q-.139-.167-.272-.337l.469.607a9.153,9.153,0,0,1-.759-1.187,3,3,0,0,0-5.18,3.028Z"/><path class="c" d="M20.26,29.879a1.467,1.467,0,0,1,.195.191l-.469-.607a1.411,1.411,0,0,1,.169.279l-.3-.717a1.443,1.443,0,0,1,.09.314l-.107-.8c.005.036.008.072.01.108a2.253,2.253,0,0,0,.258,1.156,2.693,2.693,0,0,0,1.586,1.586,2.253,2.253,0,0,0,1.156.258,3.027,3.027,0,0,0,2.121-.878,2.971,2.971,0,0,0,.879-2.122,4.585,4.585,0,0,0-.533-1.986,3.268,3.268,0,0,0-.81-1.027,2.249,2.249,0,0,0-.966-.621,2.717,2.717,0,0,0-2.311,0,2.249,2.249,0,0,0-.966.621,3.014,3.014,0,0,0-.878,2.121l.107.8a2.986,2.986,0,0,0,.771,1.323Z"/><path class="c" d="M22.045,23.075c.081.086.155.173.227.266l-.469-.607a3.226,3.226,0,0,1,.341.61l-.3-.717a3.285,3.285,0,0,1,.178.676l-.108-.8c.01.077.017.155.02.233a3.179,3.179,0,0,0,.879,2.121,3,3,0,0,0,4.242,0,2.983,2.983,0,0,0,.879-2.121,6.1,6.1,0,0,0-1.644-3.906,3.024,3.024,0,0,0-4.243,0,3.065,3.065,0,0,0,0,4.243Z"/><path class="c" d="M27.953,21.09a13.21,13.21,0,0,0-1.022-2.462,3.025,3.025,0,0,0-4.1-1.076,3.065,3.065,0,0,0-1.077,4.1c.14.26.267.524.383.8l-.3-.716a9.912,9.912,0,0,1,.336.95,3.134,3.134,0,0,0,1.379,1.793,3,3,0,0,0,4.407-3.388Z"/><path class="b" d="M15.005,34.3c.47-.726.954-1.442,1.46-2.143.575-.8.743-1.007,1.31-1.7a3.073,3.073,0,0,0,0-4.243c-1.1-1.007-3.185-1.3-4.243,0a57.339,57.339,0,0,0-3.707,5.062,3.024,3.024,0,0,0,1.076,4.1,3.066,3.066,0,0,0,4.1-1.077Z"/><path class="b" d="M9.793,23.855a23.632,23.632,0,0,0,.316,3.037,3,3,0,0,0,1.378,1.793,3,3,0,0,0,4.105-1.076,3.456,3.456,0,0,0,.3-2.312c-.027-.171-.052-.342-.075-.514l.107.8c-.072-.574-.116-1.148-.133-1.726a3,3,0,1,0-6,0Z"/><path class="a" d="M23.613,32.869a3.581,3.581,0,0,0,.455-1.637,4.533,4.533,0,0,0-.11-.994l-.3-.716a2.254,2.254,0,0,0-.773-.842,1.49,1.49,0,0,0-.662-.386,2.249,2.249,0,0,0-1.155-.258,3.468,3.468,0,0,0-1.721.488,3.344,3.344,0,0,0-1.212,1.27,3.9,3.9,0,0,0-.462,1.771c0,.164.008.326-.008.489l.107-.8-.015.08a2.264,2.264,0,0,0-.053,1.2,2.229,2.229,0,0,0,.356,1.116,3,3,0,0,0,4.1,1.076,2.959,2.959,0,0,0,1.379-1.793,5.948,5.948,0,0,0,.132-1.08c0-.123,0-.244,0-.367l-.107.8a.972.972,0,0,1,.047-.176l-.3.717a.58.58,0,0,1,.058-.107l-.469.607a.459.459,0,0,1,.078-.087l-.607.469a.344.344,0,0,1,.1-.059l-.717.3.054-.016-.8.107.058,0-2.893-2.2.01.065-.107-.8a.445.445,0,0,1-.008.131l.107-.8-.018.063.3-.716-.027.059a2.229,2.229,0,0,0-.356,1.116,2.264,2.264,0,0,0,.053,1.2,3.062,3.062,0,0,0,1.379,1.793,3.025,3.025,0,0,0,2.311.3,2.919,2.919,0,0,0,1.793-1.378Z"/><path class="a" d="M33.187,39.627A20.919,20.919,0,0,1,37.37,35.56a3.081,3.081,0,0,0,1.076-4.1,3.025,3.025,0,0,0-4.1-1.077,27.585,27.585,0,0,0-6.336,6.22c-.966,1.3-.215,3.35,1.076,4.105a3.071,3.071,0,0,0,4.1-1.077Z"/><path class="b" d="M17.327,15.875l-.206.978a2.275,2.275,0,0,0-.054,1.2,2.232,2.232,0,0,0,.356,1.115,2.262,2.262,0,0,0,.773.842,2.265,2.265,0,0,0,1.02.537,3.039,3.039,0,0,0,2.312-.3,2.992,2.992,0,0,0,1.378-1.793l.206-.978a2.279,2.279,0,0,0,.054-1.2,2.232,2.232,0,0,0-.356-1.115,2.27,2.27,0,0,0-.773-.842,2.265,2.265,0,0,0-1.02-.537,3.035,3.035,0,0,0-2.312.3,2.992,2.992,0,0,0-1.378,1.793Z"/><path class="b" d="M19.653,21.114c3.861,0,3.867-6,0-6s-3.867,6,0,6Z"/><path class="b" d="M17.24,17.146A7.163,7.163,0,0,0,15.125,21a3.04,3.04,0,0,0,4.407,3.388l.4-.219-4.407-1.793c.388,1.765.581,3.276,1.748,4.7l-.879-2.121.039.574c.212,3.119,3.817,3.887,5.591,1.514l.769-1.029H17.611a3.172,3.172,0,0,0,2.07,1.553l-1.792-1.379c.475.71.855-1.156.218-.357a3.215,3.215,0,0,0-.62,1.441,3,3,0,0,0,.772,2.918c3.047,2.475,5.842.177,6.628-3.109A14.778,14.778,0,0,0,25,21.354c-.295-1.929-1.222-3.935-1.369-5.849l-3,3a12.2,12.2,0,0,0,1.25-.191l-3.69-2.095.056.186A3.048,3.048,0,0,0,21.935,18.5l.035-.01-3.388-1.379a17.808,17.808,0,0,1,2.1,7.54c.087,3.855,6.088,3.869,6,0a24.915,24.915,0,0,0-2.921-10.568A3.024,3.024,0,0,0,20.375,12.7l-.035.011,3.69,2.1-.056-.186a3.071,3.071,0,0,0-3.691-2.1l.345-.024c-1.513.17-3.135,1.239-3,3a35.231,35.231,0,0,0,1.134,5.15c.233,1.007,1.162,4.575.194,5.481l2.122-.879-.4.052,2.121.878-.295-.239.772,2.919q-.729,1.084.136-.089a4.273,4.273,0,0,0,.568-1.151,5.164,5.164,0,0,0-.12-2.369c-.336-1.648-1.073-3.054-2.8-3.539L22.848,23.1l-.056-.112c-1.105-2.222-3.95-1.647-5.181,0l-.769,1.029,5.59,1.514a7.46,7.46,0,0,0-.683-2.392c-.184-.488-.25-1.492-.439-2.354A3.031,3.031,0,0,0,16.9,18.99l-.4.219L20.911,22.6a1.294,1.294,0,0,1,.572-1.208c2.742-2.726-1.5-6.969-4.243-4.243Z"/><path class="a" d="M23.353,31.505a.435.435,0,0,1,0-.1l-.107.8a.5.5,0,0,1,.025-.1l-.3.717a.468.468,0,0,1,.05-.09l-.469.608a.363.363,0,0,1,.041-.046,2.256,2.256,0,0,0,.62-.966,2.709,2.709,0,0,0,0-2.312,2.253,2.253,0,0,0-.62-.965l-.607-.469a2.985,2.985,0,0,0-1.514-.41l-.8.107a3.006,3.006,0,0,0-1.324.772c-.015.015-.027.03-.041.046l-.469.607-.012.017a3.75,3.75,0,0,0-.344.8,2.683,2.683,0,0,0-.075.489,2.008,2.008,0,0,0-.052.5,2.273,2.273,0,0,0,.258,1.156A2.7,2.7,0,0,0,19.2,34.247a2.255,2.255,0,0,0,1.156.258l.8-.107a3,3,0,0,0,1.323-.771l.47-.608a2.988,2.988,0,0,0,.409-1.514Z"/><path class="a" d="M22.656,49.017h-.063a2.26,2.26,0,0,0-1.155.259,2.695,2.695,0,0,0-1.586,1.585,2.266,2.266,0,0,0-.259,1.156l.108.8a3,3,0,0,0,.771,1.324l.607.469a2.984,2.984,0,0,0,1.514.409h.063a2.255,2.255,0,0,0,1.156-.258A2.695,2.695,0,0,0,25.4,53.173a2.263,2.263,0,0,0,.259-1.156l-.107-.8a3,3,0,0,0-.772-1.324l-.607-.469a3,3,0,0,0-1.514-.41Z"/><path class="a" d="M24.527,37.039h-.062a2.266,2.266,0,0,0-1.156.259,2.7,2.7,0,0,0-1.586,1.585,2.265,2.265,0,0,0-.258,1.156l.107.8a3.006,3.006,0,0,0,.772,1.324l.607.469a2.984,2.984,0,0,0,1.514.409h.062a2.253,2.253,0,0,0,1.156-.258A2.693,2.693,0,0,0,27.269,41.2a2.253,2.253,0,0,0,.258-1.156l-.107-.8a2.989,2.989,0,0,0-.771-1.324l-.607-.469a2.985,2.985,0,0,0-1.515-.41Z"/><path class="b" d="M27.21,32.309c3.861,0,3.867-6,0-6s-3.867,6,0,6Z"/><path class="b" d="M28.333,28.5c3.861,0,3.867-6,0-6s-3.867,6,0,6Z"/><path class="b" d="M28.77,33.8a1.5,1.5,0,0,0,0-3,1.5,1.5,0,0,0,0,3Z"/><path class="b" d="M30.579,33.806c3.861,0,3.867-6,0-6s-3.867,6,0,6Z"/><path class="b" d="M8.931,31.248c3.861,0,3.867-6,0-6s-3.867,6,0,6Z"/><path class="b" d="M13.366,26.127v-.062a2.266,2.266,0,0,0-.259-1.156,2.229,2.229,0,0,0-.62-.965,2.246,2.246,0,0,0-.965-.621,2.255,2.255,0,0,0-1.156-.258l-.8.107a3,3,0,0,0-1.323.772l-.47.607a2.991,2.991,0,0,0-.409,1.514v.062a2.253,2.253,0,0,0,.258,1.156,2.249,2.249,0,0,0,.621.966,2.247,2.247,0,0,0,.965.62,2.255,2.255,0,0,0,1.156.258l.8-.107a2.993,2.993,0,0,0,1.324-.771l.469-.608a2.982,2.982,0,0,0,.41-1.514Z"/><path class="b" d="M24.37,28.4c-1.158,1.262-.623,2.643.575,3.621a4.662,4.662,0,0,1,1.833,4.349c-.145,1.439,2.214,2.107,2.8.757a10.822,10.822,0,0,1,1.886-3.011c1.286-1.433-.828-3.562-2.121-2.122a13.209,13.209,0,0,0-2.356,3.619l2.795.757a7.479,7.479,0,0,0-.8-4.176,7.248,7.248,0,0,0-1.182-1.657,7.63,7.63,0,0,0-.773-.688l-.3-.234q-.6-.6-.222.907c1.3-1.421-.813-3.548-2.122-2.122Z"/><path class="b" d="M27.959,38.919h.062A1.446,1.446,0,0,0,29.392,38a1.126,1.126,0,0,0,.129-.578l-.054-.4a1.5,1.5,0,0,0-.385-.662l-.3-.234a1.491,1.491,0,0,0-.757-.205h-.062a1.446,1.446,0,0,0-1.371.922,1.129,1.129,0,0,0-.129.578l.053.4a1.505,1.505,0,0,0,.386.662l.3.234a1.491,1.491,0,0,0,.757.2Z"/><path class="c" d="M36.342,30.05a3.827,3.827,0,0,0,1.589-2.059,1.513,1.513,0,0,0-1.048-1.845,1.535,1.535,0,0,0-1.845,1.048c-.023.068-.047.134-.075.2l.152-.359a2.482,2.482,0,0,1-.251.432l.235-.3a2.4,2.4,0,0,1-.4.406l.3-.234c-.057.043-.115.083-.176.122a1.5,1.5,0,0,0,1.515,2.591Z"/><path class="c" d="M36.165,16.4a1.5,1.5,0,0,0,0-3,1.5,1.5,0,0,0,0,3Z"/><path class="c" d="M36.6,15.175a1.5,1.5,0,0,0,0-3,1.5,1.5,0,0,0,0,3Z"/><path class="c" d="M15.567,12.238c-.034.76-.092.489-.009.225.1-.322-.346.6-.052.181.165-.236.314-.5.466-.741a6.053,6.053,0,0,0,.881-2.771,3.008,3.008,0,0,0-2.2-2.893l.392.163a3.019,3.019,0,0,0-4.1,1.076,3.074,3.074,0,0,0,1.077,4.105,3.127,3.127,0,0,0,1.041.442l-2.2-2.893q.132-.732.039-.385-.069.225.065-.122c.221-.472-.017,0-.076.1-.146.253-.316.492-.467.741a5.682,5.682,0,0,0-.847,2.772,3.021,3.021,0,0,0,3,3,3.065,3.065,0,0,0,3-3Z"/><path class="c" d="M6.775,18.966a2.2,2.2,0,0,0,.844.111,3.1,3.1,0,0,0,1.545-.42,2.845,2.845,0,0,0,.639-.494,3.1,3.1,0,0,0,.79-1.358,2.279,2.279,0,0,0,.054-1.2,2.232,2.232,0,0,0-.356-1.115,2.27,2.27,0,0,0-.773-.842,2.26,2.26,0,0,0-1.02-.537l-.8-.107a2.985,2.985,0,0,0-1.515.41l-.607.469a2.986,2.986,0,0,0-.771,1.323l0,.013.3-.717-.01.017.469-.607a.107.107,0,0,1-.018.019l.607-.469-.023.014.717-.3a.129.129,0,0,1-.026.008l.8-.107H7.592l.8.107-.02-.005a2.264,2.264,0,0,0-1.2-.053,2.239,2.239,0,0,0-1.116.356,2.264,2.264,0,0,0-.841.772,2.264,2.264,0,0,0-.537,1.021l-.107.8a2.981,2.981,0,0,0,.409,1.514l.469.608a3,3,0,0,0,1.324.771Z"/><path class="c" d="M16.707,15.235h.066a2.263,2.263,0,0,0,1.156-.258,2.249,2.249,0,0,0,.966-.621,2.247,2.247,0,0,0,.62-.965,2.255,2.255,0,0,0,.258-1.156l-.107-.8a3,3,0,0,0-.771-1.323l-.608-.469a2.979,2.979,0,0,0-1.514-.41h-.066a2.265,2.265,0,0,0-1.156.258,2.246,2.246,0,0,0-.965.621,2.24,2.24,0,0,0-.621.965,2.275,2.275,0,0,0-.258,1.156l.107.8a3,3,0,0,0,.772,1.323l.607.469a2.985,2.985,0,0,0,1.514.41Z"/><path class="c" d="M5.081,12.765l-.175,2.12a1.508,1.508,0,0,0,1.5,1.5,1.538,1.538,0,0,0,1.5-1.5l.175-2.12a1.506,1.506,0,0,0-1.5-1.5,1.539,1.539,0,0,0-1.5,1.5Z"/><path class="b" d="M21.609,14.9a1.5,1.5,0,0,0,0-3,1.5,1.5,0,0,0,0,3Z"/><path class="a" d="M3.426,31.563a1.981,1.981,0,0,1,.432.3c-.1-.124-.173-.139-.015,0,.066.057.132.115.194.176s.1.1.146.149c.232.228-.1-.178-.008-.024.044.07.088.146.137.215.169.235-.091-.281.014.017a1.5,1.5,0,0,0,2.893-.8,5.3,5.3,0,0,0-2.278-2.621,1.512,1.512,0,0,0-2.053.539,1.535,1.535,0,0,0,.538,2.052Z"/><path class="a" d="M30.684,40.011l.815-.833a1.554,1.554,0,0,0,.439-1.061,1.524,1.524,0,0,0-.439-1.06,1.507,1.507,0,0,0-1.061-.44,1.546,1.546,0,0,0-1.06.44l-.815.833a1.551,1.551,0,0,0-.439,1.06,1.526,1.526,0,0,0,.439,1.061,1.51,1.51,0,0,0,1.061.439,1.545,1.545,0,0,0,1.06-.439Z"/><path class="a" d="M29.029,41.466a1.5,1.5,0,0,0,0-3,1.5,1.5,0,0,0,0,3Z"/><path class="b" d="M14.141,25.258v.027a2.266,2.266,0,0,0,.259,1.156,2.7,2.7,0,0,0,1.585,1.586,2.255,2.255,0,0,0,1.156.258l.8-.107a3.006,3.006,0,0,0,1.324-.772l.469-.607a2.981,2.981,0,0,0,.409-1.514v-.027a2.253,2.253,0,0,0-.258-1.156A2.693,2.693,0,0,0,18.3,22.516a2.253,2.253,0,0,0-1.156-.258l-.8.107a3,3,0,0,0-1.324.771l-.469.608a2.979,2.979,0,0,0-.41,1.514Z"/><path d="M.231,26.447c-.876,3.64.864,7.725,3.151,10.5a20.544,20.544,0,0,0,10.473,6.674,26.53,26.53,0,0,0,13.326.213,26.559,26.559,0,0,0,10.967-6.18c3.236-2.884,5.193-6.192,5.126-10.635-.008-.519-.291-1.37-.937-1.354-.678.017-.847.891-.87,1.4-.148,3.2-1.931,5.594-4.214,7.68a28.308,28.308,0,0,1-9,5.641C20.92,43.207,11.705,41.852,5.863,36.5a14.366,14.366,0,0,1-3.4-4.543,21.476,21.476,0,0,1-1.381-5.531c-.114-.658-.717-.543-.853.021Z"/><path d="M20.746,28.359a3.66,3.66,0,0,0,1.079,1.248A14.043,14.043,0,0,1,23.1,30.966,16.516,16.516,0,0,1,25.069,33.9a17.616,17.616,0,0,1,1.694,6.605c.042.448.223,1.156.8,1.152s.715-.767.74-1.19a14.571,14.571,0,0,0-2.138-7.779,14.822,14.822,0,0,0-2.317-3.075,14.506,14.506,0,0,0-1.392-1.242c-.4-.312-1.007-.867-1.541-.7-.255.077-.233.512-.167.692Z"/><path d="M5.606,30.065A32.366,32.366,0,0,1,8.97,24.2a9.727,9.727,0,0,1,4.851-3.367c.851-.255.591-2.317-.423-2.052a10.132,10.132,0,0,0-5.234,3.863,24.471,24.471,0,0,0-3.273,6.623.887.887,0,0,0,.136.866.343.343,0,0,0,.579-.067Z"/><path d="M12.7,20.23a20.874,20.874,0,0,1,2.969,4.242A27.822,27.822,0,0,1,17.2,29.34c.1.393.417.972.918.755s.528-.927.476-1.381a15.14,15.14,0,0,0-1.878-5.437,11.436,11.436,0,0,0-3.5-4.141c-.608-.392-.82.73-.521,1.094Z"/><path d="M23.847,30.637c.4-.876.693-1.8,1.074-2.693a15.782,15.782,0,0,1,1.532-2.8,16.037,16.037,0,0,1,4.438-4.373,1.175,1.175,0,0,0,.433-1.254c-.078-.373-.384-.867-.834-.686A11.418,11.418,0,0,0,25.3,23.612c-1.206,1.99-2.367,4.547-2,6.929.055.355.4.417.548.1Z"/><path d="M30.117,19.647A17.38,17.38,0,0,1,31.283,22.2c.364.922.769,1.825,1.095,2.764A19.013,19.013,0,0,1,33.5,30.285c.019.41.217,1.054.728,1.052.5,0,.7-.7.676-1.087a18.538,18.538,0,0,0-1.5-6,22.974,22.974,0,0,0-1.318-2.772c-.491-.842-1.077-1.624-1.575-2.463-.107-.18-.3-.13-.408.01a.6.6,0,0,0,.016.622Z"/><path d="M31.57,20.816a35.763,35.763,0,0,1,2.546-4.685c1.057-1.549,2.489-2.774,3.585-4.281a1.428,1.428,0,0,0,.076-1.263c-.112-.266-.454-.657-.783-.459a9.4,9.4,0,0,0-2.237,2.055,22.46,22.46,0,0,0-1.746,2.351,14.9,14.9,0,0,0-2.18,5.658.832.832,0,0,0,.218.74.34.34,0,0,0,.521-.116Z"/><path d="M36.618,11.011a16.451,16.451,0,0,0,.832,2.376c.253.708.474,1.423.672,2.148a21.691,21.691,0,0,1,.781,4.2,17.5,17.5,0,0,1-.21,4.209,18.6,18.6,0,0,1-.492,2.1,4.317,4.317,0,0,0-.344,2.432c.109.381.315.732.761.626.747-.179.928-1.326,1.1-1.961a22.875,22.875,0,0,0,.551-2.576,20.484,20.484,0,0,0,.14-5.009,22.889,22.889,0,0,0-.969-4.733,25.214,25.214,0,0,0-.929-2.421A7.856,7.856,0,0,0,37.3,10.166c-.459-.505-.741.554-.686.845Z"/><path d="M11.774,19.823a11.465,11.465,0,0,0-1.41-5.253,12.629,12.629,0,0,0-3.32-4.233c-.406-.32-.827,0-.977.419a1.47,1.47,0,0,0,.295,1.5,20.809,20.809,0,0,1,2.814,3.786,13.493,13.493,0,0,1,.9,1.986c.268.731.562,1.451.828,2.182a.439.439,0,0,0,.54.317c.256-.1.329-.46.329-.7Z"/><path d="M5.947,10.831c-.386.567-.9,1.01-1.277,1.589A12.91,12.91,0,0,0,3.7,14.275a19.4,19.4,0,0,0-1.252,4.3,26.186,26.186,0,0,0-.4,4.5,13.837,13.837,0,0,0,.468,4.76c.32.863,1.284.515,1.347-.3.1-1.352-.156-2.73-.162-4.089a26.893,26.893,0,0,1,1.187-8c.191-.636.416-1.262.638-1.888a11.079,11.079,0,0,1,.831-2.129c.182-.3-.115-1.023-.409-.591Z"/><path d="M14.872,21.935c.051-.123.227-.3.3-.446.109-.216.218-.43.331-.644.223-.422.42-.857.65-1.276a22.725,22.725,0,0,1,1.607-2.528,29.193,29.193,0,0,1,4.253-4.32,1.241,1.241,0,0,0,.233-1.23c-.09-.279-.4-.769-.773-.549A16.438,16.438,0,0,0,16.8,15.527a17.927,17.927,0,0,0-1.63,2.743,12.3,12.3,0,0,0-.639,1.49c-.09.277-.17.558-.244.839-.065.244-.053.566-.1.757a.774.774,0,0,0,.159.8c.23.173.433,0,.525-.225Z"/><path d="M21.517,11.261a27.561,27.561,0,0,1,3.12,5.773,27.074,27.074,0,0,1,1.079,3.088c.282,1.03.475,2.068.8,3.087a.551.551,0,0,0,.683.4.923.923,0,0,0,.416-.886,18.015,18.015,0,0,0-2.233-6.383,26.709,26.709,0,0,0-3.587-5.521c-.249-.287-.424.237-.275.442Z"/><path d="M24,14.043c.267-.692.574-1.386.893-2.055A11.376,11.376,0,0,1,26,10.165a20.923,20.923,0,0,1,3.15-3.238,1.147,1.147,0,0,0,.216-1.14c-.093-.287-.356-.676-.716-.508A9.056,9.056,0,0,0,24.982,8.7,13.89,13.89,0,0,0,23.8,10.989a8.45,8.45,0,0,0-.586,2.576.766.766,0,0,0,.263.754c.238.135.436-.054.522-.276Z"/><path d="M28.565,5.8c.97,1.482,1.923,2.982,2.809,4.516a10.1,10.1,0,0,1,1.589,4.29c.025.436.232,1.152.788,1.139.571-.015.709-.749.731-1.176A8.975,8.975,0,0,0,32.52,9.161a16.892,16.892,0,0,0-3.689-3.922c-.312-.234-.382.382-.266.559Z"/><path d="M8.5,13.691c.165-.358.4-.635.587-.972.175-.306.355-.611.526-.919a22.4,22.4,0,0,1,1.217-2.023c.434-.62.853-1.245,1.346-1.82.544-.633,1.09-1.26,1.62-1.9a1.19,1.19,0,0,0,.216-1.139c-.078-.243-.383-.733-.716-.509A11,11,0,0,0,9.87,8.394a16.373,16.373,0,0,0-1.1,2.466,10.254,10.254,0,0,0-.33,1.316c-.084.456-.084.934-.139,1.4-.016.13.114.3.2.119Z"/><path d="M12.856,5.226a2.881,2.881,0,0,1,.413.515,6.679,6.679,0,0,0,.492.458q.468.446.917.912c.561.586,1.132,1.168,1.645,1.8a13.724,13.724,0,0,1,1.365,2c.382.688.645,1.451,1.062,2.128a.486.486,0,0,0,.753.129,1.216,1.216,0,0,0,.258-1.071,6.191,6.191,0,0,0-1.11-2.541,12.769,12.769,0,0,0-1.615-1.89A12.265,12.265,0,0,0,15.15,6.113q-.513-.332-1.043-.638c-.16-.093-.321-.183-.482-.273-.225-.125-.461-.093-.678-.231-.137-.086-.185.184-.091.255Z"/><path d="M15.529,7.6a1.512,1.512,0,0,1,.317-.456,3.032,3.032,0,0,0,.334-.327c.223-.26.452-.511.668-.777a16.482,16.482,0,0,1,1.481-1.589A28.229,28.229,0,0,1,21.736,1.7c.316-.218.317-.827.216-1.14-.084-.258-.373-.713-.716-.508A13.137,13.137,0,0,0,17.715,3.2a19,19,0,0,0-1.359,1.927,8.471,8.471,0,0,0-.524,1.021c-.179.405-.265.831-.458,1.23-.055.113.06.4.155.224Z"/><path d="M20.865.686c.635.574,1.253,1.177,1.852,1.788A16.449,16.449,0,0,1,24.39,4.389a10.125,10.125,0,0,1,1.129,2.033,5.755,5.755,0,0,1,.316.957,2.441,2.441,0,0,0,.6,1.437c.387.335.747-.039.909-.389a2.415,2.415,0,0,0-.042-1.7,8.816,8.816,0,0,0-.529-1.388A9.463,9.463,0,0,0,25.2,3.081a9.917,9.917,0,0,0-1.92-1.645A13.538,13.538,0,0,0,20.966.282c-.2-.081-.2.315-.1.4Z"/><path d="M16.443,44.229c0-.013,0-.027,0-.04s0-.013,0-.019c0,.038,0,.021,0,.008l0-.034c0-.013.012-.032,0,.011l.005-.016.012-.032.006-.016c-.019.048-.012.026-.006.015a.433.433,0,0,1,.041-.061l-.027.034a.361.361,0,0,0,.051-.072c.008-.017.015-.034.022-.052l.006-.014c.011-.026-.018.036-.008.017l.017-.031a.542.542,0,0,1,.037-.056c.01-.014-.022.025-.005.007l.01-.012.028-.028a.207.207,0,0,0,.039-.2c-.018-.057-.061-.111-.127-.09a.52.52,0,0,0-.156.087.426.426,0,0,0-.052.052.375.375,0,0,0-.081.192.661.661,0,0,0,.045.416c.016.03.048.072.088.051a.121.121,0,0,0,.054-.114Z"/><path d="M16.876,43.34c-.727.833-.733,2.154-.873,3.195-.162,1.212-.309,2.422-.441,3.637s-.294,2.439-.374,3.662c-.077,1.17-.388,2.716.119,3.818.1.218.4.491.624.232.7-.792.717-2.15.854-3.152.161-1.173.251-2.354.361-3.532.213-2.308.342-4.624.568-6.927.033-.345-.32-1.527-.838-.933Z"/><path d="M15.249,57.151a2.537,2.537,0,0,0,1.269,1.788,7.144,7.144,0,0,0,2.389.609,12.758,12.758,0,0,0,5.106-.1A4.176,4.176,0,0,0,26,58.436a1.951,1.951,0,0,0,.546-1.4c-.028-.664-.477-1.208-1.194-1a5.379,5.379,0,0,0-.929.506,6.494,6.494,0,0,1-1.088.442,8.587,8.587,0,0,1-2.387.325c-.989.017-1.969-.1-2.956-.13a4.027,4.027,0,0,1-1.25-.179,2.356,2.356,0,0,1-.985-.479c-.347-.357-.557.4-.508.625Z"/><path d="M25.541,42.662c-.016.663-.225,1.284-.279,1.943-.047.566-.1,1.13-.151,1.7-.1,1.235-.143,2.477-.219,3.714s-.125,2.465-.168,3.7a12.36,12.36,0,0,0,.026,3.66c.2.68.965,1.111,1.271.22a12.966,12.966,0,0,0,.243-3.668c.038-1.274.085-2.546.1-3.82s.048-2.557-.009-3.832c-.026-.576-.053-1.154-.1-1.73-.047-.643-.245-1.248-.272-1.893-.017-.416-.432-.4-.442.011Z"/><path d="M21.072,28.008a7.226,7.226,0,0,0-3.427,1.186A12.532,12.532,0,0,0,14.818,32.2a16.074,16.074,0,0,0-1.9,3.868,20.833,20.833,0,0,0-.612,2.137,4.045,4.045,0,0,0-.138,2.439c.156.357.571.693.93.345.494-.479.465-1.332.6-1.974a15.859,15.859,0,0,1,.476-1.782,18.842,18.842,0,0,1,1.592-3.54,12.389,12.389,0,0,1,2.343-3,11.1,11.1,0,0,1,3.027-2.2c.161-.07.156-.511-.055-.488Z"/><path d="M.479,26.91a15.528,15.528,0,0,0,3.3,2.561c1.175.819,2.358,1.646,3.465,2.555a17.82,17.82,0,0,1,4.783,5.72c.213.434.656.8,1.1.409a1.572,1.572,0,0,0,.245-1.67A17.427,17.427,0,0,0,8.2,30.173,25.035,25.035,0,0,0,4.616,27.82,10.206,10.206,0,0,0,.652,26.206c-.3-.014-.307.543-.173.7Z"/><path d="M27.73,40.262A32.692,32.692,0,0,1,30.5,36.193a26.117,26.117,0,0,1,3.329-3.673,20.6,20.6,0,0,1,8.718-4.647c.626-.158.506-1.739-.193-1.693a14.987,14.987,0,0,0-9.377,4.273,20.641,20.641,0,0,0-3.415,4.208A26.458,26.458,0,0,0,27.3,39.775c-.091.257.2.913.435.487Z"/></svg>