<svg xmlns="http://www.w3.org/2000/svg" width="15.869" height="83.17" viewBox="0 0 15.869 83.17"><defs><style>.a{fill:#429642;}.b{fill:#438243;}</style></defs><title>asparagus</title><path class="a" d="M6.35,49.889C6.509,59.9,3.575,70,2.9,80.037a3.042,3.042,0,0,0,3,3c4.436.175,5.535-2.111,6.248-6.081a51.508,51.508,0,0,0,.639-17.341C12.206,55.81,6.424,57.427,7,61.21a34.437,34.437,0,0,1,.07,9.85c-.191,1.443-.452,2.869-.709,4.3l-.33,1.825q-.273,1.9-.132-.149l3,3C9.577,69.975,12.51,59.96,12.35,49.889c-.061-3.857-6.061-3.869-6,0Z"/><path class="a" d="M1.586,52.955a6.167,6.167,0,0,0-.19,3,12.344,12.344,0,0,0,1.117,2.228L2.1,56.668a6.363,6.363,0,0,0,.218,2.98c.234.537.9,1.134.981,1.7a3.1,3.1,0,0,0,3,3c1.455,0,3.215-1.383,3-3a9.865,9.865,0,0,0-.44-2.163,8.053,8.053,0,0,0-.508-1.139c-.082-.147-.824-1.16-.427-.418q.083.666.117-.087a2.587,2.587,0,0,0,.056-.638,3.967,3.967,0,0,0-.255-1.4,2.36,2.36,0,0,0-.455-.907q-.217-.391-.136.12-.045.67.117-.175c.98-3.738-4.806-5.333-5.785-1.595Z"/><path class="a" d="M5.3,33.915,4.247,44.078c-.241,2.335-1.4,6.3-.62,8.611,1.892,5.634,6.864.54,8.952-1.654,2.662-2.8-1.574-7.047-4.243-4.243l-1.9,1.995q-1.728,1.659-.414.588l2.918.772-.3-.377.879,2.121C9.285,46.055,10.7,39.733,11.3,33.915c.4-3.837-5.607-3.809-6,0Z"/><path class="a" d="M2.293,26.828C1.428,28.8-.007,31,1.194,33.142c.367.654,1.39,1.177,1.654,1.714a7.389,7.389,0,0,1,.289,1.676c.236,1.605,2.265,2.487,3.69,2.1a3.076,3.076,0,0,0,2.1-3.69A8.68,8.68,0,0,0,8,31.866a6.792,6.792,0,0,0-.913-1.252,6.253,6.253,0,0,0-.9-.74q-.64-.471.11.085l.41,1.515c-.023.518.192-.322.267-.492l.494-1.126a3.1,3.1,0,0,0-1.077-4.1c-1.273-.745-3.449-.415-4.1,1.076Z"/><path class="a" d="M5.185,11.907a182.3,182.3,0,0,0-1.728,21.5c-.064,3.328,5.161,4.148,5.893.8.822-3.767.879-7.538,1.286-11.356.445-4.16,2.041-8.022,2.3-12.211.235-3.857-5.766-3.843-6,0-.22,3.6-1.657,7.007-2.115,10.585-.487,3.805-.431,7.623-1.253,11.387l5.893.8A168.953,168.953,0,0,1,10.97,13.5c.522-3.776-5.259-5.409-5.785-1.6Z"/><path class="a" d="M7.609,10.943a13.7,13.7,0,0,0,.534,2.139c.012-.132.018-.042.016.268.062-.24.068-.255.016-.043s-.044.2.042-.02A3,3,0,0,1,8.47,13,3,3,0,1,0,11.5,18.18a5.294,5.294,0,0,0,2.593-4.127c.189-1.635-.4-3.125-.7-4.7a3.027,3.027,0,0,0-3.69-2.1,3.063,3.063,0,0,0-2.1,3.69Z"/><path class="a" d="M6.83,2.4c-3.7,3.619-8.574,10.785-4.105,15.622,1.926,2.084,5.25,2.293,6.978-.128a9.628,9.628,0,0,0,1.2-4.026A39.189,39.189,0,0,1,12.16,9.087c1.2-3.68-4.595-5.257-5.786-1.595A40.151,40.151,0,0,0,5.28,11.463,10.906,10.906,0,0,0,4.842,13.9l-.113.612Q7.35,14.972,7,13.56c.25-.575.208-1.43.5-2.077a14.912,14.912,0,0,1,.923-1.652A17.111,17.111,0,0,1,11.072,6.64C13.838,3.936,9.594-.3,6.83,2.4Z"/><path class="b" d="M3.774,10.31,2.2,15.123c-1.078,3.291,3.757,5.169,5.483,2.312a18.634,18.634,0,0,0,2.286-5.679l-5.893-.8c.092-.836,1.72-1.732-.126-.888A5.979,5.979,0,0,0,2.46,11.155l5.122,2.121L7.56,12.95a3,3,0,0,0-1.486-2.591c-1.861-.85-3.954-.531-4.908,1.462-1.384,2.895,2.262,6.306,4.712,3.636,1.725-1.88,4.157-3.827,5.4-6.069a4.562,4.562,0,0,0,.534-3.053c-.071-.394-.6-2.474-.586-1.485-.056-3.917-5.668-3.8-6,0A16.26,16.26,0,0,0,6.75,13.082c1.338,3.035,5.318,1.064,5.59-1.514a4.728,4.728,0,0,0-.208-1.946L6.649,11.934c.344.647.561,1.313.868,1.973.155.332,1.108-.483-.28.18a4.7,4.7,0,0,0-2.295,2C3.3,18.8,6.477,21.47,9.046,20.2a13.631,13.631,0,0,0,5.817-5.524c1.655-2.863-2.432-6.287-4.712-3.636C8.38,13.1,6,15.19,4.895,17.7c-1.538,3.5,3.63,6.559,5.181,3.028.882-2.009,2.894-3.789,4.318-5.445L9.682,11.643a8.054,8.054,0,0,1-3.664,3.372l4.1,4.1c-.651,1.075,1.022,0,1.5-.347a4.873,4.873,0,0,0,1.826-2.642c.7-2.472-.473-5.078-1.614-7.224-1.6-3.013-6.417-.945-5.483,2.311l-.007.351,5.59-1.514a10.208,10.208,0,0,1-.7-5.2h-6a4.026,4.026,0,0,0,.417,2.085l.247.557q.588-1.785-.2-.7c-1.327.537-3.093,3.372-4.058,4.423L6.347,14.85l-.6.54H2.718l.328.15L1.56,12.95l.022.326A3.04,3.04,0,0,0,6.7,15.4a7.465,7.465,0,0,0,2.223-1.157,5.56,5.56,0,0,0,1.148-3.283c.37-3.362-5.17-4.072-5.893-.8A13.491,13.491,0,0,1,2.5,14.406l5.483,2.312L9.56,11.905c1.205-3.678-4.587-5.254-5.786-1.595Z"/><path class="b" d="M4.547,18.082,2.669,28.952c-.652,3.777,5.129,5.4,5.786,1.595l1.878-10.87c.652-3.776-5.129-5.4-5.786-1.595Z"/><path class="b" d="M5.431,20.8A23.279,23.279,0,0,1,5.2,25.1a3.093,3.093,0,0,0,2.1,3.691c1.432.393,3.428-.487,3.69-2.1a30.926,30.926,0,0,0,.447-5.9,3.057,3.057,0,0,0-3-3,3.033,3.033,0,0,0-3,3Z"/><path d="M7.871.639a67.153,67.153,0,0,0-5.8,7.336A14.221,14.221,0,0,0,.177,11.954,9.069,9.069,0,0,0,.29,15.91a4.958,4.958,0,0,0,1.8,2.876,4.987,4.987,0,0,1,1.3,1.3c.411.832.1,2.181-.012,3.064-.357,2.794-2.484,4.914-2.953,7.7-.561,3.332,3.15,5.165,2.97,8.342-.1,1.747-.264,3.493-.4,5.237a47.525,47.525,0,0,1-.51,5.979C2.177,51.913.943,52.9.431,54.322a4.514,4.514,0,0,0,.6,4.179c.677.931,2,1.652,2.153,2.857a40.644,40.644,0,0,1-.162,6.047c-.135,4.271-.433,8.574-.354,12.847.027,1.482.469,2.748,2.094,2.86C7.04,83.27,9.33,83.061,11.6,83c.922-.025.848-1.963-.05-2.05-1.962-.19-3.9-.418-5.874-.534a4.591,4.591,0,0,0-.979-.058l-.306-.044q.247.427.159-.107a13.422,13.422,0,0,0,.124-2.65c.177-3.716.243-7.44.362-11.159.1-3.01.832-6.369-1.374-8.784-.344-.376-.734-.716-1.06-1.107-.462-.555-.417-.627-.037-1.233A10.772,10.772,0,0,0,4.507,51.2a46.774,46.774,0,0,0,.373-4.982l.36-5.725a8.936,8.936,0,0,0-.527-4.466C4.1,34.657,3.1,33.5,2.425,32.192c-.45-.87.228-1.958.609-2.792a23.746,23.746,0,0,0,1.759-3.783c.692-2.642,1.168-6.273-.948-8.373-.432-.429-.947-.773-1.37-1.211a2.663,2.663,0,0,1-.64-1.743,6.306,6.306,0,0,1,1.3-4.143c1.761-2.865,4.255-5.3,5.43-8.5.123-.334-.194-1.586-.7-1Z"/><path d="M8.5,2.167c.057-.059.072-.093.3.158a7.241,7.241,0,0,1,.935,1.481c.72,1.368,1.284,2.818,1.881,4.243.614,1.466,1.27,2.929,1.83,4.417.7,1.863.6,3.269-.769,4.707-.849.893-1.938,1.774-2.235,3.019a16.665,16.665,0,0,0-.194,3.77c0,.283,0,.567,0,.85,0,.112-.02.671,0,.307-.074,1.189-.218,2.371-.276,3.562-.1,1.978-.062,3.956-.044,5.935.022,2.413-.154,4.839,0,7.248.123,1.9.35,3.6-.511,5.37l1.473,1.243a2.119,2.119,0,0,1,1.135-1.818l-.871-.326c.681.853,2.194,2.343,1.705,3.554-.214.529-.843.882-1.157,1.358a3.965,3.965,0,0,0-.6,1.627,29.04,29.04,0,0,0-.074,4.214L11.026,62c-.007,6.389.026,12.778-.03,19.167-.014,1.658,1.772,1.612,1.769-.044-.013-6.962.072-13.926.111-20.888l.03-5.161c0-.752-.137-1.464.384-2.053a5.631,5.631,0,0,0,1.152-1.566c1.148-2.745-.433-5.31-2.264-7.268a.654.654,0,0,0-.9.021A5.341,5.341,0,0,0,9.212,47.82c-.114.754.74,2.472,1.472,1.242a9.708,9.708,0,0,0,1.289-5.4c-.064-2.28-.059-4.534-.04-6.815.018-2.327-.067-4.654-.007-6.981.049-1.9.318-3.788.322-5.69,0-.736-.01-1.474.023-2.209.012-.268.06-.534.073-.8s-.268.314-.042.182a1.827,1.827,0,0,0,.282-.337c1.122-1.294,2.391-2.278,2.942-3.965.779-2.381.118-4.7-.863-6.909-.692-1.555-1.346-3.128-2.075-4.666C12.065,4.37,9.525-1.868,7.634.554c-.434.556.124,2.38.867,1.613Z"/><path d="M7.772,57.737a4.165,4.165,0,0,0,.152-2.1A13.9,13.9,0,0,0,7.45,53.28a8.2,8.2,0,0,0-.9-2.171,3.367,3.367,0,0,0-1.6-1.478c-.709-.226-1.173.437-1.325,1.042a2.216,2.216,0,0,0,.521,2.165c.19.16.4.3.578.468a1.573,1.573,0,0,0,.128.13c-.232-.167-.114-.13-.034-.026s.146.2.213.3c.033.053.066.106.1.16s.135.239.02.03c-.158-.286.115.22.086.168.053.1.106.2.161.293.023.043.128.233.017.027s-.008-.011.014.032c.071.14.14.28.207.422.25.529.464,1.073.707,1.605a3.794,3.794,0,0,0,.915,1.509c.227.177.425-.008.521-.223Z"/><path d="M7.4,32.408a2.254,2.254,0,0,0,.343-.831,6.151,6.151,0,0,0,.048-.793,5.693,5.693,0,0,0-.025-.739,5.936,5.936,0,0,0-.279-1.333c-.1-.293-.212-.579-.325-.867a4.3,4.3,0,0,0-.481-.981,5.882,5.882,0,0,0-.665-.754,4.017,4.017,0,0,0-.6-.47,1.562,1.562,0,0,0-.949-.354c-.711.083-1.006.934-.972,1.562.03.56.309,1.547,1.047,1.513a.338.338,0,0,1,.078.006l-.27-.049a.921.921,0,0,1,.233.1l-.247-.15a5.481,5.481,0,0,1,.973.866c.138.143-.206-.253-.083-.093.026.034.055.067.082.1.142.188.049.125-.052-.133.109.279.24.551.356.827.083.2.16.4.233.6.031.088.065.175.1.263.045.121.035.265-.051-.174.009.046.026.093.037.139a5.894,5.894,0,0,1,.114.648c.013.1.04.339-.008-.084a3.168,3.168,0,0,0,.1.574,2.69,2.69,0,0,0,.319.625.536.536,0,0,0,.945-.023Z"/><path d="M4.3,8.76a24.038,24.038,0,0,0,1.092,2.273,15.324,15.324,0,0,1,.8,2.311,12.109,12.109,0,0,1,.342,4.636c-.063.506.045,1.291.6,1.5s.922-.437.973-.884a15.52,15.52,0,0,0-.448-6A13.315,13.315,0,0,0,6.526,9.866,4.984,4.984,0,0,0,4.8,7.714c-.549-.289-.579.789-.5,1.046Z"/><path d="M11.514,8.9a3.025,3.025,0,0,0-1.887.438,5.325,5.325,0,0,0-1.578,1.518,8.7,8.7,0,0,0-1,2.14,8.589,8.589,0,0,0-.488,2.717A1.108,1.108,0,0,0,7.1,16.727c.371.139.66-.2.781-.511a7.528,7.528,0,0,0,.328-1.126c.039-.176.08-.353.116-.53.04-.194-.07.253.02-.08.019-.069.038-.139.058-.209a9.419,9.419,0,0,1,.354-1.022c.028-.067.057-.133.086-.2.14-.313-.041.075.05-.1.078-.15.159-.3.248-.441a5.5,5.5,0,0,1,1.045-1.318,6.462,6.462,0,0,1,1.464-1.061c.426-.207.4-1.2-.14-1.234Z"/><path d="M7.9,38.08a1.42,1.42,0,0,0,.39.281,2.057,2.057,0,0,0,.232.068c.162.045.324.086.488.123.194.043.389.08.585.115a1.07,1.07,0,0,0,.351.02,1.417,1.417,0,0,0,.468-.1,1.412,1.412,0,0,0,.645-1.209,2.047,2.047,0,0,0-.083-.742,1.271,1.271,0,0,0-.4-.676,1.314,1.314,0,0,0-.3-.174c-.038-.012-.077-.022-.116-.033a2.19,2.19,0,0,0-.461-.1c-.165-.012-.331-.016-.5-.031s-.315-.031-.472-.052c-.078-.01-.156-.026-.234-.034a1.255,1.255,0,0,0-.442.113l-.205.138L7.671,36a1.6,1.6,0,0,0-.221.767A1.629,1.629,0,0,0,7.9,38.08Z"/><path d="M4.286,66.113a1.5,1.5,0,0,0,.466.3,3.426,3.426,0,0,0,.38.084c.305.059.611.111.921.142.258.026.518.04.777.041a2.949,2.949,0,0,0,.388-.009,1.417,1.417,0,0,0,.519-.21,1.161,1.161,0,0,0,.5-1.072,1.857,1.857,0,0,0-.112-.552.867.867,0,0,0-.444-.494,1.958,1.958,0,0,0-.527-.131c-.127,0-.26.028-.387.037q-.373.027-.749.018c-.249,0-.5-.023-.744-.052-.127-.016-.254-.043-.382-.056a1.467,1.467,0,0,0-.5.1.647.647,0,0,0-.286.267,1.227,1.227,0,0,0-.168.585,1.215,1.215,0,0,0,.341,1Z"/><path d="M3.545,72.3a2.008,2.008,0,0,0,.547.311,3.915,3.915,0,0,0,.7.065c.42.045.845.088,1.262.16l-.187-.034c.23.042.457.095.683.154a1.329,1.329,0,0,0,.929.035,1.03,1.03,0,0,0,.478-.9,1.338,1.338,0,0,0-.359-1.05,1.655,1.655,0,0,0-1.18-.339,7.553,7.553,0,0,0-1.009.038A5.006,5.006,0,0,0,4.354,71a1.288,1.288,0,0,0-.5.256,2.473,2.473,0,0,0-.372.451.5.5,0,0,0,.065.6Z"/></svg>