<svg xmlns="http://www.w3.org/2000/svg" width="68.483" height="74.024" viewBox="0 0 68.483 74.024"><defs><style>.a{fill:#51184a;}.b{fill:#380f31;}.c{fill:#438243;}.d{fill:#682964;}</style></defs><title>aubergene</title><path class="a" d="M29.865,48.071c-4.854,1.676-14.051,5.36-13.075,12.055,1.215,8.34,13.464.372,16.907-1.253,3.064-1.445.9-6.553-2.311-5.483a55.962,55.962,0,0,0-11.818,5.487H22.6c-1.33-.747-7.8-1.126-8.157-1.924a3.012,3.012,0,0,0-4.712-.607L7.574,59l5.014,2.918a10.234,10.234,0,0,0,.34-3.317c-.144-3.227-5.169-4.26-5.892-.8a10.2,10.2,0,0,0-.074,4.194L12.747,60.4c-.433-2.16-1.913-5.42-4.683-5.2-2.188.176-.184,2.613.675,2.775.579.109,2.66-1.431,3.232-1.724,2.446-1.253,4.943-2.4,7.415-3.6,8-3.887,15.409-8.35,20.6-15.75,1.959-2.8-2.414-6.116-4.712-3.636L29.212,39.8c-2.622,2.829,1.611,7.082,4.243,4.242L39.512,37.5,34.8,33.866C28.228,43.245,16.953,46.688,7.318,51.915c-2.383,1.293-5.63,3.286-4.53,6.6a4.593,4.593,0,0,0,2.766,2.742c.459.139,1.041-.084,1.452.049,1.333.429-.508-1.623-.044.689.77,3.842,6.345,2.138,5.785-1.595l.074-1-5.893-.8L6.8,60.318c-.623,2.674,3,5.4,5.014,2.919l2.154-2.649-4.712-.607C11.521,64.976,15.9,62,19.568,64.058a3.02,3.02,0,0,0,3.029,0,49.1,49.1,0,0,1,10.384-4.882l-2.312-5.483c-1.757.829-3.511,1.666-5.272,2.487q-1.372.676-2.781,1.278-2.314.524.5,1.339c.87-.146,2.9-2.652,3.919-3.184a31.9,31.9,0,0,1,4.423-1.756c3.628-1.252,2.069-7.05-1.6-5.786Z"/><path class="a" d="M47.011,31.9c.631-3.478,3.191-6.2,2.369-9.8A3.015,3.015,0,0,0,45.69,20c-13.3,5.05-19.544,18.485-31.3,25.8C9.745,48.69,2.609,51.581.586,57.179c-1.761,4.873.6,9.689,4.973,12.062,13.087,7.111,26.167.255,36.743-7.632,5.127-3.824,9.995-8.1,12.758-14a47.456,47.456,0,0,0,3.361-9.772,18.922,18.922,0,0,0,.5-4.247c-.04-1.725-1.024-3.6-.7-5.295a3.015,3.015,0,0,0-5.483-2.312,45.723,45.723,0,0,1-9.453,10.631l5.121,2.122a12.41,12.41,0,0,1,2.537-7.795l-5.483-.716a16.463,16.463,0,0,0-1.711-2.113,3.027,3.027,0,0,0-4.712.608c-.84,1.409-1.713,2.722-2.686,4.043h5.181l-.333-.955a3.023,3.023,0,0,0-5.014-1.324A163.35,163.35,0,0,1,20.27,45.428,61.158,61.158,0,0,1,9.716,52.149c-2.195,1.08-4.993,1.766-6.463,3.88-2.86,4.114,1.115,7.716,4.923,8.747,6.85,1.853,14.311-.274,20.563-3.1,3.246-1.467.837-6.144-2.312-5.484q-7.87,1.651-15.568,3.942a3.026,3.026,0,0,0,0,5.786c8.8,2.655,18.011.619,25.49-4.572C43.054,56.7,49.738,49.9,50.809,41.515c.349-2.733-3.424-3.746-5.121-2.121a43.261,43.261,0,0,0-5.049,5.836c-2.169,2.966,2.283,5.593,4.711,3.635a32.333,32.333,0,0,0,8.629-10.648,3.015,3.015,0,0,0-4.712-3.636c-7.215,5.935-14.462,11.754-22.56,16.459l3.636,4.711a165.6,165.6,0,0,1,17.249-17.59c2.535-2.226-.809-6.639-3.635-4.711-6.926,4.723-9.734,12.694-15.994,17.962A12.782,12.782,0,0,1,20.249,54.5a25.5,25.5,0,0,1-3.4-.095q.706,1.454,2.33-.313c4.627-1.725,9.475-2.941,14.227-4.261L31.1,44.345l-7.018,5.2A3.129,3.129,0,0,0,22.7,52.932l.282,1.053a3.085,3.085,0,0,0,3.69,2.095,32.042,32.042,0,0,0,11.9-4.363l-4.1-4.1a23.252,23.252,0,0,1-3.484,4.535c-2.029,2.071-.007,5.948,2.919,5.014l1.663-.531c3.665-1.17,2.1-6.965-1.595-5.786l-1.663.531,2.919,5.015a29.648,29.648,0,0,0,4.422-5.75,3.022,3.022,0,0,0-4.105-4.1A27.939,27.939,0,0,1,25.079,50.3L28.77,52.39l-.282-1.053-1.379,3.388,7.018-5.2c2.579-1.911,1.2-6.458-2.312-5.484-4.173,1.159-8.355,2.306-12.467,3.669-2.786.924-6.047,1.862-8.025,4.2-3.075,3.637-.78,7.431,3.444,8.241a20.3,20.3,0,0,0,17.439-4.5c5.7-5.015,8.421-12.688,14.779-17.024L43.35,33.919A165.52,165.52,0,0,0,26.1,51.509c-2.112,2.5.533,6.514,3.636,4.711,8.529-4.955,16.175-11.145,23.774-17.4L48.8,35.188a28.178,28.178,0,0,1-7.69,9.435l4.711,3.635a34.025,34.025,0,0,1,4.112-4.622l-5.122-2.121C44,47.869,37.057,53.824,31.965,57.07a23.279,23.279,0,0,1-19.511,3.066v5.786q7.709-2.293,15.568-3.942L25.71,56.5a33.755,33.755,0,0,1-7.672,2.478c-1.212.228-8.781,1.094-9.226-.014.27.672,9.93-5.069,11.073-5.853,7.611-5.217,14.126-11.8,20.548-18.377l-5.014-1.323a7.337,7.337,0,0,0,.938,2.389c1.206,2.12,3.9,1.74,5.181,0,.973-1.322,1.845-2.635,2.686-4.044l-4.712.607c2.137,2.4,5.046,4.309,8.366,3.21a5.307,5.307,0,0,0,3.374-6.935,3.042,3.042,0,0,0-5.484-.717,17.7,17.7,0,0,0-3.356,10.823c.014,2.774,3.19,3.728,5.122,2.121a50.839,50.839,0,0,0,10.39-11.845l-5.483-2.312c-.419,2.177,0,3.524.235,5.688.34,3.1-.505,5.774-1.494,8.68a28.086,28.086,0,0,1-8.695,12.8c-8.961,7.718-19.35,14.747-31.6,11.024-3.238-.983-6.609-3.321-3.676-7.128,1.5-1.941,4.422-3.294,6.46-4.529,4.113-2.492,8.239-4.922,11.812-8.173,7.239-6.588,12.252-15.648,21.8-19.274l-3.69-2.1c.236,1.035-2.152,5.4-2.37,6.606-.685,3.775,5.1,5.4,5.786,1.595Z"/><path class="a" d="M40.372,45.233c-1.647,1.476-3.34,2.9-5.1,4.235a3.1,3.1,0,0,0-1.077,4.1c.744,1.271,2.805,2.059,4.1,1.076,2.174-1.644,4.288-3.354,6.319-5.173a3,3,0,0,0-4.243-4.243Z"/><path class="a" d="M41.64,27.2a4.454,4.454,0,0,0-.386-1.869,4.332,4.332,0,0,0-1.044-1.554,3.15,3.15,0,0,0-2.122-.878,3,3,0,0,0-2.121,5.121,1.982,1.982,0,0,1,.221.237l-.469-.607a2.041,2.041,0,0,1,.2.351l-.3-.717a1.971,1.971,0,0,1,.111.39l-.107-.8a2.064,2.064,0,0,1,.017.324,3,3,0,0,0,5.121,2.121A3.186,3.186,0,0,0,41.64,27.2Z"/><path class="b" d="M55.326,26.863a75.9,75.9,0,0,1-7.98,17.7c-2.891,4.678-5.933,6.882-10.364,9.891-4.607,3.129-8.187,5.734-13.77,6.777-5.779,1.081-10.919,2.607-16.807.873l-1.6,5.786c9.075,1.539,19.223,1.962,27.751-2.071,4.466-2.112,7.883-5.719,11.509-8.971,4-3.587,7.832-7.132,10.713-11.707,2.063-3.277-3.127-6.292-5.181-3.029-2.461,3.908-5.769,6.9-9.174,9.957-3.083,2.771-6,5.963-9.675,7.952-7.184,3.884-16.547,3.406-24.348,2.083-3.74-.634-5.372,4.674-1.6,5.786,6.314,1.859,12.245.827,18.482-.579,3.291-.741,6.282-1.012,9.328-2.633a76.842,76.842,0,0,0,7.391-5.043c4.823-3.335,8.357-5.627,11.614-10.623a81.209,81.209,0,0,0,9.486-20.556c1.136-3.7-4.654-5.282-5.785-1.595Z"/><path class="b" d="M54.12,30.572a50.48,50.48,0,0,1-5.541,11.666c-2.014,2.985,2.266,5.723,4.712,3.635,2.4-2.049,3.273-4.965,4.511-7.764,1.529-3.453-3.393-6.528-5.18-3.028a80.686,80.686,0,0,1-10.41,15.7c-2.04,2.4.684,6.854,3.636,4.712l1.846-1.34-3.636-4.712c-2.219,2.847-4.37,6.607-7.505,8.548-3.223,1.995-6.743,3.23-9.875,5.495a3.016,3.016,0,0,0,2.312,5.483,9.463,9.463,0,0,0,2.874-.954l-3.029-5.181c-6.976,3.251-16.109,5.86-22.407-.394C3.684,59.711-.56,63.951,2.185,66.677c8.355,8.295,20.177,5.759,29.679,1.332,3.5-1.632.454-6.781-3.029-5.181l-1.44.35,2.311,5.483c3.468-2.508,7.543-3.8,11.005-6.19,3.124-2.158,5.29-5.84,7.59-8.791,1.876-2.407-.6-6.912-3.635-4.712l-1.847,1.34,3.636,4.712A87.272,87.272,0,0,0,57.8,38.109l-5.18-3.028c-1,2.254-1.649,4.907-3.573,6.549l4.711,3.636a56.974,56.974,0,0,0,6.146-13.1c1.285-3.649-4.51-5.219-5.786-1.6Z"/><path class="c" d="M40.169,19.928A33.359,33.359,0,0,0,44.887,18.1c1.3-.616.71-2.966-.757-2.8a19.47,19.47,0,0,0-4.52,1.016l1.155,2.741a15.343,15.343,0,0,0,2.9-1.427c1.545-.863.457-3.066-1.156-2.741a12.349,12.349,0,0,0-3.084.831l1.156,2.741L44.8,16.341c1.495-.756.45-3.337-1.156-2.742l-2.461.911,1.156,2.742,2.781-1.364a1.523,1.523,0,0,0,.3-2.356c.976,1.263,1.076.755,2.133-.067,1.279-.995-.147-2.792-1.459-2.507l-1.662.36c-1.622.352-1.3,3.134.4,2.947l2.769-.307L46.54,11.4l-1.817,1.635a1.51,1.51,0,0,0,1.459,2.507c2.026-.7,5.722-3.308,5.85.958l2.947-.4a8.577,8.577,0,0,1-.852-2.9l-1.845,1.846.61.57,2.121-2.122c-2.793-2.2-5.782-2.26-9.031-.859-2.31,1-4.327,2.613-6.583,3.728a33.414,33.414,0,0,1-11.723,3.231,1.5,1.5,0,0,0,0,3,49.763,49.763,0,0,0,24.264-4.8c1.361-.641.675-2.846-.758-2.8l-4.645.167.4,2.946a28.783,28.783,0,0,0,3.726-.919,1.5,1.5,0,0,0-.8-2.893,44.443,44.443,0,0,0-5.114,1.252,1.507,1.507,0,0,0,.4,2.947l5.488-.094-1.3-2.257c-2.005,3.767-1.278,7.385-.041,11.322a1.512,1.512,0,0,0,2.507.662l8.31-9.955c1-1.2-.339-3.44-1.818-2.356l-6.2,4.546,2.2,1.694.432-1.828a1.52,1.52,0,0,0-2.2-1.694,5.955,5.955,0,0,0-3.424,7.3,1.516,1.516,0,0,0,2.741.359,29.389,29.389,0,0,0,2.56-6.837c.374-1.571-2.027-2.776-2.742-1.155-1.154,2.617-1.383,5.149-1.932,7.948-.367,1.874,2.4,2.686,2.893.8.96-3.654,2.031-9.294,1.294-12.984-.638-3.2-2.916-2-5.1-3.1l.3,2.356c1.943-1.913,4.864.254,5.819,1.75,1.665,2.6.457,3.691-.078,6.548L57.6,21.16q-1.309-3.456.863-5.712l-2.742-1.156c-.42,1.351-.224,1.4-.033,2.768.357,2.557.826,3.128.627,5.686-.3,3.851.9,6.926,2.822,10.213a1.512,1.512,0,0,0,2.8-.757,68.379,68.379,0,0,0-1.572-14.433c-.408-1.886-3.3-1.088-2.893.8A64.368,64.368,0,0,1,58.937,32.2l2.8-.757c-2.169-3.71-2.239-6.548-2.106-10.663.049-1.537-1.411-4.4-1.008-5.693.544-1.746-1.788-2.423-2.741-1.155a8.1,8.1,0,0,0-.864,8.74,1.514,1.514,0,0,0,2.742-.359c.751-4.015,3.32-8.645-1.273-11.325C53.9,9.484,49.274,8.859,47,11.1a1.512,1.512,0,0,0,.3,2.356c1.816.907,3.152.362,3.515,2.722.445,2.9-.375,7.271-1.084,9.971l2.893.8c.48-2.448.606-4.911,1.629-7.232l-2.741-1.156a24.891,24.891,0,0,1-2.257,6.119L52,25.035l2.046-3.911-2.2-1.694-.432,1.829c-.273,1.154,1.08,2.517,2.2,1.694l6.2-4.547L58,16.05l-8.309,9.956,2.507.662c-.95-3.023-1.9-5.936-.261-9.01a1.516,1.516,0,0,0-1.3-2.258l-5.488.094.4,2.946a44.493,44.493,0,0,1,5.114-1.252l-.8-2.893a28.757,28.757,0,0,1-3.727.919c-1.67.3-1.276,3.007.4,2.947l4.645-.167L50.425,15.2a46.555,46.555,0,0,1-22.749,4.392v3A37.9,37.9,0,0,0,38.543,20.03c3.88-1.6,10.283-7.622,14.349-4.417a1.5,1.5,0,0,0,2.121-2.122,3.59,3.59,0,0,0-1.934-1.341c-1.151-.471-2.042.856-1.845,1.845a8.572,8.572,0,0,0,.852,2.9c.577,1.469,3,1.422,2.946-.4-.214-7.106-4.222-5.723-9.647-3.851l1.459,2.507,1.817-1.635A1.515,1.515,0,0,0,47.6,10.958l-2.769.307.4,2.946,1.661-.361-1.459-2.507c-1.6,1.247-4.04,1.844-2.134,4.311l.3-2.356L40.82,14.662C39.313,15.4,40.374,18,41.976,17.4l2.461-.911L43.282,13.75l-4.211,2.129a1.506,1.506,0,0,0,1.156,2.741,12.347,12.347,0,0,1,3.084-.83l-1.156-2.742a15.4,15.4,0,0,1-2.9,1.427c-1.55.663-.442,3.313,1.156,2.742a11.734,11.734,0,0,1,3.723-.909l-.757-2.795a19.143,19.143,0,0,1-4,1.522c-1.845.554-1.059,3.45.8,2.893Z"/><path class="c" d="M36.495,19.129c3.065-1,5.038-3.539,8.421-3.873,1.9-.188,1.923-3.19,0-3a13.4,13.4,0,0,0-4.75,1.291c-1.558.778-2.8,2.143-4.468,2.69-1.827.6-1.045,3.5.8,2.892Z"/><path class="c" d="M57.089,10.715,60.364,6.63a1.5,1.5,0,0,0-2.121-2.122,8.589,8.589,0,0,0-2.858,5.145l2.946.4c-.25-3.874,3.553-3.68,5.594-5.908.812-.887.31-2.661-1.061-2.56-2.229.163-4.386.8-5.337,3.018A1.508,1.508,0,0,0,59.883,6.42a10.926,10.926,0,0,1,6.413-2.5c1.918-.114,1.931-3.115,0-3A14.306,14.306,0,0,0,57.762,4.3l2.355,1.818c.521-1.211,1.553-1.445,2.747-1.532L61.8,2.023c-1.3,1.421-3.432,1.627-4.787,3.068a6.577,6.577,0,0,0-1.685,4.961c.1,1.574,2.659,2.169,2.947.4A6.015,6.015,0,0,1,60.364,6.63L58.243,4.508,54.968,8.594c-1.2,1.492.913,3.628,2.121,2.121Z"/><path class="d" d="M1.676,62.783c-.025,1.116.016,2.2.1,3.314.145,1.913,3.146,1.929,3,0a14.336,14.336,0,0,1,3.2-10.849,1.514,1.514,0,0,0-1.459-2.507c-4.692.746-4.279,5.317-5.928,8.8-.815,1.72,1.619,3.216,2.591,1.514a45.52,45.52,0,0,1,9.328-11.526,1.512,1.512,0,0,0-1.46-2.508A11.112,11.112,0,0,0,3.24,56.28c-.578,1.536,1.482,2.322,2.507,1.459C13.957,50.833,23.6,45.608,31.11,37.876c3.5-3.6,5.806-9.138,10.435-11.067,3.348-1.394,6.4-2.366,7.135-6.387a1.52,1.52,0,0,0-2.2-1.694q-4.686,2.884-9.285,5.9l2.2.9-.06-.427a1.436,1.436,0,0,0-1.047-1.048c-4.83-.7-8.574,8.19-11.073,11.12A52.361,52.361,0,0,1,7.879,49.208c-1.768.763-.242,3.348,1.514,2.591a55.312,55.312,0,0,0,15.55-9.963,53.083,53.083,0,0,0,6.013-6.527c1.608-2.064,5.884-6.571,5.546-8.985a1.508,1.508,0,0,0,2.2.9q4.6-3.018,9.285-5.9l-2.2-1.694c-.85,4.63-7.341,3.9-10.05,7.15-3.083,3.7-5.293,7.744-8.914,11.083-7.169,6.613-15.741,11.489-23.2,17.761l2.507,1.459a7.846,7.846,0,0,1,5.713-5.168L10.386,49.4a47.918,47.918,0,0,0-9.8,12.134L3.18,63.05c1.109-2.341,1.1-6.934,4.134-7.416L5.855,53.127A17.287,17.287,0,0,0,1.776,66.1h3c-.084-1.112-.125-2.2-.1-3.314.043-1.931-2.957-1.93-3,0Z"/><path d="M38.664,22.2a11.656,11.656,0,0,0-5,4.081c-1.543,1.9-2.978,3.881-4.588,5.729A73.6,73.6,0,0,1,18.289,42.17a65.225,65.225,0,0,1-6.427,4.339c-2.1,1.239-4.346,2.247-6.369,3.61A12.278,12.278,0,0,0,.052,60.76a12.623,12.623,0,0,0,6.1,10.356c3.827,2.359,8.54,3.074,12.97,2.877,10.056-.447,19.248-5.665,26.047-12.87A64.818,64.818,0,0,0,54.747,47.6c2.883-5.281,5.487-10.869,4.781-17.03-.071-.615-.653-1.357-1.329-1.093-.744.291-.765,1.366-.69,2,.58,4.915-1.993,9.71-4.347,13.833a67.691,67.691,0,0,1-7.616,10.859c-5.914,6.807-13.763,12.337-22.768,13.989a25.808,25.808,0,0,1-12.89-.608c-3.655-1.248-7.3-3.73-8.142-7.738-.923-4.4,1.49-8.275,5.2-10.45,3.8-2.225,7.672-4.157,11.26-6.737a65.265,65.265,0,0,0,11.26-10.213,56.2,56.2,0,0,0,4.468-5.767,25.2,25.2,0,0,1,4.908-5.86c.17-.139.111-.685-.177-.584Z"/><path d="M25.211,19.9c3.4,1.753,7.281.4,10.247-1.593,3.356-2.255,6.264-5.207,10.07-6.733,3.54-1.42,7.713-1.577,10.973.634A7.753,7.753,0,0,1,59.6,16.109c.7,2.1.451,4.4.467,6.577a41,41,0,0,0,2.573,13.875l1.1-1.768A18.441,18.441,0,0,1,57.3,21.906c-.035-.576-.669-2.019-1.434-1.192a22.99,22.99,0,0,0-5.44,9.916l1.611-.04a37.52,37.52,0,0,1-2.906-11.966c-.036-.509-.421-1.745-1.214-1.34-6.668,3.4-15.7,7.726-22.607,2.408-1.033-.8-1.5,1.477-.745,2.093,7.276,5.923,16.67,1.92,23.915-1.774L47.267,18.67a41.93,41.93,0,0,0,3.2,13.394c.341.8,1.364.923,1.611-.04a20.438,20.438,0,0,1,4.8-8.88l-1.433-1.192A21.481,21.481,0,0,0,62.947,37.01c1.011.857,1.321-1.179,1.1-1.768a38.107,38.107,0,0,1-2.384-13.5c.006-3.83-.18-7.633-3.048-10.5a11.555,11.555,0,0,0-9.823-3c-4.078.6-7.43,2.825-10.54,5.4-3.789,3.133-7.848,6.271-13.026,6.025-.107-.006-.083.2-.015.23Z"/><path d="M53.558,9.7c.186-.027.337.126.524.115a.813.813,0,0,0,.422-.2,3.684,3.684,0,0,0,.944-1.079c.484-.774.873-1.609,1.283-2.424a7.06,7.06,0,0,1,1.627-2.259,8.142,8.142,0,0,1,2.751-1.476A13.361,13.361,0,0,1,64.6,1.8c.583-.031,1.167-.034,1.752-.034a5.261,5.261,0,0,1,.842.017c.078.013.257.025.313.1-.129-.167-.151.019-.314.134a4.4,4.4,0,0,1-1.447.451,9.166,9.166,0,0,0-1.6.586A9.4,9.4,0,0,0,61.5,4.922a15.635,15.635,0,0,0-2.092,2.705,16.122,16.122,0,0,0-1.745,3.291c-.175.526.268,1.718.854.956.744-.967,1.2-2.191,1.863-3.222a12.96,12.96,0,0,1,2.33-2.779,9.287,9.287,0,0,1,3.344-1.905c1.032-.325,2.137-.576,2.383-1.8A1.559,1.559,0,0,0,67.134.181,22.73,22.73,0,0,0,63.077.027,8.272,8.272,0,0,0,56.735,2.8a14,14,0,0,0-1.758,3.212c-.248.562-.536,1.087-.829,1.626-.134.247-.285.493-.412.744-.162.319-.122.7-.275,1-.038.076-.054.344.1.323Z"/></svg>