<svg xmlns="http://www.w3.org/2000/svg" width="34.561" height="79.369" viewBox="0 0 34.561 79.369"><defs><style>.a{fill:#3a933a;}.b{fill:#380f31;}.c{fill:#280c25;}</style></defs><title>beets</title><path class="a" d="M24.894,3.556a12.65,12.65,0,0,0-3.587.747L25,7.993a2.088,2.088,0,0,1-.866,1.22q-.7.269-.244.143c-.834.206-.3.062.042.092a7.324,7.324,0,0,0,2.251-.1,3.019,3.019,0,0,0,2.1-3.69,3.075,3.075,0,0,0-3.691-2.1c.7-.142.147-.04-.091-.057s-.451-.053-.678-.069a4.776,4.776,0,0,0-1.607.153,4.554,4.554,0,0,0-1.851.994A4.438,4.438,0,0,0,19.211,6.4c-.855,2.042,1.687,4.466,3.691,3.69a9.98,9.98,0,0,1,1.253-.4c.194-.047.389-.084.586-.123.64-.126-.555.05.153-.008a3.062,3.062,0,0,0,3-3,3.036,3.036,0,0,0-3-3Z"/><path class="a" d="M26.173,12.043l.962-.646L23.747,6.99,21.523,9.916c-1.541,2.028.634,4.288,2.591,4.515,5.283.613,6.281-5.138,7.679-9,.852-2.355-1.649-4.045-3.69-3.69a5.6,5.6,0,0,0-2.725,1.39l4.243,4.243,1.429-.889L27.414,1.773c-2.175,2.555-2.949,4.059-1.436,7.075.828,1.649,1,.373.108,1.824-1.049,1.7-2.054,2.48-2.389,4.577-.594,3.723,4.759,5.411,5.786,1.6l-.1.179L24.368,15.7c.382,1.621-.5.96-1.681,2.1a4.987,4.987,0,0,0-1.266,1.972c-.593,1.987.515,3.576,2.067,4.639L22.881,19.7c1.057-1.235,2.38.483,3.107-1.645a3.683,3.683,0,0,0,0-1.595,3.622,3.622,0,0,0-1.972-3.14,3.969,3.969,0,0,0-5.549,1.987l4.712-.607-.831-.548a3.025,3.025,0,0,0-1.515-5.59,6.327,6.327,0,0,0-5.546,2.47c-.35.483-1.305,1.982-1.052,2.529.362.785,1.719-1.389.865.3l-4.711.607.772.635,1.324-5.014-1.556.148c-2.8-.049-4.322,4.352-1.514,5.591a21.456,21.456,0,0,0,10.2,1.813,14.372,14.372,0,0,0,4.6-.976c.759-.313,3.843-2.705,4.51-2.56l.8-5.893a13.992,13.992,0,0,0-5.07,1.372c-1.989.937-1.93,4.225,0,5.18l.111.055a3.057,3.057,0,0,0,4.105-1.076l.08-.146a3.031,3.031,0,0,0-1.793-4.407C23.868,8.547,20,10.353,17.141,11.41c-2.063.762-5.06,1.477-5.978,3.775A4.166,4.166,0,0,0,12.7,20.051c2.094,1.571,3.93.345,5.335.315l-2.591-1.485.214.478V16.33c-.1.235-2.866,1.747-3.194,2.173a4.831,4.831,0,0,0-1.046,2.887,2.95,2.95,0,0,0,1.486,2.591l.479.27a3.088,3.088,0,0,0,3.635-.47l.343-.313-5.121-2.121-.085.286c-1.444,2.119.965,5.246,3.388,4.407l.89-.308-1.6-5.785c-2.877,1.1-6.576,3.341-4.459,6.871,1.2,2,5.1,1.971,5.483-.716.353-2.46.066-4.881-2.206-6.39-.824-.548-2.589-1.26-3.606-.918q-2.578.016,1.285,2.32a12.185,12.185,0,0,0,1.047-1.485,4.466,4.466,0,0,0-1.467-5.846c-2.529-1.587-5.3.313-7.589,1.364l3.028,5.181c1.464-.993,5.15-4.755,2.794-6.8-.572-.5-2.356-.077-1.96.836.2.449.985.815,1.387,1.027a4.648,4.648,0,0,0,4.107.241c3.656-1.189,2.091-6.985-1.6-5.786.27-.088-2.626-2.032-2.933-2.12a4.824,4.824,0,0,0-4.066.578,4.614,4.614,0,0,0-1.669,3.109c-.065.529.719,3.859.908,3.731a3,3,0,0,0,3.028,5.181c2.562-1.175.329-3.79-.873-1.147a4.405,4.405,0,0,0-.143,3.329c.408,1.035,4.395,4.388,4.738,2l5.484-.716-.267-.446v3.029l1.14-.641c3.543-1.357,2.1-7.064-1.6-5.785l-.89.308,3.388,4.407a4.45,4.45,0,0,0,.9-3.315,3.04,3.04,0,0,0-5.122-2.121l-.343.313,3.636-.469-.479-.27,1.486,2.59c-.068.83,3.092-1.309,3.42-2.031a3.834,3.834,0,0,0-.213-3.507,2.933,2.933,0,0,0-2.59-1.486c-.479.01-1.507-.134-1.809.272q-1.194.294.313,1.648.242,2.535,2.2.909c1.89-.19,4.913-2.575,6.624-2.217l-1.793-4.407-.08.146,4.1-1.077-.11-.054v5.18l2.041-.552c3.145-.278,4.337-5.127.8-5.893-2.473-.535-3.876-.045-6,1.229-3.767,2.257-7.645,2.964-11.874,1.1l-1.514,5.59a10.953,10.953,0,0,0,3.151-.362c2.062-.492,3.073-3.575,1.323-5.014l-.772-.636c-1.39-1.143-3.766-1.262-4.711.608-1.328,2.626.152,7.523,3.2,8.47a7.18,7.18,0,0,0,5.006-.9c.972-.676,1.905-3.851,2.712-3.839L19.319,8.974c-3.92,2.5-3.451,6.906-.383,9.972,1.234,1.232,3.925,1.2,4.712-.608l-1.585.619-2.1-2.1c.235,1.19-1,2.868-.85,4.256a4.839,4.839,0,0,0,1.71,3.325,4.478,4.478,0,0,0,6.3-.5,3.055,3.055,0,0,0-.607-4.711l-.627-.43,1.486,2.59c.061.821-.045.8,1.139-.106a4.839,4.839,0,0,0,1.367-1.633c1.014-1.8.731-3.609.273-5.551a3.027,3.027,0,0,0-5.014-1.323A4.845,4.845,0,0,0,23.7,15.249l5.786,1.6c.491-3.073,4.017-3.688,3.738-7.315A4.889,4.889,0,0,0,32.038,6.49c-1.715-1.8-1.582.936-.381-.475A3.014,3.014,0,0,0,28.022,1.3,12,12,0,0,0,25.378,3.13c-2.994,2.542,1.267,6.55,4.243,4.243l.077.153L26.007,3.835c-.3.829-1.412,4.651-1.893,4.6l2.59,4.514,2.224-2.926c1.548-2.038-1.039-5.3-3.388-4.407A9.387,9.387,0,0,0,21.931,7.8c-2.842,2.626,1.409,6.861,4.242,4.242Z"/><path class="b" d="M10.754,37.811a29.607,29.607,0,0,0-9.186,5.851l1.666,3.1a20.405,20.405,0,0,1,10.281-7.142l-.869-4.21A11.26,11.26,0,0,0,7.26,39.565l2.178,3.147a5.418,5.418,0,0,1,3.73-2.916l-.91-4.409L7.441,37.972l1.77,3.3a3.172,3.172,0,0,1,2.957-2.134c2.014-.127,1.891-4.395-.111-4.514a6.035,6.035,0,0,0-5.83,3.99c-.483,1.141.41,4.476,2.084,3.01a12.859,12.859,0,0,1,9.476-3.157,19.358,19.358,0,0,1,9.65,3.573c.856.639,2.1,1.624,2.212,2.783.126,1.3-1.352,2.892-2.145,3.786a11.809,11.809,0,0,1-8.165,4.372l.849,4.179A59.9,59.9,0,0,1,25.923,51.3c1.167-1.039.9-3.956-.851-4.186a53.776,53.776,0,0,0-10.42-.355l.5,4.376L20.9,48.153c1.355-.7,1.465-4.481-.494-4.347a15.844,15.844,0,0,0-5.133,1.223c-1.691.716-1.226,4.8.874,4.236l4.773-1.282-.871-4.215-2.158,1.064c-1.366.674-1.425,4.429.488,4.292,1.538-.11,2.855-.552,3.512-2.054a3.736,3.736,0,0,0-1.041-4.533,8.282,8.282,0,0,0-4.469-.781,12.754,12.754,0,0,0-4.78,1.176c-1.518.7-1.413,4.359.5,4.414a12.084,12.084,0,0,0,8.161-2.9c1-.838.994-4.481-.864-4.248a34.77,34.77,0,0,0-9.3,2.5c-1.774.755-1.266,5.167.923,4.472a24.208,24.208,0,0,0,5.514-2.548A2.6,2.6,0,0,0,17.575,42c-.093-.735-.569-2.132-1.569-2a39,39,0,0,0-7.879,1.833c-1.872.651-1.267,5.3.943,4.567a6.554,6.554,0,0,0,3.682-3.154c.68-1.26.5-4.459-1.611-3.922L5.858,40.665l.934,4.522a8.536,8.536,0,0,0,2.86-1.809c1.042-.985,1.053-4.36-.885-4.356l-1.189,0L8.765,43a3.13,3.13,0,0,1,.9-.979,2.536,2.536,0,0,0,1.073-2.284c-.018-.711-.342-2.046-1.183-2.229a6.65,6.65,0,0,0-4.177.09,6.287,6.287,0,0,0-2.826,3.146,17.354,17.354,0,0,0-1.713,9.5c.082.77.3,1.892,1.165,2.194a1.408,1.408,0,0,0,1.682-1.1,16.292,16.292,0,0,1,2.075-4.7L3.558,43.446a9.2,9.2,0,0,0-1.294,5.568c.1,1.143.92,2.977,2.3,1.913a7.615,7.615,0,0,0,2.627-3.91A3.057,3.057,0,0,0,6.735,44.1a1.165,1.165,0,0,0-1.952.225C3.575,46.141,1.9,49.477,4.024,51.3c1.908,1.637,3.625-.617,4.216-2.3.422-1.206-.006-3.792-1.768-3.3-2.138.6-2.775,3.206-2.385,5.133.115.568.678,1.8,1.484,1.637a8.524,8.524,0,0,0,3.855-1.81,2.8,2.8,0,0,0-.461-4.168c-2.312-1.142-3.559,5.8.568,4.912a25.132,25.132,0,0,0,8.3-3.456,2.544,2.544,0,0,0,1.021-2.555c-.095-.761-.547-2.03-1.535-1.961a18.369,18.369,0,0,0-5.829,1.382c-1.582.661-1.433,4.53.515,4.535a15.535,15.535,0,0,0,7.824-2.07c1.485-.856,1.529-4.395-.518-4.563a16.614,16.614,0,0,0-5.256.458l.927,4.486a6.583,6.583,0,0,0,3.94-4c.425-1.065.175-2.905-1-3.422l-2.564-1.123.111,4.531a7.756,7.756,0,0,1,2.4-.917c1.848-.339,2.09-4.021.3-4.635a5.35,5.35,0,0,1-1.283-.6l-.264,4.32a5.59,5.59,0,0,1,3.861-.233l.3-4.633c-1.783.268-3.567.532-5.35.8-1.458.222-2.713.566-3.27,2.1a4.335,4.335,0,0,0,1.049,4.5c1.19,1.043,2.673.756,4.068.387,1.7-.449,1.341-4.532-.514-4.522a11.766,11.766,0,0,0-9,4.278c-.824,1.009-1.1,3.054.1,3.957a2.41,2.41,0,0,0,3.655-.733,3.014,3.014,0,0,0-.393-3.6,3.259,3.259,0,0,0-5.136,1.555C5.2,47.789,6,51.013,8.417,51.652l-.466-4.211-2.4,1.829c-1.222.932-.855,3.568.467,4.221A42.1,42.1,0,0,0,13.5,56.342l.295-4.586a9.738,9.738,0,0,0-3.209.072c-2.023.375-1.849,3.751-.295,4.6a7.106,7.106,0,0,0,6.219.256c1.559-.654,1.261-3.324.263-4.3a6.312,6.312,0,0,0-5.533-1.744c-1.795.333-1.963,3.4-.673,4.41a4.1,4.1,0,0,0,5.686-.449c1.015-1.189,1.041-3.5-.477-4.313a6.092,6.092,0,0,0-6.872.9c-1.016.877-1.09,3.9.479,4.334a4.362,4.362,0,0,0,5.365-3.242c.26-1.015.316-3.057-1.022-3.482a2.445,2.445,0,0,0-2.608.6c-1.13,1.082-1.029,4.275.9,4.431A12.892,12.892,0,0,0,22.5,49.661a3.106,3.106,0,0,0-.1-4.136,2.07,2.07,0,0,0-3.292.619,3.169,3.169,0,0,0,.41,3.749,3.463,3.463,0,0,0,4.14.376c1.725-1.1,1.588-3.444.6-5.026A7.887,7.887,0,0,0,23.009,43.8a5.339,5.339,0,0,0-.58-.557c-.42-.294.113-.35-.011.187-.605,2.62-.4.906.763,1.422.686.3,1.095,1.232,1.439,1.832l2.115-3.4a6.676,6.676,0,0,1-1.665-3.728l-1.9,2.32c2.61,1.256,3.628,4.261,4.537,6.806a1.428,1.428,0,0,0,1.761,1.032c.862-.351,1.023-1.49,1.072-2.283A19.062,19.062,0,0,0,28.768,38.2l-1.64,3.458a4.481,4.481,0,0,1,3.207,4.41c-.168,2.365-2.173,4.427-4.066,5.631a2.665,2.665,0,0,0-.982,2.848c.144.691.939,2.148,1.892,1.556a10.866,10.866,0,0,0,3.472-3.362,3.087,3.087,0,0,0-.08-3.234,1.206,1.206,0,0,0-2.123.052,16.863,16.863,0,0,1-2.874,3.254c-1.1.978-.738,5.118,1.265,4.171a13.2,13.2,0,0,0,4.184-3.088l-2.158-3.117a4.257,4.257,0,0,1-2.719,2.181l1.587,3.866c1.341-2.283,3.177-4.1,3.139-6.935-.03-2.262-1.236-4.9-3.755-5.045-.832-.049-1.379,1.1-1.451,1.768a8.074,8.074,0,0,0,.612,4.325c.592,1.29,2.255,1.568,2.669-.066a8.793,8.793,0,0,0,.084-4.615c-.2-.718-.914-2.186-1.937-1.594l-1.782,1.031,1.513.566a4.734,4.734,0,0,1-.32-2,8.464,8.464,0,0,0-.8-3.2c-.869-1.69-2.365-2.9-4.311-2.308-1.5.455-1.119,2.952-.58,3.911l2.2,3.92,1.388-3.918c-1.749-.578-3.479-1.21-5.183-1.91-.814-.335-1.631-.671-2.426-1.048-.263-.125-.53-.34-.793-.436-.407-.147-.213-.48-.127.423L14.821,41.94a1.351,1.351,0,0,1,1.952.465,4.527,4.527,0,0,1,.466,1.444c.017.072.04.479.119.522-.393-.212.684-1.009-.427-.459a34.265,34.265,0,0,1-7.315,2.577c-.8.189-1.055,1.569-1.04,2.214a2.36,2.36,0,0,0,1.147,2.16,2.254,2.254,0,0,1,1.2.951l1.209-3.465a18.223,18.223,0,0,1-5.724-1.525C5.07,46.231,4.584,48.27,4.543,49.1a6.73,6.73,0,0,0,2.518,5.406c1.368,1.166,3.3,1.721,4.5,3.082l1.409-3.975a22.376,22.376,0,0,1-7.229-5.256c-.7-.762-1.689-.025-2.019.668a3.318,3.318,0,0,0,.2,3.15,10.514,10.514,0,0,0,16.723,1.341c.963-1.1,1.143-4.318-.9-4.418l-2.184-.106.529,4.662L19.64,52.9c1.743-.854,1.261-5.391-.942-4.563l-3.469,1.3c-1.712.643-1.4,4.543.528,4.649a6.792,6.792,0,0,0,4.729-1.62,3.079,3.079,0,0,0,.224-3.725,2.336,2.336,0,0,0-2.831-.9c-.85.329-1.071,1.529-1.084,2.308a16.721,16.721,0,0,1-.519,3.7c-.238.974.261,2.972,1.567,2.95l1.953-.032-.116-4.714c-2.266.134-4.452.789-5.129,3.2-.49,1.744-.079,4.886,2.113,5.3,2,.375,2.332-2.764,1.4-3.962a6.405,6.405,0,0,0-4.788-2.623c-.749-.053-1.23.9-1.371,1.475a3.439,3.439,0,0,0,.381,2.551,38.693,38.693,0,0,0,4.045,5.852A1.1,1.1,0,0,0,18.273,64a14.293,14.293,0,0,1,8.437-6.135c1.461-.4,1.123-4.288-.451-3.963l-4.2.865.445,3.915,1.3-.752a2.174,2.174,0,0,0,.881-2.2c-.07-.558-.5-1.883-1.324-1.694a14.035,14.035,0,0,0-4.072,1.607,2.21,2.21,0,0,0-.9,2.239c.082.653.482,1.8,1.344,1.718A15.454,15.454,0,0,0,32.4,50.3l-2.578.064q1.11-2.251.106-1.848a.518.518,0,0,1-.5-.037,3.419,3.419,0,0,1-.749-.36,16.944,16.944,0,0,0-2.037-1.047,10.851,10.851,0,0,0-4.268-.664c-1.588.063-1.567,2.441-1.21,3.468l-.115-.474c-.165.771.113,2.6,1.117,2.784l1.94.364c1.769.331,2.149-2.172,1.613-3.4a13.254,13.254,0,0,0-2.706-4.057,19.8,19.8,0,0,0-3.7-2.61A3.745,3.745,0,0,1,18.014,41.4a21.289,21.289,0,0,1-.494-2.261c-.527-1.358-1.959-2.789-3.5-1.948a2.624,2.624,0,0,0-.986,2.857,13.992,13.992,0,0,0,3.433,5.888c1.072,1.209,2.964,2.847,3.146,4.557l2.5-1.664L17.986,43l-1.1-1.554c-.154-.219-.584-1.084-.783-1.118q-.651,1.735.279,1.188a1.769,1.769,0,0,1,.644.044,4.585,4.585,0,0,1,1.359.64c2.008,1.249,2.857-2.837,1.344-3.778-1.354-.842-2.918-1.769-4.534-1-1.733.825-2.2,2.93-1.739,4.651.48,1.8,2.027,3.421,3.076,4.923l3.552,5.086c1.135,1.626,2.637-.3,2.5-1.663a11.691,11.691,0,0,0-3.011-6.566c-1.285-1.511-3.152-3.11-3.658-5.1l-.985,2.857c.044-.024.039-.2.043-.054a5.794,5.794,0,0,0,.087.912,6.121,6.121,0,0,0,.764,2.012,6.88,6.88,0,0,0,2.38,2.2c2.1,1.293,3.945,2.488,4.973,4.836l1.613-3.4-1.941-.36,1.117,2.785A5.5,5.5,0,0,0,23.69,47.5l-1.21,3.468a8.578,8.578,0,0,1,3.468.513c1.157.437,2.15,1.323,3.379,1.544,2.784.5,3.92-2.893,3.014-5.026-.633-1.49-1.966-1.261-2.578.063a14.139,14.139,0,0,1-10.121,7.488L20.4,59.3a8.528,8.528,0,0,1,3.057-1.294l-.443-3.9-1.3.736a2.18,2.18,0,0,0-.885,2.215c.073.581.5,1.863,1.33,1.7l4.2-.816-.451-3.963a16.507,16.507,0,0,0-9.646,7.113l1.938-.048a30.469,30.469,0,0,1-3.564-5.75l-1.242,3.558a3.512,3.512,0,0,1,2.574,1.312l1.4-3.962c-.568-.108-.046.18.03.495a1.081,1.081,0,0,1-.2.973.835.835,0,0,1,.385-.294,14.792,14.792,0,0,1,2.212-.41c2.09-.118,1.983-4.743-.116-4.714l-1.953.027,1.567,2.95a22.268,22.268,0,0,0,.606-4.96l-1.084,2.308q.137-.122.288.129l-.7-.591.19.225.224-3.724a4.453,4.453,0,0,1-3.177.924l.528,4.649L19.64,52.9,18.7,48.333l-1.549.753c-1.592.775-1.5,4.558.53,4.662l2.185.112-.9-4.418a8.1,8.1,0,0,1-12.9-.719L4.251,52.542a25.142,25.142,0,0,0,8.008,5.635c.923.411,1.611-.68,1.791-1.409a3.133,3.133,0,0,0-.7-2.927A13.381,13.381,0,0,0,9.9,51.388a8.92,8.92,0,0,1-1.548-1.069c-.51-.461-.8-.836-.779-1.3L5.711,51.3a20.711,20.711,0,0,0,6.533,1.613c1.5.126,1.658-2.594,1.209-3.466a5.857,5.857,0,0,0-3.045-2.977l.107,4.374a38.464,38.464,0,0,0,6.3-2.136c2.039-.9,3.574-1.949,3.518-4.41A9.911,9.911,0,0,0,18.515,38.7c-1.066-1.347-3.029-2.162-4.606-1.182a2.435,2.435,0,0,0-1.055,2.246c.217,2.425,1.565,3.648,3.683,4.609a74.442,74.442,0,0,0,7.168,2.786c.815.273,1.44-.406,1.7-1.109a3.389,3.389,0,0,0-.307-2.809l-2.2-3.931-.58,3.911c1.091-.326,1.145,1.49,1.192,2.07a9.372,9.372,0,0,0,1.222,4.332,1.227,1.227,0,0,0,1.513.567l1.783-1.024-1.937-1.594a1.973,1.973,0,0,1,.132.983l2.669-.066c-.143-.312-.239-.392-.206-.7l-1.45,1.768c.623.039.586.314.416.706a35.32,35.32,0,0,1-2.165,3.309c-.66,1.139-.463,4.555,1.588,3.866a7.567,7.567,0,0,0,4.476-4.391,3.153,3.153,0,0,0-.307-2.8,1.2,1.2,0,0,0-1.851-.317,10.832,10.832,0,0,1-3.462,2.638l1.266,4.17a21.573,21.573,0,0,0,3.457-4l-2.2-3.182a6.966,6.966,0,0,1-2.179,2.14l.91,4.4c3.464-2.188,6-5.633,6.182-9.833.158-3.735-1.809-7.876-5.532-9.116-1.786-.6-2.139,2.383-1.64,3.458a12.929,12.929,0,0,1,1.316,6.271l2.794-.628c-1.254-3.535-2.863-7.217-6.421-8.944-1.282-.621-1.964,1.483-1.9,2.32a12.4,12.4,0,0,0,2.644,7.054,1.26,1.26,0,0,0,2.2-.054,3.291,3.291,0,0,0-.082-3.347,6.217,6.217,0,0,0-3.12-3.13,3.214,3.214,0,0,0-3.7,1.415,4.689,4.689,0,0,0,.171,4.776,8.037,8.037,0,0,0,1.157,1.329,6.037,6.037,0,0,0,.581.562c.394.3.158.925.037-.429l.725-2.079a1.17,1.17,0,0,1-1.578,0l.41,3.749a.44.44,0,0,1-.5.228l-.1-4.136A10.783,10.783,0,0,1,11.9,49.048l.9,4.431c.061-.125.129-.145.2-.062l-1.022-3.481a1.5,1.5,0,0,1-1.884.981l.48,4.334a3.89,3.89,0,0,1,4.482-.383l-.477-4.313a1.841,1.841,0,0,1-2.556.387l-.673,4.41a4.228,4.228,0,0,1,3.961,1.122l.263-4.3a5.082,5.082,0,0,1-4.584-.275l-.3,4.6a9.739,9.739,0,0,1,3.209-.084c1.874.255,1.944-4.137.294-4.586a42.092,42.092,0,0,1-7.483-2.821l.467,4.221,2.394-1.838c1.039-.8,1.02-3.824-.466-4.211.148.038-.578-.2-.508-.212.119-.028-.175,1.125-.023,1.154.388.076.648-.353,1.1,0l-.394-3.6c.09-.141-.017-.064-.022-.068l.1,3.956a9.435,9.435,0,0,1,7.5-3.582l-.514-4.523a4.174,4.174,0,0,1-1,.166,4.2,4.2,0,0,0-.6-.046l-.193,2.182a.739.739,0,0,1,.335-.1,5.881,5.881,0,0,0,1.125-.163l4.865-.694c1.864-.266,2.075-4.087.3-4.633a7.8,7.8,0,0,0-5.506.264c-1.385.589-1.482,3.507-.264,4.319a8.6,8.6,0,0,0,2.036,1.046l.3-4.635a10.177,10.177,0,0,0-3.214,1.115c-1.459.821-1.508,3.828.111,4.531l2.566,1.114-1-3.422a3.285,3.285,0,0,1-2.151,1.815c-1.852.642-1.291,5.017.927,4.486a14.266,14.266,0,0,1,4.443-.287L18.906,42.8a13.721,13.721,0,0,1-7.014,1.911l.515,4.536a15.667,15.667,0,0,1,5.026-1.217l-.514-4.516a25.594,25.594,0,0,1-4.2,2.214c-1.223.5-2.935,1.321-4.278,1.2l.766.294-.217-.14.723,1.349-.041-.182-.331,2.234.089-.174-.648.6.149-.091-.8.019.14.069-.461-4.169a5.517,5.517,0,0,1-2.356,1.162l1.484,1.638q-.4,1.125-.021.672a1.5,1.5,0,0,1,.451-.157l-1.767-3.3c-.073.209-.141.616-.26.5l.554.8q-.173,2.037.141,1.106a5.166,5.166,0,0,1,.236-.546,10.049,10.049,0,0,1,.692-1.137L4.561,44.788a4.143,4.143,0,0,1-1.6,2.24l2.3,1.913a3.432,3.432,0,0,1,.507-2.31,3.122,3.122,0,0,0-.08-3.238,1.207,1.207,0,0,0-2.126.053A19.854,19.854,0,0,0,1.02,49.075l2.847,1.094a11.727,11.727,0,0,1,.8-5.895,4.548,4.548,0,0,1,1.357-2.061,3.785,3.785,0,0,1,2.824-.171L8.741,37.53a7.169,7.169,0,0,0-2.235,2.208c-.689,1.076-.572,3.972,1.187,3.977l1.189,0L8,39.361a6.007,6.007,0,0,1-2.139,1.3c-1.85.687-1.3,5.08.934,4.522l5.288-1.319-1.61-3.922a3.8,3.8,0,0,1-2.343,1.883L9.07,46.4a37.062,37.062,0,0,1,7.051-1.689L15.6,40.091a24.33,24.33,0,0,1-5.5,2.6l.923,4.472a31.74,31.74,0,0,1,8.494-2.388l-.864-4.248a9.837,9.837,0,0,1-6.657,2.317l.5,4.414a10.539,10.539,0,0,1,4.431-1.063,9.457,9.457,0,0,1,2.2.2,4.769,4.769,0,0,1,.563.151l-.267-1.983a7.408,7.408,0,0,0-1.144.182l.488,4.293,2.16-1.054c1.623-.791,1.247-4.774-.871-4.215L15.27,45.029l.874,4.236a13.266,13.266,0,0,1,4.368-1.023L20.018,43.9l-5.754,2.953c-1.377.707-1.471,4.491.5,4.376a53.885,53.885,0,0,1,10.422.4l-.851-4.187A56.132,56.132,0,0,0,18.6,53.31c-.8.947-1.138,4.281.849,4.179C27.067,57.1,36.9,46.9,30.418,39.71,27.642,36.628,23.01,34.845,19,34.222A15.11,15.11,0,0,0,6.734,37.8l2.084,3.01a3.313,3.313,0,0,1,3.35-1.671l-.111-4.514A6.167,6.167,0,0,0,6.573,39.04c-.3.932.06,4.207,1.771,3.3L13.168,39.8c1.659-.877,1.332-4.966-.91-4.409a7.972,7.972,0,0,0-5.219,4.642c-.708,1.488.92,4.816,2.4,2.683a8.491,8.491,0,0,1,4.077-3.094c1.706-.65,1.168-4.893-.869-4.21A22.5,22.5,0,0,0,1.31,43.981a2.7,2.7,0,0,0-.038,2.625c.337.6,1.1,1.1,1.7.473a52.316,52.316,0,0,1,8.242-7.018c.73-.49.662-2.716-.465-2.25Z"/><path class="a" d="M20.784,24.75c1.489,1.144,3.039,2.317,4.92,1.1a3.6,3.6,0,0,0,1.477-2.089c.756-2.438.644-3.77,2.337-5.989,1.5-1.964,3.965-4.226,4.154-6.819A3.377,3.377,0,0,0,32.744,8.3a7.9,7.9,0,0,0-1.08-.9c-.385-.314-1-1.118-.7-.5l.3,2.312c.215-.646,1.189-1.515,1.327-2.536a4.811,4.811,0,0,0-.12-1.5c-.3-1.846-.058-.028-.332.334,2.327-3.083-2.881-6.076-5.18-3.029-1.187,1.572-.583,2.884-.207,4.591l.3-2.312c-.862,1.746-2.137,2.7-1.425,4.807.563,1.666,1.983,1.854,2.969,3.1l-.771-2.919c-.475,2.248-3.239,4.406-4.468,6.283-1.44,2.2-1.281,4.062-2.068,6.422l1.378-1.793-.226.132h3.028a11.705,11.705,0,0,1-1.665-1.229c-3.06-2.351-6.051,2.858-3.028,5.181Z"/><path class="c" d="M20.32,35.739c1.437.907,2.828,1.918,4.3,2.757a14.332,14.332,0,0,1,4.087,3.081c2.21,2.668,1.008,5.978-1.081,8.321-3.832,4.3-10.251,6.818-11.05,13.22-.07.562.543,2.487,1.361,1.516a22.791,22.791,0,0,1,8.781-6.416c.859-.356.768-2.781-.291-2.559a23.329,23.329,0,0,0-5.155,1.7l.514,2.491,8.7-4.363c.964-.484.585-3.005-.508-2.462a25.35,25.35,0,0,0-4.318,2.726c-.582.454-.535,2.5.48,2.365A6.326,6.326,0,0,0,30.262,55.9c.422-.5.646-2.482-.478-2.354a16.79,16.79,0,0,0-4.318,1.075l.5,2.437a10.433,10.433,0,0,0,2.664-1.715c.683-.6.465-2.624-.7-2.322A8.6,8.6,0,0,0,23.4,55.908c-.483.585-.552,2.888.724,2.385a21.478,21.478,0,0,0,8.7-6.347,1.748,1.748,0,0,0,.264-1.794c-.184-.411-.76-.932-1.184-.439l-2.8,3.259,1.079,2.006a24.164,24.164,0,0,0,2.026-4.922,1.711,1.711,0,0,0-.257-1.647.655.655,0,0,0-1.1.127,15.462,15.462,0,0,1-6.237,6.117l.694,2.286c2.756-1.9,4.68-4.645,6.541-7.371l-1.2-1.726a24.589,24.589,0,0,0-1.635,4.239,1.651,1.651,0,0,0,.247,1.584.631.631,0,0,0,1.059-.122A24.581,24.581,0,0,0,33.4,46.22L31.817,45.6c-.639,2.941-1.89,5.867-4.786,7.178l.842,2.052A40.719,40.719,0,0,0,31.6,49.3c.48-.855-.334-3-1.191-1.721-.686,1.027-1.624,2.544-1.41,3.84.194,1.179,1.393,1.641,2.123.581A16.966,16.966,0,0,0,33.1,47.223a11.65,11.65,0,0,0,.342-4.95c-.212-1.453-1.525-.781-1.58.367l-.357,7.378,1.635-.04-.239-6.754c-.055-1.547-1.647-1.507-1.652.04l-.009,2.9c-.005,1.561,1.632,1.5,1.659-.041a24.68,24.68,0,0,0-.858-6.914c-.455-1.679-1.747-.584-1.6.718q.183,1.59.365,3.18l1.606-.721a9.9,9.9,0,0,0-2.177-4.937c-.951-1.146-1.692.756-1.291,1.6l1.043,2.188,1.435-1.342a8.815,8.815,0,0,0-3.848-4c-1.143-.61-1.138,1.876-.6,2.4a5.31,5.31,0,0,0,1.225.874c1.057.575,1.353-2,.393-2.528a46.725,46.725,0,0,0-6.892-3.141l-.166,2.587a3.133,3.133,0,0,1,1.188.242l.384-2.471c-1.595-.508-3.164-1.111-4.74-1.673-1.143-.407-1.382,2.083-.38,2.439,1.578.563,3.177,1.089,4.736,1.7,1.151.454,1.342-2.033.384-2.471a4.531,4.531,0,0,0-1.637-.4c-1.119-.077-1.035,2.264-.166,2.588a51.868,51.868,0,0,1,6.9,3.123L28.6,36.63a2.592,2.592,0,0,1-.81-.617l-.6,2.4a6.465,6.465,0,0,1,2.806,2.823c.758,1.518,1.957-.253,1.435-1.342l-1.048-2.184L29.09,39.3a7.434,7.434,0,0,1,1.723,3.8c.072.485.509,1.085,1.057.869.592-.232.608-1.085.549-1.59q-.186-1.589-.373-3.177l-1.6.718a22.155,22.155,0,0,1,.8,6.237l1.659-.041,0-2.9-1.652.04.256,6.754c.059,1.549,1.566,1.473,1.635-.04l.339-7.378-1.58.366a8.259,8.259,0,0,1-.5,3.921c-.147.426-1.472,3.134-1.226,3.3l.391.729c.08.529.387-.546.421-.614a9.193,9.193,0,0,1,.6-1L30.4,47.581a41.179,41.179,0,0,1-3.725,5.528c-.432.542-.157,2.506.843,2.052,3.579-1.625,5.09-5.324,5.874-8.941.283-1.307-1.194-2.193-1.579-.617a20.836,20.836,0,0,1-2.681,6.226l1.307,1.462a21.5,21.5,0,0,1,1.4-3.723,1.711,1.711,0,0,0-.043-1.754.656.656,0,0,0-1.152.028c-1.78,2.591-3.6,5.147-6.234,6.943-.726.5-.313,2.819.694,2.286a17.272,17.272,0,0,0,6.97-6.753L30.723,48.8a21.441,21.441,0,0,1-1.789,4.379,1.781,1.781,0,0,0-.025,1.7c.213.361.726.743,1.1.307l2.807-3.239-.92-2.233a21.016,21.016,0,0,1-8.3,6.057l.893,2.176a7.459,7.459,0,0,1,3.94-2.47l-.7-2.322a8.466,8.466,0,0,1-2.265,1.466c-.962.429-.649,2.893.5,2.437a15.007,15.007,0,0,1,3.877-.974l-.479-2.355a5.034,5.034,0,0,1-3.286,1.84l.481,2.364a22.9,22.9,0,0,1,3.927-2.444l-.508-2.462L21.275,57.36c-.967.481-.621,3.019.514,2.491a21.338,21.338,0,0,1,4.7-1.58l-.291-2.56a25.16,25.16,0,0,0-9.23,6.577l1.361,1.517c.518-3.555,3.375-5.869,6.035-7.965,2.617-2.064,5.22-4.186,6.535-7.344a8.223,8.223,0,0,0-1.133-8.625c-2.355-2.737-6.027-3.634-9.28-4.815-.323-.117-.387.547-.171.683Z"/><path d="M17.55,67.779A13.323,13.323,0,0,1,20.1,62.273a9.03,9.03,0,0,1,4.222-2.08c2.731-.819,5.492-1.945,7.231-4.326,4.014-5.494,4.444-14.929-1.343-19.38a24.711,24.711,0,0,0-9.234-3.912,21.656,21.656,0,0,0-9.617-.529,12.509,12.509,0,0,0-8.112,5.665C1.272,40.85-.5,44.775.13,48.547c.7,4.177,3.933,7.251,7.293,9.5,1.866,1.249,3.847,2.327,5.621,3.713,1.6,1.246,3.382,2.869,3.456,5.036.055,1.611,1.6,1.514,1.692-.041C18.641,59.191,9.453,56.608,5.056,52.3a9.634,9.634,0,0,1-2.6-4.015,6.873,6.873,0,0,1,.693-4.726c1.352-3.159,3.083-6,6.291-7.523a15.8,15.8,0,0,1,8.666-1.047,30.416,30.416,0,0,1,9.077,2.463A9.051,9.051,0,0,1,32.817,45.5,13.023,13.023,0,0,1,30.1,54.658c-2.158,2.57-5.41,2.938-8.258,4.3-3.385,1.622-4.138,5.226-4.609,8.623-.028.2.24.51.321.195Z"/><path d="M25.919,39.23a12.3,12.3,0,0,1,2.531,2.491,5.559,5.559,0,0,1,.785,3.567c-.011.233.126.581.383.624s.426-.249.453-.473a5.581,5.581,0,0,0-1.022-4.347,11.235,11.235,0,0,0-3.008-2.347c-.206-.125-.256.377-.122.485Z"/><path d="M27.825,6.008c-3.774,3.314-6.176,8.085-7.914,12.728A41.99,41.99,0,0,0,16.93,33.994c.028,1.159,1.474,1.707,1.575.284.174-2.45.249-4.875.665-7.3A43.062,43.062,0,0,1,21.1,19.741c1.71-4.773,4.364-9.04,6.911-13.393.067-.113,0-.5-.183-.34Z"/><path d="M7.565,12.6a9.727,9.727,0,0,1,.972,1.092c.375.388.735.786,1.078,1.2.574.7,1.162,1.393,1.685,2.133a21.318,21.318,0,0,1,2.571,4.929,29.677,29.677,0,0,1,1.479,6.31c.15,1.1.24,2.205.295,3.313a8.531,8.531,0,0,0,.37,2.861c.225.553.791.515,1-.024a7.7,7.7,0,0,0,.171-3.279c-.08-1.179-.2-2.357-.375-3.526a28.344,28.344,0,0,0-1.9-6.84A21.942,21.942,0,0,0,11.944,15.7a11.845,11.845,0,0,0-1.927-2.012,10.343,10.343,0,0,0-1.178-.842c-.369-.215-.824-.292-1.174-.524-.147-.1-.205.2-.1.28Z"/><path d="M15.638,26.526c3.539-.642,4.508-4.727,2.676-7.5l.023.941c1.394-2.695.087-6.437-2.977-7.219l.324,1.105C17.2,10.58,13.911,6.57,10.5,8.662l.475.177a5.337,5.337,0,0,0-7.864-.652,4.531,4.531,0,0,0,.193,6.95l.1-1.607C-.339,15.443,1.182,21.9,5.61,21.1l-.574-1.417c-1.337,3.176.847,7.1,4.511,6.726l-.65-.718a5.4,5.4,0,0,0,3.5,4.019,2.541,2.541,0,0,0,3.359-2.44c.046-.844-.961-1.157-1.1-.2-.195,1.336-2.034.88-2.767.412a4.09,4.09,0,0,1-1.739-2.355c-.074-.274-.277-.761-.651-.718-2.188.251-4.3-1.515-3.36-3.794.143-.348.058-1.538-.575-1.417a2.726,2.726,0,0,1-2.884-1.1,2.136,2.136,0,0,1,1.069-2.886,1.076,1.076,0,0,0,.1-1.607c-1.869-1.373-1.21-3.3.385-4.6a4.449,4.449,0,0,1,6.085.894c.1.128.293.287.474.178,2.12-1.286,5.24.429,4.017,3.039-.133.285-.063,1,.325,1.1a3.663,3.663,0,0,1,2.5,4.963.9.9,0,0,0,.088.8c1.681,2.317.326,5.159-2.12,6.2-.114.048-.106.37.039.344Z"/><path d="M15.3,11.015c.71-1.194,2.5-1.624,3.807-1.515.382.033.5-.555.5-.812A5.336,5.336,0,0,1,21.1,4.645a4.174,4.174,0,0,1,3.81-.933.4.4,0,0,0,.472-.2C26.43,1.9,28.336.531,30.321,1.1c2.281.659,3.3,3.516,1.2,5.039a.8.8,0,0,0,.027,1.086,4.21,4.21,0,0,1,1.421,4.649,3.6,3.6,0,0,1-1.446,2.06c-.411.26-.845.342-1.082.817-.482.965.193,2.249-.078,3.3a4.859,4.859,0,0,1-2.671,2.866.915.915,0,0,0-.345,1,3.4,3.4,0,0,1-.991,2.737,3.5,3.5,0,0,1-2.793.988,3.683,3.683,0,0,1-3.294-3.079c-.189-1.4-1.579-.549-1.358.609A4.831,4.831,0,0,0,20.8,26.107a4.142,4.142,0,0,0,3.5.7A4.112,4.112,0,0,0,27.4,25.2a4.593,4.593,0,0,0,.951-3.726l-.344,1a6.305,6.305,0,0,0,3.162-3.318,5.99,5.99,0,0,0,.316-2.179,5.946,5.946,0,0,1-.134-1.225c.073-.267.543-.379.862-.625,2.806-2.161,2.441-6.988-.278-8.986l.027,1.086a4.029,4.029,0,0,0-.16-6.3,4.981,4.981,0,0,0-7.141,1.548l.472-.2C21.116.809,18.173,5.038,18.563,8.714l.505-.813c-2,.152-2.968,1.241-3.936,2.87-.075.126.061.426.169.244Z"/><path d="M16.79,64.422c.244.679-.473,1.35-.864,1.818a3.622,3.622,0,0,0-.872,1.692,3.131,3.131,0,0,0,.409,2.084c.129.228.277.443.415.665.027.044.138.259.145.258l.053-.641a.25.25,0,0,1-.081.093,2.861,2.861,0,0,0-.58.465,3.3,3.3,0,0,0-.659.711,4.171,4.171,0,0,0-.643,2.028,5.192,5.192,0,0,0,1.5,4.255c.875.713,1.272-.843,1.166-1.435a18.512,18.512,0,0,0-.686-2.074,1,1,0,0,1,.091-1.011c.338-.455.838-.734,1.124-1.248a2.719,2.719,0,0,0,.182-2.138,4.254,4.254,0,0,0-.934-1.4c-.139-.168-.194-.231-.186-.4a2.876,2.876,0,0,1,.441-1.034c.555-1.013,1.047-2.147.43-3.244-.264-.472-.551.291-.454.561Z"/><path d="M17.27,64.695A2.613,2.613,0,0,0,17,67.82a7.893,7.893,0,0,0,.874,1.119l.059-.566a.218.218,0,0,1-.075.095c-.072.031-.165.154-.225.209a3.815,3.815,0,0,0-.6.641c-.852,1.247-.308,3.048-.11,4.425a35,35,0,0,0,.732,4.422c.164.587.621,1.46,1.377,1.133a1.882,1.882,0,0,0,.715-2.072c-.344-1.237-.544-2.512-.78-3.773-.115-.618-.229-1.236-.347-1.853a2.882,2.882,0,0,0-.2-.9c-.029-.179-.047-.133-.052.138q-.1.378.016.171c.054-.024.145-.2.186-.251a2.7,2.7,0,0,0,.529-2.967,3.527,3.527,0,0,0-.943-1.064c-.377-.327-.672-.611-.4-1.125.15-.287-.035-1.385-.489-.908Z"/></svg>