<svg xmlns="http://www.w3.org/2000/svg" width="76.202" height="71.718" viewBox="0 0 76.202 71.718"><defs><style>.a{fill:#438243;}.b{fill:#74c474;}</style></defs><title>brocolli</title><path d="M19.1,33.561c-.486-2.064-.647-4.127.88-5.826a6.35,6.35,0,0,1,4.317-1.92c1.281-.086,1.2-2.947-.071-2.882-4.977.253-9.332,6.816-5.673,11.137.34.4.625-.177.547-.509Z"/><path d="M32.4,20.01A6.416,6.416,0,0,1,39.58,16.5c1.208.29,1.405-2.221.382-2.451a6.9,6.9,0,0,0-8.3,5.514c-.09.5.429,1.094.728.443Z"/><path d="M41.805,30.24c1.163,3.963,6.969,5.113,9.238,1.462.439-.707.277-3.253-1.087-2.648-1.2.53-2.326,1.225-3.689,1.089-1.41-.14-2.167-1.116-3.33-1.723-.932-.485-1.292,1.274-1.132,1.82Z"/><path d="M59.225,18.872a4.12,4.12,0,0,1,1.18,4.678c-.3.849.48,2.836,1.4,1.564,1.824-2.526.78-6.741-2.15-7.956-.855-.354-.853,1.337-.429,1.714Z"/><path class="a" d="M24.8,25.344a27.122,27.122,0,0,0-7.161,4.785c-.516.457-.481,1.767.226,2.045,1.6.629,3.109-.383,4.59-1.013q3.33-1.418,6.623-2.924c.9-.408.663-2.637-.475-2.3l-7.376,2.194c-.889.265-.7,2.64.278,2.441q4.861-.992,9.788-1.512l-.775-1.915-.473,1.475c-.361,1.126.985,2.87,1.493,1.265L32,28.408c.164-.52.113-2.013-.776-1.915a95.49,95.49,0,0,0-9.787,1.591l.278,2.44,7.357-2.287-.475-2.3q-2.409,1.131-4.836,2.224c-1.355.608-4.083,2.385-5.563,1.84l.226,2.044a43.476,43.476,0,0,1,6.681-5.2c.492-.328.438-1.825-.311-1.507Z"/><path class="a" d="M25.767,16.833,28.1,14.122c1.522-.4.923-3.194-.093-3.763L25.681,9.053l-.26,4.042,2.146-.057c2.079.455,2.406-3.688.658-4.221-7.539-2.3-17.21-.912-17.583,8.828-.1,2.6-.039,2.729-2.379,4.19a20.223,20.223,0,0,0-5.275,3.994A10.035,10.035,0,0,0,.919,34.807C2.829,41.641,13.8,45.172,19.7,41.765a6.23,6.23,0,0,0,2.855-7.534c-1.293-4-4.851-4.718-8.642-4.664l.658,5.786q5.4-2.252,10.784-4.519L24.2,25.2l-9.564,4.535c-1.81.859-1.822,6.129.649,5.709l19.186-3.26-.64-5.636L5.718,33.63l1.117,5.413a22.57,22.57,0,0,0,7.06-4.661,3.694,3.694,0,0,0,.266-4.438c-3.9-4.794-7.686,5.089-1.816,5.958,2.189.325,2.2-4.443.807-5.292-3.094-1.886-6.674-1.161-6.515,3.207.163,4.512,4,5.222,7.552,4.271,1.487-.4,1.505-3.2,1.015-4.213l-.326-.676c-.328-.681-.81-1.367-1.651-1.373l-.75,0c-2.3-.016-2.187,4.319-.815,5.338a6.9,6.9,0,0,0,5.745,1.573c2.154-.325,2.591-5.15.358-5.585-3.242-.631-6.316-1.971-9.451-1.65l-1.64-4.048L5.246,30.485c-.548,1.164.16,4.926,2.111,3.938l21.316-10.8c1.956-.991,1.488-6.072-1.072-5.194L12.494,23.607c-1.865.64-1.576,5.657.6,5.291a52.35,52.35,0,0,0,9.811-2.623L21.837,21.1q-3.09,1.308-6.19,2.59c-2.1.874-1.515,5.868,1.078,5.223l5.422-1.346-1.091-5.286q-3.695,1.319-7.383,2.655L15.2,29.982a62.246,62.246,0,0,0,6.774-6.243,3.756,3.756,0,0,0,.264-4.413q1.1.7,1.929-.714c1.641-1.151.911-5.93-1.554-5.119A26.051,26.051,0,0,0,16.1,16.671l1.564,5.154q2.654-1.929,5.309-3.857c1.584-1.148.829-6.3-1.574-5.189a12.958,12.958,0,0,0-3.338,2.05l2.629,3.8a9.361,9.361,0,0,1,.982-2.686c.56-1.23-.134-4.978-2.16-4.03-5.733,2.683-7.7,9.659-5.058,15.247L15.876,23.1l-5.554.468c-2.108.178-2.376,4.906-.338,5.274,2.138.386,4.279.756,6.414,1.158q1.193.2,2.375.461a2.107,2.107,0,0,1,2.106,1.34c-1.908.477-1.5,4.61.127,5.19a34.8,34.8,0,0,0,12.848,2.054c2.465-.067,2.337-5.624-.137-5.559-2.516.066-5.03.135-7.545.228-2.551.094-2.35,5.443.14,5.674a112.886,112.886,0,0,0,26.236-.608c2.488-.348,2.434-5.771-.14-5.715q-14.731.321-29.362,1.995c-2.545.291-2.4,5.95.141,5.761,8.661-.642,17.288-1.618,25.883-2.854l-.626-5.511q-1.263.334-2.527.664c-2.178.569-1.562,5.358.63,5.545l7.942.679L53.4,33.977l-.865,1.014c-1.081,1.266-1.445,4.6.586,5.3,6.172,2.116,13.891,4.036,18.527-2.044,4.292-5.629.712-10.714-2.248-15.837L67.163,27.1a12.03,12.03,0,0,1,1.917,1.26q2.885,1.745-.3,5.91l2.011,2.9a40.743,40.743,0,0,0-3.317-13.515c-.473-1.078-1.571-1.889-2.639-.979l-.289.246a3.755,3.755,0,0,0-.588,4c.619,1.25,1.043,1.777,2.453,1.986.832.124,1.355-.915,1.626-1.492,1.594-3.4-.8-7.594-1.872-10.845-1.19-3.611-3.965.149-3.613,2.447A16.637,16.637,0,0,0,65.028,25.5c.908,1.459,2.758.815,3.141-.7C70.9,14.038,61.522,9.6,52.439,8.5l.684,6.016c6.074-2.773,15.314,1.028,12.658,8.931l3.721.646c-2.366-9.157-10.93-14.913-20.278-12.419-2.3.615-1.709,5.808.677,5.955a8.541,8.541,0,0,0,3.86-.427c2.288-.572,1.493-4.986-.142-5.8-4.241-2.1-6.468-7.019-11.143-8.418C37.448,1.48,32.762,4.968,29.053,7.9l2.062,5A19.372,19.372,0,0,1,35.977,9.5c2.145-1.066,1.664-6.371-1.159-5.612a14.2,14.2,0,0,0-7.387,4.624c-1.2,1.372-1.389,5.257,1.1,5.421a50.9,50.9,0,0,0,11.355-.508L39.238,7.7l-12.99,5.589c-1.888.812-1.8,6.062.649,5.715a30.927,30.927,0,0,0,9.685-2.958c2.013-1,1.8-5.448-.649-5.712a34.646,34.646,0,0,0-10.456.43l.649,5.706a44.288,44.288,0,0,1,16.666-1.824l-.647-5.7-6.853,1.9c-2.22.616-1.62,5.515.648,5.7a97.643,97.643,0,0,1,12.512,1.8l-.137-5.6L32.374,16.666c-2.088.513-1.678,5.956.644,5.671l12.456-1.53-.643-5.659a73.036,73.036,0,0,1-14.823,2.578l.642,5.645a62.075,62.075,0,0,1,10.708-4.448c2.028-.63,1.707-5.864-.641-5.638a73.68,73.68,0,0,0-16.388,3.478c-2.027.676-1.722,5.73.64,5.629l16.512-.711-.639-5.617L27.654,20c-2.054.613-1.693,5.7.638,5.609q8.97-.367,17.942-.716l-.641-5.634-10.668,3.39c-2.1.666-1.707,5.66.645,5.675l12.27.079L47.7,22.561c-4.4.8-8.748,1.791-13.059,2.989-2.215.615-1.747,5.875.669,5.893,5.577.042,11.154.042,16.731.051l-.152-6.19L33.5,28.722c-2.7.5-2.71,6.514.155,6.334,4.459-.28,8.914-.6,13.37-.92,2.793-.2,2.635-6.134-.154-6.276a17.917,17.917,0,0,0-3.857.211c-2.695.42-2.669,6.273.153,6.232l14.115-.2L56.11,28.354l-1.353,1.328c-1.411,1.386-1.371,5.6,1.167,5.743l8.484.488L62.4,33.7c.638,2.109,1.693,3.655,4.054,2.879,1.905-.627,1.841-4.642.345-5.645-2.29-1.535-4.432-1.879-6.954-.591-1.7.868-2.031,4.543-.344,5.631,3.389,2.185,5.615-.878,5.75-4.169.048-1.161-.991-3.71-2.622-2.9-1.6.8-1.979,1.644-2.262,3.412l3.919,1.534C64.73,28.559,63.2,23.8,58.847,20.536l-1.4,5.576,3.9,2.276c2.272,1.326,2.52-3.423,2.128-4.487a21.447,21.447,0,0,0-5.4-8.216c-2.361-2.287-3.214,3.306-2.27,4.767a20.522,20.522,0,0,0,6.744,6.638c2.227,1.364,3.078-1.771,2.8-3.451a14.357,14.357,0,0,0-2.662-6.4c-2.113-2.9-3.7,1.872-2.995,3.7l2.644,6.808,2.992-3.695a38.858,38.858,0,0,0-9.5-8.024c-1.892-1.143-2.574,2.713-2.318,3.727a13.587,13.587,0,0,0,5.209,8.111l1.848-5.192L49.451,14.671c-2.692-1.938-3.207,3.213-2.249,4.725a32.76,32.76,0,0,0,8.289,8.952c2.6,1.932,3.32-3.2,2.246-4.716A75.777,75.777,0,0,0,47.971,12.4c-2.236-2.116-3.458,3.194-2.24,4.705l7.688,9.533,2.235-4.695a13.7,13.7,0,0,0-5.813-2.684c-2.238-.459-2.748,2.794-2.053,4.328a17.911,17.911,0,0,0,6.167,7.593C56.6,33.064,56.9,28.087,56.1,26.669q-3.126-6.631,2.44-7.134L57.9,13.891a83.129,83.129,0,0,0-20.937,8.737c-1.72,1.011-1.992,4.89.139,5.673a5.23,5.23,0,0,0,5.238-.516c1.639-1.086,2.072-4.877-.14-5.7a13.169,13.169,0,0,0-9.463-.055c-1.859.649-1.919,5.323.141,5.741l3.827.777-.141-5.761a7.253,7.253,0,0,0-3.875,3.146c-1.035,1.52-.634,4.828,1.518,5.085l7.087.846-.668-5.879A21.057,21.057,0,0,0,36.171,28.5C34.6,29.613,35,34.083,37.3,34.061l5.86-.056-.148-6-7.8.165c-2.773.058-2.378,5.563.147,6a102.174,102.174,0,0,0,11.2,1.3c2.6.157,2.551-5.836-.147-6a101.957,101.957,0,0,1-11.2-1.3l.147,6,7.806-.164c2.656-.056,2.527-6.024-.148-6l-5.86.057,1.131,5.564a12.055,12.055,0,0,1,3.532-1.88c2.213-.9,1.733-5.592-.668-5.878l-7.087-.846,1.518,5.086,2.17-1.583c1.835-.68,1.952-5.348-.141-5.762l-3.831-.757.141,5.742a10.046,10.046,0,0,1,7.392.061l-.14-5.7a2.679,2.679,0,0,1-3.179.489l.139,5.673A83.3,83.3,0,0,1,59.043,19.42c2.071-.561,1.693-5.824-.641-5.644-8.945.689-8.072,11.238-4.835,16.971l2.148-4.513a12.874,12.874,0,0,1-4.7-5.665L48.963,24.9a11,11,0,0,1,4.859,2.194c2.506,1.89,3.45-3.187,2.236-4.695l-7.682-9.542-2.24,4.705a69.294,69.294,0,0,1,8.95,10.335l2.245-4.716a29.38,29.38,0,0,1-7.474-8.052l-2.249,4.725,11.117,8.018c2.623,1.891,3.816-3.741,1.848-5.192a7.633,7.633,0,0,1-3.32-4.6l-2.319,3.727a31.925,31.925,0,0,1,7.735,6.541c2.316,2.685,3.738-1.769,2.991-3.7L63.02,17.84l-3,3.7a6,6,0,0,1,1.584,3.784l2.8-3.452a17.706,17.706,0,0,1-5.922-5.728l-2.269,4.767a15.316,15.316,0,0,1,3.913,6.119l2.128-4.487-3.9-2.3c-2.355-1.39-3.02,4.345-1.4,5.576,2.1,1.59,3.65,3.644,3.4,6.5-.275,3.149,3.248,5.634,3.919,1.534l.14-.85-1.354,2.176.773-.381-2.623-2.9.186-1.289-.344,5.63a3.093,3.093,0,0,1,3.823.061l.345-5.644L65,30.507l1.467,2.119-.2-.666c-.306-1.017-.8-2.144-2.008-2.216l-8.485-.51,1.168,5.743,1.354-1.324c1.331-1.3,1.417-5.778-1.168-5.747l-14.116.165.153,6.232a16.889,16.889,0,0,1,3.858-.167l-.154-6.276c-4.459.271-8.916.547-13.371.862l.155,6.334,18.387-3.562c2.626-.509,2.692-6.208-.152-6.19-5.576.034-11.151.059-16.726.126l.67,5.893A117.259,117.259,0,0,1,47.84,28.4c2.488-.464,2.534-5.832-.143-5.839l-12.27-.031.646,5.675,10.66-3.43c2.04-.657,1.715-5.734-.641-5.634q-8.97.383-17.941.741l.638,5.609,13.189-3.924c2.058-.612,1.7-5.717-.638-5.618l-16.512.7.639,5.628a69.1,69.1,0,0,1,15.391-3.239l-.64-5.638a62.1,62.1,0,0,0-10.71,4.441c-1.743.92-1.912,5.827.642,5.645a78.256,78.256,0,0,0,15.826-2.794c2.057-.581,1.687-5.943-.643-5.659L32.876,16.55l.645,5.671,15.944-3.9c1.921-.47,1.767-5.19-.137-5.595A105.356,105.356,0,0,0,35.8,10.734l.648,5.7,6.852-1.9c2.217-.615,1.626-5.528-.647-5.7A46.982,46.982,0,0,0,24.972,10.88c-2.061.636-1.653,6.147.648,5.707a34.6,34.6,0,0,1,10.456-.425l-.649-5.711a27.79,27.79,0,0,1-8.673,2.721l.65,5.716L40.4,13.3c1.889-.812,1.792-6.1-.65-5.721a50.891,50.891,0,0,1-11.356.5l1.1,5.42A12.394,12.394,0,0,1,35.977,9.5L34.818,3.884A22.745,22.745,0,0,0,29.053,7.9c-1.669,1.582-.491,7.021,2.062,5,4.542-3.59,9.264-6.319,14.263-1.875,2.483,2.206,4.325,4.634,7.334,6.194l.379-5.916a5.537,5.537,0,0,1-3.339.242l.676,5.955c6.133-1.559,13.5,2.007,15.207,8.322.539,2,2.876,3.253,3.721.646C72.925,15.462,63.825,3.179,51.906,8.62c-2.179.994-1.845,5.743.684,6.016,3.247.35,13.552,1.482,12.033,7.164l3.141-.7a8.273,8.273,0,0,1-1.377-3.794l-3.613,2.447c.213.6,2.021,4.447,1.868,4.795l1.626-1.493L65.757,23l1.693,1.407-.259-.494-.589,4,.285-.257-2.638-.979a31.611,31.611,0,0,1,2.666,10.593c.079,1.1.577,2.943,2.011,2.9,3.98-.107,6.52-3.49,6.8-7.329.35-4.844-2.839-8.51-6.729-10.892-2.82-1.727-3.155,3.1-2.235,4.694,2.346,4.061,3.259,8.662-2.335,9.7-3.573.665-7.075-.562-10.429-1.692l.586,5.3.856-1.039c1.137-1.382,1.412-5.188-1.091-5.364L46.408,33l.63,5.546q1.26-.351,2.521-.7c2.008-.554,1.631-5.82-.627-5.511-8.6,1.178-17.227,2.059-25.886,2.716l.141,5.761q14.638-1.7,29.361-2.041l-.14-5.715a112.887,112.887,0,0,1-26.236.649l.14,5.674c2.515-.1,5.027-.218,7.542-.343l-.137-5.559a30.151,30.151,0,0,1-11.9-1.708l.128,5.19c3.312-.833,3.976-5.271,2.692-8.007-2.214-4.718-9.991-4.618-14.316-5.393l.132,5.358,5.553-.476c1.747-.149,2-2.827,1.418-4.062-1.5-3.161.214-5.851,3.192-7.139l-1.888-4.6a19.561,19.561,0,0,0-1.3,3.212c-.469,1.543.311,5.475,2.63,3.8l2.481-1.389-1.574-5.189q-2.646,1.949-5.3,3.891c-1.649,1.21-.466,6.526,1.563,5.153a26.118,26.118,0,0,1,6.506-3.214l-1.553-5.12c-3.391,2.4-4.708,5.867-2.446,9.567L20,18.943a62.476,62.476,0,0,1-6.757,6.284c-1.479,1.185-.938,5.95,1.531,5.046s4.917-1.8,7.372-2.706c2.159-.8,1.518-5.966-1.091-5.286L15.647,23.69l1.078,5.223q3.088-1.324,6.181-2.638c2.064-.872,1.4-6.1-1.069-5.175a47.272,47.272,0,0,1-8.874,2.4l.6,5.291,15.109-5.167L27.6,18.429,6.281,29.211l2.11,3.938,1.43-3.034c.517-1.1.127-4.229-1.64-4.049-3.026.308-4.221,3.689-3.285,6.4,1.517,4.392,8.168,5.34,12.013,6.179l.358-5.584a4.061,4.061,0,0,1-3.836-.871l-.814,5.338.75,0-1.651-1.372.328.674,1.015-4.213a2.149,2.149,0,0,1-2.986-.317l.07,2.864,1.705.649.358-5.566.8,1.419-1.294,2.756L11.641,34l.266-4.437A19.245,19.245,0,0,1,5.718,33.63c-2.175.911-1.572,6.079,1.117,5.413l28.13-6.972c2.08-.516,1.636-6.013-.64-5.636L15.137,29.621l.649,5.709,9.572-4.5c2.2-1.032,1.481-6.729-1.163-5.632Q18.8,27.443,13.4,29.685c-2,.836-1.834,5.821.658,5.786a21.492,21.492,0,0,1,4.934.3,7.653,7.653,0,0,1-4.038,1.381,12.8,12.8,0,0,1-6.573-1.466,14.484,14.484,0,0,1-3.018-1.948Q4.6,29.754,8.051,28.284c1.387-.929,3.059-1.524,4.36-2.578,1.895-1.536,2.318-2.74,2.452-5.194.189-3.452.064-5.133,3.314-6.894,2.868-1.554,6.339-1.268,9.39-.58l.276-4.289a4.774,4.774,0,0,0-2.879.322c-1.517.446-1.077,3.408.1,3.96l2.359,1.108-.092-3.763c-3.23,1.121-4.154,3.788-3.756,6.966.24,1.909,2.322,1.206,2.2-.509Z"/><path class="a" d="M63.493,35.539A11.068,11.068,0,0,1,59,33.664l-.643,4.214a18.25,18.25,0,0,1,4.06-.013c1.961.2,2.09-4.476.308-4.813a12.065,12.065,0,0,1-4.854-1.866l.115,4.689c.418-.355,4.045-3.7,4.65-3.111l1.715-4.819A13.691,13.691,0,0,0,59.2,25.838c-2.783-.526-2.788,4.307-.834,5.356a8.728,8.728,0,0,0,6.163,1.031c2.045-.339,2.458-4.178.8-5.249-2.335-1.51-6.439-4.293-8.843-1.626a4.575,4.575,0,0,0,.625,6.241l.816-5.35a78.639,78.639,0,0,0-14.865-.34c-2.355.183-4.812.859-7.161.867-3.193.011-4.9-1.691-6.939-3.841l-.848,5.555c2.432-.027,4.851.015,7.28.126,2.593.118,2.5-5.734-.145-5.921Q29.764,22.3,24.28,21.92c-1.988-.134-2.07,3.31-1.558,4.465,2.38,5.371,7.229,4.8,11.567,7.7l.3-4.821a20.8,20.8,0,0,1-6.324.861c-2.275,0-2.344,4.932-.35,5.458A13.452,13.452,0,0,0,33.759,36c1.29-.18,1.894-1.716,1.8-2.889-.529-6.434,7.032-7.395,8.388-12.7.88-3.447-1.226-4.29-2.265-6.973l-.213,3.541c.844-1.758,2.3-1.275,3.589-.944,2.671.686,2.578-3.52,1.751-4.941-1.65-2.837.033-6.268-2.353-9.117L42.7,6.916A8.544,8.544,0,0,1,48.55,12.5L50.1,8.059c-5.636.778-11.579,2.231-17.272,2.262-2.352.013-4.551-.534-6.918-.324-1.486.132-4.183-.549-5.488.092C13.484,13.5,24.68,24.858,27.4,27.077c2.446,1.995,3.471-3.486,1.787-5.024a13.7,13.7,0,0,0-9.467-3.793c-2.381-.06-2.406,5.1-.364,5.674a57.429,57.429,0,0,0,15.03,2.046c3.884.041,10.083.939,13.472-1.4,4.023-2.774,5.235-12.549-.908-13.165-2.465-.248-2.452,5.5.141,5.764q.15,2.034-2.281,2.655-1.581.15-3.167.2c-2.155.113-4.315.178-6.474.177a54.868,54.868,0,0,1-14.943-1.865l-.364,5.673A10.815,10.815,0,0,1,27.4,27.077l1.787-5.024a27.582,27.582,0,0,1-3.86-3.679c-.629-.757-2.339-4.04-2.915-4.391q-.871,2.065.741,1.928a5.229,5.229,0,0,0,2.161-.007,28.786,28.786,0,0,1,4.493-.083c6.774.581,13.7-1,20.432-1.918,1.992-.272,2.064-2.98,1.548-4.437a12.786,12.786,0,0,0-8.2-8.224C41.118.415,40.758,4.9,41.835,6.183c1.716,2.049.848,6.53,2.353,9.117l1.751-4.941C43,9.6,42.779,8.707,40.4,10.953c-1.788,1.685-2.884,3.412-1.769,5.972.36.827,1.369,2,1.3,2.176-.445,1.14-4.025,3.129-5.089,4.449a13.082,13.082,0,0,0-3.016,9.655l1.8-2.889a9.409,9.409,0,0,1-4.874-.1l-.35,5.457a25.266,25.266,0,0,0,7.231-1.353c1.683-.562,1.506-3.9.295-4.82-2.733-2.074-8.508-2.878-9.939-6.166L24.425,27.8q5.482.418,10.966.808l-.145-5.921c-2.429-.116-4.849-.162-7.281-.141-2.608.024-1.981,4.359-.848,5.555,3.943,4.161,6.826,4.83,12.385,4.083a78.89,78.89,0,0,1,18.562-.226c2.388.242,2.01-4.364.817-5.35l-.506-.419.989,2.443a8.48,8.48,0,0,0,4.223,3.233l.8-5.249a7.393,7.393,0,0,1-5.192-.778l-.834,5.356a8.768,8.768,0,0,1,4.272,1.57c2.683,1.671,3.231-3.355,1.715-4.819l-1.028-.994a1.349,1.349,0,0,0-1.83.045,49.351,49.351,0,0,0-5.422,4.234,3.337,3.337,0,0,0,.548,4.953,14.554,14.554,0,0,0,5.8,1.682l-.121-4.889a18.313,18.313,0,0,0-4.05.4c-1.786.368-1.973,3.766-.284,4.432a15.879,15.879,0,0,0,5.314,1.145c1.421.08,1.453-3.095.219-3.413Z"/><path class="b" d="M21.358,43.254a2.936,2.936,0,0,0,1.084,1.106l.17-.681q-.79-.345-1.612-.617c-.221-.078-.332.171-.372.339l-.085.356a.6.6,0,0,0,.159.543c1.1.956,2.493-.732,1.695-1.839-.047-.065-.162-.175-.257-.153l-.312.07c-.459.1-.485,1.087.027,1.1.437.01.428,0,.744-.3.278-.265.23-.979-.211-1.038a1.646,1.646,0,0,0-1.442.419c-.311.241-.185,1.26.319,1.052,1.391-.576,1.647.188,2.749,1.324q1.95,2.007,3.882,4.028l.391-1.1c-2.273-1.961-4.645-3.793-7.092-5.531-.544-.387-.751.748-.376,1.055q2.968,2.438,5.778,5.049l.279-1.112a9.636,9.636,0,0,1-4.319-2.59l-.38,1.067L24.3,47.6c.5.421.623-.579.533-.856A5.5,5.5,0,0,0,23.378,44.4l-.384,1.079q1.825,1.8,3.655,3.6l.383-1.079a26.966,26.966,0,0,1-3.4-4l-.466.979q2.9,3.165,5.635,6.478l.468-.984L24.013,44.69c-.415-.456-.75.657-.471.99q3.685,4.408,7.368,8.822c.513.616.837-.488.569-.914l-3.048-4.826-.582.936c1.055,1.192,3.186,2.889,3.789,4.36l.238-.986.155.051c-.5-.486-.81.786-.414,1.164l.075.072a.322.322,0,0,0,.339.059l.109-.065a.811.811,0,0,0,.238-.987c-.708-1.708-2.809-3.33-4.036-4.7-.461-.517-.7.71-.493,1.035l3.061,4.8.569-.914q-3.7-4.4-7.381-8.8l-.471.99,5.258,5.766c.414.454.742-.654.469-.985q-2.817-3.407-5.806-6.661c-.434-.474-.685.664-.466.979a28.251,28.251,0,0,0,3.567,4.2c.468.454.74-.727.383-1.079q-1.825-1.8-3.654-3.595c-.466-.457-.738.726-.384,1.079a3.6,3.6,0,0,1,1.157,1.908l.532-.855-2.126-1.789c-.522-.438-.706.736-.38,1.067A10,10,0,0,0,26.694,48.5c.579.168.562-.851.278-1.113q-2.822-2.6-5.777-5.05l-.376,1.055c2.442,1.758,4.787,3.623,7.077,5.572.535.455.721-.755.391-1.1q-2.986-3.083-6-6.131a.308.308,0,0,0-.473.105l-.774.658.319,1.051,1.061-.292-.21-1.037-.377.154.123,1.077c-.685.174-.137.783.55.941.363.084.382-.588.111-.717l-1.081-.788c-.164-.172-.259.246-.173.363Z"/><path class="b" d="M22.353,41.487a6.854,6.854,0,0,0,.3,1.415c.2.383.56.131.533-.235a2.58,2.58,0,0,0-.242-.958l-.461.741.151.157-.191-.473.012.21.626-.416c-.19-.264-.3-.573-.5-.833l-.057.952h0c.424-.257.271-1.448-.241-1.168a5.37,5.37,0,0,0-1.8,2.28l.407-.176-.664-.32c-.5-.24-.552.708-.456.961.652,1.721,3.286,2.119,4.519,3.305l.407-1.142a22.254,22.254,0,0,1-2.123-1.5c-.587-.469-.744.8-.409,1.15a7.093,7.093,0,0,0,1.667,1.22c.57.333.576-.961.308-1.228l-.638-.637c-.5-.495-.814.788-.418,1.175l.641.626.308-1.229a6.006,6.006,0,0,1-1.459-1.077l-.409,1.15a21.9,21.9,0,0,0,2.125,1.491c.637.393.77-.8.407-1.142a7.9,7.9,0,0,0-1.97-1.292c-.676-.34-1.947-.775-2.24-1.541l-.455.961.665.317a.338.338,0,0,0,.407-.176,5.372,5.372,0,0,1,1.42-2.009l-.335-1.105a.628.628,0,0,0-.091.07.787.787,0,0,0-.057.951c.2.242.32.541.53.778.4.45.662-.2.608-.567a.81.81,0,0,0-.368-.654c-.462-.345-.607.575-.4.848l.211.429.472-.44a8.212,8.212,0,0,1-.65-.953c-.044-.075-.1.035-.088.082Z"/><path class="a" d="M20.59,40.225c.627.614,1.278.261,2.13.127,1.742-.273,1.543-4.169-.095-3.891-1.375.234-3.177.263-3.854,1.676-.43.9-.661,4.115,1.15,3.851,4.49-.655,8.472-1.491,13.06-1.078A85.537,85.537,0,0,0,46.722,40.9c2.48-.166,2.273-5.758-.136-5.53a125.664,125.664,0,0,1-13.718.938c-4.528-.064-8.612.819-13.059,1.141l1.509,2.839a1.181,1.181,0,0,0,1.74-.011l-.771-3.735-1.374.588a1.56,1.56,0,0,0-.776,1.248,2.117,2.117,0,0,0,.453,1.85Z"/><path class="b" d="M43.259,55.874l.08-.082.244-1.639-.108.208,1.422-.316a6.088,6.088,0,0,1-1-.858l.6,2.06.025-.324-.815,1.31.246-.165-.943-.164c-.574-.426-.118.88-.091,1.185l.2,2.175c.082.9,1.328,2.872,2.111,1.261a8.325,8.325,0,0,0,.571-1.395l-2.273-.873c.042,1.5-.06,3-.115,4.505-.057,1.543,1.642,2.688,2.369.91a15.98,15.98,0,0,0,.951-5.412c.115-2.355-2.355-2.231-2.491.062a15.349,15.349,0,0,1-.743,4.338,17.648,17.648,0,0,0-1.453,2.619l1.067.887-.036-.111c-.7-2.166-2.36.1-2.158,1.462l.018.123a1.642,1.642,0,0,0,.876,1.266l.133.051a.907.907,0,0,0,.937-.21c2.94-3.024,3.679-6.346,3.85-10.487l-2.491.062a8.514,8.514,0,0,1-.681,3.468L45.9,63.21a40.5,40.5,0,0,0,.045-5.013c-.049-1.324-1.681-2.756-2.273-.873l-.227.62L45.56,59.2c-.133-1.75.333-5.394-1.392-6.534a.927.927,0,0,0-1.23.03c-1.763,1.333-.538,3.524.845,4.475,1.054.724,1.823-.638,1.736-1.594l-.026-.288c-.052-.563-.227-1.377-.849-1.6-.546-.194-.739-.061-1.265.216-.686.36-.6,1.478-.12,1.963Z"/><path class="a" d="M66.851,40.537a1.608,1.608,0,0,0,1.909.26,2.174,2.174,0,0,0,.874-.959,3.062,3.062,0,0,0,.179-.433l.12-.48q.1-.439-.149.413l-.534.5-.127.03L68.4,36.3a2.338,2.338,0,0,1-.469.419,2.483,2.483,0,0,0-.609,2.119,2.1,2.1,0,0,0,1.035,1.729,1.124,1.124,0,0,0,.944.014,2.367,2.367,0,0,1,.383-.176l-.854-4.137c.467-.129-.25.057-.333.1a1.742,1.742,0,0,0-.5.36,3.168,3.168,0,0,0-.488,3.316c.428.811.966,1.381,1.919,1.161a2.272,2.272,0,0,0,1.5-1.619,3.435,3.435,0,0,0-.323-2.95c-.441-.572-1.365-1.029-1.951-.334-.066.079-.139.14-.209.214-.217.231.329-.158.013-.014l.423-.1-.066.007.811.311-.035-.034.65,3.288-.134.326q.138-.273.262-.554c.046-.117.087-.235.13-.354.4-1.095-.019-3.659-1.675-3.126a1.361,1.361,0,0,0-.357.2c-.4.273.055-.059.15-.056l1.068,3.578a5.51,5.51,0,0,0,.5-1.1,2.772,2.772,0,0,0-.151-2.133c-.246-.457-.783-.934-1.344-.656a2.137,2.137,0,0,0-1,.937.757.757,0,0,1,.471-.374q.388.068-.257-.047c-.157-.008-.305.021-.461.015-.75-.027-1.207.958-1.284,1.565a2.641,2.641,0,0,0,.687,2.342Z"/><path class="b" d="M32,50.686c.853,1.449,1.8,2.815,2.763,4.194l.488-1.025a20.617,20.617,0,0,1-2.817-2.819,10.759,10.759,0,0,0-3.246-2.124c-.588-.276-.717,1.073-.207,1.328A11.129,11.129,0,0,1,32.27,52.5a15.772,15.772,0,0,0,2.578,2.477c.626.419.718-.78.4-1.123a32.934,32.934,0,0,1-2.9-3.733c-.278-.4-.508.3-.351.564Z"/><path class="b" d="M33.824,56.159A9.054,9.054,0,0,0,33,57.174l1.284-1.2-.191.062,3.54,2.075c-.386-.892-.373-1.564-.215.435l-3.484,5.6a21.675,21.675,0,0,0,5.2-.442l.578-.055L37.75,60.723c-.15-.591-.088-1.071-.016-.164.071.891.215,1.8.226,2.7l1.03-4.193-.087.17,1.668-1.555c.7-.21-1.2-.258-1.418-.27A8.9,8.9,0,0,0,37.3,57.5c-1.76.257-3.057-.012-4.5,1.3-2.642,2.41-2.109,7.352.238,9.711,1.4,1.41,3.077,1.341,4.857.9a12.9,12.9,0,0,1,3.214-.137c4.827-.056,4.691-5.741,4.284-9.225-.328-2.8-.908-6.517-3.941-7.685-1.36-.524-2.963-.05-4.335.163-1.484.23-2.959.439-4.416.816-1.719.444-2.392,3.264-2.48,4.647a6.954,6.954,0,0,0,1.863,5.451,5.665,5.665,0,0,0,2.227,1.666c2.133.746,3.423-1.656,3.718-3.378A6.363,6.363,0,0,0,36.421,56.1a1.861,1.861,0,0,0-2.6.064Z"/><path class="b" d="M24.639,48.621c2.7,3.58,6.639,5.854,9.414,9.388l.816-3.322c-1.751.38-5.113-1.818-5.807-3.515l-1.919,2.37c2.283,2.646,6.371,5.948,7.742,9.134l.133-2.222c-2.13,3.141-3.541,3.064-3.187,6.811l1.661-1.526-.369-.287c-.831-.648-1.517.3-1.637,1.07l-.1.65a2.151,2.151,0,0,0,.57,1.941c3.03,2.113,11.791,2.693,12.867-1.759a6.2,6.2,0,0,0-.037-1.692c-.145-2.89-.192-3.782,1.112-6.452A19.347,19.347,0,0,0,47,56.778c1.136-3.434,1.332-6.7,3.931-9.457,1.222-1.295,2.5-2.8,3.733-4.057.624-.639.739-2.975-.59-2.9l-1.72.094c-1.393.077-1.306,3.2.076,3.128l1.721-.094-.349-3.066c-5.511,3.051-6.985,7.413-8.837,13.07-.957,2.922-2.906,5.08-3,8.2-.063,2.1,1.118,3.512-1.289,4.9-1.592.919-6.351.372-7.651-.5l.57,1.941.092-.653-1.637,1.071.372.279c.987.741,1.757-.648,1.662-1.525-.2-1.851-.266-1.015,1.035-2.455.835-.924,1.877-1.479,1.963-2.814.078-1.2-.611-1.977-1.259-2.894-2.042-2.889-4.691-5.557-6.972-8.258-1.46-1.73-2.418,1.136-1.918,2.37,1,2.454,5.244,6,8.027,5.394,1.329-.288,1.58-2.349.816-3.322-2.7-3.436-6.342-7.006-10.353-8.834-1.109-.5-1.188,1.692-.788,2.224Z"/><path class="b" d="M22.323,41.274a.351.351,0,0,0-.289.013.551.551,0,0,0-.224.559.582.582,0,0,0,.1.288.292.292,0,0,0,.238.142l.333-.027c.291-.024.365-.4.339-.633s-.18-.549-.462-.447l-.323.118.343.835c.012-.018.023-.036.036-.054l-.062.077c.02-.022.042-.04.062-.063a.547.547,0,0,0-.09-.808Z"/><path class="b" d="M29.614,52.006l-1.166-2.567L27.7,51.6l.414-.057-1.022-1.925c.245,3.672,4.893,5.079,7.277,7.274l1-4c-1.777-.616-3.454-1.284-5.162-2.072-1.422-.656-1.9,1.845-1.682,2.7a38.665,38.665,0,0,0,2.6,6.058c.233.514.643,1.081,1.278,1.063a5.143,5.143,0,0,0,4.277-2.508c.641-1.249.3-2.924.29-4.218,0-1.081-.047-6.708,1.16-7.582l-1.5.037c.3.209,1.223,7.34,1.495,8.184l1.657-3.495a18.8,18.8,0,0,0-2.5-.57l1.382,3.413c.356-1.4.6-2.465.844-3.887l-2.414,1.041c1.681,2.9,3.344,6.184,6.148,8.138.882.615,1.656.038,2.012-.861,1.815-4.58,5.412-9.778,8.562-13.611.927-1.129,1.1-4.045-.863-4.245-4.029-.411-5.645,5.858-7,8.606a27.548,27.548,0,0,0-2.437,5.947c-.608,2.668.244,7.652-3.675,7.747-1.977.048-1.88,4.485.11,4.463,3.371-.035,5.047-1.5,5.756-4.815.594-2.777.433-5.439,1.473-8.145.628-1.636,3.645-9.549,5.881-9.227L52.2,40.815a64.619,64.619,0,0,0-9.569,15.3l2.012-.862c-2.5-1.742-4.042-4.806-5.565-7.387-.871-1.476-2.233-.071-2.414,1.04l-.654,2.752c-.288.9-.277,3.015.981,3.341a16.078,16.078,0,0,1,2.085.615c1.9.632,2.018-2.418,1.658-3.494-.907-2.714-.081-7.98-2.693-9.7a1.132,1.132,0,0,0-1.5.037c-2.8,2.129-1.207,13.646-4.235,13.776L33.578,57.3a43.019,43.019,0,0,1-2.34-4.985l-1.681,2.7a49.009,49.009,0,0,0,5.16,2.089c2.051.7,2.007-3.088,1-3.995a31.869,31.869,0,0,0-3.725-2.772c-.685-.463-2.523-2.441-2.306-1.318-.164-.85-.746-1.6-1.666-1.371a1.727,1.727,0,0,0-1.278.793,2.356,2.356,0,0,0-.165,2.741c.806,1.4.981.7,2.5,1.944.578.473.815-.762.532-1.118Z"/><path d="M3.883,25.921c2.4-3.014,6.765-1.732,7.389-5.955.633-4.285.71-7.976,5.442-9.94a17.186,17.186,0,0,1,10.315-.389c1.22.288,1.415-2.173.387-2.485-5.389-1.633-13.069-1.016-16.208,4.391-1.492,2.569-.748,5.215-1.524,7.826-.747,2.511-4.831,3.358-6.394,5.7-.282.422.12,1.45.593.856Z"/><path d="M28.147,9.231c4.284-5.637,18.87-10.413,21.711-.376.18.636.6,1.418,1.39,1.144,7.333-2.532,18.432.536,17.117,10.3-.221,1.639,1.613,2.838,2,.783a12.667,12.667,0,0,0-4.21-12.049C61.708,5.2,55.943,5.43,50.58,6.763l1.39,1.144C48.957-2.879,30.318-2.42,27.047,8c-.21.668.344,2.225,1.1,1.231Z"/><path d="M69.3,22.152c5.992,5.516,8.358,15.086-.935,18.892-3.3,1.349-6.983,1.014-10.316.03-2.371-.7-4.438-2.409-6.8-3.013a6,6,0,0,0-4.09.42,23.774,23.774,0,0,1-7.658,2A53.975,53.975,0,0,1,22.236,39.16c-1.036-.271-1.18,1.8-.329,2.11A41.006,41.006,0,0,0,43.7,42.4c2.319-.582,4.637-2.6,7.182-1.976,1.158.283,2.576,1.449,3.66,1.95a18.346,18.346,0,0,0,11.52,1.664C77.831,41.5,79.717,26.953,69.813,20.7c-.8-.5-.99,1.015-.516,1.45Z"/><path d="M23.055,39.846c-4.94,4.248-12.864,3.029-17.583-.963-6.816-5.766-2.669-13.863,4.549-16.3.742-.251.634-2.107-.234-2.067-3.379.154-6.843,3.518-8.493,6.272-1.946,3.246-1.558,7.41.239,10.641,4.206,7.566,16.162,10.105,21.8,2.93.136-.174-.013-.733-.274-.509Z"/><path d="M18.534,44.014a32.619,32.619,0,0,1,9.044,11.045c1.926,4.053,2.076,7.91,2.69,12.243.549,3.877,3.93,4.47,7.716,4.412,4-.062,7.354-1.246,8.573-5.135,1.267-4.044,1.061-8.3,2.537-12.359a28.214,28.214,0,0,1,7.94-11.907c.386-.331.239-1.757-.432-1.425-4.99,2.47-7.824,8.722-9.364,13.823-.984,3.259-.91,6.716-1.779,9.96-.982,3.661-3.817,4.776-7.53,4.826-1.354.017-3.962-.007-5.008-.847-1.643-1.319-1.155-2.459-1.308-4.314a28.818,28.818,0,0,0-1.726-7.665,26.791,26.791,0,0,0-11-13.637c-.534-.327-.7.694-.349.98Z"/><path d="M51.379,39.488c-2,.866-3.364,2.834-4.587,4.576-.671.954-1.3,1.932-1.95,2.9-.412.621-1.7,3.179-2.427,3.368l.919.16c-.654-.711-1.019-2.615-1.238-3.446a24.655,24.655,0,0,1-.659-3.913c-.217-2.259-2.64-2.281-2.469.061.239,3.262.892,7.979,3.245,10.449a.889.889,0,0,0,.919.16c1.763-.5,3.062-4.1,3.912-5.563,1.506-2.586,3.392-4.971,4.812-7.591.169-.311.14-1.431-.477-1.164Z"/><path d="M35.62,42.66a32.362,32.362,0,0,0-1.886,8.391l1.2-.785a43.035,43.035,0,0,1-6.315-4.73c-1.951-1.763-3.437-3.878-5.263-5.73-.764-.775-1.161,1.01-.932,1.5,2.188,4.674,7.46,8.527,11.727,11.164.616.381,1.126-.136,1.2-.786.329-2.916.74-5.843.921-8.773.026-.426-.458-.737-.652-.25Z"/><path d="M19.1,33.561c-.486-2.064-.647-4.127.88-5.826a6.35,6.35,0,0,1,4.317-1.92c1.281-.086,1.2-2.947-.071-2.882-4.977.253-9.332,6.816-5.673,11.137.34.4.625-.177.547-.509Z"/><path d="M32.4,20.01A6.416,6.416,0,0,1,39.58,16.5c1.208.29,1.405-2.221.382-2.451a6.9,6.9,0,0,0-8.3,5.514c-.09.5.429,1.094.728.443Z"/><path d="M41.805,30.24c1.163,3.963,6.969,5.113,9.238,1.462.439-.707.277-3.253-1.087-2.648-1.2.53-2.326,1.225-3.689,1.089-1.41-.14-2.167-1.116-3.33-1.723-.932-.485-1.292,1.274-1.132,1.82Z"/><path d="M59.225,18.872a4.12,4.12,0,0,1,1.18,4.678c-.3.849.48,2.836,1.4,1.564,1.824-2.526.78-6.741-2.15-7.956-.855-.354-.853,1.337-.429,1.714Z"/><path d="M11.973,43.612c.205.068.414.236.622.322a3.683,3.683,0,0,0,.685.191c.493.1.984.218,1.482.3a8.61,8.61,0,0,0,3.444-.229A8.376,8.376,0,0,0,21.4,42.37c.216-.177.46-.334.664-.522.174-.16.265-.377.474-.474.522-.241.877-.013,1.264.311.773.645,1.25-1.189.593-1.668a2,2,0,0,0-1.31-.562,6.08,6.08,0,0,1-.747.119c-.239-.011-.41-.189-.664-.186-.566.006-1.167.739-1.573,1.076a9.8,9.8,0,0,1-1.589,1.1,8.659,8.659,0,0,1-3.531.92c-.535.044-1.07.123-1.6.185a2.89,2.89,0,0,0-.734.147c-.251.1-.443.274-.676.381-.134.062-.138.365.01.415Z"/></svg>