<svg xmlns="http://www.w3.org/2000/svg" width="22.292" height="21.058" viewBox="0 0 22.292 21.058"><defs><style>.a{fill:#a0d177;}.b{fill:#d8ebc8;}</style></defs><title>brussel</title><path class="a" d="M6.26,14.733a7.715,7.715,0,0,0,4.466-1.123,9.259,9.259,0,0,0,1.7-1.375l.908-1.175q.542-.8-.141.276L10.63,12.829c3.344-1.3,5.974-4.1,4.766-8L8.254,11.969A10.293,10.293,0,0,1,10.8,13.463a6.618,6.618,0,0,0,6.609,1.286L10.854,6.22c-.522,1.068-.98,2.164-1.4,3.274-.808,2.119.391,4.84,2.08,6.1a5.919,5.919,0,0,0,6.449.454,11.307,11.307,0,0,0,1.808-1.325l-8.211-8.21c-.651.812-1.219,1.639-1.786,2.5q.627-.639-.087.076.688-.589-.174-.108L14,8.4a7.131,7.131,0,0,1-1.631-.332c.013.135,1.167.883.226-.078C10.989,6.344,9.162,6,6.962,5.749l2.93.792L9.468,6.31V16.337l.341-.259c2.493-1.894,3.8-5.006,2.083-7.944C10.456,5.679,6.46,4.143,3.948,6.051l-.341.259C1.92,7.592.732,9.084.732,11.324a5.8,5.8,0,0,0,2.875,5.013,10,10,0,0,0,1.811.816q3.561.68-.876-.791A6.886,6.886,0,0,0,6.424,17.98a11.332,11.332,0,0,0,4.221,1.573A7.874,7.874,0,0,0,17.5,17.629a8.873,8.873,0,0,0,1.129-1.123c-.254.3,2.055-2.895,1.162-1.78,1.958-2.445,2.389-5.822,0-8.21-2.409-2.41-5.768-1.982-8.211,0l.542-.492,8.529,6.557q-.27.47.232-.5a5.888,5.888,0,0,0-.453-6.448c-1.317-1.653-3.955-2.949-6.1-2.081l-.519.21h3.087l1.027.613q-.711-.562-1.438-1.1a14.441,14.441,0,0,0-1.369-.9,21.846,21.846,0,0,0-3.771-1.6C7.172-.615,2.927,3.811,4.2,7.914l.092.3.585-4.474-.184.3L6.775,1.953q1.847-.774-.618.264Q5.4,2.769,4.685,3.37q-.588.738-1.147,1.5A4.42,4.42,0,0,1,6.26,3.121C3.224,2.889.321,5.958.454,8.927A5.949,5.949,0,0,0,6.26,14.733Z" transform="translate(0 -0.029)"/><path class="a" d="M2.287,7.658v.024a4.37,4.37,0,0,0,.5,2.237,4.349,4.349,0,0,0,1.2,1.868,4.345,4.345,0,0,0,1.869,1.2,4.378,4.378,0,0,0,2.237.5l1.543-.208A5.784,5.784,0,0,0,12.2,11.787l.908-1.175a5.776,5.776,0,0,0,.793-2.93V7.658a4.378,4.378,0,0,0-.5-2.237,4.354,4.354,0,0,0-1.2-1.869,4.349,4.349,0,0,0-1.868-1.2,4.37,4.37,0,0,0-2.237-.5l-1.544.207A5.813,5.813,0,0,0,3.987,3.552L3.079,4.727a5.781,5.781,0,0,0-.792,2.931Z" transform="translate(0 -0.029)"/><path class="a" d="M3.346,9.694c3.86,0,3.867-6,0-6s-3.867,6,0,6Z" transform="translate(0 -0.029)"/><path class="a" d="M14.754,7.027c3.861,0,3.867-6,0-6s-3.867,6,0,6Z" transform="translate(0 -0.029)"/><path class="a" d="M5.152,18.11a10.044,10.044,0,0,0,3.891,1.613,14.886,14.886,0,0,0,4.772.482c1.607-.217,2.483-2.279,2.1-3.691-.477-1.734-2.079-2.313-3.691-2.095l-.41.055h1.595c-1.773-.28-3.724-.507-5.225-1.545a3.029,3.029,0,0,0-4.1,1.076,3.062,3.062,0,0,0,1.077,4.1Z" transform="translate(0 -0.029)"/><path class="b" d="M9.842,19.722,7.707,14c-1.569-1.234-3.191-1.109-3.852.436a4.161,4.161,0,0,0-.281,1.754A6.657,6.657,0,0,0,7.923,19.64Z" transform="translate(0 -0.029)"/><path class="b" d="M18.8,16.343c-1.235,2.118-3.986,3.2-6.63,3.746" transform="translate(0 -0.029)"/><path class="b" d="M9.37,17.991l.43.571a1.163,1.163,0,0,1,.23.694v.02a1.156,1.156,0,0,0,1.156,1.156h2.606a1.522,1.522,0,0,0,.733-.175c.744-.406.474-1.074.753-1.616.238-.464.693-.582,1.151-.746a14.612,14.612,0,0,0,1.562-.625,11.073,11.073,0,0,0,1.372-.813c.757-3.083-1.265-6.288-2.965-3.375-1.235,2.118-1.648,3.584-4.292,4.133.032.058-2.769.72-2.736.776" transform="translate(0 -0.029)"/><path d="M.743,4.433a3.032,3.032,0,0,1,.845.03c.422.059.611.405.859.71a7.54,7.54,0,0,0,.855.948,7.57,7.57,0,0,0,.908.654,3.63,3.63,0,0,1,1.5,1.4,7.665,7.665,0,0,1,.372,1.272l.367,1.441c.052.205.206.474.459.377s.29-.481.238-.691l-.4-1.625A7.7,7.7,0,0,0,6.3,7.482a4.421,4.421,0,0,0-1.73-1.725,8.7,8.7,0,0,1-.982-.7c-.373-.325-.641-.747-1-1.085A1.261,1.261,0,0,0,1.567,3.6a1.5,1.5,0,0,0-.885.535c-.057.061-.078.319.061.3Z" transform="translate(0 -0.029)"/><path d="M4.391,6.441a4.909,4.909,0,0,1,.884-.609,1.323,1.323,0,0,1,1.15.021,10.967,10.967,0,0,0,1.087.466,3.269,3.269,0,0,0,1.242.08c.849-.1,1.644-.43,2.482-.575.724-.126,1.689-.023,1.714.892.007.248.228.517.434.258.539-.676-.039-1.723-.7-2.066-.975-.505-2.14.012-3.1.279a4.314,4.314,0,0,1-1.7.2A13.094,13.094,0,0,1,6.37,4.835c-1.041-.271-1.67.587-2.093,1.394-.037.071,0,.312.114.212Z" transform="translate(0 -0.029)"/><path d="M5.461,2.494c.224-.126.445-.01.658.071.137.052.281.076.417.133A.8.8,0,0,1,7,3.116a6.568,6.568,0,0,1,.063.711,1.031,1.031,0,0,0,.476.716c.512.285,1.133.037,1.675.181.52.138.784.648,1.024,1.086A.294.294,0,0,0,10.75,5.8a.781.781,0,0,0-.02-.786,2.771,2.771,0,0,0-1.165-1.3,2.151,2.151,0,0,0-.917-.144c-.172,0-.345.01-.517,0-.1-.005-.308,0-.386-.068S7.686,3.146,7.663,3a1.153,1.153,0,0,0-.405-.783,1.2,1.2,0,0,0-.711-.22.912.912,0,0,0-.483.122c-.192.116-.369.317-.611.306-.041,0-.024.092.008.074Z" transform="translate(0 -0.029)"/><path d="M2.112,4.041c.169-.015.269.107.437.119a2.279,2.279,0,0,0,1.025-.371,14.789,14.789,0,0,0,3.1-1.835A3.76,3.76,0,0,1,10.476.938c1.217.482,2.3,1.091,3.638.674.263-.082.217-.725-.082-.718a6.4,6.4,0,0,1-2.261-.21,12.477,12.477,0,0,0-1.68-.607,4.253,4.253,0,0,0-3.266,1.07A10.679,10.679,0,0,1,5.291,2.292c-.552.287-1.136.516-1.711.752a3.665,3.665,0,0,0-1.136.57c-.128.119-.162.343-.336.4-.01,0-.008.03,0,.029Z" transform="translate(0 -0.029)"/><path d="M11.8,3.187c.15-.052.327-.082.471-.148a2.465,2.465,0,0,0,.4-.269c.29-.211.568-.427.838-.661a3.39,3.39,0,0,1,1.865-.922A1.5,1.5,0,0,1,16.947,2.3c.219.585.306,1.163.91,1.473.315.162.34-.526.169-.673a2.907,2.907,0,0,1-.543-.772,5.215,5.215,0,0,0-.536-.813A2.2,2.2,0,0,0,15.364.774a3.332,3.332,0,0,0-1.882.554,5.594,5.594,0,0,0-.9.7c-.133.124-.273.242-.4.369-.169.162-.293.362-.459.529-.066.066-.056.314.081.265Z" transform="translate(0 -0.029)"/><path d="M21.155,6.473c.807,2.514-.066,5.633-1.354,7.845a13.288,13.288,0,0,1-2.45,3.033c-.64.6-1.364,1.057-2.047,1.592a4.238,4.238,0,0,1-2.144,1.008c-2,.26-3.915-.479-5.851-.822-.207-.037-.161.392-.029.461a13.129,13.129,0,0,0,5.369,1.492,4.449,4.449,0,0,0,2.475-.553,19.976,19.976,0,0,0,2.755-1.9,13.026,13.026,0,0,0,3.709-5.408c.8-2.178,1.165-4.954-.271-6.949-.117-.162-.192.1-.162.2Z" transform="translate(0 -0.029)"/><path d="M13.193,20.336c-4.181.078-8.147-2.658-10.7-5.8A8.219,8.219,0,0,1,.82,8.906a24.268,24.268,0,0,0,.1-2.89C.892,5.658.7,5.27.892,4.96c.206-.34.686-.361.973-.62.176-.159.155-.663-.138-.68A1.553,1.553,0,0,0,.169,4.7,3.335,3.335,0,0,0,.218,6.033,10.465,10.465,0,0,1,.109,7.8a10.475,10.475,0,0,0,1.059,6.6,14.634,14.634,0,0,0,4.99,4.8A9.454,9.454,0,0,0,13.2,20.482c.061-.013.064-.148,0-.146Z" transform="translate(0 -0.029)"/><path d="M13.051,7.158c.116,0,.111-.264-.007-.264s-.111.264.007.264Z" transform="translate(0 -0.029)"/><path d="M21.575,7.788c.513-.618-.041-2.122-.355-2.731A1.767,1.767,0,0,0,20.2,4.04c-.579-.176-1.191.186-1.722.05-.347-.088-.554-.564-.914-.723a1.645,1.645,0,0,0-1.409.059,2.423,2.423,0,0,0-.967.927,2.607,2.607,0,0,1-.479.784,2.884,2.884,0,0,1-.78.344,2.473,2.473,0,0,0-1.122.755c-.416.519-.577.9-1.222,1.176a4.865,4.865,0,0,0-1.224.6c-.464.378-.478,1.028-.879,1.384-.327.292-.841.319-1.194.593a1.516,1.516,0,0,0-.548,1.122,16.676,16.676,0,0,0,.192,3.87,8.508,8.508,0,0,0,1.359,3.762A6.96,6.96,0,0,0,12.436,21c.475.191.6-.9.163-1.049a5.576,5.576,0,0,1-3.157-2.327,8.8,8.8,0,0,1-1-4.178c-.015-.374-.019-.749-.02-1.123,0-.295-.106-.952.087-1.2.256-.327.943-.3,1.287-.493.439-.246.52-.592.732-1.008.284-.556.912-.618,1.44-.833a2.4,2.4,0,0,0,1.139-.845A2.383,2.383,0,0,1,14.32,6.875a2.594,2.594,0,0,0,1.142-.7c.425-.517.4-1.276.964-1.686a1.073,1.073,0,0,1,.989-.188c.372.129.378.456.662.625.4.236.9.043,1.341.164.79.218,1.031.844,1.385,1.493.174.319.359,1.092.742,1.215a.028.028,0,0,0,.03-.007Z" transform="translate(0 -0.029)"/><path d="M17.322,3.12l.046.131c.006.016.014.076.007.022,0,.018,0,.036.008.054.012.084.025.167.04.249a.9.9,0,0,0,.086.273c.029.053.057.106.087.158.043.076.089.152.136.226s.091.138.142.2a1.19,1.19,0,0,0,.264.242,3.139,3.139,0,0,0,.28.177c.036.02.072.041.11.058a.571.571,0,0,0,.209.04.367.367,0,0,0,.289-.192.928.928,0,0,0,.111-.441.831.831,0,0,0-.1-.391.74.74,0,0,0-.311-.3l.105.064a2.213,2.213,0,0,1-.346-.264,1.187,1.187,0,0,0-.16-.131c-.057-.038-.113-.079-.168-.121s-.1-.081-.153-.124a.379.379,0,0,0-.148-.1c-.025-.007-.051-.01-.077-.015a1.4,1.4,0,0,0-.156-.034s-.05-.009-.007.007a.19.19,0,0,1-.037-.026l-.08-.059a.108.108,0,0,0-.163.036.3.3,0,0,0-.015.249Z" transform="translate(0 -0.029)"/><path d="M4.069,16.715a1.5,1.5,0,0,0,.688-.633A3.021,3.021,0,0,0,5.105,14.9c.062-.412.117-.827.144-1.244a4.676,4.676,0,0,0-.083-1.561c-.057-.2-.2-.562-.48-.53-.346.039-.473.448-.466.749a3.2,3.2,0,0,0,.073.467c0,.014.023.148.016.1s.008.085.009.1a6.077,6.077,0,0,1,.009.633c0,.053,0,.106-.007.159a.484.484,0,0,1,0,.053c-.009.12-.019.24-.03.359-.032.359-.075.712-.14,1.066a3.754,3.754,0,0,1-.257,1.037c-.058.118-.058.534.179.437Z" transform="translate(0 -0.029)"/><path d="M1.805,11.408a4.723,4.723,0,0,0,.37,1.812c.219.571.445,1.132.646,1.709a15.9,15.9,0,0,0,.66,1.7c.126.262.259.52.4.776.146.275.372.627.725.628.279,0,.353-.377.361-.58a3.434,3.434,0,0,0-.735-1.747c-.268-.471-.56-.931-.8-1.419a8.028,8.028,0,0,1-.562-1.6,6.241,6.241,0,0,0-.578-1.6c-.205-.367-.482.1-.485.323Z" transform="translate(0 -0.029)"/><path d="M17.148,7.39c-.574.634-.166,1.654-.1,2.406a11.448,11.448,0,0,1-.076,2.629,9.778,9.778,0,0,1-2.133,4.819.771.771,0,0,0-.117.792c.079.183.337.41.523.193a11.569,11.569,0,0,0,2.507-4.918,9.956,9.956,0,0,0,.276-2.756,23.987,23.987,0,0,0-.417-2.9c-.033-.179-.261-.486-.459-.269Z" transform="translate(0 -0.029)"/><path d="M10.478,11.858a5.588,5.588,0,0,0,2.178,3.088,9.337,9.337,0,0,0,3.381,1.721c.5.134.585-.914.159-1.021A8.8,8.8,0,0,1,13,14.111a11.013,11.013,0,0,1-1.29-1.151,8.158,8.158,0,0,0-1.174-1.169c-.042-.03-.061.037-.055.067Z" transform="translate(0 -0.029)"/><path d="M12.913,9.985a6.027,6.027,0,0,0,.591,1.423,5.521,5.521,0,0,0,1.008,1.182,6.469,6.469,0,0,0,1.248.891,3.936,3.936,0,0,0,1.407.579c.295.034.426-.416.439-.621a.768.768,0,0,0-.35-.763c-.207-.1-.441-.151-.658-.233s-.408-.164-.6-.261a8.208,8.208,0,0,1-1.1-.677,12.792,12.792,0,0,1-.983-.83c-.307-.262-.616-.527-.9-.814-.068-.068-.114.077-.1.124Z" transform="translate(0 -0.029)"/><path d="M17.678,12.127c.125.269.482.192.718.159a2.675,2.675,0,0,0,.785-.2,4.771,4.771,0,0,0,.721-.431,2.757,2.757,0,0,0,.318-.253,2.8,2.8,0,0,0,.3-.375.6.6,0,0,0,.008-.59c-.083-.145-.236-.233-.383-.106a7,7,0,0,1-1.239.914c-.236.127-.457.273-.7.382a1.446,1.446,0,0,0-.385.181c-.086.072-.2.2-.138.319Z" transform="translate(0 -0.029)"/><path d="M16.746,15.724a4.342,4.342,0,0,0,1.41-.25,3.083,3.083,0,0,0,.609-.341,2.8,2.8,0,0,0,.589-.545.549.549,0,0,0,.082-.563c-.06-.145-.23-.277-.372-.138-.166.163-.346.308-.516.467s-.376.311-.572.461a5.624,5.624,0,0,1-1.247.756c-.053.022-.049.155.017.153Z" transform="translate(0 -0.029)"/></svg>