<svg xmlns="http://www.w3.org/2000/svg" width="100" height="100" viewBox="0 0 100 100"><defs><style>.a{fill:#eaf6ce;}.b{fill:#ecf7d4;}.c{fill:#dce8be;}.d{fill:#f2f9e2;}.e{fill:#e8f5c9;}</style></defs><title>cabbage-white</title><path class="a" d="M56.876,22.706c-2.506-4.142-8.8-5.235-12.459-2.012l1.057-.238-.234-.072.62.524-.137-.224.438,1.468,0-.271L45.8,23.365c.217-.367,1.357-.648,1.757-.763a9.346,9.346,0,0,1,7.072.978l.592-3.883c-2.119-.052-3.991-1.382-6.141-1.3a13.593,13.593,0,0,0-3.208.757,30.723,30.723,0,0,1-3.695.748c-4.314.689-8.589,1.309-11.21,5.238a3.3,3.3,0,0,0-.173,2.889c.247.589,1.053,1.53,1.791,1.05,1.908-1.242,3.849-2.594,6.17-2.852l-.512-4.5a69.814,69.814,0,0,0-12.184,8.234l2.323,1.932a5.065,5.065,0,0,1,1.187-2.673c.828-1.093.473-3.82-1.173-3.93a7.474,7.474,0,0,0-7.673,6.136c-.662,3.544,1.013,7.854,4.632,9.048,1.142.376,1.737-.856,1.934-1.758a16.809,16.809,0,0,1,2.532-5.714,3.229,3.229,0,0,0,.045-3.141c-.4-.7-1.322-1.335-2.039-.566-4.239,4.546-3.65,10.928-4.917,16.593L24.757,44.2l.251.572-2.673,1.18c.63,1.218,1.118,2.52,1.659,3.779.357.83,1.2,1.407,2,.743a2.856,2.856,0,0,0,.445-3.032c-.561-1.251-1.185-2.492-1.658-3.779-.627-1.706-2.494-.994-2.636.592A4.525,4.525,0,0,0,23.679,48.5c.851.634,1.789.053,2.078-.889A53.765,53.765,0,0,0,27.091,39.4a10.753,10.753,0,0,1,2.421-6.023L27.519,29.67A23.441,23.441,0,0,0,24.306,36.9l1.787-1.169c-1.2-.467-2.648-1.746-2.249-3.175.531-1.9,2.915-2.74,4.666-2.634l-1.173-3.93a10.591,10.591,0,0,0-1.978,5.972c-.063,1.156,1.058,3.02,2.323,1.933a57.81,57.81,0,0,1,11.472-7.762,2.489,2.489,0,0,0,1.019-2.547c-.094-.747-.548-2.041-1.531-1.955a15.243,15.243,0,0,0-7,2.878l1.618,3.939c2.141-3.33,6.851-3.836,10.39-4.5a30.1,30.1,0,0,0,3.065-.721,8.843,8.843,0,0,1,2.862-.619c1.973.07,3.736,1.213,5.747,1.242.878.012,1.256-1.15,1.294-1.832a2.318,2.318,0,0,0-1.032-2.253,10.82,10.82,0,0,0-6.98-1.464c-2.376.321-5.518,1.208-5.157,4.2.147,1.218,1.159,2.635,2.45,1.793A9.721,9.721,0,0,1,49.215,22.7c2.667-.575,4.723.743,7.042,1.757.917.4.87-1.331.619-1.746Z"/><path class="a" d="M22.112,55.1a15.686,15.686,0,0,1,3.83-.236,1.686,1.686,0,0,1,.384.082q1.686.569.108-3.047a4.233,4.233,0,0,0-1.056-.015c-.846-.019-1.692-.041-2.538-.051-2.19-.027-1.727,3.991-.3,4.73a9.614,9.614,0,0,0,7.6.5c1.034-.349,1.269-2.146,1.036-3A3.7,3.7,0,0,0,29.3,51.481l-.731,4.692c4.646,1.292,9.343,4.007,10.913,8.833l2.127-3.419a41.412,41.412,0,0,1-6.054-4.577c-1.735-1.594-3.374-3.372-5.926-2.718-1.577.405-1.378,3.694-.273,4.471a19.445,19.445,0,0,1,5.74,6.265l1.857-3.9q-1.619-1.71-3.236-3.421c-.727-.768-1.725-.035-2.069.685a3.418,3.418,0,0,0,.206,3.228c2.277,3.589,5.083,7.141,9.615,7.577.788.075,1.3-.974,1.45-1.56a3.465,3.465,0,0,0-.4-2.7,1.425,1.425,0,0,1-.23-.552l-1.491,3.174c1.661-.158,2.768,1.085,3.878,2.145a7.761,7.761,0,0,0,4.1,2.336c1,.175,1.474-1.478,1.511-2.14a2.616,2.616,0,0,0-1.2-2.631c-3.542-1.5-8.2-.937-11.156-3.629-.861-.783-1.856.064-2.171.93a3.228,3.228,0,0,0,.657,3.325c3.267,3.181,8.159,2.036,11.939,4.069l.731-4.695c-3.243-.861-4.627-4.994-8.408-4.664-1.431.124-1.706,2.086-1.491,3.174A7.411,7.411,0,0,0,40.3,68.5l1.046-4.258c-3.483-.325-5.578-3.467-7.294-6.157L32.188,62q1.621,1.7,3.241,3.409c.727.764,1.719.037,2.063-.683a3.46,3.46,0,0,0-.2-3.219,22.048,22.048,0,0,0-6.419-6.994L30.6,58.979c.777-.2,1.564.559,2.085,1.021.79.7,1.526,1.457,2.326,2.148a40.025,40.025,0,0,0,5.075,3.726c2.125,1.319,2.57-2.069,2.127-3.419C40.316,56.7,34.93,53.021,29.3,51.481c-2.4-.656-2.4,3.791-.731,4.692l-.421-.747,1.036-3a7.417,7.417,0,0,1-5.921-.511l-.3,4.73c1.383.011,3.411.367,4.691-.282,1.572-.8,1.846-3.21,1.053-4.621-.741-1.32-2.292-1.385-3.643-1.137a4.914,4.914,0,0,0-3.53,2.548c-.267.491-.318,2.028.583,1.954Z"/><path class="a" d="M54.518,68.078l-1.187-.552.082,3.349a25.8,25.8,0,0,0,3.271-2.1,30.407,30.407,0,0,1,3.463-2,21.657,21.657,0,0,1,7.656-2.3l-.635-5.585a107.061,107.061,0,0,1-13.512,6.147c-1.238.461-1.3,2.333-1.162,3.367.355,2.612,2.558,2.887,4.668,2.436a30.09,30.09,0,0,0,6.153-1.96c3.77-1.706,7.363-4.489,9.244-8.252.738-1.474.637-5.363-1.917-4.67a8.978,8.978,0,0,0-4.322,2.682,3.513,3.513,0,0,0-.738,3.062c.15.717.8,2.122,1.754,1.935a12.3,12.3,0,0,0,9.149-8.569,19,19,0,0,0,.832-7.261c-.137-1.8-.744-3.893.431-5.45,1.307-1.73-.589-6.041-2.463-3.559-2.611,3.458-1.019,7.866-1.519,11.793-.458,3.6-2.749,7.077-6.563,7.659l1.016,5a5.674,5.674,0,0,1,3.051-1.762l-1.427-4.783a16.268,16.268,0,0,1-6.453,6.306,24.557,24.557,0,0,1-4.483,1.878c-.68.21-1.366.4-2.061.55-.358.078-.728.169-1.093.211-.624.073-.589-.178-.314.276l.487,1.186-.032-.232-1.162,3.367c4.605-1.743,9.152-3.7,13.566-5.884,1.108-.548,1.4-2.051,1.263-3.16-.111-.884-.69-2.586-1.9-2.425a22.232,22.232,0,0,0-8.556,2.956c-2.563,1.552-5.34,3.635-6.874,6.266a2.372,2.372,0,0,0,.06,2.455.913.913,0,0,0,1.612-.039l.761-1.591c.111-.231.129-.618-.148-.747Z"/><path class="a" d="M67.851,49.627a6.544,6.544,0,0,0-.057.685l.117-.761,0,.014.148-.31a3.926,3.926,0,0,0-.243.547c-.056.179-.1.364-.139.546a1.807,1.807,0,0,0-.031.319,2.151,2.151,0,0,0,.041.754l0,.019c0,.018.009.036.013.054a1.723,1.723,0,0,0,.239.639,1.3,1.3,0,0,0,.361.48.717.717,0,0,0,.469.214.639.639,0,0,0,.5-.046l.293-.2a1.747,1.747,0,0,0,.43-.691l.114-.456a2.875,2.875,0,0,0-.025-1.009l-.089-.388a1.74,1.74,0,0,0-.24-.646,1.31,1.31,0,0,0-.365-.484.721.721,0,0,0-.473-.215.64.64,0,0,0-.5.046l-.3.2a1.77,1.77,0,0,0-.434.7l-.115.46a2.872,2.872,0,0,0,.025,1.017l.109.38,2.241-1.518-.011-.035.136.45a2.484,2.484,0,0,0-.351-.861,1.67,1.67,0,0,0-.283-.313c-.021-.019-.041-.04-.06-.061l.241.27a1.464,1.464,0,0,1-.154-.205l.162.3,0-.014.108.356,0-.017.045.4c-.009-.091-.015-.183-.016-.275a1.55,1.55,0,0,0-.1-.562,1.279,1.279,0,0,0-.21-.467l-.2-.224a.555.555,0,0,0-.362-.165.325.325,0,0,0-.256.006.557.557,0,0,0-.353.183l-.189.234a1.756,1.756,0,0,0-.231.652Z"/><path class="a" d="M64.058,57.787c1.709-.634,2.551-2.335,3.1-3.966a6.963,6.963,0,0,1,.933-2.237,4.561,4.561,0,0,1,2.411-1.477l-1.371-4.519c-.948,1.139-1.882,2.292-2.82,3.44a29.743,29.743,0,0,0-2.72,3.37,3.92,3.92,0,0,0,.343,4.569,2.267,2.267,0,0,0,2.892.057,12.89,12.89,0,0,0,5.075-4.7,9.029,9.029,0,0,0,.45-8.106c-.318-.658-1.061-1.574-1.915-1.123a7.087,7.087,0,0,0-2.021,1.538l2,.342c-.35-.449-.119,0-.253-.517a6.87,6.87,0,0,1-.1-.809c-.107-.933-.259-1.868-.328-2.8-.09-1.207.322-2.28,1.712-2.186l-1.628-3.064a42,42,0,0,0-.966,6.209c-.145,1.875-.091,3.948,1.47,5.259a1.281,1.281,0,0,0,1.964-.436,16.682,16.682,0,0,0,1.77-6.981,16.251,16.251,0,0,0-.307-3.569,16.579,16.579,0,0,0-.486-1.809q-.123-.4-.273-.79-.468-1.35-.107,1.242l-.571.918c1.183-1.362,4.52-4.035,6.122-1.738l.632-4.265a69.816,69.816,0,0,0-6.783,4.34c-1.7,1.226-.455,6.019,1.8,4.375a61.87,61.87,0,0,1,5.987-3.837c1.4-.79,1.488-3.044.631-4.264-2.66-3.786-7.361-1.991-9.955.833a4.078,4.078,0,0,0-1,3.716c.2.925.672,1.756.861,2.69a9.064,9.064,0,0,1-.709,5.688l1.964-.437c.355.295.048.8.17.069.112-.685.128-1.4.219-2.087.171-1.311.413-2.609.7-3.9.249-1.1-.271-2.981-1.628-3.065-2.977-.184-4.569,3.061-4.765,5.588a29.133,29.133,0,0,0,.345,4.745,8.384,8.384,0,0,0,1.275,4.474,1.3,1.3,0,0,0,2,.341,4.1,4.1,0,0,1,1.268-.925l-1.915-1.122c.508,1.148-.078,2.219-.865,3.117a10.119,10.119,0,0,1-1.748,1.532c-.3.212-.606.4-.919.593q-.251.151-.5.3-.544.154,0,.2l.8,1.482-.04-.317-.119,1.939a6.428,6.428,0,0,1,1.013-1.229l1.406-1.729c.89-1.094,1.782-2.185,2.662-3.287.96-1.2.349-4.769-1.693-4.121A7.48,7.48,0,0,0,64.947,49.7a13.776,13.776,0,0,0-.8,2.851,5.424,5.424,0,0,1-.884,2.613c-.553.655-.608,3.144.8,2.622Z"/><path class="b" d="M54.961,15.835l-.135-.119c-.9-.8-1.6.552-1.648,1.3-.053.8.384,2.223,1.456,1.852,1.905-.66,6-1.979,6.915.8l1.067-3.057a28.269,28.269,0,0,1-5.527-.948c-2.119-.629-2.283,3.523-.667,4.278a3.833,3.833,0,0,1,2.184,2.513l2.246-2.063q-.384-.207.094.512c.007-.885-.51-2.333-1.6-2.307-1.131.028-1.472,1.516-1.482,2.382-.037,3.311,3.447,4.07,5.912,5.112l4.167,1.762c1.161.491,2.432,1.233,3.73.988a3.165,3.165,0,0,0,2.3-3.327,4.166,4.166,0,0,0-2.058-3.454A18.239,18.239,0,0,0,64.4,19.143l.126,5.114a11.119,11.119,0,0,1,8.5,4.047,1.237,1.237,0,0,0,2.157-.053,3.194,3.194,0,0,0-.08-3.286,13.531,13.531,0,0,0-10.7-5.822c-1.2-.044-1.638,1.687-1.616,2.6a2.354,2.354,0,0,0,1.742,2.516,22.365,22.365,0,0,1,3.7.928,18.122,18.122,0,0,1,1.725.711c.3.145.614.29.9.462l.168.089q.492.435.014-.248L71,24.975l-.053.262.364-1.028c.076-.135.145.055-.02.017a5.551,5.551,0,0,1-.715-.149c-.464-.169-.916-.375-1.371-.566L65.94,22.142l-3.082-1.293c-.637-.267-2-.56-2.338-1.12l.421,1.025,0,.15-3.078.075a4.216,4.216,0,0,0,1.543,3.463,1.15,1.15,0,0,0,1.69-.223,3.15,3.15,0,0,0,.486-2.455,7.654,7.654,0,0,0-4.5-6.1l-.667,4.278a19.489,19.489,0,0,0,6.293.7c1.318-.1,1.5-2.134,1.066-3.057a5.417,5.417,0,0,0-3.92-3.073c-2.035-.395-4.033.333-5.909,1.056l1.337,2.5.072-.2a1.953,1.953,0,0,0-.4-2.025Z"/><path class="a" d="M38.645,25.228l.217.09-.348-.387c.3.683.735.758,1.437.746a11.575,11.575,0,0,0,1.905-.306l-.4-3.483a15.047,15.047,0,0,0-3.31,1.351,2.257,2.257,0,0,0-.836,2.424c.148.708.746,1.69,1.61,1.325A35.174,35.174,0,0,1,52.659,24.3c2.033,0,1.947-4.626-.113-4.608a32.871,32.871,0,0,0-14.4,3.544l1.076,3.545A13.923,13.923,0,0,1,42.164,25.3c1.435-.6.751-4.172-.7-3.412-.954.5-2.586,1.076-2.968,2.173l.478-.439-.221-.008c-.715-.028-.63,1.394-.1,1.614Z"/><path class="a" d="M22.7,47.757c.1-.43,0-.053-.041.044l2.122.815a5.7,5.7,0,0,0-.342-1.466c-.018-.052-.036-.1-.053-.156q-.085-.269.034.12a2.384,2.384,0,0,0-.115-.42c-.06-.246-.1-.5-.146-.745-.064-.377.024.424.01.069-.006-.143-.017-.286-.017-.431,0-.063,0-.127,0-.19q-.036.5-.017.273c.013-.11.024-.22.04-.33a1.27,1.27,0,0,1,.068-.376l-.072.28c.016-.062.034-.123.053-.183.038-.121.086-.238.129-.357.115-.31-.185.319-.025.056.065-.108.125-.218.2-.322.036-.051.073-.1.112-.152q-.228.277-.066.093a2.545,2.545,0,0,0,.391-2.656,1.487,1.487,0,0,0-.781-.87.926.926,0,0,0-.973.219,6.36,6.36,0,0,0-1.564,4.387,8.345,8.345,0,0,0,.315,2.17,5.5,5.5,0,0,0,1.158,2.511.846.846,0,0,0,1.249-.165,2.166,2.166,0,0,0,.359-1.815,5.186,5.186,0,0,0-.275-.8c-.186-.383-.5-.788-.978-.677s-.672.635-.776,1.072Z"/><path class="a" d="M23.848,43.3A10.232,10.232,0,0,1,24,42.245c.039-.206-.06.17.011-.039.023-.07.043-.141.067-.21.054-.164.115-.326.181-.486.029-.069.059-.137.089-.2.092-.214-.113.221.016-.034q.107-.21.226-.413a7.274,7.274,0,0,1,.584-.843l-.207.255a2.55,2.55,0,0,0,.582-.9,2.372,2.372,0,0,0-.127-1.8,1.214,1.214,0,0,0-.438-.488.7.7,0,0,0-.7-.065,2.807,2.807,0,0,0-.3.206,1.815,1.815,0,0,0-.375.6c-.045.1-.09.2-.132.294-.091.211-.172.425-.246.643a11.14,11.14,0,0,0-.4,1.536c-.039.209-.07.42-.094.631-.011.107-.021.213-.029.32a1.784,1.784,0,0,0-.032.524l.008-.123-.018.278c0,.051-.005.1-.008.154,0,.117-.007.233-.007.35q0,.332.029.663c.026.322.145.813.533.869.357.051.606-.338.631-.659Z"/><path class="a" d="M21.629,37.13a4.355,4.355,0,0,0,.881,1.657,2.691,2.691,0,0,1,.251.35c-.062-.111.017.058.028.075.061.094-.024-.149.015.029.031.139.055.277.077.417.028.178,0-.026-.008-.092,0,.079.016.159.023.237l1.351-1.24c-.2-.182.192.235-.1-.087-.065-.073-.129-.137-.2-.2q-.033-.03-.063-.063-.1-.1.069.078a.68.68,0,0,0-.1-.125,3.537,3.537,0,0,1-.2-.3c-.026-.042-.116-.214-.014-.014s0,0-.023-.051c-.211-.435-.361-.9-.533-1.35a12.69,12.69,0,0,0-.544-1.3c-.165-.32-.339-.641-.529-.948-.1-.154.17.368.048.086-.023-.053-.047-.1-.069-.158a2.187,2.187,0,0,0-.334-.611c-.288-.33-.629-.608-1.092-.409a1.567,1.567,0,0,0-.748,1.2,3.128,3.128,0,0,0,.452,2.189c.137.251.3.484.446.73.032.054.151.271.02.03s-.007-.008.014.034q.087.178.168.36c.108.243.208.488.312.733a7.285,7.285,0,0,0,.876,1.565,4.837,4.837,0,0,0,.669.732,2.915,2.915,0,0,0,.4.288,1.51,1.51,0,0,0,.67.2.714.714,0,0,0,.459-.2,1.342,1.342,0,0,0,.359-.677,1.977,1.977,0,0,0-.228-1.522,3.672,3.672,0,0,0-1.091-1.241c-.258-.162-.537-.254-.807-.39-.233-.118-.452-.26-.683-.382-.191-.1-.254.259-.228.366Z"/><path class="a" d="M21.007,34.908a8.864,8.864,0,0,0,.7,3.86,13.981,13.981,0,0,1,.724,1.539,1.681,1.681,0,0,1-.1,1.029,13.408,13.408,0,0,0-.922,4.032A9.468,9.468,0,0,0,23.05,49.8a1.01,1.01,0,0,0,1.7.112,2.662,2.662,0,0,0,.271-2.552,20.535,20.535,0,0,0-.909-1.863c-.06-.115-.117-.231-.17-.349q-.161-.436.007.162c-.032.129-.028.072.012-.169.022-.15.048-.3.08-.447a16.817,16.817,0,0,0,.742-3.79,5.817,5.817,0,0,0-1.477-3.807c-.7-.772-1.317-1.6-1.98-2.4-.169-.2-.317.037-.323.215Z"/><path class="a" d="M20.885,34.234c.461-.318.467-1.12.628-1.612a15.969,15.969,0,0,1,.767-1.8A1.84,1.84,0,0,0,21.994,29a.725.725,0,0,0-1.223.141,16.253,16.253,0,0,0-1.435,4.3l1.916-.047c-.029-.144-.058-.288-.075-.434.031.271.006-.1,0-.172,0-.038.011-.423,0-.226s.023-.185.029-.222c.02-.143.047-.283.076-.424-.057.274.049-.16.055-.178a6.088,6.088,0,0,1,.259-.677c-.09.2.1-.194.1-.192.071-.128.146-.254.223-.379.129-.211.266-.417.415-.614A7.522,7.522,0,0,1,23.417,28.8a4.671,4.671,0,0,1,3.123-1.176c1.265.068,2.416.717,3.708.676,1.4-.046,1.329-3.2-.078-3.164-1.472.037-2.809-.837-4.3-.7a7,7,0,0,0-3.923,1.892,8.328,8.328,0,0,0-2.589,7.914c.108.462.419,1.1.986,1.088s.86-.666.931-1.135a12.627,12.627,0,0,1,1.008-3.373l-1.648-1.4a7.652,7.652,0,0,0-.565,2.5c-.049.685-.213,1.823.408,2.313a.307.307,0,0,0,.41-.01Z"/><path class="a" d="M25.79,47.662a2.664,2.664,0,0,0,.726-1.169c.226-.487.436-.982.667-1.467l-2.124-.815a15.137,15.137,0,0,1-.342,2.533l2.342-.057a8,8,0,0,1,.008-.977,12.857,12.857,0,0,1,.217-1.307c.179-.833.471-1.708.745-2.562.606-1.881,1.352-3.715,1.9-5.614a2.446,2.446,0,0,0-.365-2.335.927.927,0,0,0-1.562.18,35.241,35.241,0,0,0-2.328,6.458c-.671,2.367-1.342,4.719-.934,7.2.094.567.537,1.345,1.205,1.329S27,48.243,27.083,47.67a21.642,21.642,0,0,0,.232-3.515c-.009-.648-.364-1.71-1.17-1.69s-1.12,1.112-1.086,1.746a10.026,10.026,0,0,0,.306,3.293c.081.189.245.286.425.158Z"/><path class="a" d="M27.736,36.4a37.775,37.775,0,0,0,5.553-5.772,2.424,2.424,0,0,0,.366-2.488c-.272-.646-1.013-1.214-1.643-.61a25.478,25.478,0,0,0-4.88,6.7A2.4,2.4,0,0,0,27.1,36.5c.317.554.908.9,1.47.408a40.385,40.385,0,0,0,4.94-5.2,2.771,2.771,0,0,0,.04-2.745c-.358-.628-1.14-1.146-1.782-.5A25.439,25.439,0,0,0,28.3,32.753a2.707,2.707,0,0,0,.069,2.813,1.049,1.049,0,0,0,1.847-.045,44.532,44.532,0,0,1,8.35-9.416c1.216-.985.379-4.529-1.363-3.307-2.008,1.41-4.556,3.2-5.465,5.577-.41,1.072.552,3.4,1.709,1.911a9.833,9.833,0,0,1,2.733-1.947,28.419,28.419,0,0,1,2.73-1.626l-.621-3.008A23,23,0,0,0,34.841,26.2a21.346,21.346,0,0,0-3.008,2.973,2.175,2.175,0,0,0-.326,2.215c.252.6.886,1.053,1.462.542a39.2,39.2,0,0,1,11.3-6.977c1.339-.543.853-3.934-.681-3.3a39.9,39.9,0,0,0-11.752,7.519l1.344,2.5a17.765,17.765,0,0,1,2.8-2.716c1.029-.833,2.187-1.529,3.176-2.407.955-.849.166-3.8-1.1-2.68-.819.719-1.745,1.318-2.631,1.952a8.354,8.354,0,0,1-2.784,1.733l.607,2.989c.884-.7,1.56-1.664,2.458-2.379.92-.733,1.907-1.384,2.869-2.059L37.2,22.8c-3.408,2.762-5.895,6.271-8.646,9.637l1.659,3.086a27.339,27.339,0,0,1,3.023-3.479L31.5,28.8a39.41,39.41,0,0,1-4.143,5.155l1.437,2.672a23.481,23.481,0,0,1,4.5-6l-1.511-2.809a50.939,50.939,0,0,0-4.758,7.249c-.226.453-.062,1.924.716,1.332Z"/><path class="a" d="M26.759,57.293c.452.308.875.677,1.348.952.443.258.766.437,1.168.7a21.547,21.547,0,0,1,2.4,1.822.784.784,0,0,0,.814.142,1.284,1.284,0,0,0,.659-.944,1.887,1.887,0,0,0-.734-2.144,18.721,18.721,0,0,0-2.6-1.184,12.618,12.618,0,0,0-1.381-.445,6.937,6.937,0,0,0-1.483-.1c-.511-.007-.507.986-.184,1.206Z"/><path class="a" d="M37.662,60.144c-.054-.1-.192-.967-.12-.352a1.035,1.035,0,0,0,.12.352,4.444,4.444,0,0,0,.494.782,8.627,8.627,0,0,0,1.358,1.288c1.057.862,2.177,1.644,3.262,2.47,1.114.847,2.192,1.739,3.307,2.586.511.387,1.028.773,1.509,1.2a3.367,3.367,0,0,1,.829,1.02c.3.724,1.11,1.3,1.806.671a2.587,2.587,0,0,0,.4-2.737,7.211,7.211,0,0,0-2.489-2.815,33.121,33.121,0,0,0-3.5-2.206c-1.123-.609-2.258-1.205-3.435-1.7a22.6,22.6,0,0,1-3.072-1.539c-.595-.365-.654.651-.469.983Z"/><path class="a" d="M28.08,57c.325.664.726,1.277,1.1,1.914s.724,1.32,1.088,1.98l.254.46c-.059-.108.015.029.033.063.04.074.08.149.119.224.168.318.329.64.487.964.324.664.647,1.327.98,1.987a1.644,1.644,0,0,0,.8.89.966.966,0,0,0,.995-.224,2.658,2.658,0,0,0,.4-2.717,11.335,11.335,0,0,0-1.03-2.137,17.943,17.943,0,0,0-1.114-1.7c-.864-1.177-1.833-2.269-2.806-3.355a.96.96,0,0,0-1.016-.177,1.5,1.5,0,0,0-.664.733,2.721,2.721,0,0,0,.167,2.62,2.25,2.25,0,0,0,.963.824,1.208,1.208,0,0,0,1.41-.607,2.562,2.562,0,0,0-.5-3.027c-.052-.047-.106-.091-.161-.133.149.186.173.211.073.073l-1.786,2.87c.85.989,1.712,1.972,2.487,3.022a18.731,18.731,0,0,1,1.061,1.592c.078.132.145.275.229.4-.05-.076-.158-.3-.053-.095.034.069.07.137.1.206.153.309.291.625.442.936l1.98-2.446a25.224,25.224,0,0,0-2.808-3.2c-.446-.444-.95-.849-1.431-1.255A8.528,8.528,0,0,0,28.3,56.534c-.23-.118-.28.342-.22.465Z"/><path class="a" d="M49.171,69.941l.085.049c.047.025.058.032.033.02s-.019,0,.018.037l.057.083a1.082,1.082,0,0,0,.28.227l.539.371q.53.363,1.061.724l.727-2.042c-.075-.051-.148-.1-.223-.152a.878.878,0,0,0-.29-.145c-.043-.01-.086-.018-.129-.027a.428.428,0,0,0-.338-.014.487.487,0,0,0-.311.16,1.361,1.361,0,0,0-.37.78,1.851,1.851,0,0,0,.11.991l.139.257a.856.856,0,0,0,.381.323l.129.026a.92.92,0,0,0,.424.029l.346-.082c.2-.049.391-.381.447-.55a1.745,1.745,0,0,0,.073-.749c-.05-.439-.276-.965-.781-1q-.59-.038-1.181-.08l-.568-.04a.709.709,0,0,0-.357.025.688.688,0,0,1-.077.038.63.63,0,0,1-.175-.03c-.068-.012-.148.071-.178.119a.47.47,0,0,0-.065.226.432.432,0,0,0,.194.424Z"/><path class="a" d="M49.311,71.423a7.026,7.026,0,0,0,1.148.292l.54.066.249.031a.786.786,0,0,0,.29-.008.416.416,0,0,0,.279-.1.561.561,0,0,0,.229-.236,1.43,1.43,0,0,0,.2-.792c-.025-.464-.22-1.05-.758-1.095a.6.6,0,0,0-.223.012c-.073.017-.145.034-.217.053l-.239.063-.517.137a6.679,6.679,0,0,0-1.005.413.629.629,0,0,0-.277.591,1.016,1.016,0,0,0,.062.3.474.474,0,0,0,.244.272Z"/><path class="a" d="M64.126,58.32l0-.042-.208.585.022-.035-.378.352.034-.021-.234.054.058-.005-.242-.043a3.392,3.392,0,0,0,.764.076q.3-.009.6-.044a8.16,8.16,0,0,0,1.366-.291,5.1,5.1,0,0,0,1.057-.484,4.423,4.423,0,0,0,1.185-.871,2.06,2.06,0,0,0,.372-1.961,1.435,1.435,0,0,0-.438-.737.74.74,0,0,0-.794-.138c-.31.179-.58.4-.873.607l.246-.167A8.13,8.13,0,0,1,64,56.318l.257-.059c-.14.031-.28.059-.421.081a2.454,2.454,0,0,0-.632.118,1.708,1.708,0,0,0-.628,2.209c.171.336.433.7.863.6a1.064,1.064,0,0,0,.684-.945Z"/><path class="a" d="M66.826,56.139a3.541,3.541,0,0,1,1.018.477,1.574,1.574,0,0,0,1.026.075,2.881,2.881,0,0,0,1.3-.522,3.482,3.482,0,0,0,.883-.948,9.6,9.6,0,0,0,.991-3.07,20.88,20.88,0,0,0,.381-2.716,3.48,3.48,0,0,0-.184-1.662,1.73,1.73,0,0,0-.872-.972c-.949-.289-1.629.71-1.708,1.552-.043.454-.047.9-.056,1.353,0,.172-.012.344-.019.516-.016.4.037-.46-.007.062-.065.747-.159,1.469-.15,2.22a1.622,1.622,0,0,0,.64,1.359c.421.256.809.023,1.071-.337a5.68,5.68,0,0,0,.826-1.93,12.568,12.568,0,0,0,.5-2.737l-2.837.07c0,.192-.014.384-.021.576-.01.272.038-.506.008-.117-.007.086-.013.172-.021.258q-.051.612-.14,1.22c-.056.381-.121.761-.2,1.139-.013.064-.084.226-.062.29-.019-.057.113-.406.034-.137-.057.19-.116.378-.19.563-.064.16-.132.318-.193.48-.073.19.161-.273.043-.1-.05.072-.088.154-.136.228-.087.133-.181.261-.268.394-.049.075-.1.145-.154.218.07-.1.067-.076-.008.005-.266.289-.557.525-.794.838a.94.94,0,0,1-.714.459c-.409,0-.361.841.022.9Z"/><path class="a" d="M70.774,53.206a.946.946,0,0,0,.948.256,1.272,1.272,0,0,0,.675-.283,3.7,3.7,0,0,0,.41-.479,3.469,3.469,0,0,0,.487-.884,4.537,4.537,0,0,0,.151-.583,2.569,2.569,0,0,0,.063-.644,5.919,5.919,0,0,0-.082-.818L73.3,49.34a1.273,1.273,0,0,0-.319-.5.94.94,0,0,0-.732-.372,1.087,1.087,0,0,0-.6.262,1.252,1.252,0,0,0-.323.476,1.655,1.655,0,0,0-.2.623c-.008.085-.019.168-.034.252a5.755,5.755,0,0,0-.051.72l.031-.494c-.019.25-.035.5-.05.75l.031-.48a3.183,3.183,0,0,1-.083.532l.1-.4c-.036.143-.086.28-.131.42-.077.24-.1.489-.162.732l.078-.311c-.138.533-.448,1.145-.082,1.656Z"/><path class="a" d="M72.824,29.716l-.084.027.268.157-.089-.178-.641,1.838a1.425,1.425,0,0,0,.262-.06,2.532,2.532,0,0,0,.247-.171c-.082.048-.139.084-.02.02.036-.02.074-.04.109-.061a3.75,3.75,0,0,0,.395-.279c.027-.021.166-.113.03-.028-.152.095.051-.031.065-.04a4.18,4.18,0,0,1,1.164-.466l-.294.068a8.619,8.619,0,0,1,2.923-.108c.347.04.713-.329.874-.582a2.473,2.473,0,0,0,.335-1.362c-.039-.72-.382-1.9-1.3-1.883a7.118,7.118,0,0,0-3.48.772,5.321,5.321,0,0,0-1.31,1.029,2.615,2.615,0,0,0-.682,2.612c.122.3.435.611.785.46a1.081,1.081,0,0,0,.478-1.018l0-.237-.13.372.286-.279c.158-.154.128-.7-.183-.6Z"/><path class="a" d="M75.966,28.975c.269.21.518.456.794.656.314.227.693.383,1.025.585l-.231-.141a5.954,5.954,0,0,1,1.308,1.04l-.242-.271a3.276,3.276,0,0,1,.389.56l-.2-.372a3.274,3.274,0,0,1,.207.493l-.139-.455a2.155,2.155,0,0,1,.069.338l-.059-.517a1.937,1.937,0,0,1,0,.285l.034-.526a2.125,2.125,0,0,1-.035.226,2.833,2.833,0,0,0,.17,1.531,1.585,1.585,0,0,0,.8.9.971.971,0,0,0,1-.226,2.046,2.046,0,0,0,.572-1.205,4.6,4.6,0,0,0-.615-2.944,3.66,3.66,0,0,0-1.434-1.246,3.772,3.772,0,0,0-1.617-.326,3.1,3.1,0,0,0-.937.051c-.121.033-.238.078-.359.107.085-.02-.031,0-.063.006-.076.011-.153.02-.229.028-.6.068-.611,1.118-.218,1.426Z"/><path class="b" d="M56.686,18.915a10.328,10.328,0,0,1,.428,1l.372,1.056.373,1.056.186.528c.027.075.051.151.08.226-.166-.428-.03-.092,0,.016l1.881-1.274a12.7,12.7,0,0,0-.656-1.156l.176.327a10.458,10.458,0,0,1-.789-1.886l.12.395c-.072-.239-.135-.48-.191-.724a1.821,1.821,0,0,0-.531-.991.82.82,0,0,0-.854-.148,1.911,1.911,0,0,0-.719,2.084,12.363,12.363,0,0,0,.748,2.183c.175.378.372.747.58,1.109a3.875,3.875,0,0,0,.739,1.021.774.774,0,0,0,.809.141,1.2,1.2,0,0,0,.529-.584,2.034,2.034,0,0,0,.2-.971,1.93,1.93,0,0,0-.334-1.118c-.423-.5-.777-1.065-1.153-1.6l-.569-.813-.122-.174c-.015-.021-.179-.245-.1-.128-.1-.146-.167-.315-.249-.469a.725.725,0,0,0-.347-.386.421.421,0,0,0-.433.1,1.125,1.125,0,0,0-.173,1.181Z"/><path class="c" d="M52.439,17.6l.063.061a.322.322,0,0,0,.333.057,29.662,29.662,0,0,1,5.778-1.732,3.832,3.832,0,0,1,1.641,0,5.45,5.45,0,0,1,.746.329c.343.169.685.347,1.011.547.167.1.324.22.493.321.016.009.167.079.132.071.111.027.183.282-.024-.115.45.863,1.085.02.957-.648-.18-.934-1.183-1.4-1.94-1.795a4.551,4.551,0,0,0-2.879-.59A14.254,14.254,0,0,0,55.3,15.116a14.553,14.553,0,0,0-1.68.743c-.442.242-1.188.493-1.325,1.019a.715.715,0,0,0,.142.718Z"/><path class="b" d="M60.821,21.822a3.333,3.333,0,0,0,3.439-.629l-.849.191.06.023a.9.9,0,0,0,.915-.206,1.919,1.919,0,0,0,.522-1.1,2.6,2.6,0,0,0-.155-1.4l-.2-.364a1.205,1.205,0,0,0-.537-.454,2.045,2.045,0,0,0-.741-.07,1.913,1.913,0,0,0-.707.224l-.3.2a1.32,1.32,0,0,0-.341.5,2.458,2.458,0,0,0-.241,1.169,3.151,3.151,0,0,0,.2.964,1.533,1.533,0,0,0,.774.862,1.275,1.275,0,0,0,.939-.015c.121-.041.235-.1.357-.137l-.334.077a.417.417,0,0,1,.141-.007l-.337-.06a.5.5,0,0,1,.166.061l-.306-.186a.447.447,0,0,1,.074.064l-.262-.294.017.025-.206-.383a.158.158,0,0,1,.021.052l-.2-.963,0,.028.033-.51,0,.028.116-.46-.009.029.187-.393-.016.029a2.7,2.7,0,0,0-.334,1.363,2.461,2.461,0,0,0,.4,1.344,1.1,1.1,0,0,0,.9.538,1.128,1.128,0,0,0,.874-.582,2.84,2.84,0,0,0,.228-2.238,1.9,1.9,0,0,0-.975-1.226,1.088,1.088,0,0,0-.3-.079.942.942,0,0,0-.309-.029,5.984,5.984,0,0,0-.739.213l.336-.077a.727.727,0,0,1-.223.014l.724,3.557a1.469,1.469,0,0,1,.147-.125l-.292.2a1.251,1.251,0,0,1,.392-.177l-.321.074a1.246,1.246,0,0,1,.235-.028l-1.238-1.788.005.1.295-1.2a2.9,2.9,0,0,1-.183.256l.211-.261a3.068,3.068,0,0,1-.629.58l.232-.157a3.047,3.047,0,0,1-.968.433l.232-.054a2.678,2.678,0,0,1-.773.066.714.714,0,0,0-.553.368,1.57,1.57,0,0,0-.2.7,1.3,1.3,0,0,0,.6,1.314Z"/><path class="a" d="M75.83,40.041a2.591,2.591,0,0,0-.414,1.867c.025.64.075,1.268.157,1.9.146,1.122.393,2.221.643,3.326.059.261.238.622.557.614.3-.007.505-.376.526-.641a21.211,21.211,0,0,0,.04-3.643,14.7,14.7,0,0,0-.3-1.935c-.111-.481-.316-1.414-.869-1.568a.329.329,0,0,0-.335.076Z"/><path class="a" d="M76.851,47.1a11.719,11.719,0,0,1,.558-1.047c.137-.319.271-.64.387-.967a10.318,10.318,0,0,0,.495-2.4,10.723,10.723,0,0,0-.175-2.942,5.084,5.084,0,0,0-1.375-2.75.912.912,0,0,0-1.347.178,2.436,2.436,0,0,0-.388,1.958,2.949,2.949,0,0,0,.167.61q.088.27.027.069c-.072-.225.079.315.091.368a9.871,9.871,0,0,0,.372,1.228c.152.412-.07-.311.029.088.042.172.088.342.126.515.069.317.128.633.2.949.159.669.234,1.351.356,2.027.054.3.1.608.143.913a8.175,8.175,0,0,1,.21,1.154c0,.073.09.145.121.047Z"/><path class="a" d="M32.075,64.992l.233.188c.068.066.076.063.023-.007l.1.116.343.406a9.511,9.511,0,0,0,.956.959c.133.117.261.243.4.354s.323.22.483.327l.905.611a.9.9,0,0,0,.874.152,1.384,1.384,0,0,0,.707-1.013,2.432,2.432,0,0,0-.033-1.324,1.512,1.512,0,0,0-.247-.547,1.142,1.142,0,0,0-.508-.43l-.924-.539c-.162-.095-.323-.2-.493-.286-.142-.068-.3-.117-.443-.174l-.443-.175a2.759,2.759,0,0,0-.517-.131l-.456-.085a2.178,2.178,0,0,1-.507-.2c-.381-.177-.668.287-.742.584a1.234,1.234,0,0,0,.292,1.212Z"/><path class="a" d="M24.052,29.733a5.364,5.364,0,0,0-.579.851l.179-.222a2.5,2.5,0,0,0-.651.924,5.024,5.024,0,0,0-.242.992,5.756,5.756,0,0,0,.149,2.484,1.858,1.858,0,0,0,1.5,1.5.975.975,0,0,0,.333-.049,1.042,1.042,0,0,0,.3-.094,4,4,0,0,0,.534-.361,3.839,3.839,0,0,0,.643-.716,3.607,3.607,0,0,0,.388-.678c.23-.482.415-.983.643-1.466l-.222.466a3.567,3.567,0,0,1,.43-.7l-2.424-2.71-.406,1.138,2.612-.064a2.238,2.238,0,0,1-.151-.361l.166.549a2.275,2.275,0,0,1-.069-.328l.069.615a2.332,2.332,0,0,1-.012-.334l-.04.619a4.747,4.747,0,0,0-.035-1.393,3.125,3.125,0,0,0-.411-1c-.282-.432-.2-.241-.33-.365l.3.334a1.7,1.7,0,0,0-.474-.445,1.051,1.051,0,0,0-.555-.17h-.02a1.243,1.243,0,0,0-.9.515,2.612,2.612,0,0,0-.54,1.307,4.453,4.453,0,0,0-.039.841,5.186,5.186,0,0,0,.146,1.052,6.172,6.172,0,0,0,.242.756,7.015,7.015,0,0,0,.348.659,1.535,1.535,0,0,0,.682.576.771.771,0,0,0,.6.026.866.866,0,0,0,.556-.287,2.113,2.113,0,0,0,.522-.84l.384-1.157a3.071,3.071,0,0,0-.459-2.937,1.181,1.181,0,0,0-.921-.468l-.4.091a1.523,1.523,0,0,0-.648.6,12.911,12.911,0,0,0-1.184,2.523l.219-.46c-.106.222-.213.444-.316.667l.218-.457a2.874,2.874,0,0,1-.332.546l.281-.346a1.88,1.88,0,0,1-.34.333l.328-.223a.493.493,0,0,1-.142.06l.367-.084a.228.228,0,0,1-.09,0l.369.066a.264.264,0,0,1-.071-.031l.334.2a.689.689,0,0,1-.087-.075l.284.318a.9.9,0,0,1-.09-.132l.22.409a3.1,3.1,0,0,1-.181-.457l.139.461a3.678,3.678,0,0,1-.123-.606l.055.481a3.56,3.56,0,0,1-.02-.4,5.837,5.837,0,0,0-.065-.769l.049.428a3.951,3.951,0,0,1-.024-.407l-.023.37c-.117.483,0,.058.046-.059.02-.051.043-.1.065-.152.037-.081.014-.033-.068.144.016-.034.034-.067.052-.1a1.806,1.806,0,0,0,.024-1.693.882.882,0,0,0-.451-.451.607.607,0,0,0-.648.145Z"/><path class="a" d="M56.627,23.906c.655,0,.627-1.484-.037-1.484s-.627,1.484.037,1.484Z"/><path class="d" d="M40.451,33.681c.3-1.243,2.87-1.654,3.837-2.171,1.132-.605,1.163-3.43-.4-3.481-1.859-.061-3.785.571-5.638.751l.464,4.086A34.351,34.351,0,0,1,45.607,30.2a29.475,29.475,0,0,1,7.362-.7,27.4,27.4,0,0,1,7.125.991,11.17,11.17,0,0,1,3.519,1.566c.766.558,2.176,1.6,2.477,2.511l-.207-1.874-.038.345c-.11.992.077,2.547,1.183,2.951s1.765-.865,1.914-1.739c.556-3.245-2.694-6.026-5.291-7.4a22.228,22.228,0,0,0-8.684-2.077,29.338,29.338,0,0,0-17.075,4.1c-1.37.866-1.266,4.589.826,4,1.812-.508,3.834-.629,5.57-1.356l-.979-3.224c-1.007.98-2.5,1.294-3.344,2.475a3.427,3.427,0,0,0-.54,3.151c.25.741.9.307,1.026-.231Z"/><path class="d" d="M45.205,34.975a18.388,18.388,0,0,0,4.344-1.092c1.032-.47,1.025-3.288-.359-3.16a60.254,60.254,0,0,0-6.454.951c-1.719.349-1.559,4.228.1,3.921a40.044,40.044,0,0,0,6.842-2.079c1.394-.53,1.258-4.235-.46-4.047a42.472,42.472,0,0,1-5.571.2l.473,4.167a11.992,11.992,0,0,1,4.26-1.647l-.46-4.045A51.477,51.477,0,0,0,37.3,33.4c-.948.644-.763,3.829.73,3.595a3.625,3.625,0,0,0,2.52-1.573c.6-.808.261-3.631-1.229-2.993-1.111.476-2.3.778-3.436,1.2l1,3.3a15.53,15.53,0,0,1,2.393-2,2.143,2.143,0,0,0,.853-2.134c-.067-.568-.479-1.784-1.282-1.638a8.345,8.345,0,0,0-2.327.734l1.087,3.583a7.362,7.362,0,0,1,1.836-1.68c1.325-.823,1.2-4.317-.786-3.8l-1.087.28,1.542,2.879.357-.907c.436-1.109-.276-3.817-1.851-2.674l-.323.234.652-.287-.357.024.937.56-.1-.134.383,1.927-.2.583-1.259.543.135.025-.4-3.629a47.733,47.733,0,0,0-5.955,8.343A48.585,48.585,0,0,0,28.9,42.332c-.33.777-.633,1.559-.9,2.361a8.757,8.757,0,0,1-.809,2.338l.581-.542-.279.181,1.388,3.381a17.409,17.409,0,0,0,1.7-5.818,13.527,13.527,0,0,1,1.976-5.445,14.749,14.749,0,0,1,9.411-6.865l-.826-4.062c-3.763,4.3-9.313,6.712-11.472,12.333-.424,1.1.03,3.662,1.681,3.137,3-.954,5.464-3.078,8.1-4.715a89.535,89.535,0,0,1,8.738-4.755l-.865-4.192c-3.971,2.653-8.23,5.11-11.114,9.014-.808,1.095-.444,3.607,1.127,3.775,1.535.164,3.182-1.11,4.489-1.783l4.61-2.374,9.439-4.86-.882-4.274-6.966,4.278c-1.9,1.165-4.754,2.293-5.761,4.4-.528,1.1-.517,4.33,1.513,3.686l13.257-4.207L55.2,35.815q.791-2.067-.026-1.2l-.762.606-1.142.91L50.415,38.4l-5.521,4.4a2.9,2.9,0,0,0-.21,3.5c1.448,1.759,3.4.3,5.058-.446q3.216-1.443,6.432-2.891l-1.223-4.03-4.259,4.109c-1.313,1.267-2.8,2.48-2.93,4.434-.059.852.134,2.859,1.468,2.763l1.949-.14.975-.07q-.255-3.524-.733-2.061a4.194,4.194,0,0,0-.322,2.7c.236,1.133.816,1.84,1.992,1.834a12.711,12.711,0,0,0,3.382-.611l-1.4-.523.127.234-.454-1.521c.007-.563-.13.338-.148.46a3.933,3.933,0,0,0,.007,1.3,3.138,3.138,0,0,0,.844,1.737,2.68,2.68,0,0,0,2.891.441c2.247-.977,3.078-3.738,3.494-5.925.541-2.844.954-5.694,1.655-8.508a7.3,7.3,0,0,1,1.449-3.471,12.193,12.193,0,0,1,3.273-2.179c1.7-.878,1.619-4.824-.568-5a7.511,7.511,0,0,1-2.294-.589l.121,4.912a1.473,1.473,0,0,1,1.667.22l.235-3.921c-4.158,3.421-4.65,8.957-4.811,13.961l3.068-.075a15.424,15.424,0,0,1,.832-5.98l-2.811-1.709a50.5,50.5,0,0,0-.574,9.9c.037.84.445,2.16,1.491,2.155s1.383-1.434,1.385-2.226a3.531,3.531,0,0,1,.261-1.273l-2.333.058c-.133-.373-.589.594-.782.854-.383.52-.8,1.011-1.154,1.549a21.951,21.951,0,0,0-1.78,3.331l2.666,1.024a16.978,16.978,0,0,1,1.583-6.914l-2.607-2.21Q59.656,48.927,58.068,56c-.444,1.966,1.824,4.411,2.915,1.771.558-1.351,1.089-2.715,1.625-4.076l-2.876-1.748c-.185,2.028-.367,4.056-.57,6.082L60.58,56.3A10.874,10.874,0,0,0,51.3,61.74l2.46,2.751a5.589,5.589,0,0,1,.927-1.384l-1.937-3.6a40.431,40.431,0,0,0-2.856,5.6l2.384-.529c-3.261-3.733-7.782-6.1-11.017-9.833-1.835-2.116-3.345,1.829-2.06,3.311,3.25,3.749,7.749,6.14,11,9.861.9,1.027,1.884.668,2.385-.529a33.925,33.925,0,0,1,2.4-4.652,3.165,3.165,0,0,0,.044-3.052c-.378-.663-1.3-1.316-1.981-.549a11.837,11.837,0,0,0-1.977,3.08,3.016,3.016,0,0,0,.466,2.982,1.186,1.186,0,0,0,1.994-.23,8.244,8.244,0,0,1,7.166-4.057c.816,0,1.349-1.029,1.418-1.729.2-2.02.421-4.037.639-6.055.1-.941-.046-2.241-.966-2.762-.883-.5-1.578.212-1.911,1.013-.559,1.346-1.124,2.69-1.662,4.046l2.915,1.771q1.386-6.552,3.288-12.974a2.948,2.948,0,0,0-.605-3.067c-.877-.689-1.645.034-2,.857A22.462,22.462,0,0,0,60,51.2c.016,1.709,1.811,3.054,2.665,1.024,1.3-3.091,4.65-5.835,3.648-9.5-.408-1.487-1.755-2-2.482-.431a8.029,8.029,0,0,0-.716,2.78l2.839.513a54.577,54.577,0,0,1,.648-8.678,2.7,2.7,0,0,0-.944-2.7c-.834-.472-1.583.185-1.867.99a21.8,21.8,0,0,0-1.228,8.319c.042.9.473,2.3,1.591,2.3,1.143-.006,1.445-1.53,1.477-2.374.133-3.524.315-7.454,3.5-9.624,1.127-.768.853-2.981.235-3.921a3.813,3.813,0,0,0-4.9-1.53c-1.614.769-1.615,4.264.121,4.912a14.94,14.94,0,0,0,3.188.752L67.2,29.042a10.4,10.4,0,0,0-5.316,4.316c-1.313,2.436-1.655,5.48-2.114,8.176-.384,2.252-.36,4.779-1.113,6.944a2.612,2.612,0,0,1-.579,1.022c-.285.288-.631.283-.913.466a.5.5,0,0,1-.316-.053l.489,1.767c.108-.077.189-.7.207-.818a3.534,3.534,0,0,0-.3-2.174c-.366-.69-.813-1.18-1.631-.956a12.168,12.168,0,0,1-3.067.4l1.032.617c.7,1.132.032,2.02.39,1.375a3.474,3.474,0,0,0,.3-.979,3.614,3.614,0,0,0-.34-2.474c-.966-1.654-3.221-.965-4.8-.854l1.468,2.763c.025-.353.718-.843.983-1.1l1.7-1.639,3.239-3.115c1-.96.776-4.924-1.222-4.03l-4.882,2.183-2.218,1c-.4.179-1.622,1-2.028.85l.659.557-.152-.185-.21,3.5L53.508,41c2.082-1.659,5.225-3.286,4.483-6.433-.206-.873-.809-1.837-1.836-1.511L42.9,37.258l1.514,3.685c.463-.969,1.573-1.427,2.45-1.966l2.869-1.761,6.146-3.775a2.574,2.574,0,0,0,.954-2.763c-.155-.741-.877-2.005-1.836-1.511l-9,4.635L41.6,36.062l-2.2,1.131a4.226,4.226,0,0,1-2.179.813l1.126,3.775c2.5-3.39,6.405-5.6,9.835-7.92a2.554,2.554,0,0,0,.936-2.71c-.157-.749-.851-1.942-1.8-1.482A89.526,89.526,0,0,0,38.6,34.487c-2.621,1.649-5.118,3.752-8.107,4.692l1.681,3.137c1.843-4.763,7.281-7.037,10.511-10.709a2.867,2.867,0,0,0,.6-2.489c-.121-.579-.648-1.731-1.425-1.574a16.482,16.482,0,0,0-10.689,7.207,17.958,17.958,0,0,0-2.788,6.3c-.434,2.068-.339,4.3-1.468,6.155a2.858,2.858,0,0,0-.149,2.48c.229.526.881,1.285,1.537.9,1.482-.865,1.739-2.7,2.307-4.2a49.656,49.656,0,0,1,2.037-4.8,42.866,42.866,0,0,1,5.837-8.777c.648-.748,1.054-3.359-.4-3.629l-.134-.025a1.118,1.118,0,0,0-1.259.542,2.908,2.908,0,0,0-.044,3.117c.657.987,1.555.742,2.372.143l-1.851-2.674-.353.909c-.416,1.07.029,3.277,1.542,2.879l1.087-.286-.786-3.8a10.543,10.543,0,0,0-2.7,2.422c-.673.838-.223,4.064,1.342,3.269a9.366,9.366,0,0,1,1.973-.752l-1.06-3.494a20.689,20.689,0,0,0-2.613,2.39c-.739.8-.7,4.012,1,3.3a16.378,16.378,0,0,1,3.119-1.147l-.682-3.353a1.344,1.344,0,0,1-1.107.5l.432,3.8a84.078,84.078,0,0,1,10.37-4.808c1.415-.5,1.226-4.288-.459-4.044a13.8,13.8,0,0,0-5,1.692c-1.306.755-1.428,4.107.474,4.167a34.125,34.125,0,0,0,5.569-.324l-.46-4.047c-2.122.863-4.29,1.484-6.46,2.2l.777,3.763a58.976,58.976,0,0,1,6.1-1.569l-.359-3.16c-1.354.788-2.556,1.8-3.879,2.657-.4.26-.54,1.66.174,1.531Z"/><path class="d" d="M31.665,41.887a50.429,50.429,0,0,0-.606,5.285l2.28-.056c.034-.733.07-1.461.083-2.2.014-.791-.6-2.265-1.65-1.822-2.22.935-3.717,3.049-2.76,5.527a3.6,3.6,0,0,0,1.62,1.862,7.41,7.41,0,0,1,1.885,1.123l.637-4.179a5.113,5.113,0,0,1-2.314-.986c-.871-.654-1.744-.013-2.07.886A3.094,3.094,0,0,0,29.4,50.5a11.7,11.7,0,0,0,5.275,2.727c1.648.494,3.745.928,4.921,2.3L41,51.57a6.943,6.943,0,0,1-2.25-1.5l-1.453,4.084A9.927,9.927,0,0,1,39.514,56.7l1.766-3.709c-1.886-1.206-2.79-3.7-4.162-5.412-1.527-1.909-3.377-3.771-3.685-6.3L30.98,43.565c1.586,2.419,3.179,4.834,4.751,7.262a1.164,1.164,0,0,0,1.964.13,3.054,3.054,0,0,0,.313-2.942l-2.83-7.231-2.565,2.4c2.208,4.488,4.439,9.079,7.714,12.9a1.267,1.267,0,0,0,2.208-.054,3.311,3.311,0,0,0-.083-3.363,65.945,65.945,0,0,1-5.438-10.734l-2.307,2.85c3.075,5.2,6.1,10.43,9.146,15.651L45.925,57.1c-3.181-5.169-6.466-10.316-8.708-15.982l-2.211,2.732c3.586,6.036,7.27,12.077,11.356,17.791a1.186,1.186,0,0,0,2,.132,3.093,3.093,0,0,0,.318-2.99c-1.275-3.146-3.5-5.872-5.193-8.8a30.436,30.436,0,0,1-3.662-9.022l-2.6,1.761A105.589,105.589,0,0,0,49.032,61.9a1.211,1.211,0,0,0,2.114-.052,3.14,3.14,0,0,0-.079-3.22q-3-4.6-5.779-9.34a46.768,46.768,0,0,1-4.41-9.4l-2.2,2.723q4.962,8.994,10.441,17.692a1.2,1.2,0,0,0,2.025.133,3.12,3.12,0,0,0,.322-3.032c-2.433-5.694-6.3-10.676-8.326-16.556l-2.285,2.822A132.023,132.023,0,0,0,50.191,57.2c1.7,2.061,3.114-1.364,2.337-2.887-2.209-4.328-4.444-8.642-6.669-12.962L43.5,44.265q4.284,7.186,8.583,14.362a1.2,1.2,0,0,0,1.693.443,2.5,2.5,0,0,0,.893-2.164c-.19-3.194-2.156-5.738-3.558-8.5A33.314,33.314,0,0,1,48,40.136l-2.4,2.234,4.611,8.112a1.177,1.177,0,0,0,2.067-.051,3.1,3.1,0,0,0-.077-3.148l-4.6-8.124a1.152,1.152,0,0,0-1.787-.306,2.788,2.788,0,0,0-.613,2.54,35.827,35.827,0,0,0,2.874,8.232c.594,1.238,1.234,2.455,1.877,3.668.582,1.1,1.572,2.414,1.64,3.688l2.585-1.721q-4.265-7.2-8.573-14.378a1.2,1.2,0,0,0-2.034-.134,3.081,3.081,0,0,0-.323,3.047c2.228,4.314,4.447,8.634,6.691,12.941l2.337-2.887A117.889,117.889,0,0,1,42.89,40.4a1.169,1.169,0,0,0-1.971-.13,3.113,3.113,0,0,0-.313,2.952c2,5.9,5.844,10.909,8.257,16.621l2.347-2.9Q45.6,48.392,40.641,39.451a1.126,1.126,0,0,0-1.9-.126,3.021,3.021,0,0,0-.3,2.849c2.3,7.138,6.877,13.3,10.6,19.73l2.035-3.272a129.651,129.651,0,0,1-11.4-18.186c-.355-.718-1.013-1.373-1.828-.857a2.593,2.593,0,0,0-.773,2.619,35.375,35.375,0,0,0,3.818,9.92c.824,1.509,1.718,2.979,2.64,4.43a24.646,24.646,0,0,1,2.595,4.625l2.313-2.858c-3.871-5.852-7.8-11.647-11.448-17.645a1.13,1.13,0,0,0-1.908-.126,2.957,2.957,0,0,0-.3,2.858,112.25,112.25,0,0,0,9.085,17.025,1.227,1.227,0,0,0,2.153-.053,3.231,3.231,0,0,0-.081-3.28c-3.059-5.206-6.132-10.4-9.159-15.629a1.178,1.178,0,0,0-1.99-.131,3.124,3.124,0,0,0-.317,2.982,72.366,72.366,0,0,0,5.868,11.761l2.125-3.417a59.347,59.347,0,0,1-7.274-11.886c-.412-.821-1.243-1.52-2.1-.778a3.02,3.02,0,0,0-.467,3.177l2.873,7.19,2.277-2.813c-1.592-2.418-3.163-4.851-4.741-7.279a1.183,1.183,0,0,0-1.827-.313,2.946,2.946,0,0,0-.626,2.6c.372,3.15,2.3,5.62,4.224,8.009A31.945,31.945,0,0,1,37.2,54.066a8.9,8.9,0,0,0,2.634,2.992,1.26,1.26,0,0,0,1.96-.649,3.259,3.259,0,0,0-.2-3.06,13.037,13.037,0,0,0-2.852-3.275c-.854-.7-1.768.022-2.084.892a3.1,3.1,0,0,0,.631,3.192,9.48,9.48,0,0,0,2.995,1.96c1.943.81,2.229-2.992,1.4-3.961a10.9,10.9,0,0,0-5.422-3.225c-1.908-.588-3.954-1.057-5.429-2.486L29.4,50.5a7.351,7.351,0,0,0,3.868,1.4c.812.058,1.275-1.049,1.374-1.674a2.871,2.871,0,0,0-.736-2.5,6.153,6.153,0,0,0-2.043-1.129c-.559-.224-.68-.59-.506.3.208,1.065,0,.569.419.385.247-.107.529-.341.765-.473l-1.65-1.822c.044.732.109,1.458.172,2.189.057.665.335,1.713,1.183,1.709.8-.005,1.148-1.138,1.1-1.765a50.817,50.817,0,0,0-.759-5.252c-.124-.664-.813-.63-.915.023Z"/><path class="d" d="M40.076,44.276c1.384,3.7,3.012,7.312,4.653,10.907,1.472,3.223,2.586,7.065,4.937,9.776.743.857,1.587.563,2-.443a20.656,20.656,0,0,1,7.3-8.882l-1.351-3.277a64.729,64.729,0,0,0-7.117,6.379l1.885,2.723a28.4,28.4,0,0,1,1.093-3.444c.154-.39,1.053-2.908,1.492-2.9l-.666-.255c-.252-.158-.084-.249-.041.235.035.4.11.793.165,1.187q.149,1.069.3,2.137c.2,1.4,1.987,2.07,2.447.425a9.446,9.446,0,0,0,.123-5.069l-2.113,1.967a8.69,8.69,0,0,0,1.665,1.878,1.121,1.121,0,0,0,1.753-.75c.914-3.36-.846-6.6-2.229-9.593a30.286,30.286,0,0,1-3.053-8.764l-2.4,2.238c1.038,1.653,1.27,3.661,1.745,5.517a13.007,13.007,0,0,0,2.9,5.855c1.06,1.154,2.134-.652,2.282-1.493a33.128,33.128,0,0,0-.194-9.879l-3.024,1.358A48.107,48.107,0,0,0,56.739,49.9c.323.83,1.164,1.479,2.01.943.912-.578,1-1.931.851-2.88Q59.057,44.6,58.24,41.3L55.371,43.24l2.136,6.181a1.406,1.406,0,0,0,2.761-.067,14.514,14.514,0,0,0,.407-5.789,16.524,16.524,0,0,1-.182-5.233l-1.934,1.757a2.81,2.81,0,0,1-.266-.307,4.62,4.62,0,0,0,.289,1.189l.522,2.14c.2.837.778,1.934,1.808,1.712s1.315-1.552,1.336-2.441l.111-4.586-2.374,2.179,1.208,1.11c1.172,1.076,2.125-.578,2.333-1.527a52.109,52.109,0,0,0,1.111-7.872c.067-1.047-.054-2.535-1.2-3a32.617,32.617,0,0,0-13.045-2.4c-1.375.032-1.785,2.177-1.492,3.175A3.034,3.034,0,0,0,51.2,31.931c1.2.277,2.441.432,3.665.59A27.437,27.437,0,0,1,62.035,34.1l-.116-4.728a37.761,37.761,0,0,0-5.134,3.337,4.828,4.828,0,0,0-.734,6.06c.953,1.628,2.43.061,2.639-1.137a30.149,30.149,0,0,0,.414-6.607l-2.938,1.3a19.864,19.864,0,0,0,3.45,6.787c1.645,1.884,3-.819,2.616-2.436a11.085,11.085,0,0,0-1.462-3.488,1.25,1.25,0,0,0-2.109-.139,3.218,3.218,0,0,0-.336,3.158,13.006,13.006,0,0,1,.563,1.335q.041.373.069-.184a1.209,1.209,0,0,1-.35.393,3.707,3.707,0,0,1-2.35,1.1l.822.315.018.15q-.129-.294-.232-.6a6.447,6.447,0,0,1-.217-.863,8.326,8.326,0,0,1-.084-1.906L53.847,37.76a27.935,27.935,0,0,1,2.379,4.481l1.31-3.752c-4.615.642-5.832,5.948-3.781,9.584a1.237,1.237,0,0,0,1.919.329,2.926,2.926,0,0,0,.658-2.729l-.209-.713c-.251-.862-.855-2.023-1.948-1.6-1.029.395-1.209,2.036-1.012,2.933l.161.735L56.159,45.1c-.194-.412-.289-.43.006-.885a2.222,2.222,0,0,1,1.492-.787c1.628-.232,1.826-2.532,1.31-3.753a34.205,34.205,0,0,0-2.919-5.457,1.266,1.266,0,0,0-1.779-.466,2.721,2.721,0,0,0-.939,2.275,13.119,13.119,0,0,0,1.044,5.837,2.963,2.963,0,0,0,1.789,1.857,3.22,3.22,0,0,0,2.288-.546,6.309,6.309,0,0,0,3.378-3.55,8.057,8.057,0,0,0-.8-5.954l-2.445,3.019a4.227,4.227,0,0,1,.59,1.352l2.616-2.437a16.678,16.678,0,0,1-2.937-5.8,1.48,1.48,0,0,0-1.826-1.071A2.491,2.491,0,0,0,55.918,31.1a23.288,23.288,0,0,1-.335,5.312l2.639-1.137q-.535,2.428.281,1.6a3.075,3.075,0,0,1,.519-.373c.377-.255.775-.485,1.16-.727l2.709-1.7c1.448-.906,1.64-3.985-.116-4.728a23.922,23.922,0,0,0-5.864-1.481c-1.009-.15-2.022-.27-3.031-.416-.708-.1-2.056-.072-2.581-.576l.784,1.463L52,28.061l-1.492,3.174a30.154,30.154,0,0,1,12.18,2.221l-1.246-2.347a48.055,48.055,0,0,1-1.06,7.219L62.717,36.8,61.508,35.7c-1.429-1.308-2.349,1.138-2.373,2.18l-.1,4.586,3.145-.729c-.519-2.119-.68-5.292-2.878-6.381-1.085-.537-1.774,1-1.933,1.757a16.866,16.866,0,0,0-.03,5.487,11.167,11.167,0,0,1,.113,4.368l2.761-.068-2.143-6.174a1.4,1.4,0,0,0-2.016-.945,2.835,2.835,0,0,0-.853,2.888q.822,3.3,1.369,6.661l2.861-1.938a40.854,40.854,0,0,1-1.779-6.64c-.188-.905-.921-2.048-1.99-1.637-1.111.426-1.152,2.054-1.034,2.995a24.571,24.571,0,0,1,.144,7.318l2.282-1.493c-1.162-1.26-1.5-3.1-1.9-4.7a18.139,18.139,0,0,0-2.236-5.7,1.16,1.16,0,0,0-1.79-.307,2.849,2.849,0,0,0-.614,2.546,28.151,28.151,0,0,0,2.709,7.971c.577,1.2,1.181,2.391,1.742,3.6.533,1.15,1.557,2.775,1.235,4.064l1.872-1.224a4.7,4.7,0,0,1-1.129-1.271,1.017,1.017,0,0,0-1.573-.269,2.428,2.428,0,0,0-.539,2.237,3.493,3.493,0,0,1-.008,1.97l2.447.425c-.2-1.341-.594-7.948-3.476-5.8-1.062.792-1.616,2.412-2.14,3.583a31.673,31.673,0,0,0-1.612,4.415A2.888,2.888,0,0,0,50.3,61.92a1.052,1.052,0,0,0,1.617.277c2.3-2.247,4.647-4.422,7.042-6.563,1.135-1.016.378-4.521-1.351-3.277a25.547,25.547,0,0,0-8.2,10.25l2-.443a22.82,22.82,0,0,1-2.482-4.445c-.8-1.694-1.667-3.355-2.54-5.01A52.3,52.3,0,0,0,40.545,43.7c-.358-.433-.58.284-.469.58Z"/><path class="c" d="M27.029,25.085c-2.3-1.882-5.579.26-6.872,2.394-1.675,2.765-1.156,6.538.292,9.284a6.926,6.926,0,0,0,1.362,1.787c.48.466.848.664.895,1.222.128,1.54-.83,3.19-1.123,4.671a6.415,6.415,0,0,0,.754,4.563c.14.255.548.85.5,1.168.088-.59-.547.193-.652.315a5.524,5.524,0,0,0-.806,1.2c-1.3,2.707.612,7.239,3.958,7.07,1.31-.067,1.4-2.893.2-3.191-.919-.228-2.714-.784-2.565-2.092.09-.788,1.23-1.368,1.534-2.13a4.312,4.312,0,0,0,.1-2.288c-.244-1.289-1.308-2.381-1.141-3.672.217-1.676,1.2-3.152,1.439-4.852a5.238,5.238,0,0,0-1.319-4.671A6.259,6.259,0,0,1,21.7,31.822c-.347-3.6,3.343-4.084,5.345-6.164a.427.427,0,0,0-.014-.573Z"/><path class="c" d="M64.025,58.2c.474-1.416.97-2.824,1.468-4.233a30.829,30.829,0,0,1,1.678-4.34,22.108,22.108,0,0,1,1.31-2.068A5.581,5.581,0,0,0,69.6,45.817a3.524,3.524,0,0,0-.071-1.586,7.972,7.972,0,0,1-.226-3.006,8.445,8.445,0,0,1,1.242-4.316c.487-.651,1.095-1.191,1.563-1.863.433-.621.763-1.3,1.16-1.943A15.373,15.373,0,0,1,75.762,30.2c.895-.863,2.151-1.518,2.848-2.544.391-.576.413-2.23-.485-2.437-1.642-.379-3.445,1.776-4.464,2.838-1.441,1.5-2.523,3.343-4.032,4.766a9.137,9.137,0,0,0-2.756,6.62,10,10,0,0,0,.409,3.845c.294.891.66,2.27,1.539,2.751l-.485-.7.05.211.27-1.121a12.554,12.554,0,0,0-2.641,2.243,12.791,12.791,0,0,0-1.87,3.635c-.81,2.472-1.819,5.03-1.415,7.673.117.766,1.012,1.068,1.3.225Z"/><path class="c" d="M53.867,70.784A12.324,12.324,0,0,1,61.13,60.512c.486-.254.343-1.555-.267-1.293-4.48,1.919-7.88,6.451-7.566,11.462.026.415.5.62.57.1Z"/><path class="e" d="M52.834,68.4l-.107.082-.128.159a.871.871,0,0,0-.127.324.7.7,0,0,0-.039.252.761.761,0,0,0,.007.265,1.041,1.041,0,0,0,.086.368l.107.2.137.152a.375.375,0,0,0,.246.112.221.221,0,0,0,.173,0,.252.252,0,0,0,.164-.072.509.509,0,0,0,.2-.211l.1-.2.06-.24.017-.265a1.073,1.073,0,0,0-.065-.382.868.868,0,0,0-.144-.317l-.081-.114-.1-.117a.286.286,0,0,0-.188-.086.171.171,0,0,0-.133,0,.285.285,0,0,0-.183.095Z"/><path d="M23.438,49.31c-.82-.2-1.233-2.063-1.371-2.775a9.121,9.121,0,0,1,.23-3.989,12.208,12.208,0,0,0,.655-2.247,2.313,2.313,0,0,0-.776-1.636c-2.926-3.642-3.557-9.547.946-12.245a6.3,6.3,0,0,1,5.425-.569,3.5,3.5,0,0,0,2.349.24,5.273,5.273,0,0,0,1.909-1.639,10.361,10.361,0,0,1,10.781-2.81.524.524,0,0,0,.538-.121c4.162-4.709,12.163-3.023,13.524,3.3.283,1.316,1.462.487,1.266-.568A9.386,9.386,0,0,0,52.6,16.989a9.045,9.045,0,0,0-9.224,2.7l.538-.121a11.566,11.566,0,0,0-9.676,1.667,10.607,10.607,0,0,0-1.772,1.519c-.65.7-1.192,1.654-2.2,1.83-.913.16-1.94-.473-2.861-.6a6.33,6.33,0,0,0-2.258.106A8.337,8.337,0,0,0,19,30.381a10.463,10.463,0,0,0,.4,5.641,12.03,12.03,0,0,0,1.165,2.429,12.725,12.725,0,0,0,.929,1.307c.38.465.421.273.312.813-.414,2.039-1.087,3.838-.681,5.964.19,1,.91,3.486,2.274,3.38.246-.019.268-.548.039-.6Z"/><path d="M52.413,70.949c-5.763-.017-11.787.052-16.47-3.8a26.908,26.908,0,0,1-5.73-6.656c-.842-1.36-1.588-2.946-3.265-3.37-1.81-.457-4.02-.457-5.18-2.2-1.77-2.665,2.852-4.064,4.69-3.891a7.21,7.21,0,0,1,3.9,1.679,7.662,7.662,0,0,0,1.512,1.079,11.236,11.236,0,0,0,2.164.54c2.826.706,3.969,3.173,5.384,5.42a7.454,7.454,0,0,0,3.06,2.493,27.922,27.922,0,0,1,3.67,2.386A25.87,25.87,0,0,1,52.2,71.315c.611.966,1.271-.7.851-1.368a27.231,27.231,0,0,0-5.831-6.64,28.554,28.554,0,0,0-3.393-2.361c-1.556-.928-2.933-1.541-3.84-3.192-1.27-2.314-2.97-4.723-5.614-5.548a14.193,14.193,0,0,1-2.156-.59c-.792-.394-1.405-1.1-2.154-1.575A8.144,8.144,0,0,0,26.2,48.817c-2.425-.141-5.094,1.1-5.951,3.5a4.788,4.788,0,0,0,2.461,5.764,9.8,9.8,0,0,0,3.055.9,3.427,3.427,0,0,1,2.032.728,17.879,17.879,0,0,1,2.1,3.148,29.983,29.983,0,0,0,2.94,3.707,17.744,17.744,0,0,0,8.634,5.507c3.647.9,7.327.351,10.964-.273.365-.063.367-.848-.021-.85Z"/><path d="M51.539,70.871a14.308,14.308,0,0,0,9.58.662A21.216,21.216,0,0,0,69.761,66.9c5.294-4.593,8.042-11.649,8.5-18.529a41.9,41.9,0,0,0-.842-12.381c-.116-.5-.5-1.061-1.07-.743s-.485,1.2-.331,1.692c2.544,8.163,1.493,17.356-3.916,24.17a23.192,23.192,0,0,1-9.084,6.96,28.845,28.845,0,0,1-11.417,1.9c-.4,0-.349.769-.057.894Z"/><path d="M52.125,71.388a14.338,14.338,0,0,1,5.643-8.713c2.943-2.095,6.454-2.357,9.778-3.489A8.92,8.92,0,0,0,73.6,53.021c.847-3.058.5-6.256.69-9.384a10.465,10.465,0,0,1,1.03-4.4,10.053,10.053,0,0,1,3.4-3.2c2.546-1.78,4.368-4.436,2.922-7.591A5.794,5.794,0,0,0,74.109,25.5a8.636,8.636,0,0,0-3.575,2.972c-1.166,1.609-1.585,3.581-2.6,5.271A13.518,13.518,0,0,0,65.9,42.635c.068.569.232,1.122.3,1.687a2.578,2.578,0,0,1-.614,1.937c-2.452,3.585-4.394,7.839-3.937,12.3.086.843,1.112,1.36,1.215.219.349-3.864,1.153-7.268,3.469-10.46a5.517,5.517,0,0,0,1.347-4.411,12.04,12.04,0,0,1,.055-5.723c.529-1.778,1.7-3.208,2.394-4.91a10.777,10.777,0,0,1,2.688-4.463,5.534,5.534,0,0,1,4.319-1.472,4.071,4.071,0,0,1,3.418,2.968c.226,1.511-1.358,2.655-2.42,3.447A16.159,16.159,0,0,0,75,36.454c-1.752,2.192-2.132,5.017-2.23,7.737-.1,2.789.258,5.8-.7,8.474-1.112,3.113-4.106,4.254-7.067,5.009-3.495.891-6.722,1.769-9.388,4.35a14.651,14.651,0,0,0-4.461,8.982c-.085.792.766,1.387.974.382Z"/><path d="M27.171,49.266c.523-3.55.826-6.893,2.43-10.179a25.144,25.144,0,0,1,6.446-8.261c5.96-4.979,14.146-6.588,21.69-5.169,4.346.817,9.064,2.569,12.311,5.657.9.86,1.444-1.4.735-2.067-3.077-2.9-7.417-4.636-11.489-5.559A29.662,29.662,0,0,0,46.656,23.5a25.451,25.451,0,0,0-17.712,13.67c-1.7,3.527-3.144,8.182-2.125,12.105.062.241.313.257.352-.008Z"/><path d="M52.443,17.566a4.315,4.315,0,0,1,2.719-1.8,12.612,12.612,0,0,1,4.284-1.037,3.643,3.643,0,0,1,3.276,1.709,10.435,10.435,0,0,0,1.244,2.6c.74.788,1.711.765,2.711.889A10.843,10.843,0,0,1,75,25.951c.618,1.316,1.7-.216,1.235-1.154a12.352,12.352,0,0,0-5.263-5.5A11.47,11.47,0,0,0,67.3,18.071a10.646,10.646,0,0,1-2.15-.251c-.745-.285-.917-1.061-1.182-1.733-1.047-2.651-3.6-3.425-6.245-2.794-2.086.5-5.286,1.494-5.608,4-.021.157.178.565.328.277Z"/><path d="M39.372,32.568a37.885,37.885,0,0,1,7.109,7.284,42.611,42.611,0,0,1,5.733,8.8,18.149,18.149,0,0,1,1.377,9.777A34.57,34.57,0,0,1,52.579,63.6c-.431,1.564-1.2,3.1-1.5,4.688-.079.418.356,1.226.755.637A18.518,18.518,0,0,0,53.637,64a41.337,41.337,0,0,0,1.3-5.475,20.11,20.11,0,0,0-1.129-10.561,37.019,37.019,0,0,0-6.08-9.737c-2.1-2.584-4.575-6.21-8.02-7-.668-.155-.752,1.039-.337,1.347Z"/><path d="M53.435,30.821c-.605.592-1.25,1.144-1.843,1.75a12.761,12.761,0,0,0-1.429,1.811,16.5,16.5,0,0,0-2.089,4.571,1.388,1.388,0,0,0,.284,1.437c.375.308.816,0,.938-.4a31.238,31.238,0,0,1,1.617-4.522c.327-.685.724-1.326,1.112-1.976A16.835,16.835,0,0,1,53.6,31.222c.113-.133.023-.585-.165-.4Z"/><path d="M33.931,46.751a44.07,44.07,0,0,0,5.463-.073,28.915,28.915,0,0,1,5.1-.111,17.524,17.524,0,0,1,4.588,1.279,19.509,19.509,0,0,1,1.959.947,9.7,9.7,0,0,0,1.973,1.141c.666.173.715-.92.456-1.285-.817-1.149-2.573-1.872-3.826-2.425a17.673,17.673,0,0,0-4.757-1.379,16.988,16.988,0,0,0-5.354.27,47.511,47.511,0,0,0-5.645,1.292c-.131.041-.1.335.04.344Z"/><path d="M41.812,54.346c2.093.751,4.354.923,6.451,1.682A25.505,25.505,0,0,1,51.256,57.3c.479.246.93.536,1.4.8.425.24,1.067.719,1.547.44a.979.979,0,0,0,.363-1.055c-.262-1.2-1.67-1.892-2.672-2.429a12.963,12.963,0,0,0-3.279-1.273,9.61,9.61,0,0,0-6.8.477c-.027.015-.03.074,0,.085Z"/><path d="M59.44,36.521a30.25,30.25,0,0,0-4.4,5.362c-1.323,1.99-2.535,4.176-2.2,6.65.052.384.378.861.811.768.463-.1.594-.7.6-1.095.025-2.043,1.058-3.82,2.045-5.552,1.106-1.94,2.233-3.865,3.32-5.815.057-.1,0-.475-.171-.318Z"/><path d="M35.42,38c3.89-.244,8.383.007,11.69,2.323.953.667,1.427-1.521.48-1.913a21.966,21.966,0,0,0-6.029-1.749,12.828,12.828,0,0,0-6.2.793c-.187.076-.173.561.062.546Z"/></svg>