<svg xmlns="http://www.w3.org/2000/svg" width="100" height="100" viewBox="0 0 100 100"><defs><style>.a{fill:#74ce83;}.b{fill:#85d492;}.c{fill:#ace2b4;}.d{fill:#65c975;}</style></defs><title>cabbage-green</title><path class="a" d="M48.88,73.641a7.156,7.156,0,0,0,1.148.292l.54.066.249.03a.786.786,0,0,0,.29-.008.416.416,0,0,0,.279-.1.569.569,0,0,0,.23-.236,1.438,1.438,0,0,0,.194-.792c-.025-.464-.22-1.05-.758-1.095a.619.619,0,0,0-.222.012c-.073.017-.146.034-.218.053l-.239.063-.517.137a6.625,6.625,0,0,0-1,.413.627.627,0,0,0-.278.591,1.016,1.016,0,0,0,.062.3.479.479,0,0,0,.244.273Z"/><path class="a" d="M56.445,24.924c-2.506-4.143-8.8-5.236-12.459-2.013l1.058-.238-.235-.072.62.524-.137-.224.439,1.468,0-.271-.365,1.484c.217-.367,1.357-.648,1.757-.763A9.346,9.346,0,0,1,54.2,25.8l.592-3.883c-2.119-.051-3.991-1.381-6.14-1.3a13.533,13.533,0,0,0-3.208.757,30.972,30.972,0,0,1-3.7.747c-4.314.689-8.589,1.309-11.21,5.238a3.3,3.3,0,0,0-.173,2.889c.247.589,1.054,1.53,1.791,1.05C34.062,30.05,36,28.7,38.324,28.441l-.512-4.5a69.753,69.753,0,0,0-12.184,8.233L27.952,34.1a5.05,5.05,0,0,1,1.187-2.673c.828-1.093.472-3.82-1.174-3.93a7.475,7.475,0,0,0-7.673,6.136c-.661,3.544,1.013,7.854,4.632,9.048,1.142.376,1.737-.856,1.934-1.758a16.8,16.8,0,0,1,2.532-5.713,3.231,3.231,0,0,0,.046-3.142c-.4-.7-1.323-1.335-2.04-.566-4.239,4.547-3.65,10.929-4.917,16.594l1.847-1.678.251.571L21.9,48.173c.63,1.217,1.118,2.519,1.659,3.778.357.83,1.2,1.407,2,.743a2.856,2.856,0,0,0,.446-3.031c-.561-1.252-1.186-2.493-1.659-3.78-.627-1.705-2.493-.994-2.636.592a4.528,4.528,0,0,0,1.533,4.245c.85.633,1.788.052,2.078-.89a54.013,54.013,0,0,0,1.334-8.213,10.754,10.754,0,0,1,2.42-6.023l-1.993-3.707a23.438,23.438,0,0,0-3.212,7.226l1.786-1.169c-1.2-.466-2.648-1.746-2.249-3.175.531-1.9,2.915-2.74,4.666-2.634l-1.173-3.93a10.591,10.591,0,0,0-1.978,5.972c-.062,1.156,1.059,3.02,2.324,1.933a57.8,57.8,0,0,1,11.471-7.761A2.489,2.489,0,0,0,39.742,25.8c-.094-.746-.548-2.04-1.531-1.955a15.245,15.245,0,0,0-7,2.878l1.617,3.939c2.141-3.33,6.851-3.836,10.39-4.5a30.36,30.36,0,0,0,3.065-.72,8.844,8.844,0,0,1,2.862-.62c1.973.071,3.737,1.213,5.747,1.242.878.012,1.256-1.15,1.294-1.832a2.318,2.318,0,0,0-1.032-2.253,10.833,10.833,0,0,0-6.98-1.464c-2.376.322-5.517,1.208-5.157,4.2.147,1.217,1.159,2.634,2.45,1.792a9.717,9.717,0,0,1,3.318-1.594c2.666-.575,4.722.743,7.042,1.757.916.4.869-1.331.618-1.745Z"/><path class="a" d="M21.681,57.321a15.791,15.791,0,0,1,3.831-.236,1.628,1.628,0,0,1,.383.083q1.686.567.108-3.048a4.233,4.233,0,0,0-1.056-.015c-.846-.019-1.692-.041-2.538-.051-2.19-.027-1.727,3.991-.3,4.73a9.614,9.614,0,0,0,7.605.5c1.034-.349,1.27-2.146,1.036-3A3.7,3.7,0,0,0,28.867,53.7l-.73,4.692c4.645,1.292,9.342,4.007,10.912,8.833L41.176,63.8a41.412,41.412,0,0,1-6.054-4.577c-1.735-1.593-3.374-3.372-5.926-2.717-1.577.4-1.378,3.693-.273,4.47a19.434,19.434,0,0,1,5.74,6.265l1.858-3.9-3.237-3.42c-.727-.769-1.725-.036-2.069.684a3.418,3.418,0,0,0,.206,3.228c2.277,3.589,5.083,7.141,9.615,7.577.788.075,1.3-.974,1.45-1.56a3.461,3.461,0,0,0-.4-2.7,1.425,1.425,0,0,1-.23-.552l-1.491,3.174c1.661-.158,2.768,1.085,3.878,2.145a7.751,7.751,0,0,0,4.1,2.336c1,.175,1.474-1.477,1.511-2.14a2.613,2.613,0,0,0-1.2-2.631c-3.542-1.5-8.2-.937-11.156-3.628-.861-.783-1.856.064-2.171.929a3.228,3.228,0,0,0,.657,3.325c3.267,3.181,8.16,2.036,11.939,4.069l.731-4.7c-3.243-.861-4.627-4.994-8.408-4.664-1.431.124-1.706,2.087-1.491,3.174a7.4,7.4,0,0,0,1.119,2.719l1.047-4.258c-3.484-.324-5.579-3.467-7.3-6.157l-1.863,3.913q1.622,1.7,3.241,3.409c.727.764,1.719.037,2.063-.683a3.454,3.454,0,0,0-.2-3.219,22.048,22.048,0,0,0-6.419-6.994L30.164,61.2c.777-.2,1.564.559,2.086,1.021.79.7,1.525,1.458,2.325,2.149a40.115,40.115,0,0,0,5.075,3.725c2.126,1.32,2.571-2.069,2.127-3.419C39.886,58.921,34.5,55.238,28.867,53.7c-2.4-.656-2.4,3.791-.73,4.692l-.422-.747,1.036-3a7.417,7.417,0,0,1-5.921-.51l-.3,4.73c1.383.01,3.411.366,4.691-.283,1.572-.8,1.846-3.21,1.054-4.621-.742-1.32-2.293-1.385-3.644-1.137a4.913,4.913,0,0,0-3.53,2.549c-.266.49-.318,2.027.583,1.953Z"/><path class="a" d="M54.087,70.3,52.9,69.743l.083,3.349a24.349,24.349,0,0,0,3.269-2.1,29.8,29.8,0,0,1,3.453-2.054,21.309,21.309,0,0,1,7.666-2.3l-.622-5.471a107.048,107.048,0,0,1-13.512,6.147c-1.212.452-1.274,2.283-1.137,3.3.351,2.589,2.545,2.839,4.629,2.394a30.148,30.148,0,0,0,6.144-1.958c3.763-1.7,7.349-4.48,9.227-8.237.722-1.443.623-5.251-1.877-4.573a8.96,8.96,0,0,0-4.313,2.676,3.441,3.441,0,0,0-.723,3c.147.7.778,2.077,1.716,1.894a12.256,12.256,0,0,0,9.117-8.54,18.9,18.9,0,0,0,.827-7.231c-.137-1.819-.743-3.922.442-5.491,1.277-1.691-.576-5.9-2.407-3.478-2.6,3.446-1.011,7.852-1.509,11.767-.461,3.626-2.764,7.117-6.6,7.7l.994,4.889a5.7,5.7,0,0,1,3.07-1.77l-1.4-4.684a16.312,16.312,0,0,1-6.47,6.322,24.565,24.565,0,0,1-4.483,1.877c-.682.212-1.372.4-2.07.552-.359.079-.728.169-1.094.212-.6.07-.6-.177-.341.259l.477,1.161-.033-.233-1.137,3.3c4.606-1.743,9.152-3.7,13.566-5.884,1.086-.537,1.374-2.009,1.238-3.095-.109-.866-.676-2.533-1.86-2.376a22.529,22.529,0,0,0-8.546,2.952c-2.576,1.537-5.347,3.575-6.885,6.212a2.372,2.372,0,0,0,.06,2.455.913.913,0,0,0,1.613-.039l.76-1.591c.111-.23.129-.618-.148-.747Z"/><path class="a" d="M67.42,51.844a6.283,6.283,0,0,0-.056.685l.116-.761,0,.014.147-.309a3.98,3.98,0,0,0-.243.546c-.056.179-.1.364-.139.546a1.807,1.807,0,0,0-.031.319,2.176,2.176,0,0,0,.041.754l0,.019c0,.018.009.036.013.054a1.734,1.734,0,0,0,.239.639,1.273,1.273,0,0,0,.362.48.708.708,0,0,0,.468.214.635.635,0,0,0,.5-.046l.293-.2a1.758,1.758,0,0,0,.43-.692l.114-.456a2.9,2.9,0,0,0-.024-1.009l-.089-.388a1.748,1.748,0,0,0-.241-.645,1.305,1.305,0,0,0-.365-.485.718.718,0,0,0-.472-.215.642.642,0,0,0-.5.046l-.3.2a1.766,1.766,0,0,0-.434.7l-.115.46a2.9,2.9,0,0,0,.025,1.018l.109.379,2.241-1.518-.011-.034.137.449a2.486,2.486,0,0,0-.352-.861A1.629,1.629,0,0,0,69,51.435c-.021-.02-.041-.041-.06-.062l.241.27a1.464,1.464,0,0,1-.154-.2l.162.3,0-.014.109.356,0-.017.045.4c-.01-.092-.016-.184-.017-.276a1.554,1.554,0,0,0-.1-.562,1.279,1.279,0,0,0-.21-.467l-.2-.224a.555.555,0,0,0-.362-.165.323.323,0,0,0-.255.006.557.557,0,0,0-.354.183l-.189.234a1.762,1.762,0,0,0-.231.652Z"/><path class="a" d="M63.628,60.005c1.708-.634,2.55-2.336,3.1-3.967a6.972,6.972,0,0,1,.933-2.237,4.561,4.561,0,0,1,2.411-1.477L68.7,47.805c-.949,1.14-1.88,2.3-2.818,3.444a29.958,29.958,0,0,0-2.717,3.374,3.906,3.906,0,0,0,.342,4.551,2.261,2.261,0,0,0,2.885.054,12.83,12.83,0,0,0,5.062-4.711,9.023,9.023,0,0,0,.437-8.056c-.31-.654-1.038-1.532-1.876-1.1A7.043,7.043,0,0,0,68,46.876l1.971.338a2.443,2.443,0,0,1-.337-1.35c-.094-.936-.259-1.867-.328-2.8-.089-1.207.322-2.28,1.713-2.185L69.389,37.81a41.886,41.886,0,0,0-.967,6.209c-.145,1.875-.091,3.948,1.47,5.259a1.28,1.28,0,0,0,1.964-.436,16.652,16.652,0,0,0,1.77-6.98,16.065,16.065,0,0,0-.312-3.568,16.581,16.581,0,0,0-.488-1.8c-.082-.266-.173-.528-.274-.788q-.468-1.341-.11,1.224l-.567.911c1.188-1.372,4.533-4.057,6.147-1.751l.622-4.195a69.91,69.91,0,0,0-6.77,4.35c-1.657,1.2-.449,5.877,1.762,4.275a61.563,61.563,0,0,1,6-3.826c1.38-.776,1.461-3,.621-4.195-2.646-3.78-7.343-1.989-9.93.82a4.056,4.056,0,0,0-1,3.7c.2.925.668,1.756.856,2.692a9.113,9.113,0,0,1-.715,5.69l1.964-.436c.355.3.048.8.17.068.113-.684.129-1.4.219-2.087.171-1.311.413-2.609.7-3.9.25-1.1-.271-2.981-1.628-3.065-2.976-.183-4.569,3.062-4.765,5.588a28.289,28.289,0,0,0,.348,4.746,8.328,8.328,0,0,0,1.287,4.449,1.278,1.278,0,0,0,1.97.338,4.154,4.154,0,0,1,1.27-.948l-1.875-1.1c.524,1.163-.089,2.262-.888,3.164a10.264,10.264,0,0,1-1.749,1.528c-.3.211-.608.4-.922.592q-.251.151-.505.294-.543.153-.007.194l.791,1.475-.04-.316-.118,1.93a6.39,6.39,0,0,1,1.016-1.23l1.408-1.727c.89-1.092,1.784-2.182,2.663-3.283.961-1.2.35-4.769-1.692-4.121a7.482,7.482,0,0,0-4.572,4.373,13.776,13.776,0,0,0-.8,2.851,5.424,5.424,0,0,1-.884,2.613c-.553.655-.608,3.144.8,2.623Z"/><path class="b" d="M54.53,18.052l-.135-.119c-.9-.8-1.6.552-1.647,1.3-.054.8.383,2.223,1.455,1.852,1.906-.66,6-1.979,6.915.8l1.067-3.056a28.345,28.345,0,0,1-5.527-.949c-2.119-.629-2.283,3.523-.666,4.278a3.834,3.834,0,0,1,2.183,2.513l2.246-2.063q-.384-.207.094.512c.007-.885-.51-2.333-1.6-2.306-1.131.027-1.472,1.516-1.482,2.381-.037,3.312,3.447,4.07,5.912,5.112l4.167,1.762c1.161.491,2.432,1.233,3.73.988a3.167,3.167,0,0,0,2.305-3.327,4.13,4.13,0,0,0-2.062-3.444,18.626,18.626,0,0,0-7.522-2.875l.123,5.01a11.2,11.2,0,0,1,8.5,4.1,1.237,1.237,0,0,0,2.157-.053,3.194,3.194,0,0,0-.08-3.286,13.449,13.449,0,0,0-10.7-5.77c-1.179-.037-1.606,1.649-1.584,2.545a2.3,2.3,0,0,0,1.707,2.465,20.915,20.915,0,0,1,3.7.947,18.444,18.444,0,0,1,1.722.726c.3.148.614.3.9.471l.168.094q.489.438.012-.244l-.03-1.224-.053.262.365-1.028c.075-.135.144.055-.021.017a5.5,5.5,0,0,1-.714-.149c-.465-.169-.917-.375-1.372-.566l-3.263-1.369-3.081-1.293c-.638-.267-2-.56-2.339-1.12l.421,1.025.005.15-3.078.075a4.219,4.219,0,0,0,1.543,3.463,1.15,1.15,0,0,0,1.69-.223,3.146,3.146,0,0,0,.486-2.455,7.655,7.655,0,0,0-4.5-6.1l-.666,4.278a19.48,19.48,0,0,0,6.292.7c1.318-.1,1.5-2.133,1.067-3.057a5.415,5.415,0,0,0-3.921-3.072c-2.035-.4-4.032.332-5.909,1.055l1.337,2.5.072-.2a1.953,1.953,0,0,0-.4-2.025Z"/><path class="a" d="M38.214,27.445l.217.091-.348-.388c.3.683.735.758,1.437.746a11.453,11.453,0,0,0,1.9-.306l-.4-3.483a14.974,14.974,0,0,0-3.309,1.352,2.253,2.253,0,0,0-.837,2.423c.148.708.746,1.691,1.611,1.325A35.2,35.2,0,0,1,52.228,26.52c2.034,0,1.948-4.626-.113-4.608a32.851,32.851,0,0,0-14.4,3.545L38.8,29a13.978,13.978,0,0,1,2.939-1.484c1.434-.6.75-4.172-.7-3.412-.954.5-2.586,1.077-2.967,2.173l.478-.439-.222-.008c-.715-.028-.63,1.394-.1,1.614Z"/><path class="a" d="M22.264,49.974c.1-.43,0-.053-.041.044l2.122.815A5.7,5.7,0,0,0,24,49.367c-.018-.052-.036-.1-.053-.156q-.085-.269.034.12a2.469,2.469,0,0,0-.114-.42c-.061-.246-.1-.5-.147-.745-.064-.377.024.424.01.07-.006-.144-.017-.287-.016-.431,0-.064,0-.127,0-.191q-.036.5-.017.273c.013-.11.024-.22.04-.33a1.3,1.3,0,0,1,.068-.376l-.072.28c.016-.062.034-.123.053-.183.038-.121.086-.238.13-.357.114-.31-.186.319-.026.056.065-.108.125-.217.2-.321.036-.052.073-.1.112-.153q-.228.278-.065.093a2.545,2.545,0,0,0,.39-2.656,1.488,1.488,0,0,0-.78-.87.928.928,0,0,0-.974.219,6.364,6.364,0,0,0-1.564,4.387,8.345,8.345,0,0,0,.315,2.17,5.5,5.5,0,0,0,1.158,2.511.845.845,0,0,0,1.249-.165,2.17,2.17,0,0,0,.36-1.815,5.287,5.287,0,0,0-.276-.8c-.186-.384-.5-.789-.978-.678s-.672.636-.776,1.072Z"/><path class="a" d="M23.417,45.521a10.174,10.174,0,0,1,.154-1.058c.039-.206-.059.169.011-.04.023-.07.043-.14.067-.21q.082-.246.181-.486c.029-.069.059-.136.089-.2.093-.214-.113.221.016-.034q.107-.21.226-.412a7.411,7.411,0,0,1,.584-.844l-.207.256a2.549,2.549,0,0,0,.582-.905,2.364,2.364,0,0,0-.127-1.8,1.2,1.2,0,0,0-.438-.489.7.7,0,0,0-.7-.065,2.665,2.665,0,0,0-.3.207,1.8,1.8,0,0,0-.376.6c-.045.1-.09.194-.132.293-.09.211-.172.426-.246.643a11.14,11.14,0,0,0-.4,1.536c-.039.209-.07.42-.094.631-.011.107-.021.214-.029.32a1.788,1.788,0,0,0-.032.525l.008-.123-.018.277c0,.051,0,.1-.008.155,0,.116-.007.233-.006.349,0,.221.01.442.028.663.026.322.145.814.533.869.357.052.606-.338.631-.659Z"/><path class="a" d="M21.2,39.348A4.339,4.339,0,0,0,22.08,41a2.782,2.782,0,0,1,.25.35c-.062-.11.018.058.028.075.061.094-.024-.148.015.029.031.139.055.277.077.417.028.178,0-.026-.008-.092,0,.079.016.159.023.238l1.351-1.241c-.2-.182.192.235-.095-.086-.066-.074-.13-.138-.2-.206q-.033-.03-.063-.063c-.065-.068-.042-.042.069.079a.654.654,0,0,0-.1-.126,3.3,3.3,0,0,1-.2-.3c-.026-.042-.117-.214-.014-.013s0,0-.024-.052c-.211-.435-.361-.9-.532-1.35a12.926,12.926,0,0,0-.545-1.3c-.165-.32-.338-.641-.529-.947-.1-.155.17.367.048.085-.023-.053-.047-.1-.069-.158a2.175,2.175,0,0,0-.334-.611c-.288-.33-.629-.608-1.092-.408a1.566,1.566,0,0,0-.748,1.2,3.128,3.128,0,0,0,.452,2.189c.137.251.3.484.446.73.032.055.151.272.02.03s-.007-.007.014.034c.059.119.114.239.168.36.108.243.208.489.312.733a7.262,7.262,0,0,0,.876,1.565,4.89,4.89,0,0,0,.669.732,2.915,2.915,0,0,0,.4.288,1.5,1.5,0,0,0,.67.2.712.712,0,0,0,.459-.2,1.341,1.341,0,0,0,.359-.678,1.981,1.981,0,0,0-.227-1.522,3.672,3.672,0,0,0-1.092-1.24c-.258-.162-.537-.254-.807-.391-.233-.118-.452-.26-.683-.381-.191-.1-.254.258-.228.366Z"/><path class="a" d="M20.576,37.125a8.85,8.85,0,0,0,.7,3.86A14.059,14.059,0,0,1,22,42.524a1.673,1.673,0,0,1-.1,1.029,13.414,13.414,0,0,0-.922,4.033,9.475,9.475,0,0,0,1.639,4.427,1.01,1.01,0,0,0,1.7.112,2.66,2.66,0,0,0,.271-2.552,20.274,20.274,0,0,0-.909-1.863c-.06-.115-.116-.231-.17-.349q-.159-.436.007.162c-.032.129-.028.072.012-.169.022-.15.048-.3.08-.447a16.762,16.762,0,0,0,.742-3.79A5.822,5.822,0,0,0,22.88,39.31c-.7-.772-1.317-1.6-1.98-2.4-.17-.2-.318.037-.324.215Z"/><path class="a" d="M20.454,36.451c.462-.317.467-1.12.628-1.612a15.954,15.954,0,0,1,.767-1.8,1.842,1.842,0,0,0-.286-1.829.725.725,0,0,0-1.223.142,16.282,16.282,0,0,0-1.435,4.3l1.916-.047c-.029-.143-.058-.288-.075-.434.031.272.006-.1.005-.172,0-.038.011-.422,0-.226s.023-.185.029-.222c.02-.142.047-.283.076-.424-.057.274.049-.16.055-.178a6,6,0,0,1,.259-.676c-.09.2.105-.2.1-.193.071-.128.146-.254.223-.379.129-.21.266-.417.416-.614a7.511,7.511,0,0,1,1.074-1.078,4.678,4.678,0,0,1,3.123-1.176c1.265.068,2.417.717,3.708.676,1.4-.046,1.33-3.2-.078-3.163-1.472.036-2.809-.838-4.3-.7a7,7,0,0,0-3.923,1.892,8.327,8.327,0,0,0-2.59,7.915c.109.461.419,1.1.986,1.087s.86-.665.931-1.134a12.606,12.606,0,0,1,1.008-3.373l-1.647-1.4a7.628,7.628,0,0,0-.566,2.5c-.049.685-.212,1.823.408,2.312a.307.307,0,0,0,.41-.01Z"/><path class="a" d="M25.359,49.879a2.664,2.664,0,0,0,.726-1.169c.226-.487.436-.982.667-1.467l-2.124-.815a15.137,15.137,0,0,1-.342,2.533l2.342-.057a7.808,7.808,0,0,1,.009-.977,12.582,12.582,0,0,1,.216-1.307c.179-.833.471-1.708.745-2.562.606-1.881,1.352-3.715,1.9-5.614a2.446,2.446,0,0,0-.364-2.335.927.927,0,0,0-1.562.18,35.244,35.244,0,0,0-2.329,6.458c-.671,2.367-1.342,4.719-.934,7.2.094.567.537,1.345,1.205,1.329s1.052-.814,1.137-1.387a21.636,21.636,0,0,0,.233-3.515c-.01-.648-.365-1.71-1.171-1.69s-1.12,1.112-1.086,1.746a10.035,10.035,0,0,0,.306,3.294c.081.188.245.285.425.157Z"/><path class="a" d="M27.306,38.617a37.816,37.816,0,0,0,5.552-5.772,2.423,2.423,0,0,0,.366-2.488c-.272-.646-1.013-1.213-1.643-.61a25.516,25.516,0,0,0-4.88,6.7,2.4,2.4,0,0,0-.033,2.264c.317.554.909.9,1.47.408a40.462,40.462,0,0,0,4.941-5.2,2.771,2.771,0,0,0,.039-2.745c-.358-.628-1.14-1.146-1.782-.5A25.439,25.439,0,0,0,27.87,34.97a2.71,2.71,0,0,0,.069,2.813,1.049,1.049,0,0,0,1.847-.045,44.532,44.532,0,0,1,8.35-9.416c1.216-.985.379-4.529-1.363-3.307-2.008,1.41-4.556,3.2-5.465,5.577-.41,1.072.552,3.4,1.709,1.911a9.833,9.833,0,0,1,2.733-1.947,28.626,28.626,0,0,1,2.73-1.626l-.621-3.008a22.983,22.983,0,0,0-3.449,2.5A21.338,21.338,0,0,0,31.4,31.389a2.175,2.175,0,0,0-.326,2.215c.252.6.886,1.053,1.462.542a39.237,39.237,0,0,1,11.3-6.977c1.339-.543.853-3.933-.682-3.3A39.9,39.9,0,0,0,31.4,31.389l1.344,2.5a17.853,17.853,0,0,1,2.8-2.716c1.029-.833,2.188-1.529,3.176-2.407.955-.849.166-3.8-1.105-2.68-.819.72-1.745,1.318-2.631,1.952A8.354,8.354,0,0,1,32.2,29.771l.608,2.989c.883-.7,1.559-1.664,2.458-2.379.92-.733,1.906-1.383,2.868-2.059l-1.363-3.307c-3.408,2.763-5.9,6.271-8.646,9.638l1.659,3.085a27.339,27.339,0,0,1,3.023-3.479l-1.743-3.24a39.4,39.4,0,0,1-4.142,5.155l1.437,2.672a23.454,23.454,0,0,1,4.5-6l-1.51-2.809a50.859,50.859,0,0,0-4.759,7.249c-.226.453-.062,1.924.717,1.332Z"/><path class="a" d="M26.328,59.51c.452.309.875.677,1.348.952.443.258.766.437,1.168.7a21.408,21.408,0,0,1,2.4,1.822.785.785,0,0,0,.814.141,1.285,1.285,0,0,0,.658-.944,1.885,1.885,0,0,0-.734-2.144,18.721,18.721,0,0,0-2.6-1.184A12.666,12.666,0,0,0,28,58.409a6.882,6.882,0,0,0-1.484-.1c-.51-.007-.507.986-.184,1.206Z"/><path class="a" d="M37.232,62.361c-.055-.1-.193-.966-.121-.352a1.016,1.016,0,0,0,.121.352,4.346,4.346,0,0,0,.493.782,8.581,8.581,0,0,0,1.358,1.288c1.057.863,2.177,1.644,3.262,2.47,1.114.848,2.192,1.739,3.307,2.586.511.388,1.028.773,1.509,1.2a3.367,3.367,0,0,1,.829,1.02c.3.724,1.11,1.3,1.806.671a2.589,2.589,0,0,0,.4-2.737,7.221,7.221,0,0,0-2.49-2.815,33.121,33.121,0,0,0-3.5-2.206c-1.123-.609-2.258-1.2-3.435-1.7A22.6,22.6,0,0,1,37.7,61.378c-.6-.365-.653.652-.468.983Z"/><path class="a" d="M27.649,59.216c.325.664.726,1.277,1.1,1.914s.724,1.32,1.089,1.98l.253.461c-.059-.109.015.028.034.062l.118.224c.168.319.329.641.487.964.324.665.647,1.327.98,1.987a1.648,1.648,0,0,0,.8.89.964.964,0,0,0,1-.224,2.656,2.656,0,0,0,.4-2.717,11.365,11.365,0,0,0-1.03-2.137,18.263,18.263,0,0,0-1.113-1.7c-.864-1.177-1.834-2.268-2.807-3.355a.96.96,0,0,0-1.016-.177,1.5,1.5,0,0,0-.663.733,2.718,2.718,0,0,0,.166,2.62,2.25,2.25,0,0,0,.963.824,1.205,1.205,0,0,0,1.41-.607,2.562,2.562,0,0,0-.5-3.027c-.052-.047-.106-.091-.161-.133.149.186.173.211.073.073l-1.786,2.87c.85.99,1.713,1.972,2.487,3.022a18.839,18.839,0,0,1,1.062,1.593c.077.131.144.275.228.4-.05-.076-.158-.3-.053-.1.035.069.07.137.1.206.153.31.291.626.442.936l1.98-2.446a25.294,25.294,0,0,0-2.808-3.2c-.445-.444-.95-.849-1.431-1.255a8.62,8.62,0,0,0-1.584-1.159c-.23-.118-.28.343-.22.465Z"/><path class="a" d="M48.74,72.158l.085.049q.07.038.033.021c-.025-.013-.018,0,.018.036l.057.083a1.082,1.082,0,0,0,.28.227l.539.371q.529.363,1.061.724l.727-2.042c-.074-.05-.148-.1-.223-.152a.878.878,0,0,0-.29-.145c-.043-.01-.086-.018-.129-.027a.433.433,0,0,0-.338-.014.487.487,0,0,0-.311.16,1.353,1.353,0,0,0-.369.78,1.841,1.841,0,0,0,.109.991l.139.257a.861.861,0,0,0,.381.323l.129.026a.907.907,0,0,0,.424.029l.347-.082c.2-.048.391-.38.446-.55a1.745,1.745,0,0,0,.073-.749c-.05-.439-.276-.965-.78-1l-1.181-.08-.568-.041a.712.712,0,0,0-.358.025.617.617,0,0,1-.077.039.679.679,0,0,1-.175-.031c-.068-.012-.147.071-.178.119a.473.473,0,0,0-.065.226.432.432,0,0,0,.194.424Z"/><path class="a" d="M63.7,60.537l0-.042-.207.585.021-.035-.378.352.035-.021-.235.055.058-.006-.242-.043a3.4,3.4,0,0,0,.765.076c.2-.006.4-.02.6-.044a8.16,8.16,0,0,0,1.366-.291,5.131,5.131,0,0,0,1.058-.484,4.434,4.434,0,0,0,1.184-.871,2.057,2.057,0,0,0,.372-1.961,1.439,1.439,0,0,0-.438-.737.74.74,0,0,0-.794-.138c-.309.179-.58.4-.873.607l.247-.167a8.144,8.144,0,0,1-2.661,1.163l.257-.059c-.14.031-.28.059-.421.082a2.411,2.411,0,0,0-.632.117,1.707,1.707,0,0,0-.627,2.21c.171.335.432.7.862.6a1.064,1.064,0,0,0,.684-.945Z"/><path class="a" d="M66.4,58.357a3.545,3.545,0,0,1,1.017.476,1.574,1.574,0,0,0,1.026.075,2.881,2.881,0,0,0,1.3-.522,3.452,3.452,0,0,0,.883-.948,9.6,9.6,0,0,0,.991-3.069,20.92,20.92,0,0,0,.381-2.717,3.463,3.463,0,0,0-.184-1.661,1.726,1.726,0,0,0-.872-.973c-.949-.289-1.629.71-1.708,1.552-.043.454-.047.9-.056,1.353,0,.172-.012.344-.019.516-.016.4.038-.46-.007.063-.064.746-.158,1.468-.15,2.219a1.625,1.625,0,0,0,.64,1.359c.421.256.809.024,1.071-.337a5.68,5.68,0,0,0,.826-1.93,12.5,12.5,0,0,0,.5-2.737l-2.837.07c0,.192-.014.384-.021.577-.01.271.039-.507.008-.118-.007.086-.013.172-.02.258q-.052.612-.141,1.22-.082.572-.2,1.139c-.013.064-.084.226-.062.29-.019-.057.114-.405.034-.137-.056.191-.116.378-.19.563-.064.16-.132.319-.193.48-.073.19.161-.273.043-.1-.05.072-.088.154-.136.228-.087.133-.18.262-.268.394-.049.075-.1.145-.154.218.071-.1.067-.076-.008.006-.266.288-.557.524-.794.837a.94.94,0,0,1-.713.459c-.41,0-.362.841.022.9Z"/><path class="a" d="M70.343,55.423a.945.945,0,0,0,.949.256,1.271,1.271,0,0,0,.675-.283,3.768,3.768,0,0,0,.409-.479,3.452,3.452,0,0,0,.487-.884,4.537,4.537,0,0,0,.151-.583,2.566,2.566,0,0,0,.063-.643A5.917,5.917,0,0,0,73,51.988l-.13-.431a1.293,1.293,0,0,0-.32-.5.94.94,0,0,0-.732-.372,1.084,1.084,0,0,0-.6.263,1.241,1.241,0,0,0-.323.475,1.655,1.655,0,0,0-.2.623c-.008.085-.019.168-.034.252a5.768,5.768,0,0,0-.051.72l.031-.494q-.027.375-.05.75l.031-.48a3.288,3.288,0,0,1-.082.532l.1-.4c-.036.143-.086.28-.131.42-.077.24-.1.489-.162.733l.078-.312c-.138.533-.448,1.145-.082,1.656Z"/><path class="a" d="M72.394,31.934l-.085.026.268.157-.088-.178-.642,1.838a1.425,1.425,0,0,0,.262-.06,2.532,2.532,0,0,0,.247-.171c-.082.048-.139.084-.02.02.036-.02.074-.039.109-.06a3.759,3.759,0,0,0,.4-.28c.027-.021.166-.113.031-.028-.153.1.05-.031.065-.039a4.164,4.164,0,0,1,1.163-.467l-.294.068a8.6,8.6,0,0,1,2.923-.107c.347.04.713-.33.874-.583a2.463,2.463,0,0,0,.335-1.362c-.039-.72-.382-1.9-1.3-1.882a7.1,7.1,0,0,0-3.48.772,5.312,5.312,0,0,0-1.31,1.028,2.612,2.612,0,0,0-.681,2.612c.122.3.434.611.784.46a1.081,1.081,0,0,0,.478-1.018l0-.237-.13.372.286-.279c.158-.153.128-.7-.182-.6Z"/><path class="a" d="M75.535,31.192c.269.211.518.457.794.656.314.227.693.383,1.025.585l-.231-.141a5.984,5.984,0,0,1,1.308,1.04l-.242-.271a3.191,3.191,0,0,1,.389.561l-.2-.373a3.174,3.174,0,0,1,.207.493l-.138-.455a2.3,2.3,0,0,1,.068.338l-.059-.517a1.937,1.937,0,0,1,0,.285l.034-.526a1.9,1.9,0,0,1-.035.226,2.837,2.837,0,0,0,.17,1.532,1.589,1.589,0,0,0,.8.9.969.969,0,0,0,1-.226,2.044,2.044,0,0,0,.572-1.2,4.611,4.611,0,0,0-.614-2.944A3.656,3.656,0,0,0,78.958,29.9a3.772,3.772,0,0,0-1.617-.326,3.1,3.1,0,0,0-.937.051c-.12.033-.238.078-.359.107.085-.02-.031,0-.063.006-.076.011-.153.02-.229.029-.6.068-.611,1.117-.218,1.425Z"/><path class="b" d="M56.255,21.132a10.328,10.328,0,0,1,.428,1l.372,1.056.373,1.056.186.528c.027.075.051.152.08.226-.166-.427-.03-.092,0,.016l1.881-1.273a12.843,12.843,0,0,0-.655-1.157l.176.327a10.462,10.462,0,0,1-.79-1.886l.12.4c-.072-.24-.135-.481-.191-.725a1.818,1.818,0,0,0-.531-.991.82.82,0,0,0-.854-.148,1.911,1.911,0,0,0-.719,2.084,12.335,12.335,0,0,0,.748,2.183c.175.379.372.747.58,1.109a3.9,3.9,0,0,0,.739,1.021.776.776,0,0,0,.81.141,1.192,1.192,0,0,0,.528-.584,2.033,2.033,0,0,0,.2-.97,1.923,1.923,0,0,0-.334-1.119c-.423-.5-.777-1.065-1.153-1.6l-.569-.813-.122-.174c-.015-.021-.178-.245-.1-.128-.1-.145-.168-.314-.25-.468a.724.724,0,0,0-.347-.387.419.419,0,0,0-.432.1,1.123,1.123,0,0,0-.174,1.181Z"/><path class="b" d="M53.572,20.2c.333-.052.672-.064,1-.122.374-.065.555-.136.9-.2a16.923,16.923,0,0,1,2-.209c.675-.039,1.341-.138,2.019-.116.154.019.177.019.07,0l.129.036a1.606,1.606,0,0,1,.193.075q.2.1-.026-.02a1.346,1.346,0,0,1,.157.135q-.312-.333.132.155a1.927,1.927,0,0,0,.359.21q-.261-.175-.12-.045c.715.727,1.463-.388,1.539-1.007a2.974,2.974,0,0,0-.436-2.188,2.824,2.824,0,0,0-1.093-.854,5.207,5.207,0,0,0-2.543-.132,12.372,12.372,0,0,0-2.493.577,9.884,9.884,0,0,0-1.082.4,5.893,5.893,0,0,0-1.206.844,1.639,1.639,0,0,0-.363,1.5c.088.363.377,1.026.862.951Z"/><path class="b" d="M52.552,19.692l.052.019a.222.222,0,0,0,.177,0,.338.338,0,0,0,.144-.134l.05-.1a.746.746,0,0,0,.039-.257.564.564,0,0,0-.034-.2.438.438,0,0,0-.073-.162.338.338,0,0,0-.15-.127.227.227,0,0,0-.177,0l-.051.018-.076.051a.339.339,0,0,0-.087.128.284.284,0,0,0-.038.109.523.523,0,0,0-.023.189l.014.13.035.115a.34.34,0,0,0,.086.135.242.242,0,0,0,.112.085Z"/><path class="b" d="M60.391,24.039a3.331,3.331,0,0,0,3.438-.628l-.849.191.06.022a.893.893,0,0,0,.915-.206,1.919,1.919,0,0,0,.522-1.1,2.6,2.6,0,0,0-.155-1.4l-.2-.363a1.215,1.215,0,0,0-.538-.455,2.017,2.017,0,0,0-.74-.069,1.882,1.882,0,0,0-.707.223l-.3.2a1.3,1.3,0,0,0-.341.5,2.453,2.453,0,0,0-.242,1.168,3.205,3.205,0,0,0,.2.964,1.537,1.537,0,0,0,.774.862,1.275,1.275,0,0,0,.939-.015c.121-.041.235-.1.357-.137l-.334.077a.445.445,0,0,1,.141-.007L63,23.814a.5.5,0,0,1,.166.061l-.306-.186a.415.415,0,0,1,.074.064l-.262-.294.017.025-.206-.383a.167.167,0,0,1,.021.052l-.2-.962,0,.027.032-.51,0,.029.116-.461-.009.029.187-.392-.016.029a2.691,2.691,0,0,0-.334,1.362,2.461,2.461,0,0,0,.4,1.344,1.1,1.1,0,0,0,.9.538,1.131,1.131,0,0,0,.875-.582,2.844,2.844,0,0,0,.227-2.238,1.9,1.9,0,0,0-.975-1.226,1.088,1.088,0,0,0-.3-.079.913.913,0,0,0-.309-.028,5.7,5.7,0,0,0-.739.213l.336-.078a.723.723,0,0,1-.222.014l.723,3.557a1.481,1.481,0,0,1,.148-.125l-.293.2a1.261,1.261,0,0,1,.392-.177l-.32.074a1.312,1.312,0,0,1,.234-.028l-1.237-1.788,0,.1.3-1.2a2.91,2.91,0,0,1-.184.256l.212-.261a3.1,3.1,0,0,1-.63.581l.232-.158a3.037,3.037,0,0,1-.968.433l.233-.054a2.653,2.653,0,0,1-.774.066.713.713,0,0,0-.553.369,1.549,1.549,0,0,0-.2.7,1.3,1.3,0,0,0,.6,1.314Z"/><path class="a" d="M75.4,42.258a2.591,2.591,0,0,0-.414,1.867c.025.641.075,1.268.158,1.9.145,1.122.392,2.221.642,3.326.059.261.238.622.557.614.3-.007.506-.375.526-.641a21.211,21.211,0,0,0,.041-3.643A14.867,14.867,0,0,0,76.6,43.75c-.111-.481-.316-1.414-.869-1.567a.326.326,0,0,0-.335.075Z"/><path class="a" d="M76.42,49.315a11.719,11.719,0,0,1,.558-1.047c.137-.319.271-.64.388-.967a10.371,10.371,0,0,0,.494-2.4,10.728,10.728,0,0,0-.175-2.943,5.09,5.09,0,0,0-1.374-2.75.913.913,0,0,0-1.348.178,2.437,2.437,0,0,0-.388,1.959,3.021,3.021,0,0,0,.167.609q.088.27.027.069c-.072-.225.079.315.091.369a9.908,9.908,0,0,0,.372,1.227c.152.412-.07-.311.029.088.043.172.088.342.126.515.07.317.129.633.2.949.159.669.234,1.352.356,2.028.055.3.1.607.143.912a8.2,8.2,0,0,1,.21,1.154c0,.073.09.145.121.047Z"/><path class="a" d="M31.644,67.209l.233.188q.1.1.024-.006l.1.116.343.405a9.521,9.521,0,0,0,.957.959c.132.118.26.243.4.354s.322.22.482.328l.906.61a.893.893,0,0,0,.873.152,1.382,1.382,0,0,0,.707-1.013,2.422,2.422,0,0,0-.033-1.324,1.5,1.5,0,0,0-.247-.547,1.143,1.143,0,0,0-.508-.43l-.924-.539c-.162-.095-.323-.2-.493-.286-.142-.067-.3-.117-.442-.174l-.443-.175a2.8,2.8,0,0,0-.517-.131l-.457-.085a2.178,2.178,0,0,1-.507-.2c-.381-.177-.668.287-.742.584a1.234,1.234,0,0,0,.292,1.212Z"/><path class="a" d="M23.621,31.951a5.47,5.47,0,0,0-.579.85l.179-.222a2.505,2.505,0,0,0-.651.924,5.041,5.041,0,0,0-.242.992,5.761,5.761,0,0,0,.149,2.485,1.858,1.858,0,0,0,1.5,1.5.952.952,0,0,0,.333-.049,1.048,1.048,0,0,0,.3-.094,4.15,4.15,0,0,0,.533-.36,3.886,3.886,0,0,0,.644-.717,3.6,3.6,0,0,0,.387-.678c.23-.482.415-.983.643-1.465l-.222.465a3.53,3.53,0,0,1,.43-.7L24.6,32.169,24.2,33.307l2.613-.064a2.182,2.182,0,0,1-.152-.36l.167.548a2.151,2.151,0,0,1-.07-.328l.069.615a2.332,2.332,0,0,1-.012-.334L26.773,34a4.782,4.782,0,0,0-.035-1.393,3.135,3.135,0,0,0-.412-1c-.282-.433-.2-.242-.33-.366l.3.334a1.693,1.693,0,0,0-.473-.444,1.039,1.039,0,0,0-.556-.17h-.02a1.239,1.239,0,0,0-.9.515,2.608,2.608,0,0,0-.541,1.307,4.453,4.453,0,0,0-.039.841,5.118,5.118,0,0,0,.147,1.052,5.845,5.845,0,0,0,.242.756,6.78,6.78,0,0,0,.347.659,1.535,1.535,0,0,0,.682.576.778.778,0,0,0,.605.027.872.872,0,0,0,.555-.288,2.13,2.13,0,0,0,.523-.839l.383-1.157a3.073,3.073,0,0,0-.459-2.938,1.181,1.181,0,0,0-.921-.468l-.4.092a1.527,1.527,0,0,0-.648.6,12.969,12.969,0,0,0-1.184,2.523l.22-.46c-.107.222-.214.444-.317.667l.218-.457a2.93,2.93,0,0,1-.331.547l.28-.347a1.88,1.88,0,0,1-.34.333l.328-.223a.484.484,0,0,1-.142.061l.367-.085a.228.228,0,0,1-.09,0l.369.066a.22.22,0,0,1-.07-.031l.333.2a.789.789,0,0,1-.087-.076l.284.318a.783.783,0,0,1-.089-.132l.22.409a3,3,0,0,1-.182-.457l.14.461a3.58,3.58,0,0,1-.124-.606l.055.481a3.807,3.807,0,0,1-.02-.4,6.027,6.027,0,0,0-.064-.77l.048.428a3.934,3.934,0,0,1-.024-.407l-.023.371c-.117.482,0,.057.046-.06.021-.051.043-.1.065-.152.037-.081.014-.033-.068.144.017-.034.034-.067.052-.1a1.806,1.806,0,0,0,.024-1.693.884.884,0,0,0-.45-.451.607.607,0,0,0-.649.146Z"/><path class="a" d="M56.2,26.123c.655,0,.627-1.484-.037-1.484s-.627,1.484.037,1.484Z"/><path class="c" d="M40.02,35.9c.295-1.243,2.87-1.654,3.837-2.171,1.132-.6,1.163-3.43-.4-3.481-1.859-.061-3.784.571-5.638.751l.464,4.086a34.347,34.347,0,0,1,6.889-2.667,29.433,29.433,0,0,1,7.362-.7,27.407,27.407,0,0,1,7.126.991,11.21,11.21,0,0,1,3.518,1.566c.766.558,2.176,1.6,2.478,2.511l-.208-1.874-.038.345c-.109.992.077,2.547,1.184,2.951s1.764-.865,1.914-1.739c.555-3.245-2.7-6.026-5.292-7.4a22.241,22.241,0,0,0-8.684-2.077,29.345,29.345,0,0,0-17.075,4.1c-1.37.867-1.265,4.589.826,4,1.812-.508,3.834-.629,5.57-1.356L42.879,30.5c-1.008.98-2.5,1.294-3.345,2.475a3.427,3.427,0,0,0-.54,3.151c.25.741.9.307,1.026-.231Z"/><path class="c" d="M44.774,37.192A18.388,18.388,0,0,0,49.118,36.1c1.032-.47,1.025-3.288-.359-3.16a60.328,60.328,0,0,0-6.454.951c-1.718.35-1.559,4.228.1,3.921a40.082,40.082,0,0,0,6.843-2.079c1.394-.53,1.257-4.235-.46-4.047a42.493,42.493,0,0,1-5.572.2l.473,4.167a11.992,11.992,0,0,1,4.26-1.647l-.459-4.044a51.359,51.359,0,0,0-10.62,5.252c-.948.643-.763,3.828.731,3.595a3.627,3.627,0,0,0,2.519-1.574c.6-.808.261-3.63-1.229-2.992-1.11.475-2.3.777-3.436,1.2l1,3.3a15.587,15.587,0,0,1,2.393-2,2.143,2.143,0,0,0,.853-2.134c-.066-.568-.478-1.784-1.282-1.638a8.378,8.378,0,0,0-2.327.734l1.088,3.583a7.358,7.358,0,0,1,1.835-1.68c1.326-.823,1.2-4.316-.786-3.8l-1.087.281,1.542,2.878.357-.907c.436-1.109-.276-3.817-1.851-2.674l-.323.234.652-.287-.357.024.937.56-.1-.133.384,1.926-.2.583-1.258.543.134.026-.4-3.63A47.733,47.733,0,0,0,30.7,39.97a48.832,48.832,0,0,0-2.227,4.579c-.33.777-.633,1.56-.9,2.362a8.787,8.787,0,0,1-.81,2.337l.581-.542-.279.181,1.388,3.381a17.386,17.386,0,0,0,1.7-5.818,13.517,13.517,0,0,1,1.976-5.444,14.749,14.749,0,0,1,9.411-6.866l-.825-4.062c-3.764,4.3-9.314,6.712-11.473,12.333-.424,1.1.03,3.662,1.681,3.137,3-.953,5.464-3.078,8.1-4.715a89.3,89.3,0,0,1,8.738-4.755l-.866-4.192C42.923,34.539,38.665,37,35.78,40.9c-.808,1.095-.443,3.606,1.127,3.774,1.536.164,3.182-1.109,4.489-1.783l4.61-2.373,9.44-4.861-.883-4.274L47.6,35.662c-1.9,1.165-4.754,2.293-5.761,4.4-.528,1.1-.517,4.33,1.513,3.686l13.257-4.207-1.836-1.51q.792-2.065-.026-1.2l-.762.606-1.142.91-2.856,2.275-5.521,4.4a2.9,2.9,0,0,0-.21,3.5c1.448,1.759,3.4.3,5.058-.446q3.218-1.443,6.432-2.89l-1.223-4.03L50.262,45.26c-1.313,1.267-2.8,2.48-2.931,4.434-.058.853.134,2.859,1.468,2.763l1.949-.14.975-.07q-.253-3.523-.733-2.061a4.194,4.194,0,0,0-.322,2.7c.236,1.133.817,1.84,1.992,1.834a12.7,12.7,0,0,0,3.382-.611l-1.4-.523.127.234L54.318,52.3c.006-.563-.131.338-.149.46a3.96,3.96,0,0,0,.007,1.3,3.139,3.139,0,0,0,.845,1.738,2.679,2.679,0,0,0,2.89.44c2.247-.977,3.078-3.738,3.494-5.925.546-2.867.981-5.736,1.669-8.578a7.23,7.23,0,0,1,1.419-3.442,11.576,11.576,0,0,1,3.283-2.166c1.706-.862,1.58-4.749-.561-4.937a8.084,8.084,0,0,1-2.3-.581l.118,4.838a1.419,1.419,0,0,1,1.689.233l.232-3.869c-4.193,3.358-4.662,8.959-4.822,13.932l3.068-.075a15.442,15.442,0,0,1,.832-5.98l-2.811-1.709a50.583,50.583,0,0,0-.574,9.9c.037.841.446,2.161,1.492,2.155s1.382-1.433,1.384-2.226a3.531,3.531,0,0,1,.261-1.273l-2.333.058c-.133-.373-.589.594-.782.855-.383.519-.795,1.01-1.154,1.548a22.041,22.041,0,0,0-1.78,3.331L62.4,53.351a16.978,16.978,0,0,1,1.583-6.914l-2.607-2.209q-2.153,6.915-3.74,13.987c-.444,1.966,1.824,4.411,2.915,1.772.558-1.352,1.089-2.716,1.625-4.076L59.3,54.162c-.185,2.028-.366,4.056-.57,6.082l1.419-1.729a10.873,10.873,0,0,0-9.286,5.443l2.46,2.751a5.571,5.571,0,0,1,.928-1.385l-1.937-3.6a40.26,40.26,0,0,0-2.857,5.6l2.384-.529c-3.261-3.732-7.782-6.1-11.017-9.833-1.835-2.116-3.344,1.829-2.06,3.311,3.25,3.749,7.749,6.14,11,9.861.9,1.027,1.883.668,2.384-.529a33.925,33.925,0,0,1,2.4-4.652A3.166,3.166,0,0,0,54.6,61.9c-.379-.664-1.3-1.317-1.982-.55a11.868,11.868,0,0,0-1.977,3.081,3.014,3.014,0,0,0,.466,2.981,1.186,1.186,0,0,0,1.994-.23,8.244,8.244,0,0,1,7.166-4.057c.816-.005,1.349-1.029,1.418-1.729.2-2.019.421-4.037.639-6.055.1-.941-.046-2.241-.966-2.762-.882-.5-1.578.212-1.911,1.013-.559,1.347-1.124,2.69-1.662,4.046L60.7,59.412q1.386-6.553,3.288-12.975a2.946,2.946,0,0,0-.605-3.066c-.877-.69-1.645.033-2,.857a22.454,22.454,0,0,0-1.808,9.192c.016,1.71,1.811,3.054,2.666,1.024,1.3-3.091,4.649-5.835,3.647-9.5-.407-1.487-1.754-2-2.482-.431a8.029,8.029,0,0,0-.716,2.78l2.839.513a54.577,54.577,0,0,1,.648-8.678,2.7,2.7,0,0,0-.944-2.7c-.834-.472-1.583.185-1.867.99a21.8,21.8,0,0,0-1.228,8.319c.042.9.474,2.3,1.591,2.3,1.143-.006,1.445-1.53,1.477-2.374.134-3.539.332-7.436,3.488-9.651,1.095-.769.86-2.937.232-3.87a3.845,3.845,0,0,0-4.881-1.517c-1.613.749-1.569,4.19.119,4.838a13.674,13.674,0,0,0,3.181.76l-.561-4.938c-2.128.975-4.152,2.193-5.305,4.313-1.318,2.425-1.674,5.462-2.131,8.151-.384,2.252-.36,4.779-1.113,6.944a2.612,2.612,0,0,1-.579,1.022c-.284.288-.631.283-.913.466a.5.5,0,0,1-.316-.053L56.91,53.9c.108-.077.189-.7.207-.818a3.528,3.528,0,0,0-.3-2.174c-.366-.69-.813-1.18-1.631-.956a12.162,12.162,0,0,1-3.067.4l1.032.617c.7,1.133.032,2.02.39,1.375a3.442,3.442,0,0,0,.3-.979,3.614,3.614,0,0,0-.34-2.474c-.966-1.654-3.221-.964-4.8-.854L50.159,50.8c.024-.353.717-.843.982-1.1l1.7-1.639,3.24-3.115c1-.96.775-4.924-1.223-4.03L49.981,43.1l-2.218.994c-.4.179-1.622,1-2.027.85l.659.557-.153-.185-.209,3.5,7.044-5.61c2.083-1.658,5.225-3.286,4.483-6.433-.206-.873-.808-1.837-1.836-1.51L42.467,39.475l1.513,3.686c.463-.97,1.573-1.428,2.45-1.967L49.3,39.433l6.147-3.775A2.576,2.576,0,0,0,56.4,32.9c-.155-.741-.877-2-1.836-1.511l-9,4.635-4.39,2.26-2.2,1.131a4.218,4.218,0,0,1-2.179.813L37.925,44c2.5-3.39,6.4-5.6,9.835-7.92a2.554,2.554,0,0,0,.935-2.71c-.157-.749-.851-1.941-1.8-1.482A89.737,89.737,0,0,0,38.169,36.7c-2.62,1.649-5.118,3.752-8.107,4.692l1.681,3.137c1.843-4.763,7.281-7.037,10.511-10.709a2.864,2.864,0,0,0,.6-2.489c-.121-.579-.648-1.731-1.425-1.573A16.478,16.478,0,0,0,30.74,36.968a17.984,17.984,0,0,0-2.788,6.3c-.434,2.068-.339,4.3-1.468,6.156a2.855,2.855,0,0,0-.149,2.479c.229.527.881,1.285,1.537.9,1.482-.865,1.739-2.7,2.307-4.2a49.818,49.818,0,0,1,2.037-4.8,42.92,42.92,0,0,1,5.837-8.777c.648-.748,1.054-3.359-.4-3.629l-.135-.025a1.116,1.116,0,0,0-1.258.543,2.9,2.9,0,0,0-.044,3.117c.656.986,1.554.741,2.372.142l-1.852-2.674-.353.909c-.416,1.07.029,3.277,1.542,2.879l1.087-.286-.786-3.8a10.528,10.528,0,0,0-2.7,2.423c-.673.837-.223,4.063,1.342,3.268a9.366,9.366,0,0,1,1.973-.752l-1.06-3.493a20.614,20.614,0,0,0-2.613,2.39c-.739.8-.7,4.011,1,3.3a16.5,16.5,0,0,1,3.119-1.147l-.682-3.353a1.344,1.344,0,0,1-1.107.5l.432,3.8A84.024,84.024,0,0,1,48.3,34.325c1.414-.5,1.225-4.287-.46-4.044a13.786,13.786,0,0,0-5,1.692c-1.306.756-1.429,4.107.473,4.167a34.014,34.014,0,0,0,5.569-.324l-.46-4.047c-2.122.863-4.29,1.484-6.46,2.2l.777,3.763a59.232,59.232,0,0,1,6.1-1.569l-.359-3.159c-1.354.787-2.556,1.8-3.879,2.656-.4.26-.54,1.66.174,1.531Z"/><path class="c" d="M31.234,44.1a50.429,50.429,0,0,0-.606,5.285l2.281-.056c.033-.733.069-1.461.082-2.2.015-.791-.6-2.265-1.65-1.822-2.22.935-3.717,3.05-2.76,5.527a3.607,3.607,0,0,0,1.62,1.862,7.439,7.439,0,0,1,1.885,1.123l.638-4.179a5.112,5.112,0,0,1-2.315-.986c-.871-.654-1.744-.012-2.07.886a3.1,3.1,0,0,0,.626,3.171,11.7,11.7,0,0,0,5.275,2.727c1.648.494,3.745.928,4.922,2.3l1.4-3.961a6.928,6.928,0,0,1-2.249-1.5l-1.454,4.084a9.927,9.927,0,0,1,2.221,2.543l1.766-3.708C38.963,54,38.06,51.512,36.687,49.8,35.16,47.889,33.311,46.026,33,43.5l-2.453,2.285c1.586,2.419,3.179,4.834,4.751,7.263a1.165,1.165,0,0,0,1.964.129,3.054,3.054,0,0,0,.313-2.942L34.747,43l-2.565,2.4c2.208,4.488,4.439,9.079,7.714,12.9A1.267,1.267,0,0,0,42.1,58.25a3.311,3.311,0,0,0-.082-3.363,65.95,65.95,0,0,1-5.439-10.734L34.276,47c3.075,5.2,6.1,10.43,9.146,15.65L45.5,59.321c-3.182-5.169-6.467-10.316-8.709-15.982l-2.211,2.732c3.586,6.036,7.27,12.077,11.357,17.791a1.185,1.185,0,0,0,1.995.132A3.093,3.093,0,0,0,48.245,61c-1.274-3.145-3.5-5.872-5.192-8.8a30.411,30.411,0,0,1-3.663-9.022l-2.6,1.762A105.615,105.615,0,0,0,48.6,64.121a1.211,1.211,0,0,0,2.114-.052,3.14,3.14,0,0,0-.079-3.22q-3-4.6-5.779-9.34a46.742,46.742,0,0,1-4.41-9.4l-2.2,2.723q4.963,8.994,10.442,17.692a1.2,1.2,0,0,0,2.024.134,3.122,3.122,0,0,0,.322-3.033c-2.433-5.693-6.3-10.676-8.326-16.555L40.421,45.89A131.855,131.855,0,0,0,49.76,59.419c1.7,2.062,3.114-1.364,2.337-2.886-2.209-4.328-4.444-8.643-6.669-12.963l-2.357,2.912q4.284,7.187,8.583,14.362a1.2,1.2,0,0,0,1.693.443,2.5,2.5,0,0,0,.893-2.164c-.189-3.193-2.155-5.738-3.558-8.5a33.314,33.314,0,0,1-3.109-8.268l-2.4,2.235L49.785,52.7a1.177,1.177,0,0,0,2.067-.051,3.1,3.1,0,0,0-.077-3.148l-4.6-8.124a1.152,1.152,0,0,0-1.787-.306,2.792,2.792,0,0,0-.613,2.541,35.775,35.775,0,0,0,2.875,8.231c.594,1.238,1.233,2.455,1.876,3.668.582,1.1,1.572,2.414,1.64,3.688l2.586-1.721q-4.266-7.2-8.574-14.377a1.2,1.2,0,0,0-2.034-.135,3.081,3.081,0,0,0-.323,3.047c2.228,4.314,4.447,8.635,6.691,12.941l2.337-2.887a118.093,118.093,0,0,1-9.387-13.453,1.167,1.167,0,0,0-1.97-.13,3.108,3.108,0,0,0-.314,2.951c2,5.9,5.845,10.909,8.257,16.621l2.347-2.9Q45.167,50.609,40.21,41.668a1.125,1.125,0,0,0-1.9-.126,3.019,3.019,0,0,0-.3,2.849c2.3,7.139,6.878,13.3,10.6,19.73l2.035-3.272a129.593,129.593,0,0,1-11.4-18.186c-.354-.718-1.013-1.373-1.827-.857a2.594,2.594,0,0,0-.774,2.619,35.375,35.375,0,0,0,3.818,9.92c.824,1.51,1.718,2.979,2.64,4.43A24.59,24.59,0,0,1,45.683,63.4L48,60.543C44.125,54.69,40.2,48.9,36.549,42.9a1.131,1.131,0,0,0-1.909-.126,2.96,2.96,0,0,0-.3,2.858,112.25,112.25,0,0,0,9.085,17.025,1.227,1.227,0,0,0,2.153-.053,3.233,3.233,0,0,0-.08-3.28c-3.059-5.206-6.133-10.4-9.16-15.628a1.178,1.178,0,0,0-1.99-.132,3.124,3.124,0,0,0-.317,2.982A72.407,72.407,0,0,0,39.9,58.3l2.126-3.417A59.326,59.326,0,0,1,34.747,43c-.411-.822-1.243-1.521-2.1-.779a3.02,3.02,0,0,0-.467,3.177l2.873,7.19,2.277-2.812c-1.592-2.419-3.163-4.852-4.741-7.28a1.183,1.183,0,0,0-1.827-.313,2.95,2.95,0,0,0-.626,2.6c.372,3.15,2.3,5.62,4.224,8.009a31.945,31.945,0,0,1,2.406,3.491A8.9,8.9,0,0,0,39.4,59.275a1.259,1.259,0,0,0,1.96-.649,3.259,3.259,0,0,0-.194-3.059,13.044,13.044,0,0,0-2.852-3.276c-.855-.7-1.769.022-2.085.892a3.1,3.1,0,0,0,.631,3.192,9.48,9.48,0,0,0,2.995,1.96c1.943.81,2.229-2.992,1.4-3.961a10.9,10.9,0,0,0-5.422-3.225c-1.907-.588-3.954-1.056-5.429-2.486L28.965,52.72a7.351,7.351,0,0,0,3.868,1.4c.813.058,1.275-1.049,1.374-1.674a2.868,2.868,0,0,0-.736-2.505,6.171,6.171,0,0,0-2.043-1.129c-.558-.224-.68-.59-.506.3.208,1.065,0,.569.419.385.247-.108.529-.342.765-.474L30.457,47.2c.043.733.108,1.458.171,2.189.057.665.335,1.713,1.183,1.709.8,0,1.148-1.138,1.1-1.765a51.133,51.133,0,0,0-.76-5.252c-.123-.663-.812-.629-.915.023Z"/><path class="c" d="M39.645,46.493C41.03,50.2,42.657,53.805,44.3,57.4c1.472,3.223,2.587,7.065,4.937,9.776.743.857,1.587.563,2-.443a20.663,20.663,0,0,1,7.3-8.882L57.18,54.574a64.729,64.729,0,0,0-7.117,6.379l1.885,2.723a28.459,28.459,0,0,1,1.093-3.444c.155-.39,1.053-2.908,1.492-2.9l-.666-.255c-.252-.157-.083-.248-.041.235.036.4.11.793.165,1.188q.149,1.068.3,2.136c.2,1.4,1.987,2.071,2.447.425a9.446,9.446,0,0,0,.123-5.069l-2.113,1.967a8.69,8.69,0,0,0,1.665,1.878,1.121,1.121,0,0,0,1.753-.75c.914-3.36-.846-6.6-2.229-9.593a30.286,30.286,0,0,1-3.053-8.764l-2.4,2.239c1.038,1.652,1.27,3.66,1.746,5.517a13,13,0,0,0,2.9,5.854c1.06,1.154,2.134-.652,2.282-1.493a33.128,33.128,0,0,0-.194-9.879l-3.024,1.359a48.135,48.135,0,0,0,2.116,7.794c.323.83,1.164,1.478,2.011.942.912-.578,1-1.931.85-2.88q-.541-3.361-1.36-6.665l-2.868,1.944,2.135,6.181a1.406,1.406,0,0,0,2.761-.068,14.514,14.514,0,0,0,.407-5.789,16.524,16.524,0,0,1-.182-5.233l-1.933,1.757A2.821,2.821,0,0,1,57.862,42a4.62,4.62,0,0,0,.289,1.189l.522,2.14c.2.838.779,1.935,1.808,1.712S61.8,45.488,61.817,44.6l.111-4.586-2.374,2.179,1.208,1.11c1.172,1.077,2.125-.578,2.333-1.527A52.091,52.091,0,0,0,64.206,33.9c.068-1.047-.054-2.535-1.2-3a32.6,32.6,0,0,0-13.045-2.4c-1.375.031-1.785,2.177-1.491,3.174a3.032,3.032,0,0,0,2.306,2.476c1.2.278,2.441.432,3.665.591A27.4,27.4,0,0,1,61.6,36.318l-.116-4.728a37.816,37.816,0,0,0-5.134,3.336,4.829,4.829,0,0,0-.734,6.06c.953,1.628,2.43.061,2.639-1.137a30.206,30.206,0,0,0,.415-6.606l-2.939,1.3a19.864,19.864,0,0,0,3.45,6.787c1.645,1.884,3-.819,2.616-2.436A11.085,11.085,0,0,0,60.339,35.4a1.25,1.25,0,0,0-2.109-.139,3.217,3.217,0,0,0-.335,3.159,12.982,12.982,0,0,1,.562,1.334q.041.373.069-.184a1.209,1.209,0,0,1-.35.393,3.7,3.7,0,0,1-2.349,1.1l.821.315.018.151q-.129-.3-.231-.6a6.3,6.3,0,0,1-.218-.863,8.264,8.264,0,0,1-.083-1.906l-2.718,1.809A27.744,27.744,0,0,1,55.8,44.459l1.31-3.753c-4.615.642-5.832,5.948-3.781,9.585a1.238,1.238,0,0,0,1.919.328A2.926,2.926,0,0,0,55.9,47.89l-.208-.713c-.252-.862-.856-2.023-1.949-1.6-1.029.4-1.208,2.036-1.012,2.933l.161.735,2.835-1.92c-.193-.413-.289-.431.006-.886a2.224,2.224,0,0,1,1.492-.787c1.629-.232,1.827-2.532,1.31-3.753a34.125,34.125,0,0,0-2.919-5.457,1.267,1.267,0,0,0-1.779-.466,2.719,2.719,0,0,0-.938,2.275,13.1,13.1,0,0,0,1.043,5.837,2.963,2.963,0,0,0,1.789,1.857A3.22,3.22,0,0,0,58.02,45.4a6.306,6.306,0,0,0,3.378-3.55,8.052,8.052,0,0,0-.8-5.954l-2.445,3.02a4.212,4.212,0,0,1,.59,1.351l2.616-2.437a16.7,16.7,0,0,1-2.937-5.8A1.48,1.48,0,0,0,56.6,30.952a2.488,2.488,0,0,0-1.112,2.369,23.345,23.345,0,0,1-.336,5.312L57.791,37.5q-.535,2.428.281,1.6a3.069,3.069,0,0,1,.519-.372c.377-.256.775-.486,1.161-.727l2.708-1.7c1.448-.907,1.64-3.985-.116-4.728a23.868,23.868,0,0,0-5.864-1.482c-1.009-.15-2.022-.269-3.031-.416-.708-.1-2.055-.072-2.58-.575l.784,1.462-.083-.28-1.492,3.174a30.154,30.154,0,0,1,12.18,2.221l-1.246-2.347a48.213,48.213,0,0,1-1.059,7.22l2.333-1.527-1.209-1.106C59.648,36.6,58.728,39.05,58.7,40.092L58.6,44.678l3.145-.729c-.519-2.119-.68-5.292-2.877-6.381-1.086-.537-1.775,1-1.934,1.757a16.893,16.893,0,0,0-.03,5.487,11.167,11.167,0,0,1,.113,4.368l2.761-.067-2.143-6.175a1.4,1.4,0,0,0-2.015-.945,2.831,2.831,0,0,0-.853,2.888q.822,3.3,1.368,6.661L59,49.6a40.956,40.956,0,0,1-1.779-6.64c-.188-.9-.921-2.048-1.99-1.637-1.111.426-1.152,2.054-1.034,3a24.564,24.564,0,0,1,.144,7.317l2.282-1.493c-1.162-1.26-1.5-3.1-1.9-4.7a18.115,18.115,0,0,0-2.236-5.7,1.16,1.16,0,0,0-1.79-.306,2.847,2.847,0,0,0-.614,2.545,28.151,28.151,0,0,0,2.709,7.971c.577,1.2,1.181,2.391,1.742,3.6.533,1.151,1.557,2.775,1.235,4.064L57.634,56.4a4.708,4.708,0,0,1-1.129-1.27,1.017,1.017,0,0,0-1.573-.27,2.431,2.431,0,0,0-.539,2.237,3.493,3.493,0,0,1-.008,1.97l2.447.425c-.2-1.341-.593-7.948-3.476-5.8-1.062.792-1.616,2.412-2.14,3.583A31.719,31.719,0,0,0,49.6,61.69a2.887,2.887,0,0,0,.268,2.447,1.052,1.052,0,0,0,1.617.277c2.3-2.247,4.647-4.422,7.042-6.563,1.136-1.015.378-4.521-1.351-3.277a25.57,25.57,0,0,0-8.2,10.25l2-.443a22.872,22.872,0,0,1-2.482-4.445c-.8-1.694-1.667-3.355-2.54-5.01a52.3,52.3,0,0,0-5.838-9.013c-.358-.433-.579.284-.469.58Z"/><path class="d" d="M26.6,27.3c-2.3-1.882-5.578.26-6.871,2.394-1.676,2.766-1.156,6.538.291,9.284a6.909,6.909,0,0,0,1.362,1.787c.48.466.848.664.895,1.223.128,1.54-.829,3.189-1.122,4.67a6.414,6.414,0,0,0,.753,4.563c.14.255.548.85.5,1.168.088-.59-.546.193-.652.315a5.506,5.506,0,0,0-.806,1.2c-1.3,2.706.612,7.238,3.958,7.069,1.31-.066,1.4-2.893.2-3.19-.92-.229-2.715-.785-2.566-2.093.091-.788,1.23-1.368,1.534-2.13a4.292,4.292,0,0,0,.1-2.288c-.244-1.289-1.308-2.381-1.141-3.672.217-1.676,1.2-3.152,1.44-4.852a5.241,5.241,0,0,0-1.32-4.671,6.258,6.258,0,0,1-1.893-4.036c-.348-3.6,3.342-4.083,5.344-6.164A.425.425,0,0,0,26.6,27.3Z"/><path class="d" d="M63.594,60.418c.475-1.416.97-2.824,1.469-4.233a30.587,30.587,0,0,1,1.678-4.34,21.894,21.894,0,0,1,1.309-2.068,5.6,5.6,0,0,0,1.123-1.743,3.539,3.539,0,0,0-.072-1.586,7.972,7.972,0,0,1-.226-3.006,8.436,8.436,0,0,1,1.243-4.316c.486-.651,1.094-1.19,1.563-1.863.432-.621.763-1.3,1.159-1.943a15.441,15.441,0,0,1,2.491-2.906c.895-.863,2.151-1.518,2.848-2.544.391-.576.413-2.23-.485-2.437-1.642-.378-3.445,1.776-4.464,2.838-1.441,1.5-2.522,3.343-4.032,4.766a9.137,9.137,0,0,0-2.756,6.62,10,10,0,0,0,.409,3.845c.294.891.66,2.27,1.539,2.751l-.485-.7.05.211.27-1.121a12.554,12.554,0,0,0-2.641,2.243,12.791,12.791,0,0,0-1.87,3.635c-.81,2.473-1.819,5.03-1.415,7.673.117.766,1.012,1.069,1.3.225Z"/><path class="d" d="M53.436,73A12.327,12.327,0,0,1,60.7,62.729c.486-.254.343-1.555-.267-1.293-4.48,1.919-7.88,6.451-7.566,11.462.026.415.5.62.57.1Z"/><path class="d" d="M52.4,70.621,52.3,70.7l-.129.159a.878.878,0,0,0-.127.324.724.724,0,0,0-.039.253.756.756,0,0,0,.007.264,1.047,1.047,0,0,0,.086.369l.108.2.136.152a.375.375,0,0,0,.246.112.219.219,0,0,0,.174,0,.252.252,0,0,0,.163-.072.5.5,0,0,0,.205-.211l.1-.2.06-.24.016-.265a1.055,1.055,0,0,0-.065-.382.891.891,0,0,0-.143-.317l-.082-.114-.1-.117a.286.286,0,0,0-.188-.086.167.167,0,0,0-.133,0,.286.286,0,0,0-.183.094Z"/><path d="M23.007,51.527c-.82-.2-1.233-2.063-1.37-2.775a9.121,9.121,0,0,1,.229-3.989,12.208,12.208,0,0,0,.655-2.247,2.313,2.313,0,0,0-.776-1.636c-2.926-3.642-3.556-9.547.946-12.245a6.3,6.3,0,0,1,5.425-.569,3.5,3.5,0,0,0,2.349.241,5.292,5.292,0,0,0,1.909-1.639,10.359,10.359,0,0,1,10.781-2.811.522.522,0,0,0,.538-.121c4.163-4.709,12.163-3.023,13.524,3.3.283,1.315,1.462.486,1.266-.569a9.384,9.384,0,0,0-6.319-7.263,9.045,9.045,0,0,0-9.224,2.7l.538-.121A11.566,11.566,0,0,0,33.8,23.455a10.561,10.561,0,0,0-1.771,1.519c-.651.7-1.193,1.654-2.2,1.83-.913.16-1.94-.473-2.861-.6a6.331,6.331,0,0,0-2.258.105,8.34,8.34,0,0,0-6.15,6.289,10.472,10.472,0,0,0,.405,5.641,12.084,12.084,0,0,0,1.165,2.429,12.582,12.582,0,0,0,.93,1.307c.379.466.42.273.311.813-.414,2.039-1.087,3.838-.681,5.965.19,1,.91,3.485,2.274,3.38.246-.019.268-.549.039-.606Z"/><path d="M51.983,73.167c-5.764-.018-11.788.052-16.471-3.8a26.922,26.922,0,0,1-5.73-6.655c-.842-1.361-1.588-2.947-3.264-3.37-1.811-.458-4.021-.458-5.181-2.2-1.77-2.665,2.853-4.064,4.69-3.89a7.206,7.206,0,0,1,3.9,1.678,7.621,7.621,0,0,0,1.512,1.079,11.236,11.236,0,0,0,2.164.54c2.826.706,3.969,3.173,5.384,5.42a7.454,7.454,0,0,0,3.06,2.493,28.025,28.025,0,0,1,3.67,2.386,25.87,25.87,0,0,1,6.044,6.683c.611.966,1.271-.7.851-1.367a27.217,27.217,0,0,0-5.831-6.641,28.473,28.473,0,0,0-3.393-2.361c-1.556-.928-2.933-1.541-3.84-3.192-1.27-2.314-2.97-4.723-5.613-5.548a14.17,14.17,0,0,1-2.157-.589c-.792-.394-1.4-1.106-2.154-1.576a8.143,8.143,0,0,0-3.858-1.223c-2.425-.142-5.093,1.1-5.951,3.5A4.788,4.788,0,0,0,22.279,60.3a9.829,9.829,0,0,0,3.056.9,3.418,3.418,0,0,1,2.031.727,17.861,17.861,0,0,1,2.1,3.148,30,30,0,0,0,2.94,3.707,17.749,17.749,0,0,0,8.634,5.507c3.647.9,7.327.352,10.964-.273.365-.063.367-.848-.02-.849Z"/><path d="M51.108,73.088a14.3,14.3,0,0,0,9.58.662,21.226,21.226,0,0,0,8.642-4.628c5.3-4.594,8.042-11.65,8.5-18.53a41.932,41.932,0,0,0-.841-12.381c-.117-.5-.506-1.061-1.07-.743s-.486,1.2-.331,1.692c2.543,8.163,1.493,17.356-3.917,24.17a23.2,23.2,0,0,1-9.084,6.961,28.862,28.862,0,0,1-11.417,1.9c-.4,0-.349.769-.057.894Z"/><path d="M51.694,73.605a14.338,14.338,0,0,1,5.643-8.713c2.944-2.095,6.454-2.357,9.779-3.489a8.924,8.924,0,0,0,6.055-6.165c.847-3.057.5-6.256.689-9.384a10.457,10.457,0,0,1,1.03-4.4,10.034,10.034,0,0,1,3.4-3.2c2.547-1.781,4.368-4.437,2.922-7.592a5.792,5.792,0,0,0-7.532-2.943A8.623,8.623,0,0,0,70.1,30.69c-1.166,1.609-1.585,3.581-2.6,5.271a13.518,13.518,0,0,0-2.027,8.891c.068.569.232,1.122.3,1.687a2.579,2.579,0,0,1-.614,1.938c-2.452,3.584-4.394,7.838-3.937,12.3.086.843,1.112,1.36,1.215.22.349-3.865,1.153-7.269,3.47-10.461a5.524,5.524,0,0,0,1.347-4.411,12.023,12.023,0,0,1,.054-5.722c.53-1.779,1.7-3.209,2.394-4.911a10.759,10.759,0,0,1,2.689-4.462,5.531,5.531,0,0,1,4.318-1.473,4.071,4.071,0,0,1,3.418,2.968c.226,1.511-1.358,2.656-2.419,3.448a16.1,16.1,0,0,0-3.146,2.7c-1.752,2.193-2.132,5.018-2.23,7.737-.1,2.789.258,5.8-.7,8.474-1.112,3.113-4.1,4.254-7.067,5.009-3.5.891-6.722,1.769-9.388,4.35a14.656,14.656,0,0,0-4.461,8.983c-.085.791.766,1.386.974.381Z"/><path d="M26.547,52.191c.507-3.5.839-6.79,2.328-10.056a26.35,26.35,0,0,1,6.339-8.678C41.085,28.2,49.346,26.478,57,27.821c4.446.78,9.3,2.558,12.617,5.711.9.859,1.444-1.4.736-2.068-3.176-2.99-7.68-4.75-11.892-5.648A29.6,29.6,0,0,0,45.825,25.8,25.516,25.516,0,0,0,28.3,40.011C26.636,43.573,25.182,48.26,26.2,52.2c.062.24.314.256.352-.009Z"/><path d="M52.012,19.783a4.318,4.318,0,0,1,2.719-1.8,12.636,12.636,0,0,1,4.284-1.037,3.642,3.642,0,0,1,3.276,1.709,10.435,10.435,0,0,0,1.244,2.6c.74.788,1.711.765,2.711.889a10.843,10.843,0,0,1,8.324,6.025c.618,1.316,1.7-.216,1.235-1.154a12.352,12.352,0,0,0-5.263-5.5,11.47,11.47,0,0,0-3.673-1.222,10.717,10.717,0,0,1-2.15-.25c-.745-.286-.917-1.062-1.182-1.733-1.047-2.652-3.595-3.425-6.245-2.795-2.086.5-5.286,1.494-5.608,4-.021.158.178.565.328.277Z"/><path d="M38.941,34.785a37.884,37.884,0,0,1,7.109,7.284,42.611,42.611,0,0,1,5.733,8.8,18.139,18.139,0,0,1,1.377,9.777,34.694,34.694,0,0,1-1.011,5.171c-.432,1.565-1.2,3.1-1.5,4.688-.079.418.356,1.226.755.637a18.518,18.518,0,0,0,1.8-4.926,41.337,41.337,0,0,0,1.3-5.475,20.111,20.111,0,0,0-1.129-10.561A37.016,37.016,0,0,0,47.3,40.442c-2.1-2.584-4.576-6.21-8.02-7-.669-.155-.753,1.039-.338,1.347Z"/><path d="M53,33.038c-.6.592-1.249,1.145-1.842,1.75a12.825,12.825,0,0,0-1.43,1.811,16.515,16.515,0,0,0-2.089,4.571,1.387,1.387,0,0,0,.284,1.437c.375.308.816,0,.938-.4a31.238,31.238,0,0,1,1.617-4.522c.328-.685.724-1.326,1.112-1.976a16.751,16.751,0,0,1,1.576-2.268c.112-.133.022-.584-.166-.4Z"/><path d="M33.5,48.969a44.07,44.07,0,0,0,5.463-.074,28.915,28.915,0,0,1,5.1-.111,17.513,17.513,0,0,1,4.588,1.279,19.728,19.728,0,0,1,1.959.947,9.635,9.635,0,0,0,1.974,1.141c.665.174.714-.92.455-1.285-.817-1.148-2.572-1.871-3.826-2.425a17.673,17.673,0,0,0-4.757-1.379,16.959,16.959,0,0,0-5.354.271,47.252,47.252,0,0,0-5.644,1.291c-.132.042-.1.335.039.345Z"/><path d="M41.381,56.563c2.093.751,4.354.923,6.452,1.682a25.661,25.661,0,0,1,2.992,1.273c.479.247.93.536,1.4.8.425.24,1.067.719,1.547.44a.979.979,0,0,0,.364-1.054c-.263-1.2-1.671-1.892-2.673-2.429A12.951,12.951,0,0,0,48.182,56a9.6,9.6,0,0,0-6.8.478c-.027.014-.03.073,0,.084Z"/><path d="M59.009,38.738a30.309,30.309,0,0,0-4.4,5.363c-1.322,1.989-2.535,4.175-2.2,6.649.052.384.378.861.811.768.463-.1.594-.7.6-1.094.025-2.043,1.058-3.821,2.046-5.553,1.105-1.94,2.232-3.864,3.319-5.815.057-.1,0-.475-.171-.318Z"/><path d="M34.989,40.215c3.89-.244,8.384.007,11.69,2.323.953.667,1.427-1.521.48-1.913a21.966,21.966,0,0,0-6.029-1.749,12.828,12.828,0,0,0-6.2.794c-.187.075-.173.56.062.545Z"/></svg>