<svg xmlns="http://www.w3.org/2000/svg" width="100.999" height="35.346" viewBox="0 0 100.999 35.346"><title>circle</title><path d="M48.749,2.2A86.942,86.942,0,0,0,21.788,5.414C15.577,7.134,7.08,8.974,2.73,14.082-.3,17.646-1.052,23.2,1.73,27.128c3.919,5.542,12.892,6.978,19.134,7.594,18.664,1.841,38.444-.605,56.689-4.547,6.131-1.325,17.422-2.895,21.7-8.069a7.428,7.428,0,0,0-.673-10.272C84.863-1.081,61.819-.9,44.517.847c-1.341.135-1.139,4.356.1,4.231C61.208,3.4,78.955,3.622,93.6,12.656c1.086.67,3.481,1.711,4.028,2.788,1.913,3.769-1.8,4.786-4.073,5.753a78.907,78.907,0,0,1-12.6,3.955,209.569,209.569,0,0,1-26.312,4.464A216.518,216.518,0,0,1,28.77,30.871c-7.825-.1-17.284-.458-23.9-5.177C-6.6,17.524,19.43,10.259,23.653,9.174a86.145,86.145,0,0,1,25.2-2.743c1.243.052,1.25-4.174-.1-4.232Z"/></svg>