<svg xmlns="http://www.w3.org/2000/svg" width="100" height="100" viewBox="0 0 100 100"><defs><style>.a{fill:#7eb457;}</style></defs><title>kale</title><path d="M42.344,30.247a5.368,5.368,0,0,0-5.734-1.114,6.148,6.148,0,0,0-2.449,2.019,8.292,8.292,0,0,1-3.354,2.588c-2.059.94-3.73,2.082-4.384,4.357a6.775,6.775,0,0,0,1.1,6.046l.1-1.735a8.955,8.955,0,0,0-1.92,8.557c.211.7.623,1.3.866,1.979.3.829-.474,1.673-.657,2.5a5.926,5.926,0,0,0,.807,4.308c1.794,2.959,5.6,4,8.068,6.292,2.542,2.365,4.514,5.738,4.273,9.311-.032.468.019,1.305.589,1.47.523.152.921-.387.954-.866.453-6.554-3.672-11.748-9.086-14.912-1.467-.858-3.223-1.811-3.916-3.464-.676-1.61.856-2.861.661-4.517-.175-1.5-1.274-2.646-1.419-4.179A6.112,6.112,0,0,1,28.4,44.294a1.455,1.455,0,0,0,.1-1.735,3.941,3.941,0,0,1-.219-4.806c1.052-1.491,3-1.9,4.457-2.874,1.6-1.076,2.235-3.076,3.88-4.055a5.363,5.363,0,0,1,5.487.078c.354.234.447-.459.233-.655Z"/><path d="M48.057,70.928a16.639,16.639,0,0,1,4.737-10.754c1.811-1.835,6.257-3.665,5.241-6.942a2.814,2.814,0,0,1-.219-1.264,2.573,2.573,0,0,1,.524-1.66,10.4,10.4,0,0,0,.974-2.4,7.611,7.611,0,0,0-.139-4.516,6.09,6.09,0,0,0-1.067-1.866c-.225-.265-.507-.464-.737-.715-.07-.077-.342-.193-.382-.289-.137-.334.191-.731.366-.964.815-1.082,1.652-1.91,1.317-3.39-.855-3.775-5.918-2.958-8.27-5.124-1.184-1.091-2.2-2.084-3.916-2.095a6.79,6.79,0,0,0-4.518,2.041A13.23,13.23,0,0,1,40.037,32.9c-.772.451-1.7.574-2.479,1.06a8.966,8.966,0,0,0-3.319,3.58,5.9,5.9,0,0,0-.45,4.206,6.16,6.16,0,0,1-.046,3.315,12.777,12.777,0,0,0-.5,2.53,5.24,5.24,0,0,0,.506,2.618c.581,1.181,1.247,1.906.975,3.333a4.852,4.852,0,0,0,1.16,4.617,60.142,60.142,0,0,0,5.084,4.314,5.07,5.07,0,0,1,2.051,3.363,11.929,11.929,0,0,1-.38,4.183c-.1.4-.142,1.066.263,1.333a.558.558,0,0,0,.871-.373c.783-3.116,1.067-6.814-1.338-9.293a45.182,45.182,0,0,0-4.19-3.49,10.681,10.681,0,0,1-2.058-1.876c-.771-1.066-.323-2.037-.226-3.214.136-1.626-.723-2.544-1.367-3.931-.847-1.828.5-3.828.541-5.7.032-1.726-.923-3.138-.16-4.851a7.79,7.79,0,0,1,3.861-3.794,7.774,7.774,0,0,0,1.819-.755c.674-.53,1.17-1.323,1.8-1.917,1.387-1.313,3.375-2.4,5.324-1.726,1.546.533,2.437,2.133,3.958,2.779,1.659.706,3.73.637,5.2,1.768a2.24,2.24,0,0,1,.31,3.451,4.04,4.04,0,0,0-1.03,1.385c-.338,1.141.579,1.5,1.281,2.191a6,6,0,0,1,1.116,6.213c-.392,1.209-1.706,2.552-1.6,3.878a2.376,2.376,0,0,0,.266.818,2.59,2.59,0,0,1-.075,2.646,9.5,9.5,0,0,1-2.554,2.283,17.1,17.1,0,0,0-3.6,3.659,17.667,17.667,0,0,0-3.3,9.429c-.016.3.3.282.314-.008Z"/><path d="M57.185,34.841a3.542,3.542,0,0,1,.25,3.551c-.324.546-.956.853-1.142,1.482a1.694,1.694,0,0,0,.382,1.576,7.671,7.671,0,0,1,1.665,2.114c.865,2.215-.315,3.714-1.3,5.576a4.99,4.99,0,0,0-.116,4.454c.357,1.058,0,1.519-.826,2.2-.7.579-1.488,1.052-2.244,1.557a12.417,12.417,0,0,0-3.437,3.408,20.665,20.665,0,0,0-3.051,10.425c-.056.92,1.122,1.284,1.21.219a18.936,18.936,0,0,1,2.826-9.22,12.328,12.328,0,0,1,3.407-3.225A10.721,10.721,0,0,0,57.9,56.368a3.68,3.68,0,0,0,.282-3.354c-.3-.858-.681-1.417-.316-2.324.293-.727.788-1.366,1.148-2.061a6.792,6.792,0,0,0-.82-7.59c-.125-.134-.782-.609-.78-.753,0-.1.456-.546.527-.656a4.421,4.421,0,0,0,.639-1.81,3.429,3.429,0,0,0-1.235-3.3c-.177-.144-.221.225-.155.326Z"/><path d="M50.52,31.944A5.927,5.927,0,0,1,56.314,30a5.432,5.432,0,0,1,2.513,1.522c.752.807.831,1.93,1.5,2.726.514.611,1.371.577,2.06.91a4.211,4.211,0,0,1,1.673,6.449,1.913,1.913,0,0,0-.135,1.936c.467.9,1.312,1.559,1.782,2.484a4.349,4.349,0,0,1,.095,4.214,6.959,6.959,0,0,0-1.17,1.949,6.6,6.6,0,0,0,.265,2.717c.486,2.834-2.4,4.183-4.533,5.2A18.777,18.777,0,0,0,55.4,63.431a18.286,18.286,0,0,0-5.537,11.383c-.082.835.916,1.453,1.019.4A16.787,16.787,0,0,1,57.8,63.243c1.988-1.422,4.5-2.037,6.333-3.678a5.315,5.315,0,0,0,1.65-5.473A2.473,2.473,0,0,1,66.035,52a11.555,11.555,0,0,0,.73-1.1,5.945,5.945,0,0,0,.541-3.057A7.252,7.252,0,0,0,66.445,45,9.531,9.531,0,0,0,65.4,43.433c-.15-.184-.443-.382-.516-.6-.105-.306.145-.511.322-.836a6.2,6.2,0,0,0,.029-5.824,5.756,5.756,0,0,0-1.879-2.058,5.557,5.557,0,0,0-1.067-.558c-.8-.306-1.132-.2-1.554-1.071-.993-2.062-2.235-3.756-4.655-4.207a5.6,5.6,0,0,0-5.941,2.957c-.128.23.055,1.081.38.706Z"/><path d="M31.37,38.023a4.544,4.544,0,0,1,.395.294c.125.1.258.2.385.3a4.027,4.027,0,0,1,.653.652,4.546,4.546,0,0,1,.268.379q.068.108.129.219c-.042-.075.022.043.024.047.019.037.037.075.055.113.064.137.124.278.181.419a2.411,2.411,0,0,0,.137.291c.011.018.061.114.017.028q.027.051.051.1c.063.129.184.27.343.2a.465.465,0,0,0,.209-.444,2.524,2.524,0,0,0-.136-.706,3.3,3.3,0,0,0-.255-.508,4.344,4.344,0,0,0-.656-.824,4.243,4.243,0,0,0-.816-.626,1.673,1.673,0,0,0-.428-.2,4.068,4.068,0,0,0-.5-.1c-.153-.02-.146.3-.055.363Z"/><path d="M30.877,44.927a4.183,4.183,0,0,1,1.746,1.325c.111.148.221.3.327.45.052.074.1.151.15.229.024.039.048.078.07.118l.034.06c-.019-.036-.021-.039-.005-.01a4.337,4.337,0,0,1,.219.5c.016.043.029.087.045.129s.01.029-.008-.03l.018.065c.027.095.049.19.069.286.045.218.234.523.5.409s.322-.514.259-.749a4.166,4.166,0,0,0-1.3-2.188,4.293,4.293,0,0,0-2.1-.907c-.136-.018-.121.272-.02.314Z"/><path d="M30.167,53.741a10.888,10.888,0,0,1,2.715,1.153,8.057,8.057,0,0,1,1.188.81q.273.222.526.467a4.077,4.077,0,0,0,.553.539.284.284,0,0,0,.441-.145.737.737,0,0,0-.044-.687,3.984,3.984,0,0,0-1.125-1.045,8.807,8.807,0,0,0-1.326-.8,7.119,7.119,0,0,0-2.907-.626c-.139,0-.144.306-.021.336Z"/><path d="M60.858,52.493a7.64,7.64,0,0,0-2,1.039,5.043,5.043,0,0,0-.822.771,4.038,4.038,0,0,0-.379.468,5.553,5.553,0,0,0-.3.553.447.447,0,0,0-.006.419c.051.09.179.182.272.075.11-.126.225-.248.342-.367s.242-.287.366-.427c.247-.28.518-.537.783-.8a7.918,7.918,0,0,1,1.825-1.339c.145-.078.114-.46-.081-.394Z"/><path d="M61.8,44.018c-.144.034-.286.073-.426.119a2.052,2.052,0,0,0-.4.2,5.888,5.888,0,0,0-.776.555,5.006,5.006,0,0,0-1.175,1.461.86.86,0,0,0,.021.885.322.322,0,0,0,.582-.014,7.081,7.081,0,0,1,.454-.752q.124-.184.263-.358c-.061.076.015-.018.028-.033l.08-.093c.049-.056.1-.111.151-.165a5.732,5.732,0,0,1,.663-.592c.243-.184.483-.375.733-.549.127-.088.128-.331.087-.458s-.133-.24-.287-.2Z"/><path d="M61.282,38.063a8.623,8.623,0,0,0-2.664,1.186,7.739,7.739,0,0,0-1.084.978,3.992,3.992,0,0,0-.495.577,1.019,1.019,0,0,0,.013,1.051.319.319,0,0,0,.56-.014.818.818,0,0,0-.021-.853l.04.069.062.3a.42.42,0,0,1-.035.164c-.037.084-.039.1-.007.051a.674.674,0,0,0,.1-.129c.055-.072.111-.142.168-.212.132-.158.27-.312.412-.461.293-.308.61-.593.919-.885a8.9,8.9,0,0,1,2.1-1.5c.125-.063.1-.376-.067-.328Z"/><path d="M46.356,33.787c-.175,3.064.644,6.245.9,9.3a41.949,41.949,0,0,1-.453,9.444c-.824,5.754-2.233,11.9-.96,17.7.24,1.092,1.173.391,1.042-.467-.966-6.342.529-12.351,1.269-18.623a40.227,40.227,0,0,0,.152-8.788q-.225-2.225-.561-4.436a25.785,25.785,0,0,0-.82-4.37c-.167-.5-.547-.06-.565.249Z"/><path d="M51.486,39.486c-.243.12-.5.234-.731.374a5.024,5.024,0,0,0-.617.48A7.613,7.613,0,0,0,48.959,41.6a9.954,9.954,0,0,0-.884,1.425,3.358,3.358,0,0,0-.569,1.893c.033.173.223.5.451.371.268-.156.328-.479.443-.748.106-.247.2-.5.318-.741a9.839,9.839,0,0,1,.78-1.354,15.129,15.129,0,0,1,.949-1.259c.372-.439.756-.884,1.164-1.289.1-.1.077-.513-.125-.413Z"/><path d="M42.69,40.486a20.957,20.957,0,0,1,1.375,1.694c.431.536.854,1.079,1.283,1.616a31.216,31.216,0,0,1,2.342,3.312.355.355,0,0,0,.623-.015.928.928,0,0,0-.023-.95A24.08,24.08,0,0,0,45.823,42.8a14,14,0,0,0-1.406-1.36c-.522-.436-1.111-.76-1.65-1.172-.113-.087-.144.151-.077.218Z"/><path d="M40.928,47.8a8.357,8.357,0,0,0,1.544,1.637c.541.56,1.1,1.1,1.626,1.681a18.562,18.562,0,0,1,1.4,1.754A4.565,4.565,0,0,1,46.4,54.9c.03.236.246.517.507.417.283-.108.293-.523.263-.763a8.163,8.163,0,0,0-2.461-4.2A12.013,12.013,0,0,0,42.974,48.7q-.5-.364-1.02-.7A1.779,1.779,0,0,0,41,47.593c-.088,0-.1.147-.072.207Z"/><path d="M40.863,55.877a10.078,10.078,0,0,1,2.9,2.1A12.559,12.559,0,0,1,44.875,59.3a5.85,5.85,0,0,0,1.016,1.3c.289.222.4-.265.373-.459a3.57,3.57,0,0,0-.855-1.7,6.8,6.8,0,0,0-1.325-1.261,8,8,0,0,0-3.211-1.368c-.034-.006-.036.054-.01.066Z"/><path d="M52.44,47.9a18.513,18.513,0,0,0-2.884,2.03,28.113,28.113,0,0,0-2.493,2.521.824.824,0,0,0-.093.923c.141.251.446.34.615.048a18.891,18.891,0,0,1,4.905-5.357c.049-.038.021-.207-.05-.165Z"/><path d="M51.2,55.976a12.943,12.943,0,0,0-3.384,2.991,11.209,11.209,0,0,0-2.1,4.356c-.111.557.493,1.232.819.5.291-.657.5-1.344.813-1.994a19.849,19.849,0,0,1,1.088-1.968c.4-.63.789-1.292,1.245-1.88a15.993,15.993,0,0,1,1.6-1.755c.062-.06.033-.318-.075-.248Z"/><path d="M39.438,75.7c-.345,1.017.68,2.124,1.586,2.405,1.4.433,2.884-.112,4.273-.317q1.1-.164,2.216-.224a19.517,19.517,0,0,0,2.027-.055c1.287-.212,1.578-1.814,1.183-2.864-.212-.562-.793-.314-.856.193-.037.294.072.813-.159,1.026-.29.268-.964.158-1.321.162a24.273,24.273,0,0,0-3.427.285,11.713,11.713,0,0,1-3.278.372,3.332,3.332,0,0,1-1.168-.4c-.318-.186-.537-.493-.842-.682a.151.151,0,0,0-.234.1Z"/><path class="a" d="M63.93,43.54c.46.9,1.31,1.56,1.78,2.49a4.322,4.322,0,0,1,.09,4.21,7.174,7.174,0,0,0-1.17,1.95,6.575,6.575,0,0,0,.27,2.71c.48,2.84-2.4,4.19-4.53,5.21a18.758,18.758,0,0,0-4.98,3.32,18.2,18.2,0,0,0-5.06,8.72l-1.81-.46a1.139,1.139,0,0,0,.06-.29,18.945,18.945,0,0,1,2.82-9.22,12.481,12.481,0,0,1,3.41-3.23,10.7,10.7,0,0,0,3.09-2.58,3.27,3.27,0,0,0,.52-1.43c.22-.25.46-.48.69-.71a7.691,7.691,0,0,1,1.83-1.34c.14-.08.11-.46-.08-.4a7.764,7.764,0,0,0-2,1.04,3.5,3.5,0,0,0-.46.39,5.02,5.02,0,0,0-.22-.91c-.13-.36-.27-.67-.36-.98v-.06a2.516,2.516,0,0,1,.52-1.66,10.73,10.73,0,0,0,.96-2.36c.07-.19.14-.39.2-.59a.353.353,0,0,0,.13-.14,5.8,5.8,0,0,1,.46-.75c.08-.12.16-.23.25-.35l.04-.04a.647.647,0,0,1,.08-.09c.05-.06.1-.11.15-.17a5.337,5.337,0,0,1,.66-.59c.24-.18.48-.38.73-.55.13-.09.13-.33.09-.46s-.13-.24-.29-.2a3.311,3.311,0,0,0-.42.12,1.5,1.5,0,0,0-.4.2,5.805,5.805,0,0,0-.78.55,5.864,5.864,0,0,0-.42.44,6.3,6.3,0,0,0-1.59-4.29l-.05-.05c.06-.07.12-.15.19-.22.29-.31.61-.59.92-.88a8.848,8.848,0,0,1,2.1-1.5c.12-.06.1-.37-.07-.33a8.613,8.613,0,0,0-2.66,1.19,7.209,7.209,0,0,0-1.09.98,1.1,1.1,0,0,0-.1.11.169.169,0,0,1-.02-.05c0-.11.46-.55.53-.66a4.5,4.5,0,0,0,.63-1.81c.01-.05.01-.09.02-.14a2.526,2.526,0,0,0,.08-1.51c-.79-3.49-5.17-3.06-7.69-4.69A5.839,5.839,0,0,1,56.31,30a5.462,5.462,0,0,1,2.52,1.52c.75.81.83,1.93,1.5,2.73.51.61,1.37.57,2.06.91a4.207,4.207,0,0,1,1.67,6.44A1.93,1.93,0,0,0,63.93,43.54Z"/><path class="a" d="M45.35,66.21a22.537,22.537,0,0,0,.49,4.01c.21.94.93.55,1.04-.13l.57.05c-.03.35-.06.69-.08,1.04-.05.82.88,1.2,1.15.51l1.81.46a17.025,17.025,0,0,0-.47,2.66.4.4,0,0,0,0,.11c-.01.31.06.75-.15.94-.29.27-.97.16-1.32.16a24.545,24.545,0,0,0-3.43.29,11.763,11.763,0,0,1-3.28.37,3.221,3.221,0,0,1-1.15-.4,1.226,1.226,0,0,0,.08-.33c.45-6.55-3.68-11.74-9.09-14.91-1.47-.85-3.22-1.81-3.92-3.46-.62-1.5.65-2.68.68-4.17l1.8.16c0,.08.03.16.09.17a11.16,11.16,0,0,1,2.71,1.15,8.9,8.9,0,0,1,1.19.81c.18.15.36.31.53.47.07.07.15.16.22.24a4.84,4.84,0,0,0,1.06,1.75,61.751,61.751,0,0,0,5.09,4.32,5.041,5.041,0,0,1,2.05,3.36,12.037,12.037,0,0,1-.38,4.18c-.1.4-.14,1.07.26,1.34a.557.557,0,0,0,.87-.38,15.426,15.426,0,0,0,.54-4.74Z"/><path class="a" d="M34.72,53.55a6.951,6.951,0,0,0-.13,1.4c-.06-.04-.12-.08-.17-.12a9.868,9.868,0,0,0-1.32-.8,7.109,7.109,0,0,0-2.91-.62c-.07-.01-.11.08-.11.16l-1.8-.16c0-.12-.01-.23-.02-.35-.17-1.49-1.27-2.64-1.42-4.18a6.188,6.188,0,0,1,1.56-4.59,1.459,1.459,0,0,0,.11-1.73,3.936,3.936,0,0,1-.22-4.81c1.05-1.49,3-1.89,4.45-2.87,1.61-1.08,2.24-3.08,3.88-4.06a5.385,5.385,0,0,1,5.47.07,1.059,1.059,0,0,0-.12.1,13.385,13.385,0,0,1-1.93,1.91c-.77.45-1.7.58-2.48,1.06a9.005,9.005,0,0,0-3.32,3.58,6.148,6.148,0,0,0-.54,1.69,4.1,4.1,0,0,0-.53-.64,3.889,3.889,0,0,0-.82-.63,1.622,1.622,0,0,0-.42-.2,3.16,3.16,0,0,0-.5-.1c-.16-.02-.15.3-.06.36a3.792,3.792,0,0,1,.4.3c.12.1.25.19.38.3a4,4,0,0,1,.65.65,3.282,3.282,0,0,1,.27.38c.04.06.08.13.12.2a.329.329,0,0,1,.03.06l.06.12q.09.195.18.42a1.922,1.922,0,0,0,.14.29.219.219,0,0,0,.03.05c0,.01,0,.01.01.02a6.326,6.326,0,0,0,.15.94,6.14,6.14,0,0,1-.05,3.32c-.08.32-.17.64-.24.97a3.137,3.137,0,0,0-.51-.52,4.278,4.278,0,0,0-2.09-.91c-.14-.01-.12.28-.02.32a4.129,4.129,0,0,1,1.74,1.32l.33.45c.05.08.1.15.15.23.02.04.05.08.07.12a.037.037,0,0,1,.01.03l.02.02c.03.06.05.12.08.18-.01.1-.03.21-.04.32a5.223,5.223,0,0,0,.51,2.61C34.33,51.39,35,52.12,34.72,53.55Z"/><path class="a" d="M46.43,54.97c-.22,1.34-.43,2.69-.62,4.04a5.807,5.807,0,0,0-.4-.57,6.627,6.627,0,0,0-1.33-1.26,7.848,7.848,0,0,0-3.21-1.37c-.03,0-.03.06-.01.07a10.172,10.172,0,0,1,2.9,2.09,12.918,12.918,0,0,1,1.12,1.33,13,13,0,0,0,.76,1.07,36.984,36.984,0,0,0-.29,5.84l-1.04.03a6.993,6.993,0,0,0-1.88-4.55,42.58,42.58,0,0,0-4.19-3.49,10.464,10.464,0,0,1-2.05-1.88c-.77-1.06-.33-2.03-.23-3.21.14-1.63-.72-2.54-1.37-3.93-.84-1.83.51-3.83.54-5.7.04-1.73-.92-3.14-.15-4.85a7.761,7.761,0,0,1,3.86-3.8,7.842,7.842,0,0,0,1.82-.75c.67-.53,1.17-1.32,1.79-1.92,1.39-1.31,3.38-2.4,5.32-1.72,1.55.53,2.44,2.13,3.96,2.78,1.66.7,3.73.63,5.2,1.76a2.577,2.577,0,0,1,.67.74,3.617,3.617,0,0,1,.11,1.98,2.919,2.919,0,0,1-.47.73,4.134,4.134,0,0,0-1.03,1.39,1.22,1.22,0,0,0,.18,1.16,2.016,2.016,0,0,0,.28.47,7.6,7.6,0,0,1,1.67,2.11c.86,2.22-.31,3.72-1.3,5.58a4.978,4.978,0,0,0-.11,4.45c.35,1.06-.01,1.52-.83,2.2-.7.58-1.49,1.05-2.24,1.56a12.373,12.373,0,0,0-3.44,3.4,19.641,19.641,0,0,0-2.97,9.39l-.57-.05a.97.97,0,0,0,0-.34,30.308,30.308,0,0,1-.27-6.15c.25-.59.45-1.19.73-1.77a17.953,17.953,0,0,1,1.09-1.97c.39-.63.79-1.29,1.24-1.88a16.709,16.709,0,0,1,1.6-1.76c.06-.06.03-.31-.08-.24a12.715,12.715,0,0,0-3.38,2.99,14.652,14.652,0,0,0-.93,1.43c.28-2.48.69-4.96,1.04-7.48a19.343,19.343,0,0,1,4.57-4.85c.05-.04.02-.21-.05-.17a18.211,18.211,0,0,0-2.88,2.03c-.5.43-.97.9-1.43,1.38.01-.06.01-.12.02-.18a42.81,42.81,0,0,0,.29-6.69c.09-.21.18-.43.28-.64a10.066,10.066,0,0,1,.78-1.35,14.325,14.325,0,0,1,.95-1.26c.37-.44.75-.89,1.16-1.29.1-.1.08-.51-.12-.41-.25.12-.5.23-.74.37a4.593,4.593,0,0,0-.61.48,7.41,7.41,0,0,0-1.18,1.26,8.775,8.775,0,0,0-.64.99c-.01-.08-.01-.16-.02-.25-.15-1.48-.33-2.96-.56-4.43a25.711,25.711,0,0,0-.82-4.37c-.17-.5-.55-.06-.56.25-.18,3.06.64,6.24.89,9.29.05.54.06,1.09.07,1.63a20.021,20.021,0,0,0-1.5-1.91,13.848,13.848,0,0,0-1.4-1.36c-.53-.44-1.11-.76-1.65-1.17-.12-.09-.15.15-.08.22a18.71,18.71,0,0,1,1.37,1.69c.44.54.86,1.08,1.29,1.62a32.136,32.136,0,0,1,1.98,2.76,52.308,52.308,0,0,1-.53,5.97c-.03.18-.06.36-.08.55a11.819,11.819,0,0,0-2.01-2.73,11.33,11.33,0,0,0-1.74-1.65c-.33-.25-.67-.48-1.02-.7a1.8,1.8,0,0,0-.95-.41c-.09.01-.1.15-.07.21a8.524,8.524,0,0,0,1.54,1.64c.54.56,1.11,1.1,1.63,1.68a18.187,18.187,0,0,1,1.4,1.75,4.653,4.653,0,0,1,.9,2.03C46.41,54.92,46.42,54.95,46.43,54.97Z"/><path d="M47.33,46.56a32.136,32.136,0,0,0-1.98-2.76c-.43-.54-.85-1.08-1.29-1.62a18.71,18.71,0,0,0-1.37-1.69c-.07-.07-.04-.31.08-.22.54.41,1.12.73,1.65,1.17a13.848,13.848,0,0,1,1.4,1.36,20.021,20.021,0,0,1,1.5,1.91c-.01-.54-.02-1.09-.07-1.63-.25-3.05-1.07-6.23-.89-9.29.01-.31.39-.75.56-.25a25.711,25.711,0,0,1,.82,4.37c.23,1.47.41,2.95.56,4.43.01.09.01.17.02.25a8.775,8.775,0,0,1,.64-.99,7.41,7.41,0,0,1,1.18-1.26,4.593,4.593,0,0,1,.61-.48c.24-.14.49-.25.74-.37.2-.1.22.31.12.41-.41.4-.79.85-1.16,1.29a14.325,14.325,0,0,0-.95,1.26,10.066,10.066,0,0,0-.78,1.35c-.1.21-.19.43-.28.64a42.81,42.81,0,0,1-.29,6.69c-.01.06-.01.12-.02.18.46-.48.93-.95,1.43-1.38a18.211,18.211,0,0,1,2.88-2.03c.07-.04.1.13.05.17a19.343,19.343,0,0,0-4.57,4.85c-.35,2.52-.76,5-1.04,7.48a14.652,14.652,0,0,1,.93-1.43,12.715,12.715,0,0,1,3.38-2.99c.11-.07.14.18.08.24a16.709,16.709,0,0,0-1.6,1.76c-.45.59-.85,1.25-1.24,1.88a17.953,17.953,0,0,0-1.09,1.97c-.28.58-.48,1.18-.73,1.77a30.308,30.308,0,0,0,.27,6.15.97.97,0,0,1,0,.34c-.11.68-.83,1.07-1.04.13a22.537,22.537,0,0,1-.49-4.01,36.984,36.984,0,0,1,.29-5.84,13,13,0,0,1-.76-1.07,12.918,12.918,0,0,0-1.12-1.33,10.172,10.172,0,0,0-2.9-2.09c-.02-.01-.02-.07.01-.07a7.848,7.848,0,0,1,3.21,1.37,6.627,6.627,0,0,1,1.33,1.26,5.807,5.807,0,0,1,.4.57c.19-1.35.4-2.7.62-4.04-.01-.02-.02-.05-.03-.07a4.653,4.653,0,0,0-.9-2.03,18.187,18.187,0,0,0-1.4-1.75c-.52-.58-1.09-1.12-1.63-1.68a8.524,8.524,0,0,1-1.54-1.64c-.03-.06-.02-.2.07-.21a1.8,1.8,0,0,1,.95.41c.35.22.69.45,1.02.7a11.33,11.33,0,0,1,1.74,1.65,11.819,11.819,0,0,1,2.01,2.73c.02-.19.05-.37.08-.55A52.308,52.308,0,0,0,47.33,46.56Z"/><path d="M33.2,47.1l-.02-.02S33.19,47.08,33.2,47.1Z"/><path d="M44.96,76.31a24.545,24.545,0,0,1,3.43-.29c.35,0,1.03.11,1.32-.16.21-.19.14-.63.15-.94a.4.4,0,0,1,0-.11,17.025,17.025,0,0,1,.47-2.66,18.2,18.2,0,0,1,5.06-8.72,18.758,18.758,0,0,1,4.98-3.32c2.13-1.02,5.01-2.37,4.53-5.21a6.575,6.575,0,0,1-.27-2.71,7.174,7.174,0,0,1,1.17-1.95,4.322,4.322,0,0,0-.09-4.21c-.47-.93-1.32-1.59-1.78-2.49a1.93,1.93,0,0,1,.13-1.94,4.207,4.207,0,0,0-1.67-6.44c-.69-.34-1.55-.3-2.06-.91-.67-.8-.75-1.92-1.5-2.73A5.462,5.462,0,0,0,56.31,30a5.839,5.839,0,0,0-5.33,1.48c2.52,1.63,6.9,1.2,7.69,4.69a2.526,2.526,0,0,1-.08,1.51c-.01.05-.01.09-.02.14a4.5,4.5,0,0,1-.63,1.81c-.07.11-.53.55-.53.66a.169.169,0,0,0,.02.05,1.1,1.1,0,0,1,.1-.11,7.209,7.209,0,0,1,1.09-.98,8.613,8.613,0,0,1,2.66-1.19c.17-.04.19.27.07.33a8.848,8.848,0,0,0-2.1,1.5c-.31.29-.63.57-.92.88-.07.07-.13.15-.19.22l.05.05a6.3,6.3,0,0,1,1.59,4.29,5.864,5.864,0,0,1,.42-.44,5.805,5.805,0,0,1,.78-.55,1.5,1.5,0,0,1,.4-.2,3.311,3.311,0,0,1,.42-.12c.16-.04.25.06.29.2s.04.37-.09.46c-.25.17-.49.37-.73.55a5.337,5.337,0,0,0-.66.59c-.05.06-.1.11-.15.17a.647.647,0,0,0-.08.09l-.04.04c-.09.12-.17.23-.25.35a5.8,5.8,0,0,0-.46.75.353.353,0,0,1-.13.14c-.06.2-.13.4-.2.59a10.73,10.73,0,0,1-.96,2.36,2.516,2.516,0,0,0-.52,1.66v.06c.09.31.23.62.36.98a5.02,5.02,0,0,1,.22.91,3.5,3.5,0,0,1,.46-.39,7.764,7.764,0,0,1,2-1.04c.19-.06.22.32.08.4a7.691,7.691,0,0,0-1.83,1.34c-.23.23-.47.46-.69.71a3.27,3.27,0,0,1-.52,1.43,10.7,10.7,0,0,1-3.09,2.58,12.481,12.481,0,0,0-3.41,3.23,18.945,18.945,0,0,0-2.82,9.22,1.139,1.139,0,0,1-.06.29c-.27.69-1.2.31-1.15-.51.02-.35.05-.69.08-1.04a19.641,19.641,0,0,1,2.97-9.39,12.373,12.373,0,0,1,3.44-3.4c.75-.51,1.54-.98,2.24-1.56.82-.68,1.18-1.14.83-2.2a4.978,4.978,0,0,1,.11-4.45c.99-1.86,2.16-3.36,1.3-5.58a7.6,7.6,0,0,0-1.67-2.11,2.016,2.016,0,0,1-.28-.47,1.22,1.22,0,0,1-.18-1.16,4.134,4.134,0,0,1,1.03-1.39,2.919,2.919,0,0,0,.47-.73,3.617,3.617,0,0,0-.11-1.98,2.577,2.577,0,0,0-.67-.74c-1.47-1.13-3.54-1.06-5.2-1.76-1.52-.65-2.41-2.25-3.96-2.78-1.94-.68-3.93.41-5.32,1.72-.62.6-1.12,1.39-1.79,1.92a7.842,7.842,0,0,1-1.82.75,7.761,7.761,0,0,0-3.86,3.8c-.77,1.71.19,3.12.15,4.85-.03,1.87-1.38,3.87-.54,5.7.65,1.39,1.51,2.3,1.37,3.93-.1,1.18-.54,2.15.23,3.21a10.464,10.464,0,0,0,2.05,1.88,42.58,42.58,0,0,1,4.19,3.49,6.993,6.993,0,0,1,1.88,4.55,15.426,15.426,0,0,1-.54,4.74.557.557,0,0,1-.87.38c-.4-.27-.36-.94-.26-1.34a12.037,12.037,0,0,0,.38-4.18,5.041,5.041,0,0,0-2.05-3.36,61.751,61.751,0,0,1-5.09-4.32,4.84,4.84,0,0,1-1.06-1.75c-.07-.08-.15-.17-.22-.24-.17-.16-.35-.32-.53-.47a8.9,8.9,0,0,0-1.19-.81,11.16,11.16,0,0,0-2.71-1.15c-.06-.01-.09-.09-.09-.17s.04-.17.11-.16a7.109,7.109,0,0,1,2.91.62,9.868,9.868,0,0,1,1.32.8c.05.04.11.08.17.12a6.951,6.951,0,0,1,.13-1.4c.28-1.43-.39-2.16-.97-3.34a5.223,5.223,0,0,1-.51-2.61c.01-.11.03-.22.04-.32-.03-.06-.05-.12-.08-.18-.01-.02-.02-.02-.02-.02a.037.037,0,0,0-.01-.03c-.02-.04-.05-.08-.07-.12-.05-.08-.1-.15-.15-.23l-.33-.45a4.129,4.129,0,0,0-1.74-1.32c-.1-.04-.12-.33.02-.32a4.278,4.278,0,0,1,2.09.91,3.137,3.137,0,0,1,.51.52c.07-.33.16-.65.24-.97a6.14,6.14,0,0,0,.05-3.32,6.326,6.326,0,0,1-.15-.94c-.01-.01-.01-.01-.01-.02a.219.219,0,0,1-.03-.05,1.922,1.922,0,0,1-.14-.29q-.09-.225-.18-.42l-.06-.12a.329.329,0,0,0-.03-.06c-.04-.07-.08-.14-.12-.2a3.282,3.282,0,0,0-.27-.38,4,4,0,0,0-.65-.65c-.13-.11-.26-.2-.38-.3a3.792,3.792,0,0,0-.4-.3c-.09-.06-.1-.38.06-.36a3.16,3.16,0,0,1,.5.1,1.622,1.622,0,0,1,.42.2,3.889,3.889,0,0,1,.82.63,4.1,4.1,0,0,1,.53.64,6.148,6.148,0,0,1,.54-1.69,9.005,9.005,0,0,1,3.32-3.58c.78-.48,1.71-.61,2.48-1.06a13.385,13.385,0,0,0,1.93-1.91,1.059,1.059,0,0,1,.12-.1,5.385,5.385,0,0,0-5.47-.07c-1.64.98-2.27,2.98-3.88,4.06-1.45.98-3.4,1.38-4.45,2.87a3.936,3.936,0,0,0,.22,4.81,1.459,1.459,0,0,1-.11,1.73,6.188,6.188,0,0,0-1.56,4.59c.15,1.54,1.25,2.69,1.42,4.18.01.12.02.23.02.35-.03,1.49-1.3,2.67-.68,4.17.7,1.65,2.45,2.61,3.92,3.46,5.41,3.17,9.54,8.36,9.09,14.91a1.226,1.226,0,0,1-.08.33,3.221,3.221,0,0,0,1.15.4A11.763,11.763,0,0,0,44.96,76.31Zm-2.5-45.74a6.36,6.36,0,0,1,4.03-1.62c1.67.01,2.68.96,3.83,2.01a5.553,5.553,0,0,1,5.76-2.68c2.42.45,3.66,2.15,4.66,4.21.42.87.75.76,1.55,1.07a5.8,5.8,0,0,1,2.95,2.61A6.232,6.232,0,0,1,65.21,42c-.18.32-.43.53-.33.84.08.21.37.41.52.59A9.093,9.093,0,0,1,66.44,45a7.335,7.335,0,0,1,.87,2.84,5.97,5.97,0,0,1-.55,3.06,9.121,9.121,0,0,1-.73,1.1,2.475,2.475,0,0,0-.25,2.09,5.312,5.312,0,0,1-1.65,5.48c-1.83,1.64-4.35,2.25-6.33,3.67a16.785,16.785,0,0,0-6.92,11.97c-.01.03-.01.04-.02.07a1.849,1.849,0,0,1-1.32,2.22,19.5,19.5,0,0,1-2.03.06c-.74.04-1.48.12-2.21.22-1.39.21-2.88.75-4.28.32a2.617,2.617,0,0,1-1.5-1.34c-.44-.25-.49-.98-.46-1.41.24-3.57-1.73-6.94-4.27-9.31-2.47-2.3-6.28-3.33-8.07-6.29a5.993,5.993,0,0,1-.81-4.31c.19-.82.96-1.67.66-2.5-.24-.68-.65-1.27-.87-1.98a8.951,8.951,0,0,1,1.25-7.7,6.9,6.9,0,0,1-.53-5.16c.66-2.28,2.33-3.42,4.39-4.36a8.279,8.279,0,0,0,3.35-2.59,6.166,6.166,0,0,1,2.45-2.02,5.37,5.37,0,0,1,5.73,1.12A.446.446,0,0,1,42.46,30.57Z"/></svg>