<svg xmlns="http://www.w3.org/2000/svg" width="45.356" height="36.486" viewBox="0 0 45.356 36.486"><defs><style>.a{fill:#46af46;}.b{fill:#e91e63;}.c{fill:#3f893f;}.d{fill:#ad1457;}</style></defs><title>raddish2</title><path class="a" d="M23.5,10.008a3.2,3.2,0,0,0-3.165.813,2.831,2.831,0,0,0-.825,2.521,3.037,3.037,0,0,0,1.432,2.191l1.3.89c.217.148.431.3.651.445q.378.267-.229-.18.529.563-.446-.813L23.6,12.487l.535-.223,3.69,3.691.034-.085a3.012,3.012,0,0,0-.3-2.311,3,3,0,0,0-4.105-1.077,3.484,3.484,0,0,0-1.379,1.793l-.033.085a2.947,2.947,0,0,0,.771,2.919,3.05,3.05,0,0,0,2.919.771,3.137,3.137,0,0,0,.9-.382,3.072,3.072,0,0,0,1.378-3.388,5.108,5.108,0,0,0-2.244-2.7q-.9-.614-1.792-1.224l.608,4.712.07-.058-1.324.772.091-.016H21.823l.085.032A3.016,3.016,0,0,0,25.6,13.7a3.081,3.081,0,0,0-2.1-3.691Z"/><path class="b" d="M3.89,33.77a1.5,1.5,0,0,0,0-3,1.5,1.5,0,0,0,0,3Z"/><path class="b" d="M6.9,13.533a8.76,8.76,0,0,0-3.156,2.954l8.225,3.467.1-.541c.782-4.2-4.163-7.79-7.521-4.378C1.99,17.631,1.753,21.99,2.83,25.36c1.317,4.115,5.465,5.39,8.982,7.175l2.272-8.385-1.878.214c-2.224.253-4.136,1.516-4.42,3.9-.237,1.994.983,4.6,3.224,4.937a23.732,23.732,0,0,0,7.565-.018L15.108,24.96l-.417-.011c-2.181.324-3.52,2.962-3.223,4.937.359,2.389,2.129,3.616,4.42,3.9a8.811,8.811,0,0,0,8.495-4.464c1.612-2.668-.411-7.19-3.885-6.771l-2.735.329c-2.413.291-4.5,1.861-4.5,4.5,0,2.207,2.07,4.793,4.5,4.5l2.735-.329-3.886-6.771c-.122.2.381.144-.724.006l1.2,8.839a9.247,9.247,0,0,0,2.566-.9c2.011-.92,2.663-3.751,1.842-5.619-.968-2.2-3.024-2.962-5.309-2.606a9.67,9.67,0,0,1-2.781.018l-1.2,8.84,1.878-.214a4.7,4.7,0,0,0,4.339-3.3,4.548,4.548,0,0,0-2.068-5.082c-1.474-.748-3.512-2.327-5.125-2.6q-.839-.521-.17.07.6.82.257-.535a4.976,4.976,0,0,1,.261-1.788L10.42,21.9l.49-.5L3.388,17.021l-.1.541a4.522,4.522,0,0,0,8.224,3.467l-.073.275c5.135-2.683.591-10.453-4.542-7.771Z"/><path class="b" d="M5.072,16.163a7.844,7.844,0,0,0-1.719,4.2,7.058,7.058,0,0,0,.221,2.584l.453,1.075q-.371-1.581-.152-.254C4.4,27.374,7.7,28.238,10.6,29.519L8.985,23.362l-.271.363c-1.417,1.9-.35,5.109,1.615,6.157,4.834,2.579,14.811,2.142,14.972-5.269.067-3.064-2.617-5.695-4.777-7.555-2.546-2.192-5.32-4-8.8-3.94-5.784.1-5.8,9.1,0,9,1.813-.032,4.262,2.776,5.125,4.18l-.614-2.271q2.07-2.1.652-1.591a1.1,1.1,0,0,1-.679.075,2.923,2.923,0,0,1-1.339-.4l1.615,6.157.27-.363a4.5,4.5,0,0,0-1.614-6.157A31.9,31.9,0,0,1,10.683,19.7l2.068,2.69c.223.8-.2-1.154-.271-1.374-.739-2.342-.73,1.108.363-.315,1.481-1.929.3-5.039-1.615-6.157-2.319-1.357-4.671-.32-6.156,1.614Z"/><path class="b" d="M5.9,31.954l.183-.015L3.963,31.06l.131.129L4.7,26.477a8.572,8.572,0,0,0-1.286.942,3.027,3.027,0,0,0-.469,3.636,3.117,3.117,0,0,0,3.388,1.378,7.787,7.787,0,0,1,3.857-.06,3,3,0,1,0,1.595-5.785c-2.329-.741-4.7-.383-7.047.06l2.919,5.014q-.372.27.071,0a3.03,3.03,0,0,0,.607-4.712A3.152,3.152,0,0,0,5.9,25.954a3.077,3.077,0,0,0-3,3,3.024,3.024,0,0,0,3,3Z"/><path class="a" d="M22.027,8.1a.988.988,0,0,0,.149-1.226.937.937,0,0,0-1.016-.413,2.893,2.893,0,0,0-1.808,1.3A.908.908,0,0,0,19.674,9a.921.921,0,0,0,1.232-.323c.027-.043.055-.085.084-.127-.1.145,0,.009.03-.022s.077-.067.109-.1c.077-.089-.154.094.028-.023a2.977,2.977,0,0,1,.264-.149c-.113.056-.047.02.033-.005.061-.019.122-.033.184-.047l-1.016-.413.029.043-.123-.455,0,.054.264-.637-.035.04A.9.9,0,0,0,22.027,8.1Z"/><path class="a" d="M21.979,6.646a4.682,4.682,0,0,0-3.4,2.582,3.126,3.126,0,0,0,.469,3.635l.649.769,2.121-5.121-.4-.124c-3.176-.871-5.474,4.011-2.312,5.484.49.228,2.4.941,2.533,1.527a3.076,3.076,0,0,0,3.691,2.1C27,17.223,27.747,16.38,29,15.319c1.074-.915,1.691-.723,2.95-1.359,2.979-1.506,2.235-5.424,5.746-6.636,3-1.038,2.775-6.168-.8-5.893-.607.047-6.836.725-6.756,1.234.194,1.228,1.969.885.58-.246a3.824,3.824,0,0,0-2.109-.933c-1.669-.162-2.664.683-3.713,1.864-1.31,1.475-3.117,2-4.34,3.449a3.044,3.044,0,0,0,2.121,5.122,21.568,21.568,0,0,0,6.7-.556c3.759-.877,2.168-6.663-1.595-5.786a16.206,16.206,0,0,1-5.106.342L24.8,11.042c.551-.653,1.84-.922,2.544-1.482a7.036,7.036,0,0,0,1.425-1.443q1.293-1.155-.968-.684L26.005,6.054c2.869,4.414,6.5,1.715,10.888,1.377l-.8-5.893A11.432,11.432,0,0,0,29.347,7.11a9.537,9.537,0,0,1-.654,1.606c.534-.66-.338-.139-.853.033-1.523.5-2.735,2.737-4.112,2.959l3.69,2.1c-.58-2.543-3.044-4.067-5.291-5.113l-2.311,5.483a12.7,12.7,0,0,0,2,.338c2.843.321,3.6-3.367,2.122-5.121l-.65-.769.469,3.635-.18.175c3.786-.742,2.183-6.526-1.6-5.785Z"/><path class="c" d="M36.163,10.848l.069-.375c.56-.876-.691-1.79-1.414-1.09l-.811.784,1.413,1.091C36.4,9.286,38.3,10.3,38.873,8.505A.91.91,0,0,0,38.245,7.4l-.328-.088a.892.892,0,0,0-.876.231l-.253.3a.944.944,0,0,0-.14,1.091A5.556,5.556,0,0,0,38.6,11.06L39.5,9.506l-1.3-.788-.693,1.645c1.129.447,2.321,1.775,3.572,1.149a.907.907,0,0,0,0-1.554,6.012,6.012,0,0,0-1.658-.716l-.479,1.735q.935.189,1.845.469,1.787,1.226-.126,1.618c-1.068.93-3.53,1.367-4.9,1.8l.694,1.645a8.719,8.719,0,0,0,2.6-1.786.9.9,0,0,0,0-1.272,3.467,3.467,0,0,0-3.827-.657c-1.049.415-.657,2.077.479,1.735a1.658,1.658,0,0,0,.566-2.936.929.929,0,0,0-1.273,0l-.464.372,1.354.777c-.026-.489,1.968-2.222,2.094-1.874-.309-.855-1.517-.028-1.8.327a1.522,1.522,0,0,0-.407,1.082,1.413,1.413,0,0,0,1.569,1.13c2.551,0,2.059-3.786-.252-2.915a.911.911,0,0,0-.4,1.505c1.312,1.123,3,2.032,4.209.395a.9.9,0,0,0-.323-1.231c-2.259-1.121-2.734,2.678-.1,2.581a1.416,1.416,0,1,0-.667-2.559.909.909,0,0,0,0,1.555c.891.548,2.172.228,1.076.837-1.315.73-3.025.891-4.416,1.561-.777.375-.43,1.78.454,1.677A5.358,5.358,0,0,0,41.4,13.941a.912.912,0,0,0-1.016-1.322c-.727.1-1.166.1-1.593.678a.9.9,0,0,0,.141,1.09c1.714,1.7,6.414-.359,5.866-2.939-.207-.971-1.386-1.278-2.246-1.235a5.167,5.167,0,0,0-2.7,1.3c-1.92,1.362-3.64,2.583-6.07,2.894l.636,1.536a5.967,5.967,0,0,0,1.535-2.561.907.907,0,0,0-1.107-1.107,2.312,2.312,0,0,0-1.143.729c-1.6,1.424-1.752,2.633-4,3.214l.876,1.505,1.168-1.008a.908.908,0,0,0-.636-1.536c-2.547.035-3.093,1.787-5.23,2.978a.912.912,0,0,0,.215,1.645c3.344,1.223,3.564-.827,6.613-1.979l-.693-1.645a35.362,35.362,0,0,0-3.792,2.53.909.909,0,0,0,.454,1.677l.5.061L28.4,19.094l-.283.431c-.478.725.5,1.765,1.231,1.231,1.969-1.435,3.7-3.041,6.112-3.709l-.876-1.5c-1.1,1.208-1.869,1.373-.82,2.958l.538-1.322a15.17,15.17,0,0,0-2.216.52.91.91,0,0,0-.215,1.645,12.275,12.275,0,0,0,4.374,1.045L36,18.622l-.262.064.478,1.736C38.4,19.569,37.552,18.7,37.9,16.79a.9.9,0,0,0-1.645-.694,14.828,14.828,0,0,1-1.924,2.251l1.536.636c.065-2.886,3.612-3.347,5.637-3.735l-.478-1.736a15.088,15.088,0,0,0-1.781.758c-.891.438-.333,1.582.454,1.677a2.368,2.368,0,0,0,1.7-.2.9.9,0,0,0-.239-1.768c-1.02-.014-7.29.6-7.093,1.165l-.628,1.107a12.12,12.12,0,0,1,1.588-.2c1.143-.109,1.154-1.91,0-1.8a7.649,7.649,0,0,0-2.067.268.916.916,0,0,0-.628,1.107c.8,2.289,7.3.136,8.828.157l-.239-1.768-1.224.132.455,1.677,1.35-.576a.9.9,0,0,0-.478-1.736c-3.114.6-6.875,1.749-6.959,5.471a.909.909,0,0,0,1.536.637,24.746,24.746,0,0,0,2.206-2.615l-1.645-.694c-.108.584.037,2.193-.428,2.375a.9.9,0,0,0,.478,1.736l.262-.065c1.04-.255.726-1.685-.239-1.768a7.8,7.8,0,0,1-3.466-.8l-.215,1.645a15.183,15.183,0,0,1,2.217-.52.905.905,0,0,0,.537-1.322c-.453-.685-.038-.146.539-.778a.907.907,0,0,0-.876-1.5c-2.559.71-4.431,2.352-6.541,3.891l1.231,1.231L29.951,20a.911.911,0,0,0-.778-1.354l-.5-.061.455,1.677a35.6,35.6,0,0,1,3.791-2.53c.854-.5.286-2.015-.693-1.645-1.836.694-3.568,2.743-5.656,1.979l.215,1.645c.737-.41,1.525-.605,2.238-1.05.992-.617.319-1.658,2.083-1.682l-.637-1.537L29.3,16.452c-.708.61.052,1.716.876,1.5A8.144,8.144,0,0,0,33.621,16.4c.443-.387,1.285-2.276,1.7-2.391l-1.107-1.107-1.071,1.767c-.489.5-.181,1.641.636,1.536a11.77,11.77,0,0,0,3.907-1.129A17.513,17.513,0,0,0,39.92,13.7l.836-.634q1.686-1.611.106,1.285l-1.016-1.322-2.9,1.984.454,1.678c1.442-.7,6.455-1.193,6.591-3.562.13-2.268-2.106-1.241-3.251-1.946v1.555l-1.054-.023-.322-1.232-1.382-.759-.4,1.5A2.19,2.19,0,0,0,38.7,9.517.926.926,0,0,0,37.685,9.1c-2.543.467-3.723,1.182-3.589,3.642.033.606.769,1.22,1.355.777.283-.214.554-.426.828-.653H35.006l.228-.072.479,1.735,2.076.194V13.454a5.357,5.357,0,0,1-2.241,1.5c-.928.424-.27,1.952.694,1.645,1.956-.624,7.042-1.6,7.615-4.029s-2.681-2.933-4.435-3.332a.9.9,0,0,0-.479,1.735l1.228.535V9.958c.692-.346-.18-.389-.749-.708a11.483,11.483,0,0,0-1.436-.623c-.971-.385-1.538,1.134-.693,1.645l1.3.788c1.011.611,1.827-.888.908-1.554l-1.738-.372-.628-1.107c.111-.345-1.779.542-1.864.6a3.609,3.609,0,0,0-1.408,1.724.9.9,0,0,0,1.414,1.09l.811-.785-1.413-1.09a1.637,1.637,0,0,0-.251,1.762.9.9,0,0,0,1.736-.479Z"/><path class="d" d="M11.218,13.554c2.665-.15,5.086,2.591,7.3,3.912a12.943,12.943,0,0,1,4.843,5.326c.8,1.755,3.384.231,2.591-1.515a15.722,15.722,0,0,0-5.92-6.4c-2.861-1.71-5.228-4.523-8.811-4.322-1.92.107-1.932,3.108,0,3Z"/><path class="d" d="M7.617,13.251c4.782.173,8.368,1.015,11.338,5,2.192,2.941,6.283,5.145,5.554,9.562-.1.625.75,1.107,1.1.463A8.738,8.738,0,0,0,26.613,22.7a.6.6,0,0,0-1-.265,2.324,2.324,0,0,0-.771,1.839l1.179-.16-.155-.911c-.128-.76-1.285-.438-1.157.319l.154.911c.122.717,1.116.46,1.179-.159l.419-.991-1-.264a7.288,7.288,0,0,1-.886,4.649l1.1.462c.348-2.106-.377-3.69-1.205-5.566-1.168-2.647-3.143-3.485-5.021-5.756-3.1-3.75-7.106-4.588-11.823-4.759-.773-.028-.772,1.172,0,1.2Z"/><path class="d" d="M26.026,24.7l-.011-.208-1.118.3.315.7a.6.6,0,0,0,.821.215.617.617,0,0,0,.215-.82l-.315-.706a.6.6,0,0,0-.678-.276.611.611,0,0,0-.44.579l.011.208a.6.6,0,1,0,1.2,0Z"/><path class="d" d="M7.2,13.458a20.976,20.976,0,0,1,6.308.468c2.486.7,3.154,2.12,4.673,3.945A34.831,34.831,0,0,0,21.43,20.71c2.567,2.411,3.747,7.17,1.081,10.12-.517.572.329,1.423.848.849,3.759-4.159,1.8-9.477-2.02-12.6-1.99-1.625-3.123-4.2-5.391-5.476-2.587-1.451-5.88-1.438-8.747-1.347-.771.024-.774,1.224,0,1.2Z"/><path class="d" d="M13.323,13.63a10.731,10.731,0,0,1,4.646,3.552l.678-.881c-1.832-.581-2.433-2.846-4.163-3.684l-.463,1.1c2.254.915,2.964,3.52,4.711,5.027.485.419,4.355,3.1,4.824,2.617-.54.552.308,1.4.849.848l.1-.1a.591.591,0,0,0,.154-.583c-.74-1.941-3.877-2.489-5.311-3.823-1.862-1.732-2.511-4.126-5.008-5.14-.626-.255-1.072.8-.462,1.1,1.854.9,2.4,3.154,4.45,3.8.464.147,1-.456.678-.881a12.27,12.27,0,0,0-5.364-4.1c-.716-.289-1.027.871-.319,1.157Z"/><path d="M19.86,28.559a23.475,23.475,0,0,1-3.5.489,14.281,14.281,0,0,1-4.228-.577c-.444-.117-.512.781-.142.908a10.974,10.974,0,0,0,4.333.535,13.325,13.325,0,0,0,3.595-.838c.18-.066.152-.558-.059-.517Z"/><path d="M20.724,15.568c-1.965-3.6-4.86-6.088-9.2-5.444-3.566.53-7.232,2-8.963,5.348C.9,18.692,1.094,22.283,1.956,25.7a15.453,15.453,0,0,1,.617,3.211,4.826,4.826,0,0,1-1.131,3.209C.616,33.248-.6,34.868.341,36.273a.4.4,0,0,0,.62.106,10.3,10.3,0,0,0,.962-1.771c.389-.609.884-1.146,1.256-1.768a7.626,7.626,0,0,0,.858-4.811c-.208-1.861-.959-3.6-1.237-5.444a9.969,9.969,0,0,1,.362-4.621c1.186-3.543,4.523-5.08,7.979-5.753a7.622,7.622,0,0,1,5.685.8c1.323.848,2.481,1.976,3.71,2.951.226.179.253-.278.188-.4Z"/><path d="M14.849,12.053c1.792,1.365,3.681,2.587,5.468,3.96a20.736,20.736,0,0,1,4.668,4.343c2.531,3.751.372,9.233-3.081,11.555a9.334,9.334,0,0,1-5.546,1.59c-2.273-.074-4.4-.945-6.62-1.326-3.271-.561-7.653-.021-9.093,3.468-.095.229.068.841.4.578A10.022,10.022,0,0,1,5.218,34a14.273,14.273,0,0,1,6.3.354,17.335,17.335,0,0,0,5.257.76,11.377,11.377,0,0,0,4.305-1.263c5.019-2.614,7.963-10.427,3.828-15.07A23.148,23.148,0,0,0,14.88,11.927c-.062-.018-.068.1-.031.126Z"/><path d="M18.387,13.182c.46-1.765.251-3.455,1.524-4.955A6.626,6.626,0,0,1,22.027,6.54a9.965,9.965,0,0,0,2.189-.921A8.237,8.237,0,0,0,25.43,3.861,5.578,5.578,0,0,1,27.609,1.91c1.013-.426,1.454.033,1.961.85a1.478,1.478,0,0,0,1.644.7c.812-.146,1.553-.6,2.355-.8a8.643,8.643,0,0,1,3.065-.215c.769.084,2.889.457,2.327,1.709a6.642,6.642,0,0,1-2.3,2.017c-1.195.777-2.673,1.32-3.443,2.6a3.424,3.424,0,0,0-.437,1.991c.05.833.66,1.864,0,2.548-.763.8-1.895.1-2.837.262a2.212,2.212,0,0,0-1.6.958c-.522.87-.3,1.866-1.55,2.154-.779.18-1.577.3-2.361.457-.845.163-.746,2.06.046,1.9C26.189,18.7,28,18.7,28.9,16.989c.17-.324.224-1.033.455-1.286a1.746,1.746,0,0,1,1.186-.315c1.064.053,1.717.461,2.685-.248A2.892,2.892,0,0,0,34.412,13.1c.115-1.039-.7-2.361-.034-3.233a8.087,8.087,0,0,1,2.374-1.595A12.452,12.452,0,0,0,39.375,6.21a3.118,3.118,0,0,0-.138-4.717c-1.581-1.2-4.144-1-5.937-.515-.584.158-1.116.42-1.685.619a1.03,1.03,0,0,1-1.455-.486A2.187,2.187,0,0,0,28.281,0c-1.922.024-3.3,2.063-4.153,3.536-.677,1.174-2.205,1.118-3.32,1.78a6.447,6.447,0,0,0-2.141,2.05c-.933,1.435-1.971,4.507-.475,5.9.073.068.174,0,.2-.084Z"/><path d="M37.834,6.215c.249.326.016,1.1.1,1.506a2.211,2.211,0,0,0,.734,1.272A8.5,8.5,0,0,0,41.874,10.2c1.076.321,2.429.9,2.174,2.26a4.212,4.212,0,0,1-2.762,2.853c-1,.428-2.436.342-3.292,1.064a1.681,1.681,0,0,0-.58,1.132c-.052.517.395,1.386.1,1.8s-1.142.515-1.575.591a2.885,2.885,0,0,1-2.314-.36c-.774-.546-1.667-1.35-2.7-.954-.661.253-.71.925-1.179,1.335a1.528,1.528,0,0,1-1.651.083,10.052,10.052,0,0,1-2.445-2c-.3-.307-.669.044-.781.334a1.167,1.167,0,0,0,.236,1.2c1.163,1.247,3.551,3.7,5.314,2,.524-.507.561-1.439,1.482-1.249.678.139,1.186.751,1.808,1.029a4.743,4.743,0,0,0,3.832-.445,1.938,1.938,0,0,0,.9-1.074c.223-.7-.236-1.484.051-2.089.323-.682,1.512-.725,2.21-.887a8.843,8.843,0,0,0,2.091-.689c2.261-1.174,3.478-4.31,1.712-6.45-.971-1.177-2.493-1.351-3.879-1.709-.8-.207-1.558-.419-1.782-1.291-.133-.517-.176-1.017-.754-1.2-.378-.122-.413.545-.263.742Z"/><path d="M21.218,16.178a2.434,2.434,0,0,0,.818-.72c.254-.262.522-.512.781-.769.578-.575,1.2-1.134,1.823-1.653a17.219,17.219,0,0,1,4.182-2.526c.736-.315.514-2.169-.383-1.856A13.623,13.623,0,0,0,23.924,11.3a11.6,11.6,0,0,0-1.8,1.991,9.943,9.943,0,0,0-.7,1.148,3.662,3.662,0,0,0-.5,1.315c-.018.162.052.515.294.425Z"/></svg>