<svg xmlns="http://www.w3.org/2000/svg" width="89.37" height="52.766" viewBox="0 0 89.37 52.766"><defs><style>.a{fill:#44a044;}.b{fill:#3f893f;}.c{fill:#46af46;}.d{fill:#74c474;}</style></defs><title>runner_beans</title><path class="a" d="M22.412,16.253a.9.9,0,0,0,0-1.8.9.9,0,0,0,0,1.8Z"/><path class="a" d="M6.269,1.372a7.427,7.427,0,0,0,1.3,6.517c1.742,2.262,3.406,3.562,4.763,6.233a11.135,11.135,0,0,0,1.6,2.477l1.273-1.273a8.9,8.9,0,0,1-2.654-4.195l-1.735.478c2.647,8.392,11,9.259,18.107,12.532,1.038.478,1.956-1.034.909-1.554l-6.319-3.139a.908.908,0,0,0-1.232,1.231c1.545,2.8,6.823,3.382,9.594,4.011l.239-1.767c-3.386.121-6.539-2.009-9.377-3.555l-.693,1.645,2.205.477c1.129.244,1.612-1.491.478-1.736l-2.205-.476c-.959-.208-1.629,1.135-.693,1.645,3.3,1.8,6.432,3.938,10.285,3.8.979-.036,1.266-1.535.239-1.768-1.89-.43-7.447-1.248-8.518-3.184L22.608,21l6.319,3.139.909-1.554c-6.324-2.913-14.926-3.994-17.281-11.456a.9.9,0,0,0-1.735.478,10.6,10.6,0,0,0,3.116,4.99c.82.848,2-.4,1.273-1.273-1.374-1.666-1.66-3.661-2.874-5.359C10.323,7.156,7,7.2,8,1.851,8.217.719,6.483.234,6.269,1.372Z"/><path class="a" d="M33.07,23.872l2.6,1.884.693-1.645c-1.558-.451-3.052-.95-4.567-1.528-1.092-.415-1.531,1.307-.479,1.736a101.1,101.1,0,0,0,12.42,4.153.9.9,0,0,0,.478-1.736l-7.232-2.2a.9.9,0,0,0-.693,1.645,34.713,34.713,0,0,0,12.277,4.24c1.117.166,1.635-1.5.479-1.735l-5.5-1.138a.9.9,0,0,0-.479,1.735l9.738,3.26.479-1.736a29.33,29.33,0,0,1-5.231-1.979l-.908,1.554,8.828,3.827.693-1.645a30.006,30.006,0,0,1-4.289-1.157c-.994-.347-1.527,1.118-.693,1.645A17.141,17.141,0,0,0,59.925,35.8c1.029.088,1.2-1.5.239-1.768l-2.335-.647c-.951-.264-1.646,1.214-.693,1.645l5.431,2.455c.851.385,1.939-.7,1.091-1.414l-1.128-.948-1.091,1.414L64.214,38.5l.908-1.554L61.541,34.48c-.849-.584-1.817.713-1.09,1.414l3.266,3.15,1.09-1.414-3.414-2.024c-.863-.512-1.863.716-1.091,1.413a34.846,34.846,0,0,0,8.671,5.8c.858.406,1.92-.7,1.091-1.414l-4.437-3.823c-.719-.62-2.055.209-1.414,1.09a14.244,14.244,0,0,0,4.708,4.241c.853.485,1.92-.763,1.09-1.414a98,98,0,0,0-10.525-7.222l-.908,1.555a86.087,86.087,0,0,0,7.984,4.087A.913.913,0,0,0,67.884,38.9l-.312-1.465-1.645.693,1.151,2.528,1.555-.908-1.008-1.683L66.211,39.16l3.954,4.011.876-1.505a11.184,11.184,0,0,1-3.577-1.543.91.91,0,0,0-1.322,1.017,2.951,2.951,0,0,0,1.2,1.947l1.091-1.413-1.1-.592-.909,1.555A23.563,23.563,0,0,0,76.3,45.282a.9.9,0,0,0,.24-1.768,38.456,38.456,0,0,0-5.952-1.2c-1.025-.127-1.191,1.505-.24,1.768a39.061,39.061,0,0,0,6.477,1.2c1.018.1,1.209-1.527.239-1.768l-1.239-.731L74.731,44.2l11.215,7c.855.533,1.863-.727,1.091-1.414a8.351,8.351,0,0,1-3.01-4.313c-.405-1.071-2.138-.615-1.735.479a7.679,7.679,0,0,0,1.628,3.131c.385.543,1.53.633,1.645-.215.339-2.512-.733-3.429-2.728-4.725a74.387,74.387,0,0,0-13.4-6.512c-1.081-.425-1.54,1.31-.478,1.736A73.03,73.03,0,0,1,76.121,42.7l.693-1.645A53.622,53.622,0,0,0,68.763,39c-.952-.167-1.639,1.112-.694,1.645A28.2,28.2,0,0,0,74.8,43.4c.95.258,1.651-1.218.694-1.645l-3.684-1.64-.693,1.645a48.432,48.432,0,0,1,12.2,6.5l.909-1.554C71.443,39.177,58.639,31.637,45.226,25.276,39.163,22.4,32.981,19.765,26.662,17.5c-3.466-1.243-7.911-1.95-10.916-4.05-3.3-2.309-5.347-6.964-7.222-10.472L7.111,4.069A72.614,72.614,0,0,0,24.177,18.748c1,.62,1.85-.9.909-1.554Q18.747,12.8,12.124,8.877c-.853-.506-1.9.748-1.09,1.414a93.868,93.868,0,0,0,13.571,9.352l.908-1.554a34.184,34.184,0,0,0-9.274-3.626.9.9,0,0,0-.693,1.645,78.113,78.113,0,0,0,10.777,5.05l.478-1.736-6.51-2.444c-.963-.361-1.573,1.158-.694,1.645,5.976,3.314,14.6,3.479,21.228,4.7a.9.9,0,0,0,.478-1.736C34.414,19.1,26.582,14.8,19.211,14.478a.907.907,0,0,0-.454,1.677,36.992,36.992,0,0,0,7.227,3.658l.478-1.736-8.88-1.9c-1.126-.241-1.609,1.452-.479,1.736,3.7.931,7.423,1.721,11.186,2.376a.9.9,0,0,0,.694-1.645C25.8,16.711,22.547,14.935,19.2,13.3l-.694,1.645c3.646,1.139,8.277,2.16,11.323,4.512,1.583,1.222,2.056,2.894,3.818,3.931l.694-1.645a5.474,5.474,0,0,0-2.581-.308.915.915,0,0,0-.629,1.107l.039.194a.905.905,0,0,0,.867.661l.156,0c.977-.029,1.269-1.55.239-1.768l-2.111-.447c-1.127-.239-1.612,1.473-.479,1.736l11.838,2.746a.9.9,0,0,0,.479-1.735L31,20.777c-1.045-.3-1.47,1.067-.693,1.645l1.763,1.312.908-1.555-5.8-2.574-.693,1.645Q37.376,24.7,48.091,28.659c1.1.407,1.524-1.3.478-1.736-2.034-.841-4.081-1.606-6.168-2.3-.952-.319-1.628,1.22-.693,1.645a59.15,59.15,0,0,0,6.024,2.358l.479-1.736a14.65,14.65,0,0,1-8.868-5.218l-.876,1.5a34.376,34.376,0,0,1,8.226,3.047c1.023.535,1.925-.987.908-1.554l-3.929-2.19-.908,1.554,9.42,4.809.908-1.554a63.759,63.759,0,0,0-8.85-3.507c-.955-.3-1.63,1.21-.693,1.645L53.815,30.19a.9.9,0,0,0,.908-1.554,47.063,47.063,0,0,0-8.9-4.956c-1.041-.441-1.972,1.053-.908,1.554q4.749,2.242,9.447,4.589c2.684,1.348,8.386,3.17,9.659,6.037l1.232-1.232L56.97,29.934l-.909,1.555q7.8,3.716,15.187,8.176c1,.606,1.853-.906.909-1.554l-2.169-1.655-.875,1.5c3.106.85,4.66,2.3,7.13,4.257.741.588.793,1.005,1.7,1.3a.922.922,0,0,0,1.016-.413l.273-.374a.909.909,0,0,0-.141-1.09l-.247-.274c-.776-.863-2.046.413-1.272,1.272l.4-1.173a10.287,10.287,0,0,0-1.4-1.5A14.119,14.119,0,0,0,74.8,38.51a16.739,16.739,0,0,0-5.207-2.286c-.822-.224-1.584.9-.875,1.505a22.633,22.633,0,0,0,2.532,1.936l.909-1.554q-7.4-4.468-15.187-8.177c-1.032-.491-1.931.975-.909,1.555l8.281,4.694a.909.909,0,0,0,1.232-1.232c-1.207-2.716-4.407-3.667-6.9-4.951-4.245-2.186-8.533-4.282-12.851-6.32l-.908,1.554a47.107,47.107,0,0,1,8.9,4.956l.908-1.554L44.457,23.868l-.693,1.645a60.945,60.945,0,0,1,8.42,3.325c1.034.5,1.947-1.024.908-1.554l-9.42-4.809c-1.026-.524-1.927.986-.908,1.554l3.929,2.19.908-1.554a35.844,35.844,0,0,0-8.655-3.229.908.908,0,0,0-.876,1.5,15.874,15.874,0,0,0,9.662,5.681.9.9,0,0,0,.479-1.736,54.186,54.186,0,0,1-5.595-2.176l-.693,1.645c2.087.7,4.134,1.464,6.168,2.3l.478-1.736Q37.852,22.959,26.96,19.514c-.953-.3-1.637,1.227-.693,1.645l5.8,2.575a.9.9,0,0,0,.908-1.555l-1.763-1.312-.693,1.645,11.158,3.142.479-1.735L30.322,21.172l-.479,1.736,2.112.447.239-1.768,1.669,1.887a.9.9,0,0,0,.694-1.645c-4.367-2.569-.819-1.97-2.061-2.967a20.181,20.181,0,0,0-4.16-2.118,78.22,78.22,0,0,0-9.35-3.54c-.958-.3-1.619,1.191-.694,1.645,3.346,1.64,6.595,3.416,9.782,5.347l.694-1.645c-3.763-.656-7.482-1.446-11.186-2.377L17.1,17.91l8.881,1.9a.9.9,0,0,0,.478-1.736,34.438,34.438,0,0,1-6.8-3.476l-.454,1.677c7.074.31,14.994,4.655,21.614,7.044l.478-1.736c-6.432-1.183-15.027-1.317-20.8-4.517l-.694,1.645,6.511,2.444c1.087.408,1.551-1.328.478-1.736a75.176,75.176,0,0,1-10.347-4.868L15.761,16.2a33.058,33.058,0,0,1,8.844,3.444c1.023.535,1.921-.981.908-1.554A91.146,91.146,0,0,1,12.307,9.018l-1.091,1.414q6.632,3.932,12.961,8.316l.909-1.554A71.045,71.045,0,0,1,8.384,2.8c-.685-.8-1.878.222-1.414,1.091,2.391,4.475,4.714,10.41,9.743,12.277,8.173,3.035,16.345,5.5,24.32,9.138C55.643,31.96,69.5,40.12,83.311,48.263c1.019.6,1.827-.886.909-1.554a50.442,50.442,0,0,0-12.626-6.681c-.948-.344-1.627,1.229-.693,1.645l3.683,1.641.694-1.645a26.924,26.924,0,0,1-6.3-2.582l-.694,1.645a53.468,53.468,0,0,1,8.051,2.062.9.9,0,0,0,.694-1.645,77.385,77.385,0,0,0-7.589-3.517l-.478,1.736c2.383.936,15.375,5.268,14.867,9.022l1.645-.215-1.447-2.7-1.735.479a11.786,11.786,0,0,0,3.472,5.107l1.091-1.414-11.216-7c-.888-.555-1.774.681-1.09,1.413a2.7,2.7,0,0,0,2.033,1.193l.239-1.767a35.055,35.055,0,0,1-6-1.138l-.239,1.768a34.54,34.54,0,0,1,5.473,1.135l.239-1.767a20.6,20.6,0,0,1-8.958-2.4c-1.027-.526-1.933,1-.909,1.555l1.1.591c.873.471,1.863-.692,1.091-1.413l-.739-1.154-1.322,1.017A18.481,18.481,0,0,0,70.562,43.4a.907.907,0,0,0,.876-1.5l-3.954-4.011a.9.9,0,0,0-1.413,1.091l1.007,1.682c.607,1.013,2.027.128,1.555-.908l-1.152-2.528c-.442-.971-1.847-.253-1.645.693l.313,1.466,1.322-1.017a86.233,86.233,0,0,1-7.985-4.088.9.9,0,0,0-.908,1.555,94.387,94.387,0,0,1,10.161,6.94l1.09-1.413a9.645,9.645,0,0,1-4.062-3.595l-1.413,1.09,4.437,3.824,1.091-1.413a33.5,33.5,0,0,1-8.307-5.519L60.484,37.16,63.9,39.185a.9.9,0,0,0,1.09-1.414l-3.266-3.15-1.09,1.414L64.214,38.5c.96.661,1.844-.891.908-1.554l-2.775-1.967c-.826-.586-1.873.755-1.09,1.413l1.128.948,1.09-1.413-5.431-2.455-.693,1.645,2.335.647.239-1.768A15.379,15.379,0,0,1,52.6,31.5L51.9,33.147A29.71,29.71,0,0,0,56.192,34.3c.926.18,1.691-1.212.693-1.645l-8.828-3.826c-1.039-.45-1.966,1.038-.908,1.554a32.982,32.982,0,0,0,5.66,2.161.9.9,0,0,0,.479-1.736L43.55,27.553l-.479,1.735,5.5,1.138.479-1.735A33.319,33.319,0,0,1,37.2,24.632L36.5,26.277l7.232,2.2.478-1.736A101.03,101.03,0,0,1,31.8,22.583l-.479,1.736c1.516.577,3.01,1.077,4.568,1.528,1.037.3,1.48-1.075.693-1.645l-2.6-1.884c-.939-.681-1.838.88-.908,1.554Z"/><path class="a" d="M56.353,29.673q8.736,5.367,17.205,11.139c.835.569,1.883-.76,1.091-1.414A43.507,43.507,0,0,0,62.4,32.248c-1.083-.416-1.551,1.323-.479,1.735,5.691,2.19,11.187,4.47,15.606,8.8L78.8,41.513a45.739,45.739,0,0,0-8.65-6.364L69.237,36.7c5.415,2.309,10.716,4.769,13.808,10.04l1.554-.909-2.531-4.143-1.413,1.091a8.589,8.589,0,0,1,2.533,3.7A.9.9,0,0,0,84.924,46a18.381,18.381,0,0,0-1.442-4.524l-1.554.908A10.409,10.409,0,0,1,83.5,46.474a.9.9,0,0,0,1.768-.239A8.242,8.242,0,0,0,82.7,39.823c-.6-.611-1.822.008-1.5.876l1.059,2.886,1.645-.693c-4.818-7.659-12.9-11.035-21.1-14.007-.96-.348-1.587,1.17-.693,1.645q5.551,2.95,10.908,6.223c1.014.62,1.81-.877.909-1.554a31.192,31.192,0,0,0-10.858-5.3c-.811-.22-1.6.916-.876,1.5,3.6,2.9,8.375,3.451,11.9,6.424l.876-1.5c-5.927-2.483-11.224-6.087-17.038-8.782a138.6,138.6,0,0,0-16.16-5.927l-.239,1.768A22.4,22.4,0,0,1,53.4,28.047l.908-1.555c-8.352-3.586-17.422-5.506-25.556-9.541L28.3,18.628a20.625,20.625,0,0,1,6.813,1.948c1.044.486,1.959-1.065.908-1.554A24.666,24.666,0,0,0,28.3,16.828c-.889-.107-1.222,1.3-.454,1.677C36,22.55,45.037,24.456,53.4,28.047a.9.9,0,0,0,.908-1.555,23.927,23.927,0,0,0-12.776-4.907c-1.049-.1-1.165,1.471-.24,1.767,6.444,2.063,12.9,4.15,18.9,7.319,4.767,2.516,9.31,5.3,14.295,7.39.828.347,1.538-.945.876-1.5-3.547-2.993-8.313-3.53-11.9-6.424l-.876,1.5A30.193,30.193,0,0,1,73.02,36.753l.909-1.554q-5.367-3.277-10.909-6.223l-.693,1.645c7.747,2.809,15.448,5.91,20.022,13.179.518.824,2.011.3,1.645-.693L82.935,40.22l-1.5.876a5.738,5.738,0,0,1,2.04,5.139L85.239,46a16.4,16.4,0,0,0-1.757-4.521c-.574-1.031-2.024-.126-1.554.908a11.887,11.887,0,0,1,1.26,4.094L84.924,46a12.681,12.681,0,0,0-3-4.49A.9.9,0,0,0,80.514,42.6l2.531,4.143a.9.9,0,0,0,1.554-.909c-3.27-5.575-8.684-8.225-14.453-10.685-1.034-.441-1.946.963-.909,1.554a43.871,43.871,0,0,1,8.286,6.082c.847.788,2.1-.458,1.273-1.272-4.633-4.542-10.432-6.969-16.4-9.265l-.479,1.735a40.41,40.41,0,0,1,11.459,6.688l1.091-1.413Q66,33.485,57.262,28.119c-.99-.608-1.9.948-.909,1.554Z"/><path class="b" d="M49.785,32.065a13.174,13.174,0,0,0,5.784,3.489,27.266,27.266,0,0,1,9.793,5.875,14.889,14.889,0,0,0,6.55,3.609,30.3,30.3,0,0,1,13.054,6.076.9.9,0,0,0,1.273-1.273c-3.858-4.869-9.642-6.328-15.158-8.549C64.693,38.72,60.9,32.543,54.225,30.9,46.67,29.048,39.7,25.61,32.14,23.807c-7.4-1.765-17.164-3.665-19.551-12.214l-1.645.694C15.5,19.513,24.526,22.965,32.5,24.806c1.127.26,1.608-1.475.478-1.736-7.453-1.721-16.2-4.9-20.478-11.692a.9.9,0,0,0-1.645.694c1.5,5.388,6.517,9.153,11.568,11.01,7,2.573,14.322,3.837,21.334,6.522,4.2,1.609,9.308,2.062,13.265,4.1,3.261,1.676,5.368,5,8.506,6.923,6.374,3.9,14.55,4.32,19.439,10.491l1.273-1.273a36.4,36.4,0,0,0-7.2-4.824c-4.346-1.971-8.58-1.564-12.4-4.861-2.15-1.855-3.949-3.742-6.583-4.942-3.163-1.442-6.539-1.7-8.993-4.422-.777-.863-2.047.414-1.273,1.273Z"/><path class="b" d="M52.9,33.553a11.07,11.07,0,0,1,4,1.17c1.03.526,1.942-1.027.908-1.554A13.421,13.421,0,0,0,52.9,31.753c-1.153-.107-1.146,1.693,0,1.8Z"/><path class="b" d="M12.613,11.592A24.287,24.287,0,0,0,9.166,7.021a5.178,5.178,0,0,1-1.2-4.844C8.209,1.047,6.474.564,6.229,1.7a8.272,8.272,0,0,0,.317,4.879A8.678,8.678,0,0,0,8.325,8.733,19.519,19.519,0,0,1,11.059,12.5a.9.9,0,0,0,1.554-.909Z"/><path class="b" d="M31.875,24.546a9.158,9.158,0,0,1,3.339,1.284c.837.59,1.6,1.228,2.487,1.758l.909-1.555c-2.567-1.508-5.032-3.053-7.972-3.7-1.129-.249-1.611,1.486-.478,1.736,2.8.618,5.1,2.088,7.541,3.522a.9.9,0,0,0,.909-1.555c-1.049-.628-1.94-1.482-2.992-2.094a11.633,11.633,0,0,0-3.265-1.128c-1.127-.264-1.608,1.472-.478,1.735Z"/><path class="b" d="M36.274,26.327a68.307,68.307,0,0,0,9.689,3.5c3.256,1.012,6.1,2.665,9.223,3.968,1.068.446,1.534-1.3.479-1.735-2.732-1.139-5.109-2.638-7.938-3.563a82.165,82.165,0,0,1-10.545-3.725c-1.038-.5-1.952,1.049-.908,1.554Z"/><path class="a" d="M53.266,29.639a7.592,7.592,0,0,1,.839.666l.637-1.536-.6.008a.907.907,0,0,0-.454,1.677,8.466,8.466,0,0,0,4.177,1.207.9.9,0,0,0,0-1.8A6.583,6.583,0,0,1,54.6,28.9l-.454,1.677.6-.008a.91.91,0,0,0,.636-1.537,11.116,11.116,0,0,0-1.2-.948c-.959-.655-1.861.9-.909,1.555Z"/><path class="c" d="M12.247,6.413a.9.9,0,0,0,0-1.8.9.9,0,0,0,0,1.8Z"/><path class="a" d="M84.556,43.145l.269-.1-1.016-.414c.843,1.376.91,3.588,1,5.164.064,1.152,1.864,1.16,1.8,0-.108-1.927-.216-4.395-1.244-6.072a.912.912,0,0,0-1.016-.414l-.269.1c-1.07.413-.605,2.154.478,1.736Z"/><path class="a" d="M12,8.4a109.652,109.652,0,0,1,11.009,7.82l.876-1.5a70.328,70.328,0,0,1-7.038-3.217l-.693,1.645a66.066,66.066,0,0,1,6.293,2.966.9.9,0,0,0,.908-1.554L18.409,11.5l-.693,1.645A41.619,41.619,0,0,1,24.3,15.824c1.027.525,1.936-1.007.908-1.554L17.934,10.4l-.693,1.645a59.757,59.757,0,0,1,9.3,4.692L27.23,15.1a20.975,20.975,0,0,1-7.262-4.466l-.876,1.505a36.809,36.809,0,0,1,6.562,3.23l.908-1.554Q21.8,11.689,17.1,9.426l-.693,1.645a116.754,116.754,0,0,1,19.822,8.611l.693-1.645-10.9-2.869L25.541,16.9q5.444,1.218,10.82,2.684a.9.9,0,0,0,.479-1.736l-7.577-2.146-.239,1.768a72.586,72.586,0,0,1,13.9,3.073L43.4,18.81C39.7,18.028,36.055,17.1,32.431,16l-.479,1.735,10.969,2.552a.9.9,0,0,0,.479-1.736L28.13,13.276l-.479,1.736,12.794,4.394.479-1.736L26.566,13.833a.9.9,0,0,0-.479,1.735L48.21,22.817l.478-1.736A51.152,51.152,0,0,1,38.012,17.34l-.693,1.645a68.265,68.265,0,0,1,8.866,2.235l.478-1.736a18.731,18.731,0,0,1-4.873-1.6L41.1,19.53l3.663,1.141.479-1.735a56.2,56.2,0,0,1-5.923-1.755l-.478,1.736,6.336,1.357a.9.9,0,0,0,.479-1.735l-2.813-1.125-.694,1.645a15.576,15.576,0,0,1,3.124.778l.239-1.768c-2.088-.2-4.15-.492-6.211-.878l-.478,1.736c1.249.177,4.462.241,5.39,1.2q1.846.3-.615,1.089a8.149,8.149,0,0,1-5.849-2.285l-.636,1.536A22.2,22.2,0,0,1,45.178,22.2l.478-1.736L37.4,18.08c-1.128-.324-1.554,1.348-.479,1.736a44.261,44.261,0,0,0,6.7,1.848c.934.18,1.674-1.175.694-1.645a57.978,57.978,0,0,1-5.259-2.864v1.554l2.223-.376.239-1.768-2.4-.3c-1-.127-1.233,1.58-.239,1.768,5.082.961,10.056,2.02,14.193,5.337l.876-1.5a35.269,35.269,0,0,0-8.441-2.208.9.9,0,0,0-.479,1.736q5.7,1.955,11.439,3.8l.239-1.768L42.287,22.032c-1-.1-1.234,1.575-.239,1.768l12.08,2.341.478-1.736a60.77,60.77,0,0,1-9.02-1.98l-.479,1.736c4.961.74,9.728,1.579,14.2,3.987l.909-1.555c-3.1-1.511-6.1-3.151-9.051-4.937L50.472,23.3a46.61,46.61,0,0,1,7.533,2.5c1.039.448,1.968-1.04.908-1.554l-1.436.853c1.063-.154.7-1.7-.239-1.767l-2.831-.57c-.952-.306-1.64,1.238-.693,1.645a37.12,37.12,0,0,1,9.025,5.011L63.83,28a51.921,51.921,0,0,1-10.765-6.261l-.694,1.645a28.566,28.566,0,0,1,11.436,4.936l.694-1.645a37.366,37.366,0,0,0-4.179-1.407l-.478,1.736a65.074,65.074,0,0,1,11.867,3.929l.215-1.644c-2.9.888-4.628-.57-6.554-2.029l-.693,1.645a29.631,29.631,0,0,1,5.58,2.53l.694-1.645-8.281-2.309a.9.9,0,0,0-.479,1.736A48.3,48.3,0,0,1,73.725,34.3l.909-1.554-3.788-2.406a.9.9,0,0,0-1.091,1.413c1.71,1.607,3.34,3.265,4.918,5l1.273-1.273-2.135-2.526L72.4,34.043l3.124,3.642c.676.787,1.918-.224,1.414-1.091L75.228,33.66l-1.413,1.091A19.474,19.474,0,0,1,77.932,39.2l1.231-1.231a93.067,93.067,0,0,0-23.89-12.072l-.479,1.736c5.235,1.513,10.334,3.168,14.945,6.14l.909-1.555L50.031,22.478a.9.9,0,0,0-.909,1.555,37.162,37.162,0,0,0,8.545,4.41q2.661,1.082,5.326,2.154l2.664,1.077a3.365,3.365,0,0,0,3.879.224c-1.158-.064-1.154,1.736,0,1.8l.213.011a.871.871,0,0,0,.777-.445l.1-.232a.928.928,0,0,0-.14-1.091c-2.033-1.685-5.488-2.462-7.9-3.439-4.314-1.745-8.791-3.222-12.553-6.024l-.909,1.555,20.617,9.735a.9.9,0,0,0,.909-1.555c-4.757-3.064-9.971-4.758-15.375-6.321a.9.9,0,0,0-.479,1.736,91.28,91.28,0,0,1,23.46,11.89c.73.512,1.731-.5,1.232-1.231a22.181,22.181,0,0,0-4.4-4.809c-.753-.614-1.961.15-1.414,1.091L75.381,37.5l1.413-1.091L73.67,32.771c-.656-.766-2.03.269-1.413,1.09a23.427,23.427,0,0,0,2.416,2.891c.8.849,2.05-.418,1.273-1.273-1.578-1.736-3.208-3.393-4.918-5l-1.09,1.414L73.725,34.3c.982.624,1.877-.926.909-1.554a50.149,50.149,0,0,0-11.962-5.259l-.479,1.736,8.281,2.308a.9.9,0,0,0,.694-1.645,31.488,31.488,0,0,0-6.011-2.711c-1.047-.35-1.443,1.077-.693,1.645,2.521,1.911,4.8,3.171,7.94,2.21.671-.2.965-1.313.215-1.645a67.613,67.613,0,0,0-12.3-4.111.9.9,0,0,0-.478,1.736,37.08,37.08,0,0,1,4.178,1.407c1.014.4,1.46-1.1.694-1.645A29.662,29.662,0,0,0,52.85,21.653a.9.9,0,0,0-.694,1.645,51.969,51.969,0,0,0,10.766,6.26c.842.364,1.961-.709,1.09-1.413a38.769,38.769,0,0,0-9.39-5.293L53.929,24.5a8.557,8.557,0,0,0,3.309.634L57,23.363h-.01a.864.864,0,0,0-.629.629l-.026.179a.933.933,0,0,0,.414,1.017l1.258.61.908-1.554a49.427,49.427,0,0,0-7.963-2.679.9.9,0,0,0-.693,1.645c2.947,1.785,5.952,3.425,9.05,4.937,1.031.5,1.938-1,.909-1.555-4.6-2.475-9.506-3.4-14.63-4.168a.9.9,0,0,0-.479,1.736,60.8,60.8,0,0,0,9.021,1.98c1.116.158,1.636-1.511.478-1.736l-12.08-2.341-.239,1.768,14.424,1.386c1.049.1,1.164-1.471.239-1.767q-5.738-1.842-11.438-3.8l-.479,1.736A35.339,35.339,0,0,1,53.475,23.6a.906.906,0,0,0,.875-1.5c-4.412-3.537-9.516-4.766-14.988-5.8l-.239,1.768,2.4.3c1,.127,1.232-1.576.239-1.768a4.525,4.525,0,0,0-3.61.558.909.909,0,0,0,0,1.554,58.113,58.113,0,0,0,5.259,2.864l.694-1.645a44.229,44.229,0,0,1-6.7-1.848l-.479,1.736L45.178,22.2c1.144.329,1.518-1.309.478-1.736a23.189,23.189,0,0,0-8.547-1.792.91.91,0,0,0-.637,1.537c2.311,1.94,10.467,5.3,11.6.562a.888.888,0,0,0-.231-.876c-2.328-1.818-5.7-2.294-8.549-2.7-1.118-.159-1.635,1.519-.478,1.736,2.227.417,4.434.727,6.689.942,1.041.1,1.175-1.483.239-1.768a15.617,15.617,0,0,0-3.123-.778c-.948-.184-1.648,1.139-.694,1.645a9.707,9.707,0,0,0,3.243,1.306l.479-1.735-6.337-1.358a.9.9,0,0,0-.478,1.736,56.009,56.009,0,0,0,5.922,1.754.9.9,0,0,0,.479-1.735l-3.663-1.142c-.953-.3-1.64,1.23-.694,1.645a29.011,29.011,0,0,0,5.3,1.781.9.9,0,0,0,.478-1.736A68.182,68.182,0,0,0,37.8,17.25c-.937-.171-1.664,1.147-.693,1.645A53.372,53.372,0,0,0,48.21,22.817a.9.9,0,0,0,.478-1.736L26.566,13.833l-.479,1.735,14.358,3.838a.9.9,0,0,0,.479-1.736L28.13,13.276c-1.1-.377-1.568,1.359-.479,1.736l15.27,5.279.479-1.736L32.431,16a.9.9,0,0,0-.479,1.735c3.625,1.092,7.27,2.025,10.973,2.807A.9.9,0,0,0,43.4,18.81a75.453,75.453,0,0,0-14.38-3.137c-1.029-.123-1.187,1.5-.24,1.768l7.577,2.146.479-1.736q-5.382-1.467-10.821-2.683a.9.9,0,0,0-.478,1.735l10.9,2.87a.9.9,0,0,0,.693-1.645A119.356,119.356,0,0,0,16.883,9.335c-.956-.314-1.619,1.2-.693,1.645q4.7,2.265,9.464,4.384a.9.9,0,0,0,.908-1.554A39.659,39.659,0,0,0,19.571,10.4c-.852-.319-1.512.917-.876,1.5a23.522,23.522,0,0,0,8.057,4.929c.983.363,1.533-1.127.693-1.645a62.329,62.329,0,0,0-9.726-4.874c-.95-.379-1.583,1.171-.693,1.645L24.3,15.824,25.2,14.27A43.839,43.839,0,0,0,18.2,11.407a.9.9,0,0,0-.694,1.645l4.949,3.053.908-1.554A71.077,71.077,0,0,0,16.635,11.4c-.945-.385-1.587,1.177-.693,1.645a74.76,74.76,0,0,0,7.467,3.4.906.906,0,0,0,.876-1.5,113.44,113.44,0,0,0-11.374-8.1C11.925,6.227,11.02,7.784,12,8.4Z"/><path class="a" d="M71.326,30.933a56.95,56.95,0,0,1,4.814,6.625c.612.981,2.17.079,1.555-.908a60.271,60.271,0,0,0-5.1-6.99c-.748-.887-2.015.392-1.272,1.273Z"/><path class="c" d="M9.444,4.878c4.139,4.219,11.127,6.08,16.506,8.147A68.279,68.279,0,0,0,37.414,16.68c3.337.64,6.532.952,9.76,2.151,6.389,2.375,12.115,6.255,18.484,8.457,7.453,2.576,12.267,9.391,17.483,15,.791.851,2.061-.424,1.273-1.272C80.2,36.486,76.1,30.764,70.766,27.492c-2.75-1.685-5.96-2.2-8.782-3.762a91.314,91.314,0,0,0-8.85-4.443A62.42,62.42,0,0,0,43.9,15.874c-3.276-.8-6.619-.921-9.867-1.907-3.73-1.132-7.377-2.557-10.988-4.018C18.86,8.256,13.94,6.891,10.717,3.605,9.9,2.777,8.632,4.05,9.444,4.878Z"/><path class="c" d="M83.029,42.191a19.485,19.485,0,0,1,1.981,5.126c.264,1.127,2,.65,1.736-.479a21.261,21.261,0,0,0-2.163-5.556.9.9,0,0,0-1.554.909Z"/><path class="c" d="M9.787,45.026a3.327,3.327,0,0,0,.267,3.351,1.732,1.732,0,0,0,2.437.224c1-.97.322-2.767-.551-3.575a1.943,1.943,0,0,0-3.054.349,2.7,2.7,0,0,0,.968,3.509,2.938,2.938,0,0,0,3.6-.8c.885-1.4-.335-3.136-1.653-3.707a1.4,1.4,0,0,0-1.63.322,2.058,2.058,0,0,0-.025,2.41A2.659,2.659,0,0,0,12.082,48.4a1.409,1.409,0,0,0,1.3-1.338c.1-.615-.183-1.9-1.054-1.754-.953.161-1.044,1.552-.769,2.248.152.384.549.638.91.337a1.638,1.638,0,0,0-.26-2.4,9.159,9.159,0,0,0-1.159-.658c-.407-.226-.812-.458-1.225-.674a4.455,4.455,0,0,0-2.309-.611,3.773,3.773,0,0,0-2.154.865c-.552.445-.389,1.808.386,1.9a33.44,33.44,0,0,1,5.667,1.135l-.323-1.623c-.328.585-1.442.219-1.952.039-1.211-.427-2.418-.869-3.627-1.306L5.4,46.368c1.5-.237,2.355,1.377,3.425,2.118.963.666,2.447.884,3.215-.2a2.652,2.652,0,0,0-.735-3.517c-1.222-.858-2.685-.569-4.069-.8-.743-.127-1.529-.829-2.3-.569a1.6,1.6,0,0,0-.6,2.341.5.5,0,0,0,.88-.022,1.305,1.305,0,0,0-.033-1.339L5.2,44.4l.1.475c.015.593-.273.332.086.361a1.641,1.641,0,0,1,.492.19,4.24,4.24,0,0,0,.954.3,11.012,11.012,0,0,0,2.046.1,3.893,3.893,0,0,1,1.886.341c.25.137.689.541.589.827-.137.392-.768.438-1.1.393A2.707,2.707,0,0,1,8.783,46.5c-.941-.928-1.939-2.2-3.43-1.979-.75.11-.791,1.564-.117,1.816,1.34.5,2.677,1.091,4.046,1.5.986.295,2.165.342,2.751-.664.249-.429.282-1.432-.323-1.623A31.276,31.276,0,0,0,5.7,44.262l.385,1.9a2.728,2.728,0,0,1,2.774-.352,13.868,13.868,0,0,1,1.537.782l.845.463a3.1,3.1,0,0,0,.315.171c.18.075.1.2.042-.1l-.013-.533-.008.076.159-.447.028-.037.909.338q-.4.609-.033.733l-.35.008c.2.057-.038.027-.132-.229a1.49,1.49,0,0,1-.04-.505c0-.008.065-.163.082-.138a1.337,1.337,0,0,1-.313-.006,1.182,1.182,0,0,1-.385-.2,2.348,2.348,0,0,1-.335-.288c-.038-.042-.073-.135-.118-.146a2.42,2.42,0,0,0-.062.485c.039.07-.266.028.056,0,.029,0,.072-.018.1-.022a.705.705,0,0,1,.425.094,2.61,2.61,0,0,1,.711.557c.032.035.152.227.181.232.06.01-.023.446.036-.166.034-.351.046-.155-.059-.121-.263.086-.5.272-.778.348a2.224,2.224,0,0,1-.96.055,1.082,1.082,0,0,1-.846-.636c.038.128-.032.068.008.023-.047.052.072-.065.08-.07a1.424,1.424,0,0,1,.578-.25,1.349,1.349,0,0,1,1.3.708c.211.356.179.521-.258.639a1.2,1.2,0,0,1-1.225-.348,2.631,2.631,0,0,1-.218-2.037c.039-.219-.215-.515-.333-.2Z"/><path class="a" d="M27.644,42.722c-.782-1.423-1.8-2.465-3.516-2.447l1.5,1.5c.11-1.887,2.915-1.793,4.149-1.433,1.738.507,1.861,2.94.851,4.168a10.2,10.2,0,0,1-3.464,2.556,2.411,2.411,0,0,1-1.242.324.8.8,0,0,1-.063-.562,9.34,9.34,0,0,1,.016-2.7,1.509,1.509,0,0,0-1.5-1.5,1.9,1.9,0,0,0-1.478.661l2.561,1.06q.018-.628.051-1.258l-1.048,1.048a19.723,19.723,0,0,0,2.426-.688c.473-.232,2.189-1.925,2.519-.613.14.559-1.392,1.629-1.85,2.08l-.825.812,1.091-.109c.713-.317,1.229-.944,2.016-1.245l-1.694-2.2a4.383,4.383,0,0,1-2.228,1.508c-.437.194-1.289.864-1.752.822l1.06.44-.263-.258.439,1.061.023-.247-.439,1.06.176-.176-1.061.44.228.01c1.93.085,1.926-2.916,0-3-2.31-.1-2.522,3.141-.363,3.643,1.172.273,2.179-.608,3.171-1.079a7.456,7.456,0,0,0,3.6-2.71c.666-1.043-.458-2.675-1.694-2.2-2.181.833-6.2,3.484-4.081,6.274a2.373,2.373,0,0,0,3.057.723,14.4,14.4,0,0,0,4.059-3.872c1.726-2.462-1.374-5.74-4.032-5.269a3.664,3.664,0,0,0-1.48.736,7.466,7.466,0,0,1-2.525,1.04c-1.62.512-1.527,1.739-1.58,3.233a1.515,1.515,0,0,0,2.561,1.061l.162-.2-1.06.44.254-.025-1.5-1.5c-.01,1.582-.46,3.825.6,5.177a3.66,3.66,0,0,0,3.783.913c2.784-.68,6.772-3.627,7.011-6.673.257-3.286-1.372-5.816-4.693-6.282-3.23-.453-6.733.865-6.945,4.513a1.514,1.514,0,0,0,1.5,1.5,1.642,1.642,0,0,1,.925.961c.93,1.692,3.522.18,2.591-1.514Z"/><path class="a" d="M3.841,45.248,3.808,44.5l-2.795.757.827,1.95L3.533,45l-.127-.174C2.328,43.52.725,45.009.9,46.289A3.25,3.25,0,0,0,3.2,48.9c1.123.392,2.206.319,3.319.869.892.441,1.666,1.067,2.583,1.467,2.792,1.219,6.155.264,6.292-3.158.056-1.42-2.176-2.136-2.795-.757-1.556,3.465,4.676,3.739,3.416-.518-.594-2.007-2.432-2.616-4.247-3.1C8.943,42.94,6.1,42.023,3.15,42.012a1.507,1.507,0,0,0-.4,2.947c1.123.265,2.045,1.321,3.077,1.817a29.9,29.9,0,0,0,3.1,1.178c1.564.548,3.693,1.8,5.245.762a1.52,1.52,0,0,0-.358-2.742l-4.6-1.36c-1.855-.548-2.648,2.346-.8,2.893l4.6,1.36-.359-2.742q.822.095-.532-.244-.8-.267-1.6-.542c-.8-.275-1.6-.542-2.392-.846-1.655-.638-2.856-2.02-4.581-2.427l-.4,2.946a21.741,21.741,0,0,1,5.476.962c.779.206,1.579.375,2.346.62l.782.207a1.585,1.585,0,0,0,2.2.343l1.3.743-.182-.278v1.515l.128-.286L12.4,48.081l-2.168.4q-.567-.294-1.1-.64a17.373,17.373,0,0,0-1.842-1.031c-.577-.254-3.392-.59-3.49-1.318l-2.507,1.46a2.8,2.8,0,0,0,1.451.944c1.383.506,2.145-1.138,1.694-2.2L3.6,43.742c-.591-1.395-2.858-.652-2.8.757l.033.749c.085,1.923,3.086,1.934,3,0Z"/><path class="a" d="M8.272,47.564a6.4,6.4,0,0,0,2.515,2.249,1.5,1.5,0,1,0,1.515-2.59,5.215,5.215,0,0,1-.5-.27c-.09-.055-.176-.115-.263-.174.172.117.059.049-.043-.039a4.743,4.743,0,0,1-.406-.4c-.057-.062-.11-.127-.165-.19.214.244-.035-.062-.063-.1a1.5,1.5,0,0,0-2.591,1.514Z"/><path class="a" d="M5.293,37.938l.024.008L4.959,37.8l.021.014-.3-.235.018.018-.235-.3a.17.17,0,0,1,.026.045l-.151-.358a1.238,1.238,0,0,1,.039.168,1.853,1.853,0,0,0,.207.5,2.933,2.933,0,0,0,.262.348c.023.027.044.052.069.077a1.657,1.657,0,0,0,.45.326,1.111,1.111,0,0,0,.558.178,1.137,1.137,0,0,0,.6-.026A1.5,1.5,0,0,0,7.565,36.7a1.453,1.453,0,0,0-.69-.9.615.615,0,0,1-.119-.069l.3.234a.607.607,0,0,1-.1-.1l.235.3a.808.808,0,0,1-.052-.09l.151.358c-.034-.087-.041-.18-.07-.268a1.9,1.9,0,0,0-.412-.707,1.673,1.673,0,0,0-.725-.425,1.5,1.5,0,0,0-1.694,2.2l.235.3a1.5,1.5,0,0,0,.662.386Z"/><path class="a" d="M9.43,34.407a2.594,2.594,0,0,1,.339-.075l-.4.054a2.259,2.259,0,0,1,.411-.009l-.4-.053a1,1,0,0,1,.247.063l-.358-.151a.5.5,0,0,1,.1.066l-.3-.234.042.043-.234-.3.034.051a1.5,1.5,0,0,0,2.59-1.514,1.982,1.982,0,0,0-1.323-.914,3.5,3.5,0,0,0-1.547.083,1.5,1.5,0,0,0,.8,2.893Z"/><path class="a" d="M17.2,38a1.5,1.5,0,0,0,0-3,1.5,1.5,0,0,0,0,3Z"/><path class="a" d="M23.592,48.041a1.5,1.5,0,0,0,0-3,1.5,1.5,0,0,0,0,3Z"/><path class="a" d="M.242,45.942a4.653,4.653,0,0,0,3.805,3.635A11.457,11.457,0,0,1,7.5,50.731a9.635,9.635,0,0,0,2.727,1.249c3.69.763,7.461-2.454,5.592-6.29-.9-1.85-2.44-2.083-4.23-2.54-2.249-.575-4.134-1.635-6.547-1.288-1.414.2-2.85.89-2.61,2.566a2.535,2.535,0,0,0,1.117,1.734c.695.495,2.023.326,2.557.755l.662-2.507-.686.26c-1.788.678-1.012,3.58.8,2.893l.686-.26c.934-.355,1.629-1.731.662-2.508-.313-.251-2.785-1.264-2.789-.984l-.743,1.3c1.355-1.019,3.57.077,4.952.562s4.31.561,3.122,2.529c-1.29,2.138-3.563-.1-5.086-.81-1.4-.656-4.065-.361-4.547-2.242s-3.374-1.077-2.893.8Z"/><path class="d" d="M27.88,40c-.474-2.377-3.306-1.435-3.752.4l2.2-.9-.2-.143.689.9L26.773,40l-.151,1.155a3.119,3.119,0,0,1,2.906-.67c.864.263,1.17,1.233,1.806,1.811a1.52,1.52,0,0,0,2.561-1.06,2.145,2.145,0,0,0-.438-1.6c-1.083-1.568-3.618-.15-2.591,1.514,1.3,2.1-2.213,4.781-3.895,5.565-3.1,1.445-.418-5.208-1.35-5.184l-1.446-1.9c-.646,1.763-2.513,7.188.485,7.987,3.345.892,2.975-4.89,4.89-5.765L28.4,42c-1.058-.236-2.453,2.641-2.633,3.512a1.523,1.523,0,0,0,1.446,1.9c2.3.092,3.6-3.21,4.66-4.819l-2.742-.358c.2.558-1.485,2.13-1.859,2.53-1.316,1.41.8,3.536,2.122,2.122,1.281-1.372,3.379-3.4,2.63-5.45a1.522,1.522,0,0,0-2.741-.358c-.224.338-1.94,3.338-2.07,3.333l1.446,1.9c.3-1.43,1.822-2.23,2.337-3.595a2.657,2.657,0,0,0-1.183-3.435c-1.336-.625-2.57.237-3.267,1.356-.5.8-1.041,3.754-1.881,4.085l1.156.152-.2-.144.689.9c-.692-1.649.19-3.64.761-5.2a1.51,1.51,0,0,0-1.446-1.9c-2.975.076-2.865,3.148-2.985,5.364-.138,2.533-.7,5.919,2.806,6.133,2.632.161,5.078-1.851,6.781-3.65,1.752-1.852,2.667-4.419,1.234-6.742l-2.591,1.514.029.09,2.56-1.061c-.976-.888-1.294-1.963-2.653-2.44a6.677,6.677,0,0,0-3.789-.106c-1.923.5-4.656,2.747-2.2,4.468a1.509,1.509,0,0,0,2.2-.9l.179-.35-.9.689.258-.042-1.156-.151.226.123-.689-.9.044.223c.377,1.892,3.27,1.091,2.893-.8Z"/><path class="d" d="M11.987,33.773c-.85-4.889-8.23-1.334-7.614,2.8a4.051,4.051,0,0,0,4.194,3.2,1.956,1.956,0,0,0,1.974-1.181,2.292,2.292,0,0,0,.151-1.156c-.054-1.14-.167-1.22-1.384-1.226l-1.061-2.56c-.807.862-1.746,1.21-1.768,2.519a2.12,2.12,0,0,0,1.574,2.1c2.365.912,4.095-.885,4.37-3.089l-2.561,1.06a7.768,7.768,0,0,0,3.219,1.712A1.511,1.511,0,0,0,14.54,35.44a5.546,5.546,0,0,0-1.27-.964l-1.156,2.742a11.7,11.7,0,0,0,2.667.406c.4.025,1.666-.134,1.921.137.894.946-.635,1.244-1.205,1.312A9.943,9.943,0,0,1,8.549,37.2L7.792,40l8.868-.207-1.295-2.257-.51.23c-1.9.287-1.094,3.179.8,2.893a3.034,3.034,0,0,0,2.3-1.609,1.511,1.511,0,0,0-1.295-2.257L7.792,37a1.513,1.513,0,0,0-.757,2.795,12.891,12.891,0,0,0,6.386,2.317c1.959.149,4.99,0,6.433-1.526a3.315,3.315,0,0,0-.136-4.431c-1.75-2-4.555-1.159-6.806-1.829a1.506,1.506,0,0,0-1.156,2.741l.663.495,1.459-2.507a3.413,3.413,0,0,1-1.894-.94,1.523,1.523,0,0,0-2.561,1.061c-.255,2.048.44,1.132.945.592a1.518,1.518,0,0,0-1.06-2.561,1.992,1.992,0,0,0-2.119,1.6A4.415,4.415,0,0,0,7.5,37q.184,1.711.851-.261-1.043-2.287.74-2.164c.33,1.9,3.221,1.093,2.892-.8Z"/><path class="d" d="M11.445,33.735H11.43a1.124,1.124,0,0,0-.578.129,1.346,1.346,0,0,0-.793.793,1.129,1.129,0,0,0-.129.578l.053.4a1.5,1.5,0,0,0,.386.662l.3.234a1.5,1.5,0,0,0,.758.2h.015a1.124,1.124,0,0,0,.578-.129,1.346,1.346,0,0,0,.793-.793,1.126,1.126,0,0,0,.129-.578l-.053-.4a1.5,1.5,0,0,0-.386-.662l-.3-.234a1.488,1.488,0,0,0-.757-.2Z"/><path d="M23.31,48.862a5.01,5.01,0,0,1-.658-3.459,13.537,13.537,0,0,1,.445-1.469,1.4,1.4,0,0,0-.016-.774c-.133-.4-.47-.638-.425-1.107.264-2.738,3.1-4.4,5.615-4.487,2.7-.094,5.385,1.455,5.491,4.4S31.452,47.629,29,48.954c-1.306.706-3.431,1.375-4.812.492a5.359,5.359,0,0,1-1.746-3.03c-.072-.293-.423-.333-.445.011a5.6,5.6,0,0,0,1.348,3.4c1.011,1.308,2.822,1.3,4.3.933a9.6,9.6,0,0,0,6.778-7.4,6.05,6.05,0,0,0-1.112-4.751,5.752,5.752,0,0,0-3.62-1.975,6.651,6.651,0,0,0-7.36,3.988,3.341,3.341,0,0,0-.142,2.43c.068.144.262.3.3.44.065.234-.146.533-.22.741a4.254,4.254,0,0,0-.21.939c-.146,1.284.06,2.96,1.22,3.753.034.023.046-.042.029-.062Z"/><path d="M9.455,31.59a1.9,1.9,0,0,1,2.03,1.277,3.411,3.411,0,0,0,.833,1.612c1.075.9,2.832.568,4.111.6a3.612,3.612,0,0,1,3.709,2.567,3.368,3.368,0,0,1-2.33,3.788c-2.468.971-4.7-.126-7-.927-1.165-.405-2.259-.9-3.39-1.378-1.039-.439-2.317-.852-2.534-2.1a6.5,6.5,0,0,1-.1-1.64A3.135,3.135,0,0,1,5.851,33.3a5.536,5.536,0,0,1,4.361-1.651c.187.016.18-.407-.01-.43a6.636,6.636,0,0,0-4.385,1.065,4.783,4.783,0,0,0-1.545,1.6,5.181,5.181,0,0,0-.35,1.984A4.07,4.07,0,0,0,5.2,39.384a7.662,7.662,0,0,0,1.726.912c.737.311,1.448.685,2.194.97,2.738,1.049,5.627,2.291,8.587,1.289a4.5,4.5,0,0,0,3.016-3.08A4.117,4.117,0,0,0,16.961,34.2c-1.227-.105-2.538.237-3.744-.1s-1.008-1.467-1.687-2.247a1.943,1.943,0,0,0-2.1-.475c-.074.025-.064.22.024.211Z"/><path class="c" d="M9.787,45.026a3.327,3.327,0,0,0,.267,3.351,1.732,1.732,0,0,0,2.437.224c1-.97.322-2.767-.551-3.575a1.943,1.943,0,0,0-3.054.349,2.7,2.7,0,0,0,.968,3.509,2.938,2.938,0,0,0,3.6-.8c.885-1.4-.335-3.136-1.653-3.707a1.4,1.4,0,0,0-1.63.322,2.058,2.058,0,0,0-.025,2.41A2.659,2.659,0,0,0,12.082,48.4a1.409,1.409,0,0,0,1.3-1.338c.1-.615-.183-1.9-1.054-1.754-.953.161-1.044,1.552-.769,2.248.152.384.549.638.91.337a1.638,1.638,0,0,0-.26-2.4,9.159,9.159,0,0,0-1.159-.658c-.407-.226-.812-.458-1.225-.674a4.455,4.455,0,0,0-2.309-.611,3.773,3.773,0,0,0-2.154.865c-.552.445-.389,1.808.386,1.9a33.44,33.44,0,0,1,5.667,1.135l-.323-1.623c-.328.585-1.442.219-1.952.039-1.211-.427-2.418-.869-3.627-1.306L5.4,46.368c1.5-.237,2.355,1.377,3.425,2.118.963.666,2.447.884,3.215-.2a2.652,2.652,0,0,0-.735-3.517c-1.222-.858-2.685-.569-4.069-.8-.743-.127-1.529-.829-2.3-.569a1.6,1.6,0,0,0-.6,2.341.5.5,0,0,0,.88-.022,1.305,1.305,0,0,0-.033-1.339L5.2,44.4l.1.475c.015.593-.273.332.086.361a1.641,1.641,0,0,1,.492.19,4.24,4.24,0,0,0,.954.3,11.012,11.012,0,0,0,2.046.1,3.893,3.893,0,0,1,1.886.341c.25.137.689.541.589.827-.137.392-.768.438-1.1.393A2.707,2.707,0,0,1,8.783,46.5c-.941-.928-1.939-2.2-3.43-1.979-.75.11-.791,1.564-.117,1.816,1.34.5,2.677,1.091,4.046,1.5.986.295,2.165.342,2.751-.664.249-.429.282-1.432-.323-1.623A31.276,31.276,0,0,0,5.7,44.262l.385,1.9a2.728,2.728,0,0,1,2.774-.352,13.868,13.868,0,0,1,1.537.782l.845.463a3.1,3.1,0,0,0,.315.171c.18.075.1.2.042-.1l-.013-.533-.008.076.159-.447.028-.037.909.338q-.4.609-.033.733l-.35.008c.2.057-.038.027-.132-.229a1.49,1.49,0,0,1-.04-.505c0-.008.065-.163.082-.138a1.337,1.337,0,0,1-.313-.006,1.182,1.182,0,0,1-.385-.2,2.348,2.348,0,0,1-.335-.288c-.038-.042-.073-.135-.118-.146a2.42,2.42,0,0,0-.062.485c.039.07-.266.028.056,0,.029,0,.072-.018.1-.022a.705.705,0,0,1,.425.094,2.61,2.61,0,0,1,.711.557c.032.035.152.227.181.232.06.01-.023.446.036-.166.034-.351.046-.155-.059-.121-.263.086-.5.272-.778.348a2.224,2.224,0,0,1-.96.055,1.082,1.082,0,0,1-.846-.636c.038.128-.032.068.008.023-.047.052.072-.065.08-.07a1.424,1.424,0,0,1,.578-.25,1.349,1.349,0,0,1,1.3.708c.211.356.179.521-.258.639a1.2,1.2,0,0,1-1.225-.348,2.631,2.631,0,0,1-.218-2.037c.039-.219-.215-.515-.333-.2Z"/><path class="c" d="M11.506,45.016c-.918-.36-1.823-.7-2.761-1-.876-.281-1.661-.8-2.551-1.039A4.939,4.939,0,0,0,1.61,44.065a1.454,1.454,0,0,0,.24,2.164c1.455.631,3.01.239,4.533.379,1.384.127,2.2,1.143,3.249,1.918,1.1.809,2.922,1.43,3.485-.3a3.118,3.118,0,0,0-1.922-3.7,17.114,17.114,0,0,0-2.422-.8c-1.038-.309-2.072-.656-3.123-.916l.058,2.374a2.323,2.323,0,0,1,1.8.254c1.036.428,1.193-1.817.347-2.232a3.3,3.3,0,0,0-2.634-.385c-.815.287-.749,2.116.059,2.373,1.739.554,3.583.826,5.293,1.468a2.91,2.91,0,0,1,.83.429c.005,0,.355.313.32.337.014-.01,0-.145.013-.174.026-.05.073-.219.082-.2a2.8,2.8,0,0,1-.516-.047,2.812,2.812,0,0,1-.785-.371c-1.207-.8-2.085-1.975-3.582-2.268-1.555-.3-3.247.218-4.726-.44L2.447,46.1a4.035,4.035,0,0,1,3.976-.8,19.435,19.435,0,0,0,2.369.783,18.2,18.2,0,0,0,2.63.247c.57.036.516-1.137.084-1.307Z"/><path class="d" d="M.9,44.123c-1.112,3.037.533,4.622,3.323,5.421,1.726.5,2.923,1.692,4.6,2.213a8.013,8.013,0,0,0,4.28.021c2.254-.65,3.614-3.719,2.811-5.883C14.9,43.16,11.337,42.812,8.9,42.289c-2.243-.48-5.3-1.511-7.163.444C.367,44.173.153,47.486,1.77,48.8c1.456,1.182,5,1.02,6.122-.595,1.757-2.531-2.258-3.239-3.622-3.855l.743,1.3q-.466,1.015.6.875a8,8,0,0,1,1.531.383c.725.187,1.407.364,2.143.49.971.166,2.516.036.237-.482A8.367,8.367,0,0,1,6.9,45.72a1.506,1.506,0,0,0-1.818,2.355,2.023,2.023,0,0,0,1.25.677c1.889.272,2.7-2.618.8-2.892l.073.094L5.381,48.31c1.715,1.092,4.29,2.241,6.382,1.679a2.477,2.477,0,0,0,1.668-3.44c-.844-2.06-3.225-1.943-5.056-2.414-1.679-.432-4.388-1.523-5.833.03a1.787,1.787,0,0,0,.588,2.944,4.091,4.091,0,0,0,1.54.457q.98.517.534-1.155l-1.486.042c-.228-.272.074-.977.256-1.261.558-.871,1.011-.611,2.073-.45,1.371.207,2.757.574,4.111.881.467.106.95.191,1.405.343,1.6.536,2.27,2.648-.416,3.055-1.516.229-2.59-.93-3.8-1.59-1.062-.58-4.229-.66-3.551-2.511.665-1.815-2.233-2.6-2.893-.8Z"/><path class="c" d="M34.217,16.12c3.188,1.774,6.606,1.62,10.022,2.622,1.959.574,3.561,1.806,5.421,2.566A29.189,29.189,0,0,0,55.7,22.65c3.819.679,6.046,2.749,9.056,4.915,2.791,2.008,6.889,2.317,9.213,4.832.789.852,2.059-.423,1.273-1.273C73.27,28.991,70.521,28.6,68,27.4c-3.092-1.462-5.231-4.319-8.441-5.612-3.925-1.581-7.947-1.735-11.875-3.573-4.032-1.887-8.661-1.484-12.555-3.651-1.014-.564-1.922.99-.909,1.554Z"/><path d="M2.442,41.963A4.483,4.483,0,0,0,.916,48.65a5.354,5.354,0,0,0,3.663,1.719,5.77,5.77,0,0,1,2.432.858,9.481,9.481,0,0,0,2.071,1.164,5.624,5.624,0,0,0,7.275-2.95,5.04,5.04,0,0,0-2.9-6.571,32,32,0,0,0-5.854-1.635c-1.79-.313-3.722-.393-5.246.732-.27.2-.156.973.258.851a9.987,9.987,0,0,1,3.768-.539,21.825,21.825,0,0,1,4.266.934,11.827,11.827,0,0,1,3.914,1.457A3.485,3.485,0,0,1,15.913,47.8c-.293,2.55-3.049,4.035-5.411,3.788a8.55,8.55,0,0,1-3.57-1.61c-1.1-.657-2.35-.621-3.553-.927A3.328,3.328,0,0,1,.736,46.184a4.9,4.9,0,0,1,1.938-3.455c.21-.178.126-.945-.232-.766Z"/><path class="c" d="M25.743,11.658c2.02.808,4.042,1.614,6.013,2.534A34.6,34.6,0,0,0,36.3,16.267a.9.9,0,0,0,.479-1.735A50.525,50.525,0,0,1,31.3,12.02c-1.675-.738-3.375-1.418-5.074-2.1-1.076-.43-1.543,1.31-.479,1.735Z"/><path class="b" d="M23.9,22.4c2.924,1.177,5.949,1.407,8.95,2.262s5.511,2.709,8.368,3.919C45,30.185,48.8,30.5,52.384,32.507a22.5,22.5,0,0,0,5.563,2.2l-.215-1.645-.05.032c-.977.618-.075,2.176.908,1.554l.05-.032a.911.911,0,0,0-.215-1.645c-2.945-.793-4.278-2.091-6.782-3.35-2.956-1.487-6.711-1.447-9.819-2.778-2.657-1.139-4.988-2.835-7.761-3.7-3.218-1-6.531-1.212-9.684-2.482-1.075-.432-1.542,1.308-.479,1.736Z"/><path class="c" d="M56.608,22.1a5.827,5.827,0,0,1,2.6,1.538,9.443,9.443,0,0,0,2.519,1.877c1.027.532,1.938-1.021.908-1.554a13.9,13.9,0,0,1-2.766-2.231,8.121,8.121,0,0,0-2.784-1.366c-1.1-.374-1.571,1.364-.479,1.736Z"/><path d="M6.818.147a7.878,7.878,0,0,0,.024,7.9c.839,1.545,2.381,2.424,3.284,3.885.943,1.524,1.018,3.329,2.164,4.792,2.012,2.569,5.15,3.985,7.994,5.416a43.955,43.955,0,0,0,11.191,4.071,17.9,17.9,0,0,1,5.6,2.143,27.7,27.7,0,0,0,5.405,2.2c2.007.639,4.021,1.263,6.023,1.923a5.607,5.607,0,0,1,2.273,1.247,9.492,9.492,0,0,0,1.98,1.607,33.134,33.134,0,0,0,4.639,1.644,14.568,14.568,0,0,1,4.088,2.493c2.3,1.877,4.34,4.118,6.985,5.527A13.554,13.554,0,0,0,73.7,46.313a11.515,11.515,0,0,1,6.223,2.477c2.611,1.965,5.788,4.88,9.23,3.087.263-.137.235-.7-.084-.746a14.4,14.4,0,0,1-4.363-.758,23.849,23.849,0,0,1-4.29-2.968,13.034,13.034,0,0,0-3.9-2.223c-1.881-.588-3.9-.409-5.788-.953-5.548-1.6-8.412-7.586-13.96-9.337a14.133,14.133,0,0,1-4.393-1.676c-.671-.5-1.165-1.182-1.881-1.628a9.664,9.664,0,0,0-2.381-.918c-3.49-1.051-7.222-1.851-10.428-3.632a18.8,18.8,0,0,0-4.842-2.15,56.526,56.526,0,0,1-5.784-1.476,67.991,67.991,0,0,1-9.631-4.442,14.1,14.1,0,0,1-4.44-3.368c-1.177-1.473-1.344-3.41-2.473-4.88C9.341,9.194,7.672,8.347,6.991,6.428A7.984,7.984,0,0,1,7.3.686C7.421.393,7.1-.3,6.818.147Z"/><path d="M6.863.541C7.678,3.99,11.718,5.6,14.675,6.815c2.046.839,4.06,1.762,6.114,2.58,1.75.7,3.568,1.218,5.357,1.806,3.488,1.147,7.15,1.981,10.5,3.506a9.585,9.585,0,0,0,2.4.926,18.186,18.186,0,0,0,2.915.1,8.5,8.5,0,0,1,4.706,1.656A18,18,0,0,0,48.6,18.455a18.642,18.642,0,0,0,2.239.623c1.4.428,2.629,1.282,4.056,1.672a15.656,15.656,0,0,1,4.462,1.66q1.664,1.02,3.347,2c2.675,1.554,5.51,2.655,8.254,4.067a16.984,16.984,0,0,1,6.592,5.8c.887,1.326,2.2,2.081,3.322,3.18.811.794,1.487,1.766,2.232,2.625a8.735,8.735,0,0,1,1.933,2.986c.691,2.075.483,4.249.865,6.366a2.867,2.867,0,0,0,2.853,2.678c.84.044.825-1.9-.047-1.933-2.03-.075-1.688-2.132-1.851-3.655a14.988,14.988,0,0,0-1.337-5.41,21.845,21.845,0,0,0-3.649-4.356c-.96-1.025-2.328-1.587-3.262-2.623-.915-1.015-1.566-2.249-2.519-3.252a14.968,14.968,0,0,0-3.06-2.442c-2.553-1.564-5.43-2.417-8.066-3.8-1.276-.672-2.531-1.385-3.78-2.105a26.151,26.151,0,0,0-3.371-1.882c-1.577-.618-3.257-.728-4.823-1.432a23.463,23.463,0,0,0-3.587-1.23c-1.571-.432-2.829-1.67-4.2-2.5a8.087,8.087,0,0,0-4.192-.908,7.415,7.415,0,0,1-2.829-.485c-.932-.42-1.813-.954-2.752-1.369-1.59-.7-3.248-1.246-4.877-1.854-4.1-1.529-8.277-2.759-12.3-4.5C14.376,4.7,10.03,3.46,7.123.22c-.17-.189-.287.207-.26.321Z"/><path d="M27.535,47.059c1.312-.533,2.836-1.19,3.315-2.652a.343.343,0,0,0-.071-.359c-.1-.076-.2,0-.235.1-.464,1.418-1.787,2.192-3.017,2.873-.014.008-.01.045.008.038Z"/><path d="M9.065,49.18c.053.252.371.382.584.471a2.6,2.6,0,0,0,.793.185,2.854,2.854,0,0,0,1.577-.333c.176-.095.109-.566-.1-.461a2.906,2.906,0,0,1-1.47.3,3.425,3.425,0,0,1-.737-.126c-.115-.033-.224-.079-.337-.116-.094-.031-.209-.08-.293-.01a.1.1,0,0,0-.021.087Z"/><path d="M16.662,39.784a3.2,3.2,0,0,1-1.411.356,3.037,3.037,0,0,1-.731-.05c-.241-.047-.476-.125-.716-.18-.151-.034-.183.248-.079.313a2.351,2.351,0,0,0,1.534.246,3.049,3.049,0,0,0,1.424-.616c.021-.015.009-.086-.021-.069Z"/><path class="a" d="M78.9,40.446c.122.086-.133-.115-.053-.043l.07.062c.058.053.107.112.161.168.072.076-.112-.16-.055-.072.021.033.044.064.065.1a2.107,2.107,0,0,1,.111.2.9.9,0,0,0,.537.414.9.9,0,0,0,1.017-1.322,2.812,2.812,0,0,0-.945-1.063.9.9,0,0,0-1.231.323.924.924,0,0,0,.323,1.232Z"/><path d="M31.533,11.723a14.469,14.469,0,0,0,5.867,3.1c2.014.57,4.069.707,6.1,1.159a9.664,9.664,0,0,1,3.267,1.325c.832.546,1.595,1.191,2.477,1.661,1.847.983,4.008,1.178,5.963,1.878A49.417,49.417,0,0,1,60.442,23.1,22.551,22.551,0,0,1,64.514,25.4a11.549,11.549,0,0,0,3.9,2.269,42.779,42.779,0,0,1,4.89,1.651c.078.035.083-.126.04-.161a14.043,14.043,0,0,0-4.53-2.287,12.682,12.682,0,0,1-4.077-2.585c-2.526-2.1-5.949-3.469-8.991-4.6-1.932-.717-4.048-.939-5.926-1.788-2.042-.922-3.494-2.458-5.744-2.993-2.013-.478-4.114-.4-6.12-.865-2.24-.52-4.17-1.984-6.386-2.485-.084-.019-.082.121-.04.162Z"/></svg>