<svg xmlns="http://www.w3.org/2000/svg" width="51.421" height="93.616" viewBox="0 0 51.421 93.616"><defs><style>.a{fill:#3a3939;}.b{fill:#dba065;}</style></defs><g transform="translate(-34.045 -22.434)"><g transform="translate(34.045 22.434)"><path class="a" d="M85.379,91.565a71.392,71.392,0,0,0-3.056-13.882c-.757-2.6-1.543-5.3-2.111-7.941A119.45,119.45,0,0,1,78.1,51.6c-.117-1.825-.236-3.685-.384-5.606-.386-5.01-1.587-12.152-7.545-16.318a12.362,12.362,0,0,0-3.436-1.625A8.586,8.586,0,0,0,65.6,25.1c-1.151-1.772-3.118-2.671-5.849-2.671s-4.7.9-5.849,2.674a8.58,8.58,0,0,0-1.127,2.946,12.349,12.349,0,0,0-3.437,1.624C43.388,33.841,42.185,40.985,41.8,46c-.148,1.921-.265,3.78-.383,5.6A119.47,119.47,0,0,1,39.3,69.742c-.569,2.643-1.354,5.336-2.113,7.939a71.17,71.17,0,0,0-3.055,13.883,23.13,23.13,0,0,0,5.735,17.614c4.827,5.249,12.049,7.672,19.889,6.626a27.546,27.546,0,0,0,3.619.246,21.753,21.753,0,0,0,16.269-6.87A23.137,23.137,0,0,0,85.379,91.565Z" transform="translate(-34.045 -22.434)"/></g><path class="b" d="M75.716,103.953c-4.087,4.447-10.288,6.451-17.043,5.487a1.876,1.876,0,0,0-.249-.018,1.857,1.857,0,0,0-.249.018c-6.756.965-12.954-1.042-17.043-5.487a19.6,19.6,0,0,1-4.817-14.932,68.424,68.424,0,0,1,2.926-13.192c.777-2.663,1.579-5.418,2.175-8.185A122.362,122.362,0,0,0,43.6,48.99c.116-1.81.235-3.655.381-5.56.527-6.828,2.449-11.182,6.05-13.7,1.786-1.251,4.684-1.91,8.4-1.91,3.7,0,6.6.659,8.38,1.91,3.6,2.518,5.526,6.872,6.052,13.7.146,1.905.265,3.751.379,5.561a122.344,122.344,0,0,0,2.185,18.654c.593,2.769,1.4,5.523,2.175,8.189a68.628,68.628,0,0,1,2.925,13.189A19.582,19.582,0,0,1,75.716,103.953Z" transform="translate(1.333 3.274)"/><path class="a" d="M50.63,30.369a1.4,1.4,0,0,1-.944,1.712c-.117.043-2.786,1.111-3.859,7.108a42.267,42.267,0,0,0-.571,8.062,1.4,1.4,0,1,1-2.8,0,44.79,44.79,0,0,1,.613-8.555c1.41-7.875,5.391-9.184,5.84-9.308A1.4,1.4,0,0,1,50.63,30.369Z" transform="translate(5.112 4.197)"/><path class="a" d="M53.264,82.144a1.4,1.4,0,0,1-1.4,1.293c-.035,0-.069,0-.108,0A14.571,14.571,0,0,1,41.686,78.4a16.128,16.128,0,0,1-3.638-11.911,1.4,1.4,0,1,1,2.791.23,13.343,13.343,0,0,0,2.978,9.864,11.632,11.632,0,0,0,8.156,4.055A1.4,1.4,0,0,1,53.264,82.144Z" transform="translate(2.395 25.996)"/><path class="b" d="M48.294,25.692c.188-.293.688-1.064,2.889-1.064s2.7.77,2.889,1.061a2.874,2.874,0,0,1,.146.257,30.366,30.366,0,0,0-3.045-.15,29.965,29.965,0,0,0-3.024.15A2.425,2.425,0,0,1,48.294,25.692Z" transform="translate(8.572 1.334)"/></g></svg>