<svg xmlns="http://www.w3.org/2000/svg" width="22" height="22" viewBox="0 0 22 22"><defs><style>.a{fill:#efefef;stroke:#afafaf;stroke-width:3px;}.b{fill:#fff;fill-rule:evenodd;}</style></defs><g transform="translate(-775 -126)"><path class="a" d="M9.5,0a9.5,9.5,0,0,1,.639,18.979c0,.005-.319.021-.639.021a9.5,9.5,0,0,1,0-19Z" transform="translate(776.5 127.5)"/><g transform="translate(652.307 -76.163)"><g transform="translate(125.313 204.783)"><path class="b" d="M135.849,205.459a6.491,6.491,0,0,1,1.016,1.493c.04.08.08.161.119.243a7.552,7.552,0,0,0,1.064-.664,7.738,7.738,0,0,0-2.2-1.072Zm4.6,11.081a10.773,10.773,0,0,1-2.379,1.3q-.437.173-.9.312-.147.36-.313.688a6.489,6.489,0,0,1-1.016,1.493,7.792,7.792,0,0,0,4.6-3.792Zm-4.235,1.86a12.449,12.449,0,0,1-2.241.271v1.952a3.69,3.69,0,0,0,2.2-2.132Zm-3.018.271a12.452,12.452,0,0,1-2.241-.271l.045.09a3.691,3.691,0,0,0,2.2,2.132Zm-3.2-.519q-.458-.139-.9-.312a10.773,10.773,0,0,1-2.379-1.3,7.792,7.792,0,0,0,4.6,3.792,6.489,6.489,0,0,1-1.016-1.493Q130.146,218.512,130,218.151Zm.583-.641a11.6,11.6,0,0,0,2.618.383v-2.518a12.083,12.083,0,0,1-3.247-.544A12.463,12.463,0,0,0,130.582,217.51Zm6.926-.287q.141-.051.28-.106a9.586,9.586,0,0,0,3.284-2.123,7.78,7.78,0,0,0,.287-2.1q0-.228-.013-.452a10.273,10.273,0,0,1-3.085,2.006l-.222.092A14.014,14.014,0,0,1,137.509,217.223Zm-11.557-5.766a9.275,9.275,0,0,0,3.123,2.216q-.018-.384-.018-.778a16.266,16.266,0,0,1,.094-1.756,9.738,9.738,0,0,1-2.54-1.666A7.707,7.707,0,0,0,125.951,211.457Zm3.919,2.53a11.246,11.246,0,0,0,3.33.611V212.08a10.768,10.768,0,0,1-3.3-.634c-.044.47-.067.954-.067,1.45C129.833,213.266,129.846,213.63,129.871,213.987Zm4.107.611a11.246,11.246,0,0,0,3.33-.611c.025-.357.037-.721.037-1.092,0-.5-.023-.98-.066-1.45a10.772,10.772,0,0,1-3.3.634Zm4.126-.925a9.278,9.278,0,0,0,3.123-2.216,7.719,7.719,0,0,0-.66-1.984,9.737,9.737,0,0,1-2.54,1.666,16.27,16.27,0,0,1,.094,1.756Q138.122,213.288,138.1,213.673Zm-11.1-4.9a8.884,8.884,0,0,0,2.26,1.559,12.787,12.787,0,0,1,.633-2.423,8.353,8.353,0,0,1-1.394-.888q-.209.181-.4.377A7.8,7.8,0,0,0,127,208.776Zm6.978,2.526a9.972,9.972,0,0,0,3.205-.648,12.164,12.164,0,0,0-.606-2.425l-.147.056a8.162,8.162,0,0,1-2.452.5Zm-4.847-4.771a7.566,7.566,0,0,0,1.064.664q.058-.124.119-.243a6.491,6.491,0,0,1,1.016-1.493A7.737,7.737,0,0,0,129.13,206.531Zm1.771.982.114.043A7.4,7.4,0,0,0,133.2,208v-2.836A3.691,3.691,0,0,0,131,207.3C130.969,207.37,130.935,207.441,130.9,207.513Zm3.076.492a7.4,7.4,0,0,0,2.185-.448l.115-.043c-.034-.072-.069-.143-.1-.212a3.691,3.691,0,0,0-2.2-2.132Zm-.322-3.574a8.465,8.465,0,1,1-8.465,8.465A8.465,8.465,0,0,1,133.655,204.43Z" transform="translate(-125.19 -204.43)"/></g></g></g></svg>