<?xml version="1.0" encoding="UTF-8" standalone="no"?>
<svg
   xmlns:dc="http://purl.org/dc/elements/1.1/"
   xmlns:cc="http://creativecommons.org/ns#"
   xmlns:rdf="http://www.w3.org/1999/02/22-rdf-syntax-ns#"
   xmlns:svg="http://www.w3.org/2000/svg"
   xmlns="http://www.w3.org/2000/svg"
   xmlns:sodipodi="http://sodipodi.sourceforge.net/DTD/sodipodi-0.dtd"
   xmlns:inkscape="http://www.inkscape.org/namespaces/inkscape"
   version="1.1"
   id="Layer_1"
   x="0px"
   y="0px"
   viewBox="0 0 485 485"
   style="enable-background:new 0 0 485 485;"
   xml:space="preserve"
   sodipodi:docname="left-chevron.svg"
   inkscape:version="1.0.1 (c497b03c, 2020-09-10)"><metadata
   id="metadata21"><rdf:RDF><cc:Work
       rdf:about=""><dc:format>image/svg+xml</dc:format><dc:type
         rdf:resource="http://purl.org/dc/dcmitype/StillImage" /><dc:title></dc:title></cc:Work></rdf:RDF></metadata><defs
   id="defs19" /><sodipodi:namedview
   pagecolor="#ffffff"
   bordercolor="#666666"
   borderopacity="1"
   objecttolerance="10"
   gridtolerance="10"
   guidetolerance="10"
   inkscape:pageopacity="0"
   inkscape:pageshadow="2"
   inkscape:window-width="1139"
   inkscape:window-height="859"
   id="namedview17"
   showgrid="false"
   inkscape:zoom="0.99652525"
   inkscape:cx="207.09416"
   inkscape:cy="208.53237"
   inkscape:window-x="0"
   inkscape:window-y="319"
   inkscape:window-maximized="0"
   inkscape:current-layer="Layer_1" />
<g
   id="g14"
   transform="matrix(-1,0,0,1,485,0)">
	<path
   d="M 413.974,71.026 C 368.171,25.225 307.274,0 242.5,0 177.726,0 116.829,25.225 71.026,71.026 25.225,116.829 0,177.726 0,242.5 0,307.274 25.225,368.171 71.026,413.974 116.829,459.775 177.726,485 242.5,485 307.274,485 368.171,459.775 413.974,413.974 459.775,368.171 485,307.274 485,242.5 485,177.726 459.775,116.829 413.974,71.026 Z M 242.5,455 C 125.327,455 30,359.673 30,242.5 30,125.327 125.327,30 242.5,30 359.673,30 455,125.327 455,242.5 455,359.673 359.673,455 242.5,455 Z"
   id="path10" />
	<polygon
   points="299.791,242.5 193.228,349.411 214.476,370.589 342.148,242.5 214.476,114.411 193.228,135.589 "
   id="polygon12" />
</g>
</svg>
