<svg xmlns="http://www.w3.org/2000/svg" width="115.633" height="90.348" style="transform: scaleX(-1)" viewBox="0 0 115.633 90.348"><defs><style>.a{fill:#3a3939;}.b{fill:#e26d1e;stroke-width:1.169px;}.b,.c{stroke:#3a3939;stroke-linejoin:round;}.c{fill:#6caf1e;stroke-linecap:round;stroke-width:1.5px;}</style></defs><g transform="matrix(0.53, 0.848, -0.848, 0.53, -93.101, -95.634)"><path class="a" d="M210.542-91.631c3.608-2.873,6.028-6.242,6.314-8.791a3.589,3.589,0,0,0-.7-2.725,3.77,3.77,0,0,0-3.13-1.325c-2.249,0-5.254,1.243-8.223,3.368-.377-4.893-2.111-9.505-5.43-9.505s-5.04,4.579-5.425,9.452c-2.962-2.143-5.961-3.395-8.211-3.395a3.76,3.76,0,0,0-3.1,1.3c-2.375,2.946,1.211,8.054,5.548,11.552a17.672,17.672,0,0,0,9.54,3.528h0v7.879A13.908,13.908,0,0,0,185.539-66.4c.013.172,1.393,17.424,3.581,34.453,4.6,35.824,8.154,35.824,10.275,35.824s5.674,0,10.275-35.824c2.188-17.029,3.568-34.28,3.587-34.585a13.875,13.875,0,0,0-12.2-13.751v-7.878A17.632,17.632,0,0,0,210.542-91.631Z" transform="translate(0 0)"/><path class="b" d="M208.176-74.377c-.534,6.732-1.173,13.575-1.882,20.195h-8.849a1.665,1.665,0,0,0-1.665,1.665,1.665,1.665,0,0,0,1.665,1.665h8.484c-.674,6.021-1.4,11.8-2.156,17.073h-6.328a1.665,1.665,0,0,0-1.665,1.665,1.665,1.665,0,0,0,1.665,1.665h5.837C201.41-18.111,199.4-9.113,197.637-7.319c-2.221-2.261-4.835-15.953-7.073-33.333h9.363a1.665,1.665,0,0,0,1.665-1.665,1.665,1.665,0,0,0-1.665-1.665h-9.781c-.671-5.466-1.3-11.229-1.873-17.073h11.654a1.665,1.665,0,0,0,1.665-1.665,1.665,1.665,0,0,0-1.665-1.665H187.957q-.322-3.456-.613-6.915a1.459,1.459,0,0,0,.214.044h13.968a1.665,1.665,0,0,0,1.665-1.665,1.665,1.665,0,0,0-1.665-1.665H187.56a1.631,1.631,0,0,0-.442.089,10.538,10.538,0,0,1,10.52-10.279A10.523,10.523,0,0,1,208.176-74.377Z" transform="translate(1.736 8.573)"/><path class="c" d="M184.391-101.968a1.11,1.11,0,0,1,.527-.084c1.436,0,4.243,1.095,7.276,3.541a10.8,10.8,0,0,1,1.373,1.34,1.663,1.663,0,0,0,1.94.43,1.664,1.664,0,0,0,.971-1.734,10.717,10.717,0,0,1-.1-1.392c0-5.251,1.6-8.063,2.15-8.245.609.181,2.21,2.993,2.21,8.245a10.682,10.682,0,0,1-.109,1.429,1.667,1.667,0,0,0,.962,1.735,1.665,1.665,0,0,0,1.939-.417,10.946,10.946,0,0,1,1.4-1.354c3.034-2.416,5.843-3.5,7.28-3.5a2.162,2.162,0,0,1,.514.056c.218.613-.992,3.6-5.078,6.852-3.147,2.509-7.4,2.781-8.628,2.8a1.6,1.6,0,0,0-.458.075,1.621,1.621,0,0,0-.461-.076c-1.231-.028-5.493-.318-8.64-2.857C185.369-98.416,184.188-101.426,184.391-101.968Z" transform="translate(0.824 0.829)"/></g></svg>