<svg xmlns="http://www.w3.org/2000/svg" width="115.634" height="90.348" viewBox="0 0 115.634 90.348">
  <g id="Group_11640" data-name="Group 11640" transform="matrix(-0.53, 0.848, -0.848, -0.53, 115.634, 60.666)">
    <path id="Path_62653" data-name="Path 62653" d="M28.655,95.5c3.608,2.873,6.028,6.242,6.314,8.791a3.589,3.589,0,0,1-.7,2.725,3.77,3.77,0,0,1-3.13,1.325c-2.249,0-5.254-1.243-8.223-3.368-.377,4.893-2.111,9.505-5.43,9.505s-5.04-4.579-5.425-9.452c-2.962,2.143-5.961,3.395-8.211,3.395a3.76,3.76,0,0,1-3.1-1.3c-2.375-2.946,1.211-8.054,5.548-11.552a17.672,17.672,0,0,1,9.54-3.528h0V84.16A13.908,13.908,0,0,1,3.653,70.277c.013-.172,1.393-17.424,3.581-34.453C11.834,0,15.388,0,17.509,0s5.674,0,10.275,35.824c2.188,17.029,3.568,34.28,3.587,34.585a13.875,13.875,0,0,1-12.2,13.751v7.878A17.632,17.632,0,0,1,28.655,95.5Z" transform="translate(0 0)" fill="#3a3939"/>
    <path id="Path_62654" data-name="Path 62654" d="M21.058,67.058c-.534-6.732-1.173-13.575-1.882-20.195H10.327a1.665,1.665,0,0,1,0-3.33h8.484c-.674-6.021-1.4-11.8-2.156-17.073H10.327a1.665,1.665,0,0,1,0-3.33h5.837C14.292,10.792,12.282,1.794,10.519,0,8.3,2.261,5.684,15.953,3.445,33.333h9.363a1.665,1.665,0,0,1,0,3.33H3.027c-.671,5.466-1.3,11.229-1.873,17.073H12.808a1.665,1.665,0,0,1,0,3.33H.839Q.517,60.521.226,63.98a1.459,1.459,0,0,1,.214-.044H14.409a1.665,1.665,0,0,1,0,3.33H.442A1.631,1.631,0,0,1,0,67.177a10.531,10.531,0,0,0,21.058-.119Z" transform="translate(6.968 2.618)" fill="#e26d1e" stroke="#3a3939" stroke-linejoin="round" stroke-width="1.169"/>
    <path id="Path_62655" data-name="Path 62655" d="M.022,9.784a1.11,1.11,0,0,0,.527.084c1.436,0,4.243-1.095,7.276-3.541A10.8,10.8,0,0,0,9.2,4.986a1.666,1.666,0,0,1,2.911,1.3,10.717,10.717,0,0,0-.1,1.392c0,5.251,1.6,8.063,2.15,8.245.609-.181,2.21-2.993,2.21-8.245a10.682,10.682,0,0,0-.109-1.429,1.665,1.665,0,0,1,2.9-1.319,10.946,10.946,0,0,0,1.4,1.354c3.034,2.416,5.843,3.5,7.28,3.5a2.162,2.162,0,0,0,.514-.056c.218-.613-.992-3.6-5.078-6.852C20.129.369,15.876.1,14.648.075A1.6,1.6,0,0,1,14.19,0a1.621,1.621,0,0,1-.461.076C12.5.1,8.237.394,5.09,2.933,1,6.232-.182,9.242.022,9.784Z" transform="translate(3.307 95.228)" fill="#6caf1e" stroke="#3a3939" stroke-linecap="round" stroke-linejoin="round" stroke-width="1.5"/>
  </g>
</svg>
