<svg xmlns="http://www.w3.org/2000/svg" width="100" height="100" viewBox="0 0 100 100"><defs><style>.a{fill:#438243;}.b{fill:#429642;}.c{fill:#77ad77;}</style></defs><title>artichoke</title><path class="a" d="M49.86,72.767c3.861,0,3.867-6,0-6s-3.867,6,0,6Z"/><path class="a" d="M43.951,50.929a8.716,8.716,0,0,0-.842,2.361,3.016,3.016,0,0,0,4.406,3.388c.262-.12.525-.237.786-.358.6-.282-.331.056.108-.015H46.814l.137.024-1.324-.772.1.092-.771-1.324q-.1-.818-.111-.343a3.167,3.167,0,0,0,1.9,2.861,9.828,9.828,0,0,0,2.356.491,3.079,3.079,0,0,0,3.691-2.1c.326-1.434-.437-3.433-2.1-3.69a11.805,11.805,0,0,1-2-.341l1.792,1.379-.06-.119.41,1.514a3.254,3.254,0,0,0-2.433-3.463c-1.451-.322-2.65.4-3.922.978l4.407,3.388c.044-.249.107-.482.164-.727.14-.6-.225.4.073-.2a3,3,0,1,0-5.18-3.028Z"/><path class="a" d="M51.8,55.91a20.083,20.083,0,0,0,5.479-.866l-3.791-2.887A4.343,4.343,0,0,1,52.218,55.4c-1.784,2.232-.2,5.8,2.914,5a22.266,22.266,0,0,0,5.188-2.051c3.453-1.859.42-6.726-3.023-5.171-1.861.841-4.3,1.45-4.733,3.75a3.035,3.035,0,0,0,3.683,3.684C60.838,59.575,64.7,56.2,67.882,52.89L62.77,50.773l0,.268a3.019,3.019,0,0,0,2.994,2.994q-.468-.138,0-.016V48.244c-6.659,2.231-14.5,3.543-20.723,6.79a2.9,2.9,0,0,0-1.483,2.586c.617,4.674,4.425,2.633,7.66,3.671l-2.2-2.888q1.065-2.268-.451-.735c-2.221,1.671-1.719,5.6,1.511,5.58l.551,0-.8-5.882c-6.1,1.916-14.671-1.342-16.746-7.734l-5,2.914c2.971,3.017,7.629,3,9.975,6.7,1.7,2.678,5.246,1.348,5.58-1.511l.389-3.324-5.58,1.512c2.445,3.467,3.2,5.406,7.353,6.644,0,0,1.711.052,1.506-.175A34.7,34.7,0,0,1,46.4,65.8a17.8,17.8,0,0,0-.288,6.931l5.775-1.592c-.71-2.8-1.513-5.563-2.417-8.309-1.021-3.1-5.957-2.713-5.881.8a26.351,26.351,0,0,0,1.157,7.354c1.123,3.676,6.906,2.109,5.775-1.592a20.537,20.537,0,0,1-.944-5.762l-5.881.8c.9,2.747,1.706,5.507,2.416,8.309.976,3.845,6.287,2.1,5.775-1.592-.573-4.138,3.758-9.676.163-13.321a5.716,5.716,0,0,0-3.367-1.472c-.571-.12-1.366.414-1.915.24-1.518-.481-2.3-2.506-3.137-3.692a3.024,3.024,0,0,0-5.58,1.511l-.389,3.324,5.58-1.512a14.1,14.1,0,0,0-4.186-4.473c-2.118-1.382-4.929-1.612-6.725-3.435-2.042-2.074-5.942.025-5,2.913,3.068,9.45,14.74,14.858,24.113,11.917,3.159-.992,2.673-5.905-.8-5.882l-.551,0L51.6,62.839c1.722-1.3,3.241-2.124,3.417-4.436a3.033,3.033,0,0,0-2.2-2.887c-1.361-.437-3.562.376-4.706-.173l1.483,2.585-.04-.308-1.483,2.585c5.687-2.966,13.194-4.143,19.292-6.186,2.667-.894,3.023-5.045,0-5.775a5.137,5.137,0,0,0-1.6-.2l2.995,2.994,0-.268a3.027,3.027,0,0,0-5.112-2.117c-2.492,2.595-5.389,5.369-8.992,6.188l3.684,3.684q-1.858,1.758-.2.816l2.186-.988L57.3,53.185a10.468,10.468,0,0,1-3.758,1.447l2.914,5.005c2.244-2.808,2.879-3.945,3.02-7.48a3.018,3.018,0,0,0-3.79-2.888,9.307,9.307,0,0,1-3.887.652c-3.846.1-3.861,6.093,0,5.989Z"/><path class="a" d="M43.237,70.1,42.9,71.659h5.786l-.2-.5c-.963-2.44-5.191-3.233-5.786,0-.3,1.614-.432,3.214-.614,4.844-.241,2.15,2.777,3.9,4.514,2.59l.226-.191-2.121-.879c2.467,2.412,5.139,1.247,6.841-1.29H46.367l-.067-.185,5.892-.8c-2.152-6.171-.87-12.06,1.7-17.876,1.546-3.5-3.622-6.556-5.181-3.028-3.212,7.267-5.005,14.759-2.305,22.5,1.048,3.007,6.128,2.779,5.893-.8a7.256,7.256,0,0,0-.752-2.844c-1.024-2.182-4.038-1.7-5.181,0l-.1.123,2.312-.3c1.142.254-1.386-.575-1.747-.622a3.99,3.99,0,0,0-3.254,1.01L48.088,76q.169-1.629.4-3.249H42.7l.2.5c.985,2.5,5.1,3.183,5.786,0l.336-1.556c.816-3.765-4.967-5.373-5.785-1.595Z"/><path class="b" d="M56.124,43.315a36.52,36.52,0,0,0-1.77,3.9C53.33,49.826,56.66,51.7,58.761,50.6l1.258-.658-4.1-4.1-1.633,2.674c-1.834,3,2.24,5.853,4.712,3.636l2.639-2.368-5.014-2.919-.324,1.98c-.527,3.222,3.6,5.381,5.483,2.312l1.664-2.709-5.59-1.514.062,1.276a3.015,3.015,0,0,0,5.893.8c.7-2.052,1.3-4.114,1.812-6.222l-5.786-1.595c-.47,3.318-1.493,6.358.709,9.166a3.01,3.01,0,0,0,4.712-.607c1.178-2.732,1.066-5.594,1.157-8.546.072-2.347.006-3.574-1.671-5.3a3.037,3.037,0,0,0-4.243,0c-.947.987-2.049,1.525-2.932,2.593-1.158,1.4-2.077,2.847-3.353,4.161A13.1,13.1,0,0,0,50.092,50.2c-.46,2.777,2.746,5.23,5.015,2.918,5.5-5.6,2.364-15.258,3.367-22.11H52.688a21.072,21.072,0,0,0,1.725,4.69,15.368,15.368,0,0,0,1.529,2.369q.678,1.373.636-.157l1.793-1.379a37.027,37.027,0,0,0-2.331-4.319,4.246,4.246,0,0,0-2.575-1.841,2.953,2.953,0,0,0-2.919.772c-2,2.369-2.979,5.684-4.158,8.536a36.5,36.5,0,0,0-2.9,9.308c-.432,3.3,4.073,3.574,5.59,1.514l4.33-5.879L47.821,43.1l-.573,5.356c-.411,3.835,5.592,3.806,6,0l.573-5.356c.353-3.294-4.049-3.607-5.591-1.514l-4.33,5.88,5.591,1.514a26.233,26.233,0,0,1,2.07-6.217c.861-2.122,1.728-5.611,3.228-7.385l-2.919.772.579.169-1.792-1.379c2.018,2.921,4.789,9.874,9.667,7.219,5.369-2.922-.956-9.28-1.85-12.753-.691-2.682-5.342-3.031-5.786,0-.481,3.283-.021,6.454-.137,9.749-.1,2.791.347,7.641-1.687,9.714l5.014,2.919c.752-4.533,5.788-8.443,8.861-11.645H60.5a9.3,9.3,0,0,0,.823.814l-.879-2.122c.105,2.121.472,5.932-.368,7.879l4.712-.607c.23.293.853-3.464.834-3.328.524-3.7-4.854-5.456-5.786-1.595-.508,2.108-1.109,4.171-1.812,6.222l5.893.8-.062-1.276a3.025,3.025,0,0,0-5.59-1.514L56.6,48.124l5.484,2.312.324-1.98c.477-2.915-2.663-5.028-5.015-2.919L54.75,47.905l4.712,3.636L61.1,48.867c1.629-2.667-1.541-5.447-4.1-4.1l-1.257.658,4.407,3.388a15.9,15.9,0,0,1,1.165-2.465c1.817-3.405-3.36-6.439-5.181-3.028Z"/><path class="b" d="M45.33,47.4l.011-.563a3.032,3.032,0,0,0-5.121-2.121A26.21,26.21,0,0,0,35.7,50.76l5.483,2.312a17.366,17.366,0,0,0,.4-4.4c-.169-3.95-5.55-3.756-6,0l-.333,1.074,5.893.8a20.522,20.522,0,0,0-.786-4.7c-.5-1.692-2.793-2.98-4.407-1.793a20.578,20.578,0,0,1-2.83,1.758l3.635.469-.855-.878c-2.033-2.874-5.978-1.051-5.483,2.312l.267,1.814c.524,3.556,5.631,2.331,5.893-.8L37.6,36.489l-.879,2.121q-1.05.529-.141.277a3.051,3.051,0,0,0,2.1-3.691l-.023-.106L33.167,37.4c1.754,2.785.017,6.845,2.6,9.377a3.049,3.049,0,0,0,3.635.469,6.676,6.676,0,0,0,1.714-1.621L36.1,44.3l.608,1.993a3.042,3.042,0,0,0,4.407,1.793c2.111-1.125,2.8-3.478,3.762-5.53L39.4,41.843c.708,2,1.245,4.554,3.721,4.944,2.393.376,4.015-1.728,5.559-3.2l-5.014-1.324.182.833c.821,3.771,6.607,2.175,5.785-1.595l-.181-.833c-.5-2.278-3.461-2.806-5.014-1.324-.076.072-2.11,1.618-.918,1.5l2.121.879a5.179,5.179,0,0,0-.456-1.471c-.775-2.193-4.3-3.246-5.483-.717-.3.653-.987,3.046-1.609,3.377L42.5,44.7l-.609-1.993c-.6-1.97-3.521-3.166-5.014-1.324l-.5.683,3.635.469c-.249-.244-.294-3.588-.391-4.313a8.813,8.813,0,0,0-1.272-3.85,3.015,3.015,0,0,0-5.484,2.312l.023.106,2.095-3.69c-2.643.5-3.266,2.153-3.488,4.611-.331,3.668-.614,7.341-.921,11.011l5.893-.8L36.2,46.111l-5.483,2.312a11.1,11.1,0,0,0,1.793,2.092,3.117,3.117,0,0,0,3.635.469,20.578,20.578,0,0,0,2.83-1.758l-4.407-1.793a12.892,12.892,0,0,1,.572,3.107,3.015,3.015,0,0,0,5.893.8,11.264,11.264,0,0,0,.547-2.669h-6a7.453,7.453,0,0,1-.186,2.808c-.662,3.188,3.778,5.444,5.483,2.312a20.586,20.586,0,0,1,3.587-4.827L39.341,46.84l-.011.563c-.077,3.862,5.923,3.862,6,0Z"/><path class="c" d="M58.128,33.419c-4.318-1.864-7.234.141-9.84,3.664L53.771,39.4l.4-2.037c.639-3.23-3.68-5.372-5.483-2.312L47.716,36.7l5.59,1.515a23.086,23.086,0,0,0-.686-4.181,3.033,3.033,0,0,0-5.014-1.324l-1.614,1.453,5.015,2.919.518-2.682c.6-3.1-3.987-5.616-5.484-2.311l-.733,1.619,5.483,2.312C52.28,31.75,53.6,26.6,50.326,22.9c-1.162-1.313-3.034-.954-4.242,0-1.378,1.087-1.581,2.129-2.3,3.672a22,22,0,0,0-1.411,2.284c-.059.762,1.75.322.964-.133a2.941,2.941,0,0,0-3.028,0,4.8,4.8,0,0,1-.566.4l3.636.469.134.976-2.2,2.893L39.85,32.317l.469-3.636a28.69,28.69,0,0,1-3.959,3.828c-1.05.782-1.99.974-2.551,2.278a3.132,3.132,0,0,0,.469,3.635l.291.286a2.964,2.964,0,0,0,2.919.771c1.7-.634,3.653-3.98,4.942-4.182l-3.69-2.1c.3,1.375-1.355,4.42-1.408,5.916a4.56,4.56,0,0,0,.616,2.865c.915,1.482,3.466,2.181,4.712.607L44.2,40.642,39.08,38.521q.041,1.818.143,3.633a3.029,3.029,0,0,0,4.514,2.59,6.862,6.862,0,0,0,3.049-3.765,25.887,25.887,0,0,0,.736-3.267c.255-1.083,1.987-3.832-.094-3.284L44.04,33.049c1.4,1.95,3.333,3.275,5.818,2.439a4.721,4.721,0,0,0,2.49-2.2,7.542,7.542,0,0,0,.267-2.924l-2.591,1.486c-1.609.21-.529,2.128-.3,3.11a3.032,3.032,0,0,0,5.484.717,10.359,10.359,0,0,0,.888-1.8q.426-1.476-.4-.228l-2.591-1.486c1.011,2.09,2.349,4.405,2.038,6.773h6l-.084-1.271c-.254-3.816-5.984-3.9-6,0l0,.63,5.59-1.514-1.035-1.7L54.9,38.713c3.432,3.4,7.9,4.951,10.5-.284l-5.484-.716a7.544,7.544,0,0,1-.092,1.868c-.415,3.833,5.588,3.8,6,0a11.8,11.8,0,0,0-.122-3.463c-.421-2.519-4.382-2.931-5.483-.717a15.866,15.866,0,0,1-1.667,1.592l2.919-.772a5.692,5.692,0,0,1-2.329-1.751c-2.391-2.368-6.51.679-4.711,3.636l1.034,1.7a3.024,3.024,0,0,0,5.591-1.514l0-.63h-6l.084,1.271c.262,3.948,5.507,3.758,6,0,.476-3.63-1.319-6.621-2.857-9.8a2.905,2.905,0,0,0-2.59-1.486c-4.047.4-4.02,1.952-5.67,5l5.483.716c-.682-2.9-1.264-7.669-5.2-7.553a3.488,3.488,0,0,0-3.042,1.758,3.377,3.377,0,0,0-.572,1.748c-.029,2.948,1.22-1.11,2.52.707a3.116,3.116,0,0,0-3.387-1.379c-1.445.38-1.945,1.3-2.6,2.5-.965,1.772-.853,7.365-2.526,8.42l4.515,2.591q-.1-1.815-.143-3.633c-.072-2.343-3.406-4.288-5.121-2.121l-1.541,1.946,4.711.607c-.368-.6,1.76-5.676,1.4-7.347a3.073,3.073,0,0,0-3.69-2.1c-2.471.387-3.026,3.466-4.943,4.182l2.919.772-.29-.285.469,3.635c-.247.574-1.094.659.048.238a6.089,6.089,0,0,0,1.759-1.3,43.282,43.282,0,0,0,3.765-3.824,3.138,3.138,0,0,0,.469-3.636c-.959-2.047-3.446-1.877-5.32-1.61a3.009,3.009,0,0,0-2.2,2.892,5.039,5.039,0,0,0,1.623,3.266,3.011,3.011,0,0,0,3.636.469,4.744,4.744,0,0,0,.565-.4H40.305c1.971,1.14,3.339,1.359,5.305.123a10.112,10.112,0,0,0,2.608-2.685C49,30.17,49.239,28,50.326,27.141H46.084c1.3,1.465-.533,5.718-1.079,7.285-1.105,3.169,4.074,5.423,5.484,2.312l.733-1.62-5.483-2.312-.518,2.682a3.026,3.026,0,0,0,5.014,2.919l1.613-1.454L46.834,35.63l.472,2.586c.254,2.838,3.984,4.241,5.591,1.514l.975-1.656-5.483-2.311-.4,2.037a3.015,3.015,0,0,0,5.483,2.311A2.593,2.593,0,0,1,55.1,38.6c3.508,1.515,6.567-3.653,3.028-5.181Z"/><path class="c" d="M34.506,36.739c-.285,1.679-1.234,2.205-2.393,3.472a8.039,8.039,0,0,0-2.278,5.749c.056,3.858,6.056,3.869,6,0-.018-1.309.684-1.644,1.729-2.7a9.2,9.2,0,0,0,2.728-4.929,3.09,3.09,0,0,0-2.1-3.691,3.024,3.024,0,0,0-3.69,2.1Z"/><path class="c" d="M30.44,38.106a12.118,12.118,0,0,0-.178,2.741c.185,2.461,3.218,4.125,5.122,2.121a12.045,12.045,0,0,0,1.379-1.762l-5.59-1.515.025,2.27c.032,2.837,4.211,4.265,5.591,1.514l1.747-3.484-5.59-1.514a11.844,11.844,0,0,1-.142,2.078c-.445,2.836,2.689,5.143,5.014,2.919a9.1,9.1,0,0,0,2.3-3.7l-5.893-.8a2.449,2.449,0,0,1-.052.8,3.031,3.031,0,0,0,1.737,3.539,2.972,2.972,0,0,0,3.746-1.227l.632-1.4a3,3,0,0,0-5.18-3.028c-1.028,1.371-2.447,2.419-3.517,3.763a9.618,9.618,0,0,0-2.213,5.557c-.249,3.855,5.752,3.84,6,0,.077-1.189,1.116-2.131,1.9-2.922a32.434,32.434,0,0,0,3.013-3.37l-5.18-3.028-.633,1.4,5.484,2.312a13.549,13.549,0,0,0,.266-2.392c.037-3.517-4.8-3.895-5.893-.8a2.537,2.537,0,0,1-.762,1.052l5.014,2.919a21.189,21.189,0,0,0,.357-3.673c-.05-2.828-4.2-4.277-5.59-1.515l-1.748,3.485,5.59,1.514-.025-2.27a3.025,3.025,0,0,0-5.59-1.514,1.339,1.339,0,0,1-.442.549l5.121,2.121a5.778,5.778,0,0,1-.036-1.146,3.1,3.1,0,0,0-2.1-3.691c-1.414-.388-3.45.483-3.69,2.1Z"/><path class="c" d="M41.3,39.75a12.635,12.635,0,0,0,.547,2.947,3.041,3.041,0,0,0,5.484.717L48.219,42l-5.59-1.515a39.316,39.316,0,0,1,.229,5.832c-.1,2.905,4.244,4.18,5.59,1.514,1.2-2.376,1.318-4.984,2.307-7.417H44.97a19.247,19.247,0,0,1,.2,3.89c-.123,3.37,5.092,4.091,5.893.8l.835-3.439L46,40.869q.021,2.432-.122,4.856c-.206,3.495,4.892,3.907,5.893.8L53.034,42.6H47.249l.068.361c-.057,2.895,4.22,4.193,5.59,1.514l.7-1.361L48.12,42.4c.209.75-.407,1.532-.725,2.177A21.682,21.682,0,0,0,46.332,47.3l1.378-1.793-.141.1H50.6l-.232-.169,1.076,1.077-1.875-2.761c-.822-1.21-2.75-2.119-4.1-1.076A5.289,5.289,0,0,0,43.238,48.5c.939,3.743,6.727,2.157,5.786-1.595l-.533.954-4.1-1.076a14.942,14.942,0,0,0,3.183,4.006,2.9,2.9,0,0,0,3.029,0c1.418-1.032,1.755-2.664,2.488-4.186a7.961,7.961,0,0,0,.82-5.8c-.661-2.38-4.281-3.066-5.483-.716l-.7,1.361,5.591,1.514a5.5,5.5,0,0,0-.283-1.956,3.027,3.027,0,0,0-5.785,0l-1.262,3.921,5.893.8q.142-2.428.122-4.856c-.028-3.323-5.078-4.152-5.893-.8l-.835,3.439,5.893.8a27.043,27.043,0,0,0-.412-5.485,3.014,3.014,0,0,0-2.892-2.2,3.143,3.143,0,0,0-2.893,2.2c-.781,1.919-.772,4.14-1.7,5.984l5.591,1.514a39.311,39.311,0,0,0-.229-5.832c-.326-2.857-3.895-4.207-5.591-1.514l-.888,1.411,5.483.717A5.876,5.876,0,0,1,47.3,39.75c-.322-3.82-6.325-3.854-6,0Z"/><path class="c" d="M54.4,35.683c-.9,1.6-3.137,5.241-.8,6.572,1.342.766,2.32-.591,2.984-1.541a26.169,26.169,0,0,0,1.809-3.03c.879-1.715-1.708-3.234-2.59-1.514a15.673,15.673,0,0,1-2.3,3.673l.662-.386-.2.057,1.156.151-.179-.13.538.538-.1-.231.205.758a3.991,3.991,0,0,1,.506-1.594,18.658,18.658,0,0,1,.911-1.809c.946-1.686-1.644-3.2-2.59-1.514Z"/><path class="c" d="M59.645,40.549l.228-.538,1.156-.151-.647-.189a1.519,1.519,0,0,0-2.2.9c-.309,1.16-.293,2.5.931,3.073A2.155,2.155,0,0,0,61.882,42.5l-2.356.3c.5.579.5,2.925.62,3.654.17,1.051,1.419,1.246,2.2.9l.317-.141-2.257-1.3c.051.643.076,1.271.078,1.915a1.508,1.508,0,0,0,2.947.4c.924-2.4.533-5.331,1.034-7.858l-2.507.662c.251.286-.051,2.128-.07,2.451q-.088,1.581-.3,3.152c-.215,1.6,1.771,2.707,2.742,1.156,1.167-1.862.958-3.936,1.416-6H62.858c.381,1.982-.05,4.779-1.655,6.1-1.492,1.228.641,3.34,2.121,2.121,2.461-2.026,3-6.045,2.427-9.018a1.511,1.511,0,0,0-2.893,0c-.384,1.733-.148,3.744-1.113,5.285l2.741,1.156c.332-2.461,1.394-6.474-.4-8.523a1.509,1.509,0,0,0-2.507.662,35.491,35.491,0,0,0-.565,3.894,14.044,14.044,0,0,1-.469,3.965l2.946.4c0-.644-.027-1.272-.078-1.915a1.524,1.524,0,0,0-2.257-1.295l-.317.142,2.2.9c-.271-1.667-.239-3.651-1.392-4.977a1.513,1.513,0,0,0-2.356.3l.177-.083,1.156.151-.28-.137.689.9.038-.445-2.2.9c1.547.815,3.936.537,3.777-1.712-.136-1.915-3.137-1.93-3,0Z"/><path class="c" d="M42.184,45.5a12.631,12.631,0,0,0,1.5,2.132,3.021,3.021,0,0,0,2.122.879,3.052,3.052,0,0,0,2.121-.879,3.017,3.017,0,0,0,.879-2.121l-.107-.8a3.006,3.006,0,0,0-.772-1.324q-.14-.166-.272-.337l.469.607a9.153,9.153,0,0,1-.759-1.187,3,3,0,0,0-5.18,3.028Z"/><path class="c" d="M47.293,50.743a1.467,1.467,0,0,1,.2.191l-.469-.607a1.411,1.411,0,0,1,.169.279l-.3-.717a1.443,1.443,0,0,1,.09.314l-.108-.8a.988.988,0,0,1,.011.108,2.893,2.893,0,0,0,1.844,2.742,2.253,2.253,0,0,0,1.156.258A3.027,3.027,0,0,0,52,51.636a2.971,2.971,0,0,0,.879-2.122,4.585,4.585,0,0,0-.533-1.986,3.268,3.268,0,0,0-.81-1.027,3.334,3.334,0,0,0-2.121-.879,3.333,3.333,0,0,0-2.122.879,3.014,3.014,0,0,0-.878,2.121l.107.8a2.984,2.984,0,0,0,.771,1.324Z"/><path class="c" d="M49.078,43.939c.081.086.155.173.227.266l-.469-.607a3.226,3.226,0,0,1,.341.61l-.3-.717a3.285,3.285,0,0,1,.178.676l-.108-.8c.01.077.017.155.02.233a3.179,3.179,0,0,0,.879,2.121,3,3,0,0,0,4.242,0,2.983,2.983,0,0,0,.879-2.121A6.1,6.1,0,0,0,53.321,39.7a3.024,3.024,0,0,0-4.243,0,3.065,3.065,0,0,0,0,4.243Z"/><path class="c" d="M54.986,41.954a13.21,13.21,0,0,0-1.022-2.462,3.025,3.025,0,0,0-4.1-1.076,3.065,3.065,0,0,0-1.077,4.1c.14.26.267.524.383.795l-.3-.716a9.912,9.912,0,0,1,.336.95,3.134,3.134,0,0,0,1.379,1.793,3,3,0,0,0,4.407-3.388Z"/><path class="b" d="M42.038,55.163c.47-.726.954-1.442,1.46-2.143.575-.8.742-1.007,1.31-1.7a3.073,3.073,0,0,0,0-4.243c-1.1-1.007-3.185-1.3-4.243,0a57.339,57.339,0,0,0-3.707,5.062,3.023,3.023,0,0,0,1.076,4.1,3.065,3.065,0,0,0,4.1-1.076Z"/><path class="b" d="M36.826,44.719a23.651,23.651,0,0,0,.316,3.037,3,3,0,0,0,1.378,1.793,3.067,3.067,0,0,0,2.312.3,3.036,3.036,0,0,0,1.793-1.379,3.452,3.452,0,0,0,.3-2.311c-.027-.171-.052-.342-.075-.514l.107.8q-.108-.859-.133-1.725a3,3,0,0,0-6,0Z"/><path class="a" d="M50.646,53.733A3.582,3.582,0,0,0,51.1,52.1a4.531,4.531,0,0,0-.11-.993l-.3-.717a2.259,2.259,0,0,0-.773-.841,1.49,1.49,0,0,0-.662-.386A2.249,2.249,0,0,0,48.1,48.9a3.457,3.457,0,0,0-1.721.488,3.337,3.337,0,0,0-1.212,1.27,3.9,3.9,0,0,0-.462,1.771c-.005.164.008.326-.008.489l.107-.8-.015.08a2.274,2.274,0,0,0-.054,1.2,2.242,2.242,0,0,0,.356,1.115,3,3,0,0,0,4.1,1.077A2.959,2.959,0,0,0,50.574,53.8a5.948,5.948,0,0,0,.132-1.08c0-.123-.005-.244,0-.367l-.107.8a.951.951,0,0,1,.047-.176l-.3.716a.605.605,0,0,1,.058-.106l-.469.607a.43.43,0,0,1,.078-.087l-.607.469a.322.322,0,0,1,.1-.059l-.717.3.054-.016-.8.107.058,0-2.893-2.2.01.065-.107-.8a.436.436,0,0,1-.008.13l.107-.8-.018.063.3-.717-.028.06a2.249,2.249,0,0,0-.356,1.116,2.275,2.275,0,0,0,.054,1.2,3.062,3.062,0,0,0,1.379,1.793,3.025,3.025,0,0,0,2.311.3,2.919,2.919,0,0,0,1.793-1.378Z"/><path class="a" d="M60.22,60.491A20.919,20.919,0,0,1,64.4,56.424a3.082,3.082,0,0,0,1.076-4.1,3.025,3.025,0,0,0-4.1-1.076,27.585,27.585,0,0,0-6.336,6.22c-.966,1.3-.215,3.349,1.076,4.1a3.071,3.071,0,0,0,4.1-1.077Z"/><path class="b" d="M44.36,36.739l-.206.978a2.274,2.274,0,0,0-.054,1.2,2.232,2.232,0,0,0,.356,1.115,3.358,3.358,0,0,0,1.793,1.379,3.039,3.039,0,0,0,2.312-.3,2.992,2.992,0,0,0,1.378-1.793l.206-.978a2.279,2.279,0,0,0,.054-1.2,2.232,2.232,0,0,0-.356-1.115,3.358,3.358,0,0,0-1.793-1.379,3.035,3.035,0,0,0-2.312.3,2.992,2.992,0,0,0-1.378,1.793Z"/><path class="b" d="M46.686,41.978c3.861,0,3.867-6,0-6s-3.867,6,0,6Z"/><path class="b" d="M44.273,38.01a7.163,7.163,0,0,0-2.115,3.856,3.04,3.04,0,0,0,4.407,3.388l.4-.219-4.407-1.793c.388,1.765.581,3.276,1.748,4.7l-.879-2.121.039.574c.212,3.119,3.817,3.886,5.591,1.514l.769-1.029H44.644a3.172,3.172,0,0,0,2.07,1.553l-1.792-1.379c.475.71.855-1.156.218-.357a3.216,3.216,0,0,0-.62,1.44,3.005,3.005,0,0,0,.772,2.919c3.047,2.475,5.842.177,6.628-3.109a14.778,14.778,0,0,0,.11-5.727c-.3-1.93-1.222-3.936-1.369-5.849l-3,3a12.2,12.2,0,0,0,1.25-.191l-3.69-2.095.056.186a3.048,3.048,0,0,0,3.691,2.095l.035-.01-3.388-1.379a17.808,17.808,0,0,1,2.1,7.54c.087,3.855,6.088,3.869,6,0A24.915,24.915,0,0,0,50.8,34.947a3.024,3.024,0,0,0-3.388-1.379l-.035.011,3.69,2.095-.056-.186a3.072,3.072,0,0,0-3.691-2.1l.345-.023c-1.513.17-3.135,1.239-3,3a35.231,35.231,0,0,0,1.134,5.15c.233,1.007,1.162,4.575.194,5.481l2.122-.879-.4.051,2.121.879-.3-.239.772,2.918q-.729,1.086.136-.088a4.273,4.273,0,0,0,.568-1.151,5.164,5.164,0,0,0-.12-2.369c-.336-1.648-1.073-3.055-2.8-3.539l1.793,1.379-.056-.113c-1.105-2.221-3.95-1.646-5.181,0l-.769,1.03,5.59,1.514A7.46,7.46,0,0,0,48.782,44c-.184-.488-.25-1.492-.439-2.354a3.031,3.031,0,0,0-4.407-1.793l-.4.219,4.407,3.388a1.293,1.293,0,0,1,.572-1.208c2.742-2.726-1.5-6.969-4.243-4.243Z"/><path class="a" d="M50.386,52.369a.435.435,0,0,1,0-.1l-.107.8a.488.488,0,0,1,.025-.1l-.3.717a.468.468,0,0,1,.05-.09l-.469.607a.587.587,0,0,1,.041-.046,3.342,3.342,0,0,0,.879-2.121,3.342,3.342,0,0,0-.879-2.121l-.607-.469a2.985,2.985,0,0,0-1.514-.41l-.8.107a3.006,3.006,0,0,0-1.324.772c-.015.015-.027.03-.041.046l-.469.607-.012.017a3.75,3.75,0,0,0-.344.8,2.67,2.67,0,0,0-.075.489,2,2,0,0,0-.052.5,2.9,2.9,0,0,0,1.844,2.742,2.255,2.255,0,0,0,1.156.258l.8-.107a3.005,3.005,0,0,0,1.323-.771l.469-.608a2.982,2.982,0,0,0,.41-1.514Z"/><path class="a" d="M49.689,69.881h-.063a3.348,3.348,0,0,0-2.121.879,3.342,3.342,0,0,0-.879,2.121l.108.8A3,3,0,0,0,47.505,75l.607.469a2.984,2.984,0,0,0,1.514.409h.063a2.893,2.893,0,0,0,2.741-1.844,2.263,2.263,0,0,0,.259-1.156l-.107-.8a3,3,0,0,0-.772-1.324l-.607-.469a2.985,2.985,0,0,0-1.514-.41Z"/><path class="a" d="M51.56,57.9H51.5a2.266,2.266,0,0,0-1.156.259,2.7,2.7,0,0,0-1.586,1.585A2.265,2.265,0,0,0,48.5,60.9l.107.8a3,3,0,0,0,.772,1.323l.607.47A2.994,2.994,0,0,0,51.5,63.9h.062A2.9,2.9,0,0,0,54.3,62.059,2.255,2.255,0,0,0,54.56,60.9l-.107-.8a2.984,2.984,0,0,0-.771-1.324l-.607-.469a2.985,2.985,0,0,0-1.515-.41Z"/><path class="b" d="M54.243,53.173c3.861,0,3.867-6,0-6s-3.867,6,0,6Z"/><path class="b" d="M55.366,49.367c3.861,0,3.867-6,0-6s-3.867,6,0,6Z"/><path class="b" d="M55.8,54.667a1.5,1.5,0,0,0,0-3,1.5,1.5,0,0,0,0,3Z"/><path class="b" d="M57.612,54.67c3.861,0,3.867-6,0-6s-3.867,6,0,6Z"/><path class="b" d="M35.964,52.112c3.861,0,3.867-6,0-6s-3.867,6,0,6Z"/><path class="b" d="M40.4,46.991v-.062a3.347,3.347,0,0,0-.879-2.122,3.334,3.334,0,0,0-2.121-.878l-.8.107a3,3,0,0,0-1.323.771l-.47.608a2.988,2.988,0,0,0-.409,1.514v.062a3.328,3.328,0,0,0,.879,2.121,3.328,3.328,0,0,0,2.121.879l.8-.107a3,3,0,0,0,1.324-.772l.469-.607a2.982,2.982,0,0,0,.41-1.514Z"/><path class="b" d="M51.4,49.264c-1.158,1.262-.623,2.643.575,3.621a4.662,4.662,0,0,1,1.833,4.349c-.145,1.439,2.214,2.107,2.8.757a10.808,10.808,0,0,1,1.886-3.011c1.286-1.433-.828-3.562-2.121-2.122a13.209,13.209,0,0,0-2.356,3.619l2.8.757a7.479,7.479,0,0,0-.8-4.176A7.248,7.248,0,0,0,54.824,51.4a7.63,7.63,0,0,0-.773-.688l-.3-.234q-.6-.6-.222.906c1.3-1.42-.813-3.547-2.122-2.121Z"/><path class="b" d="M54.992,59.783h.062a1.541,1.541,0,0,0,1.5-1.5l-.054-.4a1.494,1.494,0,0,0-.385-.662l-.3-.234a1.491,1.491,0,0,0-.757-.2h-.062a1.541,1.541,0,0,0-1.5,1.5l.053.4a1.5,1.5,0,0,0,.386.662l.3.234a1.491,1.491,0,0,0,.757.2Z"/><path class="c" d="M63.375,50.913a3.821,3.821,0,0,0,1.589-2.058,1.513,1.513,0,0,0-1.048-1.845,1.535,1.535,0,0,0-1.845,1.048c-.023.068-.047.134-.075.2l.151-.359a2.415,2.415,0,0,1-.25.432l.235-.3a2.4,2.4,0,0,1-.4.406l.3-.234c-.057.043-.115.083-.176.122a1.5,1.5,0,1,0,1.515,2.59Z"/><path class="c" d="M63.2,37.262a1.5,1.5,0,0,0,0-3,1.5,1.5,0,0,0,0,3Z"/><path class="c" d="M63.636,36.039a1.5,1.5,0,0,0,0-3,1.5,1.5,0,0,0,0,3Z"/><path class="c" d="M42.6,33.1c-.034.76-.092.489-.009.225.1-.322-.346.6-.052.181.165-.236.314-.5.466-.741A6.065,6.065,0,0,0,43.886,30a3.007,3.007,0,0,0-2.2-2.893l.392.163a3.019,3.019,0,0,0-4.105,1.076,3.074,3.074,0,0,0,1.077,4.105,3.148,3.148,0,0,0,1.041.442L37.886,30q.132-.732.039-.385-.069.225.065-.122c.221-.472-.017,0-.076.1-.146.253-.316.492-.467.741A5.682,5.682,0,0,0,36.6,33.1a3.022,3.022,0,0,0,3,3,3.066,3.066,0,0,0,3-3Z"/><path class="c" d="M33.808,39.83a2.221,2.221,0,0,0,.843.111,3.1,3.1,0,0,0,1.546-.42,2.845,2.845,0,0,0,.639-.494,3.092,3.092,0,0,0,.79-1.359,2.274,2.274,0,0,0,.054-1.2,2.232,2.232,0,0,0-.356-1.115,3.358,3.358,0,0,0-1.793-1.379l-.8-.107a2.994,2.994,0,0,0-1.515.409l-.607.47a2.986,2.986,0,0,0-.771,1.323l-.005.013.3-.717-.01.017.469-.607a.107.107,0,0,1-.018.019l.607-.469-.023.014.717-.3a.129.129,0,0,1-.026.008l.8-.107h-.026l.8.107-.02-.005a2.264,2.264,0,0,0-1.2-.053,2.229,2.229,0,0,0-1.116.356,3.353,3.353,0,0,0-1.378,1.793l-.107.8a2.981,2.981,0,0,0,.409,1.514l.469.607a3.006,3.006,0,0,0,1.324.772Z"/><path class="c" d="M43.74,36.1h.066a2.273,2.273,0,0,0,1.156-.258,2.7,2.7,0,0,0,1.586-1.586,2.255,2.255,0,0,0,.258-1.156l-.107-.8a3,3,0,0,0-.771-1.323l-.608-.47a2.988,2.988,0,0,0-1.514-.409H43.74a3.328,3.328,0,0,0-2.121.879,2.24,2.24,0,0,0-.621.965A2.275,2.275,0,0,0,40.74,33.1l.107.8a3,3,0,0,0,.772,1.324l.607.469a2.985,2.985,0,0,0,1.514.41Z"/><path class="c" d="M32.114,33.629l-.175,2.12a1.508,1.508,0,0,0,1.5,1.5,1.538,1.538,0,0,0,1.5-1.5l.175-2.12a1.506,1.506,0,0,0-1.5-1.5,1.539,1.539,0,0,0-1.5,1.5Z"/><path class="b" d="M48.642,35.762a1.5,1.5,0,0,0,0-3,1.5,1.5,0,0,0,0,3Z"/><path class="a" d="M30.459,52.427a1.947,1.947,0,0,1,.432.3c-.1-.124-.173-.14-.015,0,.066.057.132.115.194.176s.1.1.146.149c.232.228-.1-.178-.008-.025.044.071.088.147.137.215.169.236-.091-.281.014.017a1.5,1.5,0,1,0,2.893-.8,5.3,5.3,0,0,0-2.278-2.621,1.513,1.513,0,0,0-2.053.538,1.536,1.536,0,0,0,.538,2.053Z"/><path class="a" d="M57.717,60.875l.815-.833a1.554,1.554,0,0,0,.439-1.061,1.528,1.528,0,0,0-.439-1.061,1.51,1.51,0,0,0-1.061-.439,1.549,1.549,0,0,0-1.06.439l-.815.834a1.551,1.551,0,0,0-.439,1.06,1.526,1.526,0,0,0,.439,1.061,1.51,1.51,0,0,0,1.061.439,1.549,1.549,0,0,0,1.06-.439Z"/><path class="a" d="M56.062,62.33a1.5,1.5,0,0,0,0-3,1.5,1.5,0,0,0,0,3Z"/><path class="b" d="M41.174,46.122v.027a2.266,2.266,0,0,0,.259,1.156,2.7,2.7,0,0,0,1.585,1.586,2.265,2.265,0,0,0,1.156.258l.8-.107A3.006,3.006,0,0,0,46.3,48.27l.469-.607a2.984,2.984,0,0,0,.409-1.514v-.027A3.339,3.339,0,0,0,46.3,44a3.339,3.339,0,0,0-2.122-.878l-.8.107A2.989,2.989,0,0,0,42.053,44l-.469.607a2.985,2.985,0,0,0-.41,1.515Z"/><path d="M27.264,47.311c-.876,3.64.864,7.725,3.151,10.5a20.544,20.544,0,0,0,10.473,6.674,26.53,26.53,0,0,0,13.326.213,26.559,26.559,0,0,0,10.967-6.18c3.236-2.885,5.193-6.192,5.126-10.635-.008-.519-.291-1.37-.937-1.354-.678.017-.847.891-.87,1.4-.148,3.2-1.931,5.594-4.214,7.68a28.288,28.288,0,0,1-9,5.64c-7.332,2.821-16.547,1.466-22.389-3.886a14.366,14.366,0,0,1-3.4-4.543,21.476,21.476,0,0,1-1.381-5.531c-.114-.659-.717-.543-.853.021Z"/><path d="M47.779,49.223a3.66,3.66,0,0,0,1.079,1.248,14.043,14.043,0,0,1,1.279,1.359A16.516,16.516,0,0,1,52.1,54.764a17.616,17.616,0,0,1,1.694,6.6c.042.448.223,1.155.8,1.152s.715-.767.74-1.19a14.577,14.577,0,0,0-2.138-7.78,14.816,14.816,0,0,0-2.317-3.074,14.372,14.372,0,0,0-1.392-1.242c-.4-.312-1.007-.867-1.541-.7-.255.078-.233.513-.167.693Z"/><path d="M32.639,50.929A32.375,32.375,0,0,1,36,45.062,9.732,9.732,0,0,1,40.854,41.7c.851-.255.591-2.317-.423-2.052A10.135,10.135,0,0,0,35.2,43.506a24.477,24.477,0,0,0-3.273,6.624A.887.887,0,0,0,32.06,51a.343.343,0,0,0,.579-.067Z"/><path d="M39.731,41.094A20.847,20.847,0,0,1,42.7,45.336,27.8,27.8,0,0,1,44.234,50.2c.1.393.417.972.918.755s.528-.927.476-1.381a15.134,15.134,0,0,0-1.878-5.437A11.438,11.438,0,0,0,40.252,40c-.608-.392-.82.73-.521,1.094Z"/><path d="M50.88,51.5c.4-.875.693-1.8,1.074-2.692a15.782,15.782,0,0,1,1.532-2.8,16.037,16.037,0,0,1,4.438-4.373,1.176,1.176,0,0,0,.433-1.254c-.078-.373-.384-.867-.834-.686a11.418,11.418,0,0,0-5.192,4.777c-1.206,1.99-2.367,4.547-2,6.929.055.355.4.417.548.095Z"/><path d="M57.15,40.511a17.417,17.417,0,0,1,1.166,2.555c.364.923.769,1.826,1.095,2.764a19.027,19.027,0,0,1,1.125,5.319c.019.41.217,1.054.728,1.052.5,0,.7-.7.676-1.087a18.538,18.538,0,0,0-1.5-6,22.974,22.974,0,0,0-1.318-2.772c-.491-.842-1.077-1.624-1.575-2.463-.107-.18-.3-.13-.408.01a.6.6,0,0,0,.016.622Z"/><path d="M58.6,41.68a35.763,35.763,0,0,1,2.546-4.685c1.057-1.549,2.489-2.775,3.585-4.282a1.425,1.425,0,0,0,.076-1.262c-.112-.266-.454-.657-.783-.459a9.4,9.4,0,0,0-2.237,2.055A22.46,22.46,0,0,0,60.044,35.4a14.9,14.9,0,0,0-2.18,5.658.834.834,0,0,0,.217.74.341.341,0,0,0,.522-.116Z"/><path d="M63.651,31.874a16.421,16.421,0,0,0,.832,2.377c.253.708.474,1.423.672,2.148a21.677,21.677,0,0,1,.781,4.2,17.5,17.5,0,0,1-.21,4.209,18.6,18.6,0,0,1-.492,2.1,4.315,4.315,0,0,0-.344,2.431c.109.382.315.733.761.626.747-.178.928-1.325,1.1-1.96a22.923,22.923,0,0,0,.551-2.576,20.436,20.436,0,0,0,.139-5.009,22.822,22.822,0,0,0-.968-4.733,25.214,25.214,0,0,0-.929-2.421,7.856,7.856,0,0,0-1.208-2.228c-.459-.505-.741.554-.686.844Z"/><path d="M38.807,40.686a11.476,11.476,0,0,0-1.41-5.252,12.629,12.629,0,0,0-3.32-4.233c-.406-.32-.827,0-.977.418a1.472,1.472,0,0,0,.3,1.5A20.809,20.809,0,0,1,36.209,36.9a13.446,13.446,0,0,1,.9,1.986c.268.731.562,1.451.828,2.182a.439.439,0,0,0,.54.317c.255-.1.329-.46.329-.7Z"/><path d="M32.98,31.7c-.386.567-.9,1.01-1.277,1.589a12.91,12.91,0,0,0-.967,1.855,19.385,19.385,0,0,0-1.252,4.3,26.186,26.186,0,0,0-.4,4.5,13.837,13.837,0,0,0,.468,4.76c.319.863,1.284.514,1.347-.3.1-1.352-.156-2.73-.163-4.09a26.923,26.923,0,0,1,1.188-8c.191-.636.416-1.262.638-1.888a11.053,11.053,0,0,1,.831-2.129c.182-.3-.115-1.023-.409-.591Z"/><path d="M41.905,42.8c.051-.123.227-.3.3-.446.109-.216.218-.43.331-.644.223-.422.42-.857.65-1.276A22.725,22.725,0,0,1,44.8,37.905a29.193,29.193,0,0,1,4.253-4.32,1.241,1.241,0,0,0,.233-1.23c-.09-.279-.4-.769-.773-.549a16.438,16.438,0,0,0-4.672,4.585,17.927,17.927,0,0,0-1.63,2.743,12.3,12.3,0,0,0-.639,1.49c-.09.277-.17.558-.244.839-.065.244-.053.566-.1.757a.775.775,0,0,0,.159.8c.23.173.433,0,.525-.225Z"/><path d="M48.55,32.125A27.561,27.561,0,0,1,51.67,37.9a26.939,26.939,0,0,1,1.079,3.088c.282,1.03.475,2.068.8,3.087a.551.551,0,0,0,.683.4.923.923,0,0,0,.416-.886A18.015,18.015,0,0,0,52.412,37.2a26.709,26.709,0,0,0-3.587-5.521c-.249-.287-.424.237-.275.442Z"/><path d="M51.035,34.907c.267-.692.574-1.386.893-2.056a11.411,11.411,0,0,1,1.1-1.822,20.923,20.923,0,0,1,3.15-3.238,1.147,1.147,0,0,0,.216-1.14c-.093-.287-.356-.676-.716-.508a9.056,9.056,0,0,0-3.665,3.419,13.89,13.89,0,0,0-1.179,2.291,8.45,8.45,0,0,0-.586,2.576.766.766,0,0,0,.263.754c.238.135.436-.055.522-.276Z"/><path d="M55.6,26.662c.97,1.482,1.922,2.982,2.809,4.516A10.1,10.1,0,0,1,60,35.468c.025.436.232,1.152.788,1.138.571-.014.709-.748.731-1.175a8.975,8.975,0,0,0-1.962-5.406A16.892,16.892,0,0,0,55.864,26.1c-.312-.235-.382.382-.266.559Z"/><path d="M35.531,34.555c.165-.358.4-.635.587-.972.175-.306.355-.611.526-.919a22.4,22.4,0,0,1,1.217-2.023c.434-.62.852-1.245,1.346-1.82.544-.633,1.09-1.26,1.62-1.9a1.192,1.192,0,0,0,.216-1.14c-.078-.242-.383-.732-.716-.508A11.007,11.007,0,0,0,36.9,29.257a16.429,16.429,0,0,0-1.1,2.467,10.254,10.254,0,0,0-.33,1.316c-.084.456-.084.934-.139,1.4-.016.13.114.3.2.119Z"/><path d="M39.889,26.09a2.881,2.881,0,0,1,.413.515,6.457,6.457,0,0,0,.492.457c.312.3.618.6.917.913.561.585,1.132,1.168,1.645,1.8a13.724,13.724,0,0,1,1.365,2c.382.688.645,1.451,1.062,2.128a.486.486,0,0,0,.753.129,1.216,1.216,0,0,0,.258-1.071,6.191,6.191,0,0,0-1.11-2.541,12.769,12.769,0,0,0-1.615-1.89,12.265,12.265,0,0,0-1.886-1.547q-.513-.332-1.043-.638c-.16-.093-.321-.183-.482-.273-.225-.125-.461-.094-.678-.231-.137-.086-.185.183-.091.255Z"/><path d="M42.562,28.464a1.512,1.512,0,0,1,.317-.456,3.032,3.032,0,0,0,.334-.327c.223-.26.452-.511.668-.777a16.482,16.482,0,0,1,1.481-1.589,28.133,28.133,0,0,1,3.407-2.751c.316-.218.317-.827.216-1.14-.084-.258-.373-.714-.716-.509a13.154,13.154,0,0,0-3.521,3.146,19.225,19.225,0,0,0-1.359,1.927,8.484,8.484,0,0,0-.524,1.022c-.179.4-.265.831-.458,1.23-.055.113.06.4.155.224Z"/><path d="M47.9,21.55c.635.574,1.253,1.177,1.852,1.788a16.449,16.449,0,0,1,1.673,1.915,10.125,10.125,0,0,1,1.129,2.033,5.755,5.755,0,0,1,.316.957,2.443,2.443,0,0,0,.6,1.437c.387.335.747-.039.909-.389a2.418,2.418,0,0,0-.042-1.706A8.805,8.805,0,0,0,53.8,26.2a9.463,9.463,0,0,0-1.566-2.253,9.917,9.917,0,0,0-1.92-1.645A13.394,13.394,0,0,0,48,21.146c-.2-.082-.2.314-.1.4Z"/><path d="M43.476,65.093c0-.013,0-.027,0-.04s0-.013,0-.019c0,.038,0,.021,0,.008l0-.034c0-.014.012-.032,0,.011L43.482,65l.012-.032.006-.016c-.019.048-.012.026-.006.014a.489.489,0,0,1,.041-.06l-.027.034a.361.361,0,0,0,.051-.072c.008-.018.015-.034.022-.052l.006-.014c.011-.026-.018.036-.008.017l.017-.032a.661.661,0,0,1,.037-.055c.01-.014-.022.025-.005.007l.01-.012.028-.029a.205.205,0,0,0,.039-.2c-.018-.057-.061-.111-.127-.09a.5.5,0,0,0-.156.087.638.638,0,0,0-.053.051.389.389,0,0,0-.08.193.661.661,0,0,0,.045.416c.016.03.048.072.088.051a.121.121,0,0,0,.054-.114Z"/><path d="M43.909,64.2c-.728.834-.733,2.155-.873,3.2q-.243,1.816-.441,3.637c-.132,1.219-.294,2.439-.374,3.662-.077,1.17-.388,2.716.119,3.818.1.218.4.491.624.232.7-.792.717-2.15.854-3.152.161-1.173.251-2.354.361-3.532.213-2.308.342-4.624.568-6.927.033-.345-.32-1.527-.838-.934Z"/><path d="M42.282,78.015A2.537,2.537,0,0,0,43.551,79.8a7.168,7.168,0,0,0,2.389.609,12.74,12.74,0,0,0,5.106-.1,4.166,4.166,0,0,0,1.987-1.01,1.951,1.951,0,0,0,.546-1.4c-.028-.664-.477-1.208-1.194-1a5.379,5.379,0,0,0-.929.506,6.494,6.494,0,0,1-1.088.442,8.587,8.587,0,0,1-2.387.325c-.989.017-1.969-.1-2.956-.13a4.027,4.027,0,0,1-1.25-.179,2.356,2.356,0,0,1-.985-.479c-.347-.357-.557.4-.508.625Z"/><path d="M52.574,63.526c-.016.663-.225,1.284-.279,1.943-.047.565-.1,1.13-.151,1.7-.1,1.235-.143,2.477-.219,3.713s-.125,2.466-.168,3.7a12.353,12.353,0,0,0,.026,3.659c.2.681.965,1.112,1.271.221A12.966,12.966,0,0,0,53.3,74.79c.038-1.274.085-2.546.1-3.82s.048-2.557-.01-3.832c-.025-.576-.052-1.155-.094-1.73-.047-.643-.245-1.248-.272-1.893-.018-.416-.432-.4-.442.011Z"/><path d="M48.105,48.872a7.215,7.215,0,0,0-3.427,1.186,12.532,12.532,0,0,0-2.827,3.007,16.074,16.074,0,0,0-1.905,3.868,20.833,20.833,0,0,0-.612,2.137,4.043,4.043,0,0,0-.138,2.438c.156.358.571.694.93.346.494-.479.465-1.332.6-1.974A15.859,15.859,0,0,1,41.2,58.1a18.88,18.88,0,0,1,1.592-3.541,12.428,12.428,0,0,1,2.343-3,11.12,11.12,0,0,1,3.027-2.2c.161-.07.156-.511-.055-.488Z"/><path d="M27.512,47.774a15.528,15.528,0,0,0,3.295,2.561c1.175.819,2.358,1.645,3.465,2.555a17.827,17.827,0,0,1,4.783,5.719c.213.435.656.8,1.1.41a1.572,1.572,0,0,0,.245-1.67,17.427,17.427,0,0,0-5.173-6.312,25.035,25.035,0,0,0-3.581-2.353,10.206,10.206,0,0,0-3.964-1.614c-.3-.014-.307.542-.173.7Z"/><path d="M54.763,61.126a32.583,32.583,0,0,1,2.765-4.069,26.061,26.061,0,0,1,3.329-3.673,20.6,20.6,0,0,1,8.718-4.647c.626-.158.506-1.739-.193-1.694a14.988,14.988,0,0,0-9.377,4.274,20.641,20.641,0,0,0-3.415,4.208,26.458,26.458,0,0,0-2.262,5.114c-.091.257.2.913.435.487Z"/></svg>