<svg xmlns="http://www.w3.org/2000/svg" width="100" height="100" viewBox="0 0 100 100"><defs><style>.a{fill:#429642;}</style></defs><title>asparagus</title><path class="a" d="M33.879,58.009c.159,10.013-2.774,20.112-3.452,30.148a3.042,3.042,0,0,0,3,3c5.286.209,6.416-3.748,6.565-8.475a83.625,83.625,0,0,0-1.122-16.26c-.637-3.8-6.42-2.188-5.786,1.595a63.251,63.251,0,0,1,.721,9.36c.026,1.309.19,2.662.173,3.963a7.032,7.032,0,0,1-.254,3.053q-.451,3.274-.3.764l3,3c.679-10.062,3.612-20.077,3.452-30.148-.061-3.857-6.061-3.869-6,0Z"/><path class="a" d="M29.115,61.075a6.167,6.167,0,0,0-.19,3A12.443,12.443,0,0,0,30.042,66.3l-.41-1.514a6.363,6.363,0,0,0,.218,2.98c.235.537.906,1.135.981,1.7a3.1,3.1,0,0,0,3,3c1.455,0,3.216-1.383,3-3a9.807,9.807,0,0,0-.44-2.163,8.1,8.1,0,0,0-.508-1.139c-.081-.146-.823-1.16-.426-.418q.081.666.116-.087a2.637,2.637,0,0,0,.057-.638,3.991,3.991,0,0,0-.256-1.4,2.36,2.36,0,0,0-.455-.907q-.217-.392-.135.12-.047.671.117-.175c.979-3.738-4.806-5.333-5.786-1.595Z"/><path class="a" d="M32.825,42.035,31.776,52.2c-.241,2.335-1.4,6.3-.62,8.611,1.893,5.634,6.865.54,8.952-1.654,2.662-2.8-1.574-7.046-4.243-4.242l-1.9,1.994q-1.728,1.659-.414.589l2.919.771-.3-.377.879,2.121c-.235-5.835,1.176-12.158,1.776-17.976.4-3.837-5.607-3.809-6,0Z"/><path class="a" d="M29.822,34.948c-.865,1.971-2.3,4.175-1.1,6.314.367.654,1.39,1.177,1.655,1.714a7.4,7.4,0,0,1,.288,1.676c.236,1.6,2.265,2.487,3.69,2.1a3.078,3.078,0,0,0,2.1-3.691,8.7,8.7,0,0,0-.919-3.071,6.792,6.792,0,0,0-.913-1.252,6.3,6.3,0,0,0-.9-.74q-.641-.471.11.086l.409,1.514c-.023.518.192-.322.267-.492L35,37.976a3.1,3.1,0,0,0-1.076-4.1c-1.273-.745-3.45-.415-4.105,1.076Z"/><path class="a" d="M32.714,20.027a182.535,182.535,0,0,0-1.728,21.5c-.064,3.328,5.161,4.149,5.893.8.822-3.767.879-7.538,1.287-11.356.444-4.16,2.04-8.022,2.3-12.211.235-3.856-5.766-3.843-6,0-.219,3.6-1.657,7.008-2.115,10.585-.486,3.806-.431,7.623-1.253,11.387l5.893.8A168.954,168.954,0,0,1,38.5,21.622c.521-3.776-5.26-5.409-5.786-1.595Z"/><path class="a" d="M35.139,19.063a13.7,13.7,0,0,0,.533,2.139c.013-.132.018-.042.016.268.062-.24.068-.255.017-.043s-.045.2.041-.019A2.891,2.891,0,0,1,36,21.119,3,3,0,1,0,39.027,26.3a5.293,5.293,0,0,0,2.593-4.127c.19-1.635-.4-3.124-.7-4.7a3.027,3.027,0,0,0-3.69-2.1,3.063,3.063,0,0,0-2.095,3.69Z"/><path class="a" d="M34.359,10.517c-3.7,3.619-8.574,10.785-4.105,15.622,1.926,2.084,5.251,2.294,6.978-.127a9.636,9.636,0,0,0,1.2-4.027,39.126,39.126,0,0,1,1.259-4.777c1.2-3.681-4.595-5.258-5.786-1.595a40.332,40.332,0,0,0-1.094,3.97,10.906,10.906,0,0,0-.438,2.432l-.112.612q2.619.465,2.274-.947c.251-.575.208-1.43.5-2.076a14.835,14.835,0,0,1,.923-1.653A17.111,17.111,0,0,1,38.6,14.76c2.766-2.7-1.478-6.945-4.242-4.243Z"/><path class="a" d="M31.3,18.43l-1.577,4.813c-1.078,3.291,3.757,5.169,5.483,2.312A18.6,18.6,0,0,0,37.5,19.876l-5.893-.8c.092-.836,1.72-1.732-.126-.888a5.956,5.956,0,0,0-1.487,1.085L35.111,21.4l-.021-.326A3,3,0,0,0,33.6,18.479c-1.862-.85-3.955-.531-4.909,1.462-1.384,2.895,2.262,6.306,4.712,3.636,1.725-1.88,4.157-3.827,5.4-6.069a4.561,4.561,0,0,0,.534-3.053c-.071-.394-.6-2.473-.586-1.485-.055-3.917-5.667-3.8-6,0A16.271,16.271,0,0,0,34.279,21.2c1.338,3.035,5.318,1.065,5.59-1.514a4.744,4.744,0,0,0-.207-1.946l-5.484,2.312c.344.647.561,1.314.868,1.973.155.332,1.108-.483-.279.181a4.694,4.694,0,0,0-2.3,2c-1.64,2.71,1.536,5.379,4.105,4.105a13.634,13.634,0,0,0,5.816-5.524c1.655-2.862-2.432-6.287-4.711-3.636-1.772,2.061-4.156,4.154-5.257,6.66-1.538,3.5,3.63,6.559,5.181,3.028.883-2.009,2.894-3.788,4.318-5.445l-4.712-3.635a8.052,8.052,0,0,1-3.664,3.371l4.105,4.1c-.65,1.074,1.022,0,1.495-.348a4.864,4.864,0,0,0,1.826-2.642c.7-2.471-.473-5.078-1.614-7.224-1.6-3.013-6.417-.945-5.483,2.312l-.007.35,5.591-1.514a10.207,10.207,0,0,1-.7-5.2h-6a4.026,4.026,0,0,0,.417,2.085l.247.557q.588-1.783-.2-.7c-1.328.538-3.094,3.372-4.059,4.423l4.712,3.636-.6.54H30.247l.328.15L29.09,21.07l.021.326a3.04,3.04,0,0,0,5.121,2.122,7.5,7.5,0,0,0,2.224-1.156A5.571,5.571,0,0,0,37.6,19.078c.37-3.362-5.17-4.072-5.893-.8a13.491,13.491,0,0,1-1.681,4.245l5.484,2.312,1.576-4.813c1.2-3.678-4.587-5.254-5.785-1.595Z"/><path class="a" d="M32.076,26.2,30.2,37.072c-.653,3.777,5.128,5.4,5.785,1.595L37.862,27.8c.652-3.776-5.129-5.4-5.786-1.595Z"/><path class="a" d="M32.96,28.922a23.284,23.284,0,0,1-.232,4.3,3.091,3.091,0,0,0,2.095,3.69c1.432.393,3.428-.487,3.69-2.095a30.932,30.932,0,0,0,.447-5.9,3,3,0,0,0-6,0Z"/><path d="M35.4,8.759A67.136,67.136,0,0,0,29.6,16.1a14.263,14.263,0,0,0-1.891,3.979,9.054,9.054,0,0,0,.114,3.956,4.954,4.954,0,0,0,1.8,2.877,5,5,0,0,1,1.3,1.3c.41.833.1,2.181-.013,3.064-.357,2.794-2.484,4.914-2.953,7.7-.561,3.332,3.15,5.165,2.97,8.342-.1,1.747-.264,3.493-.395,5.237a47.51,47.51,0,0,1-.511,5.979c-.312,1.506-1.546,2.493-2.058,3.916a4.512,4.512,0,0,0,.6,4.178c.677.932,2,1.652,2.153,2.857a40.527,40.527,0,0,1-.162,6.048c-.134,4.27-.432,8.573-.354,12.846.027,1.482.469,2.748,2.094,2.861,2.274.157,4.565-.052,6.835-.114.922-.025.848-1.963-.05-2.05-1.962-.19-3.9-.417-5.874-.534a4.651,4.651,0,0,0-.978-.058l-.306-.044q.248.429.158-.107a13.415,13.415,0,0,0,.124-2.649c.178-3.717.243-7.441.362-11.16.1-3.01.833-6.368-1.374-8.784-.343-.376-.733-.715-1.06-1.107-.462-.555-.416-.626-.037-1.232a10.776,10.776,0,0,0,1.941-4.077,46.515,46.515,0,0,0,.373-4.981l.36-5.726a8.936,8.936,0,0,0-.527-4.466c-.618-1.367-1.609-2.52-2.288-3.832-.45-.869.228-1.958.609-2.792a23.659,23.659,0,0,0,1.759-3.783c.693-2.642,1.168-6.273-.947-8.373-.433-.429-.948-.772-1.37-1.211a2.664,2.664,0,0,1-.641-1.743,6.307,6.307,0,0,1,1.3-4.143c1.761-2.864,4.255-5.3,5.431-8.5.122-.334-.2-1.586-.7-1Z"/><path d="M36.03,10.287c.057-.058.072-.092.3.159a7.207,7.207,0,0,1,.935,1.48c.72,1.368,1.285,2.818,1.881,4.243.614,1.466,1.27,2.929,1.83,4.417.7,1.863.6,3.269-.769,4.707-.849.894-1.938,1.774-2.235,3.019a16.668,16.668,0,0,0-.193,3.77c0,.283,0,.567,0,.85,0,.113-.021.671,0,.307-.075,1.189-.219,2.372-.277,3.562-.1,1.978-.062,3.956-.044,5.935.022,2.413-.154,4.839,0,7.248.123,1.9.35,3.6-.511,5.371L38.421,56.6a2.119,2.119,0,0,1,1.135-1.818l-.871-.326c.681.853,2.194,2.343,1.7,3.554-.214.529-.843.882-1.157,1.358a3.965,3.965,0,0,0-.6,1.627,29.043,29.043,0,0,0-.073,4.214l-.006,4.914c-.008,6.389.025,12.779-.031,19.167-.014,1.659,1.772,1.613,1.769-.044-.012-6.962.072-13.926.112-20.888l.029-5.161c0-.752-.137-1.464.384-2.052a5.631,5.631,0,0,0,1.152-1.567c1.149-2.745-.432-5.31-2.264-7.268a.653.653,0,0,0-.9.022,5.336,5.336,0,0,0-2.071,3.611c-.114.754.74,2.472,1.473,1.242a9.716,9.716,0,0,0,1.288-5.4c-.063-2.28-.058-4.533-.04-6.815.018-2.327-.066-4.654-.006-6.981.049-1.9.318-3.788.322-5.69,0-.736-.011-1.474.022-2.209.012-.268.06-.534.073-.8s-.268.315-.042.182a1.827,1.827,0,0,0,.282-.337c1.122-1.294,2.391-2.278,2.942-3.964.779-2.382.118-4.7-.863-6.91-.691-1.554-1.346-3.128-2.075-4.665-.523-1.1-3.063-7.34-4.954-4.918-.433.556.125,2.38.867,1.613Z"/><path d="M35.3,65.857a4.165,4.165,0,0,0,.152-2.1,13.9,13.9,0,0,0-.474-2.353,8.15,8.15,0,0,0-.9-2.171,3.367,3.367,0,0,0-1.6-1.478c-.709-.225-1.173.438-1.325,1.043a2.213,2.213,0,0,0,.522,2.164c.189.16.4.3.578.468a1.429,1.429,0,0,0,.128.13c-.232-.167-.115-.129-.035-.026s.146.2.213.3c.034.053.066.106.1.16s.135.24.02.03c-.158-.286.115.22.087.168.053.1.105.2.16.293.023.043.128.233.017.027s-.008-.011.015.032c.071.14.139.281.206.422.25.529.464,1.073.707,1.6a3.794,3.794,0,0,0,.915,1.509c.228.178.426-.008.521-.223Z"/><path d="M34.926,40.528a2.23,2.23,0,0,0,.343-.831,6.129,6.129,0,0,0,.049-.793,5.693,5.693,0,0,0-.026-.739,5.936,5.936,0,0,0-.279-1.333c-.1-.292-.212-.579-.325-.866a4.235,4.235,0,0,0-.481-.981,5.816,5.816,0,0,0-.664-.755,3.955,3.955,0,0,0-.6-.469,1.556,1.556,0,0,0-.949-.355c-.711.083-1.006.934-.972,1.562.03.56.309,1.547,1.047,1.513a.338.338,0,0,1,.078.006l-.27-.049a.921.921,0,0,1,.233.1l-.247-.15a5.446,5.446,0,0,1,.973.866c.138.143-.206-.253-.083-.093.026.034.056.067.082.1.142.188.049.125-.052-.132.11.278.24.55.356.826.083.2.16.4.233.6.032.087.065.174.1.262.044.121.034.265-.052-.174.009.046.026.093.037.139a5.9,5.9,0,0,1,.115.648c.012.1.039.339-.009-.084a3.152,3.152,0,0,0,.1.574,2.69,2.69,0,0,0,.319.625.536.536,0,0,0,.945-.023Z"/><path d="M31.829,16.88a24.038,24.038,0,0,0,1.092,2.273,15.324,15.324,0,0,1,.8,2.311,12.109,12.109,0,0,1,.342,4.636c-.063.507.045,1.291.6,1.5.54.2.921-.437.972-.884a15.513,15.513,0,0,0-.447-6,13.3,13.3,0,0,0-1.135-2.729,4.973,4.973,0,0,0-1.73-2.152c-.549-.29-.579.788-.5,1.045Z"/><path d="M39.043,17.016a3.025,3.025,0,0,0-1.887.438,5.309,5.309,0,0,0-1.577,1.518,8.614,8.614,0,0,0-1,2.141,8.522,8.522,0,0,0-.488,2.716,1.1,1.1,0,0,0,.54,1.018c.372.139.66-.2.781-.511a7.528,7.528,0,0,0,.328-1.126c.039-.176.08-.353.117-.53.04-.194-.071.253.019-.079.019-.07.038-.14.058-.21a9.424,9.424,0,0,1,.355-1.022c.027-.067.056-.133.085-.2.141-.314-.041.074.05-.1.078-.15.159-.3.248-.441a5.545,5.545,0,0,1,1.045-1.318,6.455,6.455,0,0,1,1.465-1.06c.425-.208.4-1.2-.141-1.235Z"/><path d="M35.428,46.2a1.4,1.4,0,0,0,.389.281,1.868,1.868,0,0,0,.232.068c.162.045.324.086.488.123.194.044.389.08.585.115a1.074,1.074,0,0,0,.352.02,1.358,1.358,0,0,0,.467-.1,1.41,1.41,0,0,0,.645-1.209,2.047,2.047,0,0,0-.083-.742,1.271,1.271,0,0,0-.4-.676,1.352,1.352,0,0,0-.3-.174c-.038-.012-.077-.022-.116-.033a2.176,2.176,0,0,0-.461-.1c-.165-.011-.33-.016-.495-.03s-.316-.031-.473-.052c-.078-.011-.156-.027-.234-.035a1.255,1.255,0,0,0-.442.113l-.2.138-.171.212a1.6,1.6,0,0,0-.22.767,1.622,1.622,0,0,0,.448,1.311Z"/><path d="M31.815,74.233a1.509,1.509,0,0,0,.466.3,3.426,3.426,0,0,0,.38.084c.3.059.612.111.921.142a7.762,7.762,0,0,0,.777.041,2.969,2.969,0,0,0,.389-.009,1.42,1.42,0,0,0,.518-.21,1.158,1.158,0,0,0,.5-1.072,1.833,1.833,0,0,0-.112-.552.871.871,0,0,0-.444-.494,1.958,1.958,0,0,0-.527-.131c-.127,0-.26.028-.387.037q-.373.027-.749.019c-.248-.006-.5-.024-.744-.053-.127-.015-.254-.043-.382-.055a1.432,1.432,0,0,0-.5.1.655.655,0,0,0-.287.267,1.234,1.234,0,0,0-.168.585,1.215,1.215,0,0,0,.341,1Z"/><path d="M31.074,80.423a2.029,2.029,0,0,0,.548.312,3.99,3.99,0,0,0,.694.064c.421.045.845.088,1.262.16l-.187-.034c.23.042.457.095.683.155a1.337,1.337,0,0,0,.93.034,1.031,1.031,0,0,0,.477-.9,1.335,1.335,0,0,0-.359-1.05,1.65,1.65,0,0,0-1.18-.34,7.553,7.553,0,0,0-1.009.038,5.006,5.006,0,0,0-1.05.252,1.3,1.3,0,0,0-.5.256,2.473,2.473,0,0,0-.372.451.5.5,0,0,0,.065.6Z"/><path class="a" d="M51.123,58.009c.159,10.013-2.775,20.112-3.452,30.148a3.042,3.042,0,0,0,3,3c5.286.209,6.415-3.748,6.565-8.475a83.625,83.625,0,0,0-1.123-16.26c-.637-3.8-6.42-2.188-5.785,1.595a63.115,63.115,0,0,1,.72,9.36c.026,1.309.191,2.662.174,3.963a7.032,7.032,0,0,1-.254,3.053q-.452,3.274-.3.764l3,3C54.35,78.1,57.283,68.08,57.123,58.009c-.061-3.857-6.062-3.869-6,0Z"/><path class="a" d="M46.359,61.075a6.167,6.167,0,0,0-.19,3A12.373,12.373,0,0,0,47.285,66.3l-.409-1.514a6.363,6.363,0,0,0,.218,2.98c.234.537.905,1.135.981,1.7a3.1,3.1,0,0,0,3,3c1.455,0,3.215-1.383,3-3a9.865,9.865,0,0,0-.44-2.163,8.1,8.1,0,0,0-.508-1.139c-.082-.146-.824-1.16-.427-.418q.082.666.117-.087a2.587,2.587,0,0,0,.056-.638,4.013,4.013,0,0,0-.255-1.4,2.349,2.349,0,0,0-.456-.907c-.144-.261-.19-.221-.135.12q-.045.671.117-.175c.98-3.738-4.806-5.333-5.785-1.595Z"/><path class="a" d="M50.069,42.035,49.02,52.2c-.241,2.335-1.4,6.3-.62,8.611,1.892,5.634,6.864.54,8.952-1.654,2.661-2.8-1.575-7.046-4.243-4.242l-1.9,1.994q-1.728,1.659-.415.589l2.919.771-.3-.377.879,2.121c-.235-5.835,1.175-12.158,1.776-17.976.4-3.837-5.607-3.809-6,0Z"/><path class="a" d="M47.066,34.948c-.866,1.971-2.3,4.175-1.1,6.314.368.654,1.391,1.177,1.655,1.714a7.343,7.343,0,0,1,.288,1.676c.237,1.6,2.266,2.487,3.691,2.1A3.078,3.078,0,0,0,53.7,43.057a8.681,8.681,0,0,0-.919-3.071,6.787,6.787,0,0,0-.912-1.252,6.253,6.253,0,0,0-.9-.74q-.64-.471.11.086l.41,1.514c-.024.518.192-.322.266-.492l.494-1.126a3.1,3.1,0,0,0-1.076-4.1c-1.273-.745-3.45-.415-4.1,1.076Z"/><path class="a" d="M49.957,20.027a182.535,182.535,0,0,0-1.728,21.5c-.063,3.328,5.162,4.149,5.893.8.823-3.767.88-7.538,1.287-11.356.444-4.16,2.04-8.022,2.3-12.211.235-3.856-5.766-3.843-6,0-.219,3.6-1.656,7.008-2.114,10.585-.487,3.806-.431,7.623-1.253,11.387l5.892.8a169.168,169.168,0,0,1,1.514-19.909c.521-3.776-5.259-5.409-5.786-1.595Z"/><path class="a" d="M52.382,19.063a13.7,13.7,0,0,0,.534,2.139c.012-.132.017-.042.015.268.063-.24.069-.255.017-.043s-.044.2.041-.019a3.171,3.171,0,0,1,.253-.289A3,3,0,1,0,56.271,26.3a5.3,5.3,0,0,0,2.593-4.127c.189-1.635-.4-3.124-.7-4.7a3.027,3.027,0,0,0-3.69-2.1,3.063,3.063,0,0,0-2.1,3.69Z"/><path class="a" d="M51.6,10.517c-3.7,3.619-8.573,10.785-4.1,15.622,1.926,2.084,5.25,2.294,6.978-.127a9.666,9.666,0,0,0,1.2-4.027,38.945,38.945,0,0,1,1.259-4.777c1.2-3.681-4.595-5.258-5.786-1.595a40.057,40.057,0,0,0-1.094,3.97,10.85,10.85,0,0,0-.438,2.432l-.113.612q2.619.465,2.275-.947c.25-.575.208-1.43.5-2.076a14.835,14.835,0,0,1,.923-1.653,17.033,17.033,0,0,1,2.641-3.191c2.766-2.7-1.479-6.945-4.243-4.243Z"/><path class="a" d="M48.547,18.43l-1.576,4.813c-1.078,3.291,3.757,5.169,5.483,2.312a18.623,18.623,0,0,0,2.286-5.679l-5.893-.8c.092-.836,1.719-1.732-.127-.888a5.993,5.993,0,0,0-1.487,1.085L52.355,21.4l-.022-.326a3,3,0,0,0-1.486-2.591c-1.861-.85-3.955-.531-4.908,1.462-1.385,2.895,2.261,6.306,4.712,3.636,1.725-1.88,4.157-3.827,5.4-6.069a4.567,4.567,0,0,0,.534-3.053c-.072-.394-.6-2.473-.587-1.485-.055-3.917-5.667-3.8-6,0A16.282,16.282,0,0,0,51.522,21.2c1.339,3.035,5.319,1.065,5.591-1.514a4.762,4.762,0,0,0-.208-1.946l-5.483,2.312c.344.647.561,1.314.868,1.973.155.332,1.108-.483-.28.181a4.7,4.7,0,0,0-2.295,2c-1.64,2.71,1.535,5.379,4.1,4.105a13.642,13.642,0,0,0,5.817-5.524c1.655-2.862-2.432-6.287-4.712-3.636-1.771,2.061-4.155,4.154-5.256,6.66-1.539,3.5,3.629,6.559,5.181,3.028.882-2.009,2.894-3.788,4.318-5.445l-4.712-3.635a8.062,8.062,0,0,1-3.664,3.371l4.1,4.1c-.65,1.074,1.023,0,1.5-.348a4.863,4.863,0,0,0,1.825-2.642c.7-2.471-.473-5.078-1.613-7.224-1.6-3.013-6.418-.945-5.483,2.312l-.007.35,5.59-1.514a10.218,10.218,0,0,1-.7-5.2H50a4.037,4.037,0,0,0,.418,2.085l.247.557q.588-1.783-.2-.7c-1.328.538-3.093,3.372-4.058,4.423L51.12,22.97l-.6.54H47.49l.329.15-1.486-2.59.022.326a3.04,3.04,0,0,0,5.121,2.122A7.481,7.481,0,0,0,53.7,22.362a5.572,5.572,0,0,0,1.148-3.284c.37-3.362-5.171-4.072-5.893-.8a13.491,13.491,0,0,1-1.681,4.245l5.483,2.312,1.577-4.813c1.2-3.678-4.587-5.254-5.786-1.595Z"/><path class="a" d="M49.32,26.2l-1.878,10.87c-.652,3.777,5.129,5.4,5.786,1.595L55.105,27.8c.653-3.776-5.128-5.4-5.785-1.595Z"/><path class="a" d="M50.2,28.922a23.284,23.284,0,0,1-.233,4.3,3.092,3.092,0,0,0,2.1,3.69c1.433.393,3.429-.487,3.691-2.095a31.014,31.014,0,0,0,.447-5.9,3,3,0,0,0-6,0Z"/><path d="M52.644,8.759a67.248,67.248,0,0,0-5.8,7.336,14.235,14.235,0,0,0-1.891,3.979,9.054,9.054,0,0,0,.113,3.956,4.955,4.955,0,0,0,1.8,2.877,4.984,4.984,0,0,1,1.3,1.3c.41.833.1,2.181-.012,3.064-.358,2.794-2.485,4.914-2.954,7.7-.56,3.332,3.151,5.165,2.97,8.342-.1,1.747-.263,3.493-.4,5.237a47.51,47.51,0,0,1-.511,5.979c-.311,1.506-1.545,2.493-2.057,3.916a4.515,4.515,0,0,0,.6,4.178c.677.932,2,1.652,2.154,2.857a40.8,40.8,0,0,1-.162,6.048c-.135,4.27-.433,8.573-.355,12.846.028,1.482.469,2.748,2.095,2.861,2.274.157,4.564-.052,6.835-.114.921-.025.847-1.963-.051-2.05-1.961-.19-3.9-.417-5.874-.534a4.648,4.648,0,0,0-.978-.058l-.306-.044q.247.429.158-.107a13.339,13.339,0,0,0,.125-2.649c.177-3.717.243-7.441.362-11.16.1-3.01.832-6.368-1.374-8.784-.344-.376-.734-.715-1.06-1.107-.462-.555-.417-.626-.038-1.232a10.761,10.761,0,0,0,1.941-4.077,46.516,46.516,0,0,0,.374-4.981l.36-5.726a8.937,8.937,0,0,0-.528-4.466c-.618-1.367-1.608-2.52-2.288-3.832-.45-.869.229-1.958.61-2.792a23.746,23.746,0,0,0,1.759-3.783c.692-2.642,1.168-6.273-.948-8.373-.432-.429-.947-.772-1.37-1.211a2.663,2.663,0,0,1-.64-1.743,6.307,6.307,0,0,1,1.3-4.143c1.76-2.864,4.254-5.3,5.43-8.5.123-.334-.194-1.586-.7-1Z"/><path d="M53.274,10.287c.056-.058.071-.092.3.159a7.169,7.169,0,0,1,.936,1.48c.72,1.368,1.284,2.818,1.88,4.243.614,1.466,1.271,2.929,1.831,4.417.7,1.863.6,3.269-.769,4.707-.849.894-1.938,1.774-2.235,3.019a16.668,16.668,0,0,0-.194,3.77c0,.283,0,.567,0,.85,0,.113-.021.671,0,.307-.074,1.189-.218,2.372-.276,3.562-.1,1.978-.062,3.956-.044,5.935.022,2.413-.154,4.839,0,7.248.123,1.9.35,3.6-.511,5.371L55.665,56.6A2.118,2.118,0,0,1,56.8,54.779l-.87-.326c.68.853,2.193,2.343,1.7,3.554-.214.529-.843.882-1.157,1.358a3.965,3.965,0,0,0-.6,1.627,29.043,29.043,0,0,0-.074,4.214L55.8,70.12c-.008,6.389.026,12.779-.03,19.167-.015,1.659,1.772,1.613,1.769-.044-.013-6.962.072-13.926.111-20.888l.029-5.161c.005-.752-.136-1.464.385-2.052a5.65,5.65,0,0,0,1.152-1.567c1.148-2.745-.433-5.31-2.265-7.268a.651.651,0,0,0-.894.022,5.341,5.341,0,0,0-2.072,3.611c-.113.754.741,2.472,1.473,1.242a9.7,9.7,0,0,0,1.288-5.4c-.063-2.28-.058-4.533-.04-6.815.019-2.327-.066-4.654-.006-6.981.049-1.9.318-3.788.322-5.69,0-.736-.011-1.474.023-2.209.012-.268.06-.534.073-.8s-.269.315-.042.182a1.867,1.867,0,0,0,.282-.337c1.121-1.294,2.39-2.278,2.942-3.964.779-2.382.118-4.7-.863-6.91-.692-1.554-1.346-3.128-2.076-4.665-.522-1.1-3.062-7.34-4.953-4.918-.434.556.124,2.38.867,1.613Z"/><path d="M52.545,65.857a4.165,4.165,0,0,0,.151-2.1,13.8,13.8,0,0,0-.473-2.353,8.216,8.216,0,0,0-.9-2.171,3.371,3.371,0,0,0-1.6-1.478c-.709-.225-1.174.438-1.325,1.043a2.215,2.215,0,0,0,.521,2.164c.19.16.4.3.578.468a1.429,1.429,0,0,0,.128.13c-.232-.167-.115-.129-.034-.026s.146.2.213.3c.033.053.066.106.1.16s.136.24.02.03c-.157-.286.116.22.087.168.053.1.106.2.16.293.024.043.129.233.018.027s-.008-.011.014.032q.106.21.206.422c.25.529.465,1.073.708,1.6a3.794,3.794,0,0,0,.915,1.509c.227.178.425-.008.521-.223Z"/><path d="M52.17,40.528a2.264,2.264,0,0,0,.343-.831,6.129,6.129,0,0,0,.048-.793,5.693,5.693,0,0,0-.025-.739,5.936,5.936,0,0,0-.279-1.333c-.1-.292-.213-.579-.326-.866a4.235,4.235,0,0,0-.481-.981,5.742,5.742,0,0,0-.664-.755,3.946,3.946,0,0,0-.6-.469,1.557,1.557,0,0,0-.95-.355c-.71.083-1.005.934-.971,1.562.03.56.309,1.547,1.047,1.513a.346.346,0,0,1,.078.006l-.271-.049a.912.912,0,0,1,.234.1l-.247-.15a5.481,5.481,0,0,1,.973.866c.138.143-.206-.253-.084-.093.027.034.056.067.083.1.142.188.049.125-.053-.132.11.278.24.55.357.826q.124.3.232.6c.032.087.066.174.1.262.045.121.035.265-.051-.174.009.046.025.093.037.139a5.894,5.894,0,0,1,.114.648c.013.1.039.339-.008-.084a3.069,3.069,0,0,0,.1.574,2.686,2.686,0,0,0,.318.625.537.537,0,0,0,.946-.023Z"/><path d="M49.073,16.88a24.038,24.038,0,0,0,1.092,2.273,15.32,15.32,0,0,1,.8,2.311,12.109,12.109,0,0,1,.343,4.636c-.063.507.045,1.291.6,1.5.54.2.921-.437.973-.884a15.533,15.533,0,0,0-.448-6A13.348,13.348,0,0,0,51.3,17.987a4.968,4.968,0,0,0-1.731-2.152c-.548-.29-.579.788-.495,1.045Z"/><path d="M56.287,17.016a3.028,3.028,0,0,0-1.888.438,5.333,5.333,0,0,0-1.577,1.518,8.686,8.686,0,0,0-1,2.141,8.578,8.578,0,0,0-.488,2.716,1.105,1.105,0,0,0,.541,1.018c.371.139.66-.2.78-.511a7.531,7.531,0,0,0,.329-1.126c.038-.176.079-.353.116-.53.04-.194-.07.253.02-.079.019-.07.038-.14.058-.21a9.209,9.209,0,0,1,.354-1.022c.028-.067.057-.133.086-.2.14-.314-.041.074.05-.1q.115-.225.247-.441a5.523,5.523,0,0,1,1.046-1.318,6.427,6.427,0,0,1,1.464-1.06c.425-.208.4-1.2-.14-1.235Z"/><path d="M52.671,46.2a1.42,1.42,0,0,0,.39.281,1.868,1.868,0,0,0,.232.068c.161.045.324.086.487.123.194.044.39.08.585.115a1.076,1.076,0,0,0,.352.02,1.358,1.358,0,0,0,.467-.1,1.408,1.408,0,0,0,.645-1.209,2.046,2.046,0,0,0-.082-.742,1.277,1.277,0,0,0-.4-.676,1.352,1.352,0,0,0-.3-.174c-.038-.012-.077-.022-.116-.033a2.19,2.19,0,0,0-.461-.1c-.165-.011-.331-.016-.5-.03s-.315-.031-.472-.052c-.078-.011-.156-.027-.235-.035a1.25,1.25,0,0,0-.441.113l-.2.138-.171.212a1.6,1.6,0,0,0-.221.767,1.625,1.625,0,0,0,.448,1.311Z"/><path d="M49.059,74.233a1.493,1.493,0,0,0,.465.3,3.529,3.529,0,0,0,.38.084c.3.059.612.111.921.142a7.782,7.782,0,0,0,.778.041,2.953,2.953,0,0,0,.388-.009,1.417,1.417,0,0,0,.519-.21,1.157,1.157,0,0,0,.5-1.072,1.8,1.8,0,0,0-.112-.552.865.865,0,0,0-.443-.494,1.958,1.958,0,0,0-.527-.131c-.128,0-.26.028-.388.037q-.373.027-.748.019t-.744-.053c-.128-.015-.255-.043-.382-.055a1.437,1.437,0,0,0-.5.1.653.653,0,0,0-.286.267,1.394,1.394,0,0,0,.173,1.584Z"/><path d="M48.318,80.423a2.023,2.023,0,0,0,.547.312,4.01,4.01,0,0,0,.7.064c.42.045.845.088,1.261.16l-.186-.034c.23.042.457.095.683.155a1.334,1.334,0,0,0,.929.034,1.034,1.034,0,0,0,.478-.9,1.335,1.335,0,0,0-.359-1.05,1.652,1.652,0,0,0-1.181-.34,7.545,7.545,0,0,0-1.008.038,5.006,5.006,0,0,0-1.05.252,1.3,1.3,0,0,0-.5.256,2.558,2.558,0,0,0-.372.451.5.5,0,0,0,.066.6Z"/><path class="a" d="M68.034,58.009c.16,10.013-2.774,20.112-3.452,30.148a3.042,3.042,0,0,0,3,3c5.286.209,6.416-3.748,6.566-8.475a83.625,83.625,0,0,0-1.123-16.26c-.637-3.8-6.42-2.188-5.786,1.595a63.116,63.116,0,0,1,.721,9.36c.026,1.309.19,2.662.173,3.963a7.031,7.031,0,0,1-.253,3.053q-.453,3.274-.3.764l3,3c.679-10.062,3.612-20.077,3.452-30.148-.061-3.857-6.061-3.869-6,0Z"/><path class="a" d="M63.27,61.075a6.179,6.179,0,0,0-.19,3A12.443,12.443,0,0,0,64.2,66.3l-.409-1.514a6.349,6.349,0,0,0,.217,2.98c.235.537.906,1.135.982,1.7a3.1,3.1,0,0,0,3,3c1.455,0,3.215-1.383,3-3a9.867,9.867,0,0,0-.441-2.163,8.1,8.1,0,0,0-.508-1.139c-.081-.146-.823-1.16-.426-.418.055.444.093.415.117-.087a2.687,2.687,0,0,0,.056-.638,3.991,3.991,0,0,0-.256-1.4,2.36,2.36,0,0,0-.455-.907q-.217-.392-.135.12-.046.671.117-.175c.98-3.738-4.806-5.333-5.786-1.595Z"/><path class="a" d="M66.98,42.035,65.931,52.2c-.241,2.335-1.4,6.3-.62,8.611,1.893,5.634,6.865.54,8.952-1.654,2.662-2.8-1.574-7.046-4.242-4.242l-1.9,1.994q-1.728,1.659-.415.589l2.919.771-.3-.377.878,2.121c-.235-5.835,1.176-12.158,1.776-17.976.4-3.837-5.606-3.809-6,0Z"/><path class="a" d="M63.977,34.948c-.865,1.971-2.3,4.175-1.1,6.314.367.654,1.39,1.177,1.655,1.714a7.4,7.4,0,0,1,.288,1.676c.236,1.6,2.265,2.487,3.69,2.1a3.078,3.078,0,0,0,2.1-3.691,8.7,8.7,0,0,0-.919-3.071,6.792,6.792,0,0,0-.913-1.252,6.245,6.245,0,0,0-.9-.74q-.641-.471.11.086l.409,1.514c-.023.518.192-.322.267-.492l.494-1.126a3.1,3.1,0,0,0-1.076-4.1c-1.273-.745-3.45-.415-4.1,1.076Z"/><path class="a" d="M66.869,20.027a182.535,182.535,0,0,0-1.728,21.5c-.063,3.328,5.161,4.149,5.893.8.823-3.767.879-7.538,1.287-11.356.444-4.16,2.04-8.022,2.3-12.211.235-3.856-5.766-3.843-6,0-.219,3.6-1.657,7.008-2.114,10.585-.487,3.806-.432,7.623-1.254,11.387l5.893.8a168.954,168.954,0,0,1,1.514-19.909c.521-3.776-5.259-5.409-5.786-1.595Z"/><path class="a" d="M69.294,19.063a13.812,13.812,0,0,0,.533,2.139c.013-.132.018-.042.016.268.063-.24.068-.255.017-.043s-.045.2.041-.019a3.025,3.025,0,0,1,.253-.289A3,3,0,0,0,73.182,26.3a5.293,5.293,0,0,0,2.593-4.127c.19-1.635-.4-3.124-.7-4.7a3.028,3.028,0,0,0-3.691-2.1,3.063,3.063,0,0,0-2.095,3.69Z"/><path class="a" d="M68.514,10.517c-3.7,3.619-8.574,10.785-4.1,15.622,1.925,2.084,5.25,2.294,6.977-.127a9.652,9.652,0,0,0,1.2-4.027,39.122,39.122,0,0,1,1.258-4.777c1.2-3.681-4.594-5.258-5.785-1.595a40.062,40.062,0,0,0-1.095,3.97,10.906,10.906,0,0,0-.438,2.432l-.112.612q2.619.465,2.275-.947c.25-.575.208-1.43.5-2.076a14.843,14.843,0,0,1,.924-1.653,17.033,17.033,0,0,1,2.641-3.191c2.765-2.7-1.479-6.945-4.243-4.243Z"/><path class="a" d="M65.459,18.43l-1.577,4.813c-1.078,3.291,3.757,5.169,5.483,2.312a18.6,18.6,0,0,0,2.286-5.679l-5.893-.8c.093-.836,1.72-1.732-.126-.888a5.974,5.974,0,0,0-1.487,1.085L69.266,21.4l-.021-.326a3,3,0,0,0-1.486-2.591c-1.861-.85-3.955-.531-4.908,1.462-1.385,2.895,2.261,6.306,4.711,3.636,1.725-1.88,4.158-3.827,5.4-6.069a4.566,4.566,0,0,0,.533-3.053c-.071-.394-.6-2.473-.586-1.485-.055-3.917-5.667-3.8-6,0A16.282,16.282,0,0,0,68.434,21.2c1.338,3.035,5.319,1.065,5.59-1.514a4.744,4.744,0,0,0-.207-1.946l-5.483,2.312c.344.647.56,1.314.867,1.973.155.332,1.109-.483-.279.181a4.7,4.7,0,0,0-2.3,2c-1.64,2.71,1.536,5.379,4.1,4.105a13.634,13.634,0,0,0,5.816-5.524c1.655-2.862-2.432-6.287-4.711-3.636-1.772,2.061-4.156,4.154-5.257,6.66-1.538,3.5,3.63,6.559,5.181,3.028.883-2.009,2.894-3.788,4.318-5.445l-4.711-3.635A8.059,8.059,0,0,1,67.7,23.135l4.105,4.1c-.65,1.074,1.022,0,1.5-.348a4.868,4.868,0,0,0,1.825-2.642c.7-2.471-.473-5.078-1.614-7.224-1.6-3.013-6.417-.945-5.483,2.312l-.007.35,5.591-1.514a10.218,10.218,0,0,1-.7-5.2h-6a4.017,4.017,0,0,0,.418,2.085l.247.557q.586-1.783-.2-.7c-1.328.538-3.094,3.372-4.058,4.423l4.711,3.636-.6.54H64.4l.329.15-1.486-2.59.021.326a3.04,3.04,0,0,0,5.121,2.122,7.5,7.5,0,0,0,2.224-1.156,5.564,5.564,0,0,0,1.147-3.284c.371-3.362-5.17-4.072-5.892-.8a13.514,13.514,0,0,1-1.681,4.245l5.483,2.312,1.577-4.813c1.2-3.678-4.588-5.254-5.786-1.595Z"/><path class="a" d="M66.231,26.2l-1.877,10.87c-.653,3.777,5.128,5.4,5.785,1.595L72.017,27.8c.652-3.776-5.129-5.4-5.786-1.595Z"/><path class="a" d="M67.116,28.922a23.371,23.371,0,0,1-.233,4.3,3.091,3.091,0,0,0,2.095,3.69c1.432.393,3.428-.487,3.69-2.095a31.014,31.014,0,0,0,.448-5.9,3,3,0,1,0-6,0Z"/><path d="M69.556,8.759a67.379,67.379,0,0,0-5.8,7.336,14.232,14.232,0,0,0-1.89,3.979,9.039,9.039,0,0,0,.113,3.956,4.954,4.954,0,0,0,1.8,2.877,5,5,0,0,1,1.3,1.3c.41.833.1,2.181-.012,3.064-.358,2.794-2.485,4.914-2.954,7.7-.561,3.332,3.15,5.165,2.97,8.342-.1,1.747-.263,3.493-.395,5.237a47.51,47.51,0,0,1-.511,5.979c-.311,1.506-1.545,2.493-2.058,3.916a4.512,4.512,0,0,0,.6,4.178c.677.932,2,1.652,2.153,2.857a40.66,40.66,0,0,1-.161,6.048c-.135,4.27-.433,8.573-.355,12.846.027,1.482.469,2.748,2.094,2.861,2.274.157,4.565-.052,6.835-.114.922-.025.848-1.963-.05-2.05-1.961-.19-3.9-.417-5.874-.534a4.648,4.648,0,0,0-.978-.058l-.306-.044q.248.429.158-.107a13.339,13.339,0,0,0,.124-2.649c.178-3.717.244-7.441.363-11.16.1-3.01.832-6.368-1.374-8.784-.344-.376-.734-.715-1.06-1.107-.463-.555-.417-.626-.038-1.232a10.776,10.776,0,0,0,1.941-4.077,46.515,46.515,0,0,0,.373-4.981l.36-5.726a8.936,8.936,0,0,0-.527-4.466c-.618-1.367-1.609-2.52-2.288-3.832-.45-.869.228-1.958.609-2.792a23.572,23.572,0,0,0,1.759-3.783c.693-2.642,1.168-6.273-.947-8.373-.433-.429-.947-.772-1.37-1.211a2.664,2.664,0,0,1-.641-1.743,6.313,6.313,0,0,1,1.3-4.143c1.761-2.864,4.255-5.3,5.431-8.5.123-.334-.195-1.586-.7-1Z"/><path d="M70.186,10.287c.056-.058.071-.092.3.159a7.207,7.207,0,0,1,.935,1.48c.72,1.368,1.285,2.818,1.881,4.243.614,1.466,1.27,2.929,1.83,4.417.7,1.863.6,3.269-.769,4.707-.849.894-1.938,1.774-2.234,3.019a16.61,16.61,0,0,0-.194,3.77c0,.283,0,.567,0,.85,0,.113-.021.671,0,.307-.075,1.189-.219,2.372-.277,3.562-.1,1.978-.062,3.956-.044,5.935.022,2.413-.154,4.839,0,7.248.123,1.9.351,3.6-.51,5.371L72.576,56.6a2.119,2.119,0,0,1,1.135-1.818l-.871-.326c.681.853,2.194,2.343,1.7,3.554-.213.529-.842.882-1.157,1.358a3.965,3.965,0,0,0-.6,1.627,29.185,29.185,0,0,0-.073,4.214l-.006,4.914c-.008,6.389.025,12.779-.031,19.167-.014,1.659,1.773,1.613,1.77-.044-.013-6.962.071-13.926.111-20.888l.029-5.161c0-.752-.136-1.464.384-2.052a5.611,5.611,0,0,0,1.152-1.567c1.149-2.745-.432-5.31-2.264-7.268a.653.653,0,0,0-.895.022A5.34,5.34,0,0,0,70.9,55.94c-.114.754.74,2.472,1.473,1.242a9.707,9.707,0,0,0,1.288-5.4c-.063-2.28-.058-4.533-.04-6.815.019-2.327-.066-4.654-.006-6.981.049-1.9.318-3.788.322-5.69,0-.736-.011-1.474.022-2.209.013-.268.06-.534.073-.8s-.268.315-.041.182a1.822,1.822,0,0,0,.281-.337c1.122-1.294,2.391-2.278,2.943-3.964.778-2.382.117-4.7-.864-6.91C75.656,16.7,75,15.129,74.272,13.592c-.523-1.1-3.063-7.34-4.954-4.918-.433.556.125,2.38.868,1.613Z"/><path d="M69.456,65.857a4.154,4.154,0,0,0,.152-2.1,13.894,13.894,0,0,0-.473-2.353,8.186,8.186,0,0,0-.9-2.171,3.363,3.363,0,0,0-1.6-1.478c-.709-.225-1.173.438-1.325,1.043a2.213,2.213,0,0,0,.522,2.164c.189.16.4.3.578.468a1.429,1.429,0,0,0,.128.13c-.232-.167-.115-.129-.035-.026s.147.2.213.3c.034.053.066.106.1.16s.135.24.02.03c-.158-.286.115.22.087.168.053.1.1.2.16.293.024.043.128.233.017.027s-.007-.011.015.032c.071.14.139.281.206.422.25.529.465,1.073.707,1.6a3.805,3.805,0,0,0,.915,1.509c.228.178.426-.008.521-.223Z"/><path d="M69.081,40.528a2.248,2.248,0,0,0,.344-.831,6.312,6.312,0,0,0,.048-.793,5.693,5.693,0,0,0-.025-.739,5.993,5.993,0,0,0-.28-1.333c-.1-.292-.212-.579-.325-.866a4.235,4.235,0,0,0-.481-.981,5.816,5.816,0,0,0-.664-.755,3.955,3.955,0,0,0-.6-.469,1.556,1.556,0,0,0-.949-.355c-.711.083-1.006.934-.972,1.562.03.56.309,1.547,1.047,1.513a.338.338,0,0,1,.078.006l-.27-.049a.905.905,0,0,1,.233.1l-.247-.15a5.487,5.487,0,0,1,.974.866c.138.143-.207-.253-.084-.093.027.034.056.067.082.1.142.188.049.125-.052-.132.11.278.24.55.356.826.083.2.16.4.233.6.032.087.066.174.1.262.044.121.035.265-.051-.174.009.046.025.093.036.139a5.669,5.669,0,0,1,.115.648c.013.1.039.339-.008-.084a2.99,2.99,0,0,0,.1.574,2.648,2.648,0,0,0,.318.625.536.536,0,0,0,.945-.023Z"/><path d="M65.984,16.88a23.8,23.8,0,0,0,1.093,2.273,15.32,15.32,0,0,1,.8,2.311,12.129,12.129,0,0,1,.343,4.636c-.064.507.044,1.291.6,1.5.54.2.921-.437.972-.884a15.513,15.513,0,0,0-.447-6,13.348,13.348,0,0,0-1.134-2.729,4.975,4.975,0,0,0-1.731-2.152c-.549-.29-.579.788-.5,1.045Z"/><path d="M73.2,17.016a3.028,3.028,0,0,0-1.888.438,5.321,5.321,0,0,0-1.577,1.518,8.65,8.65,0,0,0-1,2.141,8.522,8.522,0,0,0-.488,2.716,1.106,1.106,0,0,0,.54,1.018c.372.139.66-.2.781-.511A7.528,7.528,0,0,0,69.9,23.21c.039-.176.08-.353.117-.53.04-.194-.071.253.019-.079.019-.07.038-.14.058-.21a9.424,9.424,0,0,1,.355-1.022c.028-.067.056-.133.086-.2.14-.314-.042.074.049-.1.078-.15.159-.3.248-.441a5.545,5.545,0,0,1,1.045-1.318,6.455,6.455,0,0,1,1.465-1.06c.425-.208.395-1.2-.14-1.235Z"/><path d="M69.583,46.2a1.415,1.415,0,0,0,.389.281,1.92,1.92,0,0,0,.232.068c.162.045.324.086.488.123.194.044.389.08.585.115a1.076,1.076,0,0,0,.352.02,1.358,1.358,0,0,0,.467-.1,1.408,1.408,0,0,0,.645-1.209,2.068,2.068,0,0,0-.082-.742,1.279,1.279,0,0,0-.4-.676,1.345,1.345,0,0,0-.3-.174l-.116-.033a2.185,2.185,0,0,0-.462-.1c-.165-.011-.33-.016-.5-.03s-.316-.031-.473-.052c-.077-.011-.156-.027-.234-.035a1.261,1.261,0,0,0-.442.113l-.2.138-.171.212a1.6,1.6,0,0,0-.221.767,1.622,1.622,0,0,0,.448,1.311Z"/><path d="M65.971,74.233a1.493,1.493,0,0,0,.465.3,3.476,3.476,0,0,0,.38.084c.3.059.612.111.921.142a7.766,7.766,0,0,0,.778.041,2.953,2.953,0,0,0,.388-.009,1.424,1.424,0,0,0,.519-.21,1.159,1.159,0,0,0,.5-1.072,1.833,1.833,0,0,0-.112-.552.869.869,0,0,0-.443-.494,1.965,1.965,0,0,0-.528-.131c-.127,0-.26.028-.387.037-.249.018-.5.024-.748.019s-.5-.024-.745-.053c-.127-.015-.254-.043-.381-.055a1.437,1.437,0,0,0-.5.1.66.66,0,0,0-.287.267,1.234,1.234,0,0,0-.168.585,1.216,1.216,0,0,0,.342,1Z"/><path d="M65.229,80.423a2.029,2.029,0,0,0,.548.312,3.99,3.99,0,0,0,.694.064c.421.045.845.088,1.262.16l-.187-.034c.23.042.457.095.683.155a1.337,1.337,0,0,0,.93.034,1.031,1.031,0,0,0,.477-.9,1.338,1.338,0,0,0-.358-1.05,1.652,1.652,0,0,0-1.181-.34,7.553,7.553,0,0,0-1.009.038,5,5,0,0,0-1.049.252,1.3,1.3,0,0,0-.5.256,2.515,2.515,0,0,0-.372.451.5.5,0,0,0,.065.6Z"/></svg>