<svg xmlns="http://www.w3.org/2000/svg" width="100" height="100" viewBox="0 0 100 100"><defs><style>.a{fill:#51184a;}.b{fill:#380f31;}.c{fill:#438243;}.d{fill:#682964;}</style></defs><title>aubergine</title><path class="a" d="M47.29,57.354c-4.854,1.675-14.051,5.359-13.075,12.055,1.215,8.34,13.464.371,16.907-1.253,3.064-1.445.905-6.554-2.312-5.483A55.878,55.878,0,0,0,36.993,68.16h3.029c-1.33-.748-7.8-1.127-8.157-1.925a3.013,3.013,0,0,0-4.712-.607L25,68.277,30.013,71.2a10.237,10.237,0,0,0,.34-3.318c-.144-3.226-5.17-4.26-5.893-.8a10.231,10.231,0,0,0-.074,4.193l5.786-1.595c-.433-2.159-1.913-5.419-4.683-5.2-2.188.175-.185,2.612.675,2.774.578.109,2.66-1.43,3.232-1.723,2.446-1.253,4.943-2.405,7.415-3.606,7.995-3.886,15.409-8.35,20.6-15.75,1.959-2.8-2.414-6.115-4.712-3.635l-6.057,6.537c-2.622,2.829,1.611,7.083,4.242,4.243l6.058-6.538-4.712-3.635C45.653,52.527,34.378,55.971,24.743,61.2c-2.384,1.293-5.63,3.287-4.53,6.6a4.594,4.594,0,0,0,2.765,2.742c.46.14,1.041-.083,1.453.049,1.333.429-.508-1.622-.045.689.77,3.843,6.346,2.139,5.786-1.595l.074-1-5.893-.8L24.228,69.6c-.624,2.674,3,5.4,5.014,2.919L31.4,69.871l-4.712-.607c2.262,4.994,6.64,2.014,10.309,4.077a3.025,3.025,0,0,0,3.029,0,49.1,49.1,0,0,1,10.383-4.883l-2.311-5.483c-1.757.829-3.511,1.667-5.272,2.487q-1.374.676-2.781,1.279-2.314.522.5,1.339c.871-.147,2.9-2.652,3.92-3.184a31.656,31.656,0,0,1,4.423-1.756c3.628-1.253,2.069-7.051-1.595-5.786Z"/><path class="a" d="M64.435,41.178c.631-3.479,3.192-6.2,2.37-9.8a3.015,3.015,0,0,0-3.69-2.1c-13.3,5.05-19.544,18.485-31.3,25.8-4.646,2.89-11.782,5.781-13.8,11.378-1.761,4.874.6,9.69,4.973,12.063,13.087,7.11,26.167.254,36.743-7.632,5.127-3.824,9.995-8.1,12.758-13.995a47.515,47.515,0,0,0,3.361-9.772,18.929,18.929,0,0,0,.5-4.247c-.04-1.726-1.024-3.6-.7-5.3a3.015,3.015,0,0,0-5.484-2.311A45.7,45.7,0,0,1,60.716,45.9l5.121,2.121a12.4,12.4,0,0,1,2.537-7.794l-5.483-.717A16.385,16.385,0,0,0,61.18,37.4a3.027,3.027,0,0,0-4.712.607c-.841,1.409-1.713,2.723-2.686,4.044h5.18L58.63,41.1a3.024,3.024,0,0,0-5.014-1.324A163.125,163.125,0,0,1,37.694,54.71a61.052,61.052,0,0,1-10.553,6.721c-2.195,1.08-4.993,1.766-6.463,3.88-2.861,4.115,1.115,7.716,4.923,8.747,6.849,1.854,14.31-.273,20.563-3.1,3.245-1.466.837-6.144-2.312-5.483q-7.87,1.651-15.568,3.942a3.025,3.025,0,0,0,0,5.785c8.8,2.655,18.011.62,25.49-4.572,6.7-4.655,13.389-11.449,14.46-19.835.349-2.733-3.424-3.745-5.121-2.121a43.384,43.384,0,0,0-5.049,5.836c-2.17,2.966,2.283,5.594,4.711,3.636A32.336,32.336,0,0,0,71.4,47.5a3.014,3.014,0,0,0-4.712-3.635C59.477,49.8,52.23,55.617,44.132,60.322l3.636,4.712a165.6,165.6,0,0,1,17.249-17.59c2.535-2.227-.809-6.639-3.635-4.712-6.926,4.724-9.734,12.7-15.994,17.962a12.783,12.783,0,0,1-7.714,3.086,25.5,25.5,0,0,1-3.4-.1q.707,1.455,2.33-.313c4.627-1.724,9.475-2.941,14.227-4.26l-2.311-5.484-7.018,5.2a3.128,3.128,0,0,0-1.379,3.388l.282,1.053a3.086,3.086,0,0,0,3.69,2.095A32.049,32.049,0,0,0,55.994,61l-4.1-4.1a23.252,23.252,0,0,1-3.484,4.535c-2.029,2.071-.007,5.949,2.919,5.015l1.663-.531c3.665-1.17,2.1-6.965-1.595-5.786l-1.663.531,2.919,5.014a29.642,29.642,0,0,0,4.422-5.749,3.023,3.023,0,0,0-4.1-4.1A27.939,27.939,0,0,1,42.5,59.577l3.69,2.1-.281-1.053-1.379,3.388,7.018-5.2c2.579-1.91,1.2-6.458-2.312-5.483-4.173,1.159-8.355,2.3-12.467,3.669-2.786.923-6.047,1.862-8.025,4.2-3.075,3.636-.78,7.43,3.444,8.241a20.293,20.293,0,0,0,17.439-4.5c5.7-5.014,8.421-12.688,14.779-17.024L60.775,43.2a165.709,165.709,0,0,0-17.25,17.59c-2.112,2.5.533,6.514,3.635,4.712,8.53-4.956,16.176-11.146,23.775-17.4l-4.712-3.635a28.186,28.186,0,0,1-7.69,9.434l4.711,3.636a34.025,34.025,0,0,1,4.112-4.622L62.234,50.8c-.811,6.354-7.752,12.309-12.844,15.556a23.283,23.283,0,0,1-19.511,3.066V75.2q7.707-2.292,15.568-3.941l-2.312-5.484a33.823,33.823,0,0,1-7.672,2.479c-1.212.227-8.781,1.094-9.226-.015.27.673,9.93-5.069,11.073-5.852,7.611-5.217,14.126-11.8,20.548-18.377L52.844,42.69a7.337,7.337,0,0,0,.938,2.389c1.206,2.12,3.9,1.741,5.18,0,.974-1.321,1.846-2.634,2.687-4.044l-4.712.608c2.137,2.4,5.046,4.308,8.366,3.21a5.307,5.307,0,0,0,3.373-6.936,3.042,3.042,0,0,0-5.483-.717,17.7,17.7,0,0,0-3.356,10.823c.014,2.774,3.19,3.728,5.122,2.122A50.844,50.844,0,0,0,75.349,38.3l-5.483-2.312c-.419,2.177,0,3.524.235,5.688.34,3.1-.5,5.774-1.5,8.68a28.066,28.066,0,0,1-8.694,12.8C50.951,70.87,40.562,77.9,28.31,74.177c-3.237-.984-6.608-3.322-3.675-7.129,1.495-1.941,4.422-3.294,6.46-4.528,4.113-2.492,8.239-4.922,11.812-8.173,7.239-6.588,12.252-15.649,21.8-19.275l-3.69-2.1c.236,1.034-2.152,5.4-2.37,6.606-.685,3.775,5.1,5.394,5.785,1.595Z"/><path class="a" d="M57.8,54.516c-1.647,1.475-3.34,2.9-5.1,4.235a3.1,3.1,0,0,0-1.076,4.1c.744,1.271,2.805,2.059,4.1,1.076,2.174-1.643,4.288-3.354,6.318-5.172A3,3,0,0,0,57.8,54.516Z"/><path class="a" d="M59.065,36.479a4.458,4.458,0,0,0-.387-1.869,4.294,4.294,0,0,0-1.044-1.553,3.142,3.142,0,0,0-2.121-.879,3.05,3.05,0,0,0-2.121.879,3,3,0,0,0,0,4.242,2.061,2.061,0,0,1,.221.237l-.469-.607a2.009,2.009,0,0,1,.2.351l-.3-.716a1.942,1.942,0,0,1,.111.389l-.107-.8a2.051,2.051,0,0,1,.017.323,3,3,0,0,0,3,3,3.027,3.027,0,0,0,2.121-.878,3.188,3.188,0,0,0,.879-2.122Z"/><path class="b" d="M72.751,36.145a75.9,75.9,0,0,1-7.98,17.7c-2.891,4.678-5.933,6.881-10.364,9.891-4.607,3.129-8.187,5.733-13.77,6.777-5.779,1.08-10.919,2.606-16.807.873l-1.595,5.785c9.075,1.539,19.223,1.963,27.751-2.071,4.466-2.111,7.883-5.718,11.509-8.971,4-3.586,7.832-7.132,10.713-11.707,2.063-3.277-3.127-6.291-5.181-3.028-2.461,3.908-5.769,6.9-9.174,9.957-3.083,2.771-6,5.963-9.675,7.952-7.184,3.884-16.547,3.406-24.348,2.083-3.74-.635-5.372,4.673-1.595,5.785C28.548,79.033,34.48,78,40.717,76.6c3.291-.742,6.282-1.013,9.328-2.634a76.342,76.342,0,0,0,7.39-5.043c4.824-3.335,8.358-5.626,11.615-10.623A81.244,81.244,0,0,0,78.536,37.74c1.136-3.7-4.654-5.281-5.785-1.595Z"/><path class="b" d="M71.545,39.854A50.48,50.48,0,0,1,66,51.52c-2.014,2.985,2.266,5.724,4.712,3.636,2.4-2.05,3.273-4.965,4.511-7.764,1.528-3.454-3.393-6.528-5.18-3.028a80.746,80.746,0,0,1-10.41,15.7c-2.04,2.4.684,6.854,3.636,4.712l1.846-1.34L61.483,58.72c-2.219,2.847-4.37,6.607-7.5,8.547-3.223,2-6.743,3.23-9.875,5.5a3.016,3.016,0,0,0,2.311,5.484,9.429,9.429,0,0,0,2.874-.955l-3.028-5.18c-6.976,3.25-16.109,5.859-22.408-.394-2.743-2.724-6.987,1.517-4.242,4.242,8.355,8.3,20.177,5.76,29.678,1.332,3.5-1.632.455-6.78-3.028-5.18l-1.441.349,2.312,5.483c3.468-2.508,7.543-3.8,11.005-6.189,3.124-2.158,5.29-5.84,7.59-8.791,1.876-2.407-.6-6.912-3.636-4.712l-1.846,1.34L63.88,64.3a87.3,87.3,0,0,0,11.347-16.91l-5.18-3.028c-1,2.254-1.65,4.906-3.574,6.549l4.712,3.635a56.935,56.935,0,0,0,6.146-13.1c1.284-3.649-4.51-5.218-5.786-1.595Z"/><path class="c" d="M57.594,29.21a33.359,33.359,0,0,0,4.718-1.824c1.3-.615.71-2.965-.757-2.795a19.539,19.539,0,0,0-4.521,1.015l1.156,2.742a15.4,15.4,0,0,0,2.9-1.427c1.545-.863.457-3.066-1.156-2.742a12.392,12.392,0,0,0-3.084.831l1.156,2.742,4.211-2.129c1.5-.756.45-3.336-1.156-2.742l-2.461.912,1.156,2.741,2.781-1.363a1.524,1.524,0,0,0,.3-2.356c.975,1.263,1.076.754,2.133-.068,1.279-.994-.148-2.791-1.459-2.507l-1.662.361c-1.623.352-1.3,3.134.4,2.946l2.769-.306-1.06-2.561-1.817,1.636a1.51,1.51,0,0,0,1.459,2.507c2.026-.7,5.721-3.308,5.85.958l2.947-.4a8.572,8.572,0,0,1-.852-2.9l-1.845,1.845.609.57,2.122-2.121c-2.793-2.2-5.782-2.261-9.031-.86-2.31,1-4.327,2.613-6.583,3.729A33.457,33.457,0,0,1,45.1,28.874a1.5,1.5,0,0,0,0,3,49.769,49.769,0,0,0,24.263-4.8c1.362-.642.675-2.847-.757-2.795l-4.645.166.4,2.947a28.947,28.947,0,0,0,3.726-.919,1.5,1.5,0,0,0-.8-2.893,44.493,44.493,0,0,0-5.114,1.252,1.507,1.507,0,0,0,.4,2.946l5.487-.093-1.3-2.257c-2.005,3.767-1.278,7.384-.041,11.322a1.513,1.513,0,0,0,2.507.662l8.31-9.956c1-1.2-.339-3.44-1.818-2.356l-6.2,4.547,2.2,1.694.432-1.829a1.521,1.521,0,0,0-2.2-1.694,5.956,5.956,0,0,0-3.424,7.3,1.516,1.516,0,0,0,2.742.358,29.351,29.351,0,0,0,2.559-6.836c.375-1.571-2.026-2.777-2.741-1.156-1.154,2.617-1.383,5.15-1.932,7.949-.367,1.874,2.4,2.686,2.893.8.959-3.655,2.03-9.294,1.294-12.985-.638-3.2-2.916-2-5.1-3.1l.3,2.356c1.943-1.912,4.864.255,5.819,1.75,1.665,2.606.456,3.691-.078,6.548l2.742-.358q-1.309-3.455.863-5.712L73.15,23.574c-.42,1.351-.224,1.4-.033,2.769.357,2.557.826,3.128.626,5.685-.3,3.851.9,6.927,2.823,10.214a1.512,1.512,0,0,0,2.8-.757A68.388,68.388,0,0,0,77.79,27.051c-.409-1.886-3.3-1.088-2.893.8a64.354,64.354,0,0,1,1.465,13.636l2.8-.757c-2.169-3.711-2.239-6.549-2.106-10.663.049-1.538-1.411-4.4-1.008-5.693.544-1.747-1.788-2.423-2.742-1.156a8.1,8.1,0,0,0-.863,8.74A1.514,1.514,0,0,0,75.18,31.6c.751-4.015,3.32-8.645-1.273-11.325-2.58-1.506-7.208-2.131-9.482.108a1.512,1.512,0,0,0,.3,2.356c1.815.907,3.152.361,3.515,2.722.445,2.894-.375,7.27-1.084,9.971l2.893.8c.48-2.449.606-4.912,1.629-7.233L68.94,27.839a24.9,24.9,0,0,1-2.257,6.12l2.741.358,2.046-3.91-2.2-1.694-.432,1.828c-.273,1.155,1.08,2.518,2.2,1.694l6.2-4.546L75.42,25.333l-8.31,9.956,2.508.661c-.95-3.023-1.9-5.936-.261-9.01a1.516,1.516,0,0,0-1.3-2.257l-5.487.093.4,2.946a44.489,44.489,0,0,1,5.114-1.251l-.8-2.893a28.866,28.866,0,0,1-3.726.919c-1.67.3-1.276,3.007.4,2.946l4.645-.166-.757-2.8A46.578,46.578,0,0,1,45.1,28.874v3a37.873,37.873,0,0,0,10.867-2.562c3.88-1.6,10.283-7.622,14.348-4.417a1.5,1.5,0,0,0,2.122-2.121A3.6,3.6,0,0,0,70.5,21.432c-1.152-.471-2.042.857-1.845,1.845a8.577,8.577,0,0,0,.852,2.9c.577,1.469,3,1.421,2.946-.4-.214-7.107-4.222-5.723-9.648-3.851l1.46,2.507L66.086,22.8a1.514,1.514,0,0,0-1.061-2.56l-2.769.306.4,2.946,1.661-.36-1.459-2.507c-1.6,1.246-4.04,1.844-2.134,4.31l.3-2.356-2.782,1.364c-1.507.739-.446,3.335,1.156,2.742l2.461-.912-1.156-2.741L56.5,25.161A1.507,1.507,0,0,0,57.652,27.9a12.4,12.4,0,0,1,3.083-.831L59.58,24.33a15.343,15.343,0,0,1-2.9,1.427c-1.55.663-.442,3.313,1.156,2.742a11.7,11.7,0,0,1,3.723-.908L60.8,24.8a19.055,19.055,0,0,1-4,1.521c-1.845.554-1.059,3.451.8,2.893Z"/><path class="c" d="M53.92,28.412c3.065-1,5.038-3.539,8.421-3.873,1.9-.189,1.923-3.19,0-3a13.372,13.372,0,0,0-4.75,1.291c-1.558.777-2.8,2.143-4.468,2.689-1.827.6-1.045,3.5.8,2.893Z"/><path class="c" d="M74.514,20l3.275-4.086a1.5,1.5,0,0,0-2.121-2.121,8.587,8.587,0,0,0-2.858,5.145l2.946.4c-.25-3.873,3.553-3.679,5.594-5.907.812-.888.31-2.661-1.061-2.561-2.229.163-4.387.806-5.337,3.018A1.508,1.508,0,0,0,77.308,15.7a10.926,10.926,0,0,1,6.413-2.5c1.918-.115,1.931-3.115,0-3a14.3,14.3,0,0,0-8.535,3.383L77.542,15.4c.52-1.211,1.553-1.445,2.747-1.533l-1.061-2.561c-1.3,1.421-3.432,1.628-4.787,3.068a6.577,6.577,0,0,0-1.685,4.961c.1,1.575,2.658,2.17,2.946.4a6.023,6.023,0,0,1,2.087-3.821l-2.121-2.121-3.275,4.085c-1.2,1.493.913,3.629,2.121,2.122Z"/><path class="d" d="M19.1,72.066c-.025,1.115.016,2.2.1,3.314.145,1.913,3.146,1.929,3,0a14.334,14.334,0,0,1,3.2-10.849,1.514,1.514,0,0,0-1.46-2.507c-4.691.745-4.279,5.316-5.927,8.8-.815,1.72,1.619,3.216,2.59,1.514a45.55,45.55,0,0,1,9.329-11.527,1.511,1.511,0,0,0-1.46-2.507,11.111,11.111,0,0,0-7.808,7.263c-.578,1.537,1.482,2.322,2.507,1.46,8.21-6.907,17.849-12.131,25.363-19.864,3.5-3.6,5.805-9.138,10.435-11.066,3.348-1.394,6.4-2.367,7.134-6.388a1.52,1.52,0,0,0-2.2-1.694q-4.686,2.886-9.285,5.9l2.2.9-.06-.427a1.438,1.438,0,0,0-1.047-1.048c-4.83-.7-8.574,8.19-11.073,11.12A52.361,52.361,0,0,1,25.3,58.491c-1.768.762-.242,3.348,1.514,2.59a55.268,55.268,0,0,0,15.55-9.963,53.01,53.01,0,0,0,6.013-6.527c1.608-2.063,5.884-6.571,5.545-8.984a1.508,1.508,0,0,0,2.2.9q4.6-3.018,9.285-5.9l-2.2-1.694c-.85,4.629-7.341,3.9-10.05,7.149-3.083,3.7-5.293,7.744-8.914,11.084-7.169,6.613-15.742,11.489-23.2,17.76l2.507,1.46a7.846,7.846,0,0,1,5.713-5.168l-1.46-2.507a47.883,47.883,0,0,0-9.8,12.134l2.59,1.514c1.11-2.342,1.1-6.934,4.135-7.416L23.28,62.41A17.285,17.285,0,0,0,19.2,75.38h3c-.084-1.112-.125-2.2-.1-3.314.042-1.931-2.958-1.931-3,0Z"/><path d="M56.088,31.482a11.663,11.663,0,0,0-4.994,4.082c-1.543,1.9-2.978,3.881-4.588,5.728a73.651,73.651,0,0,1-10.792,10.16,65.05,65.05,0,0,1-6.427,4.339c-2.1,1.239-4.346,2.247-6.369,3.611a12.276,12.276,0,0,0-5.441,10.64,12.623,12.623,0,0,0,6.1,10.357c3.826,2.359,8.54,3.073,12.97,2.876,10.056-.446,19.248-5.664,26.047-12.87a64.838,64.838,0,0,0,9.582-13.523c2.883-5.281,5.487-10.869,4.781-17.03-.071-.616-.653-1.358-1.329-1.093-.744.291-.765,1.366-.69,2,.58,4.916-1.993,9.711-4.347,13.833a67.655,67.655,0,0,1-7.616,10.86C57.057,72.258,49.207,77.788,40.2,79.44a25.82,25.82,0,0,1-12.89-.608c-3.655-1.248-7.3-3.731-8.142-7.738-.923-4.4,1.49-8.275,5.2-10.45,3.8-2.226,7.672-4.158,11.26-6.737A65.306,65.306,0,0,0,46.89,43.694a55.953,55.953,0,0,0,4.467-5.768,25.183,25.183,0,0,1,4.909-5.859c.17-.139.111-.686-.178-.585Z"/><path d="M42.636,29.179c3.4,1.752,7.281.4,10.247-1.594,3.356-2.255,6.264-5.206,10.07-6.732,3.54-1.42,7.713-1.578,10.973.634a7.751,7.751,0,0,1,3.095,3.9c.7,2.1.451,4.4.467,6.577a41,41,0,0,0,2.573,13.876l1.1-1.769a18.441,18.441,0,0,1-6.435-12.886c-.036-.577-.669-2.019-1.434-1.192a22.987,22.987,0,0,0-5.44,9.915l1.611-.039a37.5,37.5,0,0,1-2.906-11.966c-.037-.509-.421-1.745-1.214-1.341-6.668,3.4-15.7,7.727-22.607,2.408-1.033-.8-1.5,1.478-.745,2.094,7.276,5.922,16.67,1.919,23.915-1.774l-1.214-1.341a41.924,41.924,0,0,0,3.2,13.393c.341.806,1.364.924,1.611-.039a20.438,20.438,0,0,1,4.8-8.88L72.86,31.235a21.488,21.488,0,0,0,7.512,15.058c1.011.856,1.321-1.18,1.1-1.769a38.1,38.1,0,0,1-2.384-13.5c.005-3.83-.18-7.633-3.048-10.495a11.548,11.548,0,0,0-9.823-3c-4.078.6-7.43,2.825-10.54,5.4-3.79,3.133-7.848,6.27-13.026,6.024-.107,0-.084.2-.015.231Z"/><path d="M70.983,18.984c.186-.026.337.127.524.115a.805.805,0,0,0,.422-.2,3.686,3.686,0,0,0,.944-1.079c.484-.774.873-1.608,1.283-2.423a7.049,7.049,0,0,1,1.627-2.259,8.135,8.135,0,0,1,2.751-1.477,13.359,13.359,0,0,1,3.491-.573c.584-.032,1.168-.035,1.752-.034a5.157,5.157,0,0,1,.843.016c.078.013.257.026.312.1-.128-.168-.15.018-.313.133a4.355,4.355,0,0,1-1.447.451,9.341,9.341,0,0,0-4.244,2.454,15.6,15.6,0,0,0-2.092,2.705,16.115,16.115,0,0,0-1.745,3.29c-.176.526.268,1.718.854.956.744-.966,1.2-2.19,1.863-3.221a12.965,12.965,0,0,1,2.33-2.78,9.276,9.276,0,0,1,3.344-1.9c1.032-.325,2.137-.577,2.383-1.8a1.559,1.559,0,0,0-1.306-1.99A22.918,22.918,0,0,0,80.5,9.309,8.27,8.27,0,0,0,74.16,12.08,13.993,13.993,0,0,0,72.4,15.291c-.249.562-.537,1.087-.829,1.626-.134.248-.285.494-.412.744-.162.319-.122.7-.275,1-.039.075-.054.344.1.322Z"/></svg>