<svg xmlns="http://www.w3.org/2000/svg" width="100" height="100" viewBox="0 0 100 100"><defs><style>.a{fill:#93603e;}.b{fill:#34b743;}.c{fill:#1d4921;}.d{fill:#bad362;}</style></defs><title>avacado</title><path d="M42.852,20.343a3.5,3.5,0,0,0-.99-1.21c-.431-.418-.889-.808-1.341-1.2-.816-.716-1.647-1.419-2.442-2.16a8.609,8.609,0,0,1-1.788-2.155c-.368-.684-.552-1.847-1.535-1.851-.3,0-.426.354-.482.587-.769,3.2-1.4,7.04,1.15,9.637A4.722,4.722,0,0,0,39.3,23.445a3.9,3.9,0,0,0,3.259-2.471c.142-.39-.245-1.338-.652-.729a3.822,3.822,0,0,1-6.059.357c-1.981-2.139-1.184-5.34-.571-7.86l-.482.588c.283,0,.4.589.493.8a6.883,6.883,0,0,0,.71,1.2,12.481,12.481,0,0,0,1.874,1.95c.754.658,1.527,1.294,2.292,1.938.427.359.848.725,1.293,1.061.352.266.722.678,1.191.659.266-.011.27-.414.2-.588Z"/><path d="M41.732,26.719a4.134,4.134,0,0,0,.514-1.274c.163-.515.3-1.033.413-1.56q.359-1.62.587-3.265c.156-1.123.261-2.252.328-3.385.031-.524,0-1.069.066-1.59s.32-.548.778-.428a13.414,13.414,0,0,1,2.729,1.093c.222.115.442.235.657.362a4.237,4.237,0,0,0,.687.432l.062.044q.273.231.085-.473c-.04,0-.163.142-.2.169-.173.135-.361.25-.534.386a9.362,9.362,0,0,0-2.582,3.9c-.34.818-.643,1.651-1,2.462-.374.853-.984,1.605-1.306,2.467-.11.295.033,1.354.566,1.057A4.716,4.716,0,0,0,45.1,24.88c.408-.88.738-1.793,1.1-2.692a11.91,11.91,0,0,1,1.228-2.409,5.387,5.387,0,0,1,.875-.978,5.62,5.62,0,0,0,1.13-.969,1.644,1.644,0,0,0,.161-1.439,2.3,2.3,0,0,0-1.138-1.07,15.452,15.452,0,0,0-3.238-1.506c-.792-.261-1.714-.556-2.259.3a2.966,2.966,0,0,0-.364,1.558c-.014.682-.007,1.364-.035,2.047a40.066,40.066,0,0,1-.432,4.387c-.116.759-.269,1.51-.408,2.265a10.356,10.356,0,0,0-.316,2.155c.007.18.173.4.324.194Z"/><path d="M49.7,34.169a12.15,12.15,0,0,0-3.921-6.833,7.031,7.031,0,0,0-7.8-.5A19.646,19.646,0,0,0,32.11,32.2a28,28,0,0,0-2.079,3.35c-.645,1.081-1.325,2.1-1.9,3.223-2.688,5.306-5.292,10.645-6.022,16.631A25.82,25.82,0,0,0,23.482,65.91c.874,2.9,3.024,5.344,5.233,7.34a11.781,11.781,0,0,0,9.674,3,28.992,28.992,0,0,0,9.965-3.374c.965-.531.56-3.1-.519-2.513a32.9,32.9,0,0,1-7.645,2.88,11.613,11.613,0,0,1-8.617-.716c-5.282-2.983-7.935-9.124-8.045-14.986-.105-5.62,2.525-10.829,4.892-15.752.951-1.978,2.109-3.783,3.156-5.7a20.758,20.758,0,0,1,4.553-5.651c2.333-2.029,5.383-3.337,8.358-1.85,2.5,1.252,3.264,3.881,5.014,5.833.136.151.218-.165.2-.25Z"/><path d="M58.044,45.238a22.584,22.584,0,0,0-5.17,6.055,10.4,10.4,0,0,0-.985,7.139,13.1,13.1,0,0,0,3.885,6.388,7.707,7.707,0,0,0,6.918,1.374,9.337,9.337,0,0,0,5.845-3.918,9.531,9.531,0,0,0,1.221-7.06,20.485,20.485,0,0,0-2.947-7.368c-1.242-1.932-2.993-4.3-5.375-4.81-2.189-.465-3.4.884-4.649,2.41-1.079,1.32-2.282,3.079-3.207,4.213a1.853,1.853,0,0,0-.278,1.892c.2.466.784.951,1.25.464,1.664-1.741,2.889-3.876,4.636-5.541,1.244-1.185,3.1-.3,4.278.875a16.526,16.526,0,0,1,3.428,5.194c.742,1.738,1.515,3.919,1.114,5.828a6.59,6.59,0,0,1-3.476,4.3,8.557,8.557,0,0,1-6.062.8c-1.906-.548-3.329-2.382-4.27-4.042-2.733-4.824,1.232-9.579,4.293-13.1.311-.358.077-1.579-.449-1.091Z"/><path d="M49.961,72.246a13.151,13.151,0,0,0,6.083,1.4c2.506.073,5.04.409,7.547.286,4.291-.21,7.974-2.219,9.891-6.144,3.981-8.156,2.327-18.044-.776-26.181a45.4,45.4,0,0,0-6.118-11.681c-2.261-2.912-6.18-6.7-10.187-4.993a12.609,12.609,0,0,0-4.5,3.944,32.919,32.919,0,0,0-3.5,5.447,58.932,58.932,0,0,0-4.832,12.24,38.3,38.3,0,0,0-.815,15.758c.72,4.128,2.886,9.084,7.084,10.656.973.364,1.059-1.561.5-1.99a14.7,14.7,0,0,1-5.776-8.723,33.714,33.714,0,0,1,.143-12.815,48.93,48.93,0,0,1,3.556-10.585,32.024,32.024,0,0,1,6.185-9.8c1.428-1.441,3.2-2.588,5.3-1.977A11.186,11.186,0,0,1,64.4,30.307c2.631,2.77,4.4,6.349,5.945,9.8,3.293,7.37,5.408,15.851,3.128,23.827a12.03,12.03,0,0,1-3.218,5.836,11.763,11.763,0,0,1-6.226,2.607,71.262,71.262,0,0,1-7.162.2,14.1,14.1,0,0,1-6.81-.973C49.773,71.47,49.725,72.118,49.961,72.246Z"/><path d="M48.2,70.972c1.688,2.846,5.9,3.683,8.942,3.82a24.414,24.414,0,0,0,5.793-.527,36.164,36.164,0,0,0,5.582-1.442c.568-.211.475-1.772-.185-1.629-1.824.4-3.6.979-5.441,1.29a26.731,26.731,0,0,1-5.469.386,19.548,19.548,0,0,1-4.984-.818c-1.381-.424-2.7-1.282-4.137-1.491-.19-.028-.153.323-.1.411Z"/><path d="M58.547,45.581c-2.285.48-4.143,3.24-4.811,5.316a1.564,1.564,0,0,0,.236,1.513.6.6,0,0,0,1.012-.117C56.05,50.532,57,48.7,58.136,46.985c.342-.514-.075-2.265-.819-1.523a18.152,18.152,0,0,0-3.65,5.584,13.6,13.6,0,0,0-1.349,7.095A10.207,10.207,0,0,0,55.1,64.15a8.345,8.345,0,0,0,5.636,2.184c1.028.03,1.078-2.291.16-2.488-1.587-.34-3.258-.564-4.566-1.611A7.045,7.045,0,0,1,53.909,57.6a11.334,11.334,0,0,1,1.129-5.393,16.627,16.627,0,0,1,2.971-5.066l-.819-1.524c-1.031,1.731-2.236,3.352-3.339,5.037l1.248,1.4a20.248,20.248,0,0,1,3.581-5.817c.1-.127.178-.72-.133-.654Z"/><path d="M66.038,55.9a2.94,2.94,0,0,0-.286.589c-.068.228-.149.451-.236.673a4.657,4.657,0,0,1-.675,1.231,3.086,3.086,0,0,1-2.01,1.233c-.321.036-.454.423-.439.706.012.219.146.738.473.683A3.769,3.769,0,0,0,65.388,59.3a5.781,5.781,0,0,0,.683-1.615,6.925,6.925,0,0,0,.162-.855,2.759,2.759,0,0,0-.046-.869c-.013-.07-.1-.143-.149-.055Z"/><path class="a" d="M65.39,59.3a5.925,5.925,0,0,0,.68-1.62,8.464,8.464,0,0,0,.16-.85,2.815,2.815,0,0,0-.04-.87c-.02-.07-.1-.14-.15-.06a3.581,3.581,0,0,0-.29.59c-.07.23-.15.45-.23.67a4.826,4.826,0,0,1-.68,1.24,3.091,3.091,0,0,1-2.01,1.23c-.32.04-.45.42-.44.7.01.22.15.74.48.69A3.781,3.781,0,0,0,65.39,59.3Zm-.86,3.38a9.238,9.238,0,0,1-4.25,1.04,9.177,9.177,0,0,1-3.81-1.39,9.96,9.96,0,0,1-1.6-1.83,7.528,7.528,0,0,1-.96-2.9,11.354,11.354,0,0,1,1.13-5.39.037.037,0,0,1,.01-.03c.53-.89,1.04-1.79,1.56-2.7a24.063,24.063,0,0,1,2.57-3.03c1.25-1.2,3.12-.29,4.29.88a16.6,16.6,0,0,1,3.44,5.2c.74,1.75,1.51,3.93,1.11,5.85A6.6,6.6,0,0,1,64.53,62.68Z"/><path class="b" d="M35.29,14.13A6.239,6.239,0,0,0,36,15.32a11.9,11.9,0,0,0,1.87,1.95c.76.66,1.53,1.3,2.29,1.94.43.36.85.73,1.3,1.06.08.06.16.14.25.21a3.813,3.813,0,0,1-5.86.12c-1.77-1.9-1.33-4.65-.78-7.01C35.17,13.77,35.23,14.01,35.29,14.13Z"/><path class="a" d="M44.32,23.6c-.36.84-.96,1.58-1.29,2.43a7.367,7.367,0,0,0-.93-.11c.05-.16.1-.32.15-.47.16-.52.29-1.04.41-1.57.24-1.07.43-2.16.59-3.26.15-1.12.26-2.25.32-3.38.04-.53.01-1.07.07-1.59s.32-.55.78-.43a13.075,13.075,0,0,1,2.73,1.09c.22.12.44.24.65.36.13.08.29.21.45.31-.11.08-.23.16-.34.25a9.3,9.3,0,0,0-2.59,3.9C44.98,21.95,44.68,22.78,44.32,23.6Z"/><path class="c" d="M44.49,28.59c2.15,1.07,3.02,3.17,4.33,4.98-.14.25-.28.5-.41.75a58.823,58.823,0,0,0-4.83,12.24,38.451,38.451,0,0,0-.82,15.76,16.71,16.71,0,0,0,3.99,8.58,34.38,34.38,0,0,1-6.56,2.34,11.6,11.6,0,0,1-8.62-.71c-5.28-2.98-7.93-9.13-8.04-14.99-.11-5.62,2.52-10.83,4.89-15.75.95-1.98,2.11-3.78,3.16-5.7a20.546,20.546,0,0,1,4.55-5.65C38.46,28.41,41.51,27.1,44.49,28.59Z"/><path class="d" d="M53.56,49.68a1.834,1.834,0,0,0-.38,1.07c-.11.18-.21.36-.31.54a10.373,10.373,0,0,0-.98,7.14,13.053,13.053,0,0,0,3.88,6.39,7.724,7.724,0,0,0,6.92,1.37,9.365,9.365,0,0,0,5.84-3.92,9.517,9.517,0,0,0,1.22-7.05,20.445,20.445,0,0,0-2.95-7.35c-1.24-1.93-2.99-4.3-5.37-4.8-2.18-.46-3.39.88-4.63,2.4-.67.81-1.32,1.65-1.96,2.48-.26.34-.5.68-.75,1.02-.1.14-.2.28-.3.41-.02.03-.16.21-.21.28C53.58,49.67,53.57,49.67,53.56,49.68Zm16.79-9.57c3.29,7.37,5.41,15.85,3.13,23.83a12.063,12.063,0,0,1-3.22,5.83,9.392,9.392,0,0,1-2.42,1.54c-1.64.39-3.26.89-4.93,1.17-2.01.15-4.03.03-6.04.1-.71.02-1.41.04-2.09.02a14.9,14.9,0,0,1-4.22-1.3.849.849,0,0,0-.21-.32,14.672,14.672,0,0,1-5.78-8.72,33.666,33.666,0,0,1,.14-12.81,48.891,48.891,0,0,1,3.56-10.59,32.024,32.024,0,0,1,6.18-9.8c1.43-1.44,3.2-2.59,5.3-1.98a11.133,11.133,0,0,1,4.65,3.23C67.03,33.08,68.8,36.66,70.35,40.11Z"/><path d="M62.39,60.33c-.01-.28.12-.66.44-.7a3.091,3.091,0,0,0,2.01-1.23,4.826,4.826,0,0,0,.68-1.24c.08-.22.16-.44.23-.67a3.581,3.581,0,0,1,.29-.59c.05-.08.13-.01.15.06a2.815,2.815,0,0,1,.04.87,8.464,8.464,0,0,1-.16.85,5.925,5.925,0,0,1-.68,1.62,3.781,3.781,0,0,1-2.52,1.72C62.54,61.07,62.4,60.55,62.39,60.33Z"/><path d="M63.47,47.33c-1.17-1.17-3.04-2.08-4.29-.88a24.063,24.063,0,0,0-2.57,3.03c-.52.91-1.03,1.81-1.56,2.7a.037.037,0,0,0-.01.03,11.354,11.354,0,0,0-1.13,5.39,7.528,7.528,0,0,0,.96,2.9,9.96,9.96,0,0,0,1.6,1.83,9.177,9.177,0,0,0,3.81,1.39,9.238,9.238,0,0,0,4.25-1.04,6.6,6.6,0,0,0,3.49-4.3c.4-1.92-.37-4.1-1.11-5.85A16.6,16.6,0,0,0,63.47,47.33ZM51.89,58.43a10.373,10.373,0,0,1,.98-7.14c.1-.18.2-.36.31-.54a1.834,1.834,0,0,1,.38-1.07c.01-.01.02-.01.02-.02.05-.07.19-.25.21-.28.1-.13.2-.27.3-.41.25-.34.49-.68.75-1.02.64-.83,1.29-1.67,1.96-2.48,1.24-1.52,2.45-2.86,4.63-2.4,2.38.5,4.13,2.87,5.37,4.8a20.445,20.445,0,0,1,2.95,7.35,9.517,9.517,0,0,1-1.22,7.05,9.365,9.365,0,0,1-5.84,3.92,7.724,7.724,0,0,1-6.92-1.37A13.053,13.053,0,0,1,51.89,58.43Z"/><path d="M35.85,20.6a3.813,3.813,0,0,0,5.86-.12c-.09-.07-.17-.15-.25-.21-.45-.33-.87-.7-1.3-1.06-.76-.64-1.53-1.28-2.29-1.94A11.9,11.9,0,0,1,36,15.32a6.239,6.239,0,0,1-.71-1.19c-.06-.12-.12-.36-.22-.54C34.52,15.95,34.08,18.7,35.85,20.6ZM48.82,33.57c-1.31-1.81-2.18-3.91-4.33-4.98-2.98-1.49-6.03-.18-8.36,1.85a20.546,20.546,0,0,0-4.55,5.65c-1.05,1.92-2.21,3.72-3.16,5.7-2.37,4.92-5,10.13-4.89,15.75.11,5.86,2.76,12.01,8.04,14.99a11.6,11.6,0,0,0,8.62.71,34.38,34.38,0,0,0,6.56-2.34,16.71,16.71,0,0,1-3.99-8.58,38.451,38.451,0,0,1,.82-15.76,58.823,58.823,0,0,1,4.83-12.24C48.54,34.07,48.68,33.82,48.82,33.57Zm-.57-16.59c-.16-.1-.32-.23-.45-.31-.21-.12-.43-.24-.65-.36a13.075,13.075,0,0,0-2.73-1.09c-.46-.12-.72-.1-.78.43s-.03,1.06-.07,1.59c-.06,1.13-.17,2.26-.32,3.38-.16,1.1-.35,2.19-.59,3.26-.12.53-.25,1.05-.41,1.57-.05.15-.1.31-.15.47a7.367,7.367,0,0,1,.93.11c.33-.85.93-1.59,1.29-2.43.36-.82.66-1.65,1-2.47a9.3,9.3,0,0,1,2.59-3.9C48.02,17.14,48.14,17.06,48.25,16.98ZM50.56,71.3a14.9,14.9,0,0,0,4.22,1.3c.68.02,1.38,0,2.09-.02,2.01-.07,4.03.05,6.04-.1,1.67-.28,3.29-.78,4.93-1.17a9.392,9.392,0,0,0,2.42-1.54,12.063,12.063,0,0,0,3.22-5.83c2.28-7.98.16-16.46-3.13-23.83-1.55-3.45-3.32-7.03-5.95-9.8a11.133,11.133,0,0,0-4.65-3.23c-2.1-.61-3.87.54-5.3,1.98a32.024,32.024,0,0,0-6.18,9.8,48.891,48.891,0,0,0-3.56,10.59,33.666,33.666,0,0,0-.14,12.81,14.672,14.672,0,0,0,5.78,8.72A.849.849,0,0,1,50.56,71.3Zm1.35-42.43a12.685,12.685,0,0,1,4.49-3.94c4.01-1.71,7.93,2.08,10.19,4.99A45.856,45.856,0,0,1,72.71,41.6c3.1,8.14,4.75,18.03.77,26.18a10.449,10.449,0,0,1-4.74,4.82.445.445,0,0,1-.23.22c-.49.19-1,.35-1.52.5-.27.09-.56.16-.85.23-1.06.28-2.14.5-3.21.72a24.483,24.483,0,0,1-5.79.52,14.937,14.937,0,0,1-6.91-1.81.5.5,0,0,1-.38-.01,7.643,7.643,0,0,1-1.12-.53.966.966,0,0,1-.38.44,29.085,29.085,0,0,1-9.96,3.37,11.8,11.8,0,0,1-9.68-3c-2.2-2-4.35-4.44-5.23-7.34A25.925,25.925,0,0,1,22.11,55.4c.73-5.98,3.34-11.32,6.03-16.63.57-1.12,1.25-2.14,1.89-3.22a27.505,27.505,0,0,1,2.08-3.35,19.675,19.675,0,0,1,5.88-5.36,8.292,8.292,0,0,1,3.45-.92c.06-.52.19-1.05.28-1.55.14-.75.3-1.51.41-2.27.02-.13.03-.26.05-.39a4,4,0,0,1-2.88,1.73,4.726,4.726,0,0,1-3.88-1.45c-2.55-2.6-1.91-6.44-1.15-9.64.06-.23.18-.59.49-.59.98.01,1.16,1.17,1.53,1.85a8.629,8.629,0,0,0,1.79,2.16c.79.74,1.63,1.44,2.44,2.16.45.4.91.78,1.34,1.2.19.19.39.36.57.55.06-.65.11-1.31.13-1.96.03-.68.02-1.37.04-2.05a3.015,3.015,0,0,1,.36-1.56c.55-.85,1.47-.55,2.26-.29a15.376,15.376,0,0,1,3.24,1.5,2.329,2.329,0,0,1,1.14,1.07,1.659,1.659,0,0,1-.16,1.44,5.522,5.522,0,0,1-1.13.97,5.46,5.46,0,0,0-.88.98,11.9,11.9,0,0,0-1.23,2.41c-.36.9-.69,1.81-1.1,2.69a9.685,9.685,0,0,1-.81,1.56,6.043,6.043,0,0,1,1.49.9,11.923,11.923,0,0,1,3.53,5.35A30.96,30.96,0,0,1,51.91,28.87Z"/></svg>