<svg xmlns="http://www.w3.org/2000/svg" width="100" height="100" viewBox="0 0 100 100"><defs><style>.a{fill:#46af46;}.b{fill:#3f893f;}</style></defs><title>beans-other</title><path class="a" d="M48.711,42.584l1.5-1.186L48.09,39.276l-1.385,1.189,2.122,2.121c3.81-3.405,7.733-7.989,9.8-12.7.767-1.752-1.817-3.28-2.59-1.514-1.979,4.515-5.666,8.817-9.327,12.089-1.449,1.295.669,3.368,2.122,2.121L50.211,41.4c1.487-1.276-.639-3.294-2.121-2.122l-1.5,1.186c-1.514,1.2.622,3.307,2.121,2.122Z"/><path class="a" d="M59.406,26.126l-.5-.8a1.526,1.526,0,0,0-2.356-.3c-2.061,1.723-3.277,4.944-4.962,7.064a102.679,102.679,0,0,1-6.976,7.979,54.951,54.951,0,0,1-8.308,7.11c-2.316,1.57-5.173,2.582-7.1,4.64-.794.849-.315,2.73,1.061,2.561,3.824-.471,7.441-2.775,10.461-5.071,2.986-2.268,5.282-6.194,8.876-6.659l-1.5-1.5c.011.5-2.963,2.872-3.422,3.281a47.8,47.8,0,0,1-5.832,4.355,78.071,78.071,0,0,1-10.435,5.6c-1.687.759-.368,2.966,1.155,2.742,7.6-1.12,15.182-2.29,22.669-4.036,1.889-.44,1.083-3.279-.8-2.892-1.637.336-3.2.732-4.8,1.215a1.5,1.5,0,0,0,.8,2.893q6.267-1.184,12.463-2.66a1.507,1.507,0,0,0-.4-2.946l-2.717.062.757,2.795A18.765,18.765,0,0,0,66.508,42.2c1.7-3.673,4.133-8.033,4.33-12.144a1.514,1.514,0,0,0-2.56-1.061c-4.234,5.281-6.707,11.962-11.06,17.291-1.005,1.232.271,3.334,1.818,2.356,4.487-2.835,6.5-7.435,9.494-11.638l-2.742-1.156a13.759,13.759,0,0,1-2.135,4.6c-1.108,1.586,1.491,3.087,2.591,1.514a15.654,15.654,0,0,0,2.437-5.313,1.508,1.508,0,0,0-2.742-1.156c-2.631,3.7-4.452,8.056-8.417,10.562l1.818,2.356C63.7,43.072,66.162,36.4,70.4,31.116l-2.561-1.061c-.144,3.02-2.457,7.206-3.682,10.014a16.357,16.357,0,0,1-8.128,8.893,1.512,1.512,0,0,0,.757,2.8L59.5,51.7l-.4-2.947q-6.2,1.479-12.463,2.66l.8,2.893c1.6-.483,3.163-.879,4.8-1.216l-.8-2.892c-7.487,1.745-15.068,2.915-22.669,4.035l1.156,2.742A71.822,71.822,0,0,0,44.168,48.7c1.954-1.494,6.995-4.739,6.934-7.552-.016-.732-.679-1.606-1.5-1.5-2.342.3-3.375.266-5.331,2.173-3.819,3.725-8.319,8.857-14.006,9.557l1.061,2.561c2.178-2.33,5.881-3.654,8.453-5.589a60.968,60.968,0,0,0,6.953-6.161c2.279-2.336,4.409-4.814,6.466-7.346,1.808-2.226,3.379-5.948,5.473-7.7l-2.356-.3.5.8c1.023,1.632,3.62.128,2.59-1.514Z"/><path class="a" d="M13.587,61.751c6.387.379,11.853-4.346,17.038-7.489l-2.2-1.694c-.445,1.4-3.1,2.929-4.231,3.682a31.813,31.813,0,0,1-4.851,2.585c-1.764.775-.239,3.36,1.514,2.59,3.291-1.445,9.265-4.287,10.461-8.059a1.516,1.516,0,0,0-2.2-1.694c-4.6,2.787-9.911,7.412-15.524,7.079-1.929-.115-1.922,2.886,0,3Z"/><path class="a" d="M17.724,55.153a2.8,2.8,0,0,0-1.244-.134,1.525,1.525,0,0,0-1.473,1.3,1.482,1.482,0,0,0,1.075,1.646,26.733,26.733,0,0,0,5.2.282c1.921-.095,1.933-3.1,0-3a22.785,22.785,0,0,1-4.407-.175l-.4,2.946a.471.471,0,0,1,.447.027c1.84.6,2.628-2.3.8-2.893Z"/><path class="a" d="M33.223,58.331,43.3,56.908l-.8-2.892L29.079,57.141c-1.907.444-1.073,3.212.8,2.893,7.234-1.235,14.45-2.514,21.55-4.392a1.5,1.5,0,0,0-.8-2.893c-7.1,1.878-14.316,3.157-21.551,4.392l.8,2.893L43.3,56.908c1.929-.449,1.057-3.154-.8-2.892L32.425,55.438c-1.9.269-1.093,3.16.8,2.893Z"/><path class="a" d="M54.608,50.2a12,12,0,0,0-3.4,1.7,1.513,1.513,0,0,0,.757,2.8,17.065,17.065,0,0,0,5.891-1.059L56.7,50.9c-5.8,2.622-9.01,8.606-14.85,11.126l1.818,2.356,9.246-8.144c1.258-1.108-.445-3.385-1.817-2.356a80.7,80.7,0,0,1-17.212,9.927l1.156,2.741,1.376-.894c1.347-.875.517-3.369-1.156-2.741a49.22,49.22,0,0,1-14.412,3.121l.4,2.946C26.5,67.57,31.343,65.2,36.459,63.432c4.664-1.609,9.526-2.294,13.949-4.568,1.718-.884.2-3.473-1.514-2.591-4.653,2.393-9.957,3.024-14.835,4.847-4.538,1.7-8.912,3.705-13.6,4.965-1.595.429-1.326,3.056.4,2.947A52.116,52.116,0,0,0,36.063,65.8l-1.156-2.741-1.377.894c-1.338.87-.49,3.434,1.156,2.742A83.7,83.7,0,0,0,52.615,56.469L50.8,54.113,41.55,62.257c-1.387,1.221.382,2.975,1.818,2.356,5.864-2.531,9.062-8.512,14.85-11.126,1.536-.694.442-3.323-1.156-2.742a14.978,14.978,0,0,1-5.093.952l.757,2.795,2.68-1.4c1.785-.683,1.01-3.584-.8-2.893Z"/><path class="a" d="M48.446,60.6a18.822,18.822,0,0,0,6.806-5.154c1.215-1.46-.738-3.518-2.121-2.122l-3.073,3.1a1.5,1.5,0,0,0,2.121,2.121l3.073-3.1-2.121-2.122a16.878,16.878,0,0,1-6.2,4.686c-1.76.784-.236,3.37,1.514,2.59Z"/><path class="a" d="M23.815,78.5q.337-.072.679-.12l-.4.054c.142-.019.285-.034.429-.047a1.6,1.6,0,0,0,1.06-.439,1.5,1.5,0,0,0-1.06-2.561,12.34,12.34,0,0,0-1.508.22,1.511,1.511,0,0,0-1.048,1.845A1.536,1.536,0,0,0,23.815,78.5Z"/><path class="b" d="M81.114,26.03A3.361,3.361,0,0,1,82.721,25l-.133-.649a3.373,3.373,0,0,0-1.543,2.367l.448.175a4.7,4.7,0,0,1,.321-1.216c.076-.183-.007-.6-.277-.517a1.032,1.032,0,0,0-.6.884,7.563,7.563,0,0,0-.034,1.688l.471-.109a2.806,2.806,0,0,1-.017-1.881c.087-.185-.093-.777-.352-.509a1.635,1.635,0,0,0-.241,1.583,2.746,2.746,0,0,0,.839,1.522c.177.146.351-.067.367-.24q.114-1.266.141-2.537c.008-.405-.411-.519-.51-.093a5.139,5.139,0,0,0-.138,2.071,2.746,2.746,0,0,0,.329.89,3.6,3.6,0,0,1,.513.876l.377-.464a2.82,2.82,0,0,1-.818-1.568l-.493.221q.15.664.239,1.34l.417-.388a4.408,4.408,0,0,1-.585-.978c-.062-.145-.209-.245-.348-.13a.5.5,0,0,0-.078.528q.389,1.029.777,2.056a.231.231,0,0,0,.284.167c.138-.054.168-.243.173-.369a1.947,1.947,0,0,1,.088-.484l-.453-.079c.014.1.054.432-.03.51-.06.055-.207-.079-.268-.1a1.1,1.1,0,0,0-.676-.019l.207.68.359-.281c.171-.133.159-.749-.143-.7a.94.94,0,0,0-.656.409c-.137.189-.078.624.195.652a.323.323,0,0,0,.2-.037l-.262-.638a.815.815,0,0,0,.012.845.824.824,0,0,0,.775.3c.334,0,.319-.752-.018-.755l-.947-.006.141.694a4.615,4.615,0,0,1,1.065-.8c.258-.141.2-.833-.147-.708l-.223.079c-.257.092-.184.524-.041.674a1.1,1.1,0,0,0,.924.406c.364-.1.356-.664.347-.955l-.465.108a2.593,2.593,0,0,0,.7,1.4l.165-.658a.613.613,0,0,0-.733.3l.338-.008-.026-.079c-.014-.136-.069-.366-.251-.361l-.494.013c-.331.008-.245.543-.106.7a1.674,1.674,0,0,0,.767.5c.333.106.357-.554.106-.676a2.145,2.145,0,0,1-.642-.475l-.107.7.5-.023-.24-.264a1.266,1.266,0,0,0,.173.491.191.191,0,0,0,.338-.008.225.225,0,0,1,.274-.112c.354.1.317-.5.165-.658a1.769,1.769,0,0,1-.47-.98c-.062-.41-.473-.248-.464.108.005.228.051.265-.176.177a1.064,1.064,0,0,1-.392-.281l-.041.673.224-.077-.147-.708a5.147,5.147,0,0,0-1.181.866c-.164.161-.17.689.141.694l.946.013-.018-.755a1.669,1.669,0,0,1-.2,0c-.129-.071-.195-.022-.2.149.088-.163.073-.8-.262-.638l-.063.008.194.652a.45.45,0,0,1,.3-.187l-.143-.7-.356.288c-.21.169-.13.767.206.679.27-.071.42.054.646.156a.349.349,0,0,0,.435-.113,1.82,1.82,0,0,0,.215-1.361c-.035-.267-.361-.376-.453-.079a3.394,3.394,0,0,0-.148.865l.457-.2q-.385-1.032-.77-2.063l-.426.4a5.16,5.16,0,0,0,.663,1.138c.263.339.446-.162.417-.389q-.085-.677-.232-1.342c-.032-.147-.149-.336-.325-.268s-.194.336-.168.489a3.7,3.7,0,0,0,1.061,2.048c.259.257.419-.288.377-.464-.143-.595-.631-.991-.8-1.566a3.71,3.71,0,0,1,.095-1.846l-.51-.093q-.02,1.168-.119,2.332l.367-.24a1.765,1.765,0,0,1-.549-.879c-.08-.255-.236-.683-.022-.906l-.352-.509a3.71,3.71,0,0,0,0,2.459c.1.4.493.268.471-.109a11.565,11.565,0,0,1-.012-1.235c.013-.255.027-.552.307-.641l-.277-.518a5.431,5.431,0,0,0-.356,1.391c-.016.14.011.373.171.427s.258-.121.277-.252A2.727,2.727,0,0,1,82.721,25c.22-.141.206-.749-.133-.649a2.746,2.746,0,0,0-1.662,1.329c-.066.115.03.534.188.349Z"/><path class="b" d="M56.793,23.849a5.735,5.735,0,0,0,1.971.22l-.126-.62a1.122,1.122,0,0,1-.716.232,1.091,1.091,0,0,1-.376-.1,1.116,1.116,0,0,1-.373-.2l.076.256v-.058l-.111.318a1.217,1.217,0,0,1,.481-.173,3.646,3.646,0,0,1,.5-.084A9.239,9.239,0,0,1,59.2,23.61a7.8,7.8,0,0,0,2.1-.154,1.809,1.809,0,0,0,.223-.04c.085.015.088-.043.009-.173a.3.3,0,0,1-.126.071,1.717,1.717,0,0,1-.495.07,9.657,9.657,0,0,1-1.2.009c-.4-.018-.8-.049-1.193-.084a2.512,2.512,0,0,1-1.026-.257l.018.733a2.565,2.565,0,0,1,1.385-.126c.355.067.41-.654.111-.715a2.991,2.991,0,0,0-1.647.112c-.285.1-.192.612.018.732a2.988,2.988,0,0,0,1.333.287c.509.031,1.018.059,1.528.051.247,0,.494-.017.739-.043a1.719,1.719,0,0,0,.664-.149.746.746,0,0,0,.257-1c-.241-.407-.76-.153-1.122-.1a9.312,9.312,0,0,1-1.377.052,9.932,9.932,0,0,0-1.369.042,4.268,4.268,0,0,0-.623.125c-.188.053-.452.108-.561.289-.326.544.37.9.788,1.007a1.3,1.3,0,0,0,1.252-.324c.122-.122.156-.67-.126-.619a5.335,5.335,0,0,1-1.886.006c-.218-.04-.254.388-.069.442Z"/><path d="M56.285,23.825A64.929,64.929,0,0,1,42.329,41.6,83.555,83.555,0,0,1,23.172,54.1c-4.152,2-8.725,3.326-12.685,5.684a1.084,1.084,0,0,0,.043,1.752c4.7,2.108,9.479,1.589,14.089-.438,4.839-2.127,9.708-4.426,14.368-6.924a33.527,33.527,0,0,0,10.506-8.713,71.4,71.4,0,0,0,7.26-11.513c.6-1.144,1.189-2.294,1.773-3.447a10.267,10.267,0,0,0,1.261-3.178A3.049,3.049,0,0,0,56.8,23.77c-.931.057-.826,2.164.05,2.05,1.072-.139,1.893.648,1.5,1.711a25.74,25.74,0,0,1-1.433,2.844C56,32.117,55.073,33.85,54.09,35.554a51.277,51.277,0,0,1-6.742,9.464C41.394,51.4,33.1,54.453,25.407,58.182a22.889,22.889,0,0,1-7.322,2.612A14.834,14.834,0,0,1,10.8,59.773l.043,1.752c3.587-2.246,7.793-3.46,11.615-5.258a94.309,94.309,0,0,0,10.422-5.705A71.206,71.206,0,0,0,50.145,35.529a46.964,46.964,0,0,0,6.792-10.975c.173-.4-.315-1.348-.652-.729Z"/><path d="M56.476,23a.559.559,0,0,0-.3.836c.135.191.456.271.661.355.267.111.541.207.814.3s.549.183.825.267c.185.056.379.153.548.015a.564.564,0,0,0,.127-.566.712.712,0,0,0-.155-.289c-.086-.1-.171-.227-.168-.023l-.07.287a3.367,3.367,0,0,0,.365,0,3.221,3.221,0,0,1,.428.022,6.748,6.748,0,0,1,.784.155c.405.1,1.012.35,1.408.15a2.154,2.154,0,0,0,.807-1.128.966.966,0,0,0-.287-1.253A3.037,3.037,0,0,0,60.846,22c-.558.018-1.115.073-1.67.132-.529.057-1.068.1-1.593.188a2.27,2.27,0,0,0-1.234.555c-.271.262-.065,1.161.338.818a2.19,2.19,0,0,1,1.2-.366c.5-.065.993-.129,1.489-.2.536-.07,1.073-.134,1.613-.161a7.779,7.779,0,0,1,.808-.01c.069,0,.159.036.223.032q.168.1.026-.161c-.015.047-.032.094-.05.139a2.042,2.042,0,0,1-.319.549c-.189.23-.4.16-.67.109-.474-.092-.942-.221-1.423-.273-.346-.037-1.015-.1-1.215.262a.677.677,0,0,0,.15.794.637.637,0,0,0,.123.084q.153.129.025-.165l.11-.232c.064-.05-.126-.053-.187-.069-.112-.029-.223-.059-.334-.09q-.36-.1-.717-.209c-.219-.068-.436-.141-.656-.207a1.174,1.174,0,0,1-.327-.1L56.47,23.4a1.742,1.742,0,0,1,.1-.165c.045-.068.025-.277-.1-.234Z"/><path d="M16.346,59.912a45.517,45.517,0,0,0,6.54-2.4q3.237-1.324,6.387-2.861a58.859,58.859,0,0,0,11.12-6.891A97.268,97.268,0,0,0,50.41,38.1a34.631,34.631,0,0,0,7.2-10.545c.11-.277-.2-.7-.374-.316a38.016,38.016,0,0,1-7.653,10.884,94.562,94.562,0,0,1-9.775,9.3,61.588,61.588,0,0,1-11.454,6.94c-1.974.951-3.985,1.817-6,2.684a63.264,63.264,0,0,0-6.046,2.664c-.072.041-.061.221.041.2Z"/><path class="b" d="M87.465,48.477a.356.356,0,0,1-.092-.075c-.007-.029-.015-.057-.025-.086s-.029-.055-.045-.082l-.025.406a.477.477,0,0,1,.522.061,1.678,1.678,0,0,1,.4.531l.176-.5a1.128,1.128,0,0,1-.677-.548l-.284.456a4.324,4.324,0,0,1,.593,1.062,5.021,5.021,0,0,1,.158.531.927.927,0,0,0,.311.549c.194.137.311-.12.309-.283-.007-.393,0-.787-.021-1.179-.01-.208-.092-.459-.325-.5a.4.4,0,0,0-.423.279.764.764,0,0,0,.03.671c.118.184.316.154.49.077a2.109,2.109,0,0,0,.831-.64.572.572,0,0,0-.051-.759c-.195-.151-.415-.019-.554.138l.23.558.233-.263-.324-.36a7.2,7.2,0,0,0-.2,1.129,1.405,1.405,0,0,0,.31,1.106.157.157,0,0,0,.217-.005.365.365,0,0,0,.1-.285L89.2,49.317c-.012-.113-.044-.267-.167-.313s-.209.058-.24.157a3.611,3.611,0,0,0-.162,1.172c0,.125.069.33.225.326s.213-.214.209-.336a2.56,2.56,0,0,1,.109-.839l-.406-.156.124,1.151.316-.29c0,.005-.031-.044-.039-.057s-.01-.016,0,0c-.009-.018-.016-.036-.024-.054-.026-.056,0,.03-.012-.036-.006-.03-.012-.06-.017-.09.011.066,0-.022,0-.036,0-.037,0-.074,0-.11v-.048c0,.034,0,.031,0-.008s.006-.063.01-.095a9.445,9.445,0,0,1,.191-.97.41.41,0,0,0-.086-.341.16.16,0,0,0-.238-.02l-.233.263a.433.433,0,0,0-.066.448c.045.107.19.23.3.11a.4.4,0,0,1,.1-.1l.026-.01c.028,0,.036,0,.025,0-.062.028-.092-.03-.091-.176l.025-.166c-.014.057-.088.117-.14.167a1.813,1.813,0,0,1-.471.328c-.041.02-.083.041-.126.057.034-.012-.052.022-.042.013-.025.023-.015-.045.028.029l.058.142c-.018-.062-.008,0-.008.022,0-.028,0-.038,0,0l-.016.019c0-.011.041-.011.041-.011h0c.027.012.017,0-.029-.031-.025-.037-.035-.156-.033-.046,0,.075,0,.15.005.225q.009.45.017.9l.309-.284a.2.2,0,0,1-.1-.132c-.019-.046.01.038,0-.011l-.015-.059c-.011-.041-.021-.084-.031-.125a4.919,4.919,0,0,0-.206-.629,4.4,4.4,0,0,0-.623-1.085.169.169,0,0,0-.3.007.443.443,0,0,0,.011.449,1.456,1.456,0,0,0,.872.666.184.184,0,0,0,.216-.142.422.422,0,0,0-.039-.358,1.726,1.726,0,0,0-.585-.652.7.7,0,0,0-.78.044c-.13.1-.1.478.1.479.059,0,.078-.032.129-.048a.408.408,0,0,1,.117.012c.071.008.066-.136.025-.164Z"/><path class="b" d="M89.255,48.613a1.517,1.517,0,0,0,.547-1.006,6.877,6.877,0,0,0,.144-1.388,2.6,2.6,0,0,0-.233-1.408c-.263-.5-.561-.978-.861-1.453l-.317.51a5.406,5.406,0,0,1,.672,1.233,6.214,6.214,0,0,1,.233,1.486,2.918,2.918,0,0,1-.181,1.494c-.211.492-.478.978-.643,1.487a.437.437,0,0,0,.067.426.169.169,0,0,0,.284-.033,12.52,12.52,0,0,0,.758-1.7,3.831,3.831,0,0,0,.188-1.743,6.778,6.778,0,0,0-.285-1.679,6.663,6.663,0,0,0-.776-1.484.188.188,0,0,0-.329.008.491.491,0,0,0,.012.5c.232.374.476.739.721,1.1a3.087,3.087,0,0,1,.308.486,1.759,1.759,0,0,1,.074.718,7.06,7.06,0,0,1-.087,1.125,10.687,10.687,0,0,1-.372,1.171c-.01.036,0,.183.076.14Z"/><path class="a" d="M61.434,52.2A37.358,37.358,0,0,0,65.6,50.212c1.44-.808.458-3.381-1.156-2.742a14.994,14.994,0,0,0-2.848,1.378c-1.688,1.008-.212,3.382,1.514,2.59a33.262,33.262,0,0,0,10.259-7.294,1.511,1.511,0,0,0-1.459-2.507c-3.424,1.111-6.552,2.359-9.124,4.947A1.506,1.506,0,0,0,64.6,48.94a56.383,56.383,0,0,0,9.459-7.391c1.008-.975-.025-3.1-1.459-2.507a41.633,41.633,0,0,0-6.547,3.348,1.5,1.5,0,0,0,1.514,2.591,35.368,35.368,0,0,0,8.838-6.706c1.26-1.307-.322-3-1.818-2.356a26.073,26.073,0,0,0-6.461,4c-1.386,1.148.379,3.057,1.818,2.356a30.842,30.842,0,0,0,9.882-7.543c.907-1.033.059-3.048-1.459-2.507a14.327,14.327,0,0,0-6.406,4.294c-1.07,1.224.3,3.306,1.818,2.356a33.137,33.137,0,0,0,4.134-2.585c2.946-2.548-.9.54-1.659,1.366a96.4,96.4,0,0,1-8.3,7.985l2.121,2.121c3.882-4.429,7.612-9.949,12.535-13.273A1.5,1.5,0,0,0,81.1,31.9c-9.58,4.924-15.47,14.175-25.29,18.754-5.8,2.7-12.142,3.049-18.362,4.23-7.033,1.336-13.859,2.447-20.825.153v2.893c9.365-1.4,18.744-1.313,28.052-3.317,7.373-1.588,16.047-3.352,22.031-8.182,1.309-1.056-.175-2.7-1.459-2.507l-1.21.185,1.156,2.741,1.662-.841-1.818-2.356A33.183,33.183,0,0,1,56.8,49.913a1.513,1.513,0,0,0,.757,2.8,8.926,8.926,0,0,0,4.678-.939l-1.514-2.59-1.061.609c-1.7.979-.21,3.38,1.514,2.59A34.331,34.331,0,0,0,71.1,45.534c1.383-1.353-.739-3.473-2.121-2.122a32.251,32.251,0,0,1-9.324,6.377l1.514,2.59,1.061-.609c1.706-.979.21-3.377-1.514-2.59l-3.164.529.757,2.795a35.636,35.636,0,0,0,8.848-6.733,1.507,1.507,0,0,0-1.817-2.356l-1.662.841c-1.639.829-.395,2.978,1.156,2.741l1.209-.185-1.459-2.507c-6.251,5.046-16.644,6.739-24.372,8.138-8.091,1.466-16.283,1.381-24.387,2.59-1.577.235-1.267,2.476,0,2.893,5.6,1.845,11.25,1.735,17.028.831,6.673-1.044,14.366-1.595,20.708-3.9a43.717,43.717,0,0,0,13.505-7.774c5.2-4.49,9.313-9.392,15.547-12.6L81.1,31.9c-5.182,3.5-9.056,9.08-13.142,13.743a1.5,1.5,0,0,0,2.121,2.121,95.731,95.731,0,0,0,8.9-8.639c1.023-1.143,3.579-3.183,3.172-5.1-1.019-4.8-8.479,1.387-9.881,2.264l1.817,2.356a11.442,11.442,0,0,1,5.082-3.522l-1.459-2.507a28.766,28.766,0,0,1-9.275,7.074l1.818,2.356a23.128,23.128,0,0,1,5.854-3.53l-1.818-2.356a32.938,32.938,0,0,1-8.231,6.237l1.514,2.591A36.429,36.429,0,0,1,73.4,41.935l-1.46-2.507a52.892,52.892,0,0,1-8.852,6.922l1.818,2.356c2.2-2.212,4.9-3.234,7.8-4.176l-1.459-2.507a30.923,30.923,0,0,1-9.652,6.825l1.514,2.59,2.132-1.075-1.156-2.742a21.825,21.825,0,0,1-3.447,1.687c-1.763.722-.991,3.625.8,2.892Z"/><path d="M15.536,54.66c-2-.445-2.249,2.343-1.355,3.545a3.869,3.869,0,0,0,2.479,1.309c1.518.306,3.076.5,4.612.686A62.813,62.813,0,0,0,40.4,59.082,159.663,159.663,0,0,0,58.69,54.689a41.709,41.709,0,0,0,13.838-7.511,49.5,49.5,0,0,0,11.344-13.6,1.4,1.4,0,0,0-.035-1.44c-2.957-3.854-7.609-.78-10.369,1.566-3.551,3.02-6.848,6.344-10.584,9.143a33.021,33.021,0,0,1-13.833,5.947C43.8,49.826,38.5,50.7,33.218,51.566c-5.921.97-11.854,1.9-17.814,2.6-1.043.123-.927,2.458.057,2.314C25.625,55,35.8,53.6,45.9,51.7c4.82-.907,9.592-1.884,13.872-4.395a62.528,62.528,0,0,0,10.42-8.281c1.828-1.683,3.632-3.441,5.607-4.952,1.927-1.474,5.287-2.924,7.13-.476l-.035-1.439c-4.624,7.823-11.322,14.7-19.6,18.628-4.777,2.266-10.02,3.382-15.133,4.614a111.42,111.42,0,0,1-16.8,3.012,52.183,52.183,0,0,1-8.962.026,28.506,28.506,0,0,1-4.957-.853c-.433-.118-3.35-1.016-1.872-1.6.421-.166.451-1.22-.033-1.327Z"/><path d="M80.383,30.662c.2-.512.378-1.2,1.023-1.284.154-.019.19-.223.163-.346a12.076,12.076,0,0,0-.655-1.572,2.139,2.139,0,0,1,.017-1.644,2.342,2.342,0,0,1,2.753-1.251l-.018-.7a4.474,4.474,0,0,0-1.566,1.4,2.717,2.717,0,0,0-.121,2.123c.105.366.247.719.357,1.082a3.132,3.132,0,0,1,.133.613c.018.2-.026.393-.009.59a.8.8,0,0,0,.143.406c.091.127.238.206.3.356.157.387-.3.646-.625.661-.339.017-.319.777.019.762a1.206,1.206,0,0,0,1.14-1.194,1.439,1.439,0,0,0-.242-.878c-.045-.063-.1-.11-.149-.17-.069-.089-.056-.049-.075-.16-.033-.194,0-.414-.025-.614-.114-.806-.586-1.534-.636-2.349-.055-.906.817-1.5,1.5-1.935.191-.12.264-.626-.018-.7a2.747,2.747,0,0,0-3.229,1.506,4.071,4.071,0,0,0,.715,3.935l.067-.453c-.794.2-1.007,1.075-1.018,1.792,0,.035.038.063.055.021Z"/><path d="M20.126,56.694c8.545.245,17.152-1.3,25.385-3.472,4.26-1.121,8.466-2.439,12.629-3.879a58.525,58.525,0,0,0,5.749-2.2,33.722,33.722,0,0,0,4.73-2.887,29.643,29.643,0,0,0,4.765-4.413c1.581-1.69,3.181-3.364,4.738-5.075.254-.28.018-1.189-.337-.819-1.355,1.415-2.681,2.858-4.02,4.289a41.93,41.93,0,0,1-4.092,4.167A34.137,34.137,0,0,1,59.51,47.9,153.621,153.621,0,0,1,34.6,54.751a121.832,121.832,0,0,1-14.485,1.582c-.161.009-.152.356.008.361Z"/><path class="a" d="M23.97,78.861a24.42,24.42,0,0,0,8.97-2.527l-1.818-2.355L29.565,75.13c-1.721.724-1.081,3.528.8,2.893l5.4-1.823L34.6,73.458,30.732,74.6,30.5,76.417l2.582-1.458-1.156-2.742-4.736,2.389c-1.491.752-.435,3.38,1.156,2.742a114.039,114.039,0,0,1,11.486-3.914l-1.155-2.742A36.584,36.584,0,0,1,34,73.382c-1.645.8-.4,3,1.156,2.741A38.285,38.285,0,0,0,40.018,75l-1.156-2.741A18.484,18.484,0,0,1,35.2,73.9c-1.792.65-1.053,3.506.8,2.893q5.575-1.848,11.03-4c1.759-.7,1.048-3.548-.8-2.893l-4.952,1.757c-1.806.64-1.034,3.533.8,2.892a20.939,20.939,0,0,0,4.393-2.092,1.507,1.507,0,0,0-1.156-2.741l-6.4,1.394,1.156,2.741c2.446-1.135,4.922-2.163,7.451-3.1a1.5,1.5,0,0,0-.8-2.893L40.407,69.4l.8,2.892c2.76-1.066,5.54-2.016,8.375-2.861l-1.156-2.742-5.006,2.966a1.507,1.507,0,0,0,1.156,2.742,46.036,46.036,0,0,0,5.641-1.933l-1.46-2.507-1.976,1.6c-1.2.97.1,2.9,1.459,2.507a36.093,36.093,0,0,0,11.971-5.987c1.233-.935.6-3.345-1.156-2.742l-13.09,4.492.8,2.892,18.7-7.883c1.721-.726,1.072-3.543-.8-2.893A23.429,23.429,0,0,0,56.2,64.992,1.511,1.511,0,0,0,57.66,67.5a26.5,26.5,0,0,0,13.107-9.484c.92-1.218-.851-2.826-2.052-2.052a70.5,70.5,0,0,1-10.908,5.792c-1.728.728-1.049,3.573.8,2.893,5.708-2.1,10.784-4.783,14.355-9.852,1.046-1.484-1.138-2.836-2.355-1.818a21.778,21.778,0,0,0-4.9,5.785c-.72,1.21.8,2.982,2.052,2.053a43.339,43.339,0,0,0,10.8-11.523A1.51,1.51,0,0,0,76.5,47.241a35.938,35.938,0,0,0-6.668,5.546c-1.12,1.185.366,3.37,1.818,2.356A34.97,34.97,0,0,0,82.1,43.839a1.5,1.5,0,0,0-2.59-1.515,31.277,31.277,0,0,1-9.376,10.228l1.818,2.356a33.022,33.022,0,0,1,6.06-5.077l-2.052-2.052A38.943,38.943,0,0,1,66.24,58.225l2.052,2.053A19.641,19.641,0,0,1,72.726,55.1L70.37,53.282c-3.09,4.385-7.653,6.666-12.563,8.473l.8,2.893a74.829,74.829,0,0,0,11.624-6.095L68.177,56.5a22.762,22.762,0,0,1-11.315,8.1l1.46,2.507a19.546,19.546,0,0,1,7.134-4.281l-.8-2.893L45.963,67.823c-1.72.725-1.077,3.536.8,2.892l13.091-4.491L58.7,63.482a33.749,33.749,0,0,1-11.254,5.685L48.9,71.674l1.977-1.6c1.131-.915-.093-3.076-1.46-2.507A45.979,45.979,0,0,1,43.776,69.5l1.156,2.741,5.006-2.965a1.507,1.507,0,0,0-1.155-2.742c-2.836.845-5.616,1.8-8.376,2.862a1.5,1.5,0,0,0,.8,2.892l6.309-1.542-.8-2.893c-2.774,1.026-5.484,2.156-8.167,3.4C36.941,72,38.122,74.341,39.705,74l6.4-1.394-1.156-2.742a12.209,12.209,0,0,1-3.676,1.79l.8,2.892,4.953-1.756-.8-2.893q-5.463,2.158-11.03,4L36,76.79a33.311,33.311,0,0,0,4.379-1.941,1.507,1.507,0,0,0-1.156-2.742,38.231,38.231,0,0,1-4.865,1.123l1.155,2.742a36.7,36.7,0,0,0,4.678-2.689,1.507,1.507,0,0,0-1.156-2.742,113.869,113.869,0,0,0-11.486,3.914L28.7,77.2l4.737-2.389c1.491-.752.435-3.381-1.156-2.742-1.421.572-2.908,1.024-3.906,2.23a1.539,1.539,0,0,0-.234,1.818c1.789,2.545,5.694.911,7.975-.065,1.556-.666.447-3.283-1.156-2.742l-5.4,1.823.8,2.893A5.764,5.764,0,0,0,33.244,76.1a1.508,1.508,0,0,0-1.818-2.356,19.891,19.891,0,0,1-7.456,2.117c-1.922.088-1.933,3.088,0,3Z"/><path class="a" d="M77.451,51.405a17.885,17.885,0,0,0,2.342-2.712c.489-.746.642-1.779,1.3-2.391,1.423-1.31-.7-3.428-2.121-2.121a7.192,7.192,0,0,0-1.439,2.41,10.827,10.827,0,0,1-2.208,2.692,1.5,1.5,0,0,0,2.121,2.122Z"/><path class="a" d="M68.639,29.324a6.317,6.317,0,0,0-1.5,3.466,27.423,27.423,0,0,1-3.312,8.768A33.488,33.488,0,0,1,58,48.914c-1.361,1.238-2.76,2.078-3.76,3.637-3.3,5.156-8.986,8.127-14.816,9.924-5.451,1.681-12.239,5.02-17.925,3.4l.358,2.741A36.481,36.481,0,0,1,30.568,66.3c3.26-.567,6.667-2.473,9.666-3.8,6.707-2.973,12.815-6.782,17.36-12.631,1.153-1.484-.831-3.61-2.122-2.121q-4.193,4.834-8.488,9.578a1.513,1.513,0,0,0,1.459,2.507C53,58.8,53.767,54.6,56.29,51.093c2.8-3.887,7.559-5.622,9.518-10.182a1.508,1.508,0,0,0-2.356-1.817,13.588,13.588,0,0,0-4.345,5.658c-.6,1.413,1.142,3.24,2.356,1.818,3.634-4.255,5.4-9.533,8.444-14.168,1.063-1.618-1.534-3.123-2.591-1.514-2.892,4.4-4.525,9.521-7.974,13.561L61.7,46.266a12.083,12.083,0,0,1,3.875-5.051L63.217,39.4c-1.612,3.754-5.255,5.361-7.93,8.213-2.483,2.647-3.877,8.476-7.641,9.326l1.459,2.507q4.3-4.744,8.489-9.578l-2.122-2.121c-4.906,6.314-11.677,10.079-18.954,13.1a36.245,36.245,0,0,1-5.182,2.047c-1.314.312-2.759.068-4.051.344-2.391.51-4.713,1.843-6.946,2.786-1.249.528-.771,2.42.358,2.742,5.834,1.664,10.907-1.014,16.455-2.58,5.77-1.629,11.637-3.75,16.407-7.548,2.2-1.754,2.923-4.272,4.946-6.249a48.405,48.405,0,0,0,5.047-5.23,38.05,38.05,0,0,0,4.775-7.731c.971-2.213.942-6.271,2.433-7.983,1.263-1.45-.85-3.58-2.121-2.121Z"/><path class="a" d="M67.338,59.315c1.671,2.477,3.938-.895,5.064-2.116a78.743,78.743,0,0,0,7.061-8.466c1.1-1.591-1.5-3.092-2.59-1.514A55.717,55.717,0,0,1,72.4,52.768c-1.31,1.454-2.691,3.495-4.271,4.646l1.156-.151.646.538c-1.073-1.592-3.674-.092-2.59,1.514Z"/><path class="b" d="M69.51,22.091l-.093.218c-.049.115-.014.384.155.382a.446.446,0,0,0,.363-.2c.044-.054.078-.111.119-.167a.411.411,0,0,1,.108-.13c.1,0,.13-.037.089-.1.03-.15-.086.155-.092.177a1.456,1.456,0,0,0-.042.263,1.554,1.554,0,0,0,.092.619l.291-.467-.564-.591c-.117-.123-.26.021-.3.13-.275.69.345,1.083.715,1.554a3.951,3.951,0,0,1,.8,1.814c.023.138.144.311.3.249s.177-.312.157-.456c-.142-1.026-.831-1.944-.793-3l-.408.272a10.377,10.377,0,0,1,.785,1.3,1.463,1.463,0,0,1,.143,1.385l.417.249a4.759,4.759,0,0,0-.619-2.448c-.162-.29-.431.067-.408.272l.116,1.044.36-.33a5.932,5.932,0,0,1-1.1-1.4.2.2,0,0,0-.344.009.511.511,0,0,0,.013.523,5.14,5.14,0,0,1,.579,3.423.431.431,0,0,0,.152.435.214.214,0,0,0,.3-.159,7.565,7.565,0,0,0,.307-2.547l-.481.112a5.216,5.216,0,0,1,.119,2.208c-.069.3.329.713.461.28a14.293,14.293,0,0,0,.388-1.607l-.452.1c.071.131-.1.522-.138.676l-.2.8.209-.192a2.389,2.389,0,0,0-1.81.366c-.163.135-.162.731.14.691a10.526,10.526,0,0,1,2.32-.049c.311.027.245-.548.1-.678a2.271,2.271,0,0,0-.235-.213l-.38-.065a4.211,4.211,0,0,0,.745,1l-.016-.629a.741.741,0,0,1-.546.153c-.336-.022-.335.78.019.779a1.138,1.138,0,0,0,.784-.309.469.469,0,0,0-.015-.629,3.439,3.439,0,0,1-.6-.824.193.193,0,0,0-.341.008,1.076,1.076,0,0,0,.363,1.357l.1-.678a14.611,14.611,0,0,0-2.32.028l.14.691a2.224,2.224,0,0,1,1.567-.247c.1.008.189-.11.21-.193l.311-1.231a1.357,1.357,0,0,0,.011-1.01c-.145-.271-.4-.185-.451.1a12.429,12.429,0,0,1-.342,1.426l.46.28a6.2,6.2,0,0,0-.133-2.608c-.083-.414-.5-.267-.481.111a6.408,6.408,0,0,1-.245,2.169l.454.276a6.239,6.239,0,0,0-.724-4.141l-.331.532a6.41,6.41,0,0,0,1.2,1.518c.257.241.366-.274.348-.429L71.2,23.312l-.4.37a3.72,3.72,0,0,1,.468,1.928c-.006.21.252.535.417.249.722-1.256-.242-2.7-.95-3.729-.2-.287-.4.069-.408.271-.044,1.141.655,2.091.818,3.19l.46-.207a4.821,4.821,0,0,0-.564-1.557,4.255,4.255,0,0,0-.472-.667c-.076-.088-.578-.5-.541-.6l-.3.13.567.581c.087.09.21.026.267-.059a.48.48,0,0,0,.024-.409c-.134-.389.354-.959-.139-1.255s-.611.51-.928.642l.215.31.033-.254c.022-.166-.153-.39-.253-.154Z"/><path d="M20.983,66.116c.273.805-1.942,1.412-1.733,2.427.1.5.783.589,1.187.716a15.343,15.343,0,0,0,3.465.59,21.985,21.985,0,0,0,6.855-.474,77.968,77.968,0,0,0,7.688-2.556c4.619-1.667,9.529-2.8,13.584-5.7a29.253,29.253,0,0,0,5.457-5.474c1.77-2.159,3.6-4.259,5.433-6.367a37.823,37.823,0,0,0,4.723-6.321,33.352,33.352,0,0,0,2.712-6.7c.329-1.107.616-2.227.89-3.349A19.217,19.217,0,0,0,72,29.4c.1-2.139-2.193-2.384-3.68-1.476-1.978,1.208-2.857,3.944-3.953,5.868a72.507,72.507,0,0,1-4.131,6.389A62.256,62.256,0,0,1,49.573,51.752c-4.77,3.963-10.286,6.389-16.041,8.558q-4.416,1.663-8.89,3.166c-2.159.725-5,1.225-5.772,3.711a1.611,1.611,0,0,0,.335,1.7.71.71,0,0,0,1.107-.474c.549-1.833,3.962-2.308,5.5-2.827q3.668-1.237,7.3-2.583A65.771,65.771,0,0,0,46.328,56.91c7.742-5.036,14.1-12.525,18.655-20.5.543-.951,1.069-1.914,1.556-2.894a11.419,11.419,0,0,1,1.925-3.329,2.765,2.765,0,0,1,1.469-.787c.093-.012.71-.057.808.067-.066-.084-.15.429-.151.436a25.574,25.574,0,0,1-.881,3.755,30.729,30.729,0,0,1-6.357,12.87C60.2,50.2,57.023,53.919,53.525,57.273c-3.393,3.253-7.667,4.787-12.046,6.237-5.06,1.676-10.029,4.15-15.337,4.931a17.009,17.009,0,0,1-5.459-.071,8.052,8.052,0,0,1-1.033-.2c.089.341.178.045.3-.033.391-.251,1.4-1.551,1.078-2.078-.028-.046-.052.029-.044.054Z"/><path d="M24.83,76.939A123.146,123.146,0,0,0,49.1,69.426q6.068-2.555,11.871-5.679a39.268,39.268,0,0,0,9.739-6.841A70.168,70.168,0,0,0,78.78,46.231c.213-.322-.137-1.1-.442-.638a75.592,75.592,0,0,1-7.095,9.6,36.709,36.709,0,0,1-9.863,7.327A146.271,146.271,0,0,1,38.523,72.548c-4.512,1.537-9.117,2.85-13.733,4.037-.131.033-.1.381.04.354Z"/><path class="b" d="M84.85,37.43l.723-.13-.064-.564c-.289.173-.577.343-.855.533-.184.126-.09.71.177.584a14.394,14.394,0,0,1,1.648-.79,5.706,5.706,0,0,1,1.849-.21l-.016-.653c-1.707.079-3.57.187-4.958,1.307-.224.181-.142.921.235.775a28.891,28.891,0,0,1,3.535-1.094l-.158-.766a12.884,12.884,0,0,0-3.747,1.667c-.233.17-.078.93.224.738a14.125,14.125,0,0,1,2.085-1.094l-.161-.781a10.523,10.523,0,0,0-2.06,1.4c-.188.175-.11.936.224.739a26.354,26.354,0,0,1,3.336-1.658l-.162-.781c-1.51.9-3.259,1.462-4.512,2.743l.29.7a15.53,15.53,0,0,1,1.832-1.84l-.278-.675a5.79,5.79,0,0,0-.661.747c-.13.174-.056.78.264.643q.885-.377,1.771-.748l-.151-.732c-.366.216-.733.43-1.1.645-.268.157-.176.9.152.733l.483-.25c.274-.142.212-.858-.151-.734q-.948.323-1.877.7l.211.7A14.831,14.831,0,0,0,84.2,38.061c.188-.211.064-.933-.269-.652l-1.285,1.082.268.651c.176-.209.35-.419.524-.63a.5.5,0,0,0,.076-.518c-.057-.128-.212-.258-.342-.126l-.285.289c-.207.211-.033.916.263.638.206-.193.41-.388.619-.578s.04-.891-.259-.628q-1.053.927-2.044,1.918l.317.591a3.882,3.882,0,0,1,.721-.8l-.306-.569a4.039,4.039,0,0,1-1.586,1.22l.247.6.126-.182c.109-.155.093-.528-.119-.6l-.11-.038.017.7a2.6,2.6,0,0,0,.378-.122l-.2-.655a.525.525,0,0,0-.009.721c.238.209.706.058.963-.03l-.281-.525.008-.012c-.13.148-.185.589.073.66a1.237,1.237,0,0,0,1.073-.156c.357-.252.5-.677.808-.978l-.308-.572a2.358,2.358,0,0,0-.487,1.63c.018.158.211.377.369.216a5.2,5.2,0,0,0,.437-.512l-.431-.257a2.08,2.08,0,0,0,.068.5c.046.165.155.311.2.472l.018-.294-.029.086.145-.178c-.163.09-.368-.4-.431-.487a.97.97,0,0,0-.453-.387c-.221-.086-.311.229-.311.38a.825.825,0,0,0,.432.732.448.448,0,0,1,.222.262.557.557,0,0,0,.259.313c.192.114.3-.244.291-.356A2.449,2.449,0,0,1,85,38.556c.249-.12.228-.7-.082-.718a2.694,2.694,0,0,0-1.094.25q-.627.228-1.247.474l.2.665a5.273,5.273,0,0,1,3.441-1.673l-.082-.718-.671.4c-.2.12-.246.776.082.718a6.7,6.7,0,0,0,.893-.224c.289-.094.2-.814-.145-.7a5.509,5.509,0,0,1-.766.194l.081.718.671-.4c.2-.12.249-.769-.081-.718A5.659,5.659,0,0,0,82.518,38.6c-.132.163-.155.806.2.665s.737-.287,1.108-.423a2.723,2.723,0,0,1,1.106-.272l-.081-.717A3.216,3.216,0,0,0,83.1,40.88l.349-.321c-.03-.019-.114-.294-.189-.382-.036-.041-.383-.273-.383-.272l-.312.38c.411.152.443.921.977.906.733-.021.132-1.065.122-1.374-.008-.24-.23-.524-.431-.258a4.084,4.084,0,0,1-.338.394l.369.217a1.547,1.547,0,0,1,.37-.905c.124-.192-.029-.855-.308-.572-.46.467-.69,1.289-1.511,1.064l.073.66a.851.851,0,0,0,.156-.252c.073-.179-.008-.619-.281-.525-.17.059-.481.164-.654.061l.172.248-.014-.059-.1.41.038-.039c.157-.159.135-.792-.2-.655a2.515,2.515,0,0,1-.377.123c-.258.064-.2.616.017.7l.109.04-.12-.6-.128.179c-.117.163-.055.731.247.6a4.6,4.6,0,0,0,1.8-1.407c.155-.2-.009-.811-.306-.569a4.44,4.44,0,0,0-.83.9c-.14.2.036.876.318.59q.987-1,2.035-1.941l-.259-.628c-.206.192-.415.379-.623.568l.263.638.288-.283-.266-.644c-.176.207-.351.414-.526.623s-.07.936.268.651L84.2,38.061l-.269-.652a14.966,14.966,0,0,1-1.218,1.211c-.188.166-.133.832.211.7q.93-.37,1.876-.7l-.151-.734-.484.251.152.733q.549-.324,1.1-.646c.26-.152.2-.88-.151-.732q-.887.369-1.774.735l.264.643a4.753,4.753,0,0,1,.565-.613c.231-.214.056-.952-.278-.675a15.314,15.314,0,0,0-1.844,1.811.551.551,0,0,0-.084.566c.062.143.232.28.374.138,1.233-1.233,2.911-1.79,4.384-2.666.274-.163.22-.938-.162-.781a26.268,26.268,0,0,0-3.335,1.657l.224.739a9.934,9.934,0,0,1,1.934-1.312c.283-.159.214-.939-.161-.781a13.578,13.578,0,0,0-2.085,1.095l.224.738a11.9,11.9,0,0,1,3.618-1.6c.318-.1.221-.855-.158-.766-1.2.282-2.379.64-3.546,1.04l.235.775a8.9,8.9,0,0,1,4.673-1.384c.288-.028.276-.66-.016-.653a5.351,5.351,0,0,0-1.787.406c-.607.219-1.229.371-1.822.63l.128.617c.288-.186.56-.392.837-.595.16-.117.091-.618-.159-.522l-.706.275c-.143.056-.127.45.047.419Z"/><path d="M21.575,76c-1.29,2.949,3.2,3.6,5.08,3.592A47.5,47.5,0,0,0,40.185,77,102.35,102.35,0,0,0,58.5,69.547a57.329,57.329,0,0,0,7.477-4.695,43.22,43.22,0,0,0,6.848-7.17c4.055-4.875,9.021-9.523,10.6-15.877a1.194,1.194,0,0,0-.517-1.29c-1.958-.884-3.628.66-4.7,2.152a61.925,61.925,0,0,1-4.138,5.346,56.6,56.6,0,0,1-10.443,9c-8.31,5.609-17.764,9.215-27.271,12.227-2.725.864-5.468,1.681-8.15,2.674-1.3.482-2.608.977-3.864,1.565a10.763,10.763,0,0,0-1.922,1.067c-.382.289-.657.677-1.025.987-.657.555-.2,2.525.754,1.829.348-.254.621-.6.983-.825a11.623,11.623,0,0,1,1.7-.664c1.141-.473,2.278-.943,3.437-1.368,2.324-.851,4.677-1.619,7.03-2.383C39.968,70.6,44.607,69,49.138,67.108c8.432-3.523,16.544-8.135,23.136-14.536a51.421,51.421,0,0,0,4.691-5.226c.763-.975,1.461-1.99,2.166-3.006.806-1.162,1.916-2.359,3.458-1.775l-.517-1.29c-1.008,5.619-4.45,9.93-8.113,14.1A54.835,54.835,0,0,1,60.688,65.9a103.564,103.564,0,0,1-15.522,7.283A73.5,73.5,0,0,1,30.912,77.5a26.554,26.554,0,0,1-5.874.443c-1.342-.079-3.725.105-3.392-1.9.008-.048-.043-.108-.071-.043Z"/><path class="a" d="M85.476,56.331l.455-.562a1.67,1.67,0,0,0,.439-1.061,1.524,1.524,0,0,0-.439-1.06,1.507,1.507,0,0,0-1.061-.44,1.457,1.457,0,0,0-1.06.44l-.456.562a1.67,1.67,0,0,0-.439,1.06,1.53,1.53,0,0,0,.439,1.061,1.508,1.508,0,0,0,1.061.439,1.46,1.46,0,0,0,1.061-.439Z"/><path class="a" d="M84.348,56.125a13.037,13.037,0,0,0,3.477-4.108,1.5,1.5,0,0,0-2.59-1.514c-3.347,5.2-9.125,7.887-14.27,11.011a1.512,1.512,0,0,0,.757,2.795c4.885-.1,9.266-4.18,12.681-7.325l-2.122-2.122c-8.025,9.245-21.123,16.712-33.316,17.7l.757,2.8c7.356-3.849,15.454-5.919,22.847-9.693,1.541-.787.459-3.162-1.156-2.742a40.49,40.49,0,0,0-5.986,2.092l1.514,2.59,5.883-2.977c1.757-.889.214-3.332-1.514-2.59L49.765,71.291l1.514,2.59A44.772,44.772,0,0,1,57.6,71.256c1.807-.621,1.074-3.443-.8-2.893L43.746,72.2l.8,2.893,15.283-5.685c1.785-.664,1.044-3.532-.8-2.893a132.3,132.3,0,0,1-21.166,5.956l.8,2.893,5.7-1.543c1.9-.514,1.072-3.211-.8-2.893a60.479,60.479,0,0,1-19.843.112,1.5,1.5,0,0,0-.8,2.893,19.04,19.04,0,0,0,7.147.789l-.4-2.947a5.383,5.383,0,0,1-3.471.533v3c8.723.292,17.365.426,26-1.066l-.8-2.893-5.171,1.218.8,2.893C55.833,72.77,63.19,66.876,72.034,64.3a1.5,1.5,0,0,0-.8-2.893c-8.854,2.576-16.208,8.469-25.01,11.154a1.5,1.5,0,0,0,.8,2.893L52.2,74.239c1.905-.449,1.073-3.217-.8-2.893-8.351,1.444-16.763,1.241-25.2.959-1.94-.065-1.915,2.882,0,3a9.368,9.368,0,0,0,4.268-.64c1.481-.561,1.411-3.018-.4-2.946a17.278,17.278,0,0,1-6.35-.682l-.8,2.893a65.166,65.166,0,0,0,21.438-.112l-.8-2.893-5.7,1.543c-1.9.513-1.071,3.21.8,2.893a132.36,132.36,0,0,0,21.166-5.956l-.8-2.893L43.746,72.2c-1.778.661-1.087,3.447.8,2.893L57.6,71.256l-.8-2.893a49.378,49.378,0,0,0-7.034,2.928c-1.75.917-.211,3.331,1.514,2.59L72.824,64.63,71.31,62.04l-5.883,2.977c-1.755.888-.215,3.341,1.514,2.59a34.825,34.825,0,0,1,5.269-1.789l-1.156-2.742c-7.391,3.774-15.487,5.843-22.846,9.693a1.511,1.511,0,0,0,.757,2.8C62.091,74.5,75.757,66.943,84.4,56.984a1.5,1.5,0,0,0-2.122-2.122c-2.677,2.466-6.661,6.364-10.559,6.447l.757,2.8c5.7-3.459,11.65-6.344,15.346-12.087L85.235,50.5A10.4,10.4,0,0,1,82.227,54c-1.476,1.249.655,3.362,2.121,2.121Z"/><path d="M21.929,72c-.573,1.7.684,3.078,2.2,3.7a12.521,12.521,0,0,0,3.216.622q2.426.3,4.864.474a81.625,81.625,0,0,0,17.5-.459,69.407,69.407,0,0,0,15.828-4.132,51.947,51.947,0,0,0,7.059-3.44,30.71,30.71,0,0,0,5.925-4.146C82.4,60.818,86.268,56.969,89.13,52.3a1.254,1.254,0,0,0-.335-1.685c-.55-.32-.654-1.321-1.064-1.8A1.39,1.39,0,0,0,86,48.378a11.587,11.587,0,0,0-2.441,1.807c-.945.776-1.86,1.588-2.77,2.4-1.765,1.583-3.517,3.193-5.416,4.618a36.33,36.33,0,0,1-6.488,3.732A110.587,110.587,0,0,1,39.222,70.1a34.633,34.633,0,0,1-8.565.229,39.356,39.356,0,0,0-8.787.031c-1.032.136-.938,2.446.057,2.314a34.88,34.88,0,0,1,7.6-.147,39.926,39.926,0,0,0,7.612.151,90.475,90.475,0,0,0,14.708-3.075A120.01,120.01,0,0,0,66.191,64.6a44.677,44.677,0,0,0,12.224-7.077c1.967-1.7,3.813-3.538,5.795-5.223.547-.464,1.1-.947,1.683-1.359.552-.388.781-.636,1.185-.049.459.667.629,1.3,1.412,1.685l-.335-1.685a33.752,33.752,0,0,1-8.349,10.378,58.648,58.648,0,0,1-5.477,3.854,53.586,53.586,0,0,1-5.946,3.3C59.134,72.835,48.681,74.623,38.5,75c-2.921.108-5.85.079-8.767-.1-2.23-.14-7.293.181-7.785-2.889,0-.011-.013-.015-.017,0Z"/><path d="M69.293,27.794a.276.276,0,0,1-.074-.45A.707.707,0,0,1,69.7,27.2a.647.647,0,0,0,.555-.309,2.977,2.977,0,0,0,.349-1.483,3.714,3.714,0,0,0-.352-1.63,3.611,3.611,0,0,0-.408-.667c-.216-.279-.468-.526-.273-.9a1.231,1.231,0,0,1,.721-.536c.147-.049.237-.1.317.039a2.047,2.047,0,0,1,.1.519,4.22,4.22,0,0,0,.681,1.593,2.369,2.369,0,0,1,.2,1.861c-.109.526-.441,1.187.028,1.632.174.166.39.288.568.451a1.379,1.379,0,0,0,.117.113l.044.058c.153-.4.169-.539.045-.428a1.21,1.21,0,0,0-.186.1c-.231.1-.81.33-1.02.219-.357-.186-.469.682-.133.851s.926-.087,1.23-.209c.448-.181.76-.537.5-1.039a1.8,1.8,0,0,0-.535-.554c-.059-.044-.26-.145-.3-.215-.059-.116.091-.472.118-.6a3.936,3.936,0,0,0-.034-2.273,6.239,6.239,0,0,0-.543-.918,3.612,3.612,0,0,1-.353-1.208c-.052-.264-.095-.689-.385-.812a1.257,1.257,0,0,0-.9.211,1.609,1.609,0,0,0-.79,1.715,2.256,2.256,0,0,0,.555.9,2.845,2.845,0,0,1,.543,2.358c-.041.189-.094.5-.282.606s-.435.035-.63.133a.645.645,0,0,0-.376.648c.025.24.163.439.423.4.014,0,.017-.029.005-.036Z"/><path d="M81.039,40.385a.341.341,0,0,1-.2,0c-.094-.026-.323-.262-.292-.382.025-.1.324-.152.409-.176a1.984,1.984,0,0,0,.689-.329,10.619,10.619,0,0,0,1.106-1.148A6.583,6.583,0,0,1,85.8,36.628a6.481,6.481,0,0,1,1.726-.192,1.863,1.863,0,0,1,.954.156c-.075-.055.014-.087-.1-.068a1.879,1.879,0,0,0-.194.058q-.273.084-.545.178A12.735,12.735,0,0,0,84.361,38.5a1.927,1.927,0,0,0-1,1.355,1.423,1.423,0,0,0,.2.766c.073.137.2.251.1.373-.082.093-.345.1-.453.117-.37.047-.337.875.021.829.636-.081,1.179-.427,1.053-1.153-.05-.286-.352-.568-.354-.839,0-.337.654-.712.894-.886a12.2,12.2,0,0,1,2.241-1.277c.372-.164.753-.31,1.139-.437.331-.109.674-.178.768-.563.393-1.6-2.612-1.03-3.369-.823a7.458,7.458,0,0,0-3.667,2.46,2.245,2.245,0,0,1-.993.741c-.34.107-.646.182-.769.556-.2.6.337,1.241.877.7.007-.007.009-.039-.007-.036Z"/><path d="M86.976,49.2a.562.562,0,0,1,.223-.931.931.931,0,0,1,.675.113c.258.128.548.458.845.5.526.069.691-.812.771-1.179a4.461,4.461,0,0,0-.009-1.89,5.881,5.881,0,0,0-.762-1.676c-.1-.168-.256-.509.1-.507.211,0,.384.25.494.4a3.111,3.111,0,0,1,.486.913,4.184,4.184,0,0,1-.267,2.412A9.844,9.844,0,0,0,89.2,49.6c-.012.411.225,2.013-.619,1.651-.384-.165-.489.722-.134.861a.992.992,0,0,0,1.238-.735,11.6,11.6,0,0,0,.121-2.391c.167-1.6,1.034-3.136.325-4.725-.219-.492-.629-1.281-1.22-1.389s-.875.582-.813,1.075a2.164,2.164,0,0,0,.405.9,3.6,3.6,0,0,1,.488,1.034,3.518,3.518,0,0,1,.117,1.076c-.014.28-.055,1.009-.326,1.162-.129.074-.131.039-.263-.04-.1-.06-.2-.125-.3-.183a1.8,1.8,0,0,0-.539-.225.935.935,0,0,0-.878.272.954.954,0,0,0,.106,1.436c.093.079.119-.129.066-.187Z"/><path d="M68.5,30.366a89.047,89.047,0,0,1-5.01,10.005A55.123,55.123,0,0,1,56.652,49.3,49.753,49.753,0,0,1,37.283,62.209c-4.718,1.7-9.484,3.759-14.471,4.49-.339.05-.319.808.019.771,4.374-.477,8.517-2.28,12.621-3.765a54.441,54.441,0,0,0,11.867-5.627,55.469,55.469,0,0,0,15.822-16A42.213,42.213,0,0,0,68.655,30.5c.031-.11-.078-.293-.152-.129Z"/><path d="M26.457,73.5c4.281,1.622,8.891.672,13.265-.03,4.682-.75,9.281-1.886,13.93-2.8a52.348,52.348,0,0,0,11.5-3.963c3.042-1.374,6.1-2.531,9.034-4.138A28.037,28.037,0,0,0,78.7,59.714a37.16,37.16,0,0,0,4.93-5.262c.241-.3-.015-1.215-.34-.827a30.251,30.251,0,0,1-8.368,7.462c-2.848,1.6-5.736,2.826-8.717,4.142-3.439,1.517-6.8,3.2-10.472,4.08-2.288.55-4.619.9-6.914,1.423-2.244.508-4.462,1.09-6.726,1.513-2.555.478-5.126.928-7.7,1.3a20.01,20.01,0,0,1-7.923-.139c-.047-.012-.053.08-.015.094Z"/><path class="b" d="M56.827,23.638c.008,0,.008-.017,0-.017s-.007.017,0,.017Z"/></svg>