<svg xmlns="http://www.w3.org/2000/svg" width="100" height="100" viewBox="0 0 100 100"><defs><style>.a{fill:#e91e63;}.b{fill:#46af46;}.c{fill:#3f893f;}.d{fill:#ad1457;}</style></defs><title>beetroot</title><path class="a" d="M38.639,40.351a9.01,9.01,0,0,0-1.923,4.958,8.828,8.828,0,0,0,.274,2.983l.6,1.433q-.655-2.825-.331-.812c.624,4.21,4.034,5.339,7.441,6.846L42.552,47.55l-.27.363c-1.89,2.533-.468,6.812,2.152,8.209,5.849,3.12,17.069,2.091,17.23-6.564.065-3.5-2.724-6.465-5.217-8.616-2.845-2.454-5.967-4.448-9.858-4.38-7.713.137-7.738,12.137,0,12,.845-.014,3.223,2.451,3.829,3.438L49.6,48.971q4.058-3.762,1.753-3.037-.565.233-.28.022c.213-.131-.734-.277-.581-.2l2.152,8.21.271-.363c1.793-2.4.581-7-2.153-8.209A32.07,32.07,0,0,1,46.3,43.355l2.757,3.586c.5,1.809-.161-1.012-.27-1.374l-.605-1.433Q47.71,48.52,49,46.408c1.976-2.572.4-6.719-2.152-8.21-3.093-1.809-6.229-.425-8.209,2.153Z"/><path class="a" d="M40.763,56.9l.183-.014-2.121-.879.131.129.607-4.712a8.445,8.445,0,0,0-1.285.942A3.023,3.023,0,0,0,37.809,56,3.115,3.115,0,0,0,41.2,57.378a7.776,7.776,0,0,1,3.857-.06,3,3,0,1,0,1.6-5.785c-2.329-.742-4.7-.383-7.047.059l2.919,5.015q-.372.27.071,0a3.031,3.031,0,0,0,.608-4.712,3.157,3.157,0,0,0-2.436-.993,3.077,3.077,0,0,0-3,3,3.023,3.023,0,0,0,3,3Z"/><path class="b" d="M56.89,33.047a.988.988,0,0,0,.148-1.226.938.938,0,0,0-1.016-.414,2.9,2.9,0,0,0-1.808,1.305.907.907,0,0,0,.323,1.231.918.918,0,0,0,1.231-.323c.027-.042.055-.085.084-.126-.1.145,0,.008.03-.022s.077-.068.109-.105c.078-.089-.154.093.028-.023a2.745,2.745,0,0,1,.264-.149c-.112.055-.047.02.033-.005.061-.019.122-.033.184-.047l-1.016-.414.03.043-.123-.454,0,.054.263-.637-.034.039a.9.9,0,0,0,1.273,1.273Z"/><path class="b" d="M56.841,31.591a4.685,4.685,0,0,0-3.405,2.581,3.129,3.129,0,0,0,.469,3.636l.649.769,2.122-5.121-.4-.124c-3.176-.871-5.473,4.011-2.312,5.483.49.229,2.4.942,2.534,1.528a3.074,3.074,0,0,0,3.69,2.095c1.68-.27,2.425-1.113,3.672-2.175,1.075-.914,1.692-.722,2.95-1.358,2.98-1.506,2.236-5.424,5.746-6.636,3.005-1.038,2.775-6.169-.8-5.893-.606.046-6.835.725-6.755,1.233.193,1.228,1.968.886.579-.246a3.832,3.832,0,0,0-2.109-.933c-1.668-.162-2.664.684-3.713,1.865-1.309,1.474-3.117,2-4.34,3.449a3.043,3.043,0,0,0,2.122,5.121,21.54,21.54,0,0,0,6.7-.555c3.758-.877,2.167-6.663-1.595-5.786a16.207,16.207,0,0,1-5.106.341l2.121,5.122c.55-.654,1.839-.923,2.544-1.482a7.056,7.056,0,0,0,1.424-1.443q1.293-1.157-.968-.684L60.867,31c2.869,4.414,6.5,1.715,10.888,1.377l-.8-5.893a11.428,11.428,0,0,0-6.749,5.572,9.619,9.619,0,0,1-.653,1.606c.534-.661-.338-.139-.854.032-1.523.506-2.735,2.738-4.112,2.96l3.69,2.095c-.579-2.544-3.044-4.067-5.29-5.113l-2.312,5.483a12.947,12.947,0,0,0,2,.338c2.843.321,3.6-3.367,2.121-5.122l-.649-.769.469,3.636-.181.175c3.786-.742,2.183-6.527-1.595-5.785Z"/><path class="c" d="M71.025,35.793l.069-.375c.561-.876-.69-1.79-1.413-1.091l-.812.785L70.283,36.2c.978-1.972,2.875-.962,3.453-2.753a.912.912,0,0,0-.629-1.107l-.328-.088a.889.889,0,0,0-.875.231l-.253.3a.942.942,0,0,0-.141,1.09,5.559,5.559,0,0,0,1.948,2.128l.909-1.555-1.3-.787-.694,1.645c1.129.447,2.321,1.775,3.572,1.149a.907.907,0,0,0,0-1.554,6.015,6.015,0,0,0-1.658-.717l-.478,1.736q.933.189,1.844.469,1.786,1.226-.125,1.618c-1.068.93-3.531,1.366-4.9,1.8l.693,1.645a8.73,8.73,0,0,0,2.605-1.786.9.9,0,0,0,0-1.273,3.469,3.469,0,0,0-3.827-.657c-1.05.416-.658,2.078.478,1.736a1.657,1.657,0,0,0,.566-2.936.929.929,0,0,0-1.273,0l-.464.372,1.355.777c-.027-.489,1.968-2.222,2.093-1.875-.309-.855-1.517-.027-1.8.328a1.522,1.522,0,0,0-.406,1.082,1.41,1.41,0,0,0,1.568,1.129c2.551,0,2.06-3.786-.252-2.914a.909.909,0,0,0-.4,1.5c1.311,1.124,3,2.033,4.208.4a.9.9,0,0,0-.323-1.232c-2.258-1.12-2.733,2.679-.1,2.582a1.416,1.416,0,1,0-.667-2.559.908.908,0,0,0,0,1.554c.891.549,2.172.229,1.076.838-1.315.73-3.025.89-4.416,1.561-.777.375-.43,1.78.454,1.677a5.358,5.358,0,0,0,4.458-2.875.913.913,0,0,0-1.016-1.323c-.727.1-1.166.095-1.593.678a.906.906,0,0,0,.141,1.091c1.715,1.7,6.414-.359,5.866-2.939-.206-.972-1.385-1.278-2.246-1.235a5.166,5.166,0,0,0-2.7,1.3c-1.92,1.363-3.639,2.584-6.07,2.895l.637,1.536a5.965,5.965,0,0,0,1.534-2.561A.907.907,0,0,0,69.7,37.222a2.3,2.3,0,0,0-1.142.729c-1.6,1.423-1.753,2.633-4,3.214l.876,1.5L66.6,41.662a.91.91,0,0,0-.637-1.537c-2.547.035-3.092,1.788-5.229,2.979a.911.911,0,0,0,.215,1.645c3.344,1.222,3.563-.827,6.612-1.98l-.693-1.645a35.868,35.868,0,0,0-3.792,2.53.909.909,0,0,0,.455,1.677l.5.062-.777-1.354-.284.43c-.477.725.5,1.766,1.231,1.232,1.969-1.435,3.7-3.041,6.112-3.709l-.876-1.5c-1.1,1.208-1.869,1.374-.819,2.959l.537-1.322a15.2,15.2,0,0,0-2.216.52.91.91,0,0,0-.215,1.645A12.28,12.28,0,0,0,71.1,45.334l-.239-1.768-.262.065.479,1.735c2.181-.852,1.333-1.726,1.685-3.631a.9.9,0,0,0-1.645-.694A14.771,14.771,0,0,1,69.2,43.292l1.536.636c.066-2.887,3.612-3.347,5.638-3.735l-.479-1.736a15.068,15.068,0,0,0-1.78.757c-.892.439-.334,1.583.454,1.677a2.363,2.363,0,0,0,1.7-.2.9.9,0,0,0-.239-1.768c-1.02-.014-7.29.6-7.093,1.165L68.307,41.2A12.12,12.12,0,0,1,69.9,41c1.143-.11,1.154-1.911,0-1.8a7.6,7.6,0,0,0-2.066.268.916.916,0,0,0-.629,1.107c.8,2.289,7.3.136,8.829.157l-.24-1.768-1.223.131.454,1.678,1.351-.576a.9.9,0,0,0-.479-1.736c-3.113.6-6.874,1.749-6.959,5.471a.91.91,0,0,0,1.537.636,24.726,24.726,0,0,0,2.2-2.614l-1.645-.694c-.107.583.037,2.193-.428,2.375a.9.9,0,0,0,.479,1.735l.262-.064c1.039-.255.726-1.685-.24-1.768a7.8,7.8,0,0,1-3.465-.8l-.215,1.645a15.012,15.012,0,0,1,2.216-.52.906.906,0,0,0,.538-1.323c-.454-.684-.038-.145.538-.777a.907.907,0,0,0-.875-1.5c-2.559.71-4.432,2.352-6.542,3.89l1.231,1.232.284-.431a.911.911,0,0,0-.777-1.354l-.5-.062.454,1.678a35.449,35.449,0,0,1,3.791-2.53c.855-.5.286-2.015-.693-1.645-1.835.693-3.567,2.743-5.656,1.979l.215,1.645c.737-.41,1.525-.605,2.239-1.05.991-.617.318-1.658,2.082-1.683l-.636-1.536L64.161,41.4c-.708.611.053,1.717.876,1.505a8.14,8.14,0,0,0,3.446-1.553c.444-.386,1.285-2.275,1.7-2.391L69.076,37.85,68,39.617c-.489.5-.18,1.641.636,1.537a11.77,11.77,0,0,0,3.907-1.129,17.513,17.513,0,0,0,2.235-1.377l.837-.634Q77.3,36.4,75.725,39.3l-1.017-1.322-2.9,1.984.455,1.677c1.441-.7,6.454-1.192,6.59-3.561.13-2.268-2.105-1.241-3.25-1.946v1.554l-1.054-.022-.323-1.232-1.381-.759-.4,1.5a2.191,2.191,0,0,0,1.121-2.715.926.926,0,0,0-1.016-.413c-2.544.467-3.724,1.182-3.589,3.642.033.606.768,1.22,1.354.777.283-.214.555-.427.828-.653H69.868l.229-.073.478,1.736,2.076.194V38.4a5.342,5.342,0,0,1-2.24,1.5c-.929.424-.271,1.953.693,1.645,1.956-.623,7.042-1.595,7.615-4.028s-2.68-2.933-4.435-3.333a.9.9,0,0,0-.478,1.736l1.227.535V34.9c.693-.346-.179-.389-.748-.708a11.613,11.613,0,0,0-1.436-.623c-.972-.385-1.539,1.134-.694,1.645l1.3.788c1.011.611,1.828-.888.909-1.555l-1.738-.371L72,32.971c.111-.344-1.779.542-1.864.6a3.6,3.6,0,0,0-1.407,1.723.9.9,0,0,0,1.413,1.091l.812-.785L69.54,34.51a1.635,1.635,0,0,0-.25,1.762.9.9,0,0,0,1.735-.479Z"/><path class="d" d="M46.321,38.614c2.666-.149,5.086,2.591,7.3,3.913a12.946,12.946,0,0,1,4.843,5.325c.8,1.755,3.385.232,2.591-1.514a15.731,15.731,0,0,0-5.92-6.4c-2.861-1.71-5.228-4.522-8.811-4.322-1.92.108-1.932,3.109,0,3Z"/><path class="d" d="M42.629,38.256c4.783.173,8.369,1.015,11.339,5,2.192,2.941,6.283,5.145,5.554,9.562-.1.625.75,1.107,1.1.463a8.725,8.725,0,0,0,1.007-5.574.6.6,0,0,0-1-.265,2.324,2.324,0,0,0-.771,1.839l1.178-.16-.154-.911c-.129-.76-1.285-.438-1.157.319l.154.911c.122.717,1.116.46,1.179-.159l.419-.991-1-.264a7.288,7.288,0,0,1-.886,4.649l1.1.462c.348-2.107-.377-3.69-1.205-5.566-1.168-2.647-3.143-3.485-5.021-5.756-3.1-3.75-7.107-4.588-11.824-4.759-.772-.028-.771,1.172,0,1.2Z"/><path class="d" d="M60.982,49.705,60.97,49.5l-1.118.3.315.706a.6.6,0,0,0,.821.215A.618.618,0,0,0,61.2,49.9l-.315-.7a.6.6,0,0,0-.678-.276.611.611,0,0,0-.441.579l.012.208a.6.6,0,0,0,1.2,0Z"/><path class="d" d="M42.063,38.4a21.006,21.006,0,0,1,6.308.469c2.486.7,3.154,2.12,4.673,3.944a34.666,34.666,0,0,0,3.248,2.839c2.568,2.411,3.747,7.171,1.081,10.121-.517.572.329,1.423.849.848,3.759-4.158,1.8-9.476-2.021-12.6-1.99-1.625-3.123-4.205-5.391-5.477-2.587-1.45-5.88-1.437-8.747-1.347-.77.025-.774,1.225,0,1.2Z"/><path class="d" d="M48.336,38.725a10.731,10.731,0,0,1,4.646,3.552l.678-.881c-1.832-.58-2.433-2.846-4.164-3.684l-.462,1.1c2.253.916,2.964,3.52,4.711,5.028.485.418,4.355,3.1,4.824,2.616-.54.552.308,1.4.849.848l.1-.1a.592.592,0,0,0,.154-.584c-.74-1.941-3.877-2.489-5.311-3.823-1.862-1.732-2.511-4.126-5.008-5.14-.626-.255-1.072.8-.462,1.1,1.854.9,2.4,3.155,4.45,3.805.464.147,1-.456.677-.881a12.261,12.261,0,0,0-5.363-4.1c-.716-.289-1.027.871-.319,1.157Z"/><path d="M54.722,53.5a23.475,23.475,0,0,1-3.5.489A14.281,14.281,0,0,1,47,53.416c-.444-.117-.512.781-.142.907a10.979,10.979,0,0,0,4.333.536,13.271,13.271,0,0,0,3.595-.839c.181-.065.153-.558-.059-.516Z"/><path d="M55.587,40.513c-1.965-3.6-4.861-6.089-9.2-5.444-3.565.53-7.232,2-8.963,5.347-1.664,3.221-1.47,6.812-.609,10.224a15.4,15.4,0,0,1,.618,3.211,4.835,4.835,0,0,1-1.132,3.21c-.826,1.131-2.041,2.752-1.1,4.156a.4.4,0,0,0,.621.107,10.4,10.4,0,0,0,.961-1.771c.39-.609.885-1.146,1.256-1.769a7.617,7.617,0,0,0,.858-4.81c-.208-1.861-.958-3.6-1.237-5.445a9.953,9.953,0,0,1,.363-4.62c1.186-3.543,4.523-5.081,7.979-5.753a7.615,7.615,0,0,1,5.684.8,47.234,47.234,0,0,1,3.71,2.951c.226.178.253-.278.189-.4Z"/><path d="M49.7,36.57c1.715,1.538,3.571,2.768,5.391,4.177a20.707,20.707,0,0,1,4.627,4.305c2.43,3.606.266,8.843-3.044,11.044a8.935,8.935,0,0,1-5.464,1.483c-2.248-.112-4.342-.97-6.541-1.36-3.3-.585-8.159,0-9.287,3.805-.076.258.015,1.2.5.935a16.312,16.312,0,0,1,4-1.974,13.517,13.517,0,0,1,5.964.186,20.938,20.938,0,0,0,5.42.864,11.772,11.772,0,0,0,4.573-1.279c5.31-2.674,8.359-10.9,4.02-15.738-2.59-2.889-6.251-5.905-10.116-6.637-.1-.018-.1.141-.048.189Z"/><path d="M53.249,38.127c.461-1.765.251-3.455,1.525-4.955a6.6,6.6,0,0,1,2.115-1.687,9.973,9.973,0,0,0,2.19-.921,8.269,8.269,0,0,0,1.213-1.758,5.587,5.587,0,0,1,2.179-1.952c1.014-.425,1.454.034,1.961.851a1.478,1.478,0,0,0,1.644.7c.812-.146,1.553-.6,2.355-.8a8.645,8.645,0,0,1,3.065-.215c.769.084,2.889.457,2.327,1.709a6.62,6.62,0,0,1-2.3,2.016c-1.2.778-2.673,1.32-3.443,2.6a3.435,3.435,0,0,0-.437,1.992c.051.833.66,1.864,0,2.548-.763.8-1.895.1-2.837.262a2.211,2.211,0,0,0-1.6.958c-.522.869-.3,1.866-1.55,2.154-.779.18-1.576.3-2.361.456-.845.164-.746,2.06.047,1.9,1.706-.336,3.521-.335,4.421-2.051.169-.324.224-1.033.455-1.286a1.737,1.737,0,0,1,1.185-.315c1.065.052,1.718.46,2.686-.248a2.891,2.891,0,0,0,1.182-2.044c.115-1.039-.7-2.361-.034-3.233a8.113,8.113,0,0,1,2.374-1.595,12.484,12.484,0,0,0,2.623-2.058,3.117,3.117,0,0,0-.138-4.717c-1.581-1.2-4.143-1-5.936-.516-.585.159-1.117.42-1.685.619a1.03,1.03,0,0,1-1.456-.485,2.186,2.186,0,0,0-1.879-1.111c-1.922.024-3.3,2.062-4.153,3.536-.677,1.174-2.205,1.118-3.32,1.78a6.466,6.466,0,0,0-2.141,2.05c-.933,1.435-1.971,4.507-.475,5.9.073.068.174,0,.2-.083Z"/><path d="M72.7,31.159c.218.277.022.923.058,1.273a2.216,2.216,0,0,0,.588,1.328,6.188,6.188,0,0,0,3.015,1.281c.957.262,2.469.661,2.591,1.858.131,1.293-.988,2.406-2.006,2.992a16.179,16.179,0,0,1-3.366,1.052,1.785,1.785,0,0,0-1.3,1.965c.055.639.461,1.2-.26,1.58a4.91,4.91,0,0,1-2.006.437c-1.381.05-2.026-1.228-3.3-1.46a1.579,1.579,0,0,0-1.355.316c-.538.467-.551,1.217-1.357,1.362-1.159.207-2.254-1.024-2.978-1.766-.3-.307-.669.045-.781.334a1.169,1.169,0,0,0,.236,1.2,6.418,6.418,0,0,0,2.7,2.027,2.4,2.4,0,0,0,1.588-.106c.7-.315.746-.912,1.232-1.4.6-.594,1.429.135,1.978.492a3.1,3.1,0,0,0,1.755.572c1.073-.005,2.735-.35,3.377-1.311a2.08,2.08,0,0,0,.285-1.37c-.045-.458-.4-1.041.029-1.447a2.3,2.3,0,0,1,.961-.327,11.706,11.706,0,0,0,3.808-1.3c2.045-1.349,2.8-4.5.964-6.354-1.043-1.051-2.56-1.158-3.912-1.54-.818-.232-1.389-.5-1.547-1.372-.084-.461-.25-.915-.738-1.055-.375-.108-.423.539-.262.741Z"/><path d="M56.08,41.123a2.425,2.425,0,0,0,.818-.72c.255-.262.522-.512.781-.769.578-.575,1.2-1.134,1.823-1.653a17.207,17.207,0,0,1,4.182-2.526c.736-.315.514-2.169-.383-1.856a13.626,13.626,0,0,0-4.515,2.645,11.644,11.644,0,0,0-1.8,1.991,9.859,9.859,0,0,0-.7,1.148,3.655,3.655,0,0,0-.5,1.315c-.018.162.053.515.294.425Z"/></svg>