<svg xmlns="http://www.w3.org/2000/svg" width="100" height="100" viewBox="0 0 100 100"><defs><style>.a{fill:#438243;}.b{fill:#74c474;}</style></defs><title>broccoli</title><path d="M36.245,38.931c-.486-2.063-.647-4.127.881-5.825a6.346,6.346,0,0,1,4.316-1.921c1.281-.085,1.2-2.947-.071-2.882-4.977.253-9.332,6.817-5.673,11.138.341.4.626-.177.547-.51Z"/><path d="M49.544,25.38a6.419,6.419,0,0,1,7.185-3.506c1.209.291,1.405-2.221.382-2.45a6.9,6.9,0,0,0-8.295,5.513c-.09.5.429,1.094.728.443Z"/><path d="M58.954,35.61c1.163,3.963,6.97,5.113,9.238,1.462.44-.707.277-3.252-1.087-2.648-1.2.53-2.325,1.226-3.689,1.09-1.41-.141-2.166-1.116-3.33-1.723-.931-.486-1.292,1.273-1.132,1.819Z"/><path d="M76.374,24.243a4.121,4.121,0,0,1,1.181,4.677c-.3.85.479,2.837,1.4,1.564,1.824-2.525.781-6.741-2.15-7.955-.855-.355-.852,1.336-.429,1.714Z"/><path class="a" d="M41.945,30.714a27.1,27.1,0,0,0-7.16,4.786c-.517.456-.482,1.766.226,2.044,1.6.629,3.108-.383,4.589-1.013q3.331-1.417,6.623-2.923c.9-.409.664-2.637-.475-2.3L38.372,33.5c-.889.264-.7,2.64.278,2.441q4.861-.992,9.788-1.513l-.775-1.915-.473,1.475c-.361,1.126.986,2.871,1.493,1.265l.468-1.479c.164-.52.113-2.013-.776-1.915a95.746,95.746,0,0,0-9.786,1.591l.277,2.441,7.357-2.287-.475-2.3q-2.409,1.132-4.836,2.225c-1.354.607-4.083,2.385-5.563,1.839l.226,2.044a43.587,43.587,0,0,1,6.681-5.2c.492-.328.438-1.825-.311-1.507Z"/><path class="a" d="M42.916,22.2l2.335-2.712c1.523-.4.923-3.193-.093-3.763l-2.328-1.3-.26,4.042,2.147-.057c2.078.455,2.405-3.689.657-4.222-7.539-2.3-17.21-.911-17.583,8.829-.1,2.6-.039,2.728-2.378,4.19A20.211,20.211,0,0,0,20.137,31.2a10.037,10.037,0,0,0-2.069,8.978c1.911,6.834,12.88,10.365,18.784,6.957A6.229,6.229,0,0,0,39.707,39.6c-1.293-4-4.85-4.718-8.642-4.665l.658,5.787q5.4-2.251,10.784-4.519l-1.162-5.632L31.78,35.108c-1.81.858-1.821,6.129.649,5.709l19.186-3.261-.64-5.635L22.867,39l1.117,5.413a22.536,22.536,0,0,0,7.06-4.661,3.693,3.693,0,0,0,.266-4.437c-3.9-4.795-7.685,5.089-1.816,5.958,2.19.324,2.2-4.443.807-5.293-3.093-1.886-6.673-1.16-6.515,3.208.163,4.512,4,5.221,7.552,4.27,1.488-.4,1.506-3.2,1.015-4.213l-.326-.676c-.328-.68-.81-1.366-1.651-1.372l-.75-.005c-2.3-.017-2.187,4.318-.815,5.338A6.9,6.9,0,0,0,34.556,44.1c2.154-.324,2.591-5.149.358-5.584-3.242-.632-6.315-1.972-9.451-1.65l-1.64-4.049L22.4,35.855c-.547,1.164.16,4.927,2.111,3.938l21.317-10.8C47.778,28,47.31,22.922,44.75,23.8L29.643,28.978c-1.865.639-1.576,5.657.6,5.29a52.243,52.243,0,0,0,9.81-2.623L38.987,26.47Q35.9,27.778,32.8,29.06c-2.1.875-1.515,5.868,1.078,5.224L39.3,32.937l-1.092-5.286q-3.695,1.319-7.383,2.655l1.531,5.046a61.954,61.954,0,0,0,6.774-6.243,3.754,3.754,0,0,0,.264-4.412q1.1.7,1.929-.714c1.641-1.151.911-5.931-1.553-5.12a26.078,26.078,0,0,0-6.514,3.179L34.817,27.2q2.654-1.931,5.309-3.858c1.585-1.148.83-6.3-1.574-5.189A12.979,12.979,0,0,0,35.214,20.2l2.63,3.8a9.323,9.323,0,0,1,.981-2.685c.56-1.23-.134-4.978-2.16-4.03-5.733,2.682-7.7,9.659-5.058,15.246l1.418-4.063-5.554.469c-2.108.178-2.376,4.906-.338,5.273,2.138.386,4.279.757,6.415,1.158q1.193.206,2.375.461a2.106,2.106,0,0,1,2.1,1.34c-1.908.477-1.5,4.611.128,5.19A34.775,34.775,0,0,0,51,44.412c2.465-.067,2.337-5.624-.137-5.56-2.515.066-5.029.135-7.544.228-2.551.095-2.35,5.443.139,5.675A112.84,112.84,0,0,0,69.7,44.146c2.488-.348,2.433-5.771-.141-5.715q-14.732.321-29.362,2c-2.545.291-2.4,5.949.142,5.76,8.66-.642,17.287-1.617,25.882-2.853l-.626-5.511q-1.263.333-2.527.663c-2.178.57-1.562,5.358.63,5.546l7.943.679-1.091-5.364-.865,1.014c-1.081,1.267-1.445,4.6.586,5.3C76.441,47.776,84.16,49.7,88.8,43.616c4.292-5.628.711-10.713-2.249-15.837l-2.235,4.695a12.015,12.015,0,0,1,1.916,1.259q2.885,1.745-.3,5.911l2.011,2.9a40.749,40.749,0,0,0-3.317-13.515c-.473-1.077-1.571-1.888-2.638-.979L81.7,28.3a3.755,3.755,0,0,0-.589,4c.62,1.25,1.044,1.777,2.453,1.986.832.123,1.355-.915,1.626-1.493,1.594-3.4-.8-7.593-1.871-10.845C82.125,18.342,79.35,22.1,79.7,24.4a16.61,16.61,0,0,0,2.475,6.471c.908,1.459,2.758.815,3.14-.7,2.726-10.766-6.647-15.2-15.73-16.307l.684,6.016c6.074-2.772,15.315,1.029,12.658,8.932l3.721.646C84.285,20.3,75.721,14.548,66.373,17.042c-2.305.615-1.709,5.807.677,5.955a8.555,8.555,0,0,0,3.86-.428c2.288-.572,1.493-4.985-.142-5.8-4.241-2.1-6.468-7.02-11.143-8.418-5.027-1.5-9.714,1.983-13.423,4.917l2.062,5a19.412,19.412,0,0,1,4.862-3.408C55.272,13.8,54.79,8.5,51.967,9.254a14.212,14.212,0,0,0-7.387,4.625c-1.2,1.372-1.389,5.256,1.1,5.42a50.838,50.838,0,0,0,11.355-.508l-.65-5.721L43.4,18.66c-1.888.812-1.8,6.061.65,5.715a30.923,30.923,0,0,0,9.684-2.959c2.013-1,1.8-5.448-.649-5.711a34.607,34.607,0,0,0-10.455.429l.648,5.707a44.293,44.293,0,0,1,16.667-1.824l-.648-5.7-6.852,1.9c-2.22.617-1.621,5.516.647,5.7a97.484,97.484,0,0,1,12.513,1.8l-.138-5.6L49.523,22.036c-2.088.513-1.677,5.956.644,5.671l12.457-1.529-.643-5.659A73.044,73.044,0,0,1,47.157,23.1l.642,5.646a62.191,62.191,0,0,1,10.708-4.449c2.028-.63,1.707-5.863-.641-5.638a73.694,73.694,0,0,0-16.388,3.479c-2.026.675-1.721,5.73.64,5.628l16.512-.71-.638-5.618L44.8,25.367c-2.055.613-1.694,5.7.637,5.609q8.971-.366,17.942-.716l-.64-5.633L52.074,28.016c-2.1.667-1.706,5.661.645,5.676l12.27.079-.143-5.839c-4.4.8-8.748,1.791-13.059,2.989-2.214.615-1.746,5.875.67,5.893,5.576.041,11.153.041,16.73.05l-.152-6.19-18.39,3.418c-2.7.5-2.71,6.514.156,6.335,4.458-.28,8.913-.6,13.369-.921,2.793-.2,2.636-6.134-.154-6.275a17.857,17.857,0,0,0-3.857.211c-2.695.42-2.669,6.272.153,6.232l14.115-.2-1.168-5.748-1.353,1.329c-1.41,1.385-1.371,5.6,1.168,5.743l8.483.487-2.008-2.217c.638,2.109,1.693,3.655,4.054,2.879,1.905-.626,1.841-4.642.345-5.645-2.29-1.535-4.432-1.878-6.953-.591-1.7.868-2.031,4.543-.345,5.631,3.389,2.185,5.615-.877,5.751-4.168.048-1.162-.991-3.71-2.623-2.9-1.6.8-1.979,1.644-2.261,3.413l3.919,1.533c.443-5.292-1.086-10.049-5.44-13.315l-1.4,5.577,3.9,2.275c2.273,1.326,2.52-3.423,2.128-4.487a21.436,21.436,0,0,0-5.4-8.216c-2.361-2.287-3.214,3.307-2.27,4.767a20.525,20.525,0,0,0,6.744,6.639c2.227,1.363,3.078-1.772,2.8-3.452a14.352,14.352,0,0,0-2.661-6.4c-2.113-2.9-3.706,1.871-3,3.7L79.5,33.121l2.991-3.7a38.835,38.835,0,0,0-9.5-8.023c-1.891-1.144-2.573,2.713-2.318,3.727a13.593,13.593,0,0,0,5.21,8.11l1.847-5.191L66.6,20.041c-2.692-1.938-3.207,3.214-2.249,4.725a32.767,32.767,0,0,0,8.29,8.953c2.595,1.931,3.319-3.2,2.245-4.716A75.676,75.676,0,0,0,65.12,17.771c-2.235-2.116-3.458,3.2-2.24,4.7l7.688,9.534,2.235-4.7A13.7,13.7,0,0,0,66.99,24.63c-2.238-.458-2.748,2.8-2.052,4.328A17.9,17.9,0,0,0,71.1,36.551c2.647,1.883,2.942-3.093,2.148-4.512q-3.124-6.63,2.44-7.133l-.641-5.644A83.092,83.092,0,0,0,54.114,28c-1.719,1.011-1.991,4.889.14,5.672a5.224,5.224,0,0,0,5.237-.516c1.639-1.086,2.072-4.877-.14-5.7a13.174,13.174,0,0,0-9.463-.056c-1.859.649-1.919,5.324.141,5.742l3.827.777-.141-5.762a7.256,7.256,0,0,0-3.874,3.146c-1.036,1.521-.634,4.829,1.518,5.086l7.086.845-.668-5.878a21.013,21.013,0,0,0-4.457,2.508c-1.568,1.116-1.174,5.586,1.131,5.564l5.86-.056-.147-6-7.806.164c-2.773.059-2.377,5.564.147,6a102.174,102.174,0,0,0,11.2,1.3c2.6.157,2.551-5.835-.147-6a102.231,102.231,0,0,1-11.2-1.3l.147,6,7.806-.164c2.656-.056,2.527-6.024-.147-6l-5.86.056L55.435,39a12.061,12.061,0,0,1,3.531-1.88c2.214-.9,1.734-5.591-.668-5.878l-7.086-.846,1.518,5.086L54.9,33.9c1.835-.68,1.952-5.348-.141-5.761l-3.831-.757.141,5.741a10.051,10.051,0,0,1,7.392.061l-.14-5.7a2.677,2.677,0,0,1-3.179.49l.139,5.672a83.287,83.287,0,0,1,20.913-8.855c2.07-.562,1.692-5.824-.642-5.645-8.945.689-8.072,11.238-4.835,16.971l2.148-4.512a12.879,12.879,0,0,1-4.7-5.665l-2.053,4.328a11,11,0,0,1,4.86,2.194c2.505,1.89,3.45-3.187,2.235-4.7l-7.682-9.542-2.24,4.7a69.294,69.294,0,0,1,8.95,10.336l2.245-4.716A29.4,29.4,0,0,1,67.007,20.5l-2.25,4.725,11.118,8.018c2.622,1.891,3.815-3.74,1.847-5.191a7.644,7.644,0,0,1-3.32-4.6l-2.318,3.727a31.935,31.935,0,0,1,7.734,6.54c2.316,2.685,3.739-1.769,2.992-3.7L80.17,23.21l-3,3.7a6,6,0,0,1,1.584,3.783l2.8-3.452a17.675,17.675,0,0,1-5.921-5.728l-2.27,4.767a15.32,15.32,0,0,1,3.913,6.12l2.128-4.487-3.9-2.3c-2.356-1.391-3.021,4.345-1.4,5.576,2.1,1.589,3.65,3.643,3.4,6.5-.276,3.148,3.248,5.634,3.919,1.533l.139-.85-1.354,2.176.773-.38-2.623-2.9.187-1.29-.345,5.631a3.091,3.091,0,0,1,3.824.061l.345-5.645-.234-.151L83.614,38l-.2-.665c-.306-1.018-.8-2.144-2.008-2.217L72.922,34.6l1.167,5.743,1.355-1.324c1.33-1.3,1.416-5.778-1.169-5.748l-14.116.166.153,6.232a16.889,16.889,0,0,1,3.858-.168l-.154-6.275c-4.459.271-8.915.547-13.371.861l.156,6.335,18.386-3.563c2.626-.509,2.692-6.207-.152-6.19-5.575.034-11.151.06-16.726.126l.67,5.894a117,117,0,0,1,12.01-2.923c2.489-.465,2.534-5.832-.143-5.839L52.577,27.9l.645,5.676,10.66-3.431c2.041-.657,1.715-5.733-.64-5.633q-8.97.381-17.941.741l.637,5.609,13.19-3.925c2.057-.612,1.7-5.716-.639-5.617l-16.512.7.64,5.628a69.2,69.2,0,0,1,15.391-3.239l-.641-5.638a62.178,62.178,0,0,0-10.71,4.441c-1.743.92-1.912,5.827.642,5.646a78.327,78.327,0,0,0,15.826-2.795c2.057-.581,1.687-5.942-.643-5.659L50.025,21.921l.645,5.67,15.944-3.9c1.922-.47,1.767-5.191-.137-5.6a105.155,105.155,0,0,0-13.531-1.99l.648,5.7,6.853-1.9c2.216-.615,1.626-5.528-.648-5.7a46.983,46.983,0,0,0-17.678,2.05c-2.06.636-1.653,6.146.649,5.706a34.626,34.626,0,0,1,10.455-.424l-.649-5.712A27.783,27.783,0,0,1,43.9,18.543l.65,5.715,12.991-5.583c1.889-.812,1.793-6.1-.65-5.722a50.825,50.825,0,0,1-11.355.5l1.1,5.421a12.387,12.387,0,0,1,6.486-4.01L51.967,9.254A22.788,22.788,0,0,0,46.2,13.272c-1.668,1.582-.491,7.022,2.062,5,4.542-3.59,9.264-6.318,14.264-1.875,2.482,2.207,4.324,4.635,7.333,6.2l.38-5.917a5.541,5.541,0,0,1-3.34.242l.677,5.955c6.132-1.558,13.5,2.007,15.206,8.322.539,2,2.876,3.254,3.721.647C90.074,20.832,80.974,8.55,69.055,13.99c-2.179.995-1.845,5.743.684,6.016,3.247.35,13.552,1.482,12.033,7.164l3.141-.7a8.276,8.276,0,0,1-1.377-3.794l-3.613,2.447c.213.6,2.022,4.447,1.868,4.795l1.626-1.492-.51-.06L84.6,29.776l-.259-.494-.588,4,.285-.256L81.4,32.05a31.617,31.617,0,0,1,2.666,10.594c.079,1.1.577,2.943,2.011,2.9,3.98-.106,6.52-3.489,6.8-7.329.351-4.843-2.839-8.509-6.729-10.892-2.82-1.727-3.154,3.1-2.235,4.695,2.346,4.061,3.259,8.662-2.335,9.7C78,42.39,74.5,41.163,71.146,40.032l.586,5.3.855-1.039C73.724,42.911,74,39.1,71.5,38.929l-7.94-.556.631,5.546q1.258-.352,2.52-.7c2.008-.554,1.631-5.82-.627-5.511-8.6,1.178-17.227,2.059-25.886,2.717l.142,5.76q14.638-1.7,29.361-2.041l-.141-5.715a112.823,112.823,0,0,1-26.235.649l.139,5.675c2.515-.1,5.028-.219,7.542-.343l-.137-5.56a30.146,30.146,0,0,1-11.9-1.708l.127,5.19c3.312-.832,3.977-5.27,2.692-8.007-2.214-4.718-9.99-4.617-14.316-5.392l.132,5.358,5.554-.476c1.746-.15,2-2.827,1.417-4.063-1.5-3.16.215-5.851,3.193-7.138l-1.889-4.6a19.639,19.639,0,0,0-1.3,3.211c-.469,1.544.311,5.476,2.63,3.8l2.481-1.389-1.574-5.19q-2.646,1.948-5.3,3.891c-1.649,1.21-.466,6.526,1.564,5.154a26.1,26.1,0,0,1,6.506-3.215l-1.554-5.119c-3.391,2.4-4.707,5.867-2.445,9.566l.264-4.412A62.276,62.276,0,0,1,30.393,30.6c-1.479,1.186-.937,5.95,1.531,5.046s4.917-1.8,7.373-2.706c2.159-.8,1.517-5.965-1.092-5.286L32.8,29.06l1.078,5.224q3.088-1.326,6.181-2.639c2.064-.871,1.4-6.1-1.068-5.175a47.361,47.361,0,0,1-8.875,2.4l.6,5.29,15.11-5.167L44.75,23.8,23.43,34.581l2.11,3.939,1.43-3.035c.517-1.1.127-4.229-1.64-4.049-3.026.309-4.221,3.689-3.285,6.4,1.518,4.392,8.168,5.339,12.013,6.179l.358-5.585a4.056,4.056,0,0,1-3.835-.87L29.766,42.9l.75,0-1.651-1.372.328.675,1.015-4.213a2.148,2.148,0,0,1-2.986-.318l.071,2.864,1.705.65.357-5.567.8,1.419-1.294,2.756-.075-.425.266-4.438A19.245,19.245,0,0,1,22.867,39c-2.174.912-1.571,6.08,1.117,5.413l28.131-6.972c2.08-.515,1.635-6.013-.641-5.635L32.286,34.991l.649,5.709,9.572-4.5c2.2-1.033,1.482-6.729-1.162-5.632q-5.4,2.239-10.792,4.482c-2,.836-1.834,5.822.657,5.787a21.488,21.488,0,0,1,4.934.3,7.653,7.653,0,0,1-4.038,1.381,12.8,12.8,0,0,1-6.573-1.467,14.547,14.547,0,0,1-3.018-1.947q-.768-3.987,2.686-5.457c1.387-.929,3.059-1.524,4.359-2.578,1.895-1.536,2.318-2.741,2.453-5.194.189-3.452.064-5.134,3.313-6.895,2.869-1.554,6.339-1.267,9.391-.579l.275-4.29a4.782,4.782,0,0,0-2.879.322c-1.517.447-1.077,3.408.1,3.96l2.36,1.108-.093-3.763c-3.229,1.121-4.154,3.789-3.755,6.967.239,1.908,2.321,1.2,2.194-.509Z"/><path class="a" d="M80.642,40.91a11.074,11.074,0,0,1-4.495-1.875L75.5,43.248a18.311,18.311,0,0,1,4.06-.013c1.961.2,2.09-4.475.309-4.812a12.057,12.057,0,0,1-4.855-1.867l.116,4.69c.417-.356,4.044-3.7,4.649-3.111l1.716-4.82a13.687,13.687,0,0,0-5.153-2.106c-2.783-.526-2.788,4.306-.835,5.356A8.735,8.735,0,0,0,81.675,37.6c2.045-.34,2.457-4.178.8-5.249-2.336-1.51-6.44-4.294-8.844-1.626a4.575,4.575,0,0,0,.625,6.241l.816-5.351a78.722,78.722,0,0,0-14.865-.34c-2.355.184-4.812.859-7.16.868-3.194.011-4.9-1.692-6.94-3.841l-.848,5.555c2.432-.027,4.851.015,7.281.126,2.592.118,2.5-5.734-.146-5.922-3.655-.258-7.309-.521-10.965-.767-1.988-.133-2.07,3.31-1.558,4.465,2.379,5.371,7.228,4.8,11.566,7.7l.295-4.82a20.863,20.863,0,0,1-6.324.861c-2.275,0-2.344,4.931-.35,5.457a13.44,13.44,0,0,0,5.85.415c1.289-.18,1.893-1.715,1.8-2.888-.529-6.434,7.032-7.4,8.388-12.705.881-3.446-1.226-4.29-2.265-6.972l-.213,3.54c.844-1.758,2.3-1.275,3.589-.944,2.671.687,2.578-3.519,1.751-4.941-1.65-2.836.033-6.268-2.353-9.117l-1.751,4.941A8.544,8.544,0,0,1,65.7,17.867l1.549-4.437c-5.637.777-11.58,2.23-17.273,2.261-2.352.013-4.551-.534-6.918-.323-1.486.131-4.183-.55-5.488.091-6.936,3.407,4.26,14.769,6.983,16.989,2.446,1.994,3.471-3.486,1.788-5.024a13.7,13.7,0,0,0-9.468-3.793c-2.38-.06-2.406,5.1-.364,5.673a57.388,57.388,0,0,0,15.03,2.047c3.884.041,10.083.938,13.472-1.4,4.023-2.773,5.236-12.548-.908-13.165-2.465-.247-2.452,5.5.141,5.764q.15,2.034-2.281,2.655-1.58.151-3.166.2c-2.156.113-4.316.178-6.475.177a54.828,54.828,0,0,1-14.943-1.864L37.014,29.4a10.806,10.806,0,0,1,7.538,3.053l1.788-5.024a27.6,27.6,0,0,1-3.861-3.68c-.629-.757-2.339-4.04-2.915-4.391q-.872,2.066.741,1.929a5.233,5.233,0,0,0,2.162-.008,29.02,29.02,0,0,1,4.492-.083c6.775.581,13.7-1,20.432-1.918,1.992-.272,2.065-2.98,1.549-4.437a12.784,12.784,0,0,0-8.2-8.223c-2.468-.828-2.828,3.655-1.751,4.941,1.716,2.049.848,6.53,2.353,9.117l1.751-4.941c-2.942-.756-3.16-1.652-5.542.593-1.788,1.686-2.884,3.412-1.769,5.973.36.827,1.369,2,1.3,2.176-.444,1.139-4.025,3.129-5.089,4.448a13.084,13.084,0,0,0-3.016,9.655l1.8-2.888a9.409,9.409,0,0,1-4.874-.1l-.35,5.457a25.3,25.3,0,0,0,7.231-1.352c1.683-.563,1.506-3.9.295-4.82-2.733-2.074-8.508-2.879-9.939-6.166L41.574,33.17c3.655.279,7.311.542,10.967.809L52.4,28.057c-2.429-.115-4.849-.162-7.281-.14-2.608.023-1.981,4.358-.847,5.555,3.942,4.16,6.825,4.83,12.385,4.083a78.889,78.889,0,0,1,18.562-.226c2.387.242,2.01-4.365.816-5.351l-.506-.418L76.513,34a8.488,8.488,0,0,0,4.223,3.232l.8-5.248a7.389,7.389,0,0,1-5.191-.778l-.835,5.356a8.748,8.748,0,0,1,4.272,1.57c2.683,1.671,3.231-3.355,1.716-4.82l-1.029-.993a1.348,1.348,0,0,0-1.829.044A49.4,49.4,0,0,0,73.219,36.6a3.336,3.336,0,0,0,.547,4.953,14.543,14.543,0,0,0,5.8,1.682l-.12-4.889a18.383,18.383,0,0,0-4.051.4c-1.786.367-1.973,3.766-.284,4.431a15.9,15.9,0,0,0,5.314,1.146c1.421.079,1.454-3.095.219-3.413Z"/><path class="b" d="M38.508,48.625a2.933,2.933,0,0,0,1.083,1.106l.171-.681q-.792-.346-1.613-.617c-.22-.079-.332.171-.372.338l-.085.356a.6.6,0,0,0,.159.543c1.1.956,2.494-.732,1.7-1.838-.047-.065-.161-.175-.257-.154l-.311.07c-.459.1-.486,1.087.027,1.1.437.01.427,0,.743-.3.278-.264.23-.978-.211-1.037a1.643,1.643,0,0,0-1.442.419c-.31.24-.185,1.26.319,1.051,1.391-.575,1.647.189,2.75,1.324q1.948,2.007,3.882,4.029l.39-1.1c-2.273-1.961-4.645-3.792-7.092-5.531-.543-.387-.75.748-.375,1.056q2.967,2.436,5.778,5.049l.278-1.113a9.64,9.64,0,0,1-4.319-2.589l-.38,1.066,2.125,1.8c.5.422.622-.578.532-.855a5.5,5.5,0,0,0-1.456-2.35l-.384,1.079q1.825,1.8,3.655,3.595l.384-1.078a27.008,27.008,0,0,1-3.4-4l-.466.978q2.9,3.165,5.634,6.478l.468-.984L41.162,50.06c-.414-.455-.75.657-.471.991q3.687,4.409,7.368,8.822c.513.615.837-.489.569-.914l-3.047-4.826L45,55.069c1.055,1.191,3.185,2.889,3.788,4.36l.238-.987.156.051c-.5-.486-.81.787-.415,1.164l.075.072a.322.322,0,0,0,.34.059l.108-.065a.808.808,0,0,0,.238-.986c-.708-1.709-2.808-3.33-4.035-4.7-.462-.517-.7.711-.493,1.036l3.06,4.8.569-.914q-3.7-4.4-7.38-8.8l-.472.991,5.258,5.765c.414.454.742-.654.469-.984q-2.817-3.407-5.806-6.661c-.434-.474-.684.663-.466.978a28.251,28.251,0,0,0,3.567,4.2c.468.455.74-.727.384-1.078q-1.827-1.8-3.655-3.6c-.465-.457-.737.726-.384,1.079A3.591,3.591,0,0,1,41.3,52.756l.533-.856-2.127-1.788c-.522-.439-.706.735-.38,1.066a9.984,9.984,0,0,0,4.517,2.694c.579.168.562-.851.279-1.112q-2.823-2.6-5.778-5.051l-.375,1.056c2.441,1.757,4.786,3.622,7.077,5.572.534.455.721-.756.39-1.1q-2.986-3.081-6-6.131a.309.309,0,0,0-.474.106l-.774.657.32,1.052,1.061-.292L39.354,47.6l-.376.153.122,1.077c-.685.175-.136.783.55.941.364.084.382-.587.112-.716l-1.081-.789c-.164-.171-.26.246-.173.364Z"/><path class="b" d="M39.5,46.857a6.877,6.877,0,0,0,.3,1.416c.2.383.561.13.533-.235a2.58,2.58,0,0,0-.242-.958l-.461.741.152.156-.192-.472.013.209.625-.416c-.19-.264-.3-.573-.5-.832l-.057.951h0c.424-.256.271-1.447-.241-1.168a5.384,5.384,0,0,0-1.8,2.28l.408-.176-.665-.319c-.5-.241-.552.707-.456.96.653,1.722,3.287,2.12,4.52,3.306l.406-1.143a22.076,22.076,0,0,1-2.123-1.5c-.587-.468-.743.8-.409,1.151a7.15,7.15,0,0,0,1.667,1.22c.57.332.576-.961.308-1.229l-.637-.636c-.5-.495-.815.787-.418,1.174l.641.626.308-1.229a5.986,5.986,0,0,1-1.46-1.077l-.409,1.151A21.916,21.916,0,0,0,41.441,52.3c.636.393.769-.8.406-1.143a7.87,7.87,0,0,0-1.97-1.291c-.676-.341-1.947-.775-2.239-1.542l-.456.961.665.317a.338.338,0,0,0,.408-.176,5.375,5.375,0,0,1,1.419-2.009l-.335-1.1a.661.661,0,0,0-.091.069.789.789,0,0,0-.057.952c.2.242.32.541.53.777.4.451.662-.2.609-.566a.813.813,0,0,0-.369-.655c-.461-.344-.607.575-.4.848l.212.429.472-.439a8.108,8.108,0,0,1-.651-.954c-.044-.075-.1.035-.088.082Z"/><path class="a" d="M37.739,45.6c.627.615,1.278.262,2.13.128,1.742-.274,1.543-4.17-.095-3.891-1.375.234-3.177.263-3.853,1.675-.431.9-.662,4.115,1.149,3.851,4.491-.655,8.472-1.49,13.06-1.077a85.769,85.769,0,0,0,13.741-.013c2.48-.167,2.273-5.759-.136-5.53a125.4,125.4,0,0,1-13.718.937c-4.528-.064-8.612.82-13.058,1.141l1.508,2.84a1.182,1.182,0,0,0,1.74-.011l-.771-3.735-1.373.587a1.562,1.562,0,0,0-.777,1.249,2.117,2.117,0,0,0,.453,1.849Z"/><path class="b" d="M60.408,61.245l.081-.082.243-1.64-.107.208,1.421-.316a6.129,6.129,0,0,1-1-.858l.605,2.06.024-.323-.815,1.31.246-.166-.943-.164c-.573-.426-.118.88-.09,1.186l.2,2.175c.082.9,1.328,2.872,2.111,1.26a8.325,8.325,0,0,0,.571-1.395l-2.273-.873c.042,1.5-.06,3-.115,4.505-.057,1.543,1.642,2.689,2.369.91a15.976,15.976,0,0,0,.952-5.411c.114-2.355-2.356-2.232-2.492.061a15.347,15.347,0,0,1-.742,4.338A17.7,17.7,0,0,0,59.2,70.649l1.067.887-.036-.111c-.7-2.166-2.36.1-2.158,1.462l.018.123a1.639,1.639,0,0,0,.877,1.266l.133.052a.9.9,0,0,0,.936-.211c2.94-3.023,3.68-6.345,3.851-10.486l-2.492.061a8.508,8.508,0,0,1-.681,3.468l2.337,1.421a40.5,40.5,0,0,0,.045-5.013c-.049-1.325-1.68-2.757-2.273-.873l-.226.62,2.11,1.26c-.133-1.751.333-5.4-1.392-6.535a.926.926,0,0,0-1.229.03c-1.764,1.333-.539,3.525.844,4.475,1.055.724,1.824-.637,1.736-1.594l-.026-.287c-.051-.563-.226-1.377-.849-1.6-.545-.194-.739-.06-1.265.216-.685.361-.6,1.478-.12,1.964Z"/><path class="a" d="M84,45.907a1.608,1.608,0,0,0,1.908.261,2.177,2.177,0,0,0,.874-.96,2.949,2.949,0,0,0,.179-.433l.121-.48q.1-.438-.15.413l-.534.5-.127.031-.725-3.567a2.365,2.365,0,0,1-.468.42,2.482,2.482,0,0,0-.61,2.118,2.108,2.108,0,0,0,1.035,1.73,1.124,1.124,0,0,0,.944.014,2.321,2.321,0,0,1,.383-.176l-.854-4.138c.468-.128-.25.057-.333.1a1.765,1.765,0,0,0-.5.361,3.168,3.168,0,0,0-.488,3.316c.429.811.967,1.38,1.919,1.161a2.274,2.274,0,0,0,1.505-1.619,3.435,3.435,0,0,0-.323-2.95c-.44-.572-1.364-1.029-1.951-.334-.066.079-.138.14-.208.214-.218.23.328-.158.012-.014l.423-.1-.066.007.811.311-.034-.034.649,3.289-.134.326q.138-.275.262-.554c.047-.117.087-.236.13-.354.4-1.1-.019-3.66-1.675-3.127a1.381,1.381,0,0,0-.357.2c-.4.273.056-.06.151-.056l1.068,3.577a5.537,5.537,0,0,0,.5-1.1,2.768,2.768,0,0,0-.151-2.133c-.246-.456-.783-.934-1.343-.656a2.137,2.137,0,0,0-1,.938.759.759,0,0,1,.471-.375q.388.068-.257-.047c-.157-.008-.3.021-.461.016-.75-.028-1.207.958-1.284,1.565A2.639,2.639,0,0,0,84,45.907Z"/><path class="b" d="M49.146,56.057c.853,1.449,1.8,2.815,2.763,4.193l.488-1.024a20.73,20.73,0,0,1-2.817-2.819,10.709,10.709,0,0,0-3.246-2.124c-.588-.276-.717,1.072-.206,1.327a11.145,11.145,0,0,1,3.292,2.262A15.775,15.775,0,0,0,52,60.349c.625.418.717-.781.4-1.123a33.113,33.113,0,0,1-2.9-3.733c-.278-.4-.507.3-.351.564Z"/><path class="b" d="M50.974,61.53a8.78,8.78,0,0,0-.829,1.015l1.284-1.2-.191.062,3.54,2.076c-.386-.892-.373-1.565-.214.434l-3.485,5.6a21.773,21.773,0,0,0,5.2-.442l.578-.056L54.9,66.094c-.15-.591-.089-1.072-.017-.165.071.892.216,1.8.226,2.695l1.03-4.193-.087.171,1.669-1.556c.7-.209-1.2-.258-1.419-.27a8.9,8.9,0,0,0-1.853.089c-1.759.257-3.057-.012-4.5,1.3-2.641,2.411-2.109,7.353.238,9.711,1.4,1.411,3.078,1.341,4.857.9a12.945,12.945,0,0,1,3.214-.136c4.828-.057,4.691-5.741,4.284-9.225-.328-2.8-.908-6.517-3.941-7.685-1.36-.524-2.962-.051-4.335.162-1.484.23-2.959.44-4.415.816-1.72.444-2.393,3.264-2.481,4.648a6.955,6.955,0,0,0,1.863,5.451,5.659,5.659,0,0,0,2.228,1.665c2.133.747,3.422-1.656,3.717-3.378a6.357,6.357,0,0,0-1.608-5.635,1.857,1.857,0,0,0-2.6.064Z"/><path class="b" d="M41.788,53.991c2.7,3.581,6.64,5.855,9.414,9.389l.816-3.322c-1.751.379-5.112-1.819-5.807-3.516l-1.919,2.37c2.284,2.646,6.371,5.948,7.742,9.135l.134-2.223c-2.13,3.142-3.542,3.064-3.188,6.812l1.662-1.526-.37-.288c-.83-.647-1.517.3-1.637,1.071l-.1.649a2.152,2.152,0,0,0,.57,1.941C52.135,76.6,60.9,77.177,61.971,72.725a6.207,6.207,0,0,0-.037-1.693c-.145-2.889-.191-3.781,1.112-6.451a19.412,19.412,0,0,0,1.107-2.432c1.136-3.435,1.332-6.7,3.932-9.457,1.222-1.3,2.5-2.8,3.732-4.058.625-.638.74-2.975-.59-2.9l-1.72.095c-1.393.076-1.306,3.2.077,3.128l1.72-.095L70.955,45.8c-5.511,3.051-6.985,7.413-8.837,13.069-.957,2.922-2.906,5.08-3,8.2-.063,2.1,1.117,3.512-1.29,4.9-1.592.92-6.351.372-7.651-.5l.57,1.941.092-.652L49.2,73.826l.372.28c.987.741,1.757-.648,1.662-1.526-.2-1.851-.265-1.015,1.035-2.455.835-.924,1.877-1.478,1.963-2.813.078-1.2-.61-1.978-1.259-2.895-2.042-2.889-4.69-5.557-6.971-8.258-1.461-1.729-2.419,1.137-1.919,2.37,1,2.455,5.244,6,8.027,5.395,1.329-.288,1.58-2.35.817-3.322-2.7-3.437-6.343-7.006-10.354-8.834-1.109-.506-1.188,1.691-.788,2.223Z"/><path class="b" d="M39.473,46.645a.354.354,0,0,0-.29.012.55.55,0,0,0-.223.56.584.584,0,0,0,.1.287.292.292,0,0,0,.238.143l.333-.028c.291-.024.366-.4.34-.632s-.181-.55-.463-.447l-.323.117.343.836c.012-.019.023-.037.036-.055l-.062.077c.02-.022.043-.04.062-.062a.548.548,0,0,0-.089-.808Z"/><path class="b" d="M46.763,57.377,45.6,54.809l-.746,2.162.414-.057-1.021-1.925c.244,3.671,4.892,5.078,7.277,7.273l1-3.995a55.6,55.6,0,0,1-5.163-2.073c-1.421-.655-1.9,1.845-1.681,2.7a38.537,38.537,0,0,0,2.6,6.059c.233.514.643,1.08,1.279,1.063a5.142,5.142,0,0,0,4.276-2.508c.641-1.25.3-2.925.291-4.218,0-1.082-.048-6.708,1.159-7.582l-1.5.037c.3.208,1.223,7.339,1.495,8.184l1.658-3.5a18.7,18.7,0,0,0-2.506-.57l1.383,3.412c.355-1.4.6-2.465.843-3.886l-2.414,1.04c1.682,2.9,3.344,6.184,6.148,8.139.882.615,1.656.038,2.013-.862,1.815-4.58,5.411-9.777,8.561-13.611.928-1.129,1.1-4.045-.863-4.245-4.028-.411-5.645,5.858-7,8.607a27.519,27.519,0,0,0-2.437,5.946c-.607,2.669.244,7.653-3.674,7.747-1.978.048-1.88,4.485.109,4.464,3.372-.036,5.048-1.5,5.757-4.816.593-2.777.432-5.439,1.472-8.145.628-1.636,3.645-9.549,5.881-9.227l-.863-4.245a64.671,64.671,0,0,0-9.569,15.3l2.013-.861c-2.5-1.742-4.043-4.806-5.566-7.388-.87-1.475-2.233-.07-2.414,1.041l-.654,2.752c-.288.9-.277,3.014.981,3.34a16.143,16.143,0,0,1,2.086.616c1.9.632,2.017-2.418,1.657-3.495-.906-2.714-.081-7.98-2.693-9.7a1.132,1.132,0,0,0-1.5.037c-2.8,2.128-1.207,13.645-4.235,13.775l1.279,1.063a42.78,42.78,0,0,1-2.339-4.986l-1.682,2.7a48.731,48.731,0,0,0,5.161,2.09c2.05.7,2.006-3.089,1-4a32.193,32.193,0,0,0-3.726-2.772c-.684-.463-2.523-2.441-2.3-1.317-.165-.85-.747-1.6-1.667-1.372a1.731,1.731,0,0,0-1.278.793,2.354,2.354,0,0,0-.164,2.741c.8,1.4.98.7,2.5,1.944.578.473.815-.762.532-1.117Z"/><path d="M21.032,31.291c2.4-3.014,6.765-1.731,7.389-5.954.633-4.286.711-7.976,5.442-9.941a17.194,17.194,0,0,1,10.315-.388c1.22.287,1.415-2.174.387-2.485-5.389-1.633-13.069-1.016-16.208,4.39-1.492,2.57-.747,5.216-1.524,7.827-.746,2.511-4.831,3.358-6.394,5.7-.282.423.12,1.45.593.856Z"/><path d="M45.3,14.6c4.284-5.637,18.871-10.412,21.711-.375.18.635.6,1.418,1.39,1.143,7.334-2.532,18.432.536,17.117,10.305-.221,1.639,1.613,2.838,2,.783a12.663,12.663,0,0,0-4.21-12.049c-4.447-3.835-10.213-3.607-15.576-2.275l1.39,1.144C66.106,2.491,47.467,2.951,44.2,13.371c-.21.668.344,2.224,1.1,1.23Z"/><path d="M86.446,27.523c5.992,5.515,8.358,15.086-.934,18.891-3.3,1.349-6.984,1.014-10.317.031-2.37-.7-4.438-2.409-6.8-3.013a6,6,0,0,0-4.091.419,23.77,23.77,0,0,1-7.657,2A53.953,53.953,0,0,1,39.385,44.53c-1.035-.27-1.18,1.8-.329,2.111a41.006,41.006,0,0,0,21.791,1.133c2.319-.581,4.637-2.6,7.182-1.975,1.158.282,2.576,1.449,3.661,1.95a18.342,18.342,0,0,0,11.519,1.664c11.772-2.54,13.657-17.09,3.753-23.34-.8-.5-.99,1.014-.516,1.45Z"/><path d="M40.2,45.217c-4.939,4.248-12.864,3.028-17.583-.964-6.816-5.766-2.668-13.863,4.55-16.3.741-.251.633-2.106-.235-2.067-3.379.154-6.843,3.518-8.493,6.272-1.946,3.247-1.558,7.41.239,10.641,4.207,7.567,16.162,10.106,21.8,2.93.136-.173-.013-.732-.274-.508Z"/><path d="M35.683,49.384a32.633,32.633,0,0,1,9.045,11.045c1.925,4.053,2.075,7.911,2.689,12.243.549,3.878,3.93,4.471,7.716,4.412,4-.061,7.354-1.245,8.573-5.135,1.267-4.043,1.061-8.3,2.537-12.359a28.219,28.219,0,0,1,7.94-11.906c.387-.332.239-1.757-.432-1.425-4.989,2.469-7.824,8.722-9.364,13.822-.984,3.26-.91,6.717-1.779,9.96-.981,3.661-3.817,4.777-7.529,4.826-1.355.018-3.963-.007-5.008-.846-1.644-1.32-1.156-2.459-1.308-4.314a28.811,28.811,0,0,0-1.727-7.665,26.789,26.789,0,0,0-11-13.638c-.534-.327-.695.695-.349.98Z"/><path d="M68.528,44.858c-2,.867-3.363,2.835-4.587,4.576-.67.954-1.3,1.933-1.949,2.9-.413.621-1.7,3.178-2.427,3.367l.919.16c-.655-.71-1.02-2.614-1.238-3.445a24.544,24.544,0,0,1-.66-3.913c-.217-2.26-2.64-2.282-2.469.061.239,3.262.892,7.979,3.245,10.449a.89.89,0,0,0,.919.16c1.764-.5,3.063-4.1,3.912-5.564,1.506-2.586,3.392-4.971,4.813-7.591.168-.31.139-1.431-.478-1.164Z"/><path d="M52.769,48.03a32.37,32.37,0,0,0-1.885,8.391l1.2-.785a42.993,42.993,0,0,1-6.315-4.729c-1.952-1.763-3.438-3.878-5.264-5.73-.764-.775-1.161,1.009-.932,1.5,2.188,4.674,7.46,8.528,11.727,11.164.616.381,1.127-.135,1.2-.785.33-2.917.74-5.844.921-8.773.026-.426-.457-.738-.652-.251Z"/><path d="M36.245,38.931c-.486-2.063-.647-4.127.881-5.825a6.346,6.346,0,0,1,4.316-1.921c1.281-.085,1.2-2.947-.071-2.882-4.977.253-9.332,6.817-5.673,11.138.341.4.626-.177.547-.51Z"/><path d="M49.544,25.38a6.419,6.419,0,0,1,7.185-3.506c1.209.291,1.405-2.221.382-2.45a6.9,6.9,0,0,0-8.295,5.513c-.09.5.429,1.094.728.443Z"/><path d="M58.954,35.61c1.163,3.963,6.97,5.113,9.238,1.462.44-.707.277-3.252-1.087-2.648-1.2.53-2.325,1.226-3.689,1.09-1.41-.141-2.166-1.116-3.33-1.723-.931-.486-1.292,1.273-1.132,1.819Z"/><path d="M76.374,24.243a4.121,4.121,0,0,1,1.181,4.677c-.3.85.479,2.837,1.4,1.564,1.824-2.525.781-6.741-2.15-7.955-.855-.355-.852,1.336-.429,1.714Z"/><path d="M29.123,48.982c.2.068.413.237.622.322a3.578,3.578,0,0,0,.684.191c.493.1.985.218,1.482.3a8.592,8.592,0,0,0,3.444-.229,8.362,8.362,0,0,0,3.191-1.821c.215-.176.459-.334.663-.522.174-.16.265-.376.474-.473.522-.242.877-.013,1.264.31.773.646,1.251-1.188.594-1.668a2.011,2.011,0,0,0-1.311-.562,6.279,6.279,0,0,1-.747.12c-.238-.012-.41-.189-.663-.186-.567.006-1.168.738-1.574,1.075a9.872,9.872,0,0,1-1.589,1.1,8.675,8.675,0,0,1-3.531.92c-.535.044-1.07.123-1.6.185a2.9,2.9,0,0,0-.735.146c-.251.1-.443.275-.676.382-.134.062-.138.365.011.414Z"/></svg>