<svg xmlns="http://www.w3.org/2000/svg" width="100" height="100" viewBox="0 0 100 100"><defs><style>.a{fill:#30aa44;}.b{fill:#3bbc56;}.c{fill:#83cc8e;}.d{fill:#239b31;}</style></defs><title>cabbage-savoy</title><path class="a" d="M52.6,73.641a7.129,7.129,0,0,0,1.148.292l.54.066.249.03a.786.786,0,0,0,.29-.008.416.416,0,0,0,.279-.1.567.567,0,0,0,.229-.236,1.438,1.438,0,0,0,.2-.792c-.025-.464-.221-1.05-.758-1.095a.625.625,0,0,0-.223.012c-.073.017-.145.034-.217.053l-.239.063-.517.137a6.679,6.679,0,0,0-1,.413.629.629,0,0,0-.277.591.958.958,0,0,0,.062.3.479.479,0,0,0,.244.273Z"/><path class="a" d="M60.166,24.924c-2.507-4.143-8.8-5.236-12.46-2.013l1.058-.238L48.53,22.6l.62.524-.137-.224.438,1.468,0-.271-.365,1.484c.217-.367,1.356-.648,1.757-.763a9.344,9.344,0,0,1,7.071.978l.593-3.883c-2.119-.051-3.991-1.381-6.141-1.3a13.533,13.533,0,0,0-3.208.757,30.916,30.916,0,0,1-3.695.747c-4.314.689-8.589,1.309-11.21,5.238a3.3,3.3,0,0,0-.173,2.889c.247.589,1.053,1.53,1.791,1.05,1.908-1.242,3.849-2.594,6.17-2.851l-.512-4.5a69.716,69.716,0,0,0-12.184,8.233L31.672,34.1a5.065,5.065,0,0,1,1.187-2.673c.828-1.093.473-3.82-1.173-3.93a7.474,7.474,0,0,0-7.673,6.136c-.662,3.544,1.013,7.854,4.632,9.048,1.141.376,1.737-.856,1.934-1.758a16.8,16.8,0,0,1,2.532-5.713,3.231,3.231,0,0,0,.045-3.142c-.4-.7-1.322-1.335-2.039-.566C26.878,36.052,27.467,42.434,26.2,48.1l1.846-1.678.252.571-2.673,1.181c.63,1.217,1.118,2.519,1.659,3.778.357.83,1.2,1.407,2,.743a2.854,2.854,0,0,0,.445-3.031c-.561-1.252-1.185-2.493-1.658-3.78-.627-1.705-2.494-.994-2.636.592a4.525,4.525,0,0,0,1.532,4.245c.851.633,1.789.052,2.078-.89a53.765,53.765,0,0,0,1.334-8.213A10.756,10.756,0,0,1,32.8,35.594l-1.994-3.707A23.462,23.462,0,0,0,27.6,39.113l1.787-1.169c-1.2-.466-2.648-1.746-2.249-3.175.531-1.9,2.915-2.74,4.666-2.634l-1.173-3.93a10.591,10.591,0,0,0-1.978,5.972c-.063,1.156,1.058,3.02,2.323,1.933a57.805,57.805,0,0,1,11.472-7.761A2.489,2.489,0,0,0,43.462,25.8c-.093-.746-.547-2.04-1.53-1.955a15.253,15.253,0,0,0-7,2.878l1.618,3.939c2.141-3.33,6.851-3.836,10.39-4.5A30.278,30.278,0,0,0,50,25.442a8.856,8.856,0,0,1,2.863-.62c1.973.071,3.736,1.213,5.747,1.242.878.012,1.255-1.15,1.294-1.832a2.32,2.32,0,0,0-1.032-2.253,10.834,10.834,0,0,0-6.981-1.464c-2.375.322-5.517,1.208-5.156,4.2.146,1.217,1.159,2.634,2.45,1.792a9.713,9.713,0,0,1,3.317-1.594c2.667-.575,4.723.743,7.042,1.757.917.4.87-1.331.619-1.745Z"/><path class="a" d="M25.4,57.321a15.786,15.786,0,0,1,3.83-.236,1.636,1.636,0,0,1,.384.083q1.685.567.107-3.048a4.225,4.225,0,0,0-1.055-.015c-.846-.019-1.692-.041-2.538-.051-2.19-.027-1.727,3.991-.3,4.73a9.614,9.614,0,0,0,7.6.5c1.034-.349,1.269-2.146,1.036-3A3.7,3.7,0,0,0,32.588,53.7l-.731,4.692C36.5,59.682,41.2,62.4,42.77,67.223L44.9,63.8a41.475,41.475,0,0,1-6.055-4.577c-1.734-1.593-3.373-3.372-5.925-2.717-1.577.4-1.378,3.693-.273,4.47a19.445,19.445,0,0,1,5.74,6.265l1.857-3.9L37,59.923c-.726-.769-1.724-.036-2.068.684a3.418,3.418,0,0,0,.206,3.228c2.277,3.589,5.083,7.141,9.615,7.577.788.075,1.3-.974,1.449-1.56a3.46,3.46,0,0,0-.4-2.7,1.41,1.41,0,0,1-.23-.552l-1.491,3.174c1.661-.158,2.768,1.085,3.877,2.145a7.754,7.754,0,0,0,4.1,2.336c1,.175,1.474-1.477,1.511-2.14a2.616,2.616,0,0,0-1.2-2.631c-3.542-1.5-8.2-.937-11.156-3.628-.861-.783-1.857.064-2.171.929a3.228,3.228,0,0,0,.657,3.325c3.266,3.181,8.159,2.036,11.939,4.069l.731-4.7c-3.243-.861-4.627-4.994-8.408-4.664-1.431.124-1.706,2.087-1.491,3.174a7.4,7.4,0,0,0,1.119,2.719l1.046-4.258c-3.484-.324-5.578-3.467-7.294-6.157l-1.863,3.913,3.241,3.409c.727.764,1.719.037,2.063-.683a3.46,3.46,0,0,0-.2-3.219,22.048,22.048,0,0,0-6.419-6.994L33.885,61.2c.777-.2,1.564.559,2.085,1.021.79.7,1.526,1.458,2.326,2.149a40.044,40.044,0,0,0,5.075,3.725c2.125,1.32,2.57-2.069,2.126-3.419C43.606,58.921,38.22,55.238,32.588,53.7c-2.4-.656-2.4,3.791-.731,4.692l-.421-.747,1.036-3a7.417,7.417,0,0,1-5.921-.51l-.3,4.73c1.383.01,3.411.366,4.691-.283,1.572-.8,1.846-3.21,1.053-4.621-.741-1.32-2.292-1.385-3.643-1.137a4.911,4.911,0,0,0-3.53,2.549c-.267.49-.318,2.027.583,1.953Z"/><path class="a" d="M57.808,70.3l-1.187-.552.082,3.349a24.3,24.3,0,0,0,3.27-2.1,29.8,29.8,0,0,1,3.453-2.054,21.309,21.309,0,0,1,7.665-2.3l-.621-5.471a107.048,107.048,0,0,1-13.512,6.147c-1.212.452-1.274,2.283-1.137,3.3C56.172,73.2,58.366,73.446,60.45,73a30.119,30.119,0,0,0,6.143-1.958c3.764-1.7,7.35-4.48,9.228-8.237.722-1.443.623-5.251-1.878-4.573a8.965,8.965,0,0,0-4.313,2.676,3.437,3.437,0,0,0-.722,3c.147.7.778,2.077,1.716,1.894a12.258,12.258,0,0,0,9.117-8.54,18.9,18.9,0,0,0,.827-7.231c-.138-1.819-.743-3.922.442-5.491,1.276-1.691-.576-5.9-2.407-3.478C76,44.5,77.591,48.91,77.094,52.825c-.461,3.626-2.765,7.117-6.6,7.7l.993,4.889a5.706,5.706,0,0,1,3.071-1.77l-1.4-4.684a16.312,16.312,0,0,1-6.47,6.322,24.565,24.565,0,0,1-4.483,1.877c-.682.212-1.373.4-2.071.552-.358.079-.727.169-1.093.212-.6.07-.606-.177-.342.259l.477,1.161-.032-.233-1.137,3.3c4.605-1.743,9.152-3.7,13.566-5.884,1.085-.537,1.374-2.009,1.237-3.095-.108-.866-.675-2.533-1.859-2.376a22.523,22.523,0,0,0-8.546,2.952c-2.577,1.537-5.347,3.575-6.885,6.212a2.372,2.372,0,0,0,.06,2.455.913.913,0,0,0,1.612-.039l.761-1.591c.11-.23.129-.618-.148-.747Z"/><path class="a" d="M71.141,51.844a6.544,6.544,0,0,0-.057.685l.116-.761,0,.014.148-.309a3.863,3.863,0,0,0-.243.546c-.056.179-.1.364-.139.546a1.717,1.717,0,0,0-.031.319,2.151,2.151,0,0,0,.041.754l0,.019c0,.018.009.036.013.054a1.717,1.717,0,0,0,.239.639,1.281,1.281,0,0,0,.361.48.712.712,0,0,0,.469.214.635.635,0,0,0,.5-.046l.293-.2a1.769,1.769,0,0,0,.43-.692l.114-.456a2.875,2.875,0,0,0-.025-1.009l-.089-.388a1.747,1.747,0,0,0-.24-.645,1.316,1.316,0,0,0-.365-.485.721.721,0,0,0-.473-.215.64.64,0,0,0-.5.046l-.295.2a1.755,1.755,0,0,0-.434.7l-.116.46a2.926,2.926,0,0,0,.025,1.018l.11.379,2.241-1.518-.011-.034.136.449A2.5,2.5,0,0,0,73,51.747a1.629,1.629,0,0,0-.283-.312c-.021-.02-.041-.041-.06-.062l.241.27a1.39,1.39,0,0,1-.154-.2l.162.3-.005-.014.108.356,0-.017.045.4c-.01-.092-.015-.184-.016-.276a1.575,1.575,0,0,0-.1-.562,1.3,1.3,0,0,0-.21-.467l-.2-.224a.555.555,0,0,0-.362-.165.325.325,0,0,0-.256.006.557.557,0,0,0-.353.183l-.189.234a1.744,1.744,0,0,0-.231.652Z"/><path class="a" d="M67.348,60.005c1.709-.634,2.551-2.336,3.1-3.967a6.948,6.948,0,0,1,.932-2.237A4.568,4.568,0,0,1,73.8,52.324l-1.371-4.519c-.949,1.14-1.881,2.3-2.818,3.444a29.958,29.958,0,0,0-2.717,3.374,3.905,3.905,0,0,0,.341,4.551,2.263,2.263,0,0,0,2.886.054,12.83,12.83,0,0,0,5.062-4.711,9.023,9.023,0,0,0,.437-8.056c-.31-.654-1.038-1.532-1.876-1.1a7.03,7.03,0,0,0-2.02,1.515l1.97.338a2.453,2.453,0,0,1-.336-1.35c-.094-.936-.259-1.867-.329-2.8-.089-1.207.322-2.28,1.713-2.185L73.109,37.81a42.016,42.016,0,0,0-.966,6.209c-.145,1.875-.091,3.948,1.47,5.259a1.28,1.28,0,0,0,1.964-.436,16.667,16.667,0,0,0,1.77-6.98,16.126,16.126,0,0,0-.313-3.568,16.352,16.352,0,0,0-.487-1.8c-.082-.266-.174-.528-.274-.788q-.468-1.341-.111,1.224l-.566.911c1.188-1.372,4.532-4.057,6.147-1.751l.622-4.195a69.924,69.924,0,0,0-6.771,4.35c-1.657,1.2-.448,5.877,1.763,4.275a61.669,61.669,0,0,1,6-3.826c1.381-.776,1.461-3,.622-4.195-2.646-3.78-7.343-1.989-9.93.82a4.056,4.056,0,0,0-1,3.7c.194.925.668,1.756.855,2.692a9.106,9.106,0,0,1-.714,5.69l1.963-.436c.356.3.049.8.17.068.113-.684.129-1.4.22-2.087.171-1.311.413-2.609.7-3.9.249-1.1-.271-2.981-1.628-3.065-2.977-.183-4.569,3.062-4.766,5.588a28.4,28.4,0,0,0,.348,4.746,8.338,8.338,0,0,0,1.288,4.449,1.278,1.278,0,0,0,1.97.338,4.13,4.13,0,0,1,1.27-.948l-1.876-1.1c.525,1.163-.088,2.262-.887,3.164a10.3,10.3,0,0,1-1.749,1.528c-.3.211-.609.4-.923.592q-.249.151-.5.294-.543.153-.007.194l.791,1.475-.04-.316-.118,1.93a6.39,6.39,0,0,1,1.016-1.23l1.407-1.727c.891-1.092,1.784-2.182,2.664-3.283.96-1.2.349-4.769-1.693-4.121a7.484,7.484,0,0,0-4.572,4.373,13.836,13.836,0,0,0-.8,2.851,5.425,5.425,0,0,1-.885,2.613c-.552.655-.608,3.144.8,2.623Z"/><path class="b" d="M58.251,18.052l-.135-.119c-.9-.8-1.6.552-1.648,1.3-.053.8.384,2.223,1.456,1.852,1.905-.66,6-1.979,6.915.8l1.067-3.056a28.345,28.345,0,0,1-5.527-.949c-2.119-.629-2.283,3.523-.667,4.278A3.833,3.833,0,0,1,61.9,24.672l2.246-2.063q-.384-.207.094.512c.006-.885-.51-2.333-1.6-2.306-1.131.027-1.472,1.516-1.482,2.381-.038,3.312,3.447,4.07,5.912,5.112l4.167,1.762c1.161.491,2.432,1.233,3.73.988a3.165,3.165,0,0,0,2.3-3.327,4.132,4.132,0,0,0-2.061-3.444,18.632,18.632,0,0,0-7.522-2.875l.123,5.01a11.2,11.2,0,0,1,8.5,4.1,1.237,1.237,0,0,0,2.157-.053,3.2,3.2,0,0,0-.08-3.286,13.451,13.451,0,0,0-10.7-5.77c-1.179-.037-1.606,1.649-1.584,2.545a2.3,2.3,0,0,0,1.707,2.465,20.882,20.882,0,0,1,3.7.947,18.35,18.35,0,0,1,1.723.726c.3.148.614.3.9.471l.167.094q.49.438.013-.244l-.03-1.224-.053.262.364-1.028c.076-.135.145.055-.02.017a5.516,5.516,0,0,1-.715-.149c-.464-.169-.916-.375-1.371-.566L69.23,24.359l-3.082-1.293c-.637-.267-2-.56-2.338-1.12l.421,1.025.005.15-3.078.075A4.216,4.216,0,0,0,62.7,26.659a1.149,1.149,0,0,0,1.689-.223,3.146,3.146,0,0,0,.487-2.455,7.655,7.655,0,0,0-4.5-6.1l-.667,4.278a19.489,19.489,0,0,0,6.293.7c1.318-.1,1.5-2.133,1.066-3.057a5.413,5.413,0,0,0-3.92-3.072c-2.035-.4-4.033.332-5.909,1.055l1.337,2.5.072-.2a1.953,1.953,0,0,0-.4-2.025Z"/><path class="a" d="M41.935,27.445l.216.091-.347-.388c.3.683.735.758,1.437.746a11.47,11.47,0,0,0,1.905-.306l-.4-3.483a14.982,14.982,0,0,0-3.31,1.352A2.253,2.253,0,0,0,40.6,27.88c.148.708.746,1.691,1.61,1.325A35.21,35.21,0,0,1,55.949,26.52c2.033,0,1.947-4.626-.113-4.608a32.858,32.858,0,0,0-14.4,3.545L42.516,29a13.97,13.97,0,0,1,2.938-1.484c1.435-.6.751-4.172-.7-3.412-.955.5-2.586,1.077-2.968,2.173l.478-.439-.221-.008c-.715-.028-.63,1.394-.1,1.614Z"/><path class="a" d="M25.985,49.974c.1-.43,0-.053-.041.044l2.122.815a5.7,5.7,0,0,0-.342-1.466c-.018-.052-.036-.1-.053-.156q-.085-.269.033.12a2.3,2.3,0,0,0-.114-.42c-.06-.246-.1-.5-.146-.745-.064-.377.024.424.009.07,0-.144-.016-.287-.016-.431,0-.064,0-.127,0-.191q-.036.5-.017.273c.012-.11.024-.22.04-.33a1.27,1.27,0,0,1,.068-.376l-.072.28c.016-.062.034-.123.052-.183.038-.121.086-.238.13-.357.115-.31-.185.319-.025.056.065-.108.125-.217.2-.321.036-.052.073-.1.112-.153q-.228.278-.066.093a2.545,2.545,0,0,0,.391-2.656,1.49,1.49,0,0,0-.781-.87.926.926,0,0,0-.973.219,6.36,6.36,0,0,0-1.564,4.387,8.345,8.345,0,0,0,.315,2.17,5.5,5.5,0,0,0,1.158,2.511.845.845,0,0,0,1.249-.165,2.166,2.166,0,0,0,.359-1.815,5.174,5.174,0,0,0-.275-.8c-.186-.384-.5-.789-.978-.678s-.672.636-.776,1.072Z"/><path class="a" d="M27.138,45.521a10.174,10.174,0,0,1,.154-1.058c.039-.206-.06.169.011-.04.023-.07.043-.14.066-.21q.082-.246.182-.486c.029-.069.059-.136.089-.2.092-.214-.113.221.016-.034q.107-.21.225-.412a7.542,7.542,0,0,1,.584-.844l-.206.256a2.563,2.563,0,0,0,.582-.905,2.369,2.369,0,0,0-.127-1.8,1.211,1.211,0,0,0-.438-.489.7.7,0,0,0-.7-.065,2.678,2.678,0,0,0-.3.207,1.8,1.8,0,0,0-.375.6c-.045.1-.09.194-.132.293-.091.211-.173.426-.246.643a11.288,11.288,0,0,0-.4,1.536c-.038.209-.07.42-.093.631-.012.107-.021.214-.029.32a1.788,1.788,0,0,0-.032.525l.008-.123-.018.277c0,.051-.006.1-.008.155-.005.116-.007.233-.007.349q0,.331.029.663c.026.322.145.814.533.869.356.052.606-.338.631-.659Z"/><path class="a" d="M24.919,39.348A4.351,4.351,0,0,0,25.8,41a2.691,2.691,0,0,1,.251.35c-.062-.11.017.058.028.075.06.094-.025-.148.015.029.03.139.055.277.077.417.028.178,0-.026-.008-.092,0,.079.016.159.023.238l1.351-1.241c-.2-.182.191.235-.1-.086-.065-.074-.129-.138-.2-.206q-.033-.03-.063-.063c-.065-.068-.042-.042.069.079a.654.654,0,0,0-.1-.126,3.537,3.537,0,0,1-.2-.3c-.026-.042-.116-.214-.014-.013s0,0-.023-.052c-.212-.435-.361-.9-.533-1.35a12.69,12.69,0,0,0-.544-1.3c-.165-.32-.339-.641-.529-.947-.1-.155.169.367.048.085-.023-.053-.047-.1-.069-.158a2.2,2.2,0,0,0-.334-.611c-.288-.33-.629-.608-1.092-.408a1.563,1.563,0,0,0-.748,1.2,3.128,3.128,0,0,0,.452,2.189c.137.251.3.484.446.73.032.055.151.272.02.03s-.007-.007.014.034c.058.119.114.239.167.36.108.243.209.489.313.733a7.262,7.262,0,0,0,.876,1.565,4.837,4.837,0,0,0,.669.732,2.856,2.856,0,0,0,.4.288,1.5,1.5,0,0,0,.67.2.708.708,0,0,0,.458-.2,1.343,1.343,0,0,0,.36-.678,1.982,1.982,0,0,0-.228-1.522,3.659,3.659,0,0,0-1.091-1.24c-.259-.162-.537-.254-.807-.391-.233-.118-.452-.26-.683-.381-.191-.1-.254.258-.228.366Z"/><path class="a" d="M24.3,37.125a8.864,8.864,0,0,0,.7,3.86,14.067,14.067,0,0,1,.724,1.539,1.688,1.688,0,0,1-.1,1.029,13.414,13.414,0,0,0-.922,4.033,9.464,9.464,0,0,0,1.639,4.427,1.01,1.01,0,0,0,1.7.112,2.662,2.662,0,0,0,.271-2.552,20.283,20.283,0,0,0-.91-1.863c-.059-.115-.116-.231-.169-.349q-.16-.436.007.162c-.032.129-.028.072.012-.169.022-.15.048-.3.08-.447a16.817,16.817,0,0,0,.742-3.79A5.817,5.817,0,0,0,26.6,39.31c-.7-.772-1.317-1.6-1.98-2.4-.169-.2-.317.037-.323.215Z"/><path class="a" d="M24.175,36.451c.461-.317.467-1.12.628-1.612a15.954,15.954,0,0,1,.767-1.8,1.842,1.842,0,0,0-.286-1.829.725.725,0,0,0-1.223.142,16.284,16.284,0,0,0-1.436,4.3l1.917-.047c-.029-.143-.058-.288-.075-.434.031.272.006-.1,0-.172,0-.038.012-.422,0-.226s.024-.185.03-.222c.02-.142.047-.283.076-.424-.057.274.049-.16.055-.178a6,6,0,0,1,.259-.676c-.09.2.105-.2.1-.193.07-.128.146-.254.223-.379.129-.21.266-.417.415-.614a7.574,7.574,0,0,1,1.075-1.078,4.676,4.676,0,0,1,3.123-1.176c1.265.068,2.416.717,3.708.676,1.4-.046,1.329-3.2-.078-3.163-1.472.036-2.81-.838-4.3-.7a7,7,0,0,0-3.923,1.892,8.329,8.329,0,0,0-2.589,7.915c.108.461.418,1.1.986,1.087s.86-.665.93-1.134a12.644,12.644,0,0,1,1.009-3.373l-1.648-1.4a7.652,7.652,0,0,0-.565,2.5c-.049.685-.213,1.823.408,2.312a.307.307,0,0,0,.41-.01Z"/><path class="a" d="M29.08,49.879a2.664,2.664,0,0,0,.726-1.169c.226-.487.436-.982.667-1.467l-2.124-.815a15.137,15.137,0,0,1-.342,2.533l2.342-.057a8,8,0,0,1,.008-.977,12.857,12.857,0,0,1,.217-1.307c.179-.833.47-1.708.745-2.562.606-1.881,1.352-3.715,1.9-5.614a2.446,2.446,0,0,0-.365-2.335.927.927,0,0,0-1.562.18,35.241,35.241,0,0,0-2.328,6.458c-.671,2.367-1.342,4.719-.934,7.2.094.567.537,1.345,1.2,1.329s1.052-.814,1.138-1.387a21.635,21.635,0,0,0,.232-3.515c-.009-.648-.364-1.71-1.17-1.69s-1.12,1.112-1.086,1.746a10.035,10.035,0,0,0,.306,3.294c.081.188.245.285.425.157Z"/><path class="a" d="M31.026,38.617a37.823,37.823,0,0,0,5.553-5.772,2.425,2.425,0,0,0,.366-2.488c-.272-.646-1.013-1.213-1.643-.61a25.494,25.494,0,0,0-4.88,6.7,2.4,2.4,0,0,0-.033,2.264c.316.554.908.9,1.47.408a40.385,40.385,0,0,0,4.94-5.2,2.771,2.771,0,0,0,.04-2.745c-.358-.628-1.14-1.146-1.782-.5a25.439,25.439,0,0,0-3.466,4.285,2.707,2.707,0,0,0,.069,2.813,1.049,1.049,0,0,0,1.847-.045,44.532,44.532,0,0,1,8.35-9.416c1.215-.985.379-4.529-1.363-3.307-2.008,1.41-4.556,3.2-5.465,5.577-.41,1.072.552,3.4,1.709,1.911a9.818,9.818,0,0,1,2.733-1.947A28.5,28.5,0,0,1,42.2,28.93l-.622-3.008a22.975,22.975,0,0,0-3.448,2.5,21.285,21.285,0,0,0-3.008,2.972A2.172,2.172,0,0,0,34.8,33.6c.252.6.886,1.053,1.462.542a39.218,39.218,0,0,1,11.3-6.977c1.339-.543.853-3.933-.681-3.3a39.9,39.9,0,0,0-11.752,7.519l1.344,2.5a17.81,17.81,0,0,1,2.8-2.716c1.029-.833,2.187-1.529,3.175-2.407.956-.849.167-3.8-1.1-2.68-.819.72-1.745,1.318-2.631,1.952a8.354,8.354,0,0,1-2.784,1.733l.607,2.989c.883-.7,1.56-1.664,2.458-2.379.92-.733,1.907-1.383,2.869-2.059l-1.363-3.307c-3.408,2.763-5.9,6.271-8.646,9.638l1.659,3.085a27.339,27.339,0,0,1,3.023-3.479l-1.743-3.24a39.41,39.41,0,0,1-4.143,5.155l1.437,2.672a23.481,23.481,0,0,1,4.5-6l-1.511-2.809a50.939,50.939,0,0,0-4.758,7.249c-.226.453-.062,1.924.716,1.332Z"/><path class="a" d="M30.049,59.51c.452.309.875.677,1.347.952.444.258.767.437,1.169.7a21.306,21.306,0,0,1,2.4,1.822.786.786,0,0,0,.814.141,1.286,1.286,0,0,0,.659-.944,1.888,1.888,0,0,0-.734-2.144,18.721,18.721,0,0,0-2.6-1.184,12.613,12.613,0,0,0-1.381-.444,6.873,6.873,0,0,0-1.483-.1c-.511-.007-.507.986-.184,1.206Z"/><path class="a" d="M40.952,62.361c-.054-.1-.192-.966-.12-.352a1.035,1.035,0,0,0,.12.352,4.408,4.408,0,0,0,.494.782A8.581,8.581,0,0,0,42.8,64.431c1.057.863,2.177,1.644,3.262,2.47,1.114.848,2.192,1.739,3.307,2.586.511.388,1.028.773,1.509,1.2a3.346,3.346,0,0,1,.828,1.02c.306.724,1.111,1.3,1.807.671a2.587,2.587,0,0,0,.4-2.737,7.218,7.218,0,0,0-2.489-2.815,33.121,33.121,0,0,0-3.5-2.206c-1.123-.609-2.258-1.2-3.435-1.7a22.665,22.665,0,0,1-3.073-1.539c-.594-.365-.653.652-.468.983Z"/><path class="a" d="M31.37,59.216c.325.664.726,1.277,1.1,1.914s.725,1.32,1.089,1.98c.085.154.17.307.254.461-.059-.109.015.028.033.062.04.074.08.149.119.224q.251.478.487.964c.324.665.647,1.327.98,1.987a1.644,1.644,0,0,0,.8.89.964.964,0,0,0,.995-.224,2.656,2.656,0,0,0,.4-2.717A11.3,11.3,0,0,0,36.6,62.62a18.273,18.273,0,0,0-1.114-1.7c-.864-1.177-1.833-2.268-2.806-3.355a.96.96,0,0,0-1.016-.177,1.5,1.5,0,0,0-.664.733,2.721,2.721,0,0,0,.167,2.62,2.25,2.25,0,0,0,.963.824,1.205,1.205,0,0,0,1.41-.607,2.562,2.562,0,0,0-.5-3.027c-.052-.047-.106-.091-.161-.133.149.186.173.211.073.073l-1.786,2.87c.85.99,1.712,1.972,2.487,3.022a18.59,18.59,0,0,1,1.061,1.593c.078.131.144.275.229.4-.051-.076-.158-.3-.053-.1.034.069.07.137.1.206.153.31.291.626.442.936l1.98-2.446a25.294,25.294,0,0,0-2.808-3.2c-.446-.444-.95-.849-1.432-1.255a8.613,8.613,0,0,0-1.583-1.159c-.231-.118-.28.343-.22.465Z"/><path class="a" d="M52.461,72.158l.085.049c.047.025.058.032.032.021s-.018,0,.019.036l.057.083a1.094,1.094,0,0,0,.279.227l.54.371q.529.363,1.061.724l.726-2.042c-.074-.05-.147-.1-.222-.152a.888.888,0,0,0-.29-.145c-.043-.01-.086-.018-.129-.027a.433.433,0,0,0-.338-.014.484.484,0,0,0-.311.16,1.361,1.361,0,0,0-.37.78,1.841,1.841,0,0,0,.11.991l.139.257a.856.856,0,0,0,.381.323l.129.026a.9.9,0,0,0,.423.029l.347-.082c.2-.048.391-.38.447-.55a1.745,1.745,0,0,0,.073-.749c-.05-.439-.276-.965-.781-1l-1.181-.08-.568-.041a.709.709,0,0,0-.357.025.694.694,0,0,1-.077.039.671.671,0,0,1-.175-.031c-.069-.012-.148.071-.178.119a.473.473,0,0,0-.065.226.432.432,0,0,0,.194.424Z"/><path class="a" d="M67.416,60.537l0-.042-.208.585.022-.035-.378.352.034-.021-.234.055.057-.006-.241-.043a3.392,3.392,0,0,0,.764.076c.2-.006.4-.02.6-.044a8.181,8.181,0,0,0,1.366-.291,5.1,5.1,0,0,0,1.057-.484,4.423,4.423,0,0,0,1.185-.871,2.059,2.059,0,0,0,.372-1.961,1.439,1.439,0,0,0-.438-.737.74.74,0,0,0-.794-.138c-.31.179-.58.4-.873.607l.246-.167a8.13,8.13,0,0,1-2.66,1.163l.257-.059c-.14.031-.28.059-.421.082a2.411,2.411,0,0,0-.632.117,1.708,1.708,0,0,0-.628,2.21c.171.335.433.7.863.6a1.064,1.064,0,0,0,.684-.945Z"/><path class="a" d="M70.116,58.357a3.538,3.538,0,0,1,1.018.476,1.574,1.574,0,0,0,1.026.075,2.881,2.881,0,0,0,1.3-.522,3.464,3.464,0,0,0,.882-.948,9.572,9.572,0,0,0,.992-3.069,20.92,20.92,0,0,0,.381-2.717,3.487,3.487,0,0,0-.184-1.661,1.729,1.729,0,0,0-.872-.973c-.949-.289-1.629.71-1.708,1.552-.043.454-.047.9-.056,1.353,0,.172-.012.344-.019.516-.016.4.037-.46-.008.063-.064.746-.158,1.468-.149,2.219a1.622,1.622,0,0,0,.64,1.359c.421.256.809.024,1.071-.337a5.68,5.68,0,0,0,.826-1.93,12.557,12.557,0,0,0,.495-2.737l-2.837.07c-.005.192-.015.384-.021.577-.01.271.038-.507.008-.118-.007.086-.013.172-.021.258q-.051.612-.14,1.22c-.056.381-.121.761-.2,1.139-.013.064-.084.226-.062.29-.02-.057.113-.405.034-.137-.057.191-.116.378-.19.563-.064.16-.132.319-.194.48-.072.19.162-.273.044-.1-.05.072-.088.154-.136.228-.087.133-.181.262-.268.394-.05.075-.1.145-.154.218.07-.1.067-.076-.009.006-.265.288-.556.524-.793.837a.94.94,0,0,1-.714.459c-.409,0-.361.841.022.9Z"/><path class="a" d="M74.064,55.423a.944.944,0,0,0,.948.256,1.264,1.264,0,0,0,.675-.283,3.7,3.7,0,0,0,.41-.479,3.452,3.452,0,0,0,.487-.884,4.708,4.708,0,0,0,.151-.583,2.566,2.566,0,0,0,.063-.643,5.917,5.917,0,0,0-.082-.819l-.131-.431a1.28,1.28,0,0,0-.319-.5.94.94,0,0,0-.732-.372,1.081,1.081,0,0,0-.6.263,1.241,1.241,0,0,0-.323.475,1.655,1.655,0,0,0-.2.623c-.008.085-.019.168-.035.252a5.964,5.964,0,0,0-.05.72l.031-.494c-.019.25-.035.5-.05.75l.031-.48a3.183,3.183,0,0,1-.083.532l.1-.4c-.036.143-.086.28-.131.42-.078.24-.1.489-.162.733l.078-.312c-.138.533-.448,1.145-.082,1.656Z"/><path class="a" d="M76.114,31.934l-.084.026.267.157-.088-.178-.641,1.838a1.425,1.425,0,0,0,.262-.06,2.532,2.532,0,0,0,.247-.171c-.082.048-.139.084-.02.02.036-.02.074-.039.109-.06a3.759,3.759,0,0,0,.4-.28c.027-.021.166-.113.03-.028-.152.1.051-.031.065-.039a4.188,4.188,0,0,1,1.163-.467l-.293.068a8.593,8.593,0,0,1,2.923-.107c.347.04.713-.33.874-.583a2.471,2.471,0,0,0,.335-1.362c-.039-.72-.382-1.9-1.3-1.882a7.1,7.1,0,0,0-3.48.772,5.294,5.294,0,0,0-1.31,1.028,2.615,2.615,0,0,0-.682,2.612c.122.3.435.611.785.46a1.081,1.081,0,0,0,.478-1.018l0-.237-.13.372.286-.279c.158-.153.128-.7-.183-.6Z"/><path class="a" d="M79.256,31.192c.269.211.518.457.794.656.314.227.693.383,1.025.585l-.231-.141a5.984,5.984,0,0,1,1.308,1.04l-.242-.271a3.245,3.245,0,0,1,.389.561l-.2-.373a3.179,3.179,0,0,1,.208.493l-.139-.455a2.179,2.179,0,0,1,.069.338l-.059-.517a1.937,1.937,0,0,1,0,.285l.034-.526a2.125,2.125,0,0,1-.035.226,2.837,2.837,0,0,0,.17,1.532,1.586,1.586,0,0,0,.8.9.969.969,0,0,0,1-.226,2.044,2.044,0,0,0,.572-1.2,4.605,4.605,0,0,0-.615-2.944A3.66,3.66,0,0,0,82.679,29.9a3.773,3.773,0,0,0-1.618-.326,3.091,3.091,0,0,0-.936.051c-.121.033-.238.078-.36.107.086-.02-.03,0-.062.006-.076.011-.153.02-.23.029-.6.068-.61,1.117-.217,1.425Z"/><path class="b" d="M59.976,21.132a10.08,10.08,0,0,1,.427,1l.373,1.056.373,1.056.186.528c.026.075.051.152.08.226-.166-.427-.03-.092,0,.016L63.3,23.745a12.853,12.853,0,0,0-.656-1.157l.176.327a10.458,10.458,0,0,1-.789-1.886l.12.4c-.072-.24-.135-.481-.191-.725a1.824,1.824,0,0,0-.531-.991.82.82,0,0,0-.854-.148,1.909,1.909,0,0,0-.719,2.084,12.413,12.413,0,0,0,.747,2.183c.175.379.373.747.581,1.109a3.875,3.875,0,0,0,.739,1.021.774.774,0,0,0,.809.141,1.194,1.194,0,0,0,.529-.584,2.045,2.045,0,0,0,.2-.97,1.931,1.931,0,0,0-.334-1.119c-.423-.5-.777-1.065-1.153-1.6l-.569-.813-.122-.174c-.015-.021-.179-.245-.1-.128-.1-.145-.167-.314-.249-.468a.728.728,0,0,0-.347-.387.42.42,0,0,0-.433.1,1.125,1.125,0,0,0-.173,1.181Z"/><path class="b" d="M57.292,20.2c.333-.052.673-.064,1-.122.373-.065.555-.136.9-.2a16.9,16.9,0,0,1,2-.209c.675-.039,1.341-.138,2.019-.116.154.019.177.019.07,0l.129.036a1.674,1.674,0,0,1,.193.075q.2.1-.026-.02a1.337,1.337,0,0,1,.156.135q-.31-.333.132.155a1.993,1.993,0,0,0,.359.21q-.261-.175-.119-.045c.714.727,1.462-.388,1.539-1.007a2.975,2.975,0,0,0-.437-2.188,2.82,2.82,0,0,0-1.092-.854,5.208,5.208,0,0,0-2.543-.132,12.372,12.372,0,0,0-2.493.577A9.884,9.884,0,0,0,58,16.9a5.926,5.926,0,0,0-1.207.844,1.641,1.641,0,0,0-.362,1.5c.088.363.377,1.026.861.951Z"/><path class="b" d="M56.272,19.692l.053.019a.223.223,0,0,0,.177,0,.338.338,0,0,0,.144-.134l.049-.1a.724.724,0,0,0,.04-.257.564.564,0,0,0-.034-.2.455.455,0,0,0-.073-.162.349.349,0,0,0-.15-.127.227.227,0,0,0-.177,0l-.052.018-.075.051a.339.339,0,0,0-.087.128.3.3,0,0,0-.039.109.545.545,0,0,0-.023.189l.015.13.035.115a.34.34,0,0,0,.086.135.235.235,0,0,0,.111.085Z"/><path class="b" d="M64.111,24.039a3.333,3.333,0,0,0,3.439-.628l-.85.191.061.022a.893.893,0,0,0,.915-.206,1.919,1.919,0,0,0,.522-1.1,2.61,2.61,0,0,0-.155-1.4l-.2-.363a1.21,1.21,0,0,0-.538-.455,2.015,2.015,0,0,0-.74-.069,1.893,1.893,0,0,0-.707.223l-.3.2a1.316,1.316,0,0,0-.341.5,2.464,2.464,0,0,0-.242,1.168,3.176,3.176,0,0,0,.2.964,1.533,1.533,0,0,0,.774.862,1.275,1.275,0,0,0,.939-.015c.121-.041.235-.1.357-.137l-.334.077a.445.445,0,0,1,.141-.007l-.338-.06a.493.493,0,0,1,.167.061l-.306-.186a.447.447,0,0,1,.073.064l-.262-.294.018.025L66.2,23.1a.17.17,0,0,1,.022.052l-.2-.962,0,.027.033-.51,0,.029.115-.461-.008.029.187-.392-.016.029A2.692,2.692,0,0,0,66,22.3a2.47,2.47,0,0,0,.4,1.344,1.1,1.1,0,0,0,.9.538,1.129,1.129,0,0,0,.874-.582,2.835,2.835,0,0,0,.227-2.238,1.891,1.891,0,0,0-.974-1.226,1.088,1.088,0,0,0-.3-.079.915.915,0,0,0-.309-.028,5.655,5.655,0,0,0-.739.213l.336-.078a.727.727,0,0,1-.223.014l.723,3.557a1.6,1.6,0,0,1,.148-.125l-.292.2a1.251,1.251,0,0,1,.392-.177l-.321.074a1.323,1.323,0,0,1,.235-.028l-1.238-1.788,0,.1.3-1.2a3.122,3.122,0,0,1-.183.256l.211-.261a3.073,3.073,0,0,1-.629.581l.232-.158a3.047,3.047,0,0,1-.968.433l.232-.054a2.643,2.643,0,0,1-.773.066.713.713,0,0,0-.553.369,1.562,1.562,0,0,0-.2.7,1.3,1.3,0,0,0,.6,1.314Z"/><path class="a" d="M79.12,42.258a2.591,2.591,0,0,0-.414,1.867c.024.641.075,1.268.157,1.9.146,1.122.393,2.221.643,3.326.059.261.238.622.557.614.3-.007.5-.375.526-.641a21.211,21.211,0,0,0,.04-3.643,14.7,14.7,0,0,0-.305-1.935c-.111-.481-.316-1.414-.87-1.567a.325.325,0,0,0-.334.075Z"/><path class="a" d="M80.141,49.315a11.719,11.719,0,0,1,.558-1.047c.136-.319.27-.64.387-.967a10.321,10.321,0,0,0,.5-2.4,10.69,10.69,0,0,0-.176-2.943,5.076,5.076,0,0,0-1.374-2.75.912.912,0,0,0-1.347.178,2.437,2.437,0,0,0-.388,1.959,2.957,2.957,0,0,0,.167.609q.089.27.027.069c-.072-.225.079.315.091.369a9.74,9.74,0,0,0,.372,1.227c.152.412-.07-.311.029.088.042.172.088.342.126.515.069.317.128.633.2.949.159.669.234,1.352.356,2.028.054.3.1.607.143.912a8.348,8.348,0,0,1,.21,1.154c0,.073.09.145.121.047Z"/><path class="a" d="M35.365,67.209l.233.188c.068.066.076.064.023-.006l.1.116.344.405a9.511,9.511,0,0,0,.956.959c.133.118.261.243.4.354s.323.22.483.328l.905.61a.9.9,0,0,0,.874.152,1.381,1.381,0,0,0,.706-1.013,2.422,2.422,0,0,0-.032-1.324,1.512,1.512,0,0,0-.247-.547A1.146,1.146,0,0,0,39.6,67l-.923-.539c-.162-.095-.323-.2-.493-.286-.142-.067-.3-.117-.443-.174l-.443-.175a2.759,2.759,0,0,0-.517-.131l-.457-.085a2.188,2.188,0,0,1-.506-.2c-.381-.177-.668.287-.742.584a1.232,1.232,0,0,0,.292,1.212Z"/><path class="a" d="M27.341,31.951a5.541,5.541,0,0,0-.579.85l.18-.222a2.505,2.505,0,0,0-.651.924,4.972,4.972,0,0,0-.242.992A5.761,5.761,0,0,0,26.2,36.98a1.858,1.858,0,0,0,1.5,1.5.955.955,0,0,0,.333-.049,1.042,1.042,0,0,0,.3-.094,4.092,4.092,0,0,0,.534-.36,3.845,3.845,0,0,0,.643-.717,3.663,3.663,0,0,0,.388-.678c.23-.482.415-.983.643-1.465l-.222.465a3.573,3.573,0,0,1,.429-.7l-2.423-2.711-.406,1.138,2.612-.064a2.266,2.266,0,0,1-.151-.36l.166.548a2.275,2.275,0,0,1-.069-.328l.069.615a2.332,2.332,0,0,1-.012-.334l-.04.619a4.747,4.747,0,0,0-.035-1.393,3.11,3.11,0,0,0-.411-1c-.282-.433-.2-.242-.33-.366l.3.334a1.7,1.7,0,0,0-.474-.444,1.033,1.033,0,0,0-.555-.17h-.02a1.243,1.243,0,0,0-.9.515,2.616,2.616,0,0,0-.54,1.307,4.453,4.453,0,0,0-.039.841,5.186,5.186,0,0,0,.146,1.052,6.172,6.172,0,0,0,.242.756,7.015,7.015,0,0,0,.348.659,1.535,1.535,0,0,0,.682.576.775.775,0,0,0,.6.027.872.872,0,0,0,.556-.288,2.117,2.117,0,0,0,.522-.839l.384-1.157a3.073,3.073,0,0,0-.459-2.938,1.183,1.183,0,0,0-.921-.468l-.4.092a1.521,1.521,0,0,0-.648.6,12.911,12.911,0,0,0-1.184,2.523l.219-.46c-.106.222-.213.444-.316.667l.218-.457a2.882,2.882,0,0,1-.332.547l.281-.347a1.88,1.88,0,0,1-.34.333l.328-.223a.5.5,0,0,1-.142.061l.367-.085a.228.228,0,0,1-.09,0l.369.066a.236.236,0,0,1-.071-.031l.334.2a.789.789,0,0,1-.087-.076l.284.318a.854.854,0,0,1-.09-.132l.22.409a3,3,0,0,1-.182-.457l.14.461a3.678,3.678,0,0,1-.123-.606l.054.481c-.013-.133-.02-.266-.02-.4a5.685,5.685,0,0,0-.064-.77l.049.428a3.934,3.934,0,0,1-.024-.407l-.024.371c-.116.482,0,.057.047-.06.02-.051.043-.1.065-.152.037-.081.014-.033-.068.144.016-.034.034-.067.051-.1a1.8,1.8,0,0,0,.025-1.693.882.882,0,0,0-.451-.451.608.608,0,0,0-.649.146Z"/><path class="a" d="M59.917,26.123c.654,0,.627-1.484-.037-1.484s-.627,1.484.037,1.484Z"/><path class="c" d="M43.741,35.9c.3-1.243,2.87-1.654,3.837-2.171,1.131-.6,1.163-3.43-.4-3.481-1.859-.061-3.785.571-5.638.751l.464,4.086A34.347,34.347,0,0,1,48.9,32.416a29.424,29.424,0,0,1,7.362-.7,27.4,27.4,0,0,1,7.125.991A11.216,11.216,0,0,1,66.9,34.268c.765.558,2.176,1.6,2.477,2.511l-.207-1.874-.038.345c-.11.992.077,2.547,1.183,2.951s1.765-.865,1.914-1.739c.556-3.245-2.694-6.026-5.291-7.4a22.245,22.245,0,0,0-8.684-2.077,29.343,29.343,0,0,0-17.075,4.1c-1.37.867-1.266,4.589.826,4,1.812-.508,3.834-.629,5.57-1.356L46.6,30.5c-1.007.98-2.5,1.294-3.344,2.475a3.427,3.427,0,0,0-.54,3.151c.25.741.9.307,1.026-.231Z"/><path class="c" d="M48.5,37.192A18.388,18.388,0,0,0,52.839,36.1c1.032-.47,1.025-3.288-.359-3.16a60.254,60.254,0,0,0-6.454.951c-1.719.35-1.559,4.228.1,3.921a40.044,40.044,0,0,0,6.842-2.079c1.394-.53,1.258-4.235-.46-4.047a42.472,42.472,0,0,1-5.571.2l.473,4.167a11.992,11.992,0,0,1,4.26-1.647l-.46-4.044a51.351,51.351,0,0,0-10.619,5.252c-.948.643-.763,3.828.73,3.595a3.629,3.629,0,0,0,2.52-1.574c.6-.808.261-3.63-1.229-2.992-1.111.475-2.3.777-3.436,1.2l1,3.3a15.587,15.587,0,0,1,2.393-2,2.143,2.143,0,0,0,.853-2.134c-.067-.568-.479-1.784-1.282-1.638a8.378,8.378,0,0,0-2.327.734L40.9,37.687a7.375,7.375,0,0,1,1.835-1.68c1.326-.823,1.2-4.316-.785-3.8l-1.087.281L42.4,35.362l.357-.907c.436-1.109-.277-3.817-1.851-2.674l-.323.234.652-.287-.358.024.938.56-.1-.133L42.1,34.1l-.2.583-1.259.543.135.026-.4-3.63a47.78,47.78,0,0,0-5.954,8.343,48.585,48.585,0,0,0-2.227,4.579c-.33.777-.633,1.56-.9,2.362a8.75,8.75,0,0,1-.809,2.337l.581-.542-.28.181,1.389,3.381a17.432,17.432,0,0,0,1.7-5.818,13.5,13.5,0,0,1,1.976-5.444,14.747,14.747,0,0,1,9.411-6.866l-.826-4.062c-3.763,4.3-9.313,6.712-11.473,12.333-.423,1.1.031,3.662,1.682,3.137,3-.953,5.464-3.078,8.1-4.715a89.535,89.535,0,0,1,8.738-4.755l-.865-4.192C46.644,34.539,42.385,37,39.5,40.9c-.809,1.095-.444,3.606,1.127,3.774,1.535.164,3.182-1.109,4.489-1.783l4.61-2.373,9.439-4.861-.882-4.274-6.966,4.278c-1.9,1.165-4.754,2.293-5.762,4.4-.527,1.1-.516,4.33,1.514,3.686l13.257-4.207-1.836-1.51q.791-2.065-.026-1.2l-.762.606-1.142.91-2.856,2.275-5.521,4.4a2.9,2.9,0,0,0-.21,3.5c1.448,1.759,3.4.3,5.058-.446q3.216-1.443,6.432-2.89l-1.223-4.03L53.982,45.26c-1.313,1.267-2.8,2.48-2.93,4.434-.059.853.134,2.859,1.468,2.763l1.949-.14.975-.07q-.255-3.523-.733-2.061a4.194,4.194,0,0,0-.322,2.7c.236,1.133.816,1.84,1.991,1.834a12.718,12.718,0,0,0,3.383-.611l-1.4-.523.127.234L58.038,52.3c.007-.563-.13.338-.149.46a3.96,3.96,0,0,0,.008,1.3,3.144,3.144,0,0,0,.844,1.738,2.68,2.68,0,0,0,2.89.44c2.248-.977,3.079-3.738,3.5-5.925.546-2.867.981-5.736,1.669-8.578a7.22,7.22,0,0,1,1.419-3.442A11.576,11.576,0,0,1,71.5,36.124c1.706-.862,1.58-4.749-.561-4.937a8.09,8.09,0,0,1-2.3-.581l.119,4.838a1.419,1.419,0,0,1,1.689.233l.232-3.869c-4.194,3.358-4.662,8.959-4.823,13.932l3.069-.075a15.424,15.424,0,0,1,.832-5.98l-2.811-1.709a50.584,50.584,0,0,0-.575,9.9c.038.841.446,2.161,1.492,2.155s1.383-1.433,1.385-2.226a3.51,3.51,0,0,1,.261-1.273l-2.333.058c-.133-.373-.59.594-.782.855-.383.519-.8,1.01-1.155,1.548a21.946,21.946,0,0,0-1.779,3.331l2.666,1.024a16.978,16.978,0,0,1,1.583-6.914L65.1,44.228q-2.153,6.915-3.74,13.987c-.444,1.966,1.824,4.411,2.914,1.772.559-1.352,1.09-2.716,1.626-4.076l-2.876-1.749c-.185,2.028-.367,4.056-.57,6.082l1.418-1.729a10.873,10.873,0,0,0-9.285,5.443l2.46,2.751a5.6,5.6,0,0,1,.927-1.385l-1.937-3.6a40.364,40.364,0,0,0-2.856,5.6l2.384-.529c-3.261-3.732-7.782-6.1-11.018-9.833-1.834-2.116-3.344,1.829-2.059,3.311,3.25,3.749,7.749,6.14,11,9.861.9,1.027,1.884.668,2.385-.529a33.925,33.925,0,0,1,2.4-4.652,3.163,3.163,0,0,0,.044-3.051c-.379-.664-1.3-1.317-1.981-.55a11.842,11.842,0,0,0-1.977,3.081,3.014,3.014,0,0,0,.466,2.981,1.186,1.186,0,0,0,1.994-.23,8.244,8.244,0,0,1,7.166-4.057C64.8,63.122,65.333,62.1,65.4,61.4c.2-2.019.421-4.037.639-6.055.1-.941-.046-2.241-.966-2.762-.883-.5-1.578.212-1.911,1.013-.559,1.347-1.125,2.69-1.662,4.046l2.915,1.772q1.386-6.553,3.288-12.975a2.946,2.946,0,0,0-.605-3.066c-.877-.69-1.645.033-2,.857a22.472,22.472,0,0,0-1.809,9.192c.017,1.71,1.812,3.054,2.666,1.024,1.3-3.091,4.65-5.835,3.647-9.5-.407-1.487-1.754-2-2.481-.431a8.007,8.007,0,0,0-.716,2.78l2.839.513a54.577,54.577,0,0,1,.648-8.678,2.7,2.7,0,0,0-.944-2.7c-.834-.472-1.583.185-1.867.99a21.817,21.817,0,0,0-1.229,8.319c.043.9.474,2.3,1.592,2.3,1.143-.006,1.445-1.53,1.477-2.374.134-3.539.331-7.436,3.488-9.651,1.095-.769.86-2.937.232-3.87a3.845,3.845,0,0,0-4.881-1.517c-1.613.749-1.569,4.19.118,4.838a13.682,13.682,0,0,0,3.182.76L70.5,31.287c-2.128.975-4.152,2.193-5.3,4.313-1.319,2.425-1.674,5.462-2.131,8.151C62.679,46,62.7,48.53,61.95,50.7a2.612,2.612,0,0,1-.579,1.022c-.285.288-.631.283-.914.466a.494.494,0,0,1-.315-.053l.489,1.767c.108-.077.189-.7.207-.818a3.528,3.528,0,0,0-.3-2.174c-.365-.69-.813-1.18-1.63-.956a12.168,12.168,0,0,1-3.067.4l1.032.617c.7,1.133.032,2.02.389,1.375a3.41,3.41,0,0,0,.295-.979,3.608,3.608,0,0,0-.339-2.474c-.966-1.654-3.221-.964-4.8-.854L53.879,50.8c.025-.353.718-.843.982-1.1l1.706-1.639,3.239-3.115c1-.96.776-4.924-1.222-4.03L53.7,43.1l-2.218.994c-.4.179-1.622,1-2.028.85l.659.557-.152-.185-.21,3.5,7.045-5.61c2.082-1.658,5.225-3.286,4.483-6.433-.206-.873-.809-1.837-1.836-1.51L46.187,39.475,47.7,43.161c.463-.97,1.573-1.428,2.45-1.967l2.869-1.761,6.146-3.775A2.576,2.576,0,0,0,60.12,32.9c-.155-.741-.877-2-1.836-1.511l-9,4.635-4.391,2.26L42.7,39.41a4.224,4.224,0,0,1-2.179.813L41.645,44c2.5-3.39,6.4-5.6,9.835-7.92a2.553,2.553,0,0,0,.936-2.71c-.157-.749-.851-1.941-1.8-1.482A89.737,89.737,0,0,0,41.89,36.7c-2.621,1.649-5.118,3.752-8.107,4.692l1.681,3.137c1.843-4.763,7.28-7.037,10.511-10.709a2.867,2.867,0,0,0,.6-2.489c-.121-.579-.648-1.731-1.426-1.573a16.478,16.478,0,0,0-10.688,7.206,17.966,17.966,0,0,0-2.788,6.3c-.434,2.068-.339,4.3-1.468,6.156a2.855,2.855,0,0,0-.149,2.479c.229.527.88,1.285,1.537.9,1.482-.865,1.739-2.7,2.307-4.2a49.567,49.567,0,0,1,2.037-4.8,42.92,42.92,0,0,1,5.837-8.777c.648-.748,1.054-3.359-.4-3.629l-.134-.025a1.117,1.117,0,0,0-1.259.543,2.9,2.9,0,0,0-.044,3.117c.657.986,1.555.741,2.372.142l-1.851-2.674-.354.909c-.416,1.07.03,3.277,1.543,2.879l1.086-.286-.785-3.8a10.528,10.528,0,0,0-2.7,2.423c-.673.837-.223,4.063,1.342,3.268a9.366,9.366,0,0,1,1.973-.752l-1.06-3.493a20.614,20.614,0,0,0-2.613,2.39c-.74.8-.7,4.011,1,3.3a16.446,16.446,0,0,1,3.119-1.147l-.682-3.353a1.344,1.344,0,0,1-1.107.5l.432,3.8a84.01,84.01,0,0,1,10.37-4.808c1.415-.5,1.226-4.287-.459-4.044a13.8,13.8,0,0,0-5,1.692c-1.306.756-1.428,4.107.474,4.167a34.021,34.021,0,0,0,5.569-.324l-.46-4.047c-2.122.863-4.291,1.484-6.46,2.2l.777,3.763a59.232,59.232,0,0,1,6.1-1.569L52.2,33.005c-1.354.787-2.556,1.8-3.879,2.656-.4.26-.54,1.66.174,1.531Z"/><path class="c" d="M34.955,44.1a50.429,50.429,0,0,0-.606,5.285l2.28-.056c.033-.733.07-1.461.083-2.2.014-.791-.6-2.265-1.65-1.822-2.22.935-3.717,3.05-2.76,5.527a3.6,3.6,0,0,0,1.62,1.862,7.439,7.439,0,0,1,1.885,1.123l.637-4.179a5.113,5.113,0,0,1-2.314-.986c-.871-.654-1.744-.012-2.07.886a3.094,3.094,0,0,0,.626,3.171,11.7,11.7,0,0,0,5.275,2.727c1.648.494,3.745.928,4.921,2.3l1.4-3.961a6.943,6.943,0,0,1-2.25-1.5l-1.453,4.084A9.927,9.927,0,0,1,42.8,58.918L44.57,55.21c-1.886-1.206-2.79-3.7-4.162-5.413-1.527-1.908-3.377-3.771-3.685-6.3l-2.454,2.285c1.587,2.419,3.18,4.834,4.752,7.263a1.165,1.165,0,0,0,1.964.129,3.054,3.054,0,0,0,.312-2.942L38.468,43,35.9,45.4c2.208,4.488,4.439,9.079,7.714,12.9a1.267,1.267,0,0,0,2.208-.054,3.313,3.313,0,0,0-.083-3.363A65.945,65.945,0,0,1,40.3,44.153L38,47c3.074,5.2,6.1,10.43,9.145,15.65l2.073-3.333c-3.181-5.169-6.466-10.316-8.708-15.982L38.3,46.071c3.587,6.036,7.271,12.077,11.357,17.791a1.186,1.186,0,0,0,2,.132A3.093,3.093,0,0,0,51.966,61c-1.275-3.145-3.5-5.872-5.193-8.8a30.436,30.436,0,0,1-3.662-9.022l-2.6,1.762A105.676,105.676,0,0,0,52.322,64.121a1.211,1.211,0,0,0,2.114-.052,3.14,3.14,0,0,0-.079-3.22q-3-4.6-5.779-9.34a46.742,46.742,0,0,1-4.41-9.4l-2.2,2.723q4.962,8.994,10.441,17.692a1.2,1.2,0,0,0,2.025.134,3.122,3.122,0,0,0,.322-3.033c-2.433-5.693-6.3-10.676-8.327-16.555L44.141,45.89a132.023,132.023,0,0,0,9.34,13.529c1.7,2.062,3.114-1.364,2.337-2.886-2.209-4.328-4.444-8.643-6.669-12.963l-2.357,2.912q4.284,7.187,8.583,14.362a1.2,1.2,0,0,0,1.692.443,2.5,2.5,0,0,0,.894-2.164c-.19-3.193-2.156-5.738-3.558-8.5a33.314,33.314,0,0,1-3.109-8.268l-2.4,2.235L53.506,52.7a1.177,1.177,0,0,0,2.067-.051A3.1,3.1,0,0,0,55.5,49.5l-4.6-8.124a1.151,1.151,0,0,0-1.786-.306,2.789,2.789,0,0,0-.613,2.541,35.82,35.82,0,0,0,2.874,8.231c.594,1.238,1.234,2.455,1.877,3.668.582,1.1,1.572,2.414,1.64,3.688l2.585-1.721Q53.2,50.276,48.9,43.1a1.2,1.2,0,0,0-2.034-.135,3.081,3.081,0,0,0-.324,3.047c2.229,4.314,4.447,8.635,6.692,12.941l2.337-2.887A117.966,117.966,0,0,1,46.18,42.613a1.168,1.168,0,0,0-1.971-.13,3.111,3.111,0,0,0-.313,2.951c2,5.9,5.844,10.909,8.257,16.621l2.347-2.9q-5.611-8.547-10.569-17.488a1.126,1.126,0,0,0-1.9-.126,3.021,3.021,0,0,0-.3,2.849c2.3,7.139,6.877,13.3,10.6,19.73l2.035-3.272a129.593,129.593,0,0,1-11.4-18.186c-.355-.718-1.013-1.373-1.828-.857a2.593,2.593,0,0,0-.773,2.619,35.4,35.4,0,0,0,3.817,9.92c.825,1.51,1.719,2.979,2.641,4.43A24.646,24.646,0,0,1,49.4,63.4l2.313-2.857C47.846,54.69,43.917,48.9,40.269,42.9a1.13,1.13,0,0,0-1.908-.126,2.957,2.957,0,0,0-.3,2.858,112.333,112.333,0,0,0,9.084,17.025A1.228,1.228,0,0,0,49.3,62.6a3.231,3.231,0,0,0-.081-3.28c-3.059-5.206-6.132-10.4-9.159-15.628a1.179,1.179,0,0,0-1.991-.132,3.126,3.126,0,0,0-.316,2.982A72.326,72.326,0,0,0,43.617,58.3l2.125-3.417A59.322,59.322,0,0,1,38.468,43c-.412-.822-1.243-1.521-2.1-.779A3.02,3.02,0,0,0,35.9,45.4l2.873,7.19,2.277-2.812c-1.592-2.419-3.164-4.852-4.741-7.28a1.184,1.184,0,0,0-1.827-.313,2.947,2.947,0,0,0-.626,2.6c.372,3.15,2.3,5.62,4.224,8.009a31.945,31.945,0,0,1,2.406,3.491,8.9,8.9,0,0,0,2.634,2.992,1.259,1.259,0,0,0,1.96-.649,3.257,3.257,0,0,0-.2-3.059,13.024,13.024,0,0,0-2.852-3.276c-.854-.7-1.768.022-2.084.892a3.1,3.1,0,0,0,.631,3.192,9.487,9.487,0,0,0,2.994,1.96c1.944.81,2.23-2.992,1.4-3.961a10.9,10.9,0,0,0-5.422-3.225c-1.908-.588-3.954-1.056-5.429-2.486L32.686,52.72a7.348,7.348,0,0,0,3.868,1.4c.812.058,1.274-1.049,1.373-1.674a2.867,2.867,0,0,0-.735-2.505,6.171,6.171,0,0,0-2.043-1.129c-.559-.224-.68-.59-.506.3.208,1.065,0,.569.419.385.246-.108.529-.342.765-.474L34.177,47.2c.044.733.109,1.458.172,2.189.057.665.335,1.713,1.183,1.709.8,0,1.147-1.138,1.1-1.765a50.857,50.857,0,0,0-.759-5.252c-.124-.663-.813-.629-.915.023Z"/><path class="c" d="M43.366,46.493c1.384,3.7,3.011,7.312,4.653,10.907,1.472,3.223,2.586,7.065,4.937,9.776.743.857,1.587.563,2-.443a20.656,20.656,0,0,1,7.3-8.882L60.9,54.574a64.831,64.831,0,0,0-7.118,6.379l1.886,2.723a28.459,28.459,0,0,1,1.093-3.444c.154-.39,1.053-2.908,1.492-2.9l-.666-.255c-.253-.157-.084-.248-.041.235.035.4.11.793.165,1.188.1.712.2,1.424.3,2.136.2,1.4,1.987,2.071,2.447.425a9.456,9.456,0,0,0,.123-5.069l-2.113,1.967a8.69,8.69,0,0,0,1.665,1.878,1.121,1.121,0,0,0,1.753-.75c.913-3.36-.846-6.6-2.229-9.593A30.257,30.257,0,0,1,56.6,40.726l-2.4,2.239c1.038,1.652,1.27,3.66,1.745,5.517a13.009,13.009,0,0,0,2.9,5.854c1.06,1.154,2.134-.652,2.282-1.493a33.128,33.128,0,0,0-.194-9.879l-3.024,1.359a48.135,48.135,0,0,0,2.116,7.794c.323.83,1.164,1.478,2.01.942.912-.578,1-1.931.851-2.88q-.543-3.361-1.36-6.665l-2.869,1.944L60.8,51.639a1.406,1.406,0,0,0,2.761-.068,14.514,14.514,0,0,0,.407-5.789,16.524,16.524,0,0,1-.182-5.233l-1.934,1.757A2.81,2.81,0,0,1,61.583,42a4.62,4.62,0,0,0,.289,1.189l.521,2.14c.2.838.779,1.935,1.809,1.712s1.315-1.552,1.336-2.441l.111-4.586-2.374,2.179,1.208,1.11c1.172,1.077,2.125-.578,2.333-1.527A52.091,52.091,0,0,0,67.927,33.9c.067-1.047-.054-2.535-1.2-3a32.6,32.6,0,0,0-13.045-2.4c-1.375.031-1.785,2.177-1.492,3.174a3.034,3.034,0,0,0,2.307,2.476c1.2.278,2.441.432,3.664.591a27.4,27.4,0,0,1,7.168,1.579l-.116-4.728a37.754,37.754,0,0,0-5.134,3.336,4.828,4.828,0,0,0-.734,6.06c.953,1.628,2.43.061,2.638-1.137a30.083,30.083,0,0,0,.415-6.606l-2.938,1.3a19.864,19.864,0,0,0,3.45,6.787c1.645,1.884,3-.819,2.616-2.436A11.085,11.085,0,0,0,64.06,35.4a1.25,1.25,0,0,0-2.109-.139,3.22,3.22,0,0,0-.336,3.159,12.99,12.99,0,0,1,.563,1.334c.027.249.049.188.068-.184a1.194,1.194,0,0,1-.349.393,3.7,3.7,0,0,1-2.35,1.1l.822.315.018.151q-.129-.3-.232-.6a6.447,6.447,0,0,1-.217-.863,8.265,8.265,0,0,1-.084-1.906l-2.717,1.809a27.9,27.9,0,0,1,2.379,4.482l1.31-3.753c-4.615.642-5.833,5.948-3.781,9.585a1.238,1.238,0,0,0,1.919.328,2.926,2.926,0,0,0,.658-2.729l-.209-.713c-.251-.862-.855-2.023-1.948-1.6-1.029.4-1.209,2.036-1.012,2.933l.161.735,2.835-1.92c-.194-.413-.289-.431.005-.886a2.227,2.227,0,0,1,1.493-.787c1.628-.232,1.826-2.532,1.31-3.753a34.205,34.205,0,0,0-2.919-5.457,1.267,1.267,0,0,0-1.779-.466,2.722,2.722,0,0,0-.939,2.275,13.117,13.117,0,0,0,1.044,5.837,2.963,2.963,0,0,0,1.789,1.857,3.22,3.22,0,0,0,2.288-.546,6.309,6.309,0,0,0,3.378-3.55,8.053,8.053,0,0,0-.8-5.954l-2.444,3.02a4.212,4.212,0,0,1,.59,1.351l2.616-2.437a16.678,16.678,0,0,1-2.937-5.8,1.48,1.48,0,0,0-1.827-1.071,2.49,2.49,0,0,0-1.112,2.369,23.288,23.288,0,0,1-.335,5.312L61.511,37.5q-.534,2.428.282,1.6a3.069,3.069,0,0,1,.519-.372c.377-.256.774-.486,1.16-.727l2.709-1.7c1.447-.907,1.639-3.985-.116-4.728A23.879,23.879,0,0,0,60.2,30.087c-1.009-.15-2.022-.269-3.031-.416-.708-.1-2.056-.072-2.581-.575l.784,1.462-.082-.28L53.8,33.452a30.154,30.154,0,0,1,12.18,2.221l-1.246-2.347a48.087,48.087,0,0,1-1.06,7.22l2.334-1.527L64.8,37.913c-1.429-1.309-2.35,1.137-2.373,2.179l-.1,4.586,3.144-.729c-.519-2.119-.68-5.292-2.877-6.381-1.085-.537-1.774,1-1.933,1.757a16.866,16.866,0,0,0-.03,5.487,11.148,11.148,0,0,1,.112,4.368l2.762-.067-2.143-6.175a1.4,1.4,0,0,0-2.016-.945,2.835,2.835,0,0,0-.853,2.888q.822,3.3,1.369,6.661L62.716,49.6a40.854,40.854,0,0,1-1.779-6.64c-.188-.9-.921-2.048-1.99-1.637-1.112.426-1.152,2.054-1.034,3a24.564,24.564,0,0,1,.144,7.317l2.282-1.493c-1.163-1.26-1.5-3.1-1.9-4.7a18.163,18.163,0,0,0-2.236-5.7,1.161,1.161,0,0,0-1.791-.306,2.849,2.849,0,0,0-.613,2.545,28.18,28.18,0,0,0,2.708,7.971c.578,1.2,1.182,2.391,1.743,3.6.533,1.151,1.557,2.775,1.235,4.064L61.355,56.4a4.708,4.708,0,0,1-1.129-1.27,1.017,1.017,0,0,0-1.573-.27,2.429,2.429,0,0,0-.539,2.237,3.493,3.493,0,0,1-.008,1.97l2.446.425c-.2-1.341-.593-7.948-3.475-5.8-1.062.792-1.616,2.412-2.14,3.583a31.592,31.592,0,0,0-1.612,4.415,2.887,2.887,0,0,0,.268,2.447,1.052,1.052,0,0,0,1.617.277c2.3-2.247,4.647-4.422,7.042-6.563,1.135-1.015.377-4.521-1.351-3.277a25.554,25.554,0,0,0-8.2,10.25l2-.443a22.82,22.82,0,0,1-2.482-4.445c-.8-1.694-1.667-3.355-2.54-5.01a52.3,52.3,0,0,0-5.838-9.013c-.358-.433-.58.284-.469.58Z"/><path class="d" d="M30.318,27.3c-2.3-1.882-5.578.26-6.871,2.394-1.676,2.766-1.156,6.538.292,9.284A6.887,6.887,0,0,0,25.1,40.767c.48.466.848.664.895,1.223.128,1.54-.83,3.189-1.123,4.67a6.415,6.415,0,0,0,.754,4.563c.14.255.548.85.5,1.168.088-.59-.547.193-.652.315a5.506,5.506,0,0,0-.806,1.2c-1.3,2.706.612,7.238,3.958,7.069,1.31-.066,1.4-2.893.2-3.19-.919-.229-2.714-.785-2.565-2.093.09-.788,1.23-1.368,1.534-2.13a4.312,4.312,0,0,0,.1-2.288c-.244-1.289-1.309-2.381-1.141-3.672.217-1.676,1.2-3.152,1.439-4.852a5.238,5.238,0,0,0-1.319-4.671,6.259,6.259,0,0,1-1.894-4.036c-.347-3.6,3.343-4.083,5.345-6.164a.426.426,0,0,0-.015-.573Z"/><path class="d" d="M67.315,60.418c.474-1.416.97-2.824,1.468-4.233a30.587,30.587,0,0,1,1.678-4.34,21.9,21.9,0,0,1,1.31-2.068,5.6,5.6,0,0,0,1.122-1.743,3.524,3.524,0,0,0-.071-1.586,7.952,7.952,0,0,1-.226-3.006,8.445,8.445,0,0,1,1.242-4.316c.487-.651,1.1-1.19,1.563-1.863.433-.621.763-1.3,1.16-1.943a15.436,15.436,0,0,1,2.49-2.906c.9-.863,2.151-1.518,2.848-2.544.392-.576.413-2.23-.484-2.437-1.642-.378-3.445,1.776-4.464,2.838-1.442,1.5-2.523,3.343-4.032,4.766a9.137,9.137,0,0,0-2.756,6.62,10,10,0,0,0,.409,3.845c.294.891.66,2.27,1.539,2.751l-.486-.7.051.211.27-1.121a12.529,12.529,0,0,0-2.641,2.243,12.765,12.765,0,0,0-1.87,3.635c-.811,2.473-1.82,5.03-1.415,7.673.117.766,1.012,1.069,1.3.225Z"/><path class="d" d="M57.156,73A12.331,12.331,0,0,1,64.42,62.729c.486-.254.343-1.555-.267-1.293-4.48,1.919-7.88,6.451-7.566,11.462.026.415.5.62.569.1Z"/><path class="d" d="M56.123,70.621l-.106.082-.128.159a.9.9,0,0,0-.128.324.7.7,0,0,0-.038.253.781.781,0,0,0,.006.264,1.07,1.07,0,0,0,.087.369l.107.2.136.152a.379.379,0,0,0,.246.112.219.219,0,0,0,.174,0,.252.252,0,0,0,.164-.072.509.509,0,0,0,.2-.211l.1-.2.06-.24.017-.265a1.078,1.078,0,0,0-.066-.382.874.874,0,0,0-.143-.317l-.081-.114-.1-.117a.288.288,0,0,0-.188-.086.166.166,0,0,0-.133,0,.289.289,0,0,0-.184.094Z"/><path d="M26.728,51.527c-.82-.2-1.233-2.063-1.371-2.775a9.121,9.121,0,0,1,.23-3.989,12.208,12.208,0,0,0,.655-2.247,2.314,2.314,0,0,0-.777-1.636c-2.925-3.642-3.556-9.547.947-12.245a6.3,6.3,0,0,1,5.425-.569,3.5,3.5,0,0,0,2.349.241A5.3,5.3,0,0,0,36.1,26.668a10.359,10.359,0,0,1,10.781-2.811.522.522,0,0,0,.538-.121c4.162-4.709,12.162-3.023,13.524,3.3.283,1.315,1.461.486,1.266-.569a9.386,9.386,0,0,0-6.319-7.263,9.045,9.045,0,0,0-9.224,2.7l.537-.121a11.564,11.564,0,0,0-9.675,1.667,10.568,10.568,0,0,0-1.772,1.519c-.65.7-1.192,1.654-2.2,1.83-.913.16-1.94-.473-2.861-.6a6.33,6.33,0,0,0-2.258.105,8.337,8.337,0,0,0-6.15,6.289,10.462,10.462,0,0,0,.405,5.641,12.08,12.08,0,0,0,1.164,2.429,12.889,12.889,0,0,0,.93,1.307c.38.466.421.273.312.813-.414,2.039-1.087,3.838-.681,5.965.19,1,.91,3.485,2.274,3.38.246-.019.268-.549.039-.606Z"/><path d="M55.7,73.167c-5.764-.018-11.787.052-16.47-3.8a26.922,26.922,0,0,1-5.73-6.655c-.842-1.361-1.589-2.947-3.265-3.37-1.81-.458-4.02-.458-5.18-2.2-1.771-2.665,2.852-4.064,4.69-3.89a7.209,7.209,0,0,1,3.9,1.678,7.621,7.621,0,0,0,1.512,1.079,11.236,11.236,0,0,0,2.164.54c2.826.706,3.968,3.173,5.384,5.42a7.454,7.454,0,0,0,3.06,2.493,28.025,28.025,0,0,1,3.67,2.386,25.87,25.87,0,0,1,6.044,6.683c.611.966,1.271-.7.851-1.367a27.217,27.217,0,0,0-5.831-6.641,28.554,28.554,0,0,0-3.393-2.361c-1.556-.928-2.934-1.541-3.84-3.192C42,57.657,40.3,55.248,37.658,54.423a14.19,14.19,0,0,1-2.156-.589c-.792-.394-1.405-1.106-2.154-1.576a8.143,8.143,0,0,0-3.858-1.223c-2.425-.142-5.094,1.1-5.951,3.5A4.788,4.788,0,0,0,26,60.3a9.823,9.823,0,0,0,3.055.9,3.419,3.419,0,0,1,2.032.727,17.916,17.916,0,0,1,2.1,3.148,29.908,29.908,0,0,0,2.94,3.707,17.744,17.744,0,0,0,8.634,5.507c3.647.9,7.327.352,10.964-.273.365-.063.367-.848-.021-.849Z"/><path d="M54.829,73.088a14.3,14.3,0,0,0,9.58.662,21.226,21.226,0,0,0,8.642-4.628c5.294-4.594,8.042-11.65,8.5-18.53A41.9,41.9,0,0,0,80.7,38.211c-.116-.5-.5-1.061-1.07-.743s-.485,1.2-.331,1.692c2.544,8.163,1.493,17.356-3.916,24.17A23.2,23.2,0,0,1,66.3,70.291a28.862,28.862,0,0,1-11.417,1.9c-.4,0-.35.769-.057.894Z"/><path d="M55.415,73.605a14.338,14.338,0,0,1,5.643-8.713C64,62.8,67.511,62.535,70.836,61.4a8.92,8.92,0,0,0,6.055-6.165c.847-3.057.5-6.256.69-9.384a10.457,10.457,0,0,1,1.03-4.4,10.034,10.034,0,0,1,3.4-3.2c2.546-1.781,4.367-4.437,2.922-7.592A5.793,5.793,0,0,0,77.4,27.719a8.626,8.626,0,0,0-3.575,2.971c-1.166,1.609-1.585,3.581-2.6,5.271a13.518,13.518,0,0,0-2.027,8.891c.068.569.232,1.122.3,1.687a2.584,2.584,0,0,1-.614,1.938c-2.452,3.584-4.395,7.838-3.937,12.3.086.843,1.112,1.36,1.215.22.349-3.865,1.153-7.269,3.469-10.461a5.517,5.517,0,0,0,1.347-4.411,12.036,12.036,0,0,1,.055-5.722c.529-1.779,1.7-3.209,2.394-4.911a10.767,10.767,0,0,1,2.688-4.462,5.533,5.533,0,0,1,4.318-1.473,4.071,4.071,0,0,1,3.419,2.968c.226,1.511-1.359,2.656-2.42,3.448a16.12,16.12,0,0,0-3.145,2.7c-1.752,2.193-2.132,5.018-2.23,7.737-.1,2.789.257,5.8-.7,8.474C74.245,58,71.251,59.136,68.29,59.891c-3.5.891-6.722,1.769-9.388,4.35a14.651,14.651,0,0,0-4.461,8.983c-.085.791.766,1.386.974.381Z"/><path d="M30.268,52.191c.507-3.5.839-6.79,2.328-10.056a26.336,26.336,0,0,1,6.339-8.678c5.871-5.258,14.131-6.979,21.786-5.636,4.446.78,9.3,2.558,12.617,5.711.9.859,1.443-1.4.735-2.068-3.175-2.99-7.68-4.75-11.892-5.648A29.6,29.6,0,0,0,49.546,25.8,25.52,25.52,0,0,0,32.02,40.011c-1.663,3.562-3.118,8.249-2.1,12.189.062.24.314.256.352-.009Z"/><path d="M55.733,19.783a4.318,4.318,0,0,1,2.719-1.8,12.636,12.636,0,0,1,4.284-1.037,3.643,3.643,0,0,1,3.276,1.709,10.435,10.435,0,0,0,1.244,2.6c.74.788,1.711.765,2.711.889a10.843,10.843,0,0,1,8.324,6.025c.618,1.316,1.7-.216,1.234-1.154a12.344,12.344,0,0,0-5.262-5.5,11.47,11.47,0,0,0-3.673-1.222,10.709,10.709,0,0,1-2.15-.25c-.745-.286-.917-1.062-1.182-1.733-1.048-2.652-3.6-3.425-6.245-2.795-2.086.5-5.286,1.494-5.608,4-.021.158.177.565.328.277Z"/><path d="M42.662,34.785a37.914,37.914,0,0,1,7.109,7.284,42.611,42.611,0,0,1,5.733,8.8,18.149,18.149,0,0,1,1.377,9.777,34.57,34.57,0,0,1-1.012,5.171c-.431,1.565-1.2,3.1-1.5,4.688-.078.418.357,1.226.756.637a18.518,18.518,0,0,0,1.8-4.926,41.177,41.177,0,0,0,1.3-5.475A20.1,20.1,0,0,0,57.1,50.179a37.019,37.019,0,0,0-6.08-9.737c-2.1-2.584-4.575-6.21-8.02-7-.668-.155-.752,1.039-.337,1.347Z"/><path d="M56.725,33.038c-.605.592-1.25,1.145-1.843,1.75A12.818,12.818,0,0,0,53.453,36.6a16.515,16.515,0,0,0-2.089,4.571,1.387,1.387,0,0,0,.284,1.437c.375.308.816,0,.938-.4A31.238,31.238,0,0,1,54.2,37.683c.327-.685.724-1.326,1.112-1.976a16.835,16.835,0,0,1,1.575-2.268c.113-.133.023-.584-.165-.4Z"/><path d="M37.221,48.969a44.073,44.073,0,0,0,5.463-.074,28.915,28.915,0,0,1,5.1-.111,17.524,17.524,0,0,1,4.588,1.279,19.728,19.728,0,0,1,1.959.947,9.654,9.654,0,0,0,1.973,1.141c.666.174.715-.92.455-1.285-.816-1.148-2.572-1.871-3.826-2.425a17.656,17.656,0,0,0-4.756-1.379,16.958,16.958,0,0,0-5.354.271,47.312,47.312,0,0,0-5.645,1.291c-.131.042-.1.335.04.345Z"/><path d="M45.1,56.563c2.093.751,4.355.923,6.452,1.682a25.676,25.676,0,0,1,2.993,1.273c.479.247.929.536,1.4.8.425.24,1.067.719,1.546.44a.977.977,0,0,0,.364-1.054c-.262-1.2-1.67-1.892-2.672-2.429A12.966,12.966,0,0,0,51.9,56a9.607,9.607,0,0,0-6.8.478c-.026.014-.029.073,0,.084Z"/><path d="M62.729,38.738a30.259,30.259,0,0,0-4.4,5.363c-1.323,1.989-2.535,4.175-2.2,6.649.052.384.378.861.811.768.463-.1.594-.7.6-1.094.026-2.043,1.058-3.821,2.046-5.553,1.106-1.94,2.233-3.864,3.32-5.815.057-.1-.005-.475-.172-.318Z"/><path d="M38.71,40.215c3.89-.244,8.383.007,11.69,2.323.953.667,1.426-1.521.479-1.913a21.96,21.96,0,0,0-6.028-1.749,12.828,12.828,0,0,0-6.2.794c-.188.075-.173.56.062.545Z"/></svg>