<svg xmlns="http://www.w3.org/2000/svg" width="100" height="100" viewBox="0 0 100 100"><defs><style>.a{fill:#fca62f;}.b{fill:#a3e440;}.c{fill:#8dc637;}</style></defs><title>carrots</title><path class="a" d="M57.336,36.525a7.989,7.989,0,0,1-.884-.861c-.129-.153-.265-.3-.388-.461a5.929,5.929,0,0,1-.389-.64l-1.07,1.721a6.557,6.557,0,0,0,1.27,1.19c.409.347.814.7,1.226,1.042.8.67,1.622,1.343,2.377,2.069l.754-3.008a4.277,4.277,0,0,1-.881-.41l.273.166a5.133,5.133,0,0,1-1.089-.88l.238.267a4.176,4.176,0,0,1-.274-.347c-.081-.114-.335-.573-.079-.09L57.179,38.9c.171.089.339.182.5.281l-.281-.172a8.384,8.384,0,0,1,1.835,1.518l-.246-.275.109.123a1.107,1.107,0,0,0,.849.508,1.072,1.072,0,0,0,.824-.549,2.492,2.492,0,0,0-.062-2.549l-.786-1.13a.937.937,0,0,0-1.691.042,2.508,2.508,0,0,0,.063,2.575l.8,1.1,1.364-2.866a9.031,9.031,0,0,0-2.754-2.017.78.78,0,0,0-.75.107,1.423,1.423,0,0,0-.535.734,2.614,2.614,0,0,0,.233,2.127A4.894,4.894,0,0,0,58,39.984a4.443,4.443,0,0,0,2.03.811l.284-.066a.808.808,0,0,0,.357-.3,1.728,1.728,0,0,0,.364-.859,2.879,2.879,0,0,0-.021-.869,1.69,1.69,0,0,0-.517-.965c-.841-.608-1.656-1.25-2.5-1.85-.409-.29-.83-.561-1.254-.829-.218-.138-.437-.274-.657-.41q-.206-.127-.414-.253a1.405,1.405,0,0,0-.554-.167c-.207-.033-.459.213-.548.365a1.534,1.534,0,0,0-.2.693c-.027.414.1,1.167.6,1.3a4.4,4.4,0,0,1,.52.146,4.927,4.927,0,0,1,.5.272,6.464,6.464,0,0,1,.944.687c.244.2.5-.006.594-.254a.872.872,0,0,0-.18-.91Z"/><path class="a" d="M48.352,46.2q-4.39,3.124-8.795,6.229c-.851.6-.253,3.29.792,2.61,4.333-2.818,8.686-5.608,13.155-8.209l-.873-2.877c-5.118,5.063-11.72,8.363-16.231,14.07-.686.867-.011,3.454,1.329,2.473A157.95,157.95,0,0,1,54.9,49.556l-.911-3c-5.515,3.831-11.052,7.7-15.617,12.672-.853.928-.4,3.992,1.186,2.876q6.816-4.8,13.677-9.529l-1.2-2.9Q44.2,56.11,36.4,62.6c-.891.738-.368,3.947.944,3.113l9.614-6.1-.675-3.266a123.2,123.2,0,0,0-10.465,7.671c-.867.711-.546,3.688.928,3.06a31.422,31.422,0,0,0,7.164-4.282L42.718,59.9l-6.261,5.54c-.855.757-.347,4,.948,3.125,9.545-6.426,19.292-12.914,26.1-22.386.764-1.063.016-4.312-1.635-3.041a11.655,11.655,0,0,0-3.294,4.288c-.42.854-.4,3.46,1.2,2.918a7.714,7.714,0,0,0,5.046-6.586c.064-.726-.024-1.741-.748-2.14-.677-.372-1.235.148-1.481.785a6.413,6.413,0,0,0-.069,4.4c.186.591.923,1.041,1.44.535,5.393-5.27-2.974-13.4-7.411-16.024-3.027-1.79-6.164-1.6-8.584,1.068a28.113,28.113,0,0,0-5.456,9.491,2.565,2.565,0,0,0,.244,2.23c.323.435,1.041.777,1.474.252q3.986-4.834,8.3-9.377L51.277,31.93a69.655,69.655,0,0,0-8.169,11.276,2.49,2.49,0,0,0-.034,2.353c.315.562.961.953,1.527.424q4.221-3.945,8.43-7.9l-1.509-2.807a86.68,86.68,0,0,0-6.54,9.427,2.49,2.49,0,0,0-.035,2.386c.287.511,1.03,1.04,1.549.43q4.188-4.917,8.374-9.835l-1.518-2.823q-2.227,4.127-4.378,8.294c-1.219,2.365-3.254,5.16-2.474,7.955.208.745.911,1.809,1.769,1.037a63.759,63.759,0,0,0,7.06-7.6l-1.716-2.478c-1.592,2.672-3.211,5.33-4.771,8.021-.606,1.045-.126,4.052,1.555,2.891l5.436-3.754-1.525-2.835a12.385,12.385,0,0,0-1.656,4.268c-.137.7.357,2.821,1.514,2.186a16.277,16.277,0,0,0,5.363-4.74c.7-.954-.1-4.1-1.507-2.8l-.678.626c-1.083,1-.151,4.406,1.274,3.089l.678-.625-1.507-2.8a13.229,13.229,0,0,1-4.339,3.785l1.513,2.186a7.648,7.648,0,0,1,1.106-2.629,2.541,2.541,0,0,0,.133-2.219c-.193-.442-.812-1.188-1.376-.807L49.37,49.592l1.267,3.086c1.594-2.694,3.13-5.423,4.692-8.136.7-1.223-.341-4.252-1.716-2.478A53.3,53.3,0,0,1,47,49.056l1.769,1.037c-.229-.823.81-2.188,1.185-2.921q.822-1.6,1.657-3.2,1.724-3.3,3.5-6.577A2.532,2.532,0,0,0,55.139,35c-.287-.512-1.032-1.042-1.553-.431q-4.189,4.918-8.37,9.844l1.515,2.815a86.49,86.49,0,0,1,6.534-9.435c.76-.956-.141-4.094-1.51-2.807q-4.212,3.963-8.416,7.934L44.832,45.7a61.945,61.945,0,0,1,7.7-10.72,2.386,2.386,0,0,0,.36-2.447c-.261-.607-1.012-1.225-1.616-.6q-4.338,4.486-8.347,9.27l1.718,2.482A27.563,27.563,0,0,1,48.4,36.64c1.571-2.124,3.429-3.524,6.135-2.5a16.837,16.837,0,0,1,5.926,4.4c1.1,1.173,4.452,4.6,2.384,6.081l1.555.912a1.223,1.223,0,0,1,.133-.956l-2.05-1.73a4.912,4.912,0,0,1-3.405,4.118l1.2,2.918A9.627,9.627,0,0,1,63.253,46.5l-1.635-3.041c-6.605,9.124-15.975,15.7-25.161,21.989l1.214,2.945,6.236-5.6c1-.9.262-4.044-1.189-2.884a28.251,28.251,0,0,1-6.643,3.93L37,66.892A116.712,116.712,0,0,1,46.955,59.6a1.98,1.98,0,0,0,.728-2.111c-.107-.507-.7-1.6-1.4-1.155l-9.619,6.077.945,3.114q7.828-6.463,15.632-12.957c1.05-.876.335-3.98-1.2-2.9q-6.819,4.8-13.666,9.555L39.561,62.1c4.6-4.937,10.1-8.856,15.6-12.719.945-.663.392-3.728-.911-3A163.186,163.186,0,0,0,36.6,57.766l1.33,2.472c4.344-5.509,10.9-8.66,15.813-13.577.678-.678.454-3.659-.873-2.877-4.562,2.692-9.035,5.523-13.318,8.642l1.014,2.46q4.292-3.354,8.616-6.664c.764-.588.222-2.778-.835-2.025Z"/><path class="a" d="M61.323,41.3a45.487,45.487,0,0,0-8.007,6.488,2.084,2.084,0,0,0-.383,2.018c.147.465.659,1.252,1.268.9a24.309,24.309,0,0,0,7.612-6.93c.543-.755.252-3.42-1.153-2.807a10.168,10.168,0,0,0-4.249,3.464,2.413,2.413,0,0,0-.129,2.145c.187.43.782,1.144,1.33.78,1.523-1.013,3.453-1.933,3.868-3.889.322-1.517-.346-3.567-2.1-3.7-1.261-.093-1.171,2.008-.944,2.706a1.622,1.622,0,0,0,2.983.419,2.932,2.932,0,0,0-1.41-4.216c-1.552-.463-1.643,2.176-1.061,2.995.761,1.07,2.6,3.32,3.964,1.83,1.347-1.465.25-4.035-.642-5.43L60.693,40.61q.83,1.046,1.651,2.1l1.583-2.545a30.772,30.772,0,0,0-6.811-6.122c-1.995-1.292-5.808-3.133-7.662-.561a2.954,2.954,0,0,0,.464,3.978,2.468,2.468,0,0,0,2.979-.415c.244-.183.812-.561.9-.465.278.306.132,1.316.144,1.648q.095,2.61.182,5.222c.051,1.488,1.5,2.593,2.288.879a12.7,12.7,0,0,0,1.078-6.517l-2.242.99a15.753,15.753,0,0,0,2.687,4.855.987.987,0,0,0,1.719-.042,2.522,2.522,0,0,0-.064-2.619l-1.671-2.417-1.4,2.945a1.49,1.49,0,0,1,.11,2.326l1.855,1.542.118-4.611c.027-1.032-1.275-2.68-2.075-1.239-1.375,2.474-2.787,4.928-4.182,7.391a2.582,2.582,0,0,0,.065,2.664.993.993,0,0,0,1.75-.043,11.4,11.4,0,0,1,2.772-3.178l-1.562-2.9c-1.9,2.561-3.867,5.073-5.863,7.561a2.537,2.537,0,0,0-.137,2.282c.2.461.829,1.213,1.415.83,1.191-.779,2.371-1.576,3.556-2.365l-1.27-3.092a62.8,62.8,0,0,1-5.122,6.563,2.455,2.455,0,0,0-.374,2.544c.31.719.991,1.172,1.679.624,1.378-1.1,2.72-2.241,4.094-3.345.945-.761.373-4.082-.979-3.227q-2.32,1.468-4.646,2.928l1.2,2.91c.885-1.371,2.152-2.434,3.086-3.77a8.087,8.087,0,0,0,1.361-5.063c-.04-.989-.223-1.973-.224-2.964a6.916,6.916,0,0,1,.512-2.367,10.164,10.164,0,0,0,.81-5.422c-.219-1.182-1.617-1.737-2.061-.358a8.535,8.535,0,0,0,.112,5.626.932.932,0,0,0,1.725.294,9.15,9.15,0,0,0,1.739-3.987c.274-1.421-1.207-3.08-2.065-1.255a43.14,43.14,0,0,1-4,7.159,15.811,15.811,0,0,1-2.731,2.919c-.275.226-2.445,1.848-2.681,1.46-.991-1.628-2.287,1-1.7,2.1,1.862,3.515,6.129-.751,7.646-2.548a39.828,39.828,0,0,0,5.431-9.431l-2.065-1.255a5.762,5.762,0,0,1-1.176,2.519l1.725.3a3.049,3.049,0,0,1,.022-2.222l-2.061-.358c.212,1.341-.781,2.865-1.12,4.13a13.943,13.943,0,0,0-.179,4.931,4.7,4.7,0,0,1-1.071,3.837,37.315,37.315,0,0,0-2.726,3.282c-.453.7-.193,3.774,1.2,2.909q2.323-1.449,4.653-2.889l-.979-3.227c-1.373,1.084-2.777,2.128-4.145,3.218l1.3,3.168a72.047,72.047,0,0,0,5.616-7.133A2.566,2.566,0,0,0,55,49.014c-.2-.457-.824-1.205-1.405-.824-1.188.78-2.381,1.552-3.561,2.342l1.277,3.112c1.981-2.5,3.922-5.033,5.857-7.57.771-1.01,0-4.11-1.562-2.905a12.7,12.7,0,0,0-3.267,3.761l1.815,2.621c1.372-2.492,2.729-4.994,4.123-7.475l-2.075-1.239-.138,4.612c-.025.828.879,2.526,1.855,1.542a6.192,6.192,0,0,0-.258-8.7c-.592-.526-1.265-.07-1.556.515a2.527,2.527,0,0,0,.154,2.429l1.671,2.417,1.655-2.661A13.114,13.114,0,0,1,57.3,36.879c-.618-1.808-2.379-.407-2.242.99a8.685,8.685,0,0,1-.792,4.639l2.289.879q-.075-2.193-.147-4.387a15.515,15.515,0,0,0-.33-3.7,3.267,3.267,0,0,0-1.791-2.354c-1.32-.467-1.876.63-2.931,1.032-.16.06-.3.022-.453.073-.636.2-.545,2.394.339,2.17a4.173,4.173,0,0,1,1.606-.266,8.184,8.184,0,0,1,3.457,1.48,28.2,28.2,0,0,1,6.04,5.274c1.407,1.642,2.514-1.38,1.583-2.545q-.833-1.039-1.659-2.085a.939.939,0,0,0-1.637.04,2.419,2.419,0,0,0,.062,2.493c.125.2.206.449.339.633l.1.291q1.149-.792.475-1.229c-.281-.418-.772-.749-1.076-1.179l-1.061,3q.736.366.36-.926-.247-1.674.578-.564l-.944,2.706-.311-1.008-.26.227a3.492,3.492,0,0,0-.73.523c-.512.355-1.019.714-1.526,1.074l1.473,2.74a7.6,7.6,0,0,1,3.22-2.667l-1.153-2.807a22.708,22.708,0,0,1-6.615,6.2l.885,2.917a46.433,46.433,0,0,1,7.492-7.2c.655-.477.185-2.581-.618-2.039Z"/><path class="a" d="M44.527,39.074a121.069,121.069,0,0,0-7.869,15.068A2.219,2.219,0,0,0,37,56.329a.875.875,0,0,0,1.463-.169,58.586,58.586,0,0,1,7.743-9.62L44.732,43.8q-1.833,3.249-3.673,6.493a2.5,2.5,0,0,0-.035,2.39c.309.54,1,1.005,1.552.43,1.308-1.356,2.626-2.7,3.921-4.073a2.46,2.46,0,0,0,.376-2.563c-.316-.752-.99-1.151-1.692-.629L40.209,49.54l1.544,2.871c1.278-1.771,2.671-3.429,4.11-5.07a2.43,2.43,0,0,0,.368-2.5c-.262-.621-1.039-1.252-1.652-.613a53.255,53.255,0,0,0-4.609,5.61c-.738,1.015-.032,4.033,1.544,2.872L46.5,49.038l-1.316-3.192c-1.308,1.373-2.593,2.769-3.887,4.154l1.517,2.821q1.806-3.285,3.623-6.563a2.444,2.444,0,0,0,.034-2.324c-.312-.546-.951-.951-1.508-.418a62.5,62.5,0,0,0-8.136,10.278l1.8,2.018A169.153,169.153,0,0,1,45.36,40.278a1.2,1.2,0,0,0-.03-1.224.456.456,0,0,0-.8.02Z"/><path class="a" d="M33.727,60.772c.938-2.217,2.177-4.331,3.257-6.483,1.125-2.241,2.236-4.483,3.432-6.689a65.008,65.008,0,0,1,3.467-5.857,18.726,18.726,0,0,1,1.981-2.467,10.327,10.327,0,0,0,2.258-2.515c.363-.739.376-2.246-.707-2.367-1.952-.219-3.864,2.739-4.863,4.118a56.208,56.208,0,0,0-3.8,6.325c-1.232,2.279-2.372,4.616-3.4,6.994-1.127,2.6-1.848,5.312-2.747,7.987-.279.83.62,2.149,1.125.954Z"/><path class="a" d="M42.769,49.159c1.236-1.673,2.482-3.334,3.767-4.968.482-.612.142-3.105-1.005-2.449-3.7,2.113-6.325,6.13-8.551,9.661-2.383,3.783-4.544,7.7-7.359,11.2l1.743,2.517c3.776-6.209,7.526-12.434,11.387-18.59l-1.885-2.109c-.507,1.319-1,2.639-1.471,3.972-.346.985.216,3.368,1.636,2.363a23.4,23.4,0,0,0,3.292-2.819l-1.387-2.578C41,48.9,38.988,52.412,36.862,55.848c-1.79,2.893-3.616,6.134-6.673,7.855L31.3,66.417c2.486-3.925,5.149-7.694,7.942-11.4L37.568,52.59c-3.025,4.581-5.935,9.236-8.677,13.993-.719,1.247.339,4.328,1.749,2.526q3.68-4.7,7.553-9.242l-1.5-2.783q-3.6,4.833-7.53,9.4a2.369,2.369,0,0,0-.359,2.439c.261.606,1.006,1.218,1.61.6q3.787-3.888,7.849-7.49L37.019,59Q31.532,64.962,25.844,70.73l1.241,3.012a80.679,80.679,0,0,1,9.049-8.133L34.892,62.6a103.571,103.571,0,0,1-8.486,8.485c-1.042.927-.313,4.158,1.233,2.991l2.7-2.041-1.454-2.7a23.47,23.47,0,0,1-3.385,3.7c-1.047.932-.222,4.186,1.223,2.967q5.156-4.349,10.345-8.657L35.82,64.3c-2.5,2.383-4.982,4.794-7.471,7.192-1.022.984-.119,4.272,1.228,2.981a77.606,77.606,0,0,1,7.6-6.4l-1.205-2.924a48.232,48.232,0,0,1-4.13,3.776c-1.027.835-.282,3.867,1.151,2.793,1.256-.94,2.514-1.877,3.765-2.822l-1.266-2.354a15.273,15.273,0,0,1-2.241,2.242l1.08,2.62,2.109-1.865L35.351,66.9C29.432,72.44,23.307,77.887,16.207,81.877l1.192,2.9c3.108-5.318,6.45-10.5,9.938-15.577q2.558-3.723,5.235-7.364c1.939-2.638,4.11-5.186,5.852-7.959a2.323,2.323,0,0,0,.033-2.242c-.282-.5-.946-.95-1.456-.4a62.059,62.059,0,0,0-4.235,5.091l1.343,1.941c.949-1.705,1.888-3.418,2.8-5.144l-1.735-1.036a20.459,20.459,0,0,1-1.25,5.679q-.913,2.849-1.832,5.7a2.108,2.108,0,0,0,.319,2.038.812.812,0,0,0,1.363-.157q2.2-3.6,4.408-7.188L36.6,55.866,32.25,64.188c-.5.953-.138,3.829,1.451,2.7.665-.473,1.332-.943,1.993-1.421l-1.242-3.014q-2.955,3.531-6.206,6.791l1.5,2.79a19.143,19.143,0,0,1,2.3-3.111l-1.259-3.056Q29.1,67.779,27.415,69.7a2.3,2.3,0,0,0-.35,2.377c.246.572,1,1.21,1.57.583q1.708-1.867,3.412-3.739a2.362,2.362,0,0,0,.361-2.454c-.258-.6-1.02-1.238-1.62-.6a20.7,20.7,0,0,0-2.775,3.664,2.471,2.471,0,0,0-.034,2.364c.3.543.985.985,1.535.426q3.24-3.293,6.18-6.854a2.366,2.366,0,0,0,.356-2.421c-.306-.712-.928-1.082-1.6-.593s-1.319.973-1.977,1.46l1.45,2.7,4.255-8.454a2.288,2.288,0,0,0-.058-2.325.865.865,0,0,0-1.526.037q-2.167,3.641-4.351,7.27l1.682,1.881c1.318-4.195,3.16-8.531,3.246-12.979.016-.837-1.094-2.272-1.734-1.036-.913,1.763-1.8,3.542-2.673,5.324a1.939,1.939,0,0,0,.048,1.973.737.737,0,0,0,1.3-.032A16.634,16.634,0,0,1,38.2,54.154L37,51.235a89.4,89.4,0,0,0-5.877,7.7q-2.743,3.759-5.366,7.605c-3.516,5.162-6.831,10.452-10.049,15.8-.431.717-.268,3.7,1.193,2.9,7.428-4.028,13.458-9.936,19.537-15.7.9-.853.161-3.76-1.088-2.639l-2.1,1.884c-.919.824-.2,3.7,1.08,2.62a18.3,18.3,0,0,0,2.623-2.751c.485-.616.076-3.263-1.032-2.513q-2.044,1.386-4.08,2.785l1.151,2.793a35.815,35.815,0,0,0,4.184-3.645c.92-.934.363-4.066-1.205-2.924A77.149,77.149,0,0,0,28.349,71.5l1.228,2.981c2.5-2.379,5.01-4.745,7.494-7.138,1.008-.971.243-4.3-1.251-3.035Q30.666,68.671,25.5,73.028L26.726,76a26.747,26.747,0,0,0,3.841-4.241c.7-.95.02-3.811-1.454-2.7l-2.707,2.032,1.233,2.991a100.967,100.967,0,0,0,8.5-8.464,2.336,2.336,0,0,0,.355-2.419c-.3-.694-.937-1.1-1.6-.593a80.669,80.669,0,0,0-9.048,8.133,2.314,2.314,0,0,0-.356,2.419c.261.606,1,1.2,1.6.593q5.688-5.765,11.181-11.714a2.337,2.337,0,0,0,.358-2.43c-.282-.654-.969-1.158-1.605-.6q-4.063,3.6-7.853,7.48l1.251,3.036q4.176-4.828,8.008-9.937c.739-.987-.323-4.153-1.5-2.784q-4.122,4.808-8.037,9.786l1.749,2.526c2.763-4.763,5.614-9.473,8.6-14.1.777-1.2-.4-4.15-1.677-2.422-2.758,3.74-5.358,7.62-7.844,11.546C29.3,64.8,29.5,67.6,30.838,66.85c3.193-1.8,5.188-4.87,7.09-7.9,2.32-3.694,4.425-7.511,6.609-11.285a2.29,2.29,0,0,0,.032-2.185c-.287-.511-.9-.9-1.418-.393a18.9,18.9,0,0,1-3.087,2.475l1.365,2.547c.521-1.31,1.013-2.627,1.495-3.951a2.352,2.352,0,0,0-.356-2.284.91.91,0,0,0-1.529.176C37.3,50.274,33.447,56.428,29.621,62.6a2.471,2.471,0,0,0-.034,2.378c.281.5,1.035,1.047,1.544.428a89.334,89.334,0,0,0,7.11-10.945,56.145,56.145,0,0,1,3.483-5.235,41.737,41.737,0,0,1,4.622-4.8l-1.234-2.294c-1,2.006-2.027,3.99-3.074,5.97-.272.516.156,1.835.731,1.056Z"/><path class="a" d="M19.847,81.2c.9-1.254,1.98-2.354,2.89-3.6.941-1.288,1.909-2.555,2.861-3.834C27.64,71.022,29.6,68.22,31.6,65.444l-2.194-.82q.123.525.056-.064a.128.128,0,0,0-.055.1,4.352,4.352,0,0,0-.432.693c-.426.624-.884,1.227-1.327,1.839l-2.736,3.784-5.472,7.568a2.6,2.6,0,0,0-.037,2.551c.3.534,1.109,1.127,1.657.46A77.955,77.955,0,0,1,33.6,69.413c1.334-1.034.285-4.9-1.445-3.5A87.065,87.065,0,0,0,19.7,78.233l1.619,3.011L27.692,72.5c1.039-1.426,2.1-2.839,3.119-4.28a5.555,5.555,0,0,0,.938-5.178,1.107,1.107,0,0,0-2.052-.351c-1.951,2.965-3.911,5.924-5.757,8.955-.888,1.457-1.774,2.917-2.632,4.392a22.293,22.293,0,0,0-1.9,4.678c-.079.257.146.89.435.486Z"/><path class="a" d="M56.138,49.706a1.388,1.388,0,0,0,.737,1.453c.52.276,1.3,0,1.824-.155a12.19,12.19,0,0,0,3.064-1.43,2.178,2.178,0,0,0,.812-2.353,1.932,1.932,0,0,0-.6-1.118.885.885,0,0,0-.964-.168,9.551,9.551,0,0,0-1.615,1.3,6.665,6.665,0,0,0-1.284,1.683,2.593,2.593,0,0,0-.2,1.958,1.353,1.353,0,0,0,1.1,1.073c.617.095,1.174-.563,1.585-.941s.81-.774,1.193-1.183a25.716,25.716,0,0,0,2.244-2.77,2.578,2.578,0,0,0,.037-2.508c-.308-.571-1.063-1.055-1.629-.452-.55.586-1.035,1.232-1.537,1.859a2.45,2.45,0,0,0-.2,2.018,1.393,1.393,0,0,0,1.132,1.1c.91.142,1.458-.975,1.571-1.694a2.663,2.663,0,0,0-.154-1.388,1.434,1.434,0,0,0-.729-.813c-.863-.263-1.267.62-1.427,1.3l-.018.076.286-.806a.686.686,0,0,1,.7-.3l.371,3.359c.459-.476.928-.94,1.347-1.451L62.2,44.4a25.952,25.952,0,0,1-1.7,2.433c.2-.259-.046.055-.071.084-.076.092-.153.183-.231.274q-.234.272-.475.537c-.16.176-.324.35-.49.522l-.166.17c-.105.09-.116.109-.033.056s.067-.04-.04.007q.534.075.253-.053l.36,3.26c.157-.17.3-.33.448-.516L60.185,51c-.125.152-.136.166-.031.04.168-.2.34-.384.523-.565s.375-.352.574-.514q.171-.14.349-.269c.059-.044.119-.086.18-.128q-.21.144-.017.014l-1.044-3.44c-.739.626-1.524,1.192-2.267,1.813-.362.3-.726.6-1.089.9a4.956,4.956,0,0,1-.6.434.317.317,0,0,1-.221.057c-.249-.058-.358.161-.408.37Z"/><path class="b" d="M65.377,19.732l-1.755.786.872,2.873a18.911,18.911,0,0,1,3.214-2.081l-.923-3.043a15.29,15.29,0,0,1-1.344,1.147c-.884.67-.37,3.667.888,2.928,1.032-.606,2.063-1.212,3.062-1.872s.941-3.594-.628-3.043l-2.3.807c-.245.085-2.027.769-1.992.8l.571,1.411-.1.451c.479-.872.349-3.164-1.135-2.763l-.592.083.834,2.791-.148.132c1.4-.234,1.4-3.232-.08-3.254-1.759-.026-2.972,1.147-3.885,2.569a4.952,4.952,0,0,0-.817,2.732,3.771,3.771,0,0,0,.4,1.6c.231.455.651.739.894,1.174l-.333-1.671a11.547,11.547,0,0,1-.422,1.752l2.154.827a6.53,6.53,0,0,0-.356-2.275c-.369-1.215-1.542-.877-1.955.048a3.247,3.247,0,0,0,.338,3.2c.613.852,1.4.4,1.743-.387.232-.519.476-1.033.712-1.55l-1.963-1.663-.3,1.028c-.247.851.221,3.421,1.586,2.292a40.444,40.444,0,0,1,6.972-4.626l-.973-3.207a20.511,20.511,0,0,0-5.667,5.886,2.541,2.541,0,0,0-.13,2.175c.191.44.79,1.156,1.348.791L66.956,26.1l-.994-3.277-2.72,2.522a15.18,15.18,0,0,0-2.332,2.269,2.416,2.416,0,0,0,.314,2.868,1.055,1.055,0,0,0,.655.277c.294.034.284.152-.016-.125l-.493-2.5c.053-.209-.281.521-.336.63-.181.36-.356.726-.515,1.1a7.463,7.463,0,0,0-.634,2.152c-.1,1.027.509,2.985,1.833,2.043.769-.548,1-1.352,1.52-2.084a27.276,27.276,0,0,1,2.612-2.757l-1.537-2.857a24.106,24.106,0,0,0-2.263,6.665c-.132.725.351,2.854,1.538,2.223a6.468,6.468,0,0,0,2.107-2.318c.683-.974,1.405-1.921,2.176-2.827a47.49,47.49,0,0,1,5.016-5l-1.424-3.453a35.667,35.667,0,0,1-5.826,5.22l1.84,2.658a24.132,24.132,0,0,1,3.844-6.576L69.066,21.6c-.06,1.409-.43,3.182.165,4.511A1.927,1.927,0,0,0,70.5,27.257c.81.2,1.271-.319,2.018-.451l-1.251-2.354c-.247,1.077-1.458,1.858-2.326,2.388a2.009,2.009,0,0,0-.81,2.023c.063.536.456,1.7,1.216,1.554a9.325,9.325,0,0,0,6.688-4.9l-1.965-2.839-.346.7c-.436.881-.661,3.061.678,3.415a4.92,4.92,0,0,0,4.28-1.275,7.974,7.974,0,0,0,1.489-1.575,7.232,7.232,0,0,0,.556-.879c.124-.232.773-1.159.25-.673a2.855,2.855,0,0,0,.2-3.415c-.959-1.335-2.452-.924-3.78-.478a11.7,11.7,0,0,0-4.175,2.394c-.968.873-.609,4.65,1.131,3.727a18.992,18.992,0,0,0,3.76-2.612c.985-.882.848-3.646-.762-3.75-1.425-.092-2.63.818-3.766,1.569q-.782.516-1.542,1.064c-.273.2-1.439,1.118-1.46,1.105l.819.914c.184.436.017.764.117.121.052-.334.059-.678.1-1.013A15.28,15.28,0,0,1,72,20.107a2.7,2.7,0,0,0-.548-2.77c-1.385-1.153-3.179.3-4.236,1.278a15.561,15.561,0,0,0-1.8,2.076,7.016,7.016,0,0,1-1.493,1.881l1.522.892a4.91,4.91,0,0,1-.572-2.306c0-1.252-1.268-2.813-2.289-1.368a5.229,5.229,0,0,0-.768,2.98l2.21-1.472q-.5,2.022.458,1.218.363-.184.717-.387a13.814,13.814,0,0,0,1.347-.9,4.15,4.15,0,0,0,1.8-2.588,3.172,3.172,0,0,0-1.008-3.008,2.6,2.6,0,0,0-2.677-.034l1.562,2.914c.351-1.342,1.577-2.307,2.03-3.656.314-.936.586-1.891.89-2.831.264-.817.962-.791,1.787-.853.74-.056,3.323-.263,3.444.818.059.527-.789,1.476-1.081,1.864a6.944,6.944,0,0,1-2.009,1.93l1.573,2.935c.609-1.558,1.242-3.106,1.87-4.656.486-1.2.931-3.1-.362-4.021-.885-.629-2.466.13-3.279.632a7.1,7.1,0,0,0-2.613,2.821c-.54,1.057-.447,3.829,1.371,3.339a3.141,3.141,0,0,0,1.992-4.079c-.544-1.85-2.381-2.058-3.854-1.1l1.368,3.331c.125-.2,1.121-1.368,1.463-1l-.635-1.185c-.1-.383-.081-.014-.214.236a3.137,3.137,0,0,1-.661.791l1.988,2.216a2.662,2.662,0,0,1,.335-1.245,2.736,2.736,0,0,0-.069-2.822,1.051,1.051,0,0,0-1.853.045c-.567.955-1.71,1.433-2.408,2.3a3.674,3.674,0,0,0-.444,4.191c1.6,2.425,4.807-.185,5.3-2.13.186-.737.2-3.124-1.176-2.9a4.982,4.982,0,0,0-3.949,3.236,2.528,2.528,0,0,0,.518,2.627,2.562,2.562,0,0,0,2.338.6c1.036-.166,1.427-.193,1.684.867l.8-2.3-.9.267c-1.237.368-1.107,3.211.087,3.555a4.166,4.166,0,0,0,3.873-.775c.94-.723.651-2.5-.079-3.227-.335-.335-1.086-.844-1.25-1.294L74.138,19l.107-.273-.743.916c.336-.149.96.2,1.257.337,1.581.718,1.659-2.166,1.4-2.955a5.726,5.726,0,0,1,.31-1.564,10.693,10.693,0,0,0,.2-2.142c-.006-.736-.364-1.819-1.2-1.957s-1.321.783-1.42,1.483c-.137.961-1.039,1.77-1.605,2.516-.672.887-1.281,1.819-1.866,2.764-1.135,1.834-2.174,3.73-3.419,5.494-1.192,1.69-3.17,3.27-2.735,5.586.519,2.765,3.238,1.429,4.966.652L67.937,27.13a2.956,2.956,0,0,0-.156,1.717c.071.418.395,1.2.891,1.288a1.437,1.437,0,0,0,.83-.037L68.47,26.7l.082-.055a2.184,2.184,0,0,0-.8,2.323c.146.677.711,1.621,1.543,1.27.423-.179.989-.073,1.561-.314l-1.263-3.077a2.077,2.077,0,0,1-.539.44c-1,.686-.672,2.9.373,3.374a3.478,3.478,0,0,0,.773.3L70.112,27.4l-.256-.107c-1.569-.738-1.94,2.881-.554,3.557a1.742,1.742,0,0,0,1.221.164c1.4-.315,1.68-3.144.233-3.63a3.47,3.47,0,0,1-.772-.312l.088,3.569a5.346,5.346,0,0,0,1.31-1.213c.668-.84.254-3.69-1.263-3.077-.424.171-.994.058-1.567.289l.742,3.593q.251-.163.5-.333c1.089-.753.6-3.967-1.032-3.4a.725.725,0,0,1-.11.032l.654-.016-.065-.013.892,1.288-.013-.082-.089,1.448.083-.186c.381-.857-.076-3.321-1.459-2.723-.465.2-2.141,1.088-2.659.871l.905,1.308q-.156.858.114.4a3.354,3.354,0,0,1,.356-.425c.263-.313.528-.622.784-.942q.649-.808,1.239-1.66c.906-1.313,1.713-2.69,2.548-4.048A39.766,39.766,0,0,1,74.5,17.977a8.646,8.646,0,0,0,2.142-4.124l-2.619-.473c0,.892-.351,1.763-.437,2.651a6.874,6.874,0,0,0,.373,3.051l1.4-2.955c-1.374-.568-2.937-.725-3.475.959-.658,2.06.941,3.3,2.3,4.5l-.08-3.226a1.953,1.953,0,0,1-2,.4l.088,3.555.9-.246c.821-.223.935-1.679.794-2.3a5.41,5.41,0,0,0-1.649-3.234,2.564,2.564,0,0,0-1.643-.508c-.555.007-1.407.409-1.858-.04l.519,2.627a2.322,2.322,0,0,1,1.811-1.234l-1.176-2.9c-.131.5-1.044,1.46-1.551.909l.624,1.163-.057-.352-.093,1.522c.181-.595.883-.96,1.35-1.321a5.763,5.763,0,0,0,1.459-1.59L69.7,12.026a7.009,7.009,0,0,0-.977,3.019c-.069.925.636,3.477,1.989,2.216,1.534-1.431,2.965-4.474,1.618-6.464-1.387-2.047-4.012-.067-4.922,1.391a2.807,2.807,0,0,0-.146,2.443c.215.495.886,1.3,1.514.888.206-.133.989-.326,1.112-.436l-.244-2.328a2.386,2.386,0,0,1-.6.205L70.412,16.3a4.515,4.515,0,0,1,3.374-2.492l-.674-.259.142.145-.7-1.721q.255-1.043-.073-.1l-.179.443-.624,1.551c-.386.959-.774,1.916-1.172,2.87-.35.84.106,3.724,1.573,2.935a10.16,10.16,0,0,0,4.9-6.581c.476-2.8-.872-5.477-3.786-5.957a9.6,9.6,0,0,0-3.778.14A3.483,3.483,0,0,0,66.8,9.835a17.926,17.926,0,0,1-1.269,3.757,11.246,11.246,0,0,0-1.761,3.429c-.219.888.394,2.993,1.683,2.431a1.925,1.925,0,0,1,.754-.238l-.431-1.931c-.124-.028-.834.683-1.018.806a14.979,14.979,0,0,0-2.185,1.374,3.723,3.723,0,0,0-.346,4.714c1.111,1.5,2.163-.336,2.211-1.472-.031-.12-.006-.158.074-.115l-2.289-1.367A9.6,9.6,0,0,0,63.2,25.56c.236.479.867,1.3,1.521.893a11.513,11.513,0,0,0,2.762-3.1c.639-.812,2.033-2.573,3.2-2.374l-.68-.261.193.162-.547-2.77c-.461,1.722-2.079,7.379.717,7.971,1.124.238,2.308-1.137,3.118-1.725,1.063-.772,2.6-2.144,3.978-2.057l-.762-3.75a13.57,13.57,0,0,1-3.149,2.129l1.13,3.726a8.482,8.482,0,0,1,2.52-1.467,14.079,14.079,0,0,1,1.417-.456,3.7,3.7,0,0,1,.6-.14q.53.1.034-.246l.2-3.416c-.731.679-.873,1.773-1.522,2.536-.588.692-1.911,1.833-2.9,1.6l.879,3,.334-.716a2.646,2.646,0,0,0-.41-2.623,1.039,1.039,0,0,0-1.755.2,7.5,7.5,0,0,1-5.129,4.163l1,3.313a8.245,8.245,0,0,0,3.616-4.306c.234-.788.177-2.916-1.137-2.807-.213.018-1.366.421-1.471.31l.629,1.174a11.939,11.939,0,0,1,.088-2.984c.045-1.324-1.22-2.659-2.255-1.347a29.919,29.919,0,0,0-4.224,7.4c-.46,1.142.266,3.731,1.84,2.658A32,32,0,0,0,72.887,25.1a2.674,2.674,0,0,0,.407-2.773c-.324-.751-1.1-1.315-1.831-.68a41.173,41.173,0,0,0-4.687,4.826c-.71.859-1.4,1.737-2.045,2.643-.5.706-1.1,2.2-1.871,2.607L64.4,33.947a18.13,18.13,0,0,1,1.689-5.022,2.578,2.578,0,0,0,.035-2.421c-.309-.551-1.013-1.016-1.572-.437-.883.916-1.817,1.8-2.652,2.764-.555.639-.8,1.572-1.484,2.068l1.833,2.043c.118-1.242,1.06-2.258,1.356-3.445a2.276,2.276,0,0,0-.6-2.056c-.364-.332-.761-.283-1.211-.341l.613.235-.043-.041.314,2.868a15.556,15.556,0,0,1,2.19-2.021q1.185-1.114,2.372-2.228a2.3,2.3,0,0,0,.429-2.266c-.153-.489-.761-1.449-1.424-1.011l-3.783,2.5L63.675,28.1a18.737,18.737,0,0,1,5.187-5.356c.931-.733.474-3.979-.973-3.207a41.859,41.859,0,0,0-7.472,5.105L62,26.938l.288-1.036a2.231,2.231,0,0,0-.456-2.308c-.663-.521-1.235.028-1.507.645-.177.4-.353.8-.551,1.2l1.577-.039-.027,1.285-1.91-.714a2.669,2.669,0,0,1,.1.953c-.05,1.295,1.7,2.583,2.153.827.429-1.645,1.277-3.759-.365-5.028.026.4.089.481.187.232q.128-.226.265-.447a6.94,6.94,0,0,1,.633-.825A1.443,1.443,0,0,1,63.9,21.14l-.08-3.254a1.571,1.571,0,0,0-1.146.569c-.585.718-.837,3.083.621,3.054a2.316,2.316,0,0,0,.883-.1l-.845-2.83c-.54.978-.907,3.356.686,3.661.738.141,1.725-.457,2.386-.7.992-.365,1.991-.712,2.986-1.067l-.628-3.043a28.771,28.771,0,0,1-3.073,1.818l.639,3.1a16.979,16.979,0,0,0,1.638-1.208c.837-.707.528-3.717-.923-3.042a12.406,12.406,0,0,0-3.666,2.592A2.036,2.036,0,0,0,63,22.671c.139.442.659,1.253,1.249.886l1.7-1.057c.952-.592.759-3.364-.571-2.768Z"/><path class="c" d="M70.162,31.587l.034.095a.758.758,0,0,0,.627.522,4.65,4.65,0,0,0,.884.112,3.58,3.58,0,0,0,1.051-.2,10.04,10.04,0,0,0,1.676-.812,6.89,6.89,0,0,0,1.521-1.186,4.562,4.562,0,0,0,.638-.845,3.553,3.553,0,0,0,.439-1.691,1.625,1.625,0,0,0-.649-1.377.779.779,0,0,0-1.084.342c-.03.052-.064.1-.094.152a.647.647,0,0,0-.1.194q-.162.338.008-.016c-.069.1-.13.213-.2.316-.082.131.19-.2.026-.033-.05.05-.1.1-.147.153-.091.09-.188.175-.287.256a1.778,1.778,0,0,1-.344.258c.127-.055.142-.1,0-.007l-.2.127c-.262.161-.517.332-.782.487s-.537.3-.813.435a3.725,3.725,0,0,0-.477.249c-.152.1-.167.113-.044.029l-.086.056c-.072.044-.142.091-.215.135a9.869,9.869,0,0,0-.9.67,1.193,1.193,0,0,0-.481.576,1.557,1.557,0,0,0-.007,1Z"/><path class="c" d="M75.042,27.7a1.648,1.648,0,0,0,.757,1.389,1.9,1.9,0,0,0,1.008.254,7.6,7.6,0,0,0,1.893-.316,6.407,6.407,0,0,0,2.906-1.857,8.2,8.2,0,0,0,1.813-3.141,6.332,6.332,0,0,0-.193-4.531c-.25-.49-.827-1.024-1.349-.5a1.966,1.966,0,0,0-.3,2.044q.141-2.414-.127-1.144l-.025.4a2.106,2.106,0,0,0,.152.747c.05.139.061.16.033.062-.057-.147.041.207.052.254.017.115.014.084-.011-.091.005.063.007.127.007.191,0,.119,0,.085.009-.1-.008.084-.02.167-.034.25s-.067.469-.006.09c-.032.2-.119.438-.164.624.061-.251.04-.152-.019.037-.07.221-.155.436-.245.65-.15.354.154-.271-.034.065-.057.1-.111.2-.171.3-.119.2-.253.386-.388.574-.185.259.131-.128-.069.082-.093.1-.181.2-.277.3a6.308,6.308,0,0,1-.516.463c-.091.073-.185.144-.281.212q-.108.077.012-.009-.1.066-.213.129a8.244,8.244,0,0,1-1.362.648,5.23,5.23,0,0,1-1.3.286,2.483,2.483,0,0,0-.87.269,1.515,1.515,0,0,0-.689,1.378Z"/><path class="b" d="M61.152,31.9a1.7,1.7,0,0,0-.068.571l.015-.241a.686.686,0,0,0-.032.251,1.412,1.412,0,0,0,.026.489l0,.024.009.065a1.218,1.218,0,0,0,.1.325l.145.269a.737.737,0,0,0,.1.115.5.5,0,0,0,.1.108l.059.046c.036.027.074.052.112.076.111.07.222.141.339.2a.471.471,0,0,0,.366.016.527.527,0,0,0,.337-.175.946.946,0,0,0,.248-.365,1.276,1.276,0,0,0,.153-.479l.023-.372a1.963,1.963,0,0,0-.142-.7l-.15-.279a.931.931,0,0,0-.414-.349,1.536,1.536,0,0,1-.238-.077l-.052-.023a.388.388,0,0,0-.141-.032c-.043-.01-.086-.017-.13-.023l-.233.054-.208.141-.009.007-.014.013c-.057.049-.106.1-.165.15l.1-.065a.415.415,0,0,0-.231.26Z"/><path class="b" d="M61.689,19.872a1.771,1.771,0,0,1,.5-.193l-.241.056a5.848,5.848,0,0,1,.645-.089,6.193,6.193,0,0,0,.883-.159,7.076,7.076,0,0,0,.685-.2c.121-.042.24-.087.357-.136a1.45,1.45,0,0,0,.776-.915,2.206,2.206,0,0,0,.018-1.393,1.368,1.368,0,0,0-.225-.5,1.043,1.043,0,0,0-.463-.391.8.8,0,0,0-.661-.02,2.049,2.049,0,0,0-.194.118q-.2.114-.4.216c-.277.14-.565.249-.85.37a4.543,4.543,0,0,0-1.557.859,1.686,1.686,0,0,0-.312,1.644,1.211,1.211,0,0,0,.367.617.619.619,0,0,0,.666.116Z"/><path class="b" d="M58.182,27.173a3.033,3.033,0,0,0,.355.925,3.894,3.894,0,0,0,.331.435,4.74,4.74,0,0,0,1.24.94,4.375,4.375,0,0,0,.964.386c.17.052.34.1.511.146a2.048,2.048,0,0,0,.789.149l.3-.069a.854.854,0,0,0,.376-.316,1.828,1.828,0,0,0,.381-.9,3.031,3.031,0,0,0-.022-.912,1.74,1.74,0,0,0-.543-1.012,1.29,1.29,0,0,0-.457-.234l-.245-.047c-.164-.031-.327-.065-.49-.1-.332-.074-.655-.182-.988-.25a8.782,8.782,0,0,1-.9-.27c-.139-.044-.283-.067-.422-.114a1.555,1.555,0,0,0-.561-.058c-.578.01-.713.895-.613,1.3Z"/><path class="b" d="M61.58,23.327l.218.24.108.12c.02.022.038.043.058.064a.958.958,0,0,0,.19.121l.035.021.24.145a.159.159,0,0,0,.029.015,1.13,1.13,0,0,0,.193.034l.06,0,.12,0a.431.431,0,0,0,.284-.125.8.8,0,0,0,.2-.315,1.244,1.244,0,0,0-.022-.873l-.062-.152-.033-.08a.368.368,0,0,0-.015-.035,1.358,1.358,0,0,0-.123-.221l-.21-.254-.024-.029a1.362,1.362,0,0,0-.165-.182c-.02-.016-.043-.03-.064-.045l-.122-.084-.251-.172a.391.391,0,0,0-.255-.116.346.346,0,0,0-.27.025.512.512,0,0,0-.226.19.73.73,0,0,0-.167.294,1.481,1.481,0,0,0-.049.8l.075.245a.941.941,0,0,0,.252.364Z"/><path class="b" d="M77.7,16.309a1.168,1.168,0,0,0-1.328.073,3.149,3.149,0,0,0-.763.989,2.544,2.544,0,0,0-.128,2.139c.256.556.687.96,1.325.777a3.065,3.065,0,0,0,1.859-2.119A6.165,6.165,0,0,0,78.9,16.2a7.451,7.451,0,0,0-.192-1.647c-.191-.712-.638-1.553-1.485-1.566a1.718,1.718,0,0,0-1.483,1.205,5.172,5.172,0,0,0-.349,1.653A6.828,6.828,0,0,0,75.508,18c.13.542.427,1.181,1.033,1.29.578.1,1-.409,1.179-.906a8.508,8.508,0,0,0-.16-4.993c-.042-.177-.083-.354-.118-.533-.019-.1-.037-.2-.053-.307.019.209.022.245.011.107,0-.093-.03-.662-.034-.2a2.718,2.718,0,0,1,.072-.473c.192-1.049.147-2.587-.97-3.107a.889.889,0,0,0-.9.2,1.956,1.956,0,0,0-.534,1.649,2.63,2.63,0,0,0,.189.931l-.125-.622c-.028-.548-.007-.094-.037.078a7.578,7.578,0,0,0,.04,2.623c.114.647.315,1.274.45,1.916.034.162.056.326.088.489q.03.209-.014-.138c.008.093.013.186.016.28,0,.069,0,.139,0,.208,0,.141,0,.093.007-.145-.012.092-.027.182-.046.272q.083-.327-.007-.042l2.213.385a2.068,2.068,0,0,1-.051-.217c-.025-.136-.023-.1,0,.119-.037-.061-.009-.226-.012-.3-.019-.474-.06.361,0-.112.016-.124.03-.248.049-.372.035-.219.06-.213-.011-.005a.521.521,0,0,1-.372.44q-.3.224-.494-.228a.693.693,0,0,1-.421-.533l.014.1c0,.115.126.492.014.106a1.594,1.594,0,0,1,.024.365c.007.2.03.28.02.034,0,.048-.052.46-.014.2s0,.1-.05.126c.089-.174.105-.21.05-.109a1.513,1.513,0,0,1-.09.144c.084-.152.1-.1-.024.015-.075.07-.223.114-.036.043-.1.04-.2.09-.307.123l1.369,2.555c.043-.168.095-.328.15-.492.093-.281-.095.157.067-.128a5.28,5.28,0,0,0,.383-1.248c.123-.428.09-1.064-.377-1.284Z"/><path class="b" d="M75.269,8.542a2.184,2.184,0,0,0-.212-1.289,2.282,2.282,0,0,0-.658-.874,2.648,2.648,0,0,0-.749-.4A7.2,7.2,0,0,0,72.8,5.8a2.465,2.465,0,0,0-1.375.187,3.114,3.114,0,0,0-.684.43,2.377,2.377,0,0,0-.781,1.912,2.412,2.412,0,0,0,.3,1.14,1.3,1.3,0,0,0,.662.662l.025.008a.945.945,0,0,0,.978-.22A1.738,1.738,0,0,1,72.28,9.6l-.3.2a2.094,2.094,0,0,1,.616-.261l-.333.076c.235-.053.469-.1.7-.162l-.327.076a5.8,5.8,0,0,1,.911-.109,4.161,4.161,0,0,1,.773-.015l-.247-.044a1.24,1.24,0,0,1,.159.042.667.667,0,0,0,.495,0c.326-.1.5-.57.538-.865Z"/><path class="b" d="M81.711,21.508l.008-.2-.126.513A2.745,2.745,0,0,0,82,21.209a1.239,1.239,0,0,0,.152-.488q-.308.936-.739.653-.056-.033-.108-.069l-.3-.721q.328-1.245.028-.776c-.051.075-.1.147-.163.217-.09.117-.185.232-.277.347-.151.188-.287.355-.446.546-.4.476-.8.943-1.236,1.388a11.7,11.7,0,0,1-2.724,2.222c-.985.532-2.053.878-3.064,1.352a7.917,7.917,0,0,0-3.011,2.365c-.676.883-.425,2.795.65,3.27a2.187,2.187,0,0,0,1.681.119c1.235-.454,1.178-3.277-.09-3.659a7.068,7.068,0,0,1-1-.266l.65,3.27c-.141.178.234-.231.277-.271a4.946,4.946,0,0,1,.484-.4c-.091.057-.062.039.086-.055.09-.056.181-.109.273-.161.185-.105.375-.2.567-.3.737-.36,1.5-.659,2.249-1a11.762,11.762,0,0,0,4.3-3.266c.626-.763,1.207-1.557,1.763-2.373.7-1.035,1.381-2.075,1.1-3.4-.208-.99-1.31-2.151-2.3-1.257a2.376,2.376,0,0,0-.541,2.114,2.281,2.281,0,0,0,.649,1.217l-.151-.506.021.194c.029.262.131.7.476.687s.431-.452.441-.709Z"/><path class="b" d="M80.783,21.13c1.045,0,1-2.368-.058-2.368s-1,2.368.058,2.368Z"/><path class="b" d="M81.14,20.917l.1-.06.193-.13a.865.865,0,0,0,.222-.327.746.746,0,0,0,.1-.278,1.334,1.334,0,0,0,.059-.483l-.037-.331-.09-.3a.883.883,0,0,0-.22-.345.617.617,0,0,0-.284-.216l-.025-.01.635,1.2a.451.451,0,0,0,0-.052,2.043,2.043,0,0,0-.147-.725l-.009-.023.1.344,0-.011.043.386v-.017l-.025.391,0-.014-.089.353.006-.014-.145.3a.711.711,0,0,1,.073-.1l.077-.1a1.438,1.438,0,0,0,.2-.521,1.75,1.75,0,0,0,.075-.62l-.048-.425a1.466,1.466,0,0,0-.2-.54.738.738,0,0,0-.195-.282.783.783,0,0,0-.365-.278l-.281-.051a.793.793,0,0,0-.525.232,1,1,0,0,0-.109.133q-.056.066-.108.135a1.9,1.9,0,0,0-.254.716,2.409,2.409,0,0,0,.021.855l.116.381a1.477,1.477,0,0,0,.392.568.612.612,0,0,0,.4.181.534.534,0,0,0,.42-.039,1.069,1.069,0,0,0,.456-.425,1.926,1.926,0,0,0,.254-.716l0-.018-2.076-.375c0,.088-.012.176-.011.264a2.185,2.185,0,0,0,.156.779,1.432,1.432,0,0,0,.371.54,1.292,1.292,0,0,0,.254.156.483.483,0,0,0,.378.016.211.211,0,0,0,.129-.031.955.955,0,0,0,.407-.379q.087-.167.159-.339l-.7.638.019,0-.631-2.116-.078.115-.119.249a1.285,1.285,0,0,0-.083.454.9.9,0,0,0,.008.323,1.275,1.275,0,0,0,.105.449l.131.243.166.185a.459.459,0,0,0,.3.137.4.4,0,0,0,.317-.029Z"/><path class="c" d="M80.9,27.757a5.165,5.165,0,0,1-.382.492,1.667,1.667,0,0,0,.054,2.207c.758.831,1.773-.54,2.263-1.05a5.767,5.767,0,0,0,.86-1.013,2.812,2.812,0,0,0,.355-.987,2.871,2.871,0,0,0,.028-.6l-.046-.414q-.061-.421.012.523l-.25.705.045-.055-.45.42c-.157.017-.19.027-.1.027s.057,0-.074-.009c-.216-.1-.065-.031.013.036a1.011,1.011,0,0,0,.8.312l-.623-3.064c-.455.5-.9,1-1.37,1.481a4.482,4.482,0,0,1-.332.315c-.064.055-.132.1-.2.155-.114.093.2-.1-.009,0a4.568,4.568,0,0,1-.887.349l.305-.07a3.438,3.438,0,0,1-1.337.029l.307.055a3.232,3.232,0,0,0-1.168-.109,2.484,2.484,0,0,0-1.258.537A2.127,2.127,0,0,0,77,29.961c.124.515.468,1.25,1.107,1.221a4.994,4.994,0,0,0,.957-.257l-.3.07a1.873,1.873,0,0,1,.7.01l-.307-.055a4.586,4.586,0,0,0,1.661.11,4.073,4.073,0,0,0,1.544-.55,9.815,9.815,0,0,0,2.427-2.662,2.24,2.24,0,0,0,.12-2c-.232-.5-.653-.928-1.243-.729.39-.132.78.209.454-.016a1.348,1.348,0,0,0-.454-.228,1.231,1.231,0,0,0-.87.046,1.624,1.624,0,0,0-.782,1.28,2.874,2.874,0,0,0,.029.916c.064.313-.068.225.021-.388a.567.567,0,0,1,.07-.252q.072-.144-.021.021c-.057.083-.112.166-.171.248-.136.185-.277.368-.417.55s-.282.363-.425.543l-.144.179c.044-.054.042-.052-.005.006a1.122,1.122,0,0,1-.1.11.29.29,0,0,1,.313-.025l.548,1.865c.1-.307.236-.6.367-.9a1.442,1.442,0,0,0-.223-1.425.571.571,0,0,0-.953.111Z"/><path class="c" d="M72.717,32.042a1.326,1.326,0,0,0,.845.022c.3-.045.6-.109.895-.181a10.089,10.089,0,0,0,1.6-.493A14.517,14.517,0,0,0,79.191,29.7a1.312,1.312,0,0,0,.25-1.315c-.1-.316-.425-.8-.826-.586-.5.266-.964.589-1.453.873q-.762.443-1.556.826c-.519.251-1.018.539-1.534.8a4.122,4.122,0,0,0-1.515.941.591.591,0,0,0,.16.806Z"/><path class="b" d="M70.919,31.009a2.868,2.868,0,0,0,1.784.1,8.753,8.753,0,0,0,1.832-.529,6.182,6.182,0,0,0,1.643-1.036,4.038,4.038,0,0,1,1.4-1.037,6.233,6.233,0,0,0,1.839-.9,6.607,6.607,0,0,0,1.34-1.523A5.992,5.992,0,0,0,81.991,21.3c-.156-.579-.612-1.432-1.352-1.113s-.8,1.374-.7,2.035a1.5,1.5,0,0,1,.021-.3,1.532,1.532,0,0,1-.106.325,3.227,3.227,0,0,1-.329.668c-.275.487-.537.991-.86,1.449a2.487,2.487,0,0,1-.949.8,8.844,8.844,0,0,0-1.653.829,11.433,11.433,0,0,0-1.117,1.138,7.419,7.419,0,0,1-1.224,1,12.256,12.256,0,0,0-2.911,1.888c-.223.26-.254.831.11,1Z"/><path class="b" d="M76.988,27.722a2.161,2.161,0,0,0,.722.652,1.772,1.772,0,0,0,.934.2,3.166,3.166,0,0,0,1.808-.766,1.847,1.847,0,0,0,.349-1.838c-.13-.427-.6-1.137-1.155-.819a10.016,10.016,0,0,1-2.53,1.129l.279-.065c-.061.015-.121.028-.183.04a1.011,1.011,0,0,0-.735.489,2.083,2.083,0,0,0-.281,1.146,2.041,2.041,0,0,0,.337,1.13c.172.222.445.5.758.452.707-.1,1.415-.179,2.121-.278a3.057,3.057,0,0,0,1.937-.884,3.216,3.216,0,0,0,.569-3.382,1.634,1.634,0,0,0-1.333-1.075,1.348,1.348,0,0,0-1.21.722,2.162,2.162,0,0,0,.577,2.9c.216.123.432.247.65.367l-.266-.162c.095.067.185.143.281.208a1.83,1.83,0,0,1-.061-2.349c-.031.031-.062.06-.094.089a2.638,2.638,0,0,0-.619.916c-.37.849-.06,2.427,1.027,2.535a1.852,1.852,0,0,0,1.712-1.364,3.548,3.548,0,0,0-.376-3.038c-.061-.1-.132-.186-.2-.277-.034-.046-.067-.093-.1-.137-.127-.158.031.082.057.132-.121-.23.056.232.065.31.051.419.036-.22.007.2-.024.337.015-.107.024-.193.046-.421.071-.843.1-1.266a7.974,7.974,0,0,0,.036-.952,2.347,2.347,0,0,0-.26-1.006,1.144,1.144,0,0,0-.584-.584,1.021,1.021,0,0,0-1.219.8,11.433,11.433,0,0,0-.3,1.753,7.381,7.381,0,0,0-.032,2.008,3.491,3.491,0,0,0,.76,1.577c.035.045.068.09.1.137q-.162-.327-.088-.167a1.028,1.028,0,0,1,.047.115,1.356,1.356,0,0,1-.114-.548,1.451,1.451,0,0,1,.2-.762c-.078.119-.052.089.08-.092a.736.736,0,0,1-.119.1l.264-.179a.975.975,0,0,1-.206.092l.3-.068a.838.838,0,0,1-.223.015l1.027,2.535-.112.236-.139.17c0-.027.094-.1.116-.119a2.352,2.352,0,0,0,.648-2.371,2.068,2.068,0,0,0-.835-1.28c-.259-.173-.5-.385-.737-.582l.3,2.732-.146.2-.271.184a.4.4,0,0,1,.1-.047l-.306.07a.586.586,0,0,1,.177-.013l-.311-.055a.632.632,0,0,1,.175.058l-.284-.173c.146.1-.086-.122-.1-.142q.153.209-.076-.237a.836.836,0,0,1-.135-.452.9.9,0,0,1,0-.319c.017-.169.019-.21.006-.121-.025.155.145-.413.03-.15.02-.047.171-.3.055-.138.035-.047.2-.2.067-.082a2.9,2.9,0,0,1-.307.257l.256-.174a2.986,2.986,0,0,1-.93.369l.28-.064a19.559,19.559,0,0,1-2.12.286l.359,3.153a7.665,7.665,0,0,0,2.881-1.6L79.42,25.3a4.875,4.875,0,0,1-.549.526c-.109.093-.216.184-.332.267.079-.056.044-.029-.018.006s-.123.072-.186.106c-.232.122-.484.308-.668.418a6.187,6.187,0,0,0-.644.526.473.473,0,0,0-.035.573Z"/><path class="b" d="M81.677,25.621a1.082,1.082,0,0,0,.127-.02l-.189-.034.052.021a.621.621,0,0,0,.636-.144,1.947,1.947,0,0,0,.4-.561,3.445,3.445,0,0,0,.385-1.071,10.67,10.67,0,0,0,.075-1.517,1.781,1.781,0,0,0-.7-1.492.715.715,0,0,0-.565-.1,1.046,1.046,0,0,0-.611.469,2.128,2.128,0,0,0-.324,1.26,2.293,2.293,0,0,0,.369,1.249,1.157,1.157,0,0,0,1.028.584,1.5,1.5,0,0,0,1.134-1.037,3.9,3.9,0,0,0,.2-1.3l-.028.434c0-.035.006-.069.011-.1l-1.547,1.011a.266.266,0,0,1,.06.046l-.223-.25a.29.29,0,0,1,.044.06l-.175-.325a.336.336,0,0,1,.03.07l-.117-.385a.464.464,0,0,1,.014.076l-.049-.431a.407.407,0,0,1,0,.078l.028-.433a.468.468,0,0,1-.016.083l.1-.39a.818.818,0,0,1-.032.087l.158-.333a1.791,1.791,0,0,1-.145.241,1.867,1.867,0,0,0-.257.723,2.377,2.377,0,0,0,.08,1.057,1.662,1.662,0,0,0,.344.641.845.845,0,0,0,.655.333,1.693,1.693,0,0,0,1.427-1.525A2.094,2.094,0,0,0,83.631,21a.858.858,0,0,0-.509-.306.361.361,0,0,0-.283.007.61.61,0,0,0-.39.2,1.879,1.879,0,0,0-.406.656l.158-.332a.584.584,0,0,1-.047.064l.209-.26a.845.845,0,0,1-.088.081l.25-.17a.589.589,0,0,1-.181.08l.282-.065a.417.417,0,0,1-.079.01l.822,2.754a2.773,2.773,0,0,0,.479-1.587,2.152,2.152,0,0,0-.707-1.705.8.8,0,0,0-.545-.209.6.6,0,0,0-.408.15,1.528,1.528,0,0,0-.593,1.071c-.023.153-.022.308-.058.459l.1-.394a.649.649,0,0,1-.026.074l.16-.336a.79.79,0,0,1-.06.1l.212-.262a.563.563,0,0,1-.082.08L82.093,21a.381.381,0,0,1-.1.045l.285-.066a.205.205,0,0,1-.07,0l.289.051A.278.278,0,0,1,82.4,21l.263.16a.263.263,0,0,1-.05-.044l.226.252a.225.225,0,0,1-.037-.054l.178.33-.012-.03.119.392-.006-.03.049.439v-.03l-.028.44,0-.029-.1.4.01-.029-.162.338.017-.028L81,22.349c.025.3.048.6.046.9s.032.582.014.873l.023-.363c-.007.079-.018.157-.027.236a2.185,2.185,0,0,0,.13,1.086l-.109-.539c0,.077-.015.284.009-.044a1.347,1.347,0,0,0,.125.779c.089.165.255.364.47.341Z"/><path class="a" d="M35.056,69.685a8.085,8.085,0,0,0,2.987-.8A1.364,1.364,0,0,0,38.5,67.3a1.007,1.007,0,0,0-.421-.608.436.436,0,0,0-.3-.093.582.582,0,0,0-.383.169l-.042.028.18-.122a7.942,7.942,0,0,1-2.644,1.16l.164-.038-.049.011a.6.6,0,0,0-.43.286,1.222,1.222,0,0,0-.164.67,1.192,1.192,0,0,0,.2.661.546.546,0,0,0,.444.265Z"/><path d="M51.1,30.013c2.278-.826,5.437,1.044,7.237,2.308a22.465,22.465,0,0,1,4.34,4.658c2.354,2.934,4.254,6.769,1.393,10.034a54.114,54.114,0,0,1-6.749,5.8c-7.654,6.236-15.546,12.174-23.267,18.326-3.941,3.139-7.813,6.372-11.84,9.4A21.769,21.769,0,0,1,17.5,83.676c-.841.331-1.657.341-1.3-.748a12.287,12.287,0,0,1,1.4-2.3q1.4-2.259,2.849-4.491c3.423-5.293,7.033-10.465,10.359-15.821q2.611-4.206,4.958-8.57c1.235-2.309,2.327-4.685,3.7-6.914A129.783,129.783,0,0,1,46.948,33.66a8.346,8.346,0,0,1,4.571-3.309c3.124-.685,5.992,1.466,8.121,3.479.829.785,1.311-1.278.67-1.885-2.093-1.982-4.741-3.938-7.768-3.881a7.832,7.832,0,0,0-5.281,2.506,25.155,25.155,0,0,0-2.8,3.612q-2.13,3.084-4.18,6.224c-3.438,5.265-6.044,10.978-9.289,16.362C27.4,62.722,23.41,68.417,19.611,74.235q-1.632,2.5-3.213,5.029c-.837,1.342-2.014,2.824-1.959,4.5a2.238,2.238,0,0,0,2.24,2.339,5.046,5.046,0,0,0,2.537-1,123.009,123.009,0,0,0,11.256-8.654C39.42,69.167,48.615,62.2,57.465,54.8c2.5-2.09,5.4-4.106,7.459-6.643a8,8,0,0,0,.7-8.824,25.281,25.281,0,0,0-4.584-6.208,13.75,13.75,0,0,0-6.963-4.008,4.9,4.9,0,0,0-3.137.153c-.287.135-.206.873.154.743Z"/><path d="M59.327,32.187c.606-.116,1.074-.727,1.5-1.142.482-.473.931-.971,1.368-1.486a41.493,41.493,0,0,0,2.629-3.435,6.861,6.861,0,0,0,1.621-3.707,3.227,3.227,0,0,0-2.106-2.844c-.608-.3-.752,1.078-.341,1.362a5.54,5.54,0,0,1,1.17.919,1.176,1.176,0,0,1-.013,1.368,21.52,21.52,0,0,1-1.841,2.908c-.657.944-1.352,1.862-2.089,2.744-.379.454-.75.915-1.131,1.366a5.038,5.038,0,0,0-.991,1.387c-.053.138-.026.609.227.56Z"/><path d="M60.847,29.439A4.794,4.794,0,0,1,58.688,27.5a.823.823,0,0,1,.236-.9c.313-.276.75-.176,1.116-.332.947-.405.679-1.625.209-2.271-.64-.882-.263-1.891.106-2.815.217-.54.455-1.074.618-1.634.079-.274.146-.552.2-.832.035-.187.017-.517.151-.671.223-.257,1.062-.159,1.391-.334.452-.241.727-.7,1.157-.961a2.225,2.225,0,0,1,2.64.271,2.6,2.6,0,0,0,1.165.719c.38.088,1.034-.015,1.323.287.31.324.325.885.663,1.23.375.383.87.312,1.286.584,1.057.69-.15,2.064-.664,2.68-.543.649.028,2.347.759,1.412,1.129-1.443,2.143-3.475.869-5.179a2,2,0,0,0-.937-.7,2.931,2.931,0,0,1-.559-.139c-.207-.123-.227-.325-.307-.538a2.1,2.1,0,0,0-1.916-1.419c-.954-.18-1.448-1.125-2.411-1.377A3.058,3.058,0,0,0,63.25,15c-.374.261-.674.762-1.1.923-.455.169-.932.043-1.352.355-.827.613-.736,1.806-1.025,2.692a14.711,14.711,0,0,0-1.059,3.558,4.613,4.613,0,0,0,.149,1.6,3.374,3.374,0,0,0,.307.743c.05.087.1.174.156.256.028.041.249.372.23.261l.042-.686c.073-.229.025-.107-.194-.058a3.094,3.094,0,0,0-.539.131,1.853,1.853,0,0,0-.757.612,2.99,2.99,0,0,0-.523,2.189c.218,1.582,1.717,2.516,3.078,3.078.579.238.616-.973.189-1.213Z"/><path d="M66.4,15.05c-.154-1.137-.671-2.736.731-3.265.416-.157.508-.846.416-1.2-.152-.6.488-1.189.87-1.582a17.627,17.627,0,0,1,1.54-1.429A3.8,3.8,0,0,1,73.548,6.6a1.687,1.687,0,0,1,1.106.961,3.518,3.518,0,0,0,.92,1.716c.432.348,1.2.48,1.411,1.038.244.63-.23,1.456-.475,2.017-.221.507-.035,1.442.611,1.509a1.71,1.71,0,0,1,1.28.8c.3.494.075.84-.1,1.342a3.464,3.464,0,0,0-.179,1.852c.059.3.194.439.012.692a1,1,0,0,1-.784.333c-.889.041-.843,1.983.05,2a2.2,2.2,0,0,0,2.083-1.739,3.5,3.5,0,0,0-.044-1.625c-.091-.5.189-.882.324-1.365a3.375,3.375,0,0,0-2.688-4.319l.611,1.51c.735-1.69,1.251-4.183-.653-5.338-.355-.216-.805-.333-1.017-.709-.245-.432-.264-.946-.545-1.378a3.175,3.175,0,0,0-1.791-1.3c-1.8-.518-3.465.384-4.788,1.559-1.4,1.247-3.11,2.9-2.562,4.967l.416-1.2c-2.244.882-2.031,3.921-1.181,5.694.381.794.908-.016.834-.565Z"/><path d="M79.317,18.671a4.8,4.8,0,0,1,2.117-.158c.518.12,1.491.7,1.009,1.329-.261.339-.147,1.2.367,1.23a1.048,1.048,0,0,1,1.008,1.072,2.686,2.686,0,0,1-.9,1.483c-.363.389-.429,1.426.183,1.648a7.013,7.013,0,0,1,1.229.533c.142.086.467.267.513.428.03.107-.033.184-.1.318a19.832,19.832,0,0,1-1.639,2.686,4.022,4.022,0,0,1-1.937,1.577c-1.016.307-1.931-.241-2.9-.449a3.755,3.755,0,0,0-2.576.382,6.044,6.044,0,0,1-2.527,1.106c-.971.024-1.016-.884-1.852-1.092-.466-.116-.767-.1-1.079-.514a4.172,4.172,0,0,1-.536-1.115c-.405-1.115-1.447-.02-1.2.81.31,1.026.734,2.308,1.83,2.745.185.074.382.071.569.13.394.124.384.269.678.541a2.179,2.179,0,0,0,1.427.556c1.231.047,2.189-.748,3.194-1.326a2.31,2.31,0,0,1,1.911-.357,19.7,19.7,0,0,0,1.953.666c2.423.418,4.042-2.27,5.071-4.041.628-1.08,1.359-2.192.855-3.479a3.457,3.457,0,0,0-2.617-1.855l.3,1.5A4.6,4.6,0,0,0,84.8,21.535a2.138,2.138,0,0,0-2.026-1.914l.367,1.23a2.272,2.272,0,0,0-.312-2.807c-.986-.984-2.5-.524-3.58.025-.185.094-.19.66.068.6Z"/><path d="M79.135,23.767c-2.31-3.132-6.309-.208-8.357,1.735-1.354,1.283-2.365,2.85-3.6,4.236-1.377,1.54-2.868,2.973-4.307,4.454a1.566,1.566,0,0,0-.242,1.642c.17.395.688.837,1.084.4,1.222-1.338,2.5-2.632,3.665-4.017C68.514,30.868,69.469,29.4,70.539,28c1.574-2.062,5.643-6.9,8.352-3.835.223.252.378-.211.244-.393Z"/><path d="M59.737,33.663c.1.161.2.327.316.479a2.452,2.452,0,0,0,.446.417,6.048,6.048,0,0,0,.985.656,8.333,8.333,0,0,0,.967.428,3.614,3.614,0,0,0,1.13.277c.353.009.5-.464.519-.734.02-.313-.076-.776-.414-.9-.317-.118-.657-.165-.983-.259a8.016,8.016,0,0,1-.95-.34c-.294-.126-.591-.247-.878-.386a3.18,3.18,0,0,0-.446-.22c-.146-.042-.3-.067-.447-.108-.369-.1-.367.5-.245.692Z"/><path d="M46.53,58.05a3.081,3.081,0,0,0,.689.674,3.359,3.359,0,0,0,.448.265,1.718,1.718,0,0,0,.206.091,1.092,1.092,0,0,0,.313.038.4.4,0,0,0,.307-.2.871.871,0,0,0,.112-.389.9.9,0,0,0-.063-.427.513.513,0,0,0-.271-.3,1.869,1.869,0,0,0-.322-.079c-.074-.008-.147-.017-.22-.03l.115.021a2.373,2.373,0,0,1-.8-.3l.083.05a2.378,2.378,0,0,1-.233-.164c-.157-.126-.326-.028-.4.133a.648.648,0,0,0,.04.627Z"/><path d="M34.33,65.754a17.167,17.167,0,0,0-1.515-1.176c-.486-.38-.99-.749-1.444-1.168-.1-.092-.2-.187-.29-.285-.048-.048-.094-.1-.14-.148-.061-.066.05.065-.043-.051-.169-.211-.33-.424-.483-.648-.074-.109-.144-.221-.213-.334-.138-.225.09.176-.033-.057-.056-.107-.112-.214-.178-.315-.153-.234-.314-.594-.6-.683-.306-.1-.533.148-.631.413a2.977,2.977,0,0,0,.576,2.431,6.174,6.174,0,0,0,1.3,1.393,8.033,8.033,0,0,0,3.539,1.608c.189.021.3-.252.322-.393a.677.677,0,0,0-.173-.587Z"/><path d="M59.019,45.8c-.264-.225-.51-.489-.78-.7-.243-.191-.53-.342-.786-.517-.539-.368-1.057-.762-1.572-1.161A8.789,8.789,0,0,1,54.64,42.3c-.135-.154-.344-.389-.454-.516-.091-.106-.169-.222-.256-.33A1.306,1.306,0,0,0,53.6,41.2c-.375-.236-.6.208-.592.544a2.336,2.336,0,0,0,.316,1.134,3.4,3.4,0,0,0,.586.787,8.053,8.053,0,0,0,1.419,1.064,17.681,17.681,0,0,0,1.757.934,7.929,7.929,0,0,0,.916.4,3.134,3.134,0,0,0,.455.064c.168.028.337.052.505.076s.148-.332.062-.405Z"/><path d="M36.753,60.244a2.313,2.313,0,0,0-.551-.661c-.2-.177-.378-.37-.579-.542-.375-.321-.739-.655-1.116-.973-.175-.146-.346-.3-.511-.454-.09-.086-.179-.174-.265-.264-.039-.041-.077-.082-.115-.124.09.1-.013-.016-.03-.036a5.148,5.148,0,0,1-.42-.566c-.166-.262-.338-.6-.7-.6-.3.006-.44.354-.491.6a2.329,2.329,0,0,0,.76,1.87,9.494,9.494,0,0,0,1.177,1.144,12.033,12.033,0,0,0,1.228.857c.4.252,1.081.616,1.529.311.152-.105.149-.419.082-.563Z"/><path d="M24.821,75a3.922,3.922,0,0,1-.352-.249,2.535,2.535,0,0,0-.416-.242,2.379,2.379,0,0,1-.321-.194,3.879,3.879,0,0,1-.344-.269c-.1-.091-.205-.184-.307-.276-.055-.05-.109-.1-.161-.154-.024-.024-.047-.049-.07-.073-.091-.1.045.057,0,0-.11-.135-.216-.272-.329-.4.094.111-.03-.038-.056-.071-.047-.059-.091-.121-.134-.184a.309.309,0,0,0-.521-.034.814.814,0,0,0-.083.781,4.3,4.3,0,0,0,.224.482,2.4,2.4,0,0,0,.361.474,2.7,2.7,0,0,0,.755.6,3.33,3.33,0,0,0,.8.29,1.068,1.068,0,0,0,.507.035,3.373,3.373,0,0,0,.428-.135c.121-.046.129-.309.023-.375Z"/><path d="M46.823,45.309c-.439-.4-.845-.829-1.289-1.222-.428-.378-.838-.782-1.242-1.185-.095-.095-.189-.192-.281-.29l-.138-.148c-.056-.061-.113-.129-.025-.027-.183-.213-.363-.428-.534-.65s-.344-.437-.508-.661c-.078-.106-.15-.217-.229-.322.056.075-.389-.4-.151-.168-.052-.053-.1-.114-.147-.171-.134-.157-.317-.352-.552-.33a.652.652,0,0,0-.461.264,1.549,1.549,0,0,0-.161,1.517A7.234,7.234,0,0,0,42.3,43.673a12.639,12.639,0,0,0,1.222,1.183,8.853,8.853,0,0,0,1.5,1,5.291,5.291,0,0,0,1.546.5c.542.107.553-.784.262-1.047Z"/><path d="M47.863,53.484a4.422,4.422,0,0,0,1.1,1.366,8.513,8.513,0,0,0,1.327,1.043,13.112,13.112,0,0,0,3.023,1.447c.744.243.895-1.365.244-1.565a11.953,11.953,0,0,1-2.819-1.269c-.429-.268-.849-.56-1.261-.853q-.315-.224-.614-.466a2.012,2.012,0,0,0-.658-.431c-.382-.124-.44.5-.345.728Z"/></svg>