<svg xmlns="http://www.w3.org/2000/svg" width="100" height="100" viewBox="0 0 100 100"><defs><style>.a{fill:#2cbfae;}.b{fill:#ef5261;}.c{fill:#da364c;}</style></defs><title>chilli</title><path d="M62.842,54.155a19.511,19.511,0,0,0-9.308,2.011c-2.986,1.464-5.742,3.34-8.672,4.906a11.621,11.621,0,0,1-4.969,1.742c-2.015.065-3.924-.76-5.783-1.431-3.16-1.14-6.689-1.885-9.592.3a10.475,10.475,0,0,0-2.676,2.934,4.683,4.683,0,0,0-1.062,2.936,1.026,1.026,0,0,0,.552.8,7.525,7.525,0,0,0,2.129-.091,11.239,11.239,0,0,1,2.919.392,13.561,13.561,0,0,1,5.135,2.9,28.7,28.7,0,0,0,8.977,5.491,29.814,29.814,0,0,0,20.045-.127,13.062,13.062,0,0,0,7.476-6.644c.481-1.06-.768-2.7-1.438-1.218-1.642,3.628-5.637,5.48-9.307,6.367a30.364,30.364,0,0,1-12.552.3,24.538,24.538,0,0,1-11.3-5.294,19.9,19.9,0,0,0-5.479-3.669,12.9,12.9,0,0,0-3.062-.745,11.811,11.811,0,0,0-1.682-.085,8.477,8.477,0,0,1-1.511.179l.552.8c.118.846-.033.669.233.163.151-.287.318-.567.485-.845a7.455,7.455,0,0,1,.732-1.05,6.918,6.918,0,0,1,5.587-2.685c4.248.1,7.967,3.327,12.317,2.1,3.709-1.049,6.978-3.828,10.234-5.8,3.408-2.059,6.973-3.91,11.036-3.971.293,0,.278-.647-.016-.66Z"/><path d="M55.624,56.266a19.582,19.582,0,0,0,5.137,2.152,8.158,8.158,0,0,0,1.168.438c.069.013.37.19.413.169-.163.077-.026-1.744-.388-.372-.3,1.153.139,2.34-.3,3.442-.148.37-.051,1.247.5,1.236a16.213,16.213,0,0,1,4.1.425L65.964,62.3c-1.1,1.533-2.178,3.079-3.266,4.619a1.046,1.046,0,0,0,.283,1.421q.889.431,1.78.861.444.216.891.427.581.017.436.481c.087.381-.4,1.346-.513,1.731-.171.576-.34,1.152-.522,1.725-.114.361.006,1.448.629,1.173,3.519-1.555,5.9-5.35,6.907-8.945.117-.419.166-.884.315-1.29.322-.873,1.016-1.142,1.748-1.612.967-.621,1.923-1.263,2.9-1.863.764-.468,1.879-1.179,2.832-.9.938.272,1.165,1.724,1.734,2.431a.5.5,0,0,0,.6.225c2.7-1.1,1-5.232-.314-6.816a2.869,2.869,0,0,0-3.264-1.005,20.426,20.426,0,0,0-4.719,2.243c-.732.454-1.52,1.3-2.416.988A14.833,14.833,0,0,1,69.7,56.838a46.855,46.855,0,0,0-4.8-2.582c-2.758-1.188-6.817-1.507-9.525-.069-.749.4-.407,2.351.392,1.9,2.224-1.249,5.489-1,7.859-.24a40.122,40.122,0,0,1,7.441,3.59c1,.575,1.562.8,2.625.241,1.138-.6,2.257-1.222,3.427-1.76,1.134-.522,2.913-1.615,4.069-.738.6.454,2.314,3.235,1.167,3.81l.6.226c-.575-.734-.72-1.718-1.4-2.386a2.4,2.4,0,0,0-2.182-.617,8.588,8.588,0,0,0-3.038,1.463c-1.153.727-2.354,1.412-3.47,2.194a2.926,2.926,0,0,0-1.2,1.938,19.831,19.831,0,0,1-1.208,3.628,11.65,11.65,0,0,1-5.093,5.75l.629,1.173c.287-1.012.6-2.016.908-3.022a4.027,4.027,0,0,0,.355-2,1.615,1.615,0,0,0-.905-1.1c-.982-.591-2.083-1.041-3.11-1.547l.283,1.421c1.1-1.53,2.2-3.054,3.285-4.591.237-.336.243-1.339-.289-1.454a17.379,17.379,0,0,0-4.4-.391l.5,1.236c.486-1.271.326-2.584.745-3.857a1.772,1.772,0,0,0-1-2.3c-1.981-1-4.331-1.07-6.408-1.782-.635-.217-.706,1.02-.326,1.3Z"/><path d="M49.9,74.243A21.735,21.735,0,0,0,60.792,72.1c.646-.315.346-1.963-.329-1.6a21.356,21.356,0,0,1-10.587,2.6c-.5-.008-.478,1.106.028,1.139Z"/><path d="M82.41,55.97c1.31,1.58,3.01,5.71.31,6.81a.49.49,0,0,1-.6-.22c-.57-.71-.8-2.16-1.73-2.43-.96-.28-2.07.43-2.83.9-.98.6-1.94,1.24-2.91,1.86-.73.47-1.42.74-1.75,1.62-.15.4-.19.87-.31,1.29-1,3.59-3.39,7.39-6.91,8.94-.37.16-.56-.15-.63-.51a15.146,15.146,0,0,1-4.51,2.68,29.81,29.81,0,0,1-20.05.13,28.494,28.494,0,0,1-8.97-5.49,13.609,13.609,0,0,0-5.14-2.9,11.048,11.048,0,0,0-2.92-.39,7.316,7.316,0,0,1-2.13.09,1.036,1.036,0,0,1-.55-.8,4.648,4.648,0,0,1,1.06-2.93,10.593,10.593,0,0,1,2.68-2.94c2.9-2.18,6.43-1.44,9.59-.3,1.86.67,3.77,1.5,5.78,1.43a11.442,11.442,0,0,0,4.97-1.74c2.93-1.56,5.69-3.44,8.67-4.9.48-.24.98-.45,1.48-.65a1.22,1.22,0,0,1,.36-1.33c2.71-1.44,6.77-1.12,9.53.07a45.287,45.287,0,0,1,4.8,2.58,14.964,14.964,0,0,0,2.31,1.35c.9.31,1.68-.53,2.42-.98a20.064,20.064,0,0,1,4.72-2.25A2.865,2.865,0,0,1,82.41,55.97Zm.23,4.74c.47-.91-.93-3.13-1.45-3.53-1.16-.87-2.94.22-4.07.74-1.17.54-2.29,1.16-3.43,1.76-1.06.56-1.62.33-2.63-.24a39.533,39.533,0,0,0-7.44-3.59,13.1,13.1,0,0,0-3.89-.63,11.877,11.877,0,0,0-1.33.37,15.309,15.309,0,0,1,3.96,1.16,1.771,1.771,0,0,1,1,2.3,14.634,14.634,0,0,0-.44,2.62,17.556,17.556,0,0,1,3.6.39c.53.12.52,1.12.29,1.46q-1.29,1.815-2.6,3.63c.73.34,1.46.68,2.14,1.08a3.2,3.2,0,0,1,.52.39c.68-.62,1.56.73,1.14,1.65a11.2,11.2,0,0,1-1.15,1.96,12.936,12.936,0,0,0,3.59-4.79,19.339,19.339,0,0,0,1.21-3.63,2.922,2.922,0,0,1,1.21-1.94c1.11-.78,2.31-1.46,3.47-2.19a8.7,8.7,0,0,1,3.03-1.47,2.435,2.435,0,0,1,2.19.62A7.178,7.178,0,0,1,82.64,60.71ZM66.11,69.89c-.03-.16-.18-.25-.46-.26-.3-.14-.59-.28-.89-.43-.59-.28-1.19-.57-1.78-.86a1.041,1.041,0,0,1-.28-1.42c.8-1.13,1.59-2.26,2.4-3.39a17.078,17.078,0,0,0-2.95-.2c-.55.01-.65-.86-.5-1.23.42-1.04.06-2.16.27-3.25a8.083,8.083,0,0,1-1.16-.43,23.214,23.214,0,0,1-4.75-1.9,42.546,42.546,0,0,0-4.19,2.27c-3.25,1.96-6.52,4.74-10.23,5.79-4.35,1.23-8.07-1.99-12.32-2.09a6.918,6.918,0,0,0-5.59,2.68,6.564,6.564,0,0,0-.54.76h.05a10.575,10.575,0,0,1,1.69.08,13.037,13.037,0,0,1,3.06.75,19.72,19.72,0,0,1,5.48,3.67,24.524,24.524,0,0,0,11.3,5.29,30.342,30.342,0,0,0,12.55-.3C60.64,74.61,64.26,72.96,66.11,69.89Z"/><path class="a" d="M81.19,57.18c.52.4,1.92,2.62,1.45,3.53a7.178,7.178,0,0,0-1.08-1.88,2.435,2.435,0,0,0-2.19-.62,8.7,8.7,0,0,0-3.03,1.47c-1.16.73-2.36,1.41-3.47,2.19a2.922,2.922,0,0,0-1.21,1.94,19.339,19.339,0,0,1-1.21,3.63,12.936,12.936,0,0,1-3.59,4.79,11.2,11.2,0,0,0,1.15-1.96c.42-.92-.46-2.27-1.14-1.65a3.2,3.2,0,0,0-.52-.39c-.68-.4-1.41-.74-2.14-1.08q1.305-1.815,2.6-3.63c.23-.34.24-1.34-.29-1.46a17.556,17.556,0,0,0-3.6-.39,14.634,14.634,0,0,1,.44-2.62,1.771,1.771,0,0,0-1-2.3,15.309,15.309,0,0,0-3.96-1.16,11.877,11.877,0,0,1,1.33-.37,13.1,13.1,0,0,1,3.89.63,39.533,39.533,0,0,1,7.44,3.59c1.01.57,1.57.8,2.63.24,1.14-.6,2.26-1.22,3.43-1.76C78.25,57.4,80.03,56.31,81.19,57.18Z"/><path class="b" d="M65.65,69.63c.28.01.43.1.46.26-1.85,3.07-5.47,4.72-8.84,5.53a30.342,30.342,0,0,1-12.55.3,24.524,24.524,0,0,1-11.3-5.29,19.72,19.72,0,0,0-5.48-3.67,13.037,13.037,0,0,0-3.06-.75,10.575,10.575,0,0,0-1.69-.08h-.05a6.564,6.564,0,0,1,.54-.76,6.918,6.918,0,0,1,5.59-2.68c4.25.1,7.97,3.32,12.32,2.09,3.71-1.05,6.98-3.83,10.23-5.79a42.546,42.546,0,0,1,4.19-2.27,23.214,23.214,0,0,0,4.75,1.9,8.083,8.083,0,0,0,1.16.43c-.21,1.09.15,2.21-.27,3.25-.15.37-.05,1.24.5,1.23a17.078,17.078,0,0,1,2.95.2c-.81,1.13-1.6,2.26-2.4,3.39a1.041,1.041,0,0,0,.28,1.42c.59.29,1.19.58,1.78.86C65.06,69.35,65.35,69.49,65.65,69.63Z"/><path class="c" d="M65.65,69.63c.28.01.43.1.46.26-1.85,3.07-5.47,4.72-8.84,5.53a30.342,30.342,0,0,1-12.55.3,24.524,24.524,0,0,1-11.3-5.29,19.72,19.72,0,0,0-5.48-3.67,13.037,13.037,0,0,0-3.06-.75c-.32-.04-.64-.07-.96-.08a2.685,2.685,0,0,0,.33-.18c4.46-2.78,8.95,2.2,12.52,4.28A21.87,21.87,0,0,0,47.55,72.9a22.9,22.9,0,0,0,10.84-2.87c1.33-.71,2.85-1.29,4.32-1.93a.692.692,0,0,0,.27.24c.59.29,1.19.58,1.78.86C65.06,69.35,65.35,69.49,65.65,69.63Z"/><path d="M60.463,70.5a21.356,21.356,0,0,1-10.587,2.6c-.5-.008-.478,1.106.028,1.139A21.725,21.725,0,0,0,60.792,72.1C61.438,71.785,61.138,70.137,60.463,70.5Z"/></svg>