<svg xmlns="http://www.w3.org/2000/svg" width="100" height="100" viewBox="0 0 100 100"><defs><style>.a{fill:#4d902f;}.b{fill:#327319;}.c{fill:#24560d;}</style></defs><title>courgettes</title><path d="M80.654,25.87A9.868,9.868,0,0,0,77.915,22.3a11.635,11.635,0,0,0-4.105-2.688,9.712,9.712,0,0,0-4.78-.557,21.269,21.269,0,0,0-4.7,1.682C61,22.247,58.18,24.591,55.281,26.765c-3.161,2.372-6.438,4.573-9.472,7.112A92.943,92.943,0,0,0,37.3,42.311a111,111,0,0,1-8.521,8.324c-5.1,4.461-10.717,9.86-10.54,17.2a11.932,11.932,0,0,0,1.32,5.271,14.232,14.232,0,0,0,1.418,2.028,16.294,16.294,0,0,1,1.1,2.429,4.378,4.378,0,0,0,7.689.061c.423-.7-.319-2.4-.955-1.379a3.333,3.333,0,0,1-4.045,1.42,3.282,3.282,0,0,1-1.52-1.212c-.448-.686-.487-1.539-.916-2.243a24.291,24.291,0,0,1-2.117-3.2,9.914,9.914,0,0,1-.634-4.881c.74-6.7,6.65-11.231,11.321-15.38,5.13-4.558,9.3-10.068,14.449-14.6,2.508-2.205,5.193-4.191,7.9-6.142,2.9-2.086,5.61-4.474,8.63-6.38,2.606-1.644,6.186-3.552,9.34-3.215A9.887,9.887,0,0,1,76.276,22.4c1.335,1.021,3.207,2.354,3.943,3.878.231.478.549-.081.435-.407Z"/><path d="M25.485,79.217c3.485,5.15,10.288,2.031,14.339-.522A69.4,69.4,0,0,0,53.811,67.114c4.29-4.646,7.925-9.815,12.464-14.239a73.021,73.021,0,0,0,5.038-5.6c1.778-2.137,3.674-4.169,5.476-6.285a20.765,20.765,0,0,0,4.7-7.89c.727-2.695.5-6.319-1.271-8.616-.758-.983-1.47.793-.92,1.478,1.81,2.252,1.535,5.755.549,8.27a26.513,26.513,0,0,1-4.726,7.005,99.781,99.781,0,0,1-9.285,10.026C61.6,55.111,58.239,59.739,54.457,64A71.446,71.446,0,0,1,42.178,75c-4.5,3.168-11.062,7.679-16.361,3.521-.381-.3-.481.478-.332.7Z"/><path d="M71.263,19.719a5.98,5.98,0,0,0,2.48-.619,26.206,26.206,0,0,0,2.534-1.024,8.592,8.592,0,0,1,1.171-.527,1.984,1.984,0,0,1,1.314.135,8.86,8.86,0,0,1,3.8,2.789,3.445,3.445,0,0,1,.608.988,3.489,3.489,0,0,1,.017,1.425c-.223,1.9-1.214,3.5-1.875,5.253-.036.1.062.46.2.29A14.278,14.278,0,0,0,84,22.969c.507-2.077-.53-3.689-2.046-5.028-1.242-1.1-3.294-2.531-5-1.786-.967.423-1.88.991-2.825,1.461a13.124,13.124,0,0,0-2.984,1.514c-.163.147-.127.556.12.589Z"/><path d="M23.368,70.853C27.639,63.19,35.152,58,41.292,51.968c3.323-3.262,6.513-6.633,10.127-9.581,3.446-2.812,6.672-5.876,10-8.817A65.115,65.115,0,0,1,73.86,24.529c.591-.313.349-1.875-.315-1.525-8.07,4.252-14.361,10.935-21.236,16.783-3.652,3.106-7.08,6.329-10.468,9.723-3.219,3.224-6.718,6.14-9.959,9.34a38.108,38.108,0,0,0-8.663,11.837c-.04.091.07.307.149.166Z"/><path d="M77.521,26.847a16.72,16.72,0,0,1-2.9,6.471,41.978,41.978,0,0,1-3.9,5.12,89.372,89.372,0,0,1-9.392,8.921c-3.113,2.625-6.339,5.108-9.278,7.931-3.076,2.956-5.982,6.083-9.012,9.085-1.746,1.73-3.53,3.425-5.406,5.014-1.777,1.505-3.7,2.761-5.565,4.141-.461.34-.237,1.869.463,1.527,3.739-1.825,7-5.137,9.946-8.008,3.224-3.144,6.274-6.461,9.485-9.619,6.325-6.222,13.807-11.149,19.579-17.956,2.921-3.444,6.316-7.844,6.537-12.526.02-.426-.489-.587-.557-.1Z"/><path d="M81.953,17.941c1.511,1.338,2.554,2.948,2.045,5.025a14.758,14.758,0,0,1-2.332,5.256c.033.172.066.353.1.526a9.983,9.983,0,0,1-.4,4.787A21.276,21.276,0,0,1,76.7,41.1c-1.766,2.062-3.614,4.049-5.355,6.135-1.511,1.831-3.071,3.638-4.746,5.321-2.267,2.283-4.443,4.582-6.487,7.079-1.988,2.422-3.926,4.886-6.044,7.21a69.557,69.557,0,0,1-13.92,11.644c-3.892,2.488-10.494,5.732-14.165,1.38a4.332,4.332,0,0,1-4.008-2.488A10.521,10.521,0,0,0,20.8,74.923,11.094,11.094,0,0,1,19.4,72.8a11.981,11.981,0,0,1-1.158-5.034c-.148-7.341,5.5-12.728,10.61-17.187a108.892,108.892,0,0,0,8.409-8.22A94.559,94.559,0,0,1,45.427,34.2c3.046-2.6,6.356-4.82,9.55-7.21,2.924-2.184,5.757-4.574,9.082-6.134a24.032,24.032,0,0,1,4.747-1.749,7.2,7.2,0,0,1,2.488-.082,16,16,0,0,1,2.833-1.413c.945-.468,1.856-1.034,2.825-1.453C78.66,15.411,80.705,16.84,81.953,17.941Zm1.232,4.943a3.609,3.609,0,0,0-.016-1.42,3.623,3.623,0,0,0-.608-.994,8.949,8.949,0,0,0-3.8-2.784,2.015,2.015,0,0,0-1.314-.139,7.84,7.84,0,0,0-1.166.533c-.83.386-1.675.715-2.538,1.019-.221.082-.468.18-.722.271l.492.147a11.092,11.092,0,0,1,4.213,2.612,15.953,15.953,0,0,1,2,2.077.574.574,0,0,1,.5.28,7.912,7.912,0,0,1,1.3,3.1A18.01,18.01,0,0,0,83.185,22.884ZM79.9,34.1a9.419,9.419,0,0,0,.707-4.451A7.8,7.8,0,0,0,79.3,25.964a1.225,1.225,0,0,1-.148-1.068c-.3-.3-.632-.575-.944-.854-.641-.55-1.265-1.125-1.93-1.642a9.916,9.916,0,0,0-5.133-2,10.714,10.714,0,0,0-5.14,1.134,25.657,25.657,0,0,0-4.361,2.233C58.64,25.726,55.9,28.1,52.99,30.193a95.559,95.559,0,0,0-8.146,6.4c-5.084,4.566-9.263,10.019-14.388,14.544-4.672,4.114-10.6,8.868-10.938,15.643a9.834,9.834,0,0,0,.7,4.238c.55,1.313,1.626,2.209,2.25,3.449a13.919,13.919,0,0,0,.871,2.11,3.283,3.283,0,0,0,5.469-.337c.624-1.034,1.371.674.952,1.372a4.449,4.449,0,0,1-2.233,1.938c5.017,2.242,10.848-1.856,14.9-4.73A71.93,71.93,0,0,0,54.846,63.558c3.785-4.328,7.218-8.951,11.546-12.786A89.759,89.759,0,0,0,75.581,40.7,24.283,24.283,0,0,0,79.9,34.1Z"/><path class="a" d="M83.169,21.464a3.609,3.609,0,0,1,.016,1.42,18.01,18.01,0,0,1-1.659,4.706,7.912,7.912,0,0,0-1.3-3.1.574.574,0,0,0-.5-.28,15.953,15.953,0,0,0-2-2.077,11.092,11.092,0,0,0-4.213-2.612l-.492-.147c.254-.091.5-.189.722-.271.863-.3,1.708-.633,2.538-1.019a7.84,7.84,0,0,1,1.166-.533,2.015,2.015,0,0,1,1.314.139,8.949,8.949,0,0,1,3.8,2.784A3.623,3.623,0,0,1,83.169,21.464Z"/><path class="b" d="M80.607,29.651A9.419,9.419,0,0,1,79.9,34.1,24.283,24.283,0,0,1,75.581,40.7a89.759,89.759,0,0,1-9.189,10.076c-4.328,3.835-7.761,8.458-11.546,12.786A71.93,71.93,0,0,1,42.421,74.825c-4.048,2.874-9.879,6.972-14.9,4.73a4.449,4.449,0,0,0,2.233-1.938c.419-.7-.328-2.406-.952-1.372a3.283,3.283,0,0,1-5.469.337,13.919,13.919,0,0,1-.871-2.11c-.624-1.24-1.7-2.136-2.25-3.449a9.834,9.834,0,0,1-.7-4.238c.337-6.775,6.266-11.529,10.938-15.643,5.125-4.525,9.3-9.978,14.388-14.544a95.559,95.559,0,0,1,8.146-6.4c2.907-2.094,5.65-4.467,8.655-6.422a25.657,25.657,0,0,1,4.361-2.233,10.714,10.714,0,0,1,5.14-1.134,9.916,9.916,0,0,1,5.133,2c.665.517,1.289,1.092,1.93,1.642.312.279.64.559.944.854a1.225,1.225,0,0,0,.148,1.068A7.8,7.8,0,0,1,80.607,29.651Zm-2.53-2.7c.017-.427-.492-.591-.558-.1a16.818,16.818,0,0,1-2.94,6.536,42.418,42.418,0,0,1-3.925,5.133,90.463,90.463,0,0,1-9.518,9c-3.1,2.6-6.29,5.075-9.2,7.875-3.08,2.965-5.987,6.094-9.025,9.1-1.7,1.692-3.449,3.342-5.28,4.894-1.782,1.5-3.7,2.768-5.568,4.139-.46.345-.238,1.873.468,1.528a26.174,26.174,0,0,0,4.976-3.507c1.717-1.412,3.351-2.923,4.936-4.475,3.2-3.113,6.233-6.406,9.411-9.543,6.273-6.183,13.7-11.077,19.462-17.8a40.27,40.27,0,0,0,4.221-5.756A15.3,15.3,0,0,0,78.077,26.949Zm-4.221-2.422c.6-.312.353-1.873-.312-1.52-8.1,4.254-14.412,10.98-21.31,16.843-1.782,1.511-3.588,2.973-5.288,4.582-1.774,1.684-3.474,3.449-5.207,5.174-3.153,3.161-6.585,6.019-9.763,9.156a38.143,38.143,0,0,0-8.754,11.924c-.041.09.065.312.147.164C27.623,63.2,35.137,58,41.271,51.987c3.351-3.284,6.562-6.668,10.2-9.64,3.416-2.793,6.627-5.839,9.936-8.763A65.031,65.031,0,0,1,73.856,24.527Z"/><path d="M77.519,26.851c.066-.493.575-.329.558.1a15.3,15.3,0,0,1-2.537,7.03,40.27,40.27,0,0,1-4.221,5.756c-5.765,6.718-13.189,11.612-19.462,17.8-3.178,3.137-6.209,6.43-9.411,9.543-1.585,1.552-3.219,3.063-4.936,4.475a26.174,26.174,0,0,1-4.976,3.507c-.706.345-.928-1.183-.468-1.528,1.872-1.371,3.786-2.636,5.568-4.139,1.831-1.552,3.58-3.2,5.28-4.894,3.038-3.005,5.945-6.134,9.025-9.1,2.907-2.8,6.1-5.272,9.2-7.875a90.463,90.463,0,0,0,9.518-9,42.418,42.418,0,0,0,3.925-5.133A16.818,16.818,0,0,0,77.519,26.851Z"/><path d="M73.544,23.007c.665-.353.912,1.208.312,1.52a65.031,65.031,0,0,0-12.449,9.057c-3.309,2.924-6.52,5.97-9.936,8.763-3.638,2.972-6.849,6.356-10.2,9.64C35.137,58,27.623,63.2,23.369,70.85c-.082.148-.188-.074-.147-.164a38.143,38.143,0,0,1,8.754-11.924c3.178-3.137,6.61-5.995,9.763-9.156,1.733-1.725,3.433-3.49,5.207-5.174,1.7-1.609,3.506-3.071,5.288-4.582C59.132,33.987,65.447,27.261,73.544,23.007Z"/><path class="c" d="M38.333,44.816c4.746-5.94,11.254-10.252,17.311-14.785,3.183-2.382,6.464-4.583,9.613-7.009a14.5,14.5,0,0,1,5.112-2.644,12.339,12.339,0,0,0-4.363,1.156,25.857,25.857,0,0,0-4.359,2.241c-3.011,1.947-5.748,4.322-8.656,6.417a96.361,96.361,0,0,0-8.145,6.4c-5.083,4.568-9.262,10.02-14.394,14.546-4.671,4.12-10.6,8.87-10.932,15.643a9.785,9.785,0,0,0,.7,4.241c.023.054.051.1.075.156C21.16,60.022,31.739,53.07,38.333,44.816Z"/><path class="c" d="M38.565,63.855c-1.871,2.29-3.671,4.635-5.5,6.959-.939,1.2-2.025,2.408-3.052,3.667,2.231-1.542,4.533-3,6.7-4.617A111.859,111.859,0,0,0,50.084,57.442C54,53.351,59.46,49.427,63.608,45.607c1.925-1.773,9.838-9.473,11.138-11.763.741-1.3,1.3-2.706,1.981-4.041.161-.314.447-1.08.749-1.859-.289.274-.571.556-.848.836-1.45,1.467-9.95,9.421-11.453,10.84-4.231,4-9.332,6.912-13.7,10.764A115.123,115.123,0,0,0,38.565,63.855Z"/><path class="c" d="M67.105,26.179c-3.355,2.358-6.836,4.483-10.113,6.963-5.51,4.169-11.029,7.822-15.47,13.1-6.158,7.325-16.5,13.871-18.2,23.568A32.416,32.416,0,0,1,27.4,64.4c4.143-5.142,9.556-9.237,13.984-14.11a2.619,2.619,0,0,1,.455-.4c3.711-4.171,7.4-7.149,11.654-10.829,4.7-4.063,9.944-8.327,14.646-12.345C69.793,25.3,72.017,24.6,73.545,23,71.516,24.1,69.039,24.82,67.105,26.179Z"/><path class="c" d="M65.2,49.147c-.181.148-.351.3-.531.452C55.413,60.458,46.034,71.064,32.383,76.634c-.03.027-.062.049-.092.077a2.342,2.342,0,0,1-2.357.558c-.023.011-.045.025-.067.037a.9.9,0,0,1-.105.315,4.519,4.519,0,0,1-2.237,1.937c5.017,2.236,10.851-1.858,14.894-4.73A71.92,71.92,0,0,0,54.844,63.561c3.79-4.331,7.222-8.951,11.544-12.787a89.04,89.04,0,0,0,9.189-10.08A24.148,24.148,0,0,0,79.9,34.1,11.291,11.291,0,0,0,80.64,31C77.492,38.436,71.6,43.937,65.2,49.147Z"/></svg>