<svg xmlns="http://www.w3.org/2000/svg" width="100" height="100" viewBox="0 0 100 100"><defs><style>.a{fill:#f4f4e4;}.b{fill:#6da015;}.c{fill:#8dc637;}.d{fill:#a3e440;}.e{fill:#628c10;}</style></defs><title>parsnips</title><path class="a" d="M58.42,37.574a7.989,7.989,0,0,1-.884-.861c-.129-.153-.264-.3-.387-.461a6.022,6.022,0,0,1-.39-.639l-1.07,1.72a6.562,6.562,0,0,0,1.27,1.191c.409.346.814.7,1.226,1.041.8.67,1.622,1.343,2.378,2.069l.753-3.008a4.327,4.327,0,0,1-.881-.409l.273.166a5.168,5.168,0,0,1-1.089-.881l.239.267a3.988,3.988,0,0,1-.275-.347c-.08-.113-.335-.573-.079-.09l-1.241,2.617q.256.132.5.28l-.281-.171a8.305,8.305,0,0,1,1.835,1.518l-.246-.276c.037.041.073.082.109.124a1.111,1.111,0,0,0,.85.507,1.071,1.071,0,0,0,.823-.548,2.492,2.492,0,0,0-.062-2.549L61.009,37.7a.937.937,0,0,0-1.691.042,2.509,2.509,0,0,0,.063,2.576l.8,1.1,1.364-2.866a9.006,9.006,0,0,0-2.754-2.018.781.781,0,0,0-.75.108,1.417,1.417,0,0,0-.535.733,2.616,2.616,0,0,0,.233,2.128,4.892,4.892,0,0,0,1.339,1.524,4.434,4.434,0,0,0,2.029.811l.284-.065a.8.8,0,0,0,.357-.3,1.724,1.724,0,0,0,.364-.859,2.879,2.879,0,0,0-.021-.869,1.693,1.693,0,0,0-.517-.965c-.841-.607-1.656-1.25-2.5-1.85-.41-.29-.831-.56-1.255-.829-.218-.138-.437-.274-.657-.41q-.205-.128-.413-.253a1.4,1.4,0,0,0-.555-.166c-.207-.033-.459.212-.548.364a1.547,1.547,0,0,0-.2.693c-.026.414.1,1.167.595,1.3a4.4,4.4,0,0,1,.52.146,4.936,4.936,0,0,1,.5.273,6.385,6.385,0,0,1,.944.686c.244.2.5-.006.594-.254a.872.872,0,0,0-.18-.91Z"/><path class="a" d="M49.436,47.246q-4.39,3.126-8.8,6.229c-.851.6-.253,3.29.792,2.611,4.333-2.819,8.686-5.609,13.155-8.21L53.715,45C48.6,50.062,42,53.362,37.484,59.07c-.686.867-.011,3.453,1.329,2.472A157.95,157.95,0,0,1,55.987,50.605l-.911-3c-5.515,3.831-11.052,7.7-15.617,12.672-.853.929-.4,3.992,1.186,2.877q6.817-4.8,13.677-9.53l-1.2-2.9Q45.284,57.16,37.481,63.644c-.891.739-.368,3.947.944,3.114l9.614-6.1-.675-3.265A122.984,122.984,0,0,0,36.9,65.059c-.867.71-.546,3.687.929,3.059a31.469,31.469,0,0,0,7.163-4.281L43.8,60.952l-6.261,5.541c-.855.756-.347,4,.948,3.124,9.545-6.426,19.285-12.925,26.094-22.4.758-1.054.016-4.277-1.622-3.017a11.651,11.651,0,0,0-3.3,4.276c-.419.853-.4,3.459,1.2,2.918a7.715,7.715,0,0,0,5.045-6.586c.065-.726-.024-1.742-.748-2.14-.677-.373-1.235.148-1.48.785a6.413,6.413,0,0,0-.07,4.4c.186.59.923,1.04,1.441.534,5.392-5.27-2.975-13.4-7.412-16.024-3.027-1.79-6.164-1.6-8.584,1.068A28.125,28.125,0,0,0,43.6,42.922a2.564,2.564,0,0,0,.244,2.229c.323.435,1.042.777,1.474.252q3.985-4.834,8.3-9.377l-1.256-3.047a69.619,69.619,0,0,0-8.169,11.277,2.488,2.488,0,0,0-.034,2.352c.315.562.961.953,1.527.424q4.221-3.945,8.43-7.9l-1.509-2.807a86.6,86.6,0,0,0-6.54,9.428,2.487,2.487,0,0,0-.034,2.386c.286.51,1.029,1.039,1.549.429q4.186-4.917,8.373-9.835L54.436,35.91q-2.227,4.127-4.378,8.294c-1.219,2.365-3.254,5.16-2.474,7.955.208.745.911,1.809,1.769,1.037a63.677,63.677,0,0,0,7.06-7.6L54.7,43.113c-1.592,2.672-3.211,5.33-4.771,8.021-.606,1.045-.126,4.052,1.555,2.891l5.436-3.754-1.525-2.834A12.35,12.35,0,0,0,53.737,51.7c-.138.7.357,2.821,1.513,2.186a16.286,16.286,0,0,0,5.363-4.739c.7-.955-.1-4.1-1.507-2.8l-.678.626c-1.083,1-.151,4.406,1.274,3.09l.678-.626-1.507-2.8a13.226,13.226,0,0,1-4.339,3.784l1.513,2.186a7.656,7.656,0,0,1,1.106-2.629,2.541,2.541,0,0,0,.133-2.219c-.192-.441-.812-1.188-1.376-.806l-5.456,3.687,1.267,3.087c1.594-2.695,3.13-5.424,4.692-8.137.7-1.223-.341-4.252-1.716-2.478a53.237,53.237,0,0,1-6.618,6.992l1.769,1.037c-.229-.823.81-2.188,1.186-2.921q.822-1.6,1.656-3.2,1.724-3.3,3.5-6.577a2.529,2.529,0,0,0,.034-2.392c-.287-.512-1.032-1.042-1.553-.43q-4.189,4.917-8.37,9.843l1.515,2.816a86.5,86.5,0,0,1,6.534-9.436c.76-.956-.141-4.094-1.51-2.806Q48.627,40,44.423,43.97l1.493,2.776a61.945,61.945,0,0,1,7.7-10.72,2.383,2.383,0,0,0,.36-2.447c-.261-.607-1.012-1.225-1.616-.6q-4.338,4.486-8.347,9.271l1.718,2.481a27.552,27.552,0,0,1,3.752-7.042c1.57-2.123,3.428-3.523,6.134-2.5a16.837,16.837,0,0,1,5.926,4.4c1.1,1.174,4.452,4.6,2.384,6.081l1.555.912a1.224,1.224,0,0,1,.133-.956l-2.05-1.73a4.911,4.911,0,0,1-3.405,4.118l1.2,2.918a9.635,9.635,0,0,1,2.973-3.4l-1.623-3.017C56.1,53.638,46.726,60.208,37.541,66.493l1.214,2.944,6.236-5.6c1-.9.262-4.045-1.189-2.885a28.2,28.2,0,0,1-6.643,3.93l.929,3.059a117.088,117.088,0,0,1,9.951-7.288,1.98,1.98,0,0,0,.728-2.111c-.106-.507-.7-1.6-1.4-1.154l-9.619,6.077.945,3.113q7.829-6.464,15.632-12.957c1.05-.876.335-3.979-1.2-2.9q-6.82,4.8-13.667,9.555l1.186,2.877c4.6-4.938,10.1-8.857,15.6-12.719.945-.664.392-3.729-.911-3A163.436,163.436,0,0,0,37.689,58.815l1.33,2.472c4.344-5.509,10.9-8.66,15.813-13.577.678-.678.454-3.659-.873-2.877-4.562,2.692-9.035,5.524-13.318,8.642l1.014,2.46q4.291-3.354,8.616-6.664c.764-.588.222-2.778-.835-2.025Z"/><path class="a" d="M62.407,42.353A45.433,45.433,0,0,0,54.4,48.841a2.079,2.079,0,0,0-.382,2.017c.146.465.658,1.252,1.267.9A24.324,24.324,0,0,0,62.9,44.827c.543-.755.252-3.419-1.153-2.807A10.176,10.176,0,0,0,57.5,45.484a2.413,2.413,0,0,0-.129,2.145c.187.43.782,1.145,1.33.78,1.523-1.013,3.454-1.933,3.868-3.889.322-1.517-.346-3.567-2.1-3.7-1.261-.094-1.17,2.007-.944,2.7a1.622,1.622,0,0,0,2.983.419,2.93,2.93,0,0,0-1.41-4.215c-1.552-.463-1.643,2.175-1.061,2.995.761,1.069,2.6,3.32,3.965,1.83,1.346-1.466.25-4.036-.643-5.431l-1.575,2.533q.829,1.046,1.651,2.1l1.583-2.545A30.772,30.772,0,0,0,58.2,35.089c-2-1.292-5.807-3.133-7.662-.561A2.954,2.954,0,0,0,51,38.506a2.469,2.469,0,0,0,2.979-.414c.245-.183.812-.561.9-.466.278.306.132,1.317.144,1.648q.095,2.611.182,5.222c.051,1.488,1.5,2.594,2.289.879a12.7,12.7,0,0,0,1.077-6.517l-2.242.99A15.753,15.753,0,0,0,59.017,44.7a.987.987,0,0,0,1.72-.042,2.525,2.525,0,0,0-.065-2.619L59,39.626,57.6,42.57a1.49,1.49,0,0,1,.11,2.326l1.855,1.543.118-4.611c.027-1.033-1.275-2.681-2.075-1.24-1.375,2.475-2.787,4.928-4.182,7.391a2.584,2.584,0,0,0,.065,2.665.993.993,0,0,0,1.75-.043,11.377,11.377,0,0,1,2.773-3.179l-1.563-2.9c-1.9,2.562-3.867,5.073-5.863,7.561a2.537,2.537,0,0,0-.137,2.282c.2.461.829,1.213,1.415.83,1.191-.779,2.371-1.576,3.556-2.365l-1.27-3.092A62.8,62.8,0,0,1,49.03,56.3a2.457,2.457,0,0,0-.374,2.545c.31.718.991,1.171,1.68.623,1.378-1.1,2.72-2.241,4.093-3.345.945-.761.373-4.082-.979-3.227Q51.129,54.361,48.8,55.82L50,58.73c.886-1.371,2.152-2.434,3.086-3.77A8.085,8.085,0,0,0,54.446,49.9c-.04-.989-.223-1.973-.224-2.964a6.894,6.894,0,0,1,.513-2.367,10.171,10.171,0,0,0,.809-5.422c-.219-1.182-1.617-1.737-2.061-.358a8.535,8.535,0,0,0,.112,5.626.932.932,0,0,0,1.725.3,9.148,9.148,0,0,0,1.739-3.988c.274-1.421-1.207-3.08-2.064-1.255a43.244,43.244,0,0,1-4,7.159,15.847,15.847,0,0,1-2.731,2.919c-.276.226-2.445,1.848-2.681,1.46-.992-1.628-2.288,1-1.7,2.1,1.862,3.515,6.129-.751,7.646-2.548a39.841,39.841,0,0,0,5.431-9.43l-2.065-1.256a5.757,5.757,0,0,1-1.176,2.519l1.725.3a3.047,3.047,0,0,1,.022-2.221l-2.06-.358c.211,1.34-.782,2.864-1.121,4.129a13.989,13.989,0,0,0-.179,4.931A4.7,4.7,0,0,1,51.032,53a37.462,37.462,0,0,0-2.726,3.282c-.453.7-.192,3.774,1.2,2.909q2.324-1.449,4.653-2.889l-.979-3.227C51.8,54.162,50.4,55.207,49.03,56.3l1.306,3.168a72.185,72.185,0,0,0,5.615-7.133,2.564,2.564,0,0,0,.136-2.267c-.2-.458-.824-1.206-1.405-.824-1.188.779-2.381,1.551-3.561,2.341L52.4,54.693c1.981-2.5,3.922-5.033,5.857-7.57.771-1.01,0-4.11-1.562-2.9a12.713,12.713,0,0,0-3.267,3.761L55.241,50.6c1.373-2.493,2.729-4.995,4.123-7.475l-2.075-1.24L57.151,46.5c-.025.829.879,2.527,1.855,1.543a6.193,6.193,0,0,0-.258-8.7c-.592-.525-1.265-.07-1.556.516a2.523,2.523,0,0,0,.155,2.428l1.67,2.417,1.655-2.661a13.134,13.134,0,0,1-2.289-4.114c-.618-1.808-2.379-.407-2.242.99a8.69,8.69,0,0,1-.792,4.64l2.289.879q-.075-2.195-.147-4.387a15.519,15.519,0,0,0-.33-3.7,3.27,3.27,0,0,0-1.79-2.354c-1.321-.467-1.877.631-2.932,1.032-.16.061-.3.023-.453.073-.636.2-.545,2.394.34,2.17a4.146,4.146,0,0,1,1.6-.265,8.182,8.182,0,0,1,3.457,1.479,28.2,28.2,0,0,1,6.04,5.274c1.407,1.643,2.515-1.38,1.583-2.545q-.832-1.039-1.659-2.085a.938.938,0,0,0-1.636.041,2.415,2.415,0,0,0,.061,2.492c.125.2.206.45.339.633l.1.291q1.149-.792.475-1.229c-.281-.417-.772-.749-1.076-1.178L60.556,43.17q.736.366.36-.926-.248-1.674.578-.564l-.944,2.706-.311-1.008-.26.227a3.461,3.461,0,0,0-.73.524c-.511.354-1.019.714-1.526,1.073l1.474,2.74a7.6,7.6,0,0,1,3.219-2.667l-1.152-2.807a22.724,22.724,0,0,1-6.616,6.2l.885,2.917a46.4,46.4,0,0,1,7.493-7.2c.654-.477.184-2.58-.619-2.038Z"/><path class="a" d="M45.611,40.123a121.2,121.2,0,0,0-7.869,15.068,2.221,2.221,0,0,0,.342,2.187.875.875,0,0,0,1.463-.169,58.586,58.586,0,0,1,7.743-9.62l-1.474-2.742Q43.983,48.1,42.143,51.34a2.506,2.506,0,0,0-.035,2.39c.309.54,1,1.005,1.552.431,1.308-1.357,2.626-2.7,3.921-4.073a2.464,2.464,0,0,0,.377-2.564c-.316-.752-.991-1.15-1.693-.629l-4.972,3.694,1.544,2.871c1.278-1.771,2.671-3.429,4.11-5.07a2.428,2.428,0,0,0,.368-2.5c-.261-.622-1.039-1.252-1.652-.614a53.255,53.255,0,0,0-4.609,5.61c-.738,1.016-.032,4.033,1.545,2.872l4.982-3.668L46.265,46.9c-1.308,1.373-2.592,2.769-3.887,4.155L43.9,53.87q1.806-3.285,3.624-6.563a2.444,2.444,0,0,0,.033-2.324c-.311-.545-.951-.951-1.508-.418a62.479,62.479,0,0,0-8.135,10.278l1.8,2.018a169.271,169.271,0,0,1,6.731-15.534,1.2,1.2,0,0,0-.03-1.224.456.456,0,0,0-.8.02Z"/><path class="a" d="M34.475,61.485c.937-2.217,2.177-4.331,3.257-6.483,1.125-2.241,2.236-4.483,3.431-6.689a65.174,65.174,0,0,1,3.468-5.858,18.783,18.783,0,0,1,1.981-2.466,10.364,10.364,0,0,0,2.258-2.515c.363-.74.376-2.247-.707-2.368-1.952-.218-3.864,2.74-4.863,4.118a56.238,56.238,0,0,0-3.8,6.325q-1.848,3.42-3.4,6.995c-1.126,2.6-1.847,5.312-2.746,7.987-.279.83.62,2.148,1.125.954Z"/><path class="a" d="M43.517,49.872C44.753,48.2,46,46.538,47.284,44.9c.481-.612.142-3.1-1-2.449-3.7,2.114-6.326,6.131-8.551,9.662-2.384,3.782-4.544,7.7-7.359,11.2l1.743,2.517c3.775-6.209,7.526-12.434,11.386-18.591l-1.885-2.108c-.506,1.319-1,2.639-1.47,3.971-.347.986.215,3.369,1.636,2.363a23.4,23.4,0,0,0,3.291-2.818l-1.386-2.578c-1.937,3.545-3.948,7.058-6.074,10.494-1.791,2.893-3.616,6.134-6.674,7.854l1.115,2.714c2.486-3.924,5.149-7.694,7.942-11.4L38.316,53.3c-3.025,4.58-5.936,9.236-8.677,13.992-.719,1.248.339,4.329,1.749,2.527q3.68-4.7,7.553-9.242l-1.5-2.784q-3.6,4.833-7.531,9.4a2.368,2.368,0,0,0-.358,2.439c.261.606,1.006,1.218,1.61.6q3.788-3.888,7.849-7.49l-1.247-3.026Q32.28,65.675,26.591,71.443l1.242,3.012a80.571,80.571,0,0,1,9.048-8.133L35.64,63.31A103.426,103.426,0,0,1,27.153,71.8c-1.041.926-.312,4.158,1.233,2.991l2.7-2.041-1.455-2.7a23.416,23.416,0,0,1-3.384,3.7c-1.048.932-.223,4.186,1.223,2.967,3.437-2.9,6.893-5.775,10.345-8.657l-1.251-3.035c-2.5,2.383-4.982,4.794-7.472,7.192-1.021.984-.118,4.272,1.229,2.981a77.35,77.35,0,0,1,7.6-6.4l-1.2-2.924a48.232,48.232,0,0,1-4.13,3.776c-1.028.835-.282,3.867,1.151,2.793,1.255-.94,2.513-1.877,3.765-2.823l-1.266-2.354A15.279,15.279,0,0,1,34,69.5l1.079,2.619,2.109-1.864L36.1,67.615C30.18,73.153,24.055,78.6,16.954,82.59l1.193,2.9c3.107-5.318,6.45-10.5,9.937-15.577q2.559-3.723,5.236-7.364c1.939-2.638,4.11-5.186,5.852-7.959a2.326,2.326,0,0,0,.033-2.242c-.282-.5-.947-.951-1.456-.4a61.857,61.857,0,0,0-4.235,5.091l1.343,1.941c.948-1.706,1.887-3.418,2.8-5.144L35.92,52.8a20.494,20.494,0,0,1-1.25,5.679q-.913,2.849-1.832,5.7a2.11,2.11,0,0,0,.318,2.038.813.813,0,0,0,1.364-.157q2.2-3.6,4.407-7.188l-1.584-2.288L33,64.9c-.5.953-.139,3.829,1.451,2.7.664-.474,1.331-.944,1.993-1.421L35.2,63.164q-2.954,3.531-6.206,6.79l1.5,2.791a19.084,19.084,0,0,1,2.3-3.111l-1.259-3.056q-1.692,1.912-3.373,3.835a2.3,2.3,0,0,0-.35,2.377c.246.571,1,1.21,1.57.583Q31.09,71.5,32.8,69.634a2.366,2.366,0,0,0,.361-2.455c-.258-.6-1.021-1.238-1.62-.6a20.654,20.654,0,0,0-2.775,3.664,2.471,2.471,0,0,0-.034,2.364c.3.543.985.985,1.535.426q3.24-3.292,6.18-6.854a2.368,2.368,0,0,0,.356-2.421c-.307-.712-.928-1.082-1.6-.593s-1.318.973-1.977,1.46l1.451,2.7,4.254-8.454a2.29,2.29,0,0,0-.057-2.326.866.866,0,0,0-1.527.038q-2.166,3.64-4.35,7.27l1.682,1.881c1.317-4.2,3.16-8.532,3.246-12.979.016-.837-1.095-2.272-1.735-1.036-.913,1.763-1.8,3.542-2.672,5.324a1.939,1.939,0,0,0,.048,1.973.737.737,0,0,0,1.3-.032,16.639,16.639,0,0,1,4.095-4.114l-1.2-2.918a89.041,89.041,0,0,0-5.877,7.7q-2.744,3.759-5.366,7.6c-3.517,5.162-6.831,10.453-10.049,15.8-.431.717-.269,3.7,1.193,2.905,7.427-4.028,13.458-9.936,19.536-15.7.9-.853.161-3.76-1.088-2.639L34,69.5c-.919.824-.2,3.7,1.079,2.619a18.306,18.306,0,0,0,2.624-2.75c.484-.616.076-3.263-1.032-2.513q-2.044,1.386-4.08,2.785l1.151,2.793a35.991,35.991,0,0,0,4.184-3.645c.92-.934.363-4.067-1.2-2.924A77.161,77.161,0,0,0,29.1,72.208l1.229,2.981c2.5-2.379,5.009-4.745,7.494-7.138,1.008-.972.243-4.3-1.251-3.035q-5.154,4.368-10.317,8.725l1.223,2.967a26.754,26.754,0,0,0,3.841-4.242c.7-.95.02-3.81-1.455-2.7L27.153,71.8l1.233,2.991a100.818,100.818,0,0,0,8.5-8.464,2.337,2.337,0,0,0,.356-2.419c-.3-.694-.937-1.1-1.6-.593a80.767,80.767,0,0,0-9.049,8.133,2.314,2.314,0,0,0-.355,2.419c.26.606.994,1.2,1.6.593q5.688-5.765,11.181-11.714a2.336,2.336,0,0,0,.357-2.43c-.281-.654-.968-1.159-1.6-.6q-4.064,3.6-7.854,7.48l1.252,3.036q4.176-4.828,8.008-9.937c.739-.987-.324-4.153-1.5-2.784q-4.122,4.808-8.037,9.785l1.749,2.527c2.763-4.764,5.614-9.473,8.605-14.1.777-1.2-.4-4.15-1.677-2.422-2.759,3.739-5.358,7.62-7.844,11.546-.423.667-.226,3.467,1.114,2.714,3.192-1.8,5.188-4.87,7.09-7.9C41,55.97,43.1,52.153,45.285,48.379a2.29,2.29,0,0,0,.032-2.184c-.287-.511-.9-.9-1.419-.394a18.8,18.8,0,0,1-3.086,2.476l1.365,2.547c.52-1.31,1.012-2.627,1.495-3.951a2.35,2.35,0,0,0-.357-2.284.909.909,0,0,0-1.528.176C38.046,50.987,34.2,57.141,30.369,63.311a2.467,2.467,0,0,0-.034,2.377c.28.5,1.035,1.048,1.543.429a89.342,89.342,0,0,0,7.111-10.945,56.135,56.135,0,0,1,3.482-5.235,41.831,41.831,0,0,1,4.622-4.8l-1.234-2.294c-1,2.007-2.026,3.991-3.073,5.971-.272.516.156,1.835.731,1.056Z"/><path class="a" d="M20.931,82.249c.9-1.254,1.98-2.354,2.89-3.6.941-1.288,1.91-2.555,2.861-3.834,2.043-2.746,4-5.553,6-8.333L30.5,65.669c.082.347.1.329.057-.056a.154.154,0,0,0-.058.105,4.213,4.213,0,0,0-.432.693c-.426.623-.885,1.226-1.328,1.838l-2.737,3.782L20.53,79.594a2.6,2.6,0,0,0-.037,2.548c.3.532,1.107,1.124,1.654.458A78.62,78.62,0,0,1,34.676,70.449c1.323-1.027.286-4.859-1.434-3.479A86.4,86.4,0,0,0,20.78,79.285L22.4,82.291l6.374-8.751c1.039-1.427,2.1-2.84,3.117-4.282a5.544,5.544,0,0,0,.937-5.161,1.1,1.1,0,0,0-2.037-.348c-1.955,2.96-3.919,5.914-5.764,8.944-.888,1.458-1.773,2.918-2.631,4.392a22.243,22.243,0,0,0-1.9,4.678c-.079.257.146.891.435.486Z"/><path class="a" d="M57.222,50.755a1.388,1.388,0,0,0,.737,1.453c.52.276,1.295,0,1.824-.155a12.139,12.139,0,0,0,3.064-1.43,2.177,2.177,0,0,0,.812-2.352,1.931,1.931,0,0,0-.6-1.119.888.888,0,0,0-.963-.168,9.519,9.519,0,0,0-1.616,1.3A6.665,6.665,0,0,0,59.2,49.963a2.6,2.6,0,0,0-.2,1.959,1.354,1.354,0,0,0,1.1,1.072c.617.095,1.174-.562,1.585-.941s.81-.774,1.193-1.183A25.836,25.836,0,0,0,65.124,48.1a2.583,2.583,0,0,0,.036-2.509c-.308-.571-1.063-1.054-1.629-.452-.55.586-1.035,1.232-1.537,1.86a2.451,2.451,0,0,0-.2,2.017,1.4,1.4,0,0,0,1.132,1.1c.91.142,1.458-.975,1.571-1.693a2.666,2.666,0,0,0-.154-1.389,1.44,1.44,0,0,0-.729-.813c-.863-.263-1.267.62-1.427,1.3l-.018.077.286-.807a.686.686,0,0,1,.7-.3l.371,3.359c.459-.475.928-.94,1.347-1.451l-1.592-2.96a25.952,25.952,0,0,1-1.7,2.433c.2-.259-.046.055-.071.084-.076.092-.153.184-.231.274q-.234.273-.475.537c-.16.177-.324.351-.49.522l-.166.171c-.1.089-.116.108-.033.056s.067-.04-.04.006q.534.075.253-.053l.36,3.261c.157-.171.3-.331.449-.516.044-.059.089-.117.134-.175q-.189.23-.032.04c.168-.194.34-.384.523-.565s.375-.351.574-.514c.114-.093.23-.182.349-.269l.18-.128q-.21.144-.017.014L61.8,47.183c-.739.626-1.524,1.193-2.267,1.813-.361.3-.726.6-1.089.9a4.956,4.956,0,0,1-.6.434.312.312,0,0,1-.221.057c-.249-.058-.358.162-.408.37Z"/><path class="b" d="M66.461,20.781l-1.755.786.872,2.874a18.956,18.956,0,0,1,3.214-2.082l-.923-3.043a15.122,15.122,0,0,1-1.344,1.147c-.884.67-.37,3.667.888,2.928,1.032-.606,2.063-1.212,3.062-1.872s.942-3.594-.628-3.043q-1.15.4-2.3.807c-.245.086-2.027.769-1.992.8l.571,1.411-.1.452c.479-.873.349-3.165-1.134-2.764l-.593.083.834,2.791-.148.132c1.4-.234,1.4-3.232-.08-3.254-1.759-.026-2.972,1.147-3.885,2.569a4.952,4.952,0,0,0-.817,2.732,3.754,3.754,0,0,0,.4,1.6c.231.455.65.74.893,1.174l-.333-1.671a11.588,11.588,0,0,1-.422,1.753l2.154.827a6.532,6.532,0,0,0-.356-2.276c-.369-1.215-1.542-.877-1.955.048a3.249,3.249,0,0,0,.338,3.2c.613.852,1.395.395,1.743-.386.232-.52.476-1.034.712-1.551l-1.962-1.663-.3,1.028c-.247.851.221,3.421,1.586,2.292a40.444,40.444,0,0,1,6.972-4.626L68.7,20.775a20.537,20.537,0,0,0-5.667,5.886,2.541,2.541,0,0,0-.13,2.175c.191.44.79,1.156,1.348.791l3.789-2.476-.994-3.277L64.326,26.4a15.18,15.18,0,0,0-2.332,2.269,2.418,2.418,0,0,0,.314,2.869,1.054,1.054,0,0,0,.655.276c.294.034.284.152-.016-.125l-.493-2.5c.053-.209-.281.521-.336.63-.181.361-.356.726-.515,1.1a7.448,7.448,0,0,0-.634,2.151c-.1,1.028.51,2.985,1.833,2.043.77-.548,1-1.351,1.52-2.084a27.06,27.06,0,0,1,2.613-2.756L65.4,27.411a24.1,24.1,0,0,0-2.263,6.666c-.132.724.351,2.853,1.539,2.222a6.469,6.469,0,0,0,2.105-2.32c.682-.975,1.4-1.924,2.175-2.831a47.039,47.039,0,0,1,5.012-5.01L72.553,22.71a35.216,35.216,0,0,1-5.83,5.213l1.834,2.649A24.389,24.389,0,0,1,72.4,23.993l-2.244-1.34c-.059,1.406-.426,3.178.165,4.5a1.924,1.924,0,0,0,1.26,1.139c.806.2,1.272-.315,2.017-.443L72.35,25.5c-.251,1.077-1.46,1.859-2.328,2.391a2.007,2.007,0,0,0-.808,2.02c.063.534.455,1.7,1.214,1.551a9.333,9.333,0,0,0,6.681-4.908l-1.95-2.818-.347.7c-.432.875-.656,3.039.674,3.391a4.916,4.916,0,0,0,4.272-1.273,8.038,8.038,0,0,0,1.487-1.573A7.232,7.232,0,0,0,81.8,24.1c.121-.227.766-1.154.252-.675a2.838,2.838,0,0,0,.2-3.392c-.956-1.331-2.446-.919-3.77-.474a11.7,11.7,0,0,0-4.173,2.393c-.961.866-.6,4.614,1.123,3.7a19,19,0,0,0,3.758-2.61c.978-.875.842-3.618-.757-3.722-1.423-.092-2.628.819-3.763,1.569-.461.305-2.911,2.227-3.008,2.169l.813.907c.185.436.018.75.116.113.052-.335.059-.68.1-1.017a15.412,15.412,0,0,1,.371-1.915,2.681,2.681,0,0,0-.543-2.748c-1.381-1.15-3.173.3-4.226,1.277a15.537,15.537,0,0,0-1.8,2.074A6.993,6.993,0,0,1,65,23.635l1.51.886a4.915,4.915,0,0,1-.572-2.314c0-1.242-1.259-2.792-2.273-1.357a5.216,5.216,0,0,0-.765,2.969L65.1,22.358q-.488,1.994.461,1.193c.242-.123.481-.253.717-.388a13.589,13.589,0,0,0,1.345-.9,4.139,4.139,0,0,0,1.8-2.579,3.158,3.158,0,0,0-1-2.991,2.592,2.592,0,0,0-2.668-.032l1.549,2.892c.351-1.342,1.577-2.307,2.03-3.656.315-.936.585-1.892.89-2.832.267-.821.966-.8,1.8-.86.749-.056,3.337-.265,3.454.835.057.534-.787,1.478-1.083,1.873a6.975,6.975,0,0,1-2.014,1.934l1.561,2.912C74.537,18.2,75.17,16.653,75.8,15.1c.483-1.193.929-3.085-.359-4-.882-.627-2.461.133-3.27.633a7.093,7.093,0,0,0-2.61,2.817c-.536,1.049-.443,3.8,1.361,3.314a3.126,3.126,0,0,0,1.986-4.059c-.542-1.844-2.375-2.045-3.841-1.088l1.357,3.306c.127-.2,1.127-1.376,1.475-1l-.63-1.176c-.1-.375-.088.01-.217.25a3.121,3.121,0,0,1-.663.8l1.974,2.2a2.662,2.662,0,0,1,.338-1.251,2.718,2.718,0,0,0-.069-2.8,1.044,1.044,0,0,0-1.84.045c-.568.955-1.712,1.431-2.41,2.3a3.662,3.662,0,0,0-.446,4.177c1.6,2.422,4.8-.184,5.294-2.126.187-.736.2-3.116-1.174-2.9a4.98,4.98,0,0,0-3.949,3.233,2.527,2.527,0,0,0,.519,2.626,2.559,2.559,0,0,0,2.337.6c1.036-.166,1.427-.193,1.684.867l.8-2.3-.9.267c-1.237.368-1.107,3.21.087,3.555A4.165,4.165,0,0,0,76.5,22.6c.94-.723.651-2.5-.079-3.227-.334-.334-1.087-.844-1.252-1.292l.048,1.961.107-.273-.742.914c.338-.151.96.2,1.259.332,1.574.71,1.655-2.153,1.4-2.943a5.3,5.3,0,0,1,.306-1.572,10.647,10.647,0,0,0,.2-2.138c0-.731-.362-1.807-1.191-1.943s-1.311.777-1.411,1.473c-.137.963-1.041,1.772-1.608,2.519-.673.886-1.282,1.817-1.868,2.762-1.136,1.833-2.175,3.728-3.421,5.49-1.193,1.689-3.171,3.269-2.736,5.585.519,2.765,3.239,1.43,4.966.652l-1.459-2.723a2.956,2.956,0,0,0-.156,1.717c.071.418.4,1.2.891,1.288a1.437,1.437,0,0,0,.83-.037l-1.032-3.4.082-.056a2.184,2.184,0,0,0-.8,2.323c.146.678.711,1.621,1.543,1.27.423-.178.989-.072,1.562-.314l-1.264-3.077a2.061,2.061,0,0,1-.539.44c-1,.686-.671,2.9.373,3.375a3.464,3.464,0,0,0,.774.3L71.2,28.451l-.256-.107c-1.569-.737-1.94,2.882-.554,3.557a1.731,1.731,0,0,0,1.221.164c1.4-.315,1.68-3.144.233-3.63a3.467,3.467,0,0,1-.772-.311l.088,3.568a5.327,5.327,0,0,0,1.31-1.213c.668-.84.254-3.69-1.263-3.077-.424.171-.994.058-1.567.289l.742,3.593q.251-.163.5-.333c1.089-.753.6-3.967-1.032-3.4a.69.69,0,0,1-.11.031l.654-.016-.065-.013.892,1.288-.013-.082-.089,1.448.083-.186c.381-.857-.076-3.321-1.459-2.722-.464.2-2.141,1.087-2.659.87l.905,1.309q-.156.856.114.4a3.354,3.354,0,0,1,.356-.425c.264-.313.528-.622.784-.941q.649-.81,1.238-1.663c.905-1.313,1.712-2.691,2.546-4.05a39.753,39.753,0,0,1,2.558-3.783A8.625,8.625,0,0,0,77.715,14.9l-2.6-.47c0,.894-.35,1.765-.437,2.654a6.87,6.87,0,0,0,.37,3.044l1.4-2.943c-1.372-.571-2.934-.731-3.473.953-.657,2.057.942,3.3,2.3,4.5l-.079-3.227a1.951,1.951,0,0,1-2,.4l.088,3.555.9-.246c.821-.223.935-1.678.794-2.3a5.413,5.413,0,0,0-1.649-3.234,2.57,2.57,0,0,0-1.643-.508c-.555.007-1.407.409-1.858-.039l.519,2.626a2.323,2.323,0,0,1,1.811-1.238l-1.173-2.9c-.131.5-1.045,1.469-1.556.915l.62,1.158-.056-.353-.093,1.516c.181-.6.882-.963,1.351-1.327A5.781,5.781,0,0,0,72.7,15.843l-1.909-2.758a6.98,6.98,0,0,0-.974,3.013c-.069.918.631,3.451,1.974,2.2,1.527-1.424,2.958-4.457,1.616-6.44-1.382-2.04-4-.061-4.907,1.391a2.784,2.784,0,0,0-.146,2.425c.214.491.88,1.286,1.5.881.2-.131,1-.331,1.115-.437l-.241-2.3a2.386,2.386,0,0,1-.6.2l1.36,3.314a4.527,4.527,0,0,1,3.382-2.5l-.669-.257.142.145-.692-1.708q.252-1.031-.074-.1l-.179.443-.624,1.552c-.386.959-.774,1.916-1.172,2.87-.347.833.106,3.7,1.561,2.912a10.141,10.141,0,0,0,4.894-6.57c.475-2.792-.87-5.458-3.775-5.937a9.587,9.587,0,0,0-3.776.139,3.473,3.473,0,0,0-2.612,2.56,17.9,17.9,0,0,1-1.271,3.76,11.224,11.224,0,0,0-1.758,3.422c-.217.881.391,2.97,1.67,2.413a1.923,1.923,0,0,1,.756-.238l-.425-1.9c-.12-.028-.837.686-1.019.808a14.894,14.894,0,0,0-2.183,1.372,3.7,3.7,0,0,0-.345,4.69c1.1,1.493,2.146-.333,2.194-1.46-.033-.118-.007-.161.077-.126l-2.272-1.357a9.6,9.6,0,0,0,.969,4.33c.234.475.861,1.289,1.51.885a11.478,11.478,0,0,0,2.758-3.094c.641-.815,2.036-2.579,3.2-2.379l-.675-.259.193.162-.543-2.749c-.459,1.713-2.075,7.359.709,7.948,1.121.237,2.3-1.137,3.111-1.723,1.065-.772,2.6-2.146,3.984-2.059l-.757-3.721a13.561,13.561,0,0,1-3.151,2.129l1.122,3.7a8.487,8.487,0,0,1,2.523-1.468,13.733,13.733,0,0,1,1.416-.456,3.632,3.632,0,0,1,.6-.141q.523.105.041-.242l.2-3.392c-.73.678-.872,1.772-1.521,2.535-.59.7-1.915,1.837-2.911,1.605l.872,2.974.334-.716a2.629,2.629,0,0,0-.406-2.6,1.032,1.032,0,0,0-1.742.2,7.492,7.492,0,0,1-5.137,4.155l1,3.308a8.2,8.2,0,0,0,3.616-4.3c.229-.782.179-2.919-1.136-2.8-.209.019-1.373.427-1.475.32l.625,1.166a11.787,11.787,0,0,1,.09-2.988c.046-1.32-1.213-2.643-2.245-1.34a29.573,29.573,0,0,0-4.224,7.391c-.455,1.135.264,3.725,1.834,2.65a32.337,32.337,0,0,0,5.854-5.152,2.658,2.658,0,0,0,.405-2.753c-.322-.746-1.092-1.305-1.817-.675a41.235,41.235,0,0,0-4.69,4.821c-.71.857-1.4,1.734-2.046,2.639-.506.7-1.106,2.192-1.873,2.6L65.483,35a18.113,18.113,0,0,1,1.689-5.021,2.58,2.58,0,0,0,.035-2.422c-.309-.551-1.013-1.016-1.572-.436-.883.915-1.817,1.8-2.651,2.763-.556.639-.8,1.573-1.484,2.069l1.833,2.042c.117-1.242,1.059-2.258,1.355-3.445a2.273,2.273,0,0,0-.6-2.056c-.364-.332-.761-.283-1.211-.341l.613.235-.043-.041.314,2.869a15.5,15.5,0,0,1,2.19-2.022l2.372-2.228a2.3,2.3,0,0,0,.429-2.266c-.153-.488-.761-1.449-1.423-1.01l-3.784,2.5,1.218,2.966A18.74,18.74,0,0,1,69.946,23.8c.931-.733.474-3.979-.973-3.207A41.912,41.912,0,0,0,61.5,25.7l1.587,2.292.287-1.036a2.228,2.228,0,0,0-.456-2.307c-.663-.522-1.234.027-1.506.644-.178.4-.353.8-.552,1.2l1.577-.038-.027,1.284-1.91-.714a2.669,2.669,0,0,1,.1.953c-.05,1.295,1.7,2.583,2.153.827.429-1.645,1.277-3.759-.365-5.028.026.4.089.481.187.232q.127-.226.265-.447a7.022,7.022,0,0,1,.633-.825,1.443,1.443,0,0,1,1.506-.541l-.08-3.254a1.567,1.567,0,0,0-1.145.569c-.586.718-.838,3.084.62,3.054a2.3,2.3,0,0,0,.883-.1l-.844-2.83c-.541.978-.908,3.357.685,3.661.738.141,1.725-.456,2.386-.7.992-.365,1.991-.712,2.986-1.067l-.628-3.043a28.6,28.6,0,0,1-3.073,1.818l.639,3.1a16.969,16.969,0,0,0,1.638-1.207c.837-.708.528-3.718-.923-3.043a12.437,12.437,0,0,0-3.666,2.592,2.039,2.039,0,0,0-.377,1.987c.14.442.659,1.253,1.249.886l1.7-1.056c.952-.592.759-3.365-.571-2.769Z"/><path class="c" d="M71.246,32.636l.034.095a.758.758,0,0,0,.627.522,4.65,4.65,0,0,0,.885.112,3.579,3.579,0,0,0,1.05-.2,9.963,9.963,0,0,0,1.676-.812,6.861,6.861,0,0,0,1.521-1.186,4.578,4.578,0,0,0,.639-.845,3.563,3.563,0,0,0,.438-1.691,1.625,1.625,0,0,0-.649-1.377.78.78,0,0,0-1.084.342c-.029.052-.064.1-.094.152a.641.641,0,0,0-.1.2q-.162.337.009-.017c-.07.1-.131.213-.2.316-.081.131.191-.2.026-.032-.05.049-.1.1-.147.152-.091.09-.187.175-.287.256a1.738,1.738,0,0,1-.344.258c.127-.055.142-.095,0-.007-.066.043-.134.085-.2.127-.261.162-.516.332-.782.487s-.537.3-.813.435a3.648,3.648,0,0,0-.476.249c-.153.1-.168.113-.045.029l-.085.056c-.073.044-.143.091-.215.135a9.748,9.748,0,0,0-.905.67,1.2,1.2,0,0,0-.481.576,1.557,1.557,0,0,0-.007,1Z"/><path class="c" d="M76.126,28.746a1.648,1.648,0,0,0,.757,1.389,1.886,1.886,0,0,0,1.008.254,7.6,7.6,0,0,0,1.893-.316,6.407,6.407,0,0,0,2.906-1.857A8.2,8.2,0,0,0,84.5,25.075a6.327,6.327,0,0,0-.193-4.531c-.25-.49-.827-1.024-1.349-.5a1.964,1.964,0,0,0-.3,2.043q.141-2.413-.127-1.143l-.025.4a2.106,2.106,0,0,0,.152.747c.05.139.061.16.033.062-.056-.147.041.208.052.254.017.115.014.084-.011-.091,0,.063.007.127.007.191,0,.119,0,.085.01-.1-.009.083-.021.166-.034.249s-.068.469-.007.09c-.032.2-.118.438-.164.624.061-.251.04-.152-.019.037-.07.222-.155.436-.245.65-.15.354.154-.271-.034.065-.057.1-.111.2-.171.3-.119.2-.253.386-.388.575-.185.258.131-.129-.069.082-.093.1-.181.2-.276.3a6.3,6.3,0,0,1-.517.463c-.091.073-.185.144-.281.212-.071.051-.068.048.012-.009-.07.044-.141.088-.213.129a8.291,8.291,0,0,1-1.362.649,5.264,5.264,0,0,1-1.3.285,2.471,2.471,0,0,0-.87.27,1.512,1.512,0,0,0-.689,1.377Z"/><path class="b" d="M62.236,32.948a1.7,1.7,0,0,0-.068.571l.015-.241a.708.708,0,0,0-.032.251,1.419,1.419,0,0,0,.026.49l0,.024.009.064a1.207,1.207,0,0,0,.1.325l.145.269a.737.737,0,0,0,.1.115.44.44,0,0,0,.1.108l.058.046c.037.027.074.053.112.077.111.069.222.141.339.2a.471.471,0,0,0,.366.016.528.528,0,0,0,.337-.174.957.957,0,0,0,.248-.366,1.276,1.276,0,0,0,.153-.479l.023-.372a1.963,1.963,0,0,0-.142-.7l-.15-.279a.931.931,0,0,0-.414-.349,1.436,1.436,0,0,1-.238-.077l-.052-.023a.411.411,0,0,0-.141-.032c-.043-.01-.086-.017-.129-.023l-.234.054-.208.141-.009.007-.014.013c-.057.049-.106.1-.165.151l.1-.066a.418.418,0,0,0-.231.26Z"/><path class="b" d="M62.773,20.921a1.783,1.783,0,0,1,.5-.193l-.241.056a5.615,5.615,0,0,1,.645-.088,6.313,6.313,0,0,0,.883-.16c.232-.056.461-.123.685-.2.121-.043.24-.088.357-.137a1.448,1.448,0,0,0,.776-.915A2.206,2.206,0,0,0,66.4,17.89a1.368,1.368,0,0,0-.225-.5,1.038,1.038,0,0,0-.462-.39.8.8,0,0,0-.662-.021c-.067.031-.13.08-.194.118q-.195.114-.4.216c-.277.14-.564.25-.85.37a4.56,4.56,0,0,0-1.557.859,1.687,1.687,0,0,0-.312,1.644,1.211,1.211,0,0,0,.367.617.619.619,0,0,0,.666.116Z"/><path class="b" d="M59.266,28.222a3.023,3.023,0,0,0,.355.925,3.894,3.894,0,0,0,.331.435,4.718,4.718,0,0,0,1.24.94,4.375,4.375,0,0,0,.964.386c.17.052.341.1.512.146a2.041,2.041,0,0,0,.789.149l.3-.069a.849.849,0,0,0,.376-.316,1.819,1.819,0,0,0,.381-.9,3,3,0,0,0-.022-.912,1.743,1.743,0,0,0-.543-1.012,1.29,1.29,0,0,0-.457-.234l-.245-.046c-.163-.032-.327-.066-.49-.1-.332-.075-.655-.183-.988-.251a8.536,8.536,0,0,1-.9-.269c-.138-.045-.283-.068-.422-.115a1.531,1.531,0,0,0-.561-.057c-.578.009-.713.894-.613,1.3Z"/><path class="b" d="M62.664,24.376l.218.241.109.12.057.063a.958.958,0,0,0,.19.121l.035.021.24.146a.259.259,0,0,0,.029.014,1.04,1.04,0,0,0,.193.034l.06,0,.12.006a.434.434,0,0,0,.284-.125.806.806,0,0,0,.2-.316,1.244,1.244,0,0,0-.022-.873l-.062-.152-.032-.08a.373.373,0,0,0-.016-.035,1.287,1.287,0,0,0-.123-.221l-.21-.254-.024-.029a1.427,1.427,0,0,0-.165-.182c-.02-.016-.043-.03-.064-.045l-.122-.084-.251-.172a.391.391,0,0,0-.255-.116.35.35,0,0,0-.27.025.5.5,0,0,0-.225.19.72.72,0,0,0-.168.294,1.491,1.491,0,0,0-.049.8l.075.245a.933.933,0,0,0,.252.364Z"/><path class="b" d="M78.78,17.358a1.168,1.168,0,0,0-1.328.073,3.153,3.153,0,0,0-.763.99,2.542,2.542,0,0,0-.128,2.138c.256.557.687.96,1.325.777a3.065,3.065,0,0,0,1.859-2.119,6.165,6.165,0,0,0,.241-1.967A7.511,7.511,0,0,0,79.8,15.6c-.192-.712-.639-1.552-1.486-1.566a1.718,1.718,0,0,0-1.483,1.205,5.171,5.171,0,0,0-.348,1.654,6.792,6.792,0,0,0,.114,2.152c.13.542.427,1.181,1.033,1.29.578.1,1-.409,1.179-.905a8.516,8.516,0,0,0-.159-4.993c-.043-.178-.084-.355-.118-.534q-.03-.153-.054-.306c.019.209.022.244.011.106,0-.093-.03-.662-.034-.2a2.816,2.816,0,0,1,.072-.473c.192-1.049.147-2.587-.97-3.107a.889.889,0,0,0-.9.2,1.96,1.96,0,0,0-.534,1.65,2.647,2.647,0,0,0,.189.93l-.125-.621c-.028-.549-.007-.095-.037.077a7.584,7.584,0,0,0,.04,2.624c.115.646.315,1.273.45,1.915.034.162.056.326.088.489q.03.208-.014-.138c.008.093.013.186.016.28,0,.069,0,.139,0,.208,0,.141,0,.093.007-.145-.012.092-.027.182-.046.272.056-.217.053-.231-.007-.042l2.213.385a2.068,2.068,0,0,1-.051-.217c-.025-.136-.023-.1,0,.119-.036-.061-.009-.226-.012-.3-.019-.474-.059.361,0-.112.016-.124.03-.248.05-.372.034-.219.059-.213-.012,0a.517.517,0,0,1-.372.439q-.3.224-.494-.228a.693.693,0,0,1-.421-.533l.014.1c0,.115.126.493.014.106a1.6,1.6,0,0,1,.024.366c.007.2.03.279.02.033,0,.048-.052.46-.013.2s0,.1-.051.125q.133-.261.05-.109a1.5,1.5,0,0,1-.089.144c.083-.152.095-.1-.025.015-.074.07-.223.114-.036.043-.1.04-.2.09-.307.123l1.369,2.555c.044-.167.095-.328.15-.492.093-.281-.095.157.067-.128a5.286,5.286,0,0,0,.383-1.247c.123-.429.09-1.064-.377-1.285Z"/><path class="b" d="M76.353,9.591A2.181,2.181,0,0,0,76.141,8.3a2.285,2.285,0,0,0-.657-.875,2.667,2.667,0,0,0-.75-.4,7.408,7.408,0,0,0-.847-.178,2.465,2.465,0,0,0-1.375.187,3.19,3.19,0,0,0-.684.43,2.379,2.379,0,0,0-.781,1.912,2.421,2.421,0,0,0,.3,1.14,1.3,1.3,0,0,0,.662.662l.026.008a.944.944,0,0,0,.977-.22,1.768,1.768,0,0,1,.357-.317l-.3.2a2.078,2.078,0,0,1,.615-.261l-.333.076c.235-.053.469-.1.7-.161l-.327.075a5.823,5.823,0,0,1,.911-.108,4,4,0,0,1,.773-.015l-.246-.045a1.27,1.27,0,0,1,.158.042.667.667,0,0,0,.5,0c.326-.1.5-.569.538-.865Z"/><path class="b" d="M82.8,22.557l.008-.2-.126.513a2.722,2.722,0,0,0,.4-.617,1.234,1.234,0,0,0,.152-.488q-.307.936-.739.653-.056-.033-.108-.069l-.3-.721q.329-1.245.028-.776a2.67,2.67,0,0,1-.163.217c-.09.118-.185.232-.277.348-.151.188-.287.354-.446.545-.4.476-.8.944-1.236,1.388a11.785,11.785,0,0,1-2.723,2.229c-.983.534-2.051.884-3.062,1.36a7.908,7.908,0,0,0-3.006,2.361c-.671.876-.423,2.774.645,3.244a2.366,2.366,0,0,0,1.678.134c.655-.183.9-1.293.87-1.852-.031-.577-.265-1.657-.959-1.807a4.49,4.49,0,0,1-1-.251l.645,3.244c-.135.171.236-.233.279-.273a4.972,4.972,0,0,1,.484-.4c.115-.081.644-.374.928-.513.737-.359,1.5-.655,2.25-.991a11.67,11.67,0,0,0,4.3-3.256c.626-.763,1.207-1.557,1.763-2.372.7-1.036,1.381-2.076,1.1-3.4-.209-.991-1.311-2.152-2.3-1.258a2.377,2.377,0,0,0-.541,2.115,2.282,2.282,0,0,0,.649,1.216l-.151-.506.021.194c.029.262.131.7.476.687s.431-.452.441-.709Z"/><path class="d" d="M81.867,22.179c1.045,0,1-2.367-.058-2.367s-1,2.367.058,2.367Z"/><path class="b" d="M82.224,21.966l.1-.06.193-.13a.865.865,0,0,0,.222-.327.746.746,0,0,0,.1-.278,1.331,1.331,0,0,0,.059-.483l-.037-.331-.09-.3a.873.873,0,0,0-.22-.344.613.613,0,0,0-.284-.217l-.025-.009.635,1.194a.451.451,0,0,0,0-.052,2.043,2.043,0,0,0-.147-.725l-.009-.023.1.345,0-.012.044.387a.1.1,0,0,1,0-.017l-.025.39,0-.014-.088.354,0-.015-.144.3a.633.633,0,0,1,.072-.1l.077-.1a1.42,1.42,0,0,0,.2-.521,1.724,1.724,0,0,0,.075-.619L83,19.839a1.469,1.469,0,0,0-.2-.54.755.755,0,0,0-.2-.283.79.79,0,0,0-.365-.278l-.281-.05a.788.788,0,0,0-.525.231,1.071,1.071,0,0,0-.109.133q-.056.066-.108.135a1.919,1.919,0,0,0-.254.716,2.457,2.457,0,0,0,.021.855l.116.382a1.472,1.472,0,0,0,.393.567.6.6,0,0,0,.4.181.534.534,0,0,0,.42-.039,1.069,1.069,0,0,0,.456-.425,1.919,1.919,0,0,0,.254-.716l0-.018-2.076-.375c0,.088-.011.176-.011.264a2.191,2.191,0,0,0,.156.78,1.436,1.436,0,0,0,.371.539,1.292,1.292,0,0,0,.254.156.483.483,0,0,0,.378.016.215.215,0,0,0,.129-.03.957.957,0,0,0,.407-.38q.087-.167.159-.339l-.7.638.019,0-.631-2.116-.078.116-.119.248a1.289,1.289,0,0,0-.083.454.923.923,0,0,0,.008.323,1.276,1.276,0,0,0,.106.449l.13.243.166.186a.464.464,0,0,0,.3.137.409.409,0,0,0,.317-.03Z"/><path class="e" d="M81.987,28.806a5.165,5.165,0,0,1-.382.492,1.667,1.667,0,0,0,.054,2.207c.759.831,1.773-.54,2.263-1.049a5.81,5.81,0,0,0,.86-1.014,2.8,2.8,0,0,0,.355-.987,2.871,2.871,0,0,0,.028-.6l-.046-.414q-.061-.421.012.524l-.25.705.045-.056-.45.42c-.157.018-.19.027-.1.027s.057,0-.074-.009c-.216-.1-.065-.031.013.036a1.008,1.008,0,0,0,.8.312l-.623-3.064c-.455.5-.9,1-1.37,1.482a4.279,4.279,0,0,1-.332.314c-.064.055-.132.1-.2.156-.115.092.2-.1-.01,0a4.518,4.518,0,0,1-.887.349l.305-.07a3.438,3.438,0,0,1-1.337.029l.307.055A3.251,3.251,0,0,0,79.8,28.54a2.469,2.469,0,0,0-1.258.538,2.125,2.125,0,0,0-.466,1.932c.124.516.468,1.25,1.107,1.221a4.994,4.994,0,0,0,.957-.257l-.3.07a1.873,1.873,0,0,1,.7.01L80.239,32a4.559,4.559,0,0,0,1.66.11,4.089,4.089,0,0,0,1.544-.549A9.834,9.834,0,0,0,85.87,28.9a2.237,2.237,0,0,0,.12-2c-.232-.5-.653-.928-1.243-.729.39-.132.78.209.454-.016a1.339,1.339,0,0,0-.454-.228,1.231,1.231,0,0,0-.87.046,1.624,1.624,0,0,0-.782,1.28,2.9,2.9,0,0,0,.029.916c.064.313-.068.225.021-.388a.567.567,0,0,1,.07-.252q.072-.144-.021.021c-.057.083-.112.166-.171.248-.136.185-.277.368-.417.55s-.282.363-.425.543l-.144.179c.044-.054.042-.052-.005.006a1.122,1.122,0,0,1-.1.11.291.291,0,0,1,.314-.025l.547,1.866c.1-.308.236-.6.367-.9a1.442,1.442,0,0,0-.222-1.424.572.572,0,0,0-.954.11Z"/><path class="e" d="M73.8,33.091a1.326,1.326,0,0,0,.845.022c.3-.044.6-.109.895-.181a10,10,0,0,0,1.6-.493,14.564,14.564,0,0,0,3.138-1.691,1.314,1.314,0,0,0,.249-1.315c-.1-.315-.425-.8-.826-.586-.5.266-.964.589-1.453.873q-.762.443-1.555.826c-.52.251-1.019.54-1.535.8a4.122,4.122,0,0,0-1.515.941.592.592,0,0,0,.16.806Z"/><path class="b" d="M72,32.059a2.875,2.875,0,0,0,1.784.1,8.753,8.753,0,0,0,1.832-.529,6.157,6.157,0,0,0,1.643-1.036,4.032,4.032,0,0,1,1.4-1.037,6.24,6.24,0,0,0,1.838-.9,6.607,6.607,0,0,0,1.34-1.523,5.992,5.992,0,0,0,1.237-4.784c-.155-.578-.612-1.432-1.352-1.112s-.8,1.373-.7,2.034a1.48,1.48,0,0,1,.021-.3,1.544,1.544,0,0,1-.106.324,3.272,3.272,0,0,1-.328.668c-.276.487-.538.991-.86,1.449a2.509,2.509,0,0,1-.95.8,8.783,8.783,0,0,0-1.653.829,11.533,11.533,0,0,0-1.117,1.137,7.352,7.352,0,0,1-1.223,1,12.262,12.262,0,0,0-2.912,1.888c-.223.26-.254.831.11,1Z"/><path class="b" d="M78.072,28.771a2.161,2.161,0,0,0,.722.652,1.763,1.763,0,0,0,.934.2,3.171,3.171,0,0,0,1.809-.766,1.847,1.847,0,0,0,.348-1.837c-.13-.428-.6-1.137-1.155-.82a10,10,0,0,1-2.53,1.129l.279-.064c-.061.014-.121.027-.182.039a1.01,1.01,0,0,0-.736.49,2.077,2.077,0,0,0-.281,1.145,2.038,2.038,0,0,0,.337,1.13c.172.223.445.5.759.453.706-.1,1.414-.18,2.12-.279a3.057,3.057,0,0,0,1.937-.884A3.216,3.216,0,0,0,83,25.973,1.636,1.636,0,0,0,81.669,24.9a1.35,1.35,0,0,0-1.21.722,2.162,2.162,0,0,0,.577,2.9c.216.123.432.247.65.367l-.266-.162c.095.067.186.143.281.208a1.829,1.829,0,0,1-.061-2.348c-.031.03-.062.06-.094.088a2.652,2.652,0,0,0-.619.916c-.37.849-.06,2.428,1.027,2.536a1.853,1.853,0,0,0,1.712-1.365,3.545,3.545,0,0,0-.376-3.038c-.061-.1-.132-.186-.2-.277-.034-.045-.067-.093-.1-.137-.127-.158.031.082.057.132-.121-.23.056.233.065.31.051.42.036-.22.007.2-.024.337.015-.107.024-.192.046-.422.071-.844.1-1.266a7.991,7.991,0,0,0,.036-.953,2.347,2.347,0,0,0-.26-1.006,1.144,1.144,0,0,0-.584-.584,1.021,1.021,0,0,0-1.219.8,11.556,11.556,0,0,0-.3,1.753,7.422,7.422,0,0,0-.032,2.008,3.5,3.5,0,0,0,.76,1.578c.035.044.069.09.1.137-.108-.219-.137-.274-.088-.167a.894.894,0,0,1,.047.115,1.363,1.363,0,0,1-.114-.548,1.454,1.454,0,0,1,.2-.763c-.078.119-.052.089.08-.091a.787.787,0,0,1-.119.1L82,26.685a.99.99,0,0,1-.2.092l.3-.068a.836.836,0,0,1-.223.016L82.9,29.26l-.112.236-.139.169c0-.026.094-.095.116-.118a2.649,2.649,0,0,0,.364-.436,2.614,2.614,0,0,0,.284-1.936,2.071,2.071,0,0,0-.834-1.28c-.26-.173-.5-.385-.737-.582l.3,2.733-.146.2-.271.183a.436.436,0,0,1,.1-.047l-.306.07a.619.619,0,0,1,.177-.012l-.31-.056a.637.637,0,0,1,.174.058l-.284-.173c.146.1-.086-.122-.1-.142q.153.209-.076-.237a.836.836,0,0,1-.135-.452.894.894,0,0,1,0-.318c.017-.17.019-.211.006-.122-.025.155.145-.413.03-.15.02-.047.171-.3.055-.137.035-.048.2-.2.067-.083a2.9,2.9,0,0,1-.307.257l.256-.174a3.017,3.017,0,0,1-.929.37l.28-.065a19.626,19.626,0,0,1-2.12.286l.358,3.153a7.677,7.677,0,0,0,2.882-1.6l-1.033-2.5a4.788,4.788,0,0,1-.549.526c-.108.093-.216.184-.332.267.079-.056.044-.029-.017.007s-.124.072-.187.105c-.232.122-.484.309-.667.419a5.964,5.964,0,0,0-.645.525.473.473,0,0,0-.035.573Z"/><path class="b" d="M82.761,26.67a1.082,1.082,0,0,0,.127-.02l-.189-.034.052.021a.623.623,0,0,0,.637-.144,1.952,1.952,0,0,0,.4-.56,3.435,3.435,0,0,0,.385-1.072,10.67,10.67,0,0,0,.075-1.517,1.778,1.778,0,0,0-.7-1.492.715.715,0,0,0-.565-.1,1.048,1.048,0,0,0-.611.47,2.117,2.117,0,0,0-.323,1.259,2.287,2.287,0,0,0,.368,1.25,1.158,1.158,0,0,0,1.028.583,1.5,1.5,0,0,0,1.134-1.037,3.9,3.9,0,0,0,.2-1.3l-.028.434c0-.034.006-.069.011-.1l-1.547,1.012a.262.262,0,0,1,.06.045l-.223-.249a.283.283,0,0,1,.044.059l-.175-.325a.308.308,0,0,1,.03.07l-.117-.385a.485.485,0,0,1,.014.076l-.049-.431a.407.407,0,0,1,0,.078l.028-.433a.468.468,0,0,1-.016.083l.1-.39a.818.818,0,0,1-.032.087l.158-.333a1.791,1.791,0,0,1-.145.241,1.848,1.848,0,0,0-.256.724,2.359,2.359,0,0,0,.079,1.056,1.651,1.651,0,0,0,.345.641.842.842,0,0,0,.654.333,1.691,1.691,0,0,0,1.427-1.525,2.1,2.1,0,0,0-.422-1.69.873.873,0,0,0-.51-.306.361.361,0,0,0-.283.007.61.61,0,0,0-.389.2,1.862,1.862,0,0,0-.407.657l.158-.333a.478.478,0,0,1-.047.064l.21-.259a.748.748,0,0,1-.089.08L83.61,22a.61.61,0,0,1-.181.08l.282-.065a.438.438,0,0,1-.08.01l.822,2.754a2.773,2.773,0,0,0,.479-1.587,2.152,2.152,0,0,0-.706-1.705.809.809,0,0,0-.545-.209.607.607,0,0,0-.409.15,1.53,1.53,0,0,0-.593,1.071c-.023.153-.022.308-.058.459l.1-.394a.588.588,0,0,1-.026.074l.16-.336a.727.727,0,0,1-.06.1l.212-.262a.563.563,0,0,1-.082.08l.253-.172a.367.367,0,0,1-.1.045l.286-.066a.213.213,0,0,1-.071,0l.289.052a.3.3,0,0,1-.092-.036l.263.16a.232.232,0,0,1-.05-.044l.226.253a.253.253,0,0,1-.037-.055l.178.33-.012-.03.12.393-.007-.031.049.439v-.03l-.028.44.005-.029-.1.4.01-.029-.162.338.017-.027L82.08,23.4c.025.3.048.6.046.9s.032.582.014.874l.023-.364c-.007.079-.018.157-.027.236a2.189,2.189,0,0,0,.13,1.087l-.109-.54c0,.077-.015.284.01-.043a1.345,1.345,0,0,0,.124.778c.089.165.255.364.47.341Z"/><path class="a" d="M36.14,70.734a8.1,8.1,0,0,0,2.988-.8,1.365,1.365,0,0,0,.458-1.59,1,1,0,0,0-.421-.607.432.432,0,0,0-.3-.094.584.584,0,0,0-.383.169l-.041.029.179-.122a7.96,7.96,0,0,1-2.644,1.159l.164-.038-.048.011a.6.6,0,0,0-.431.287,1.217,1.217,0,0,0-.164.669,1.192,1.192,0,0,0,.2.661.546.546,0,0,0,.444.265Z"/><path d="M52.182,31.062c2.279-.826,5.437,1.045,7.237,2.308a22.49,22.49,0,0,1,4.34,4.658c2.354,2.934,4.254,6.769,1.393,10.034a54.114,54.114,0,0,1-6.749,5.8c-7.654,6.236-15.546,12.174-23.267,18.326-3.94,3.139-7.813,6.372-11.839,9.4a21.8,21.8,0,0,1-4.709,3.141c-.841.331-1.656.341-1.3-.748a12.287,12.287,0,0,1,1.4-2.3q1.4-2.259,2.849-4.491C24.96,71.9,28.569,66.725,31.9,61.369q2.612-4.207,4.958-8.571c1.235-2.309,2.327-4.684,3.7-6.913A129.628,129.628,0,0,1,48.032,34.71,8.342,8.342,0,0,1,52.6,31.4c3.124-.685,5.992,1.465,8.121,3.479.829.784,1.311-1.279.67-1.886-2.093-1.982-4.741-3.938-7.768-3.881a7.832,7.832,0,0,0-5.281,2.506,25.354,25.354,0,0,0-2.8,3.612q-2.13,3.084-4.18,6.224c-3.438,5.265-6.044,10.978-9.289,16.363C28.487,63.772,24.5,69.466,20.7,75.284q-1.632,2.5-3.213,5.029c-.837,1.342-2.014,2.825-1.959,4.5a2.24,2.24,0,0,0,2.24,2.34,5.057,5.057,0,0,0,2.537-1,122.872,122.872,0,0,0,11.256-8.654C40.5,70.216,49.7,63.245,58.549,55.849c2.5-2.09,5.4-4.1,7.459-6.643a8,8,0,0,0,.7-8.823,25.261,25.261,0,0,0-4.584-6.209,13.757,13.757,0,0,0-6.963-4.008,4.916,4.916,0,0,0-3.137.153c-.287.135-.206.874.154.743Z"/><path d="M60.411,33.236c.606-.116,1.074-.726,1.5-1.142.482-.473.931-.971,1.368-1.486a41.646,41.646,0,0,0,2.629-3.434,6.869,6.869,0,0,0,1.622-3.708,3.231,3.231,0,0,0-2.106-2.844c-.609-.3-.753,1.078-.342,1.362a5.571,5.571,0,0,1,1.171.919c.359.433.211.9-.014,1.369A21.572,21.572,0,0,1,64.4,27.179c-.657.944-1.352,1.862-2.089,2.745-.379.453-.75.914-1.131,1.366a5.018,5.018,0,0,0-.991,1.386c-.053.138-.026.609.227.56Z"/><path d="M61.931,30.488a4.794,4.794,0,0,1-2.159-1.943.823.823,0,0,1,.236-.9c.314-.276.751-.176,1.116-.332.947-.405.679-1.625.209-2.271-.64-.881-.263-1.891.107-2.814.216-.541.454-1.074.617-1.634.079-.274.147-.553.2-.833.036-.187.017-.516.151-.671.224-.257,1.062-.159,1.391-.334.452-.241.727-.7,1.157-.961a2.225,2.225,0,0,1,2.64.271,2.6,2.6,0,0,0,1.165.719c.38.088,1.034-.015,1.323.287.31.324.325.885.663,1.23.375.383.871.312,1.286.584,1.057.69-.149,2.064-.664,2.68-.543.65.028,2.347.759,1.412C73.257,23.533,74.271,21.5,73,19.8a1.99,1.99,0,0,0-.937-.7,3.009,3.009,0,0,1-.559-.14c-.207-.122-.227-.324-.307-.538A2.1,2.1,0,0,0,69.278,17c-.954-.18-1.448-1.124-2.41-1.377a3.06,3.06,0,0,0-2.534.427c-.374.261-.673.762-1.105.923-.455.169-.931.043-1.352.355-.827.613-.736,1.807-1.025,2.692a14.755,14.755,0,0,0-1.059,3.558,4.61,4.61,0,0,0,.149,1.6,3.374,3.374,0,0,0,.307.743c.05.087.1.174.156.257.028.04.249.371.23.26l.042-.686c.073-.229.025-.106-.194-.058a3.008,3.008,0,0,0-.539.132,1.845,1.845,0,0,0-.757.612,2.992,2.992,0,0,0-.523,2.188c.218,1.583,1.717,2.516,3.078,3.078.579.238.616-.972.189-1.213Z"/><path d="M67.48,16.1c-.154-1.137-.671-2.736.732-3.266.415-.157.507-.846.415-1.2-.151-.594.488-1.188.87-1.582a17.783,17.783,0,0,1,1.54-1.429,3.8,3.8,0,0,1,3.6-.966,1.683,1.683,0,0,1,1.105.961,3.523,3.523,0,0,0,.92,1.715c.432.349,1.2.481,1.411,1.038.244.63-.23,1.456-.475,2.017-.221.507-.035,1.443.611,1.509a1.71,1.71,0,0,1,1.28.8c.3.494.075.84-.1,1.342a3.467,3.467,0,0,0-.179,1.853c.059.3.194.438.012.691a1,1,0,0,1-.784.333c-.889.041-.843,1.983.05,2a2.2,2.2,0,0,0,2.083-1.739,3.5,3.5,0,0,0-.044-1.624c-.091-.5.19-.883.324-1.366a3.374,3.374,0,0,0-2.688-4.318l.611,1.509c.736-1.69,1.251-4.183-.653-5.338-.355-.215-.805-.333-1.017-.709-.245-.432-.264-.945-.545-1.378a3.181,3.181,0,0,0-1.79-1.3c-1.8-.517-3.466.384-4.789,1.559-1.4,1.248-3.11,2.9-2.562,4.967l.416-1.2c-2.244.882-2.031,3.92-1.181,5.693.381.794.909-.015.834-.564Z"/><path d="M80.4,19.72a4.814,4.814,0,0,1,2.117-.158c.518.12,1.491.7,1.009,1.329-.261.339-.147,1.2.367,1.23A1.05,1.05,0,0,1,84.9,23.194a2.693,2.693,0,0,1-.9,1.483c-.363.389-.429,1.426.183,1.647a7.013,7.013,0,0,1,1.229.533c.142.087.467.267.513.429.031.106-.033.183-.1.317a19.731,19.731,0,0,1-1.639,2.686,4.012,4.012,0,0,1-1.937,1.577c-1.016.307-1.931-.241-2.9-.449a3.755,3.755,0,0,0-2.576.382,6.044,6.044,0,0,1-2.527,1.106c-.97.024-1.016-.884-1.852-1.092-.466-.116-.767-.1-1.079-.513a4.131,4.131,0,0,1-.535-1.116c-.406-1.115-1.448-.019-1.2.81.31,1.027.734,2.308,1.83,2.745.185.074.382.071.569.13.394.124.384.269.678.541a2.18,2.18,0,0,0,1.427.557c1.231.047,2.189-.748,3.2-1.327a2.307,2.307,0,0,1,1.91-.357,19.7,19.7,0,0,0,1.953.667c2.423.417,4.042-2.271,5.071-4.041.628-1.081,1.359-2.192.855-3.479a3.458,3.458,0,0,0-2.617-1.856l.3,1.5a4.6,4.6,0,0,0,1.126-3.493,2.138,2.138,0,0,0-2.026-1.915l.367,1.23a2.271,2.271,0,0,0-.312-2.807c-.985-.984-2.5-.524-3.58.025-.185.094-.189.66.068.6Z"/><path d="M80.219,24.816c-2.31-3.132-6.309-.208-8.357,1.735-1.354,1.283-2.365,2.85-3.6,4.236-1.377,1.54-2.868,2.974-4.307,4.454a1.57,1.57,0,0,0-.242,1.643c.17.394.689.836,1.084.4,1.222-1.338,2.5-2.631,3.665-4.017,1.139-1.352,2.095-2.822,3.164-4.225,1.574-2.062,5.643-6.9,8.352-3.835.223.253.378-.21.244-.393Z"/><path d="M60.821,34.712c.1.161.2.327.316.479a2.485,2.485,0,0,0,.446.417,6.084,6.084,0,0,0,.986.657,8.408,8.408,0,0,0,.966.427,3.614,3.614,0,0,0,1.131.277c.352.009.5-.464.518-.733.02-.314-.076-.777-.413-.9-.318-.118-.658-.165-.984-.259a8.016,8.016,0,0,1-.95-.34c-.293-.126-.591-.247-.878-.386a3.174,3.174,0,0,0-.446-.219c-.146-.043-.3-.068-.447-.109-.369-.1-.367.5-.245.692Z"/><path d="M47.614,59.1a3.081,3.081,0,0,0,.689.674,3.546,3.546,0,0,0,.448.266,1.888,1.888,0,0,0,.206.09,1.092,1.092,0,0,0,.313.038.4.4,0,0,0,.307-.2.871.871,0,0,0,.112-.389.9.9,0,0,0-.063-.427.513.513,0,0,0-.271-.3,1.869,1.869,0,0,0-.322-.079c-.074-.008-.147-.017-.22-.03l.115.021a2.381,2.381,0,0,1-.8-.3l.083.051a2.572,2.572,0,0,1-.233-.165c-.157-.126-.326-.028-.4.133a.648.648,0,0,0,.04.627Z"/><path d="M35.414,66.8A17.021,17.021,0,0,0,33.9,65.627c-.486-.38-.99-.749-1.443-1.168-.1-.092-.2-.187-.291-.284-.048-.049-.094-.1-.14-.149-.061-.066.05.065-.043-.051-.169-.211-.33-.424-.483-.647-.074-.11-.144-.222-.213-.335-.138-.225.091.176-.033-.057-.056-.107-.112-.214-.178-.315-.153-.234-.314-.593-.6-.683-.306-.1-.533.148-.631.413a2.977,2.977,0,0,0,.576,2.431,6.153,6.153,0,0,0,1.3,1.393,8.033,8.033,0,0,0,3.539,1.608c.189.021.3-.251.322-.392a.678.678,0,0,0-.173-.588Z"/><path d="M60.1,46.847c-.264-.224-.51-.489-.78-.7-.243-.191-.53-.342-.786-.517-.538-.367-1.057-.762-1.572-1.161a8.789,8.789,0,0,1-1.241-1.119c-.135-.154-.344-.389-.454-.516-.091-.106-.169-.221-.256-.33a1.3,1.3,0,0,0-.334-.256c-.376-.236-.6.209-.593.544a2.324,2.324,0,0,0,.317,1.134,3.364,3.364,0,0,0,.585.787,7.976,7.976,0,0,0,1.42,1.064,17.351,17.351,0,0,0,1.756.934,7.834,7.834,0,0,0,.916.4,3.28,3.28,0,0,0,.455.065c.168.027.337.052.5.075s.148-.332.062-.405Z"/><path d="M37.837,61.294a2.271,2.271,0,0,0-.551-.662c-.2-.176-.378-.37-.579-.542-.375-.321-.739-.654-1.116-.972-.174-.147-.346-.3-.511-.455-.09-.086-.178-.174-.265-.264-.039-.041-.077-.082-.115-.124.09.1-.013-.016-.03-.036a5.181,5.181,0,0,1-.42-.566c-.166-.262-.338-.6-.7-.6-.3.006-.44.354-.49.6a2.328,2.328,0,0,0,.759,1.87A9.423,9.423,0,0,0,35,60.688a11.986,11.986,0,0,0,1.228.857c.4.252,1.081.616,1.529.311.153-.105.149-.419.082-.562Z"/><path d="M25.905,76.045a4.125,4.125,0,0,1-.352-.248,2.5,2.5,0,0,0-.415-.243,2.236,2.236,0,0,1-.322-.194,3.879,3.879,0,0,1-.344-.269c-.1-.091-.2-.184-.307-.276-.055-.05-.109-.1-.161-.154-.024-.024-.047-.049-.07-.073-.091-.095.045.057,0,0-.109-.135-.216-.272-.329-.4.094.111-.03-.038-.056-.071-.047-.059-.091-.121-.134-.183a.309.309,0,0,0-.521-.035.817.817,0,0,0-.083.781,4.3,4.3,0,0,0,.224.482,2.4,2.4,0,0,0,.361.474,2.711,2.711,0,0,0,.755.6,3.288,3.288,0,0,0,.8.29,1.068,1.068,0,0,0,.507.035,3.373,3.373,0,0,0,.428-.135c.121-.046.129-.308.023-.375Z"/><path d="M47.907,46.358c-.439-.4-.845-.829-1.289-1.222-.427-.378-.838-.782-1.242-1.185-.095-.095-.189-.192-.281-.29-.046-.049-.092-.1-.137-.148s-.114-.129-.026-.027c-.183-.213-.363-.428-.534-.65s-.344-.437-.508-.661c-.078-.106-.15-.217-.229-.322.057.075-.388-.4-.151-.168-.052-.053-.1-.114-.146-.17-.135-.158-.318-.352-.553-.33a.65.65,0,0,0-.46.263,1.546,1.546,0,0,0-.162,1.517,7.259,7.259,0,0,0,1.192,1.758A12.525,12.525,0,0,0,44.6,45.905a8.754,8.754,0,0,0,1.5,1,5.246,5.246,0,0,0,1.545.5c.542.107.553-.783.262-1.047Z"/><path d="M48.947,54.533a4.411,4.411,0,0,0,1.1,1.366,8.513,8.513,0,0,0,1.327,1.043A13.071,13.071,0,0,0,54.4,58.389c.744.243.9-1.364.244-1.565a11.99,11.99,0,0,1-2.819-1.268c-.429-.269-.848-.561-1.261-.854-.21-.148-.415-.3-.614-.466a2.04,2.04,0,0,0-.657-.431c-.383-.124-.441.5-.346.728Z"/></svg>