<svg xmlns="http://www.w3.org/2000/svg" width="100" height="100" viewBox="0 0 100 100"><defs><style>.a{fill:#438243;}.b{fill:#429642;}.c{fill:#77ad77;}.d{fill:#fff;}.e,.f{fill:none;stroke:#000;}.e{stroke-width:0.636px;}.f{stroke-width:0.611px;}</style></defs><title>artichoke</title><path class="a" d="M50.029,72.2c3.861,0,3.867-6,0-6s-3.867,6,0,6Z"/><path class="a" d="M44.119,50.358a8.8,8.8,0,0,0-.842,2.362,3.016,3.016,0,0,0,4.407,3.388c.262-.12.525-.237.786-.358.605-.283-.331.056.108-.015h-1.6l.137.024L45.8,54.987l.1.092-.772-1.324q-.1-.818-.111-.343a2.982,2.982,0,0,0,.41,1.514,2.942,2.942,0,0,0,1.495,1.346,9.771,9.771,0,0,0,2.356.492,3.078,3.078,0,0,0,3.69-2.1c.327-1.434-.437-3.433-2.095-3.69a11.834,11.834,0,0,1-2-.341l1.793,1.379L50.6,51.9l.409,1.514a3.251,3.251,0,0,0-2.432-3.463c-1.452-.322-2.651.4-3.922.978l4.407,3.388c.044-.249.107-.482.164-.727.14-.6-.225.4.073-.2a3,3,0,0,0-5.181-3.029Z"/><path class="a" d="M51.965,55.34a20.076,20.076,0,0,0,5.478-.866l-3.79-2.887a4.347,4.347,0,0,1-1.266,3.245c-1.784,2.232-.2,5.8,2.913,5.005a22.232,22.232,0,0,0,5.188-2.051c3.454-1.859.421-6.726-3.022-5.171-1.861.841-4.3,1.45-4.733,3.75a3.035,3.035,0,0,0,3.683,3.684c4.59-1.044,8.453-4.415,11.635-7.729L62.939,50.2l0,.268a3.019,3.019,0,0,0,2.994,2.994q-.468-.14,0-.016V47.674c-6.66,2.231-14.5,3.543-20.723,6.79a2.9,2.9,0,0,0-1.483,2.586c.616,4.674,4.424,2.633,7.66,3.671l-2.2-2.888q1.065-2.268-.451-.735c-2.221,1.671-1.719,5.6,1.511,5.58l.55,0-.8-5.882c-6.1,1.916-14.671-1.342-16.745-7.734l-5,2.914c2.971,3.016,7.629,3,9.975,6.7,1.7,2.678,5.245,1.348,5.58-1.511l.388-3.324-5.58,1.512c2.446,3.467,3.2,5.406,7.354,6.644,0,0,1.71.052,1.506-.175a34.626,34.626,0,0,1-.919,3.413,17.787,17.787,0,0,0-.288,6.932l5.775-1.592c-.711-2.8-1.514-5.563-2.417-8.309-1.021-3.1-5.957-2.713-5.882.8a26.352,26.352,0,0,0,1.158,7.354c1.123,3.675,6.905,2.108,5.774-1.592a20.572,20.572,0,0,1-.943-5.762l-5.882.8c.9,2.746,1.707,5.507,2.417,8.309.975,3.845,6.287,2.1,5.775-1.592-.573-4.138,3.758-9.676.163-13.321a5.716,5.716,0,0,0-3.368-1.472c-.57-.12-1.365.414-1.914.24-1.518-.481-2.3-2.506-3.138-3.692a3.023,3.023,0,0,0-5.579,1.511l-.389,3.324,5.58-1.512a14.129,14.129,0,0,0-4.186-4.474c-2.118-1.381-4.93-1.611-6.725-3.434-2.043-2.074-5.943.025-5,2.913C30.557,60.1,42.23,65.509,51.6,62.568c3.159-.992,2.674-5.905-.8-5.882l-.55,0,1.511,5.579c1.723-1.3,3.242-2.124,3.417-4.436a3.03,3.03,0,0,0-2.2-2.887c-1.362-.437-3.562.376-4.706-.173l1.483,2.585-.041-.308-1.483,2.585c5.688-2.966,13.194-4.143,19.293-6.186,2.666-.894,3.023-5.045,0-5.775a5.107,5.107,0,0,0-1.6-.2l2.994,2.994V50.2a3.028,3.028,0,0,0-5.112-2.118c-2.492,2.6-5.39,5.37-8.992,6.189l3.683,3.683q-1.857,1.76-.2.816l2.185-.987-3.022-5.171a10.475,10.475,0,0,1-3.758,1.447l2.913,5.005c2.244-2.808,2.879-3.945,3.021-7.48A3.019,3.019,0,0,0,55.851,48.7a9.3,9.3,0,0,1-3.886.652c-3.846.1-3.861,6.093,0,5.989Z"/><path class="a" d="M43.405,69.533l-.336,1.556h5.785l-.2-.5c-.963-2.44-5.191-3.233-5.786,0-.3,1.614-.432,3.214-.615,4.844-.241,2.149,2.778,3.9,4.515,2.59L47,77.831l-2.121-.879c2.467,2.412,5.139,1.247,6.84-1.29H46.535l-.067-.185,5.893-.8c-2.152-6.171-.87-12.061,1.7-17.876,1.547-3.5-3.621-6.556-5.18-3.028-3.213,7.267-5.005,14.759-2.306,22.5,1.049,3.007,6.129,2.779,5.893-.8a7.222,7.222,0,0,0-.752-2.844c-1.024-2.183-4.038-1.7-5.181,0l-.1.123,2.311-.3c1.143.254-1.385-.575-1.746-.622a3.989,3.989,0,0,0-3.255,1.01l4.514,2.591q.171-1.629.4-3.249H42.871l.2.5c.985,2.5,5.1,3.183,5.785,0l.337-1.556c.815-3.765-4.967-5.373-5.786-1.595Z"/><path class="b" d="M56.292,42.745a36.513,36.513,0,0,0-1.769,3.9c-1.024,2.613,2.3,4.488,4.407,3.388l1.257-.658-4.1-4.1L54.45,47.942c-1.835,3,2.24,5.853,4.711,3.636L61.8,49.21l-5.014-2.919-.324,1.98c-.528,3.222,3.6,5.381,5.483,2.311l1.664-2.708L58.02,46.36l.062,1.276a3.015,3.015,0,0,0,5.893.8c.7-2.052,1.3-4.114,1.812-6.222L60,40.617c-.47,3.318-1.493,6.358.709,9.166a3.01,3.01,0,0,0,4.712-.607c1.178-2.732,1.066-5.594,1.157-8.546.072-2.347.006-3.574-1.671-5.3a3.037,3.037,0,0,0-4.243,0c-.948.987-2.05,1.525-2.932,2.593-1.158,1.4-2.077,2.847-3.354,4.161a13.1,13.1,0,0,0-4.118,7.537c-.46,2.777,2.746,5.231,5.014,2.919,5.5-5.6,2.364-15.258,3.367-22.11H52.857a21.04,21.04,0,0,0,1.725,4.69,15.294,15.294,0,0,0,1.529,2.369q.678,1.372.636-.157l1.793-1.379a37.178,37.178,0,0,0-2.331-4.319A4.246,4.246,0,0,0,53.634,29.8a2.953,2.953,0,0,0-2.919.772c-2,2.369-2.979,5.684-4.159,8.536a36.5,36.5,0,0,0-2.9,9.308c-.431,3.3,4.074,3.574,5.591,1.514l4.33-5.88-5.59-1.514-.574,5.356c-.41,3.835,5.593,3.806,6,0l.574-5.356c.352-3.294-4.049-3.607-5.591-1.514l-4.33,5.88,5.59,1.514A26.258,26.258,0,0,1,51.73,42.2c.861-2.121,1.728-5.61,3.228-7.384l-2.919.772.579.169-1.793-1.379c2.019,2.921,4.79,9.874,9.668,7.219,5.368-2.922-.957-9.28-1.851-12.753-.69-2.682-5.342-3.031-5.785,0-.481,3.283-.021,6.454-.137,9.748-.1,2.792.347,7.642-1.687,9.715l5.014,2.918c.751-4.532,5.787-8.442,8.861-11.644H60.665a9.163,9.163,0,0,0,.823.814l-.879-2.122c.1,2.121.472,5.932-.368,7.879l4.712-.607c.23.293.853-3.464.834-3.328.524-3.7-4.854-5.456-5.786-1.6-.509,2.108-1.109,4.17-1.812,6.222l5.893.8L64.02,46.36a3.026,3.026,0,0,0-5.591-1.514l-1.664,2.708,5.483,2.312.324-1.98c.477-2.915-2.662-5.028-5.014-2.919l-2.639,2.368,4.712,3.636L61.264,48.3c1.628-2.667-1.541-5.447-4.105-4.1L55.9,44.85l4.407,3.388a15.989,15.989,0,0,1,1.164-2.465c1.818-3.405-3.359-6.439-5.181-3.028Z"/><path class="b" d="M45.5,46.833l.011-.563a3.032,3.032,0,0,0-5.121-2.121,26.186,26.186,0,0,0-4.525,6.041L41.347,52.5a17.275,17.275,0,0,0,.4-4.4c-.168-3.95-5.549-3.757-6,0l-.332,1.074,5.893.8a20.524,20.524,0,0,0-.787-4.7c-.5-1.692-2.793-2.98-4.407-1.793a20.567,20.567,0,0,1-2.829,1.758l3.635.469-.855-.878c-2.034-2.874-5.978-1.051-5.483,2.312l.267,1.814c.524,3.556,5.631,2.331,5.893-.8l1.023-12.233-.878,2.121q-1.05.53-.141.276a3.048,3.048,0,0,0,2.095-3.69l-.022-.106-5.483,2.312c1.753,2.785.016,6.845,2.6,9.377a3.05,3.05,0,0,0,3.636.469,6.663,6.663,0,0,0,1.714-1.622l-5.015-1.323.609,1.993a3.042,3.042,0,0,0,4.407,1.793c2.111-1.125,2.8-3.478,3.762-5.53l-5.484-.716c.708,2,1.246,4.554,3.722,4.944,2.393.376,4.015-1.728,5.559-3.2l-5.014-1.324.181.833c.822,3.771,6.607,2.175,5.786-1.595l-.182-.833c-.5-2.278-3.461-2.806-5.014-1.324-.075.072-2.109,1.618-.917,1.5l2.121.879a5.179,5.179,0,0,0-.456-1.471c-.775-2.193-4.3-3.246-5.483-.717-.3.653-.988,3.046-1.61,3.377l4.407,1.793-.608-1.993c-.6-1.97-3.521-3.166-5.014-1.324l-.5.683,3.636.469c-.249-.244-.294-3.588-.392-4.313a8.8,8.8,0,0,0-1.272-3.85,3.014,3.014,0,0,0-5.483,2.312l.023.106,2.1-3.69c-2.643.5-3.266,2.153-3.488,4.611-.331,3.668-.614,7.341-.921,11.01l5.893-.8-.267-1.814-5.484,2.312a11.136,11.136,0,0,0,1.793,2.092,3.119,3.119,0,0,0,3.636.469,20.578,20.578,0,0,0,2.83-1.758l-4.407-1.793a12.892,12.892,0,0,1,.572,3.107,3.015,3.015,0,0,0,5.892.8,11.166,11.166,0,0,0,.547-2.669h-6a7.453,7.453,0,0,1-.185,2.808c-.662,3.188,3.778,5.444,5.483,2.312a20.61,20.61,0,0,1,3.586-4.827L39.51,46.27l-.011.563c-.077,3.862,5.923,3.862,6,0Z"/><path class="c" d="M58.3,32.849c-4.318-1.864-7.235.141-9.84,3.664l5.483,2.311.4-2.036c.639-3.23-3.68-5.372-5.483-2.312l-.976,1.655,5.591,1.515a23.073,23.073,0,0,0-.687-4.181,3.032,3.032,0,0,0-5.014-1.324l-1.613,1.453,5.014,2.919.518-2.682c.6-3.1-3.986-5.616-5.483-2.312l-.734,1.62,5.484,2.312c1.489-4.271,2.812-9.423-.465-13.122-1.163-1.313-3.035-.954-4.243,0-1.377,1.087-1.58,2.129-2.3,3.672a22.171,22.171,0,0,0-1.411,2.284c-.058.762,1.751.322.965-.133a2.943,2.943,0,0,0-3.029,0,4.785,4.785,0,0,1-.565.4l3.636.469.133.976-2.2,2.893-1.456-1.146.469-3.636a28.642,28.642,0,0,1-3.96,3.828c-1.05.782-1.99.974-2.55,2.278a3.13,3.13,0,0,0,.469,3.635l.29.285a2.963,2.963,0,0,0,2.919.772c1.7-.634,3.654-3.98,4.943-4.182l-3.691-2.1c.3,1.375-1.354,4.419-1.407,5.916a4.554,4.554,0,0,0,.616,2.865c.914,1.482,3.465,2.181,4.712.607l1.541-1.947-5.121-2.121q.041,1.816.142,3.633a3.03,3.03,0,0,0,4.514,2.59,6.864,6.864,0,0,0,3.05-3.765,25.927,25.927,0,0,0,.736-3.267c.255-1.083,1.987-3.832-.1-3.284l-3.388-1.379c1.4,1.95,3.334,3.275,5.819,2.439a4.721,4.721,0,0,0,2.49-2.2,7.536,7.536,0,0,0,.266-2.924l-2.59,1.486c-1.609.21-.529,2.128-.3,3.11a3.032,3.032,0,0,0,5.483.717,10.364,10.364,0,0,0,.889-1.8q.424-1.476-.4-.228l-2.59-1.486c1.011,2.09,2.348,4.405,2.038,6.773h6l-.085-1.271c-.254-3.816-5.983-3.9-6,0l0,.63,5.59-1.514-1.035-1.7-4.712,3.636c3.432,3.4,7.9,4.951,10.5-.284l-5.483-.716A7.488,7.488,0,0,1,60,39.01c-.414,3.834,5.589,3.805,6,0a11.757,11.757,0,0,0-.121-3.462c-.422-2.519-4.383-2.931-5.484-.717a15.734,15.734,0,0,1-1.666,1.592l2.919-.772A5.7,5.7,0,0,1,59.314,33.9c-2.391-2.368-6.51.679-4.712,3.636l1.035,1.7a3.024,3.024,0,0,0,5.591-1.514l0-.63h-6l.085,1.271c.262,3.947,5.507,3.758,6,0,.476-3.63-1.319-6.622-2.857-9.8a2.906,2.906,0,0,0-2.591-1.486c-4.046.395-4.019,1.952-5.67,5l5.484.716c-.683-2.9-1.265-7.669-5.2-7.553A3.488,3.488,0,0,0,47.441,27a3.368,3.368,0,0,0-.572,1.748c-.029,2.948,1.22-1.11,2.52.707A3.118,3.118,0,0,0,46,28.072c-1.445.38-1.945,1.3-2.6,2.5-.965,1.773-.853,7.366-2.526,8.421l4.514,2.591q-.1-1.817-.142-3.633c-.072-2.343-3.406-4.288-5.121-2.122l-1.542,1.947,4.712.607c-.368-.6,1.76-5.676,1.4-7.347a3.074,3.074,0,0,0-3.69-2.1c-2.472.387-3.026,3.466-4.943,4.182l2.919.772-.291-.285.47,3.635c-.247.574-1.095.658.048.238a6.089,6.089,0,0,0,1.759-1.3,43.559,43.559,0,0,0,3.765-3.824,3.138,3.138,0,0,0,.469-3.636c-.96-2.047-3.447-1.877-5.32-1.611A3.012,3.012,0,0,0,37.677,30,5.045,5.045,0,0,0,39.3,33.266a3.01,3.01,0,0,0,3.635.469,4.675,4.675,0,0,0,.566-.4H40.473c1.971,1.139,3.34,1.359,5.306.122a10.093,10.093,0,0,0,2.608-2.684c.786-1.171,1.021-3.342,2.108-4.2H46.252c1.3,1.465-.532,5.718-1.078,7.285-1.1,3.169,4.074,5.423,5.483,2.312l.734-1.62-5.483-2.312-.518,2.682A3.026,3.026,0,0,0,50.4,37.837l1.613-1.454L47,35.06l.472,2.586c.253,2.838,3.984,4.241,5.59,1.514L54.04,37.5l-5.483-2.311-.4,2.036a3.016,3.016,0,0,0,5.484,2.312,2.59,2.59,0,0,1,1.631-1.511c3.508,1.515,6.567-3.653,3.028-5.181Z"/><path class="c" d="M34.675,36.168c-.286,1.68-1.234,2.206-2.393,3.473A8.035,8.035,0,0,0,30,45.39c.055,3.858,6.055,3.869,6,0-.019-1.309.683-1.644,1.729-2.7a9.192,9.192,0,0,0,2.727-4.93,3.088,3.088,0,0,0-2.095-3.69,3.024,3.024,0,0,0-3.69,2.095Z"/><path class="c" d="M30.609,37.536a12,12,0,0,0-.178,2.741c.184,2.461,3.217,4.125,5.121,2.121a12.052,12.052,0,0,0,1.38-1.762l-5.59-1.515.025,2.27c.032,2.837,4.211,4.265,5.59,1.514l1.748-3.484-5.59-1.515a11.85,11.85,0,0,1-.143,2.079c-.445,2.835,2.689,5.143,5.015,2.919a9.1,9.1,0,0,0,2.3-3.7l-5.893-.8a2.451,2.451,0,0,1-.052.8,3.031,3.031,0,0,0,1.737,3.539,2.972,2.972,0,0,0,3.746-1.227l.632-1.4a3,3,0,0,0-5.181-3.028c-1.027,1.371-2.447,2.419-3.516,3.763a9.611,9.611,0,0,0-2.213,5.556c-.249,3.856,5.752,3.841,6,0,.077-1.188,1.115-2.13,1.9-2.921a32.549,32.549,0,0,0,3.013-3.37l-5.181-3.028-.632,1.4L40.132,40.8a13.457,13.457,0,0,0,.267-2.392c.037-3.517-4.8-3.895-5.893-.8a2.537,2.537,0,0,1-.762,1.052l5.014,2.919a21.29,21.29,0,0,0,.357-3.674c-.05-2.827-4.205-4.276-5.591-1.514l-1.747,3.485,5.59,1.514-.025-2.27a3.026,3.026,0,0,0-5.591-1.514,1.337,1.337,0,0,1-.441.549l5.121,2.121a5.855,5.855,0,0,1-.037-1.146A3.1,3.1,0,0,0,34.3,35.44c-1.414-.388-3.451.483-3.69,2.1Z"/><path class="c" d="M41.469,39.179a12.634,12.634,0,0,0,.547,2.948,3.04,3.04,0,0,0,5.483.717l.889-1.412L42.8,39.918a39.316,39.316,0,0,1,.229,5.832c-.1,2.905,4.245,4.18,5.591,1.514,1.2-2.376,1.317-4.984,2.307-7.417H45.138a19.1,19.1,0,0,1,.2,3.89c-.123,3.37,5.093,4.091,5.893.8l.836-3.439-5.893-.8q.021,2.431-.122,4.856c-.206,3.5,4.892,3.908,5.893.8L53.2,42.031H47.417l.068.361c-.056,2.895,4.22,4.193,5.591,1.514l.7-1.361-5.483-.717c.208.75-.407,1.532-.725,2.177A21.688,21.688,0,0,0,46.5,46.728l1.379-1.793-.141.1h3.028l-.231-.169,1.076,1.077-1.876-2.761c-.821-1.21-2.75-2.119-4.1-1.076a5.289,5.289,0,0,0-2.224,5.821c.939,3.743,6.727,2.157,5.785-1.595l-.533.954-4.1-1.076a14.923,14.923,0,0,0,3.183,4.006,2.9,2.9,0,0,0,3.028,0c1.419-1.032,1.756-2.664,2.489-4.187a7.958,7.958,0,0,0,.82-5.8c-.662-2.38-4.281-3.066-5.484-.716l-.7,1.361,5.59,1.514a5.479,5.479,0,0,0-.282-1.956,3.027,3.027,0,0,0-5.786,0l-1.261,3.921,5.893.8q.142-2.427.122-4.856c-.028-3.322-5.078-4.151-5.893-.8l-.835,3.439,5.892.8a26.97,26.97,0,0,0-.411-5.485,3.015,3.015,0,0,0-2.893-2.2,3.144,3.144,0,0,0-2.893,2.2c-.78,1.919-.772,4.14-1.7,5.984l5.59,1.514a39.176,39.176,0,0,0-.229-5.832c-.325-2.857-3.895-4.207-5.59-1.514l-.889,1.411,5.484.717a5.821,5.821,0,0,1-.333-1.353c-.323-3.819-6.325-3.853-6,0Z"/><path class="c" d="M54.565,35.113c-.9,1.6-3.137,5.241-.8,6.572,1.343.766,2.321-.591,2.984-1.541a26.036,26.036,0,0,0,1.81-3.03c.879-1.715-1.709-3.234-2.591-1.514a15.669,15.669,0,0,1-2.3,3.673l.662-.386-.2.057,1.155.151-.178-.13.538.538-.1-.231.2.757a3.986,3.986,0,0,1,.506-1.594,18.756,18.756,0,0,1,.911-1.808c.946-1.686-1.645-3.2-2.59-1.514Z"/><path class="c" d="M59.813,39.979l.229-.538L61.2,39.29l-.647-.189a1.519,1.519,0,0,0-2.2.9c-.308,1.161-.292,2.5.932,3.074a2.154,2.154,0,0,0,2.771-1.144l-2.356.3c.5.579.5,2.925.62,3.654.171,1.051,1.419,1.246,2.2.9l.317-.141-2.257-1.3c.05.643.076,1.271.078,1.915a1.508,1.508,0,0,0,2.947.4c.923-2.4.532-5.331,1.034-7.858l-2.507.662c.251.286-.052,2.128-.07,2.451-.06,1.054-.157,2.106-.3,3.152-.215,1.6,1.77,2.707,2.742,1.156,1.167-1.862.958-3.936,1.416-6H63.027c.381,1.982-.051,4.779-1.655,6.1-1.492,1.228.641,3.34,2.121,2.121,2.461-2.026,3-6.045,2.427-9.018a1.511,1.511,0,0,0-2.893,0c-.385,1.733-.148,3.744-1.114,5.285l2.742,1.156c.331-2.461,1.394-6.474-.4-8.523A1.509,1.509,0,0,0,61.744,39a35.252,35.252,0,0,0-.565,3.894,14.106,14.106,0,0,1-.469,3.964l2.946.4c0-.644-.028-1.272-.078-1.915a1.524,1.524,0,0,0-2.257-1.3L61,44.19l2.2.9c-.27-1.667-.238-3.651-1.391-4.977a1.513,1.513,0,0,0-2.356.3l.177-.084,1.156.152-.281-.137.69.9.038-.445-2.2.9c1.547.815,3.936.537,3.776-1.712-.135-1.915-3.136-1.93-3,0Z"/><path class="c" d="M42.352,44.931a12.636,12.636,0,0,0,1.5,2.132,3.018,3.018,0,0,0,2.121.878,3.054,3.054,0,0,0,2.122-.878,3.018,3.018,0,0,0,.878-2.122l-.107-.8A2.989,2.989,0,0,0,48.1,42.82c-.093-.111-.184-.223-.273-.338l.47.608a9.115,9.115,0,0,1-.759-1.187,3,3,0,0,0-5.181,3.028Z"/><path class="c" d="M47.462,50.173a1.459,1.459,0,0,1,.194.191l-.469-.607a1.416,1.416,0,0,1,.17.279l-.3-.717a1.425,1.425,0,0,1,.089.314l-.107-.8a.985.985,0,0,1,.01.108,3.347,3.347,0,0,0,.879,2.122,3.34,3.34,0,0,0,2.121.878,3.034,3.034,0,0,0,2.122-.878,2.97,2.97,0,0,0,.878-2.122,4.567,4.567,0,0,0-.532-1.986,3.282,3.282,0,0,0-.81-1.027,3.333,3.333,0,0,0-2.122-.879,3.328,3.328,0,0,0-2.121.879,3.015,3.015,0,0,0-.879,2.121l.107.8a3,3,0,0,0,.772,1.324Z"/><path class="c" d="M49.247,43.369c.08.086.154.173.227.266l-.469-.607a3.283,3.283,0,0,1,.341.61l-.3-.717a3.22,3.22,0,0,1,.177.676l-.107-.8c.01.077.017.155.02.233a3.178,3.178,0,0,0,.878,2.121,3,3,0,0,0,4.243,0,2.987,2.987,0,0,0,.879-2.121,6.1,6.1,0,0,0-1.644-3.906,3.024,3.024,0,0,0-4.243,0,3.064,3.064,0,0,0,0,4.243Z"/><path class="c" d="M55.155,41.384a13.278,13.278,0,0,0-1.022-2.462,3.026,3.026,0,0,0-4.105-1.076,3.064,3.064,0,0,0-1.076,4.1c.139.26.266.524.383.795l-.3-.717a9.763,9.763,0,0,1,.337.951,3.129,3.129,0,0,0,1.379,1.793,3,3,0,0,0,4.407-3.388Z"/><path class="b" d="M42.207,54.593c.469-.726.953-1.442,1.459-2.143.575-.8.743-1.008,1.311-1.7a3.073,3.073,0,0,0,0-4.243c-1.1-1.007-3.185-1.3-4.243,0a57.35,57.35,0,0,0-3.708,5.062,3.024,3.024,0,0,0,1.076,4.1,3.067,3.067,0,0,0,4.105-1.076Z"/><path class="b" d="M36.995,44.149a23.649,23.649,0,0,0,.315,3.037,3.006,3.006,0,0,0,1.379,1.793,3.067,3.067,0,0,0,2.312.3A3.036,3.036,0,0,0,42.794,47.9a3.452,3.452,0,0,0,.3-2.311c-.027-.171-.052-.343-.076-.514l.107.8q-.108-.86-.132-1.725a3,3,0,0,0-6,0Z"/><path class="a" d="M50.815,53.163a3.607,3.607,0,0,0,.455-1.638,4.592,4.592,0,0,0-.11-.993l-.3-.717a2.267,2.267,0,0,0-.773-.841,1.5,1.5,0,0,0-.662-.386,2.253,2.253,0,0,0-1.156-.258,3.446,3.446,0,0,0-1.72.488,3.337,3.337,0,0,0-1.212,1.27,3.884,3.884,0,0,0-.462,1.771c0,.163.007.326-.008.489l.107-.8-.015.08a2.274,2.274,0,0,0-.054,1.2,2.232,2.232,0,0,0,.356,1.115,3,3,0,0,0,4.1,1.077,2.957,2.957,0,0,0,1.378-1.793,5.862,5.862,0,0,0,.133-1.08c0-.123-.006-.244,0-.367l-.107.8a.949.949,0,0,1,.046-.176l-.3.716a.605.605,0,0,1,.058-.106l-.469.607a.429.429,0,0,1,.077-.087L49.575,54a.336.336,0,0,1,.095-.059l-.716.3.053-.016-.8.107.057,0-2.893-2.2.011.065-.107-.8a.479.479,0,0,1-.008.131l.107-.8-.018.063.3-.717-.027.06a2.236,2.236,0,0,0-.356,1.116,2.275,2.275,0,0,0,.054,1.2,3,3,0,0,0,3.69,2.095,2.923,2.923,0,0,0,1.793-1.378Z"/><path class="a" d="M60.388,59.921a20.924,20.924,0,0,1,4.184-4.067,3.083,3.083,0,0,0,1.076-4.1,3.026,3.026,0,0,0-4.1-1.076,27.6,27.6,0,0,0-6.336,6.22c-.965,1.3-.214,3.349,1.077,4.1a3.069,3.069,0,0,0,4.1-1.076Z"/><path class="b" d="M44.528,36.168l-.206.979a2.264,2.264,0,0,0-.053,1.2,2.232,2.232,0,0,0,.356,1.115,3.348,3.348,0,0,0,1.793,1.379,3.036,3.036,0,0,0,2.311-.3,3,3,0,0,0,1.379-1.793l.206-.979a2.274,2.274,0,0,0,.054-1.2,2.242,2.242,0,0,0-.356-1.115,3.358,3.358,0,0,0-1.793-1.379,3.035,3.035,0,0,0-2.312.3,3,3,0,0,0-1.379,1.792Z"/><path class="b" d="M46.855,41.407c3.861,0,3.867-6,0-6s-3.867,6,0,6Z"/><path class="b" d="M44.442,37.44A7.157,7.157,0,0,0,42.327,41.3a3.04,3.04,0,0,0,4.407,3.388l.4-.219-4.407-1.793c.388,1.765.58,3.276,1.748,4.7L43.6,45.249l.039.574c.212,3.119,3.817,3.886,5.59,1.514l.77-1.029H44.813a3.17,3.17,0,0,0,2.07,1.553L45.09,46.482c.476.709.855-1.156.219-.357a3.194,3.194,0,0,0-.62,1.44,3,3,0,0,0,.771,2.919c3.048,2.475,5.843.177,6.629-3.109a14.758,14.758,0,0,0,.109-5.727c-.294-1.93-1.221-3.936-1.368-5.849l-3,3c.419-.048.837-.1,1.25-.191l-3.69-2.095.056.186a3.046,3.046,0,0,0,3.69,2.095l.036-.01-3.388-1.379a17.806,17.806,0,0,1,2.1,7.54c.088,3.855,6.088,3.869,6,0a24.9,24.9,0,0,0-2.92-10.568A3.024,3.024,0,0,0,47.577,33l-.036.01,3.691,2.1-.057-.186a3.072,3.072,0,0,0-3.69-2.1l.345-.023c-1.514.17-3.135,1.239-3,3a35.126,35.126,0,0,0,1.133,5.15c.234,1.007,1.163,4.575.2,5.481l2.121-.879-.4.051L50,46.481l-.295-.239.771,2.918q-.727,1.086.137-.088a4.3,4.3,0,0,0,.568-1.151,5.178,5.178,0,0,0-.12-2.369c-.336-1.648-1.074-3.055-2.8-3.539l1.793,1.379-.056-.113c-1.1-2.221-3.95-1.646-5.181,0l-.769,1.029,5.59,1.515a7.485,7.485,0,0,0-.683-2.392c-.185-.488-.25-1.492-.44-2.354A3.031,3.031,0,0,0,44.1,39.284l-.4.219,4.407,3.388a1.3,1.3,0,0,1,.572-1.208c2.743-2.726-1.5-6.969-4.242-4.243Z"/><path class="a" d="M50.555,51.8a.4.4,0,0,1,0-.1l-.108.8a.49.49,0,0,1,.026-.1l-.3.717a.473.473,0,0,1,.051-.09l-.47.607a.6.6,0,0,1,.042-.046,3.334,3.334,0,0,0,.878-2.121,3.334,3.334,0,0,0-.878-2.121l-.608-.469a2.979,2.979,0,0,0-1.514-.41l-.8.107a3,3,0,0,0-1.324.772.587.587,0,0,0-.041.046l-.469.607-.012.017a3.807,3.807,0,0,0-.345.8,2.854,2.854,0,0,0-.075.489,2.005,2.005,0,0,0-.051.5A2.9,2.9,0,0,0,46.4,54.541a2.253,2.253,0,0,0,1.156.258l.8-.107a3,3,0,0,0,1.324-.772l.469-.607a2.982,2.982,0,0,0,.41-1.514Z"/><path class="a" d="M49.858,69.311H49.8a2.275,2.275,0,0,0-1.156.258A3.087,3.087,0,0,0,46.8,72.311l.107.8a3,3,0,0,0,.772,1.323l.607.47a2.994,2.994,0,0,0,1.514.409h.063A2.9,2.9,0,0,0,52.6,73.467a2.266,2.266,0,0,0,.259-1.156l-.108-.8a2.984,2.984,0,0,0-.771-1.324l-.607-.469a2.985,2.985,0,0,0-1.514-.41Z"/><path class="a" d="M51.729,57.333h-.062a2.9,2.9,0,0,0-2.742,1.844,2.255,2.255,0,0,0-.258,1.156l.107.8a3,3,0,0,0,.771,1.323l.608.469a2.979,2.979,0,0,0,1.514.41h.062a2.9,2.9,0,0,0,2.742-1.844,2.255,2.255,0,0,0,.258-1.156l-.107-.8a3,3,0,0,0-.772-1.324l-.607-.469a2.982,2.982,0,0,0-1.514-.41Z"/><path class="b" d="M54.412,52.6c3.86,0,3.867-6,0-6s-3.867,6,0,6Z"/><path class="b" d="M55.535,48.8c3.86,0,3.867-6,0-6s-3.867,6,0,6Z"/><path class="b" d="M55.971,54.1a1.5,1.5,0,0,0,0-3,1.5,1.5,0,0,0,0,3Z"/><path class="b" d="M57.781,54.1c3.86,0,3.867-6,0-6s-3.868,6,0,6Z"/><path class="b" d="M36.133,51.542c3.86,0,3.867-6,0-6s-3.867,6,0,6Z"/><path class="b" d="M40.568,46.421v-.062a3.347,3.347,0,0,0-.879-2.122,3.34,3.34,0,0,0-2.121-.878l-.8.107a3,3,0,0,0-1.324.771l-.469.607a2.985,2.985,0,0,0-.409,1.515v.062a3.334,3.334,0,0,0,.878,2.121,3.333,3.333,0,0,0,2.122.879l.8-.107a3,3,0,0,0,1.324-.772l.469-.607a2.992,2.992,0,0,0,.41-1.514Z"/><path class="b" d="M51.572,48.694c-1.158,1.262-.624,2.643.574,3.621a4.66,4.66,0,0,1,1.834,4.349c-.145,1.439,2.214,2.107,2.8.757a10.788,10.788,0,0,1,1.887-3.011c1.286-1.434-.829-3.562-2.122-2.122a13.183,13.183,0,0,0-2.355,3.619l2.795.757a7.487,7.487,0,0,0-.8-4.176,7.248,7.248,0,0,0-1.182-1.657,7.534,7.534,0,0,0-.774-.688l-.3-.235q-.6-.6-.223.907c1.3-1.42-.812-3.547-2.121-2.121Z"/><path class="b" d="M55.16,59.213h.063a1.664,1.664,0,0,0,1.06-.439,1.114,1.114,0,0,0,.31-.483,1.14,1.14,0,0,0,.13-.578l-.054-.4a1.5,1.5,0,0,0-.386-.662l-.3-.234a1.494,1.494,0,0,0-.757-.2H55.16a1.45,1.45,0,0,0-1.371.922,1.147,1.147,0,0,0-.129.578l.054.4a1.5,1.5,0,0,0,.386.662l.3.234a1.494,1.494,0,0,0,.757.2Z"/><path class="c" d="M63.543,50.343a3.812,3.812,0,0,0,1.589-2.058,1.511,1.511,0,0,0-1.047-1.845,1.536,1.536,0,0,0-1.846,1.048c-.022.068-.047.134-.074.2l.151-.359a2.415,2.415,0,0,1-.25.432l.235-.3a2.335,2.335,0,0,1-.4.407l.3-.234c-.058.043-.115.083-.176.122a1.5,1.5,0,1,0,1.514,2.59Z"/><path class="c" d="M63.366,36.692a1.5,1.5,0,0,0,0-3,1.5,1.5,0,0,0,0,3Z"/><path class="c" d="M63.805,35.469a1.5,1.5,0,0,0,0-3,1.5,1.5,0,0,0,0,3Z"/><path class="c" d="M42.768,32.531c-.034.76-.091.489-.008.226.1-.322-.346.6-.053.181.166-.236.315-.5.466-.741a6.066,6.066,0,0,0,.882-2.771,3.007,3.007,0,0,0-2.2-2.893l.393.163a3.019,3.019,0,0,0-4.1,1.076,3.074,3.074,0,0,0,1.076,4.105,3.166,3.166,0,0,0,1.041.442l-2.2-2.893q.132-.732.039-.385c-.046.15-.025.109.065-.122.22-.472-.017,0-.076.1-.146.253-.316.491-.468.741a5.692,5.692,0,0,0-.847,2.771,3.021,3.021,0,0,0,3,3,3.064,3.064,0,0,0,3-3Z"/><path class="c" d="M33.977,39.26a2.219,2.219,0,0,0,.843.111,3.091,3.091,0,0,0,1.546-.421A2.806,2.806,0,0,0,37,38.457,3.094,3.094,0,0,0,37.8,37.1a2.274,2.274,0,0,0,.054-1.2,2.688,2.688,0,0,0-1.129-1.957,2.265,2.265,0,0,0-1.02-.537l-.8-.107a2.984,2.984,0,0,0-1.514.409l-.607.469a3.006,3.006,0,0,0-.772,1.324l0,.013.3-.717-.01.017.469-.607-.019.019.607-.469a.164.164,0,0,1-.022.014l.716-.3a.1.1,0,0,1-.025.008l.8-.107h-.026l.8.108-.019-.005a2.268,2.268,0,0,0-1.2-.053,2.222,2.222,0,0,0-1.115.356,3.348,3.348,0,0,0-1.379,1.793l-.107.8a2.982,2.982,0,0,0,.41,1.514l.469.607a3,3,0,0,0,1.324.772Z"/><path class="c" d="M43.909,35.529h.066a2.266,2.266,0,0,0,1.156-.259,2.7,2.7,0,0,0,1.586-1.585,2.265,2.265,0,0,0,.258-1.156l-.107-.8a3.006,3.006,0,0,0-.772-1.324l-.607-.469a2.984,2.984,0,0,0-1.514-.409h-.066a3.339,3.339,0,0,0-2.122.878,2.256,2.256,0,0,0-.62.966,2.253,2.253,0,0,0-.258,1.156l.107.8a2.993,2.993,0,0,0,.771,1.324l.608.469a2.982,2.982,0,0,0,1.514.41Z"/><path class="c" d="M32.283,33.059l-.175,2.12a1.506,1.506,0,0,0,1.5,1.5,1.538,1.538,0,0,0,1.5-1.5l.175-2.12a1.506,1.506,0,0,0-1.5-1.5,1.537,1.537,0,0,0-1.5,1.5Z"/><path class="b" d="M48.811,35.191a1.5,1.5,0,0,0,0-3,1.5,1.5,0,0,0,0,3Z"/><path class="a" d="M30.628,51.857a1.941,1.941,0,0,1,.431.3c-.1-.124-.172-.14-.014,0,.066.057.131.115.194.176s.1.1.145.149c.232.227-.1-.178-.008-.025.045.071.089.147.138.215.169.236-.092-.281.014.017a1.5,1.5,0,0,0,2.893-.8,5.292,5.292,0,0,0-2.279-2.621,1.51,1.51,0,0,0-2.052.538,1.536,1.536,0,0,0,.538,2.053Z"/><path class="a" d="M57.886,60.305l.815-.833a1.558,1.558,0,0,0,.439-1.061A1.532,1.532,0,0,0,58.7,57.35a1.512,1.512,0,0,0-1.061-.439,1.554,1.554,0,0,0-1.061.439l-.814.833a1.555,1.555,0,0,0-.44,1.061,1.529,1.529,0,0,0,.44,1.061,1.51,1.51,0,0,0,1.06.439,1.552,1.552,0,0,0,1.061-.439Z"/><path class="a" d="M56.231,61.76a1.5,1.5,0,0,0,0-3,1.5,1.5,0,0,0,0,3Z"/><path class="b" d="M41.343,45.552v.027a3.328,3.328,0,0,0,.879,2.121,2.238,2.238,0,0,0,.965.62,2.266,2.266,0,0,0,1.156.259l.8-.107a3,3,0,0,0,1.324-.772l.469-.607a2.985,2.985,0,0,0,.41-1.514v-.027a3.333,3.333,0,0,0-.879-2.122,3.334,3.334,0,0,0-2.121-.878l-.8.107a2.986,2.986,0,0,0-1.323.771l-.469.607a2.985,2.985,0,0,0-.41,1.515Z"/><path d="M27.433,46.741c-.877,3.64.864,7.725,3.151,10.5a20.54,20.54,0,0,0,10.473,6.674,26.526,26.526,0,0,0,13.325.213,26.552,26.552,0,0,0,10.967-6.18c3.236-2.885,5.193-6.193,5.127-10.635-.008-.519-.292-1.37-.938-1.354-.677.016-.846.89-.87,1.4-.147,3.2-1.931,5.594-4.213,7.68a28.3,28.3,0,0,1-9,5.64c-7.332,2.821-16.547,1.465-22.389-3.886a14.351,14.351,0,0,1-3.4-4.543,21.476,21.476,0,0,1-1.381-5.531c-.114-.659-.718-.543-.853.021Z"/><path d="M47.948,48.653A3.637,3.637,0,0,0,49.027,49.9a14.539,14.539,0,0,1,1.279,1.359,16.589,16.589,0,0,1,1.965,2.934A17.644,17.644,0,0,1,53.965,60.8c.042.448.223,1.155.8,1.152s.714-.767.74-1.19a14.574,14.574,0,0,0-2.138-7.78,14.82,14.82,0,0,0-2.318-3.074,14.14,14.14,0,0,0-1.392-1.242c-.4-.313-1.006-.867-1.54-.7-.255.078-.233.513-.167.693Z"/><path d="M32.808,50.359a32.282,32.282,0,0,1,3.364-5.867,9.727,9.727,0,0,1,4.851-3.366c.85-.255.591-2.318-.424-2.052a10.13,10.13,0,0,0-5.234,3.862,24.5,24.5,0,0,0-3.272,6.624.887.887,0,0,0,.135.866.344.344,0,0,0,.58-.067Z"/><path d="M39.9,40.524a20.851,20.851,0,0,1,2.97,4.242A27.765,27.765,0,0,1,44.4,49.634c.1.393.417.972.918.755s.529-.927.477-1.381a15.127,15.127,0,0,0-1.878-5.437,11.43,11.43,0,0,0-3.5-4.141c-.607-.392-.82.73-.521,1.094Z"/><path d="M51.048,50.93c.406-.875.693-1.8,1.074-2.692a15.723,15.723,0,0,1,1.533-2.8,16.037,16.037,0,0,1,4.438-4.373,1.174,1.174,0,0,0,.432-1.254c-.078-.373-.383-.867-.833-.686A11.413,11.413,0,0,0,52.5,43.906c-1.206,1.99-2.368,4.547-2,6.929.055.355.4.417.547.095Z"/><path d="M57.318,39.941A17.374,17.374,0,0,1,58.485,42.5c.364.923.768,1.826,1.095,2.764a19.027,19.027,0,0,1,1.125,5.319c.019.41.217,1.054.728,1.052.495,0,.7-.7.675-1.087a18.53,18.53,0,0,0-1.5-6,22.98,22.98,0,0,0-1.319-2.772c-.49-.842-1.077-1.624-1.574-2.463-.107-.18-.3-.13-.408.01a.6.6,0,0,0,.015.622Z"/><path d="M58.772,41.11a35.646,35.646,0,0,1,2.546-4.685c1.057-1.549,2.488-2.775,3.584-4.282a1.422,1.422,0,0,0,.076-1.262c-.112-.266-.453-.657-.782-.459a9.358,9.358,0,0,0-2.237,2.055,22.365,22.365,0,0,0-1.747,2.351,14.9,14.9,0,0,0-2.179,5.658.831.831,0,0,0,.217.74.341.341,0,0,0,.522-.116Z"/><path d="M63.82,31.3a16.421,16.421,0,0,0,.832,2.377c.252.707.474,1.423.672,2.147a21.624,21.624,0,0,1,.78,4.2,17.451,17.451,0,0,1-.209,4.209,18.823,18.823,0,0,1-.492,2.1,4.306,4.306,0,0,0-.344,2.431c.109.382.315.733.761.626.747-.178.928-1.325,1.1-1.96a22.677,22.677,0,0,0,.552-2.577,20.426,20.426,0,0,0,.139-5.008,22.845,22.845,0,0,0-.968-4.734,25.2,25.2,0,0,0-.929-2.42,7.906,7.906,0,0,0-1.208-2.228c-.459-.505-.741.554-.686.844Z"/><path d="M38.976,40.116a11.476,11.476,0,0,0-1.41-5.252,12.632,12.632,0,0,0-3.321-4.233c-.4-.32-.826,0-.977.418a1.474,1.474,0,0,0,.3,1.5,20.809,20.809,0,0,1,2.814,3.786,13.338,13.338,0,0,1,.9,1.986c.268.731.563,1.451.829,2.182a.439.439,0,0,0,.54.317c.255-.1.329-.46.329-.7Z"/><path d="M33.149,31.125c-.386.567-.9,1.009-1.277,1.589a12.858,12.858,0,0,0-.967,1.855,19.385,19.385,0,0,0-1.252,4.3,26.086,26.086,0,0,0-.4,4.5,13.837,13.837,0,0,0,.468,4.76c.319.863,1.283.514,1.347-.3.1-1.352-.157-2.73-.163-4.09a26.837,26.837,0,0,1,1.188-8c.191-.636.416-1.262.637-1.888a11.056,11.056,0,0,1,.832-2.129c.182-.3-.116-1.023-.409-.591Z"/><path d="M42.074,42.229c.05-.123.226-.3.3-.446.109-.216.218-.431.33-.644.224-.422.421-.857.65-1.276a22.733,22.733,0,0,1,1.608-2.528,29.089,29.089,0,0,1,4.252-4.32,1.237,1.237,0,0,0,.233-1.23c-.09-.279-.4-.769-.772-.549a16.425,16.425,0,0,0-4.672,4.585,17.767,17.767,0,0,0-1.63,2.743,12.234,12.234,0,0,0-.639,1.49c-.09.276-.17.558-.245.839-.064.244-.053.566-.1.756a.78.78,0,0,0,.159.8c.231.173.433,0,.526-.225Z"/><path d="M48.719,31.555a27.561,27.561,0,0,1,3.12,5.773,27.132,27.132,0,0,1,1.079,3.088c.281,1.03.475,2.068.8,3.087a.552.552,0,0,0,.684.4.926.926,0,0,0,.416-.886,18.034,18.034,0,0,0-2.233-6.383,26.791,26.791,0,0,0-3.587-5.521c-.249-.287-.424.237-.275.442Z"/><path d="M51.2,34.337c.267-.692.574-1.386.893-2.056a11.338,11.338,0,0,1,1.1-1.822,20.877,20.877,0,0,1,3.15-3.238,1.147,1.147,0,0,0,.216-1.14c-.093-.287-.356-.676-.716-.508a9.053,9.053,0,0,0-3.666,3.419A13.89,13.89,0,0,0,51,31.283a8.479,8.479,0,0,0-.586,2.576.769.769,0,0,0,.264.754c.237.135.436-.055.522-.276Z"/><path d="M55.767,26.092c.97,1.482,1.922,2.982,2.809,4.516a10.08,10.08,0,0,1,1.588,4.29c.025.436.233,1.152.788,1.138.572-.014.709-.748.732-1.175a8.981,8.981,0,0,0-1.962-5.406,16.892,16.892,0,0,0-3.689-3.922c-.312-.235-.382.382-.266.559Z"/><path d="M35.7,33.985c.164-.358.395-.635.587-.972.174-.306.355-.611.526-.92a22.512,22.512,0,0,1,1.216-2.022c.435-.62.853-1.245,1.347-1.82.544-.633,1.089-1.26,1.62-1.9a1.194,1.194,0,0,0,.216-1.14c-.078-.242-.383-.732-.716-.508a11,11,0,0,0-3.424,3.988,16.284,16.284,0,0,0-1.1,2.467,9.933,9.933,0,0,0-.33,1.316c-.084.456-.084.934-.139,1.4-.016.13.113.3.2.119Z"/><path d="M40.058,25.52a2.875,2.875,0,0,1,.412.515,6.472,6.472,0,0,0,.493.457q.468.447.916.912c.562.586,1.133,1.169,1.646,1.8a13.638,13.638,0,0,1,1.364,2c.383.688.645,1.451,1.062,2.128a.487.487,0,0,0,.754.129,1.219,1.219,0,0,0,.258-1.071,6.185,6.185,0,0,0-1.11-2.541,12.769,12.769,0,0,0-1.615-1.89,12.273,12.273,0,0,0-1.887-1.547q-.513-.333-1.042-.638-.24-.139-.483-.273c-.224-.125-.46-.094-.678-.231-.136-.086-.185.183-.09.255Z"/><path d="M42.731,27.894a1.5,1.5,0,0,1,.317-.456,2.954,2.954,0,0,0,.334-.328c.223-.259.452-.51.668-.776a16.472,16.472,0,0,1,1.48-1.589,28.211,28.211,0,0,1,3.407-2.751c.317-.218.318-.827.216-1.14-.083-.258-.373-.714-.716-.509a13.169,13.169,0,0,0-3.521,3.146,19.555,19.555,0,0,0-1.359,1.927,8.4,8.4,0,0,0-.523,1.022c-.179.4-.265.831-.458,1.23-.055.113.06.4.155.224Z"/><path d="M48.067,20.98c.635.573,1.252,1.177,1.852,1.788a16.639,16.639,0,0,1,1.673,1.915,10.072,10.072,0,0,1,1.128,2.033,5.641,5.641,0,0,1,.317.957,2.431,2.431,0,0,0,.6,1.437c.386.335.746-.039.909-.389a2.424,2.424,0,0,0-.042-1.706,8.9,8.9,0,0,0-.529-1.387,9.439,9.439,0,0,0-1.567-2.253,9.848,9.848,0,0,0-1.919-1.645,13.465,13.465,0,0,0-2.318-1.154c-.2-.082-.2.314-.1.4Z"/><path d="M43.645,64.523a.275.275,0,0,1,0-.04.121.121,0,0,0,0-.019c0,.038,0,.021,0,.008l.006-.034c0-.014.012-.032,0,.011l.005-.016.011-.032.007-.016c-.019.048-.012.026-.006.014a.489.489,0,0,1,.041-.06l-.028.034a.355.355,0,0,0,.052-.072c.008-.018.015-.034.022-.052l.006-.014c.011-.026-.019.036-.009.017l.018-.032a.661.661,0,0,1,.037-.055c.01-.014-.022.025-.006.007l.011-.012a.383.383,0,0,1,.028-.029.2.2,0,0,0,.038-.2c-.017-.057-.061-.111-.127-.09a.5.5,0,0,0-.155.087.513.513,0,0,0-.053.051.4.4,0,0,0-.081.193.662.662,0,0,0,.046.416c.015.03.048.072.088.051a.121.121,0,0,0,.054-.114Z"/><path d="M44.078,63.633c-.728.833-.733,2.155-.873,3.2q-.243,1.817-.441,3.637c-.132,1.219-.294,2.439-.374,3.662-.078,1.17-.388,2.716.119,3.818.1.218.4.491.624.232.7-.792.717-2.151.854-3.153.161-1.172.251-2.353.36-3.532.214-2.307.343-4.623.568-6.926.034-.345-.319-1.527-.837-.934Z"/><path d="M42.451,77.445a2.532,2.532,0,0,0,1.269,1.788,7.168,7.168,0,0,0,2.389.609,12.741,12.741,0,0,0,5.106-.1A4.159,4.159,0,0,0,53.2,78.729a1.955,1.955,0,0,0,.546-1.395c-.028-.664-.477-1.208-1.194-1a5.424,5.424,0,0,0-.93.506,6.534,6.534,0,0,1-1.087.442,8.592,8.592,0,0,1-2.387.325c-.99.017-1.97-.1-2.957-.13a4.036,4.036,0,0,1-1.25-.179,2.362,2.362,0,0,1-.985-.479c-.346-.357-.556.4-.507.625Z"/><path d="M52.742,62.956c-.016.662-.224,1.284-.279,1.943-.046.565-.1,1.13-.15,1.695-.1,1.235-.143,2.476-.219,3.713s-.126,2.466-.168,3.7a12.387,12.387,0,0,0,.025,3.659c.2.681.966,1.112,1.272.221a12.929,12.929,0,0,0,.242-3.668c.039-1.274.086-2.546.095-3.82s.048-2.558-.009-3.832c-.026-.576-.053-1.155-.095-1.73-.047-.643-.244-1.248-.271-1.893-.018-.416-.432-.4-.443.011Z"/><path d="M48.273,48.3a7.219,7.219,0,0,0-3.427,1.186A12.548,12.548,0,0,0,42.02,52.5a16.114,16.114,0,0,0-1.906,3.868A21.089,21.089,0,0,0,39.5,58.5a4.042,4.042,0,0,0-.137,2.438c.156.358.571.693.93.346.494-.479.464-1.332.595-1.974a16.076,16.076,0,0,1,.476-1.782,19.009,19.009,0,0,1,1.592-3.541,12.432,12.432,0,0,1,2.344-3,11.1,11.1,0,0,1,3.027-2.2c.161-.07.156-.511-.056-.488Z"/><path d="M27.68,47.2a15.534,15.534,0,0,0,3.3,2.561c1.175.819,2.358,1.645,3.465,2.555a17.84,17.84,0,0,1,4.783,5.719c.213.434.655.8,1.1.41a1.575,1.575,0,0,0,.246-1.67A17.437,17.437,0,0,0,35.4,50.467a25.035,25.035,0,0,0-3.581-2.353A10.2,10.2,0,0,0,27.853,46.5c-.3-.014-.306.542-.173.7Z"/><path d="M54.931,60.556A32.625,32.625,0,0,1,57.7,56.487a26.116,26.116,0,0,1,3.328-3.673,20.607,20.607,0,0,1,8.718-4.647c.627-.158.506-1.739-.192-1.694a14.993,14.993,0,0,0-9.378,4.274,20.631,20.631,0,0,0-3.414,4.207A26.558,26.558,0,0,0,54.5,60.069c-.09.257.2.913.435.487Z"/><circle class="d" cx="39.972" cy="46.908" r="3.18"/><circle class="e" cx="39.972" cy="46.908" r="2.862"/><circle cx="39.017" cy="47.225" r="0.954"/><circle class="e" cx="39.017" cy="47.225" r="0.636"/><circle class="d" cx="54.058" cy="47.089" r="3.055"/><circle class="f" cx="54.058" cy="47.089" r="2.75"/><circle cx="53.199" cy="47.88" r="0.917"/><circle class="f" cx="53.199" cy="47.88" r="0.611"/><path d="M39.119,44.215a3.555,3.555,0,0,0-1.78,3.1,2.967,2.967,0,0,0,2.638,2.516A3.252,3.252,0,0,0,43.353,48.4a2.987,2.987,0,0,0,.3-1.821,3.925,3.925,0,0,0-.5-1.742,3.277,3.277,0,0,0-.74-.756,1.691,1.691,0,0,0-.929-.373,5.833,5.833,0,0,0-2.2.063c-.336.093-.255.987.1.909a8.119,8.119,0,0,1,2.288.019,1.4,1.4,0,0,1,.6.382,1.928,1.928,0,0,1,.67,1.106A2.893,2.893,0,0,1,43,47.4a2.4,2.4,0,0,1-2.429,1.459,2.688,2.688,0,0,1-2.556-1.353c-.485-1.1.542-2.158,1.3-2.827.164-.144.051-.647-.193-.467Z"/><path d="M52.181,44.583a4.328,4.328,0,0,0-1.246,1.5,3.381,3.381,0,0,0-.234,2.038,3.191,3.191,0,0,0,3.266,2.483,3.3,3.3,0,0,0,3.089-2.169,4.469,4.469,0,0,0,.158-.995,3.076,3.076,0,0,0-.164-.948c-.077-.271-.139-.549-.239-.814a2.244,2.244,0,0,0-.44-.659,4.015,4.015,0,0,0-.736-.76,1.8,1.8,0,0,0-.9-.24,5.733,5.733,0,0,0-2.242.071c-.389.118-.271,1.05.193.937a5.1,5.1,0,0,1,1.565-.036,1.911,1.911,0,0,1,1.3.359,2.64,2.64,0,0,1,.734,1,3.107,3.107,0,0,1,.242,1.143,1.666,1.666,0,0,1-.465,1.114,3.2,3.2,0,0,1-1.467.863,2.868,2.868,0,0,1-3.112-1.161c-.676-1.187.042-2.392.9-3.234.161-.157.045-.7-.2-.492Z"/><path d="M23.123,57.074a3.868,3.868,0,0,1,.912-.371,10.788,10.788,0,0,1,1.492-.285c1.26-.173,2.525-.3,3.779-.51,2.223-.37,6.068-1.052,6.57-3.735.083-.444-.275-2.061-1.067-1.542-.6.392-.778.82-1.212,1.213a5.538,5.538,0,0,1-1.326.871,18.627,18.627,0,0,1-3.742,1.248c-1.211.3-2.437.527-3.648.823a5.886,5.886,0,0,0-2.347.86c-.534.424-.132,1.985.589,1.428Z"/><path d="M73.1,62.309a14.388,14.388,0,0,0-7.233-9.8c-.675-.362-1.207.641-1.273,1.157a1.853,1.853,0,0,0,.787,1.964,13.358,13.358,0,0,1,6.819,7.289c.1.26.365.465.632.3a.9.9,0,0,0,.268-.905Z"/><path d="M72.235,63.029a.088.088,0,0,1,.037.032l-.135-.2-.029-.092-.008-.317.16-.327-.091.112a1.507,1.507,0,0,0-.078.175c-.016-.006.229-.3.057-.126l-.081.081a4.036,4.036,0,0,0-.419.466c-.214.292-.434.586-.621.895a1.455,1.455,0,0,0-.154,1.038c.053.253.214.657.5.73a.979.979,0,0,0,.788-.089,1.748,1.748,0,0,0,.614-.641,6.244,6.244,0,0,0,.3-.7l.018-.043c.041-.091.025-.059-.047.1.021-.03.036-.067.056-.1.1-.158-.1.088-.034.032a1.45,1.45,0,0,1,.118-.1l-.17.116.038-.024-.913-.751c.186.613.354,1.232.524,1.851a3.056,3.056,0,0,0,.45,1.062,1.037,1.037,0,0,0,1.191.441,1.462,1.462,0,0,0,.8-.952,2.9,2.9,0,0,0-.1-1.85A9.244,9.244,0,0,0,74.3,62.3a2.653,2.653,0,0,0-1.413-1.291c-.479-.152-.792.294-.894.7a1.479,1.479,0,0,0,.352,1.462,4.656,4.656,0,0,1,.61.573l-.173-.193a3.564,3.564,0,0,1,.37.51c.025.042.048.086.074.128-.194-.309-.072-.136-.031-.054s.1.194.139.293c.089.2.173.4.252.6.022.055.037.115.063.168-.055-.193-.071-.244-.049-.154.007.029.013.058.017.087a1.157,1.157,0,0,1,.046-.643c-.038.1-.015.059.067-.132a.54.54,0,0,1-.051.074l.161-.2a.762.762,0,0,1-.1.091l.193-.131a.492.492,0,0,1-.156.067l.217-.05a.507.507,0,0,1-.129,0l.219.039a.436.436,0,0,1-.148-.056l.2.12a.694.694,0,0,1-.093-.079l.169.189c-.024-.027-.043-.057-.066-.083-.119-.137.072.081.053.11a1.473,1.473,0,0,0-.086-.2c-.076-.2-.148-.406-.221-.609-.149-.408-.3-.817-.433-1.229a.867.867,0,0,0-.447-.5.588.588,0,0,0-.557.126,2.063,2.063,0,0,0-.66,1.03l-.071.2-.033.089c-.051.146.095-.166.036-.069-.017.028-.032.057-.05.085-.076.119-.012,0,.037-.034-.063.044-.111.11-.175.155l.165-.112a.716.716,0,0,1-.16.071l.185-.043a.528.528,0,0,1-.173.009l.187.034-.045-.009.351,1.767a9.959,9.959,0,0,0,.789-1.776,1.314,1.314,0,0,0-.03-1.224.374.374,0,0,0-.661.018c-.121.2-.148.656.088.8Z"/><path d="M22.351,55.165a1.639,1.639,0,0,0-.56-.261,5.217,5.217,0,0,0-.653-.124,3.467,3.467,0,0,0-1.089.13,5.578,5.578,0,0,0-.539.148,1.045,1.045,0,0,0-.57,1.084,1.67,1.67,0,0,0,.708,1.347,1.58,1.58,0,0,0,1.2.234c.416-.08.824-.213,1.231-.327a2.623,2.623,0,0,0,1.037-.408,1.256,1.256,0,0,0,.367-.57,1.638,1.638,0,0,0,.054-.825,1.2,1.2,0,0,0-.407-.68,6.4,6.4,0,0,0-2.082-1.271l.49.707-.005-.034.014.547q-.723.753-.341.609l-.178.041a.636.636,0,0,1,.242,0l-.18-.032a2.434,2.434,0,0,1,.529.2c.086.042.169.089.253.135s-.106-.072.009.007c.048.033.1.065.142.1a3.531,3.531,0,0,1,.436.373c.034.034.172.141.017.012a1.574,1.574,0,0,1,.142.164.566.566,0,0,0,.507.235c.424-.056.582-.546.572-.919a1.451,1.451,0,0,0-.338-.95,5.111,5.111,0,0,0-.42-.438,4.755,4.755,0,0,0-.911-.636,2.1,2.1,0,0,0-.935-.314.779.779,0,0,0-.536.2,1.456,1.456,0,0,0-.309,1.28.909.909,0,0,0,.49.707,5.713,5.713,0,0,1,.544.225c.08.038.16.078.238.12.044.023.087.047.13.071.018.01.161.095.073.042s.069.045.07.045l.1.066c.082.056.163.114.242.174a5.929,5.929,0,0,1,.454.383l-.334-1.137a.887.887,0,0,1,.106-.294c.087-.1.107-.127.06-.086-.03.024-.022.019.024-.014.091-.065,0-.008-.021,0s-.072.031-.11.045c-.173.063-.355.108-.533.16-.383.112-.765.24-1.155.329l.174-.04a1.53,1.53,0,0,1-.564.022l.175.032a2.176,2.176,0,0,1-.212-.067c-.07-.037-.064-.031.019.017a.762.762,0,0,1-.064-.048c-.153-.123.057.1-.025-.015-.05-.078-.038-.053.037.073a1.025,1.025,0,0,1,.058.547l-.434.7a4.671,4.671,0,0,1,.583-.235c.1-.032.2-.056.293-.085.064-.02-.061.01.05-.012.061-.013.123-.025.184-.036.137-.023.272-.042.407-.076l.152-.041c.016-.005.135-.033.072-.019a3.821,3.821,0,0,0,.752-.2.747.747,0,0,0,.068-1.118Z"/></svg>