<svg xmlns="http://www.w3.org/2000/svg" width="100" height="100" viewBox="0 0 100 100"><defs><style>.a{fill:#429642;}.b{fill:#fff;}.c,.d{fill:none;stroke:#000;}.c{stroke-width:0.636px;}.d{stroke-width:0.611px;}</style></defs><title>asparagus</title><path class="a" d="M33.585,57.6c.159,10.013-2.775,20.112-3.453,30.148a3.044,3.044,0,0,0,3,3c5.286.209,6.416-3.749,6.566-8.475a83.641,83.641,0,0,0-1.123-16.261c-.637-3.8-6.42-2.188-5.786,1.6a63.113,63.113,0,0,1,.721,9.359c.026,1.31.19,2.663.174,3.964a7.048,7.048,0,0,1-.254,3.053q-.453,3.275-.3.764l3,3c.68-10.062,3.613-20.077,3.453-30.148-.062-3.857-6.062-3.869-6,0Z"/><path class="a" d="M28.82,60.661a6.191,6.191,0,0,0-.19,3,12.476,12.476,0,0,0,1.117,2.228l-.409-1.514a6.357,6.357,0,0,0,.217,2.979c.235.538.906,1.135.982,1.705a3.1,3.1,0,0,0,3,3c1.455,0,3.215-1.382,3-3A9.927,9.927,0,0,0,36.1,66.9a8.354,8.354,0,0,0-.508-1.14c-.082-.146-.824-1.16-.427-.417q.083.666.117-.088a2.627,2.627,0,0,0,.056-.638,3.99,3.99,0,0,0-.256-1.395,2.36,2.36,0,0,0-.455-.907q-.218-.393-.135.12-.045.671.117-.175c.98-3.738-4.806-5.333-5.786-1.595Z"/><path class="a" d="M32.531,41.621,31.482,51.784c-.241,2.335-1.4,6.3-.62,8.61,1.892,5.635,6.864.54,8.951-1.653,2.662-2.8-1.574-7.047-4.242-4.243l-1.9,2q-1.728,1.659-.415.588l2.919.772-.3-.378.878,2.122c-.234-5.836,1.176-12.159,1.777-17.976.4-3.837-5.607-3.809-6,0Z"/><path class="a" d="M29.527,34.534c-.865,1.971-2.3,4.174-1.1,6.314.367.653,1.39,1.177,1.655,1.714a7.379,7.379,0,0,1,.288,1.676c.237,1.6,2.266,2.487,3.691,2.095a3.077,3.077,0,0,0,2.095-3.69,8.675,8.675,0,0,0-.919-3.071,6.875,6.875,0,0,0-.912-1.253,6.32,6.32,0,0,0-.9-.74q-.641-.47.11.086l.41,1.514c-.024.518.192-.322.266-.491l.494-1.126a3.1,3.1,0,0,0-1.076-4.1c-1.273-.745-3.45-.416-4.1,1.076Z"/><path class="a" d="M32.419,19.613a182.518,182.518,0,0,0-1.728,21.5c-.063,3.328,5.161,4.148,5.893.8.823-3.768.879-7.538,1.287-11.356.444-4.16,2.04-8.022,2.295-12.211.235-3.857-5.766-3.843-6,0-.219,3.6-1.656,7.007-2.114,10.585-.487,3.805-.432,7.622-1.254,11.387l5.893.8a168.938,168.938,0,0,1,1.514-19.909c.521-3.776-5.259-5.409-5.786-1.595Z"/><path class="a" d="M34.844,18.649a13.841,13.841,0,0,0,.533,2.139q.02-.2.016.268c.063-.241.068-.255.017-.044s-.045.2.041-.019a3.14,3.14,0,0,1,.253-.288,3,3,0,0,0,3.028,5.181,5.3,5.3,0,0,0,2.593-4.127c.19-1.635-.4-3.125-.7-4.705a3.03,3.03,0,0,0-3.691-2.1,3.064,3.064,0,0,0-2.095,3.691Z"/><path class="a" d="M34.064,10.1c-3.7,3.619-8.573,10.784-4.1,15.622,1.925,2.084,5.25,2.293,6.978-.128a9.657,9.657,0,0,0,1.2-4.026,39.185,39.185,0,0,1,1.258-4.778c1.2-3.68-4.594-5.257-5.785-1.595a40.213,40.213,0,0,0-1.095,3.97,10.923,10.923,0,0,0-.437,2.433l-.113.611q2.619.466,2.275-.947c.25-.574.208-1.429.5-2.076a14.751,14.751,0,0,1,.923-1.652,17,17,0,0,1,2.641-3.191c2.765-2.7-1.479-6.946-4.243-4.243Z"/><path class="a" d="M31.009,18.015l-1.577,4.814C28.354,26.119,33.19,28,34.916,25.14A18.586,18.586,0,0,0,37.2,19.461l-5.892-.8c.092-.836,1.719-1.733-.127-.888A5.993,5.993,0,0,0,29.7,18.861l5.121,2.121-.021-.327a3,3,0,0,0-1.486-2.59c-1.861-.85-3.955-.531-4.908,1.462-1.385,2.894,2.261,6.306,4.711,3.635,1.726-1.88,4.158-3.827,5.4-6.068a4.57,4.57,0,0,0,.533-3.054c-.071-.393-.6-2.473-.586-1.485-.055-3.916-5.667-3.795-6,0a16.287,16.287,0,0,0,1.521,8.233c1.338,3.035,5.319,1.064,5.591-1.514a4.76,4.76,0,0,0-.208-1.946L33.884,19.64c.344.647.561,1.313.868,1.972.155.333,1.108-.482-.28.181a4.7,4.7,0,0,0-2.3,2c-1.639,2.709,1.536,5.379,4.1,4.1A13.634,13.634,0,0,0,42.1,22.378c1.655-2.863-2.433-6.288-4.712-3.636C35.614,20.8,33.23,22.9,32.13,25.4c-1.539,3.5,3.629,6.56,5.18,3.029.883-2.009,2.895-3.789,4.319-5.445l-4.712-3.636a8.059,8.059,0,0,1-3.664,3.372l4.1,4.1c-.65,1.075,1.023,0,1.5-.347a4.87,4.87,0,0,0,1.825-2.643c.705-2.471-.473-5.077-1.613-7.224-1.6-3.012-6.418-.944-5.484,2.312l-.006.351,5.59-1.514a10.223,10.223,0,0,1-.7-5.205h-6a4.023,4.023,0,0,0,.418,2.085l.247.558q.588-1.785-.2-.7c-1.328.537-3.094,3.372-4.058,4.423l4.712,3.635-.6.541H29.952l.329.15L28.8,20.655l.021.327A3.041,3.041,0,0,0,33.938,23.1a7.48,7.48,0,0,0,2.223-1.156,5.571,5.571,0,0,0,1.148-3.283c.37-3.362-5.171-4.073-5.893-.8a13.52,13.52,0,0,1-1.681,4.246l5.483,2.312L36.8,19.61c1.2-3.678-4.587-5.254-5.786-1.595Z"/><path class="a" d="M31.782,25.788,29.9,36.658c-.652,3.776,5.129,5.4,5.786,1.595l1.877-10.87c.653-3.777-5.128-5.4-5.785-1.595Z"/><path class="a" d="M32.666,28.507a23.284,23.284,0,0,1-.233,4.3A3.092,3.092,0,0,0,34.528,36.5c1.433.393,3.428-.487,3.691-2.1a31.089,31.089,0,0,0,.447-5.9,3,3,0,0,0-6,0Z"/><path d="M35.106,8.344a67.344,67.344,0,0,0-5.8,7.336,14.235,14.235,0,0,0-1.891,3.979,9.043,9.043,0,0,0,.113,3.957,4.956,4.956,0,0,0,1.8,2.876,4.961,4.961,0,0,1,1.3,1.3c.41.832.1,2.181-.012,3.063-.358,2.794-2.485,4.915-2.954,7.7-.56,3.332,3.151,5.166,2.97,8.343-.1,1.747-.263,3.492-.395,5.237a47.526,47.526,0,0,1-.511,5.979c-.311,1.506-1.545,2.493-2.058,3.915a4.512,4.512,0,0,0,.6,4.178c.677.932,2,1.653,2.153,2.857a40.653,40.653,0,0,1-.161,6.048c-.135,4.271-.433,8.574-.355,12.847.027,1.482.469,2.748,2.095,2.86,2.274.158,4.564-.052,6.834-.113.922-.026.848-1.964-.05-2.051-1.961-.19-3.9-.417-5.874-.533a4.582,4.582,0,0,0-.978-.058l-.306-.044q.248.427.158-.107a13.349,13.349,0,0,0,.124-2.65c.178-3.716.244-7.441.363-11.159.1-3.01.832-6.369-1.374-8.784-.344-.376-.734-.716-1.06-1.107-.463-.555-.417-.627-.038-1.233A10.764,10.764,0,0,0,31.741,58.9a46.533,46.533,0,0,0,.373-4.982l.36-5.725a8.935,8.935,0,0,0-.527-4.466c-.618-1.367-1.609-2.52-2.288-3.832-.45-.87.228-1.958.61-2.792a23.7,23.7,0,0,0,1.758-3.783c.693-2.642,1.168-6.273-.947-8.373-.433-.429-.947-.773-1.37-1.211A2.669,2.669,0,0,1,29.069,22a6.311,6.311,0,0,1,1.3-4.143c1.761-2.865,4.255-5.3,5.431-8.5.123-.335-.2-1.586-.7-1.006Z"/><path d="M35.736,9.873c.056-.059.071-.093.3.158a7.2,7.2,0,0,1,.936,1.48c.72,1.369,1.284,2.819,1.88,4.243.614,1.467,1.27,2.93,1.83,4.418.7,1.863.6,3.269-.769,4.707-.849.893-1.938,1.774-2.234,3.018a16.616,16.616,0,0,0-.194,3.771c0,.283,0,.566,0,.85,0,.112-.021.67,0,.307-.074,1.188-.219,2.371-.277,3.562-.1,1.977-.062,3.956-.044,5.934.022,2.414-.154,4.84,0,7.249.123,1.9.351,3.6-.51,5.37l1.473,1.243a2.116,2.116,0,0,1,1.134-1.818l-.871-.326c.681.852,2.194,2.343,1.7,3.554-.213.529-.842.881-1.157,1.358a3.963,3.963,0,0,0-.6,1.627,29.04,29.04,0,0,0-.074,4.214l-.006,4.914c-.008,6.388.025,12.778-.03,19.166C38.216,90.531,40,90.485,40,88.829c-.013-6.962.071-13.926.111-20.888l.029-5.161c0-.752-.136-1.464.384-2.053a5.582,5.582,0,0,0,1.152-1.567c1.149-2.744-.432-5.309-2.264-7.268a.653.653,0,0,0-.894.022,5.342,5.342,0,0,0-2.072,3.611c-.114.755.74,2.473,1.473,1.243a9.7,9.7,0,0,0,1.288-5.4c-.063-2.28-.058-4.534-.04-6.815.019-2.327-.066-4.655-.006-6.981.049-1.9.318-3.788.322-5.691,0-.735-.011-1.473.023-2.208.012-.268.059-.534.072-.8s-.268.315-.041.183a1.9,1.9,0,0,0,.282-.337c1.121-1.294,2.39-2.278,2.942-3.965.779-2.382.117-4.7-.864-6.909-.691-1.555-1.345-3.129-2.075-4.666-.523-1.1-3.063-7.339-4.954-4.917-.433.555.125,2.38.868,1.613Z"/><path d="M35.007,65.443a4.165,4.165,0,0,0,.151-2.1,13.894,13.894,0,0,0-.473-2.353,8.172,8.172,0,0,0-.9-2.171,3.363,3.363,0,0,0-1.6-1.478c-.709-.226-1.173.437-1.325,1.042a2.219,2.219,0,0,0,.522,2.165c.19.16.4.3.578.468a1.429,1.429,0,0,0,.128.13c-.232-.167-.115-.13-.035-.026s.147.2.213.3c.034.052.067.106.1.159s.135.24.02.031c-.157-.286.115.22.087.167.053.1.106.2.16.294.024.042.128.232.018.027s-.008-.011.014.032c.071.139.139.28.206.422.25.529.465,1.073.708,1.6a3.8,3.8,0,0,0,.914,1.51c.228.177.426-.008.522-.223Z"/><path d="M34.631,40.114a2.262,2.262,0,0,0,.344-.831,6.155,6.155,0,0,0,.048-.794A5.683,5.683,0,0,0,35,37.751a5.936,5.936,0,0,0-.279-1.333c-.1-.293-.213-.58-.326-.867a4.255,4.255,0,0,0-.481-.981,5.8,5.8,0,0,0-.664-.754,4.068,4.068,0,0,0-.6-.47,1.552,1.552,0,0,0-.95-.354c-.711.083-1.006.934-.972,1.562.031.56.309,1.547,1.048,1.513a.4.4,0,0,1,.077.005l-.27-.048a.905.905,0,0,1,.233.1l-.247-.15a5.414,5.414,0,0,1,.974.866c.138.143-.207-.253-.084-.094.027.035.056.067.082.1.143.187.05.125-.052-.133.11.279.24.551.356.827.084.2.16.4.233.6.032.088.066.175.1.263.045.121.035.265-.051-.175.009.047.025.094.036.139a5.748,5.748,0,0,1,.115.648c.013.1.039.34-.008-.083a3,3,0,0,0,.1.574,2.706,2.706,0,0,0,.318.625.536.536,0,0,0,.945-.023Z"/><path d="M31.534,16.466a23.673,23.673,0,0,0,1.093,2.272,15.332,15.332,0,0,1,.8,2.312,12.129,12.129,0,0,1,.343,4.636c-.063.506.044,1.291.6,1.5.54.2.921-.436.972-.883a15.518,15.518,0,0,0-.447-6,13.348,13.348,0,0,0-1.134-2.729A4.987,4.987,0,0,0,32.03,15.42c-.548-.289-.579.789-.5,1.046Z"/><path d="M38.749,16.6a3.015,3.015,0,0,0-1.888.438,5.33,5.33,0,0,0-1.577,1.517,8.684,8.684,0,0,0-1,2.141,8.528,8.528,0,0,0-.488,2.717,1.106,1.106,0,0,0,.541,1.018c.371.139.66-.2.78-.511a7.562,7.562,0,0,0,.328-1.126c.039-.177.08-.353.117-.53.04-.194-.071.253.02-.08l.057-.209A9.441,9.441,0,0,1,36,20.954c.028-.066.056-.132.086-.2.14-.313-.041.074.049-.1.078-.15.159-.3.248-.441A5.53,5.53,0,0,1,37.424,18.9a6.516,6.516,0,0,1,1.465-1.06c.425-.207.4-1.2-.14-1.234Z"/><path d="M35.133,45.785a1.413,1.413,0,0,0,.389.282,2.306,2.306,0,0,0,.233.068c.161.044.324.085.487.122.194.044.389.081.585.116a1.076,1.076,0,0,0,.352.02,1.382,1.382,0,0,0,.467-.1,1.406,1.406,0,0,0,.645-1.208,2.066,2.066,0,0,0-.082-.742,1.123,1.123,0,0,0-.706-.85c-.038-.012-.078-.022-.116-.033a2.185,2.185,0,0,0-.462-.1c-.165-.012-.33-.016-.495-.031s-.315-.031-.472-.052c-.078-.01-.157-.026-.235-.034a1.28,1.28,0,0,0-.442.112l-.2.139-.171.212a1.823,1.823,0,0,0,.227,2.077Z"/><path d="M31.521,73.819a1.493,1.493,0,0,0,.465.3,3.3,3.3,0,0,0,.38.083c.3.06.612.112.921.143q.389.039.778.041a2.953,2.953,0,0,0,.388-.009,1.435,1.435,0,0,0,.519-.21,1.16,1.16,0,0,0,.5-1.072,1.791,1.791,0,0,0-.112-.552.859.859,0,0,0-.443-.494,1.967,1.967,0,0,0-.527-.131c-.128,0-.26.028-.388.037-.249.018-.5.024-.748.018s-.5-.023-.744-.053c-.128-.015-.255-.042-.382-.055a1.416,1.416,0,0,0-.5.1.647.647,0,0,0-.286.267,1.389,1.389,0,0,0,.173,1.584Z"/><path d="M30.779,80.009a2.025,2.025,0,0,0,.548.311,4,4,0,0,0,.695.065c.42.045.844.088,1.261.159l-.187-.033c.231.042.457.095.684.154a1.323,1.323,0,0,0,.929.034,1.032,1.032,0,0,0,.478-.895,1.338,1.338,0,0,0-.359-1.05,1.656,1.656,0,0,0-1.181-.339,7.239,7.239,0,0,0-1.009.038,5,5,0,0,0-1.049.252,1.285,1.285,0,0,0-.5.256,2.558,2.558,0,0,0-.372.451.5.5,0,0,0,.065.6Z"/><circle class="b" cx="31.198" cy="37.602" r="3.18"/><circle class="c" cx="31.198" cy="37.602" r="2.862"/><circle cx="30.244" cy="37.919" r="0.954"/><circle class="c" cx="30.244" cy="37.919" r="0.636"/><circle class="b" cx="37.55" cy="37.783" r="3.055"/><circle class="d" cx="37.55" cy="37.783" r="2.75"/><circle cx="36.691" cy="38.574" r="0.917"/><circle class="d" cx="36.691" cy="38.574" r="0.611"/><path d="M30.346,34.909a3.558,3.558,0,0,0-1.781,3.1A2.967,2.967,0,0,0,31.2,40.524,3.252,3.252,0,0,0,34.579,39.1a2.988,2.988,0,0,0,.3-1.821,3.942,3.942,0,0,0-.5-1.743,3.292,3.292,0,0,0-.74-.755,1.691,1.691,0,0,0-.929-.373,5.833,5.833,0,0,0-2.2.063c-.336.093-.256.987.1.909a5.344,5.344,0,0,1,1.567-.057,5.44,5.44,0,0,1,.721.076,1.382,1.382,0,0,1,.6.382,1.915,1.915,0,0,1,.67,1.106,2.876,2.876,0,0,1,.051,1.213A2.394,2.394,0,0,1,31.8,39.556,2.687,2.687,0,0,1,29.24,38.2c-.485-1.1.542-2.158,1.3-2.826.163-.144.051-.647-.193-.467Z"/><path d="M35.673,35.277a4.319,4.319,0,0,0-1.247,1.5,3.386,3.386,0,0,0-.234,2.037A3.192,3.192,0,0,0,37.458,41.3a3.3,3.3,0,0,0,3.089-2.169,4.47,4.47,0,0,0,.159-.995,3.1,3.1,0,0,0-.164-.948c-.077-.272-.14-.549-.24-.814a2.241,2.241,0,0,0-.439-.659,4.051,4.051,0,0,0-.737-.76,1.793,1.793,0,0,0-.9-.24,5.719,5.719,0,0,0-2.243.071c-.389.118-.27,1.05.193.937a5.1,5.1,0,0,1,1.565-.036,1.909,1.909,0,0,1,1.3.359,2.634,2.634,0,0,1,.734,1,3.112,3.112,0,0,1,.242,1.144A1.661,1.661,0,0,1,39.55,39.3a3.2,3.2,0,0,1-1.466.863A2.866,2.866,0,0,1,34.972,39c-.677-1.186.041-2.392.9-3.233.16-.157.044-.7-.2-.492Z"/><path d="M19.63,50.661a3.784,3.784,0,0,1,.912-.371A10.79,10.79,0,0,1,22.034,50c1.26-.172,2.525-.3,3.779-.51,2.223-.369,6.068-1.051,6.57-3.735.083-.443-.275-2.06-1.067-1.542-.6.392-.778.821-1.212,1.214a5.569,5.569,0,0,1-1.326.871,18.754,18.754,0,0,1-3.742,1.248c-1.211.3-2.437.526-3.648.823a5.871,5.871,0,0,0-2.347.86c-.534.424-.132,1.985.589,1.428Z"/><path d="M46.256,55.9a14.382,14.382,0,0,0-7.232-9.8c-.676-.362-1.208.64-1.274,1.157a1.851,1.851,0,0,0,.788,1.963A13.368,13.368,0,0,1,45.357,56.5c.1.261.364.466.632.3a.9.9,0,0,0,.267-.906Z"/><path d="M45.4,56.616a.089.089,0,0,1,.038.031l-.136-.2-.029-.091-.007-.317.159-.327-.09.112a1.384,1.384,0,0,0-.079.175c-.016-.007.229-.3.058-.126l-.081.08a4.045,4.045,0,0,0-.42.467c-.214.292-.434.585-.621.9a1.452,1.452,0,0,0-.154,1.037c.053.253.215.658.505.73A.979.979,0,0,0,45.327,59a1.751,1.751,0,0,0,.614-.642,6.423,6.423,0,0,0,.306-.7l.018-.044c.04-.09.024-.058-.048.1.022-.031.036-.068.056-.1.1-.158-.1.089-.034.033a1.464,1.464,0,0,1,.119-.1l-.171.116.039-.025-.913-.751c.186.614.353,1.233.524,1.851a3.043,3.043,0,0,0,.45,1.063,1.037,1.037,0,0,0,1.191.441,1.461,1.461,0,0,0,.8-.952,2.894,2.894,0,0,0-.1-1.851,9.155,9.155,0,0,0-.718-1.546,2.656,2.656,0,0,0-1.412-1.292c-.479-.152-.792.3-.895.7a1.48,1.48,0,0,0,.352,1.462,4.59,4.59,0,0,1,.61.573l-.172-.193a3.473,3.473,0,0,1,.369.509c.025.042.048.087.074.128-.193-.308-.072-.135-.031-.054.049.1.095.2.139.293.09.2.173.4.253.6.021.055.037.116.062.169-.055-.193-.071-.245-.049-.154q.011.043.018.087a1.159,1.159,0,0,1,.045-.644c-.037.1-.015.059.068-.131a.653.653,0,0,1-.052.074l.161-.2a.682.682,0,0,1-.1.09l.193-.13a.5.5,0,0,1-.157.067l.217-.05a.457.457,0,0,1-.128,0l.218.04a.446.446,0,0,1-.148-.057l.2.12a.678.678,0,0,1-.092-.078l.168.188c-.023-.026-.043-.056-.066-.083-.118-.137.073.081.053.111a1.364,1.364,0,0,0-.085-.2c-.076-.2-.148-.406-.222-.61-.148-.408-.295-.816-.433-1.228a.867.867,0,0,0-.447-.5.588.588,0,0,0-.557.125,2.054,2.054,0,0,0-.659,1.031c-.025.068-.047.136-.072.2-.01.029-.022.059-.032.088-.052.147.095-.166.035-.068-.017.028-.032.057-.049.085-.077.119-.013,0,.036-.035-.062.044-.11.111-.175.155l.165-.112a.719.719,0,0,1-.16.072L44.891,57a.56.56,0,0,1-.173.009l.186.033-.044-.009.351,1.767A9.977,9.977,0,0,0,46,57.021a1.311,1.311,0,0,0-.03-1.224.374.374,0,0,0-.661.018c-.121.2-.147.656.088.8Z"/><path d="M18.858,48.751a1.63,1.63,0,0,0-.56-.261,5.214,5.214,0,0,0-.653-.123,3.466,3.466,0,0,0-1.089.129,5.31,5.31,0,0,0-.539.149,1.043,1.043,0,0,0-.57,1.083,1.669,1.669,0,0,0,.708,1.347,1.576,1.576,0,0,0,1.2.235c.416-.081.824-.214,1.232-.327a2.654,2.654,0,0,0,1.036-.408,1.262,1.262,0,0,0,.367-.57,1.643,1.643,0,0,0,.054-.826,1.2,1.2,0,0,0-.407-.679,6.382,6.382,0,0,0-2.082-1.271l.49.707,0-.034.014.547q-.723.753-.341.608l-.178.041a.636.636,0,0,1,.242,0l-.18-.032a2.434,2.434,0,0,1,.529.2c.086.042.169.089.253.134s-.106-.071.009.008c.048.033.1.064.142.1a3.447,3.447,0,0,1,.436.373c.034.034.172.14.017.012a1.467,1.467,0,0,1,.142.163.567.567,0,0,0,.507.236c.424-.057.582-.546.572-.919a1.455,1.455,0,0,0-.338-.951,5.263,5.263,0,0,0-.42-.438,4.8,4.8,0,0,0-.911-.635,2.073,2.073,0,0,0-.935-.314.783.783,0,0,0-.536.2,1.458,1.458,0,0,0-.309,1.281.909.909,0,0,0,.49.707c.185.066.366.14.544.224.08.038.16.079.238.12l.13.072c.018.01.161.095.073.041s.069.045.07.046l.1.066c.082.056.163.114.242.174a5.916,5.916,0,0,1,.454.382l-.334-1.136a.892.892,0,0,1,.106-.3c.087-.1.107-.127.06-.085q-.045.036.024-.015c.091-.065,0-.007-.021,0s-.072.032-.109.045c-.174.063-.356.108-.534.16-.383.112-.765.24-1.155.33l.174-.04a1.551,1.551,0,0,1-.564.022l.175.031a1.933,1.933,0,0,1-.212-.067c-.07-.037-.064-.031.019.017a.762.762,0,0,1-.064-.048c-.153-.123.057.1-.025-.015-.05-.077-.038-.053.037.074a1.022,1.022,0,0,1,.058.546l-.434.7a4.677,4.677,0,0,1,.583-.236c.1-.031.2-.055.293-.085.064-.019-.061.011.05-.012.061-.012.123-.025.184-.035.137-.024.272-.042.407-.076.051-.013.1-.029.152-.042l.072-.018a3.756,3.756,0,0,0,.752-.2.747.747,0,0,0,.068-1.118Z"/><path class="a" d="M50.828,57.6c.159,10.013-2.775,20.112-3.452,30.148a3.043,3.043,0,0,0,3,3c5.286.209,6.415-3.749,6.565-8.475a83.64,83.64,0,0,0-1.122-16.261c-.637-3.8-6.42-2.188-5.786,1.6a63.248,63.248,0,0,1,.721,9.359c.026,1.31.19,2.663.173,3.964a7.033,7.033,0,0,1-.254,3.053q-.452,3.275-.3.764l3,3c.679-10.062,3.612-20.077,3.452-30.148-.061-3.857-6.061-3.869-6,0Z"/><path class="a" d="M46.064,60.661a6.167,6.167,0,0,0-.19,3,12.476,12.476,0,0,0,1.117,2.228l-.41-1.514a6.357,6.357,0,0,0,.218,2.979c.235.538.906,1.135.981,1.705a3.1,3.1,0,0,0,3,3c1.455,0,3.215-1.382,3-3a9.81,9.81,0,0,0-.44-2.162,8.116,8.116,0,0,0-.508-1.14c-.081-.146-.824-1.16-.426-.417q.081.666.116-.088a2.628,2.628,0,0,0,.057-.638,3.99,3.99,0,0,0-.256-1.395,2.36,2.36,0,0,0-.455-.907q-.218-.393-.136.12-.045.671.118-.175c.979-3.738-4.806-5.333-5.786-1.595Z"/><path class="a" d="M49.774,41.621,48.725,51.784c-.241,2.335-1.4,6.3-.62,8.61,1.893,5.635,6.864.54,8.952-1.653,2.662-2.8-1.574-7.047-4.243-4.243l-1.9,2q-1.728,1.659-.414.588l2.918.772-.3-.378L54,59.6c-.235-5.836,1.176-12.159,1.776-17.976.4-3.837-5.607-3.809-6,0Z"/><path class="a" d="M46.771,34.534c-.865,1.971-2.3,4.174-1.1,6.314.367.653,1.39,1.177,1.654,1.714a7.324,7.324,0,0,1,.289,1.676c.236,1.6,2.265,2.487,3.69,2.095a3.075,3.075,0,0,0,2.095-3.69,8.673,8.673,0,0,0-.918-3.071,6.833,6.833,0,0,0-.913-1.253,6.368,6.368,0,0,0-.9-.74q-.642-.47.11.086l.409,1.514c-.023.518.192-.322.267-.491l.494-1.126a3.1,3.1,0,0,0-1.076-4.1c-1.274-.745-3.45-.416-4.1,1.076Z"/><path class="a" d="M49.663,19.613a182.3,182.3,0,0,0-1.728,21.5c-.064,3.328,5.161,4.148,5.893.8.822-3.768.879-7.538,1.287-11.356.444-4.16,2.04-8.022,2.295-12.211.235-3.857-5.766-3.843-6,0-.219,3.6-1.657,7.007-2.115,10.585-.487,3.805-.431,7.622-1.253,11.387l5.893.8a169.15,169.15,0,0,1,1.513-19.909c.522-3.776-5.259-5.409-5.785-1.595Z"/><path class="a" d="M52.088,18.649a13.616,13.616,0,0,0,.533,2.139q.02-.2.016.268c.062-.241.068-.255.016-.044s-.044.2.042-.019a3,3,0,0,1,.253-.288,3,3,0,1,0,3.028,5.181,5.3,5.3,0,0,0,2.593-4.127c.189-1.635-.4-3.125-.7-4.705a3.028,3.028,0,0,0-3.69-2.1,3.063,3.063,0,0,0-2.095,3.691Z"/><path class="a" d="M51.308,10.1c-3.7,3.619-8.574,10.784-4.1,15.622,1.926,2.084,5.251,2.293,6.978-.128a9.628,9.628,0,0,0,1.2-4.026,39.189,39.189,0,0,1,1.259-4.778c1.2-3.68-4.595-5.257-5.786-1.595a40.485,40.485,0,0,0-1.094,3.97A10.925,10.925,0,0,0,49.32,21.6l-.113.611q2.621.466,2.275-.947c.25-.574.208-1.429.5-2.076a14.912,14.912,0,0,1,.923-1.652,17.079,17.079,0,0,1,2.641-3.191c2.766-2.7-1.478-6.946-4.242-4.243Z"/><path class="a" d="M48.253,18.015l-1.577,4.814C45.6,26.119,50.433,28,52.159,25.14a18.588,18.588,0,0,0,2.286-5.679l-5.893-.8c.092-.836,1.72-1.733-.126-.888a5.956,5.956,0,0,0-1.487,1.085l5.121,2.121-.022-.327a3,3,0,0,0-1.485-2.59c-1.862-.85-3.955-.531-4.909,1.462-1.384,2.894,2.262,6.306,4.712,3.635,1.725-1.88,4.157-3.827,5.4-6.068a4.565,4.565,0,0,0,.534-3.054c-.071-.393-.6-2.473-.586-1.485-.055-3.916-5.668-3.795-6,0a16.266,16.266,0,0,0,1.521,8.233c1.338,3.035,5.318,1.064,5.59-1.514a4.742,4.742,0,0,0-.207-1.946L51.127,19.64c.344.647.561,1.313.868,1.972.155.333,1.108-.482-.28.181a4.7,4.7,0,0,0-2.3,2c-1.64,2.709,1.536,5.379,4.1,4.1a13.623,13.623,0,0,0,5.817-5.523c1.655-2.863-2.432-6.288-4.712-3.636C52.858,20.8,50.474,22.9,49.373,25.4c-1.538,3.5,3.63,6.56,5.181,3.029.882-2.009,2.894-3.789,4.318-5.445L54.16,19.349A8.049,8.049,0,0,1,50.5,22.721l4.1,4.1c-.651,1.075,1.022,0,1.495-.347a4.867,4.867,0,0,0,1.826-2.643c.7-2.471-.473-5.077-1.614-7.224-1.6-3.012-6.417-.944-5.483,2.312l-.007.351,5.591-1.514a10.2,10.2,0,0,1-.7-5.205h-6a4.022,4.022,0,0,0,.417,2.085l.247.558q.588-1.785-.2-.7c-1.328.537-3.094,3.372-4.059,4.423l4.712,3.635-.6.541H47.2l.328.15-1.486-2.591.022.327A3.04,3.04,0,0,0,51.181,23.1,7.456,7.456,0,0,0,53.4,21.947a5.565,5.565,0,0,0,1.148-3.283c.37-3.362-5.17-4.073-5.893-.8a13.5,13.5,0,0,1-1.681,4.246l5.484,2.312,1.576-4.814c1.205-3.678-4.587-5.254-5.785-1.595Z"/><path class="a" d="M49.025,25.788l-1.878,10.87c-.652,3.776,5.129,5.4,5.786,1.595l1.878-10.87c.652-3.777-5.129-5.4-5.786-1.595Z"/><path class="a" d="M49.909,28.507a23.2,23.2,0,0,1-.233,4.3,3.094,3.094,0,0,0,2.1,3.691c1.432.393,3.428-.487,3.69-2.1a30.926,30.926,0,0,0,.447-5.9,3,3,0,1,0-6,0Z"/><path d="M52.349,8.344a67.344,67.344,0,0,0-5.8,7.336,14.235,14.235,0,0,0-1.891,3.979,9.058,9.058,0,0,0,.114,3.957,4.952,4.952,0,0,0,1.8,2.876,4.991,4.991,0,0,1,1.3,1.3c.41.832.1,2.181-.013,3.063-.357,2.794-2.484,4.915-2.953,7.7-.561,3.332,3.15,5.166,2.97,8.343-.1,1.747-.264,3.492-.395,5.237a47.526,47.526,0,0,1-.511,5.979c-.312,1.506-1.546,2.493-2.058,3.915a4.512,4.512,0,0,0,.6,4.178c.677.932,2,1.653,2.153,2.857a40.52,40.52,0,0,1-.162,6.048c-.135,4.271-.432,8.574-.354,12.847.027,1.482.469,2.748,2.094,2.86,2.274.158,4.564-.052,6.835-.113.922-.026.848-1.964-.05-2.051-1.962-.19-3.9-.417-5.874-.533a4.591,4.591,0,0,0-.979-.058l-.306-.044c.166.285.218.25.159-.107a13.425,13.425,0,0,0,.124-2.65c.178-3.716.243-7.441.362-11.159.1-3.01.833-6.369-1.374-8.784-.343-.376-.733-.716-1.06-1.107-.462-.555-.416-.627-.037-1.233A10.779,10.779,0,0,0,48.985,58.9a46.794,46.794,0,0,0,.373-4.982l.36-5.725a8.935,8.935,0,0,0-.527-4.466c-.618-1.367-1.609-2.52-2.288-3.832-.45-.87.228-1.958.609-2.792a23.787,23.787,0,0,0,1.759-3.783c.693-2.642,1.168-6.273-.948-8.373-.432-.429-.947-.773-1.369-1.211A2.664,2.664,0,0,1,46.313,22a6.306,6.306,0,0,1,1.3-4.143c1.761-2.865,4.255-5.3,5.43-8.5.123-.335-.194-1.586-.7-1.006Z"/><path d="M52.979,9.873c.057-.059.072-.093.3.158a7.234,7.234,0,0,1,.935,1.48c.72,1.369,1.284,2.819,1.881,4.243.614,1.467,1.27,2.93,1.83,4.418.7,1.863.6,3.269-.769,4.707-.849.893-1.938,1.774-2.235,3.018a16.673,16.673,0,0,0-.193,3.771c0,.283,0,.566,0,.85,0,.112-.021.67,0,.307-.074,1.188-.218,2.371-.276,3.562-.1,1.977-.062,3.956-.044,5.934.022,2.414-.154,4.84,0,7.249.123,1.9.35,3.6-.511,5.37l1.473,1.243a2.119,2.119,0,0,1,1.135-1.818l-.871-.326c.681.852,2.194,2.343,1.7,3.554-.214.529-.843.881-1.157,1.358a3.965,3.965,0,0,0-.6,1.627,29.04,29.04,0,0,0-.073,4.214l-.006,4.914c-.008,6.388.025,12.778-.031,19.166-.014,1.659,1.772,1.613,1.769-.043-.013-6.962.072-13.926.111-20.888l.03-5.161c0-.752-.137-1.464.384-2.053A5.621,5.621,0,0,0,58.92,59.16c1.149-2.744-.432-5.309-2.264-7.268a.655.655,0,0,0-.895.022,5.341,5.341,0,0,0-2.071,3.611c-.114.755.74,2.473,1.473,1.243a9.718,9.718,0,0,0,1.288-5.4c-.063-2.28-.058-4.534-.04-6.815.018-2.327-.067-4.655-.007-6.981.049-1.9.319-3.788.322-5.691,0-.735-.01-1.473.023-2.208.012-.268.06-.534.073-.8s-.268.315-.042.183a1.86,1.86,0,0,0,.282-.337c1.122-1.294,2.391-2.278,2.942-3.965.779-2.382.118-4.7-.863-6.909-.691-1.555-1.346-3.129-2.075-4.666-.523-1.1-3.063-7.339-4.954-4.917-.434.555.124,2.38.867,1.613Z"/><path d="M52.25,65.443a4.165,4.165,0,0,0,.152-2.1,13.9,13.9,0,0,0-.474-2.353,8.2,8.2,0,0,0-.9-2.171,3.367,3.367,0,0,0-1.6-1.478c-.709-.226-1.173.437-1.325,1.042a2.214,2.214,0,0,0,.522,2.165c.189.16.4.3.577.468a1.573,1.573,0,0,0,.128.13c-.231-.167-.114-.13-.034-.026s.146.2.213.3c.034.052.066.106.1.159s.135.24.02.031c-.158-.286.115.22.087.167.053.1.1.2.16.294.023.042.128.232.017.027s-.008-.011.014.032q.106.208.207.422c.25.529.464,1.073.707,1.6a3.791,3.791,0,0,0,.915,1.51c.227.177.426-.008.521-.223Z"/><path d="M51.875,40.114a2.244,2.244,0,0,0,.343-.831,5.982,5.982,0,0,0,.048-.794,5.683,5.683,0,0,0-.025-.738,5.936,5.936,0,0,0-.279-1.333c-.1-.293-.212-.58-.325-.867a4.3,4.3,0,0,0-.481-.981,5.806,5.806,0,0,0-.665-.754,3.967,3.967,0,0,0-.6-.47,1.549,1.549,0,0,0-.949-.354c-.711.083-1.006.934-.972,1.562.03.56.309,1.547,1.047,1.513a.4.4,0,0,1,.078.005l-.27-.048a.921.921,0,0,1,.233.1l-.247-.15a5.442,5.442,0,0,1,.973.866c.138.143-.206-.253-.083-.094.026.035.056.067.082.1.142.187.049.125-.052-.133.11.279.24.551.356.827.083.2.16.4.233.6.031.088.065.175.1.263.044.121.034.265-.052-.175.009.047.026.094.037.139a6.235,6.235,0,0,1,.115.648c.012.1.039.34-.009-.083a3.168,3.168,0,0,0,.1.574,2.71,2.71,0,0,0,.319.625.536.536,0,0,0,.945-.023Z"/><path d="M48.778,16.466a23.9,23.9,0,0,0,1.092,2.272,15.336,15.336,0,0,1,.8,2.312,12.109,12.109,0,0,1,.342,4.636c-.063.506.045,1.291.6,1.5.54.2.921-.436.972-.883a15.518,15.518,0,0,0-.448-6A13.292,13.292,0,0,0,51,17.572a4.984,4.984,0,0,0-1.73-2.152c-.549-.289-.579.789-.5,1.046Z"/><path d="M55.992,16.6a3.012,3.012,0,0,0-1.887.438,5.321,5.321,0,0,0-1.578,1.517,8.681,8.681,0,0,0-1,2.141,8.528,8.528,0,0,0-.488,2.717,1.105,1.105,0,0,0,.54,1.018c.372.139.66-.2.781-.511a7.562,7.562,0,0,0,.328-1.126c.039-.177.08-.353.116-.53.04-.194-.07.253.02-.08.019-.07.038-.14.058-.209a9.441,9.441,0,0,1,.355-1.023c.027-.066.056-.132.085-.2.14-.313-.041.074.05-.1.078-.15.159-.3.248-.441A5.506,5.506,0,0,1,54.668,18.9a6.472,6.472,0,0,1,1.465-1.06c.425-.207.395-1.2-.141-1.234Z"/><path d="M52.376,45.785a1.4,1.4,0,0,0,.39.282,2.288,2.288,0,0,0,.232.068c.162.044.324.085.488.122.194.044.389.081.585.116a1.07,1.07,0,0,0,.351.02,1.383,1.383,0,0,0,.468-.1,1.411,1.411,0,0,0,.645-1.208,2.044,2.044,0,0,0-.083-.742,1.123,1.123,0,0,0-.706-.85c-.038-.012-.077-.022-.116-.033a2.176,2.176,0,0,0-.461-.1c-.165-.012-.331-.016-.5-.031s-.315-.031-.472-.052c-.078-.01-.156-.026-.234-.034a1.275,1.275,0,0,0-.442.112l-.2.139-.171.212a1.592,1.592,0,0,0-.22.767,1.621,1.621,0,0,0,.447,1.31Z"/><path d="M48.764,73.819a1.509,1.509,0,0,0,.466.3,3.211,3.211,0,0,0,.38.083c.3.06.612.112.921.143.258.026.518.04.777.041a2.969,2.969,0,0,0,.389-.009,1.437,1.437,0,0,0,.518-.21,1.161,1.161,0,0,0,.5-1.072,1.82,1.82,0,0,0-.112-.552.864.864,0,0,0-.444-.494,1.958,1.958,0,0,0-.527-.131c-.127,0-.26.028-.387.037q-.373.027-.749.018c-.248-.006-.5-.023-.744-.053-.127-.015-.254-.042-.382-.055a1.411,1.411,0,0,0-.5.1.644.644,0,0,0-.287.267,1.394,1.394,0,0,0,.173,1.584Z"/><path d="M48.023,80.009a2.025,2.025,0,0,0,.548.311,3.99,3.99,0,0,0,.694.065c.42.045.845.088,1.262.159l-.187-.033c.23.042.457.095.683.154a1.323,1.323,0,0,0,.929.034,1.027,1.027,0,0,0,.478-.895,1.338,1.338,0,0,0-.359-1.05,1.655,1.655,0,0,0-1.18-.339,7.233,7.233,0,0,0-1.009.038,5.006,5.006,0,0,0-1.05.252,1.288,1.288,0,0,0-.5.256,2.473,2.473,0,0,0-.372.451.5.5,0,0,0,.065.6Z"/><circle class="b" cx="47.424" cy="37.602" r="3.18"/><circle class="c" cx="47.424" cy="37.602" r="2.862"/><circle cx="46.47" cy="37.919" r="0.954"/><circle class="c" cx="46.47" cy="37.919" r="0.636"/><circle class="b" cx="53.776" cy="37.783" r="3.055"/><circle class="d" cx="53.776" cy="37.783" r="2.75"/><circle cx="52.917" cy="38.574" r="0.917"/><circle class="d" cx="52.917" cy="38.574" r="0.611"/><path d="M46.572,34.909a3.558,3.558,0,0,0-1.781,3.1,2.967,2.967,0,0,0,2.638,2.516A3.252,3.252,0,0,0,50.805,39.1a2.988,2.988,0,0,0,.3-1.821,3.942,3.942,0,0,0-.5-1.743,3.292,3.292,0,0,0-.74-.755,1.691,1.691,0,0,0-.929-.373,5.838,5.838,0,0,0-2.2.063c-.335.093-.255.987.1.909a5.344,5.344,0,0,1,1.567-.057,5.44,5.44,0,0,1,.721.076,1.382,1.382,0,0,1,.6.382,1.915,1.915,0,0,1,.67,1.106A2.876,2.876,0,0,1,50.45,38.1a2.394,2.394,0,0,1-2.429,1.459A2.686,2.686,0,0,1,45.466,38.2c-.486-1.1.541-2.158,1.3-2.826.163-.144.051-.647-.193-.467Z"/><path d="M51.9,35.277a4.319,4.319,0,0,0-1.247,1.5,3.386,3.386,0,0,0-.234,2.037A3.192,3.192,0,0,0,53.684,41.3a3.3,3.3,0,0,0,3.089-2.169,4.47,4.47,0,0,0,.159-.995,3.131,3.131,0,0,0-.164-.948c-.077-.272-.14-.549-.24-.814a2.241,2.241,0,0,0-.439-.659,4.051,4.051,0,0,0-.737-.76,1.794,1.794,0,0,0-.9-.24,5.714,5.714,0,0,0-2.242.071c-.389.118-.27,1.05.193.937a5.1,5.1,0,0,1,1.565-.036,1.909,1.909,0,0,1,1.3.359,2.634,2.634,0,0,1,.734,1,3.112,3.112,0,0,1,.242,1.144,1.661,1.661,0,0,1-.465,1.114,3.2,3.2,0,0,1-1.466.863A2.866,2.866,0,0,1,51.2,39c-.677-1.186.041-2.392.9-3.233.161-.157.045-.7-.2-.492Z"/><path d="M35.856,50.661a3.784,3.784,0,0,1,.912-.371A10.79,10.79,0,0,1,38.26,50c1.26-.172,2.525-.3,3.779-.51,2.223-.369,6.068-1.051,6.57-3.735.083-.443-.275-2.06-1.067-1.542-.6.392-.778.821-1.212,1.214A5.569,5.569,0,0,1,45,46.3a18.754,18.754,0,0,1-3.742,1.248c-1.211.3-2.437.526-3.648.823a5.871,5.871,0,0,0-2.347.86c-.534.424-.132,1.985.589,1.428Z"/><path d="M62.482,55.9a14.382,14.382,0,0,0-7.232-9.8c-.676-.362-1.208.64-1.274,1.157a1.851,1.851,0,0,0,.788,1.963A13.368,13.368,0,0,1,61.583,56.5c.1.261.364.466.632.3a.9.9,0,0,0,.267-.906Z"/><path d="M61.622,56.616a.089.089,0,0,1,.038.031l-.136-.2L61.5,56.36l-.007-.317.159-.327-.09.112a1.384,1.384,0,0,0-.079.175c-.016-.007.229-.3.058-.126l-.081.08a4.045,4.045,0,0,0-.42.467c-.214.292-.434.585-.621.9a1.452,1.452,0,0,0-.154,1.037c.053.253.215.658.505.73A.979.979,0,0,0,61.553,59a1.751,1.751,0,0,0,.614-.642,6.423,6.423,0,0,0,.306-.7l.018-.044c.04-.09.024-.058-.048.1.022-.031.036-.068.056-.1.1-.158-.095.089-.034.033a1.312,1.312,0,0,1,.119-.1l-.171.116.039-.025-.913-.751c.186.614.353,1.233.523,1.851a3.063,3.063,0,0,0,.451,1.063,1.037,1.037,0,0,0,1.191.441,1.461,1.461,0,0,0,.8-.952,2.894,2.894,0,0,0-.1-1.851,9.155,9.155,0,0,0-.718-1.546,2.656,2.656,0,0,0-1.412-1.292c-.479-.152-.792.3-.895.7a1.48,1.48,0,0,0,.352,1.462,4.59,4.59,0,0,1,.61.573l-.172-.193a3.473,3.473,0,0,1,.369.509c.025.042.048.087.074.128-.193-.308-.072-.135-.031-.054.049.1.095.2.139.293.09.2.173.4.253.6.021.055.037.116.062.169-.055-.193-.071-.245-.049-.154q.011.043.018.087a1.159,1.159,0,0,1,.045-.644c-.037.1-.015.059.068-.131a.653.653,0,0,1-.052.074l.161-.2a.682.682,0,0,1-.1.09l.193-.13a.5.5,0,0,1-.157.067l.217-.05a.457.457,0,0,1-.128,0l.218.04a.438.438,0,0,1-.148-.057l.2.12a.678.678,0,0,1-.092-.078l.168.188c-.023-.026-.043-.056-.066-.083-.118-.137.073.081.053.111a1.48,1.48,0,0,0-.085-.2c-.076-.2-.148-.406-.222-.61-.148-.408-.3-.816-.433-1.228a.867.867,0,0,0-.447-.5.588.588,0,0,0-.557.125,2.054,2.054,0,0,0-.659,1.031c-.025.068-.047.136-.072.2-.01.029-.022.059-.032.088-.052.147.095-.166.035-.068-.017.028-.032.057-.049.085-.077.119-.013,0,.036-.035-.062.044-.11.111-.175.155l.165-.112a.719.719,0,0,1-.16.072L61.117,57a.56.56,0,0,1-.173.009l.186.033-.044-.009.351,1.767a9.977,9.977,0,0,0,.788-1.775A1.313,1.313,0,0,0,62.2,55.8a.374.374,0,0,0-.661.018c-.121.2-.147.656.088.8Z"/><path d="M35.084,48.751a1.639,1.639,0,0,0-.56-.261,5.214,5.214,0,0,0-.653-.123,3.466,3.466,0,0,0-1.089.129,5.31,5.31,0,0,0-.539.149,1.043,1.043,0,0,0-.57,1.083,1.669,1.669,0,0,0,.708,1.347,1.576,1.576,0,0,0,1.2.235c.416-.081.824-.214,1.231-.327a2.653,2.653,0,0,0,1.037-.408,1.262,1.262,0,0,0,.367-.57,1.643,1.643,0,0,0,.054-.826,1.2,1.2,0,0,0-.407-.679,6.382,6.382,0,0,0-2.082-1.271l.49.707,0-.034.014.547q-.723.753-.341.608l-.178.041a.636.636,0,0,1,.242,0l-.18-.032a2.434,2.434,0,0,1,.529.2c.086.042.169.089.253.134s-.106-.071.009.008c.048.033.1.064.142.1a3.447,3.447,0,0,1,.436.373c.034.034.172.14.017.012a1.467,1.467,0,0,1,.142.163.567.567,0,0,0,.507.236c.424-.057.582-.546.572-.919a1.451,1.451,0,0,0-.339-.951,5.093,5.093,0,0,0-.419-.438,4.8,4.8,0,0,0-.911-.635,2.073,2.073,0,0,0-.935-.314.783.783,0,0,0-.536.2,1.458,1.458,0,0,0-.309,1.281.909.909,0,0,0,.49.707c.185.066.366.14.544.224.08.038.16.079.238.12l.13.072c.018.01.161.095.073.041s.069.045.07.046l.1.066c.082.056.163.114.242.174a5.916,5.916,0,0,1,.454.382l-.334-1.136a.892.892,0,0,1,.106-.3c.087-.1.107-.127.06-.085q-.045.036.024-.015c.091-.065,0-.007-.021,0s-.072.032-.11.045c-.173.063-.355.108-.533.16-.383.112-.765.24-1.155.33l.174-.04a1.551,1.551,0,0,1-.564.022l.175.031a1.933,1.933,0,0,1-.212-.067c-.07-.037-.064-.031.019.017a.762.762,0,0,1-.064-.048c-.153-.123.057.1-.025-.015-.05-.077-.038-.053.037.074a1.022,1.022,0,0,1,.058.546l-.434.7a4.677,4.677,0,0,1,.583-.236c.1-.031.2-.055.293-.085.064-.019-.061.011.05-.012.061-.012.123-.025.184-.035.137-.024.272-.042.407-.076.051-.013.1-.029.152-.042l.072-.018a3.756,3.756,0,0,0,.752-.2.747.747,0,0,0,.068-1.118Z"/><path class="a" d="M67.74,57.6c.159,10.013-2.775,20.112-3.452,30.148a3.042,3.042,0,0,0,3,3c5.286.209,6.415-3.749,6.565-8.475A83.641,83.641,0,0,0,72.73,66.007c-.637-3.8-6.42-2.188-5.785,1.6a63.112,63.112,0,0,1,.72,9.359c.026,1.31.191,2.663.174,3.964a7.033,7.033,0,0,1-.254,3.053q-.451,3.275-.3.764l3,3C70.967,77.681,73.9,67.666,73.74,57.6c-.061-3.857-6.062-3.869-6,0Z"/><path class="a" d="M62.975,60.661a6.178,6.178,0,0,0-.189,3A12.406,12.406,0,0,0,63.9,65.888l-.409-1.514a6.357,6.357,0,0,0,.218,2.979c.234.538.905,1.135.981,1.705a3.1,3.1,0,0,0,3,3c1.455,0,3.215-1.382,3-3a9.868,9.868,0,0,0-.44-2.162,8.116,8.116,0,0,0-.508-1.14c-.082-.146-.824-1.16-.427-.417q.083.666.117-.088a2.578,2.578,0,0,0,.056-.638,3.99,3.99,0,0,0-.256-1.395,2.346,2.346,0,0,0-.455-.907c-.144-.262-.19-.222-.135.12q-.045.671.117-.175c.98-3.738-4.806-5.333-5.786-1.595Z"/><path class="a" d="M66.686,41.621,65.637,51.784c-.241,2.335-1.4,6.3-.62,8.61,1.892,5.635,6.864.54,8.952-1.653,2.661-2.8-1.575-7.047-4.243-4.243l-1.9,2q-1.728,1.659-.415.588l2.919.772-.3-.378L70.91,59.6c-.235-5.836,1.175-12.159,1.776-17.976.4-3.837-5.607-3.809-6,0Z"/><path class="a" d="M63.683,34.534c-.866,1.971-2.3,4.174-1.1,6.314.367.653,1.391,1.177,1.655,1.714a7.324,7.324,0,0,1,.288,1.676c.237,1.6,2.266,2.487,3.691,2.095a3.077,3.077,0,0,0,2.095-3.69,8.675,8.675,0,0,0-.919-3.071,6.828,6.828,0,0,0-.912-1.253,6.32,6.32,0,0,0-.9-.74q-.64-.47.11.086l.41,1.514c-.024.518.192-.322.266-.491l.494-1.126a3.1,3.1,0,0,0-1.076-4.1c-1.273-.745-3.45-.416-4.1,1.076Z"/><path class="a" d="M66.574,19.613a182.518,182.518,0,0,0-1.728,21.5c-.063,3.328,5.162,4.148,5.893.8.823-3.768.88-7.538,1.287-11.356.444-4.16,2.04-8.022,2.3-12.211.235-3.857-5.766-3.843-6,0-.219,3.6-1.656,7.007-2.114,10.585-.487,3.805-.431,7.622-1.253,11.387l5.892.8A169.152,169.152,0,0,1,72.36,21.208c.521-3.776-5.259-5.409-5.786-1.595Z"/><path class="a" d="M69,18.649a13.725,13.725,0,0,0,.534,2.139q.018-.2.015.268c.063-.241.068-.255.017-.044s-.044.2.041-.019a3.3,3.3,0,0,1,.253-.288,3,3,0,0,0,3.029,5.181,5.3,5.3,0,0,0,2.593-4.127c.189-1.635-.4-3.125-.7-4.705a3.028,3.028,0,0,0-3.69-2.1A3.064,3.064,0,0,0,69,18.649Z"/><path class="a" d="M68.219,10.1c-3.7,3.619-8.573,10.784-4.1,15.622,1.926,2.084,5.25,2.293,6.978-.128a9.657,9.657,0,0,0,1.2-4.026,39.008,39.008,0,0,1,1.259-4.778c1.2-3.68-4.595-5.257-5.786-1.595a40.208,40.208,0,0,0-1.094,3.97,10.869,10.869,0,0,0-.438,2.433l-.113.611q2.619.466,2.275-.947c.25-.574.208-1.429.5-2.076a14.751,14.751,0,0,1,.923-1.652,17,17,0,0,1,2.641-3.191c2.765-2.7-1.479-6.946-4.243-4.243Z"/><path class="a" d="M65.164,18.015l-1.577,4.814C62.51,26.119,67.345,28,69.071,25.14a18.613,18.613,0,0,0,2.286-5.679l-5.893-.8c.092-.836,1.719-1.733-.127-.888a5.993,5.993,0,0,0-1.487,1.085l5.121,2.121-.021-.327a3,3,0,0,0-1.486-2.59c-1.861-.85-3.955-.531-4.908,1.462-1.385,2.894,2.261,6.306,4.712,3.635,1.725-1.88,4.157-3.827,5.4-6.068a4.57,4.57,0,0,0,.534-3.054c-.072-.393-.6-2.473-.587-1.485-.055-3.916-5.667-3.795-6,0a16.287,16.287,0,0,0,1.521,8.233c1.339,3.035,5.319,1.064,5.591-1.514a4.76,4.76,0,0,0-.208-1.946L68.039,19.64c.344.647.561,1.313.868,1.972.155.333,1.108-.482-.28.181a4.705,4.705,0,0,0-2.3,2c-1.639,2.709,1.536,5.379,4.105,4.1a13.634,13.634,0,0,0,5.817-5.523c1.655-2.863-2.432-6.288-4.712-3.636C69.77,20.8,67.385,22.9,66.285,25.4c-1.539,3.5,3.629,6.56,5.181,3.029.882-2.009,2.894-3.789,4.318-5.445l-4.712-3.636a8.059,8.059,0,0,1-3.664,3.372l4.1,4.1c-.65,1.075,1.023,0,1.5-.347a4.865,4.865,0,0,0,1.825-2.643c.7-2.471-.473-5.077-1.613-7.224-1.6-3.012-6.418-.944-5.483,2.312l-.007.351,5.59-1.514a10.223,10.223,0,0,1-.7-5.205h-6a4.033,4.033,0,0,0,.418,2.085l.247.558q.588-1.785-.2-.7c-1.328.537-3.093,3.372-4.058,4.423l4.712,3.635-.6.541H64.107l.329.15L62.95,20.655l.021.327A3.041,3.041,0,0,0,68.093,23.1a7.48,7.48,0,0,0,2.223-1.156,5.571,5.571,0,0,0,1.148-3.283c.37-3.362-5.171-4.073-5.893-.8a13.5,13.5,0,0,1-1.681,4.246l5.483,2.312L70.95,19.61c1.2-3.678-4.587-5.254-5.786-1.595Z"/><path class="a" d="M65.937,25.788l-1.878,10.87c-.652,3.776,5.129,5.4,5.786,1.595l1.877-10.87c.653-3.777-5.128-5.4-5.785-1.595Z"/><path class="a" d="M66.821,28.507a23.284,23.284,0,0,1-.233,4.3,3.093,3.093,0,0,0,2.1,3.691c1.433.393,3.429-.487,3.691-2.1a31.007,31.007,0,0,0,.447-5.9,3,3,0,0,0-6,0Z"/><path d="M69.261,8.344a67.344,67.344,0,0,0-5.8,7.336,14.235,14.235,0,0,0-1.891,3.979,9.058,9.058,0,0,0,.113,3.957,4.953,4.953,0,0,0,1.8,2.876,4.972,4.972,0,0,1,1.3,1.3c.41.832.1,2.181-.012,3.063-.358,2.794-2.485,4.915-2.954,7.7-.56,3.332,3.151,5.166,2.97,8.343-.1,1.747-.263,3.492-.4,5.237a47.526,47.526,0,0,1-.511,5.979c-.311,1.506-1.545,2.493-2.057,3.915a4.514,4.514,0,0,0,.6,4.178c.677.932,2,1.653,2.154,2.857a40.789,40.789,0,0,1-.162,6.048c-.135,4.271-.433,8.574-.355,12.847.028,1.482.469,2.748,2.095,2.86,2.274.158,4.564-.052,6.835-.113.921-.026.847-1.964-.051-2.051-1.961-.19-3.9-.417-5.874-.533a4.582,4.582,0,0,0-.978-.058l-.306-.044q.248.427.158-.107a13.349,13.349,0,0,0,.125-2.65c.177-3.716.243-7.441.362-11.159.1-3.01.832-6.369-1.374-8.784-.344-.376-.734-.716-1.06-1.107-.462-.555-.417-.627-.038-1.233A10.764,10.764,0,0,0,65.9,58.9a46.276,46.276,0,0,0,.373-4.982L66.63,48.2A8.935,8.935,0,0,0,66.1,43.73c-.618-1.367-1.609-2.52-2.288-3.832-.45-.87.228-1.958.61-2.792a23.787,23.787,0,0,0,1.759-3.783c.692-2.642,1.168-6.273-.948-8.373-.433-.429-.947-.773-1.37-1.211A2.663,2.663,0,0,1,63.225,22a6.306,6.306,0,0,1,1.3-4.143c1.76-2.865,4.254-5.3,5.43-8.5.123-.335-.194-1.586-.7-1.006Z"/><path d="M69.891,9.873c.056-.059.071-.093.3.158a7.2,7.2,0,0,1,.936,1.48c.72,1.369,1.284,2.819,1.88,4.243.614,1.467,1.271,2.93,1.831,4.418.7,1.863.6,3.269-.769,4.707-.849.893-1.938,1.774-2.235,3.018a16.674,16.674,0,0,0-.194,3.771c0,.283,0,.566,0,.85,0,.112-.021.67,0,.307-.074,1.188-.219,2.371-.276,3.562-.1,1.977-.062,3.956-.044,5.934.022,2.414-.154,4.84,0,7.249.123,1.9.35,3.6-.511,5.37l1.473,1.243a2.118,2.118,0,0,1,1.134-1.818l-.871-.326c.681.852,2.194,2.343,1.7,3.554-.213.529-.842.881-1.157,1.358a3.977,3.977,0,0,0-.6,1.627,29.04,29.04,0,0,0-.074,4.214l-.006,4.914c-.008,6.388.025,12.778-.03,19.166-.015,1.659,1.772,1.613,1.769-.043-.013-6.962.072-13.926.111-20.888L74.3,62.78c0-.752-.136-1.464.385-2.053a5.621,5.621,0,0,0,1.152-1.567c1.148-2.744-.433-5.309-2.265-7.268a.653.653,0,0,0-.894.022A5.346,5.346,0,0,0,70.6,55.525c-.113.755.74,2.473,1.473,1.243a9.7,9.7,0,0,0,1.288-5.4c-.063-2.28-.058-4.534-.04-6.815.019-2.327-.066-4.655-.006-6.981.049-1.9.318-3.788.322-5.691,0-.735-.011-1.473.023-2.208.012-.268.06-.534.072-.8s-.268.315-.041.183a1.9,1.9,0,0,0,.282-.337c1.121-1.294,2.39-2.278,2.942-3.965.779-2.382.118-4.7-.864-6.909-.691-1.555-1.345-3.129-2.075-4.666-.523-1.1-3.063-7.339-4.953-4.917-.434.555.124,2.38.867,1.613Z"/><path d="M69.162,65.443a4.165,4.165,0,0,0,.151-2.1,13.894,13.894,0,0,0-.473-2.353,8.172,8.172,0,0,0-.9-2.171,3.365,3.365,0,0,0-1.6-1.478c-.709-.226-1.174.437-1.325,1.042a2.216,2.216,0,0,0,.521,2.165c.19.16.4.3.578.468a1.429,1.429,0,0,0,.128.13c-.232-.167-.115-.13-.034-.026s.146.2.213.3c.033.052.066.106.1.159s.136.24.02.031c-.157-.286.115.22.087.167.053.1.106.2.16.294.024.042.129.232.018.027s-.008-.011.014.032c.071.139.139.28.206.422.25.529.465,1.073.708,1.6a3.791,3.791,0,0,0,.915,1.51c.227.177.425-.008.521-.223Z"/><path d="M68.787,40.114a2.278,2.278,0,0,0,.343-.831,6.155,6.155,0,0,0,.048-.794,5.683,5.683,0,0,0-.025-.738,5.936,5.936,0,0,0-.279-1.333c-.1-.293-.213-.58-.326-.867a4.255,4.255,0,0,0-.481-.981,5.8,5.8,0,0,0-.664-.754,4.068,4.068,0,0,0-.6-.47,1.552,1.552,0,0,0-.95-.354c-.71.083-1.005.934-.971,1.562.03.56.309,1.547,1.047,1.513a.414.414,0,0,1,.078.005l-.271-.048a.912.912,0,0,1,.234.1l-.247-.15a5.442,5.442,0,0,1,.973.866c.138.143-.207-.253-.084-.094.027.035.056.067.083.1.142.187.049.125-.053-.133.11.279.24.551.356.827.084.2.16.4.233.6.032.088.066.175.1.263.045.121.035.265-.051-.175.009.047.025.094.037.139a5.978,5.978,0,0,1,.114.648c.013.1.039.34-.008-.083a3,3,0,0,0,.1.574,2.706,2.706,0,0,0,.318.625.537.537,0,0,0,.946-.023Z"/><path d="M65.689,16.466a24.159,24.159,0,0,0,1.093,2.272,15.332,15.332,0,0,1,.8,2.312,12.109,12.109,0,0,1,.343,4.636c-.063.506.045,1.291.6,1.5.54.2.921-.436.973-.883a15.538,15.538,0,0,0-.448-6,13.348,13.348,0,0,0-1.134-2.729,4.979,4.979,0,0,0-1.731-2.152c-.548-.289-.579.789-.5,1.046Z"/><path d="M72.9,16.6a3.015,3.015,0,0,0-1.888.438,5.33,5.33,0,0,0-1.577,1.517,8.72,8.72,0,0,0-1,2.141,8.584,8.584,0,0,0-.488,2.717,1.106,1.106,0,0,0,.541,1.018c.371.139.66-.2.78-.511A7.687,7.687,0,0,0,69.6,22.8c.038-.177.079-.353.116-.53.04-.194-.07.253.02-.08.019-.07.038-.14.058-.209a9.225,9.225,0,0,1,.354-1.023c.028-.066.057-.132.086-.2.14-.313-.041.074.049-.1.078-.15.16-.3.248-.441A5.509,5.509,0,0,1,71.58,18.9a6.488,6.488,0,0,1,1.464-1.06c.425-.207.4-1.2-.14-1.234Z"/><path d="M69.288,45.785a1.413,1.413,0,0,0,.389.282,2.306,2.306,0,0,0,.233.068c.161.044.324.085.487.122.194.044.389.081.585.116a1.076,1.076,0,0,0,.352.02,1.382,1.382,0,0,0,.467-.1,1.406,1.406,0,0,0,.645-1.208,2.044,2.044,0,0,0-.082-.742,1.123,1.123,0,0,0-.706-.85c-.038-.012-.078-.022-.116-.033a2.19,2.19,0,0,0-.461-.1c-.165-.012-.331-.016-.5-.031s-.315-.031-.472-.052c-.078-.01-.157-.026-.235-.034a1.27,1.27,0,0,0-.441.112l-.2.139-.171.212a1.6,1.6,0,0,0-.221.767,1.622,1.622,0,0,0,.448,1.31Z"/><path d="M65.676,73.819a1.493,1.493,0,0,0,.465.3,3.3,3.3,0,0,0,.38.083c.3.06.612.112.921.143q.389.039.778.041a2.953,2.953,0,0,0,.388-.009,1.435,1.435,0,0,0,.519-.21,1.158,1.158,0,0,0,.5-1.072,1.791,1.791,0,0,0-.112-.552.859.859,0,0,0-.443-.494,1.958,1.958,0,0,0-.527-.131c-.128,0-.26.028-.388.037-.249.018-.5.024-.748.018s-.5-.023-.744-.053c-.128-.015-.255-.042-.382-.055a1.416,1.416,0,0,0-.5.1.647.647,0,0,0-.286.267,1.394,1.394,0,0,0,.173,1.584Z"/><path d="M64.935,80.009a2,2,0,0,0,.547.311,4.011,4.011,0,0,0,.7.065c.42.045.845.088,1.261.159l-.186-.033c.23.042.456.095.683.154a1.323,1.323,0,0,0,.929.034,1.032,1.032,0,0,0,.478-.895,1.338,1.338,0,0,0-.359-1.05,1.656,1.656,0,0,0-1.181-.339,7.225,7.225,0,0,0-1.008.038,4.991,4.991,0,0,0-1.05.252,1.285,1.285,0,0,0-.5.256,2.558,2.558,0,0,0-.372.451.5.5,0,0,0,.066.6Z"/><circle class="b" cx="65.616" cy="37.602" r="3.18"/><circle class="c" cx="65.616" cy="37.602" r="2.862"/><circle cx="64.662" cy="37.919" r="0.954"/><circle class="c" cx="64.662" cy="37.919" r="0.636"/><circle class="b" cx="71.967" cy="37.783" r="3.055"/><circle class="d" cx="71.967" cy="37.783" r="2.75"/><circle cx="71.108" cy="38.574" r="0.917"/><circle class="d" cx="71.108" cy="38.574" r="0.611"/><path d="M64.764,34.909a3.556,3.556,0,0,0-1.781,3.1,2.967,2.967,0,0,0,2.638,2.516A3.252,3.252,0,0,0,69,39.1a2.987,2.987,0,0,0,.3-1.821,3.929,3.929,0,0,0-.5-1.743,3.252,3.252,0,0,0-.74-.755,1.691,1.691,0,0,0-.929-.373,5.833,5.833,0,0,0-2.2.063c-.336.093-.255.987.1.909A5.352,5.352,0,0,1,66.6,35.32a5.407,5.407,0,0,1,.72.076,1.38,1.38,0,0,1,.6.382,1.92,1.92,0,0,1,.67,1.106,2.876,2.876,0,0,1,.051,1.213,2.4,2.4,0,0,1-2.429,1.459A2.688,2.688,0,0,1,63.657,38.2c-.485-1.1.542-2.158,1.3-2.826.164-.144.051-.647-.192-.467Z"/><path d="M70.09,35.277a4.306,4.306,0,0,0-1.246,1.5,3.371,3.371,0,0,0-.234,2.037A3.192,3.192,0,0,0,71.876,41.3a3.3,3.3,0,0,0,3.089-2.169,4.469,4.469,0,0,0,.158-.995,3.071,3.071,0,0,0-.164-.948c-.077-.272-.139-.549-.239-.814a2.263,2.263,0,0,0-.44-.659,4.015,4.015,0,0,0-.736-.76,1.8,1.8,0,0,0-.9-.24,5.714,5.714,0,0,0-2.242.071c-.39.118-.271,1.05.193.937a5.1,5.1,0,0,1,1.565-.036,1.911,1.911,0,0,1,1.3.359,2.631,2.631,0,0,1,.733,1,3.093,3.093,0,0,1,.243,1.144,1.671,1.671,0,0,1-.465,1.114,3.2,3.2,0,0,1-1.467.863A2.866,2.866,0,0,1,69.389,39c-.676-1.186.042-2.392.9-3.233.161-.157.045-.7-.2-.492Z"/><path d="M54.047,50.661a3.794,3.794,0,0,1,.913-.371A10.762,10.762,0,0,1,56.452,50c1.259-.172,2.524-.3,3.779-.51,2.223-.369,6.067-1.051,6.57-3.735.083-.443-.275-2.06-1.067-1.542-.6.392-.778.821-1.212,1.214A5.569,5.569,0,0,1,63.2,46.3a18.775,18.775,0,0,1-3.742,1.248c-1.211.3-2.438.526-3.649.823a5.861,5.861,0,0,0-2.346.86c-.534.424-.132,1.985.588,1.428Z"/><path d="M80.674,55.9a14.384,14.384,0,0,0-7.233-9.8c-.675-.362-1.207.64-1.273,1.157a1.852,1.852,0,0,0,.787,1.963A13.365,13.365,0,0,1,79.774,56.5c.1.261.365.466.632.3a.9.9,0,0,0,.268-.906Z"/><path d="M79.814,56.616a.1.1,0,0,1,.038.031l-.136-.2-.029-.091-.008-.317.16-.327-.091.112A1.371,1.371,0,0,0,79.67,56c-.016-.007.229-.3.057-.126l-.08.08a4.045,4.045,0,0,0-.42.467c-.214.292-.434.585-.621.9a1.452,1.452,0,0,0-.154,1.037c.053.253.214.658.5.73A.979.979,0,0,0,79.745,59a1.759,1.759,0,0,0,.614-.642,6.229,6.229,0,0,0,.305-.7l.019-.044c.04-.09.024-.058-.048.1.021-.031.036-.068.056-.1.1-.158-.1.089-.034.033a1.45,1.45,0,0,1,.118-.1l-.17.116.038-.025-.912-.751c.185.614.353,1.233.523,1.851a3.061,3.061,0,0,0,.45,1.063,1.037,1.037,0,0,0,1.191.441,1.46,1.46,0,0,0,.8-.952,2.9,2.9,0,0,0-.1-1.851,9.155,9.155,0,0,0-.718-1.546,2.656,2.656,0,0,0-1.412-1.292c-.479-.152-.793.3-.895.7a1.48,1.48,0,0,0,.352,1.462,4.59,4.59,0,0,1,.61.573l-.172-.193a3.627,3.627,0,0,1,.369.509c.025.042.048.087.074.128-.193-.308-.072-.135-.031-.054.049.1.095.2.139.293q.133.3.252.6c.022.055.037.116.063.169-.055-.193-.071-.245-.049-.154.007.029.013.058.017.087a1.159,1.159,0,0,1,.046-.644c-.038.1-.015.059.067-.131a.54.54,0,0,1-.051.074l.161-.2a.742.742,0,0,1-.1.09l.192-.13a.492.492,0,0,1-.156.067l.217-.05a.465.465,0,0,1-.129,0l.219.04a.438.438,0,0,1-.148-.057l.2.12a.622.622,0,0,1-.092-.078l.168.188c-.023-.026-.043-.056-.066-.083-.119-.137.072.081.053.111a1.377,1.377,0,0,0-.086-.2c-.076-.2-.147-.406-.221-.61-.149-.408-.3-.816-.433-1.228a.867.867,0,0,0-.447-.5.588.588,0,0,0-.557.125,2.062,2.062,0,0,0-.66,1.031l-.071.2c-.011.029-.022.059-.032.088-.052.147.094-.166.035-.068-.017.028-.032.057-.05.085-.076.119-.012,0,.037-.035-.062.044-.111.111-.175.155l.165-.112a.719.719,0,0,1-.16.072L79.308,57a.552.552,0,0,1-.172.009l.186.033-.045-.009.352,1.767a10.049,10.049,0,0,0,.788-1.775,1.313,1.313,0,0,0-.03-1.224.374.374,0,0,0-.661.018c-.121.2-.148.656.088.8Z"/><path d="M53.276,48.751a1.635,1.635,0,0,0-.561-.261,5.165,5.165,0,0,0-.652-.123,3.466,3.466,0,0,0-1.089.129,5.328,5.328,0,0,0-.54.149,1.042,1.042,0,0,0-.569,1.083,1.668,1.668,0,0,0,.707,1.347,1.578,1.578,0,0,0,1.2.235c.416-.081.824-.214,1.232-.327a2.665,2.665,0,0,0,1.037-.408,1.27,1.27,0,0,0,.367-.57,1.643,1.643,0,0,0,.054-.826,1.2,1.2,0,0,0-.407-.679,6.382,6.382,0,0,0-2.082-1.271l.489.707,0-.034.013.547q-.721.753-.34.608l-.178.041a.635.635,0,0,1,.242,0l-.18-.032a2.453,2.453,0,0,1,.529.2c.086.042.169.089.253.134s-.106-.071.009.008c.048.033.095.064.142.1a3.519,3.519,0,0,1,.436.373c.033.034.172.14.017.012a1.459,1.459,0,0,1,.141.163.57.57,0,0,0,.508.236c.424-.057.582-.546.571-.919a1.445,1.445,0,0,0-.338-.951,5.251,5.251,0,0,0-.419-.438,4.8,4.8,0,0,0-.911-.635,2.072,2.072,0,0,0-.936-.314.781.781,0,0,0-.535.2,1.452,1.452,0,0,0-.309,1.281.911.911,0,0,0,.489.707,5.863,5.863,0,0,1,.544.224c.081.038.16.079.239.12l.13.072c.017.01.161.095.072.041s.07.045.071.046l.1.066c.082.056.163.114.242.174a5.916,5.916,0,0,1,.454.382l-.334-1.136a.892.892,0,0,1,.106-.3c.086-.1.106-.127.059-.085-.029.024-.021.019.025-.015.091-.065,0-.007-.021,0s-.073.032-.11.045c-.174.063-.355.108-.533.16-.383.112-.766.24-1.155.33l.173-.04a1.546,1.546,0,0,1-.563.022l.174.031a1.987,1.987,0,0,1-.211-.067c-.07-.037-.064-.031.019.017a.779.779,0,0,1-.065-.048c-.152-.123.058.1-.025-.015-.05-.077-.037-.053.038.074a1.022,1.022,0,0,1,.057.546l-.434.7a4.753,4.753,0,0,1,.584-.236c.1-.031.2-.055.293-.085.063-.019-.061.011.049-.012.062-.012.123-.025.185-.035.137-.024.272-.042.407-.076l.151-.042.073-.018a3.729,3.729,0,0,0,.751-.2.746.746,0,0,0,.069-1.118Z"/></svg>