<?xml version="1.0" encoding="utf-8"?>
<!-- Generator: Adobe Illustrator 24.0.2, SVG Export Plug-In . SVG Version: 6.00 Build 0)  -->
<svg version="1.1" id="Layer_1" xmlns="http://www.w3.org/2000/svg" xmlns:xlink="http://www.w3.org/1999/xlink" x="0px" y="0px"
	 viewBox="0 0 56.3 108" style="enable-background:new 0 0 56.3 108;" xml:space="preserve">
<style type="text/css">
	.st0{fill:#51184A;}
	.st1{fill:#380F31;}
	.st2{fill:#438243;}
	.st3{fill:#682964;}
	.st4{fill:#FFFFFF;}
	.st5{fill:none;stroke:#000000;stroke-width:0.636;}
	.st6{fill:none;stroke:#000000;stroke-width:0.611;}
</style>
<path d="M54.1,70.5c-1.2-5.2-4.9-9.6-10.1-12.1c-0.9-0.4-1.7,0.8-1.8,1.4c-0.2,0.9,0.2,1.9,1.1,2.4c4.4,1.8,7.8,5,9.5,9
	c0.1,0.3,0.5,0.6,0.9,0.4C54.1,71.4,54.3,70.9,54.1,70.5L54.1,70.5z"/>
<path d="M53.3,71.5C53.3,71.5,53.3,71.5,53.3,71.5l-0.1-0.2l0-0.1l0-0.3l0.2-0.3l-0.1,0.1c0,0.1-0.1,0.1-0.1,0.2
	c0,0,0.2-0.3,0.1-0.1l-0.1,0.1c-0.2,0.1-0.3,0.3-0.4,0.5c-0.2,0.3-0.4,0.6-0.6,0.9c-0.2,0.3-0.2,0.7-0.2,1c0.1,0.3,0.2,0.7,0.5,0.7
	c0.3,0.1,0.5,0.1,0.8-0.1c0.3-0.2,0.5-0.4,0.6-0.6c0.1-0.2,0.2-0.5,0.3-0.7l0,0c0-0.1,0-0.1,0,0.1c0,0,0-0.1,0.1-0.1
	c0.1-0.2-0.1,0.1,0,0c0,0,0.1-0.1,0.1-0.1l-0.2,0.1l0,0l-0.9-0.8c0.2,0.6,0.4,1.2,0.5,1.9c0.1,0.4,0.2,0.7,0.5,1.1
	c0.3,0.4,0.7,0.6,1.2,0.4c0.4-0.2,0.7-0.5,0.8-1c0.2-0.6,0.1-1.3-0.1-1.9c-0.2-0.5-0.4-1.1-0.7-1.5c-0.3-0.6-0.8-1.1-1.4-1.3
	c-0.5-0.2-0.8,0.3-0.9,0.7c-0.2,0.5,0,1.1,0.4,1.5c0.2,0.2,0.4,0.4,0.6,0.6L53.8,72c0.1,0.2,0.3,0.3,0.4,0.5c0,0,0,0.1,0.1,0.1
	c-0.2-0.3-0.1-0.1,0-0.1c0,0.1,0.1,0.2,0.1,0.3c0.1,0.2,0.2,0.4,0.3,0.6c0,0.1,0,0.1,0.1,0.2c-0.1-0.2-0.1-0.2,0-0.2
	c0,0,0,0.1,0,0.1c0-0.2,0-0.4,0-0.6c0,0.1,0,0.1,0.1-0.1c0,0,0,0.1-0.1,0.1l0.2-0.2c0,0-0.1,0.1-0.1,0.1l0.2-0.1
	c0,0-0.1,0.1-0.2,0.1l0.2-0.1c0,0-0.1,0-0.1,0l0.2,0c0,0-0.1,0-0.1-0.1l0.2,0.1c0,0-0.1,0-0.1-0.1l0.2,0.2c0,0,0-0.1-0.1-0.1
	c-0.1-0.1,0.1,0.1,0.1,0.1c0-0.1-0.1-0.1-0.1-0.2c-0.1-0.2-0.1-0.4-0.2-0.6c-0.1-0.4-0.3-0.8-0.4-1.2c-0.1-0.2-0.2-0.4-0.4-0.5
	c-0.2-0.1-0.4,0-0.6,0.1c-0.3,0.3-0.5,0.6-0.7,1l-0.1,0.2c0,0,0,0.1,0,0.1c-0.1,0.1,0.1-0.2,0-0.1c0,0,0,0.1,0,0.1c-0.1,0.1,0,0,0,0
	c-0.1,0-0.1,0.1-0.2,0.2l0.2-0.1c-0.1,0-0.1,0.1-0.2,0.1l0.2,0c-0.1,0-0.1,0-0.2,0l0.2,0l0,0l0.4,1.8c0.3-0.6,0.6-1.2,0.8-1.8
	c0.2-0.4,0.2-0.8,0-1.2c-0.1-0.2-0.3-0.2-0.5-0.1c-0.1,0-0.1,0.1-0.2,0.2C53.1,70.9,53.1,71.3,53.3,71.5L53.3,71.5z"/>
<path d="M4.6,65.5c0.4-0.2,0.9-0.3,1.3-0.4C6.6,65,7.3,64.9,8,64.8c1.8-0.2,3.6-0.3,5.4-0.5c3.2-0.4,8.7-1.1,9.5-3.7
	c0.1-0.4-0.4-2.1-1.5-1.5c-0.9,0.4-1.1,0.8-1.7,1.2c-0.6,0.4-1.2,0.6-1.9,0.9c-1.7,0.5-3.5,1-5.4,1.2c-1.7,0.3-3.5,0.5-5.3,0.8
	c-1.2,0.1-2.4,0.4-3.4,0.9C2.9,64.5,3.5,66.1,4.6,65.5z"/>
<path d="M3.4,63.6c-0.2-0.1-0.4-0.2-0.6-0.3c-0.2-0.1-0.4-0.1-0.7-0.1c-0.4,0-0.7,0-1.1,0.1c-0.2,0-0.4,0.1-0.5,0.1
	c-0.4,0.2-0.6,0.6-0.6,1.1c0,0.5,0.3,1,0.7,1.3c0.4,0.2,0.8,0.3,1.2,0.2c0.4-0.1,0.8-0.2,1.2-0.3c0.4-0.1,0.7-0.2,1-0.4
	c0.2-0.2,0.3-0.4,0.4-0.6c0.1-0.3,0.1-0.6,0.1-0.8c-0.1-0.3-0.2-0.5-0.4-0.7c-0.6-0.6-1.3-1-2.1-1.3l0.5,0.7l0,0l0,0.5
	C2.1,63.8,2,64,2.3,63.9l-0.2,0c0.1,0,0.2,0,0.2,0l-0.2,0c0.2,0,0.4,0.1,0.5,0.2c0.1,0,0.2,0.1,0.3,0.1s-0.1-0.1,0,0
	c0,0,0.1,0.1,0.1,0.1c0.2,0.1,0.3,0.2,0.4,0.4c0,0,0.2,0.1,0,0c0.1,0.1,0.1,0.1,0.1,0.2c0.1,0.2,0.3,0.3,0.5,0.2
	c0.4-0.1,0.6-0.5,0.6-0.9c0-0.3-0.1-0.7-0.3-1C4.3,63.1,4.1,63,4,62.8c-0.3-0.2-0.6-0.5-0.9-0.6c-0.3-0.2-0.6-0.3-0.9-0.3
	c-0.2,0-0.4,0.1-0.5,0.2c-0.3,0.4-0.4,0.8-0.3,1.3c0,0.3,0.2,0.6,0.5,0.7c0.2,0.1,0.4,0.1,0.5,0.2c0.1,0,0.2,0.1,0.2,0.1
	c0,0,0.1,0,0.1,0.1c0,0,0.2,0.1,0.1,0s0.1,0,0.1,0c0,0,0.1,0,0.1,0.1c0.1,0.1,0.2,0.1,0.2,0.2c0.2,0.1,0.3,0.2,0.5,0.4l-0.3-1.1
	c0-0.1,0-0.2,0.1-0.3C3.5,63.7,3.5,63.6,3.4,63.6C3.4,63.7,3.5,63.7,3.4,63.6C3.6,63.6,3.5,63.6,3.4,63.6
	C3.5,63.7,3.4,63.7,3.4,63.6c-0.2,0.2-0.4,0.2-0.6,0.3c-0.4,0.1-0.8,0.2-1.2,0.3l0.2,0c-0.2,0-0.4,0-0.6,0l0.2,0
	c-0.1,0-0.1,0-0.2-0.1c-0.1,0-0.1,0,0,0c0,0,0,0-0.1,0c-0.2-0.1,0.1,0.1,0,0c0-0.1,0-0.1,0,0.1c0.1,0.2,0.1,0.4,0.1,0.5l-0.4,0.7
	c0.2-0.1,0.4-0.2,0.6-0.2c0.1,0,0.2-0.1,0.3-0.1c0.1,0-0.1,0,0,0c0.1,0,0.1,0,0.2,0c0.1,0,0.3,0,0.4-0.1c0.1,0,0.1,0,0.2,0l0.1,0
	c0.3,0,0.5-0.1,0.8-0.2C3.7,64.4,3.7,64,3.4,63.6C3.4,63.6,3.4,63.6,3.4,63.6z"/>
<title>AUBY</title>
<path class="st0" d="M28.2,60.3c-3.3,3.9-9.6,11.7-5.3,17c5.3,6.5,11.8-6.4,14-9.5c1.9-2.8-2.5-6.2-4.7-3.6
	c-2.9,3.2-5.4,6.8-7.5,10.6l2.6-1.5c-1.6,0-7.2,2.9-8,2.4c-1.5-1-4.1-0.1-4.4,1.8l-0.5,3.4h5.8c-0.3-1.1-0.7-2.1-1.4-3
	c-1.8-2.8-6.6-1.1-5.5,2.3c0.4,1.3,1.1,2.6,2,3.6l4.2-4.2c-1.4-1.5-4.9-4.1-7.1-2c-1.1,1.1,1.8,2.1,2.3,1.9c0.5-0.2,1.6-2.6,1.9-3.1
	c1.5-2.3,3.1-4.6,4.6-6.8c5-7.4,9.2-15,10-24c0.3-3.4-5.1-4.1-5.9-0.8l-2,8.7c-0.9,3.8,4.9,5.4,5.8,1.6l2-8.7l-5.9-0.8
	c-1,11.4-9,20-14.8,29.3c-1.4,2.3-3.1,5.3-0.9,7.7c0.8,0.9,2,1.4,3.3,1.4c0.6,0,1.3-0.6,1.8-0.6c2.1-0.1-1.1-1.3,0.5,0.4
	c2.7,2.9,6.6-1.3,4.2-4.2l-0.5-1l-5.5,2.3l0.8,1.6c0.8,2.6,5.3,3.1,5.8,0l0.5-3.4l-4.4,1.8c1.3,0.9,3,1.3,4.6,1
	c2.3-0.4,4.2-2.6,6.4-2.6c1.1,0,2.1-0.6,2.6-1.5c1.8-3.4,4-6.6,6.6-9.4l-4.7-3.6l-2.8,4c-0.1,0.1-3.1,4.3-1.2,4.1c0,0,1.2-3.5,1.5-4
	c0.9-1.5,2-3,3.3-4.3C34.9,61.6,30.7,57.3,28.2,60.3L28.2,60.3z"/>
<path class="st0" d="M34.9,37.7c-1.1-3.3-0.3-6.9-2.8-9.6c-1.2-1.2-3.1-1.2-4.2,0c-4.2,5.2-6.4,11-7.9,17.5
	c-1.7,7.9-3.3,14.9-7.2,22c-2.7,4.8-7,10.9-5.1,16.7c1.7,5.1,6.7,7.1,11.7,6.4c14.3-2,21.1-12.8,26.4-25c2.7-6.2,4.7-12.6,3.8-19.4
	c-0.3-3.3-1.1-6.6-2.1-9.8c-1-2.7-4-4.8-4.7-7.3c-0.9-3.3-5.7-2.5-5.9,0.8c-0.2,4.8-1.2,9.4-2.9,13.9l5.5-0.7
	c-1.5-2.4-2.1-5.2-1.7-8L32.7,37l-2.5-1c-1.6-0.4-3.3,0.5-3.7,2.2c-0.1,0.2-0.1,0.5-0.1,0.7c0,1.6-0.1,3.2-0.3,4.8l4.5-2.6l-0.8-0.7
	c-1.2-1.2-3.1-1.1-4.3,0.1c-0.3,0.4-0.6,0.8-0.7,1.3c-2,7.9-4,15.8-7.3,23.2c-1.3,3-2.9,6-4.8,8.7c-1.6,2.4-4.1,4.8-3.5,8
	c1,5.1,6.8,4.6,10.5,3.1c5.9-2.4,10.6-7.1,14.2-12.2c2.1-2.9-2.3-5.8-4.7-3.6c-4,3.6-7.8,7.3-11.5,11.2c-1.1,1.2-1.1,3.1,0.1,4.3
	c0.7,0.7,1.8,1,2.8,0.7c8.3-2,15.2-7.6,19-15.2c3.8-7.1,6.9-17.4,3.7-25.2c-1.1-2.6-4.9-3.1-5.8,0c-0.7,2.5-1.2,5-1.5,7.6
	c-0.4,3.6,4.8,3.7,5.9,0.8c1.7-4.3,2.4-8.9,2.2-13.6c-0.1-1.7-1.4-3-3.1-2.9c-1.3,0-2.4,0.9-2.8,2.1c-3.3,8.7-6.7,17.4-11.3,25.5
	l5.5,2.3c1.5-8.1,3.5-16.1,6.2-23.9c1.1-3.2-4-5.4-5.5-2.3c-3.9,8-1.7,17.4-5.6,25.2c-1.2,2.2-2.9,4-5.1,5.3
	c-0.8,0.5-1.7,0.9-2.6,1.3c1.1,0.5,1.7-0.1,2.1-1.5C25,67,28.6,63.6,32.1,60l-4.7-3.6l-3.5,8c-0.6,1.2-0.5,2.7,0.5,3.6l0.8,0.8
	c1.2,1.1,3.1,1.1,4.2,0c3.3-2.7,6.1-6,8.1-9.7l-5.6-1.5c0,1.9-0.3,3.8-0.8,5.6c-0.7,2.8,2.9,5.2,5,2.9l1.2-1.3
	c2.6-2.8-1.6-7.1-4.2-4.2l-1.2,1.3l5,2.9c0.6-2.4,0.9-4.8,1-7.2c0-2.9-4.2-4.1-5.6-1.5c-1.8,3.3-4.2,6.2-7.2,8.5h4.2l-0.8-0.8
	l0.5,3.6l3.5-8c1.3-2.9-2.1-6.3-4.7-3.6c-3,3.1-6.1,6.2-9,9.4c-2,2.2-4.3,4.6-4.9,7.6c-0.9,5,3.4,6.8,7.5,5.3
	c5.5-2.1,10-5.9,12.1-11.5c2.8-7.4,1.2-15.8,4.6-23l-5.5-2.3c-2.6,7.8-4.7,15.8-6.2,23.9c-0.6,3.2,3.7,5.4,5.5,2.3
	C37,58.9,40.5,49.7,44,40.5l-5.9-0.8c0.2,4.1-0.4,8.2-2,12l5.9,0.8c0.2-2,0.7-4.1,1.3-6h-5.8c2.7,6.4,0,14.7-3.1,20.6
	c-3.2,6.2-8.5,10.8-15.4,12.4l2.9,5c3.7-3.9,7.5-7.6,11.5-11.2l-4.7-3.6c-2.8,3.9-6.5,7.7-11,9.6c-0.9,0.4-1.8,0.7-2.8,0.9l1-0.5
	c0.6-0.9,1.2-1.8,1.9-2.7c1.4-2.1,2.6-4.2,3.7-6.5c4.2-8.5,6.7-17.8,9-26.9l-5,1.3c0.6,0.6,1.2,1.2,2,1.6c2.1,1.3,4.3-0.4,4.5-2.6
	c0.2-1.6,0.3-3.2,0.3-4.8l-3.8,2.9c3.2,1,7,1.2,9.2-1.8c1.7-2.3,1.3-5.5-0.9-7.3c-1.2-1.1-3.1-1.1-4.3,0.1c-0.5,0.5-0.8,1.2-0.8,2
	c-0.4,3.9,0.5,7.7,2.5,11c1.4,2.4,4.6,1.6,5.5-0.7c1.8-5,2.9-10.2,3.1-15.5L37,30.5c0.4,1.4,1.1,2.6,2.1,3.7
	c1.6,1.9,2.7,4.1,3.4,6.5c1.5,6.1,1.7,11.6-0.3,17.6c-3.3,9.8-8.2,21.1-18.5,24.9c-1.9,0.7-4.5,1.8-6.6,1.6C11.5,84.2,13.5,79,15,76
	c2.2-4.4,4.9-8.5,6.7-13.1c4.1-10,3.2-21.8,10.3-30.5h-4.2c0.5,0.6,0.9,6,1.3,7C30.4,42.9,36.2,41.3,34.9,37.7L34.9,37.7z"/>
<path class="st0" d="M35.8,52.6c-0.7,2.1-1.4,4.2-2.3,6.2c-0.8,1.4-0.3,3.2,1.1,4.1c1.3,0.7,3.5,0.4,4.1-1.1c1.1-2.5,2-5,2.9-7.6
	C42.8,50.5,37,48.9,35.8,52.6L35.8,52.6z"/>
<path class="st0" d="M27.9,36.3c-0.3-0.6-0.7-1-1.2-1.4c-0.5-0.4-1.1-0.7-1.7-0.8c-0.8-0.2-1.6-0.1-2.3,0.3
	c-1.4,0.8-1.9,2.7-1.1,4.1c0.4,0.7,1,1.2,1.8,1.4c0.1,0,0.2,0.1,0.3,0.1L23,39.7c0.1,0.1,0.2,0.1,0.3,0.2l-0.6-0.5
	c0.1,0.1,0.2,0.2,0.3,0.3l-0.5-0.6c0.1,0.1,0.1,0.1,0.1,0.2c0.4,0.7,1,1.2,1.8,1.4c0.4,0.1,0.8,0.1,1.2,0.1c0.4,0,0.8-0.1,1.1-0.4
	c0.7-0.4,1.2-1,1.4-1.8C28.4,37.8,28.3,37,27.9,36.3L27.9,36.3z"/>
<path class="st1" d="M39.6,29.2c1.6,6.8,2.2,13.7,1.9,20.6c-0.3,5.3-2.3,8.6-4.4,13.3c-2.3,5-4.3,8.5-8.4,12.1
	c-4.4,3.8-8.1,7.5-13.9,8.9l1.6,5.8c8.4-3.1,17.2-7.7,22.6-15c2.8-3.8,4-8.3,5.5-12.8c1.8-5.6,3.6-10.9,3.9-16.9
	c0.2-3.9-5.8-3.9-6,0c-0.2,5.1-1.8,9.7-3.4,14.4c-1.2,3.8-2.1,7.7-4.3,11C30.1,77.4,22,81.5,14.8,84.2c-3.6,1.3-2.2,6.7,1.6,5.8
	c11.7-2.8,21.2-13.2,25.9-23.8c2.3-5.1,4.7-8.9,5.1-14.5c0.6-8.1-0.1-16.2-2-24C44.6,23.9,38.8,25.5,39.6,29.2z"/>
<path class="st1" d="M40.4,33.1c0.9,4.2,1.2,8.5,1,12.8c-0.2,3.5,4.9,3.9,5.9,0.8c1-3,0.4-5.9,0-9c-0.4-3.7-6.2-3.9-6,0
	c0.3,6.3-0.1,12.6-1.2,18.8c-0.6,3.1,4,5.6,5.5,2.3l0.9-2.1l-5.5-2.3c-0.5,3.6-0.5,7.9-2.2,11.1c-1.8,3.3-4.2,6.2-5.8,9.7
	c-0.8,1.5-0.2,3.3,1.2,4.1c1.1,0.6,2.5,0.4,3.5-0.4c0.8-0.6,1.5-1.4,2-2.2l-5.2-3c-4.4,6.3-11,13.1-19.6,10.9
	c-3.7-1-5.3,4.8-1.6,5.8c11.4,3,20.3-5,26.4-13.6c2.2-3.2-3-6.2-5.2-3l-1.1,1l4.7,3.6c1.8-3.9,4.6-7.1,6.4-10.9
	c1.6-3.4,1.7-7.7,2.2-11.4c0.4-3-4-5.7-5.5-2.3l-0.9,2.1L46,58c1.3-6.7,1.7-13.5,1.4-20.4h-6c0.3,2.5,1,5,0.2,7.4l5.9,0.8
	c0.2-4.8-0.2-9.7-1.2-14.4C45.5,27.7,39.7,29.3,40.4,33.1z"/>
<path class="st2" d="M23,30.8c1.2-1.2,2.2-2.5,3.2-3.9c0.8-1.2-0.9-2.9-2.1-2.1c-1.3,0.9-2.4,2-3.4,3.1l2.4,1.8
	c0.7-0.8,1.3-1.7,1.8-2.7c0.4-0.7,0.1-1.6-0.6-2c-0.6-0.3-1.3-0.2-1.7,0.2c-0.8,0.7-1.6,1.4-2.3,2.3l2.4,1.8l2.6-3.9
	c0.9-1.4-1.3-3.1-2.4-1.8l-1.7,2l2.4,1.8l1.7-2.6c0.4-0.7,0.1-1.7-0.6-2.1c-0.1-0.1-0.2-0.1-0.3-0.1c1.5,0.6,1.3,0.1,1.8-1.1
	c0.6-1.5-1.5-2.4-2.5-1.5l-1.3,1.1c-1.2,1.1,0.4,3.4,1.8,2.4l2.2-1.6l-2.2-1.7l-0.8,2.3c-0.2,0.8,0.3,1.6,1.1,1.8
	c0.5,0.1,1,0,1.4-0.4c1.4-1.6,3.3-5.7,5.6-2.1L34,20c-0.8-0.6-1.6-1.3-2.2-2.1l-0.7,2.5l0.8,0.2l0.8-2.9c-3.6-0.5-6.2,1-8.4,3.9
	c-1.6,2.1-2.5,4.6-4,6.8c-2.3,3.2-5.1,6-8.3,8.2c-0.7,0.4-1,1.3-0.5,2.1c0.4,0.7,1.3,1,2.1,0.5C21,35.5,27.4,29.9,32.1,23
	c0.9-1.2-0.8-2.8-2.1-2.1l-3.9,2.5l1.8,2.4c1-0.8,1.9-1.7,2.8-2.7c0.6-0.6,0.6-1.5,0-2.1s-1.5-0.6-2.1,0c-1.3,1.1-2.6,2.4-3.8,3.6
	c-0.6,0.6-0.6,1.6,0,2.1c0.5,0.5,1.2,0.5,1.8,0.2l4.7-2.8l-2.3-1.3c0.1,4.3,2.6,7,5.6,9.8c0.6,0.6,1.6,0.6,2.1,0
	c0.2-0.2,0.3-0.4,0.4-0.6l2.2-12.8c0.3-1.5-2-2.8-2.7-1.2l-3.1,7l2.7,0.4l-0.5-1.8c-0.2-0.8-1.1-1.3-1.9-1c-0.3,0.1-0.6,0.3-0.8,0.6
	c-1.9,2.4-1.6,5.9,0.7,8c0.6,0.6,1.6,0.6,2.1,0c0.3-0.3,0.4-0.6,0.4-1c-0.1-2.4-0.5-4.9-1.2-7.2c-0.5-1.5-3.1-1.3-2.9,0.4
	c0.3,2.8,1.4,5.2,2.3,7.9c0.2,0.8,1,1.3,1.8,1c0.8-0.2,1.3-1,1-1.8c-1-3.6-2.9-9-5.4-11.9c-2.1-2.5-3.5-0.3-6-0.1l1.3,2.3
	c1.4-3.3,6.3-3.3,8.2,0.1c0.6,1,0.6,2.8,1,3.9l2.2-1.7c-1.9-1.6-2.6-3.4-2.1-5.4l-2.9,0.4c0.2,0.9,0.7,1.7,1.3,2.4
	c0.7,0.8,1.8,1.3,2.4,2.2c0.5,1,0.9,2,1.3,3.1c1.6,3.1,4.2,5.1,7.2,6.8c0.7,0.4,1.7,0.1,2.1-0.6c0.2-0.5,0.2-1,0-1.5
	c-2.4-4.2-5.3-8.1-8.6-11.7c-1.3-1.4-3.4,0.7-2.1,2.1c3.1,3.4,5.8,7.1,8.1,11.1l2.1-2.1c-3.1-1.7-5.5-4.4-6.9-7.6
	c-0.7-1.5-3.7-3.6-4-5c-0.4-1.8-2.8-1.2-2.9,0.4c-0.5,3.1,0.9,6.3,3.6,8c0.7,0.4,1.7,0.1,2.1-0.6c0.2-0.3,0.2-0.7,0.1-1.1
	c-1.3-3.5-1.1-8.1-5.5-9c-3.3-0.7-7.9,1.3-9.2,4.3c-0.4,0.7-0.1,1.7,0.6,2.1c0.2,0.1,0.5,0.2,0.7,0.2c2-0.1,2.9-1.3,4.4,0.6
	c1.8,2.3,3.3,6.5,4,9.2l2.9-0.8c-0.8-2.4-1.9-4.5-2.2-7.1l-2.9,0.4c0.6,2.1,1,4.2,1.1,6.4l2.6-1.1l-0.2-4.4l-2.7-0.4l0.5,1.8
	c0.3,1.1,2.2,1.6,2.7,0.4l3.1-7l-2.7-1.2l-2.2,12.8l2.5-0.7c-2.3-2.2-4.6-4.2-4.7-7.7c0-0.8-0.7-1.5-1.5-1.5c-0.3,0-0.5,0.1-0.7,0.2
	l-4.7,2.8l1.8,2.4c1.2-1.3,2.5-2.5,3.8-3.6L28.6,21c-0.9,0.9-1.8,1.8-2.8,2.7c-1.3,1.1,0.4,3.2,1.8,2.4l3.9-2.5l-2.1-2.1
	C25.1,28,19.1,33.2,12,36.7l1.5,2.6c3.1-2.2,5.9-4.8,8.2-7.7c2.4-3.2,5.1-11.6,10.1-10.9c0.8,0.2,1.6-0.2,1.8-1
	c0.2-0.8-0.2-1.6-1-1.8c-0.7-0.3-1.6-0.4-2.4-0.2c-1.2,0.2-1.3,1.8-0.7,2.5c0.6,0.8,1.3,1.5,2.2,2.1c1.2,1,3.3-0.3,2.4-1.8
	c-3.8-6.1-6.5-2.8-10.3,1.5l2.5,1.5l0.8-2.3c0.4-1.2-1.1-2.5-2.2-1.7l-2.2,1.6l1.8,2.4l1.3-1.1l-2.5-1.5c-0.8,1.9-2.6,3.6,0.3,4.8
	l-0.9-2.2L21,25.9c-0.9,1.4,1.3,3.1,2.4,1.8l1.7-2l-2.4-1.8l-2.6,3.9c-0.9,1.4,1.2,3.1,2.4,1.8c0.7-0.8,1.4-1.6,2.3-2.3l-2.4-1.8
	c-0.5,1-1.1,1.9-1.8,2.7c-1,1.4,1.3,3.1,2.4,1.8c0.8-1,1.7-1.9,2.8-2.7l-2.1-2.1c-0.8,1.2-1.7,2.3-2.7,3.3
	C19.6,30,21.7,32.2,23,30.8L23,30.8z"/>
<path class="st2" d="M19.4,31.9c0.9-1.2,1.7-2.5,2.3-3.9c0.7-1.5,1.8-2.7,3.1-3.6c1.6-1.1,0.1-3.7-1.5-2.6c-1.3,0.9-2.5,2.1-3.4,3.5
	c-1,1.5-1.4,3.3-2.5,4.6C16,31.2,18.1,33.3,19.4,31.9z"/>
<path class="st2" d="M33.1,14.3l0.8-5.2c0.2-0.8-0.2-1.6-1-1.8c-0.8-0.2-1.6,0.2-1.8,1c-0.6,1.9-0.6,4,0.1,5.9l2.7-1.2
	c-2.1-3.2,1.2-5,1.9-7.9C36,4,34.7,2.8,33.5,3.5c-1.9,1.3-3.4,2.9-3.1,5.3c0,0.8,0.7,1.5,1.6,1.5c0.6,0,1.2-0.4,1.4-1.1
	c0.8-2.2,2.3-4.1,4.3-5.4c1.6-1.1,0.1-3.7-1.5-2.6c-2.6,1.7-4.6,4.2-5.7,7.2l2.9,0.4c-0.2-1.3,0.6-2,1.6-2.7l-2.2-1.7
	c-0.5,1.9-2.2,3.2-2.6,5.2c-0.3,1.7,0,3.5,1,5c0.9,1.3,3.4,0.5,2.7-1.2c-0.6-1.4-0.6-2.9-0.1-4.3L31,8.4l-0.8,5.2
	C29.9,15.4,32.8,16.2,33.1,14.3L33.1,14.3z"/>
<path class="st3" d="M11.1,87.1c0.5,1,1.1,1.9,1.7,2.8c1.1,1.6,3.7,0.1,2.6-1.5c-2.3-3.1-3.3-7.1-2.6-11c0.2-0.8-0.3-1.6-1.1-1.8
	c-0.5-0.1-1,0-1.4,0.4c-3.6,2.9-1.2,6.8-0.8,10.6c0.2,1.9,3,2,3,0c0-5,0.8-9.9,2.3-14.6c0.2-0.8-0.3-1.6-1.1-1.8
	c-0.5-0.1-1,0-1.4,0.4C9.6,73.1,8.4,77,9.2,80.7c0.3,1.6,2.4,1.2,2.9,0c3.7-10.1,9.4-19.5,12.1-30c1.2-4.9,0.5-10.7,3.5-14.7
	c2.3-3,4.3-5.2,3-9.1c-0.2-0.8-1.1-1.3-1.9-1c-0.3,0.1-0.6,0.3-0.8,0.6c-1.7,3.2-3.4,6.5-5.1,9.8l2.4-0.3l-0.3-0.3
	c-0.4-0.4-0.9-0.5-1.5-0.4c-4.5,1.8-3.4,11.7-4.1,15.4c-1.5,7.8-4.9,15.2-9.7,21.6c-1.2,1.5,1.4,3,2.6,1.5
	c3.6-4.8,6.4-10.1,8.3-15.8c1-2.9,1.7-5.9,2.1-9c0.4-2.6,1.9-8.9,0.4-10.9c0.6,0.6,1.5,0.6,2.1,0c0.1-0.1,0.2-0.2,0.2-0.3
	c1.7-3.3,3.4-6.5,5.1-9.8l-2.7-0.4c1.4,4.3-4.5,7.3-5.1,11.4c-0.8,5.1-0.9,9.8-2.5,14.8c-3,8.9-7.7,17.2-10.9,26h2.9
	c-0.5-2.7,0.4-5.4,2.4-7.3l-2.5-1.5c-1.6,5-2.5,10.2-2.4,15.4h3c-0.3-2.5-2.4-6.6-0.1-8.5l-2.5-1.5c-0.9,4.6,0.2,9.4,2.9,13.3
	l2.6-1.5c-0.6-0.9-1.2-1.8-1.7-2.8C12.7,83.9,10.1,85.4,11.1,87.1L11.1,87.1z"/>
<path d="M22.9,33.4c-1.2,1.7-2,3.8-2.2,5.9c-0.4,2.5-0.6,5-1.1,7.5C18.6,52,17.1,57,15,61.9c-1.1,2.5-2.3,4.9-3.7,7.3
	c-1.4,2-2.6,4.2-3.6,6.4c-1.4,3.9-0.8,8.3,1.6,11.7c5.9,8.3,17.2,4.6,24-0.4c7.7-5.7,12.4-14.4,14.5-23.5c1.3-5.9,1.8-11.9,1.5-17.9
	c-0.2-5.3-0.8-11-4.1-15.4c-1.2-1.6-2.3,1.2-1.4,2.3c2.6,3.5,3.2,7.9,3.3,12.2c0.2,4.8-0.1,9.6-0.9,14.4
	c-1.5,8.5-5.1,16.8-11.5,22.8c-3,2.9-6.6,5.1-10.6,6.4c-4,1.2-8.9,1.5-12.3-1.3c-3.1-2.5-4.3-6.7-2.9-10.4c1-2.2,2.3-4.3,3.7-6.3
	c1.2-2,2.2-4,3.2-6.1c2.2-4.7,3.9-9.7,5-14.9c0.6-2.5,0.9-5,1.1-7.6c0.1-2.7,0.5-5.3,1.4-7.8C23.3,33.7,23.1,33.2,22.9,33.4
	L22.9,33.4z"/>
<path d="M10,38.2c3.5-0.1,6.1-3,7.6-5.9c1.9-3.7,2.9-7.9,5.4-11.2C25.4,18,29,15.8,33,16c2.1,0.1,4,1,5.4,2.4
	c1.3,1.6,2.4,3.3,3.3,5.1c2.4,4,5.4,7.6,9,10.6l0.6-2.3c-5.2-1-9.7-4-12.6-8.4c-0.6-0.9-1.4-0.1-1.5,0.7c-0.9,3.8-0.8,7.7,0.3,11.5
	l1.3-1.6c-3.4-2.6-6.4-5.7-8.8-9.2c-0.2-0.4-0.7-0.5-1-0.3c-0.1,0.1-0.2,0.2-0.3,0.3C24.5,31,18.9,39,10.2,37.9
	c-1-0.1-1,2.2,0.1,2.4c9.2,1.5,15.4-6.9,19.8-13.6l-1.3,0c2.5,3.7,5.6,7,9.2,9.7c1,0.7,1.5-0.9,1.3-1.6c-0.9-3.2-1-6.7-0.2-9.9
	l-1.5,0.7c3.1,4.6,8,7.8,13.5,8.8c1.2,0.2,1.3-1.8,0.6-2.3c-3.4-2.8-6.2-6.1-8.5-9.8c-2-3.4-3.8-7.1-8-8.2
	c-3.6-0.9-7.5,0.1-10.3,2.5c-3.2,2.6-5,6.3-6.4,10.1c-1.7,4.6-3.7,9.1-8.3,11.4C9.9,38,9.9,38.2,10,38.2L10,38.2z"/>
<path d="M29.5,15.2L29.5,15.2c0.3,0,0.6-0.2,0.6-0.5c0.9-2.4-0.4-5.1,0.6-7.5c1.1-2.4,3.4-4,5.7-5.2c0.3-0.2,0.6-0.4,0.9-0.5
	c0.7-0.1,0.3,0.3,0.1,0.6C37,2.6,36.5,3,36.1,3.4c-0.8,0.9-1.4,2-1.8,3.1c-0.4,1.3-0.6,2.6-0.7,3.9c-0.1,1.4-0.1,2.7,0.1,4.1
	c0.1,0.7,0.9,0.7,1,0c0.1-1.3,0-2.5,0-3.8c0-1.3,0.3-2.6,0.7-3.8c0.4-1.2,1.1-2.2,2-3.1c0.8-0.6,1.2-1.6,1.1-2.6
	c-0.1-0.7-0.7-1.3-1.4-1.2c-0.2,0-0.4,0.1-0.5,0.2c-1.2,0.5-2.3,1.1-3.3,1.8c-2,1.1-3.6,3.1-4.2,5.3c-0.3,1.3-0.3,2.7-0.1,4.1
	c0.1,0.7,0.1,1.4,0.1,2.1c0,0.3,0,0.6,0,1c0,0.1,0,0.3,0.1,0.4l0.1,0.2c0.1,0.1,0.2,0.2,0,0.1C29.3,15.1,29.4,15.3,29.5,15.2z"/>
<circle class="st4" cx="21" cy="55.3" r="3.2"/>
<circle class="st5" cx="21" cy="55.3" r="2.9"/>
<circle cx="20.1" cy="55.7" r="1"/>
<circle class="st5" cx="20.1" cy="55.7" r="0.6"/>
<path d="M20.2,52.6c-1.1,0.6-1.8,1.8-1.8,3.1c0.2,1.3,1.3,2.4,2.6,2.5c1.3,0.3,2.7-0.3,3.4-1.4c0.3-0.6,0.4-1.2,0.3-1.8
	c0-0.6-0.2-1.2-0.5-1.7c-0.2-0.3-0.5-0.5-0.7-0.8c-0.3-0.2-0.6-0.3-0.9-0.4c-0.7-0.1-1.5-0.1-2.2,0.1c-0.3,0.1-0.3,1,0.1,0.9
	c0.5-0.1,1-0.1,1.6-0.1c0.2,0,0.5,0,0.7,0.1c0.2,0.1,0.4,0.2,0.6,0.4c0.3,0.3,0.6,0.7,0.7,1.1c0.1,0.4,0.1,0.8,0.1,1.2
	c-0.4,1-1.4,1.6-2.4,1.5c-1,0.1-2-0.4-2.6-1.4c-0.5-1.1,0.5-2.2,1.3-2.8C20.5,53,20.4,52.5,20.2,52.6L20.2,52.6z"/>
<circle class="st4" cx="35.1" cy="55.5" r="3.1"/>
<circle class="st6" cx="35.1" cy="55.5" r="2.8"/>
<circle cx="34.3" cy="56.3" r="0.9"/>
<circle class="st6" cx="34.3" cy="56.3" r="0.6"/>
<path d="M33.2,53c-0.5,0.4-0.9,0.9-1.2,1.5c-0.3,0.6-0.4,1.4-0.2,2c0.3,1.5,1.7,2.6,3.3,2.5c1.4,0,2.6-0.9,3.1-2.2
	c0.1-0.3,0.1-0.7,0.2-1c0-0.3-0.1-0.6-0.2-0.9c-0.1-0.3-0.1-0.5-0.2-0.8c-0.1-0.2-0.3-0.5-0.4-0.7c-0.2-0.3-0.5-0.5-0.7-0.8
	c-0.3-0.2-0.6-0.2-0.9-0.2c-0.7-0.1-1.5-0.1-2.2,0.1c-0.4,0.1-0.3,1,0.2,0.9c0.5-0.1,1-0.1,1.6,0c0.5,0,0.9,0.1,1.3,0.4
	c0.3,0.3,0.6,0.6,0.7,1c0.2,0.4,0.2,0.8,0.2,1.1c0,0.4-0.2,0.8-0.5,1.1c-0.4,0.4-0.9,0.7-1.5,0.9c-1.2,0.3-2.4-0.2-3.1-1.2
	c-0.7-1.2,0-2.4,0.9-3.2C33.6,53.3,33.5,52.8,33.2,53L33.2,53z"/>
<path d="M26.4,90.2c0,1.3,0.2,2.5,0.5,3.7c0.2,1.2,0.4,2.4,0.6,3.6c0.4,2.3,1,4.7,1.2,7l0-1.1l0,0.2l0.6-1.3
	c0.1-0.1-0.4,0.2-0.4,0.2c-0.2,0.1-0.4,0.2-0.7,0.3c-0.5,0.2-1,0.4-1.5,0.5c-0.9,0.2-1.9,0.4-2.9,0.3c-1.8,0.1-1.8,3.7-0.3,4.2
	c1.9,0.6,3.9-0.1,5.6-0.9c1-0.5,1.8-0.8,2.2-1.9c0.2-1.1,0.1-2.3-0.3-3.4l-1.3-6c-0.2-1-0.4-2-0.7-3.1c-0.2-1-0.5-2.1-0.9-3
	c-0.2-0.4-0.6-0.9-1.1-0.7C26.6,89,26.5,89.7,26.4,90.2L26.4,90.2z"/>
<path d="M12.4,90.4C12.2,92,12,93.6,12,95.2c-0.1,1.6-0.1,3.3-0.2,4.9l-0.1,2.4c0,0.4,0,0.7,0,1.1c0.1,0.9,0.3-0.9,0.5-0.8
	c-0.2,0-0.4,0-0.7,0.1c-1.5,0.1-3,0-4.5-0.3c-2.3-0.6-2.5,4.1-0.3,4.5c1.8,0.3,3.7,0.2,5.4-0.2c1-0.1,1.8-0.9,2-1.9
	c0.1-1,0.2-2.1,0-3.1c-0.1-1.9-0.1-3.7-0.2-5.6c0-2-0.1-3.9-0.5-5.8C13.4,89.6,12.6,89.6,12.4,90.4L12.4,90.4z"/>
<g>
	<path d="M8,164.2c-1.2-5.2-4.9-9.6-10.1-12.1c-0.9-0.4-1.7,0.8-1.8,1.4c-0.2,0.9,0.2,1.9,1.1,2.4c4.4,1.8,7.8,5,9.5,9
		c0.1,0.3,0.5,0.6,0.9,0.4C8,165.1,8.1,164.7,8,164.2L8,164.2z"/>
	<path d="M7.1,165.2C7.2,165.2,7.2,165.2,7.1,165.2L7,165l0-0.1l0-0.3l0.2-0.3l-0.1,0.1c0,0.1-0.1,0.1-0.1,0.2c0,0,0.2-0.3,0.1-0.1
		L7,164.5c-0.2,0.1-0.3,0.3-0.4,0.5c-0.2,0.3-0.4,0.6-0.6,0.9c-0.2,0.3-0.2,0.7-0.2,1c0.1,0.3,0.2,0.7,0.5,0.7
		c0.3,0.1,0.5,0.1,0.8-0.1c0.3-0.2,0.5-0.4,0.6-0.6c0.1-0.2,0.2-0.5,0.3-0.7l0,0c0-0.1,0-0.1,0,0.1c0,0,0-0.1,0.1-0.1
		c0.1-0.2-0.1,0.1,0,0c0,0,0.1-0.1,0.1-0.1l-0.2,0.1l0,0L7,165.5c0.2,0.6,0.4,1.2,0.5,1.9c0.1,0.4,0.2,0.7,0.5,1.1
		c0.3,0.4,0.7,0.6,1.2,0.4c0.4-0.2,0.7-0.5,0.8-1c0.2-0.6,0.1-1.3-0.1-1.9c-0.2-0.5-0.4-1.1-0.7-1.5c-0.3-0.6-0.8-1.1-1.4-1.3
		c-0.5-0.2-0.8,0.3-0.9,0.7c-0.2,0.5,0,1.1,0.4,1.5c0.2,0.2,0.4,0.4,0.6,0.6l-0.2-0.2c0.1,0.2,0.3,0.3,0.4,0.5c0,0,0,0.1,0.1,0.1
		c-0.2-0.3-0.1-0.1,0-0.1c0,0.1,0.1,0.2,0.1,0.3c0.1,0.2,0.2,0.4,0.3,0.6c0,0.1,0,0.1,0.1,0.2c-0.1-0.2-0.1-0.2,0-0.2
		c0,0,0,0.1,0,0.1c0-0.2,0-0.4,0-0.6c0,0.1,0,0.1,0.1-0.1c0,0,0,0.1-0.1,0.1l0.2-0.2c0,0-0.1,0.1-0.1,0.1l0.2-0.1
		c0,0-0.1,0.1-0.2,0.1l0.2-0.1c0,0-0.1,0-0.1,0l0.2,0c0,0-0.1,0-0.1-0.1l0.2,0.1c0,0-0.1,0-0.1-0.1l0.2,0.2c0,0,0-0.1-0.1-0.1
		c-0.1-0.1,0.1,0.1,0.1,0.1c0-0.1-0.1-0.1-0.1-0.2c-0.1-0.2-0.1-0.4-0.2-0.6c-0.1-0.4-0.3-0.8-0.4-1.2c-0.1-0.2-0.2-0.4-0.4-0.5
		c-0.2-0.1-0.4,0-0.6,0.1c-0.3,0.3-0.5,0.6-0.7,1l-0.1,0.2c0,0,0,0.1,0,0.1c-0.1,0.1,0.1-0.2,0-0.1c0,0,0,0.1,0,0.1
		c-0.1,0.1,0,0,0,0c-0.1,0-0.1,0.1-0.2,0.2l0.2-0.1c-0.1,0-0.1,0.1-0.2,0.1l0.2,0c-0.1,0-0.1,0-0.2,0l0.2,0l0,0l0.4,1.8
		c0.3-0.6,0.6-1.2,0.8-1.8c0.2-0.4,0.2-0.8,0-1.2c-0.1-0.2-0.3-0.2-0.5-0.1c-0.1,0-0.1,0.1-0.2,0.2C6.9,164.6,6.9,165,7.1,165.2
		L7.1,165.2z"/>
	<path d="M-41.6,159.2c0.4-0.2,0.9-0.3,1.3-0.4c0.7-0.1,1.4-0.2,2.2-0.3c1.8-0.2,3.6-0.3,5.4-0.5c3.2-0.4,8.7-1.1,9.5-3.7
		c0.1-0.4-0.4-2.1-1.5-1.5c-0.9,0.4-1.1,0.8-1.7,1.2c-0.6,0.4-1.2,0.6-1.9,0.9c-1.7,0.5-3.5,1-5.4,1.2c-1.7,0.3-3.5,0.5-5.3,0.8
		c-1.2,0.1-2.4,0.4-3.4,0.9C-43.2,158.2-42.7,159.8-41.6,159.2z"/>
	<path d="M-42.8,157.3c-0.2-0.1-0.4-0.2-0.6-0.3c-0.2-0.1-0.4-0.1-0.7-0.1c-0.4,0-0.7,0-1.1,0.1c-0.2,0-0.4,0.1-0.5,0.1
		c-0.4,0.2-0.6,0.6-0.6,1.1c0,0.5,0.3,1,0.7,1.3c0.4,0.2,0.8,0.3,1.2,0.2c0.4-0.1,0.8-0.2,1.2-0.3c0.4-0.1,0.7-0.2,1-0.4
		c0.2-0.2,0.3-0.4,0.4-0.6c0.1-0.3,0.1-0.6,0.1-0.8c-0.1-0.3-0.2-0.5-0.4-0.7c-0.6-0.6-1.3-1-2.1-1.3l0.5,0.7l0,0l0,0.5
		c-0.5,0.5-0.6,0.7-0.3,0.6l-0.2,0c0.1,0,0.2,0,0.2,0l-0.2,0c0.2,0,0.4,0.1,0.5,0.2c0.1,0,0.2,0.1,0.3,0.1c0.1,0-0.1-0.1,0,0
		c0,0,0.1,0.1,0.1,0.1c0.2,0.1,0.3,0.2,0.4,0.4c0,0,0.2,0.1,0,0c0.1,0.1,0.1,0.1,0.1,0.2c0.1,0.2,0.3,0.3,0.5,0.2
		c0.4-0.1,0.6-0.5,0.6-0.9c0-0.3-0.1-0.7-0.3-1c-0.1-0.2-0.3-0.3-0.4-0.4c-0.3-0.2-0.6-0.5-0.9-0.6c-0.3-0.2-0.6-0.3-0.9-0.3
		c-0.2,0-0.4,0.1-0.5,0.2c-0.3,0.4-0.4,0.8-0.3,1.3c0,0.3,0.2,0.6,0.5,0.7c0.2,0.1,0.4,0.1,0.5,0.2c0.1,0,0.2,0.1,0.2,0.1
		c0,0,0.1,0,0.1,0.1c0,0,0.2,0.1,0.1,0s0.1,0,0.1,0c0,0,0.1,0,0.1,0.1c0.1,0.1,0.2,0.1,0.2,0.2c0.2,0.1,0.3,0.2,0.5,0.4l-0.3-1.1
		c0-0.1,0-0.2,0.1-0.3C-42.7,157.4-42.6,157.4-42.8,157.3C-42.7,157.4-42.7,157.4-42.8,157.3C-42.6,157.3-42.7,157.4-42.8,157.3
		C-42.7,157.4-42.8,157.4-42.8,157.3c-0.2,0.2-0.4,0.2-0.6,0.3c-0.4,0.1-0.8,0.2-1.2,0.3l0.2,0c-0.2,0-0.4,0-0.6,0l0.2,0
		c-0.1,0-0.1,0-0.2-0.1c-0.1,0-0.1,0,0,0c0,0,0,0-0.1,0c-0.2-0.1,0.1,0.1,0,0c-0.1-0.1,0-0.1,0,0.1c0.1,0.2,0.1,0.4,0.1,0.5
		l-0.4,0.7c0.2-0.1,0.4-0.2,0.6-0.2c0.1,0,0.2-0.1,0.3-0.1c0.1,0-0.1,0,0,0c0.1,0,0.1,0,0.2,0c0.1,0,0.3,0,0.4-0.1
		c0.1,0,0.1,0,0.2,0l0.1,0c0.3,0,0.5-0.1,0.8-0.2C-42.5,158.2-42.4,157.7-42.8,157.3C-42.7,157.4-42.7,157.4-42.8,157.3z"/>
	<ellipse class="st4" cx="-24.6" cy="149" rx="2.7" ry="2.7"/>
	<circle class="st5" cx="-26.1" cy="149.4" r="0.6"/>
	<path d="M-26,146.4c-1.1,0.6-1.8,1.8-1.8,3.1c0.2,1.3,1.3,2.4,2.6,2.5c1.3,0.3,2.7-0.3,3.4-1.4c0.3-0.6,0.4-1.2,0.3-1.8
		c0-0.6-0.2-1.2-0.5-1.7c-0.2-0.3-0.5-0.5-0.7-0.8c-0.3-0.2-0.6-0.3-0.9-0.4c-0.7-0.1-1.5-0.1-2.2,0.1c-0.3,0.1-0.3,1,0.1,0.9
		c0.5-0.1,1-0.1,1.6-0.1c0.2,0,0.5,0,0.7,0.1c0.2,0.1,0.4,0.2,0.6,0.4c0.3,0.3,0.6,0.7,0.7,1.1c0.1,0.4,0.1,0.8,0.1,1.2
		c-0.4,1-1.4,1.6-2.4,1.5c-1,0.1-2-0.4-2.6-1.4c-0.5-1.1,0.5-2.2,1.3-2.8C-25.6,146.7-25.7,146.2-26,146.4L-26,146.4z"/>
	<circle class="st4" cx="-11" cy="149.3" r="3.1"/>
	<circle class="st6" cx="-11.9" cy="150" r="0.6"/>
	<path d="M-12.9,146.7c-0.5,0.4-0.9,0.9-1.2,1.5c-0.3,0.6-0.4,1.4-0.2,2c0.3,1.5,1.7,2.6,3.3,2.5c1.4,0,2.6-0.9,3.1-2.2
		c0.1-0.3,0.1-0.7,0.2-1c0-0.3-0.1-0.6-0.2-0.9c-0.1-0.3-0.1-0.5-0.2-0.8c-0.1-0.2-0.3-0.5-0.4-0.7c-0.2-0.3-0.5-0.5-0.7-0.8
		c-0.3-0.2-0.6-0.2-0.9-0.2c-0.7-0.1-1.5-0.1-2.2,0.1c-0.4,0.1-0.3,1.1,0.2,0.9c0.5-0.1,1-0.1,1.6,0c0.5,0,0.9,0.1,1.3,0.4
		c0.3,0.3,0.6,0.6,0.7,1c0.2,0.4,0.2,0.8,0.2,1.1c0,0.4-0.2,0.8-0.5,1.1c-0.4,0.4-0.9,0.7-1.5,0.9c-1.2,0.3-2.4-0.2-3.1-1.2
		c-0.7-1.2,0-2.4,0.9-3.2C-12.6,147.1-12.7,146.5-12.9,146.7L-12.9,146.7z"/>
	<path d="M-19.7,184c0,1.3,0.2,2.5,0.5,3.7c0.2,1.2,0.4,2.4,0.6,3.6c0.4,2.3,1,4.7,1.2,7l0-1.1l0,0.2l0.6-1.3
		c0.1-0.1-0.4,0.2-0.4,0.2c-0.2,0.1-0.4,0.2-0.7,0.3c-0.5,0.2-1,0.4-1.5,0.5c-0.9,0.2-1.9,0.4-2.9,0.3c-1.8,0.1-1.8,3.7-0.3,4.2
		c1.9,0.6,3.9-0.1,5.6-0.9c1-0.5,1.8-0.8,2.2-1.9c0.2-1.1,0.1-2.3-0.3-3.4l-1.3-6c-0.2-1-0.4-2-0.7-3.1c-0.2-1-0.5-2.1-0.9-3
		c-0.2-0.4-0.6-0.9-1.1-0.7C-19.6,182.7-19.7,183.5-19.7,184L-19.7,184z"/>
	<path d="M-33.7,184.2c-0.3,1.6-0.4,3.2-0.4,4.7c-0.1,1.6-0.1,3.3-0.2,4.9l-0.1,2.4c0,0.4,0,0.7,0,1.1c0.1,0.9,0.3-0.9,0.5-0.8
		c-0.2,0-0.4,0-0.7,0.1c-1.5,0.1-3,0-4.5-0.3c-2.3-0.6-2.5,4.1-0.3,4.5c1.8,0.3,3.7,0.2,5.4-0.2c1-0.1,1.8-0.9,2-1.9
		c0.1-1,0.2-2.1,0-3.1c-0.1-1.9-0.1-3.7-0.2-5.6c0-2-0.1-3.9-0.5-5.8C-32.8,183.3-33.6,183.4-33.7,184.2L-33.7,184.2z"/>
</g>
</svg>
