<svg xmlns="http://www.w3.org/2000/svg" width="56.509" height="108.036" viewBox="0 0 56.509 108.036"><defs><style>.a{fill:#51184a;}.b{fill:#380f31;}.c{fill:#438243;}.d{fill:#682964;}.e{fill:#fff;}.f,.g{fill:none;stroke:#000;}.f{stroke-width:0.636px;}.g{stroke-width:0.611px;}</style></defs><title>auby_longer_body_parts</title><path d="M54.2,70.511a18.14,18.14,0,0,0-10.1-12.1c-.9-.4-1.7.8-1.8,1.4a2.209,2.209,0,0,0,1.1,2.4,17.164,17.164,0,0,1,9.5,9,.666.666,0,0,0,.9.4.841.841,0,0,0,.4-1.1Z"/><path d="M53.4,71.511h0l-.1-.2v-.4l.2-.3-.1.1c0,.1-.1.1-.1.2,0,0,.2-.3.1-.1l-.1.1a1,1,0,0,0-.4.5l-.6.9a1.8,1.8,0,0,0-.2,1c.1.3.2.7.5.7a.783.783,0,0,0,.8-.1,1.7,1.7,0,0,0,.6-.6c.1-.2.2-.5.3-.7h0v.1a.1.1,0,0,1,.1-.1c.1-.2-.1.1,0,0l.1-.1-.2.1h0l-.9-.8a10.548,10.548,0,0,1,.5,1.9,2.7,2.7,0,0,0,.5,1.1.962.962,0,0,0,1.2.4,1.375,1.375,0,0,0,.8-1,3.1,3.1,0,0,0-.1-1.9,6.894,6.894,0,0,0-.7-1.5,2.539,2.539,0,0,0-1.4-1.3c-.5-.2-.8.3-.9.7a1.439,1.439,0,0,0,.4,1.5l.6.6-.4-.3c.1.2.3.3.4.5a.1.1,0,0,0,.1.1c-.2-.3-.1-.1,0-.1,0,.1.1.2.1.3l.3.6c0,.1,0,.1.1.2-.1-.2-.1-.2,0-.2v-.5c0,.1,0,.1.1-.1a.1.1,0,0,1-.1.1l.2-.2-.1.1.2-.1a.349.349,0,0,1-.2.1l.2-.1h.1a.1.1,0,0,1-.1-.1l.2.1a.1.1,0,0,1-.1-.1l.2.2a.1.1,0,0,0-.1-.1l.1.1c0-.1-.1-.1-.1-.2-.1-.2-.1-.4-.2-.6-.1-.4-.3-.8-.4-1.2a1,1,0,0,0-.4-.5.661.661,0,0,0-.6.1,3.592,3.592,0,0,0-.7,1l-.1.2v.1c-.1.1.1-.2,0-.1v.1h0c-.1,0-.1.1-.2.2l.2-.1c-.1,0-.1.1-.2.1H53l.4,1.8a14.167,14.167,0,0,0,.8-1.8,1.275,1.275,0,0,0,0-1.2c-.1-.2-.3-.2-.5-.1-.1,0-.1.1-.2.2a.423.423,0,0,0-.1.7Z"/><path d="M4.7,65.511a6.468,6.468,0,0,1,1.3-.4l2.1-.3c1.8-.2,3.6-.3,5.4-.5,3.2-.4,8.7-1.1,9.5-3.7.1-.4-.4-2.1-1.5-1.5a8.311,8.311,0,0,0-1.7,1.2,11.084,11.084,0,0,1-1.9.9,30.389,30.389,0,0,1-5.4,1.2c-1.7.3-3.5.5-5.3.8a9.5,9.5,0,0,0-3.4.9A.833.833,0,0,0,4.7,65.511Z"/><path d="M3.5,63.611l-.6-.3a1.483,1.483,0,0,0-.7-.1,4.1,4.1,0,0,0-1.1.1,4.331,4.331,0,0,0-.5.1,1.149,1.149,0,0,0-.6,1.1,1.709,1.709,0,0,0,.7,1.3,1.721,1.721,0,0,0,1.2.2l1.2-.3a3,3,0,0,0,1-.4,2.092,2.092,0,0,0,.4-.6,2.485,2.485,0,0,0,.1-.8,1.612,1.612,0,0,0-.4-.7,5.71,5.71,0,0,0-2.1-1.3l.5.7h0v.5c-.4.7-.5.9-.2.8H2.2a.764.764,0,0,1,.5.2c.1,0,.2.1.3.1s-.1-.1,0,0l.1.1a.781.781,0,0,1,.4.4h0c.1.1.1.1.1.2a.365.365,0,0,0,.5.2.875.875,0,0,0,.6-.9,1.929,1.929,0,0,0-.3-1c0-.1-.2-.2-.3-.4a4.7,4.7,0,0,0-.9-.6,1.613,1.613,0,0,0-.9-.3.764.764,0,0,0-.5.2,1.517,1.517,0,0,0-.3,1.3.752.752,0,0,0,.5.7c.2.1.4.1.5.2a.349.349,0,0,1,.2.1.1.1,0,0,1,.1.1s.2.1.1,0,.1,0,.1,0a.1.1,0,0,1,.1.1c.1.1.2.1.2.2a1.756,1.756,0,0,1,.5.4l-.3-1.1a.367.367,0,0,1,.1-.3c0-.1,0-.2-.1-.2,0,.1.1.1,0,0h0c.1.1,0,.1,0,0-.2.2-.4.2-.6.3l-1.2.3H1.5c-.1,0-.1,0-.2-.1H1.2c-.2-.1.1.1,0,0v.1a1.087,1.087,0,0,1,.1.5l-.4.7a1.421,1.421,0,0,1,.6-.2c.1,0,.2-.1.3-.1H2a.6.6,0,0,0,.4-.1h.3a2.353,2.353,0,0,0,.8-.2.913.913,0,0,0,0-1.2Z"/><path class="a" d="M28.3,60.311c-3.3,3.9-9.6,11.7-5.3,17,5.3,6.5,11.8-6.4,14-9.5,1.9-2.8-2.5-6.2-4.7-3.6a56.412,56.412,0,0,0-7.5,10.6l2.6-1.5c-1.6,0-7.2,2.9-8,2.4-1.5-1-4.1-.1-4.4,1.8l-.5,3.4h5.8a8.256,8.256,0,0,0-1.4-3c-1.8-2.8-6.6-1.1-5.5,2.3a9.81,9.81,0,0,0,2,3.6l4.2-4.2c-1.4-1.5-4.9-4.1-7.1-2-1.1,1.1,1.8,2.1,2.3,1.9s1.6-2.6,1.9-3.1c1.5-2.3,3.1-4.6,4.6-6.8,5-7.4,9.2-15,10-24,.3-3.4-5.1-4.1-5.9-.8l-2,8.7c-.9,3.8,4.9,5.4,5.8,1.6l2-8.7-5.9-.8c-1,11.4-9,20-14.8,29.3-1.4,2.3-3.1,5.3-.9,7.7a4.374,4.374,0,0,0,3.3,1.4c.6,0,1.3-.6,1.8-.6,2.1-.1-1.1-1.3.5.4,2.7,2.9,6.6-1.3,4.2-4.2l-.5-1-5.5,2.3.8,1.6c.8,2.6,5.3,3.1,5.8,0l.5-3.4-4.4,1.8a6.206,6.206,0,0,0,4.6,1c2.3-.4,4.2-2.6,6.4-2.6a2.984,2.984,0,0,0,2.6-1.5,44.182,44.182,0,0,1,6.6-9.4l-4.7-3.6-2.8,4c-.1.1-3.1,4.3-1.2,4.1,0,0,1.2-3.5,1.5-4a22.383,22.383,0,0,1,3.3-4.3c2.6-3-1.6-7.3-4.1-4.3Z"/><path class="a" d="M35,37.711c-1.1-3.3-.3-6.9-2.8-9.6a2.9,2.9,0,0,0-4.2,0c-4.2,5.2-6.4,11-7.9,17.5-1.7,7.9-3.3,14.9-7.2,22-2.7,4.8-7,10.9-5.1,16.7,1.7,5.1,6.7,7.1,11.7,6.4,14.3-2,21.1-12.8,26.4-25,2.7-6.2,4.7-12.6,3.8-19.4a47.6,47.6,0,0,0-2.1-9.8c-1-2.7-4-4.8-4.7-7.3-.9-3.3-5.7-2.5-5.9.8a44.223,44.223,0,0,1-2.9,13.9l5.5-.7a11.847,11.847,0,0,1-1.7-8l-5.1,1.8-2.5-1a3.007,3.007,0,0,0-3.7,2.2,1.7,1.7,0,0,0-.1.7,38.663,38.663,0,0,1-.3,4.8l4.5-2.6-.8-.7a3.02,3.02,0,0,0-4.3.1,3.293,3.293,0,0,0-.7,1.3c-2,7.9-4,15.8-7.3,23.2a49.225,49.225,0,0,1-4.8,8.7c-1.6,2.4-4.1,4.8-3.5,8,1,5.1,6.8,4.6,10.5,3.1,5.9-2.4,10.6-7.1,14.2-12.2,2.1-2.9-2.3-5.8-4.7-3.6-4,3.6-7.8,7.3-11.5,11.2a3.113,3.113,0,0,0,.1,4.3,2.858,2.858,0,0,0,2.8.7,28.817,28.817,0,0,0,19-15.2c3.8-7.1,6.9-17.4,3.7-25.2-1.1-2.6-4.9-3.1-5.8,0a48.653,48.653,0,0,0-1.5,7.6c-.4,3.6,4.8,3.7,5.9.8a32.983,32.983,0,0,0,2.2-13.6,2.946,2.946,0,0,0-3.1-2.9,3,3,0,0,0-2.8,2.1c-3.3,8.7-6.7,17.4-11.3,25.5l5.5,2.3a164.529,164.529,0,0,1,6.2-23.9c1.1-3.2-4-5.4-5.5-2.3-3.9,8-1.7,17.4-5.6,25.2a13.663,13.663,0,0,1-5.1,5.3,21.017,21.017,0,0,1-2.6,1.3c1.1.5,1.7-.1,2.1-1.5,3.1-3.7,6.7-7.1,10.2-10.7l-4.7-3.6-3.5,8a3.012,3.012,0,0,0,.5,3.6l.8.8a3.085,3.085,0,0,0,4.2,0,32.79,32.79,0,0,0,8.1-9.7l-5.6-1.5a21.046,21.046,0,0,1-.8,5.6c-.7,2.8,2.9,5.2,5,2.9l1.2-1.3c2.6-2.8-1.6-7.1-4.2-4.2l-1.2,1.3,5,2.9a35.656,35.656,0,0,0,1-7.2c0-2.9-4.2-4.1-5.6-1.5a26.774,26.774,0,0,1-7.2,8.5h4.2l-.8-.8.5,3.6,3.5-8c1.3-2.9-2.1-6.3-4.7-3.6-3,3.1-6.1,6.2-9,9.4-2,2.2-4.3,4.6-4.9,7.6-.9,5,3.4,6.8,7.5,5.3,5.5-2.1,10-5.9,12.1-11.5,2.8-7.4,1.2-15.8,4.6-23l-5.5-2.3a178.46,178.46,0,0,0-6.2,23.9c-.6,3.2,3.7,5.4,5.5,2.3,5.1-8.6,8.6-17.8,12.1-27l-5.9-.8a27.377,27.377,0,0,1-2,12l5.9.8a30.563,30.563,0,0,1,1.3-6H37.6c2.7,6.4,0,14.7-3.1,20.6a23.18,23.18,0,0,1-15.4,12.4l2.9,5c3.7-3.9,7.5-7.6,11.5-11.2l-4.7-3.6c-2.8,3.9-6.5,7.7-11,9.6a13.087,13.087,0,0,1-2.8.9l1-.5c.6-.9,1.2-1.8,1.9-2.7a51.912,51.912,0,0,0,3.7-6.5c4.2-8.5,6.7-17.8,9-26.9l-5,1.3a7.831,7.831,0,0,0,2,1.6c2.1,1.3,4.3-.4,4.5-2.6a38.663,38.663,0,0,0,.3-4.8l-3.8,2.9c3.2,1,7,1.2,9.2-1.8a5.324,5.324,0,0,0-.9-7.3,3.113,3.113,0,0,0-4.3.1,2.792,2.792,0,0,0-.8,2,17.613,17.613,0,0,0,2.5,11c1.4,2.4,4.6,1.6,5.5-.7a51.471,51.471,0,0,0,3.1-15.5l-5.8.7a9.132,9.132,0,0,0,2.1,3.7,17.62,17.62,0,0,1,3.4,6.5c1.5,6.1,1.7,11.6-.3,17.6-3.3,9.8-8.2,21.1-18.5,24.9-1.9.7-4.5,1.8-6.6,1.6-5.6-.6-3.6-5.8-2.1-8.8,2.2-4.4,4.9-8.5,6.7-13.1,4.1-10,3.2-21.8,10.3-30.5H27.9c.5.6.9,6,1.3,7,1.3,3.5,7.1,1.9,5.8-1.7Z"/><path class="a" d="M35.9,52.611a65.615,65.615,0,0,1-2.3,6.2,3.087,3.087,0,0,0,1.1,4.1c1.3.7,3.5.4,4.1-1.1,1.1-2.5,2-5,2.9-7.6,1.2-3.7-4.6-5.3-5.8-1.6Z"/><path class="a" d="M28,36.311a4.071,4.071,0,0,0-1.2-1.4,3.805,3.805,0,0,0-1.7-.8,3.008,3.008,0,0,0-3.4,4.4,2.827,2.827,0,0,0,1.8,1.4c.1,0,.2.1.3.1l-.7-.3c.1.1.2.1.3.2l-.6-.5.3.3-.5-.6c.1.1.1.1.1.2a2.827,2.827,0,0,0,1.8,1.4,4.869,4.869,0,0,0,1.2.1,1.5,1.5,0,0,0,1.1-.4,2.827,2.827,0,0,0,1.4-1.8,2.648,2.648,0,0,0-.2-2.3Z"/><path class="b" d="M39.7,29.211a75.393,75.393,0,0,1,1.9,20.6c-.3,5.3-2.3,8.6-4.4,13.3-2.3,5-4.3,8.5-8.4,12.1-4.4,3.8-8.1,7.5-13.9,8.9l1.6,5.8c8.4-3.1,17.2-7.7,22.6-15,2.8-3.8,4-8.3,5.5-12.8,1.8-5.6,3.6-10.9,3.9-16.9.2-3.9-5.8-3.9-6,0-.2,5.1-1.8,9.7-3.4,14.4-1.2,3.8-2.1,7.7-4.3,11-4.6,6.8-12.7,10.9-19.9,13.6-3.6,1.3-2.2,6.7,1.6,5.8,11.7-2.8,21.2-13.2,25.9-23.8,2.3-5.1,4.7-8.9,5.1-14.5a77.3,77.3,0,0,0-2-24C44.7,23.911,38.9,25.511,39.7,29.211Z"/><path class="b" d="M40.5,33.111a49.957,49.957,0,0,1,1,12.8c-.2,3.5,4.9,3.9,5.9.8,1-3,.4-5.9,0-9-.4-3.7-6.2-3.9-6,0a84.546,84.546,0,0,1-1.2,18.8c-.6,3.1,4,5.6,5.5,2.3l.9-2.1-5.5-2.3c-.5,3.6-.5,7.9-2.2,11.1-1.8,3.3-4.2,6.2-5.8,9.7a3.068,3.068,0,0,0,1.2,4.1,3.212,3.212,0,0,0,3.5-.4,8.331,8.331,0,0,0,2-2.2l-5.2-3c-4.4,6.3-11,13.1-19.6,10.9-3.7-1-5.3,4.8-1.6,5.8,11.4,3,20.3-5,26.4-13.6,2.2-3.2-3-6.2-5.2-3l-1.1,1,4.7,3.6c1.8-3.9,4.6-7.1,6.4-10.9,1.6-3.4,1.7-7.7,2.2-11.4.4-3-4-5.7-5.5-2.3l-.9,2.1,5.7,2.1a86.872,86.872,0,0,0,1.4-20.4h-6c.3,2.5,1,5,.2,7.4l5.9.8a58.025,58.025,0,0,0-1.2-14.4C45.6,27.711,39.8,29.311,40.5,33.111Z"/><path class="c" d="M23.1,30.811a30.191,30.191,0,0,0,3.2-3.9c.8-1.2-.9-2.9-2.1-2.1a20.228,20.228,0,0,0-3.4,3.1l2.4,1.8a12.705,12.705,0,0,0,1.8-2.7,1.483,1.483,0,0,0-2.3-1.8,16.66,16.66,0,0,0-2.3,2.3l2.4,1.8,2.6-3.9c.9-1.4-1.3-3.1-2.4-1.8l-1.7,2,2.4,1.8,1.7-2.6a1.608,1.608,0,0,0-.6-2.1.367.367,0,0,0-.3-.1c1.5.6,1.3.1,1.8-1.1.6-1.5-1.5-2.4-2.5-1.5l-1.3,1.1c-1.2,1.1.4,3.4,1.8,2.4l2.2-1.6-2.2-1.7-.8,2.3a1.487,1.487,0,0,0,2.5,1.4c1.4-1.6,3.3-5.7,5.6-2.1l2.5-1.8a10.957,10.957,0,0,1-2.2-2.1l-.7,2.5.8.2.8-2.9c-3.6-.5-6.2,1-8.4,3.9-1.6,2.1-2.5,4.6-4,6.8a34.016,34.016,0,0,1-8.3,8.2,1.526,1.526,0,1,0,1.6,2.6,48.934,48.934,0,0,0,18.5-16.2c.9-1.2-.8-2.8-2.1-2.1l-3.9,2.5,1.8,2.4a23.671,23.671,0,0,0,2.8-2.7,1.485,1.485,0,0,0-2.1-2.1c-1.3,1.1-2.6,2.4-3.8,3.6a1.449,1.449,0,0,0,0,2.1,1.507,1.507,0,0,0,1.8.2l4.7-2.8-2.3-1.3c.1,4.3,2.6,7,5.6,9.8a1.449,1.449,0,0,0,2.1,0,2.092,2.092,0,0,0,.4-.6l2.2-12.8c.3-1.5-2-2.8-2.7-1.2l-3.1,7,2.7.4-.5-1.8a1.461,1.461,0,0,0-1.9-1,1.555,1.555,0,0,0-.8.6,5.9,5.9,0,0,0,.7,8,1.449,1.449,0,0,0,2.1,0,1.284,1.284,0,0,0,.4-1,29.311,29.311,0,0,0-1.2-7.2c-.5-1.5-3.1-1.3-2.9.4.3,2.8,1.4,5.2,2.3,7.9a1.456,1.456,0,0,0,2.8-.8c-1-3.6-2.9-9-5.4-11.9-2.1-2.5-3.5-.3-6-.1l1.3,2.3c1.4-3.3,6.3-3.3,8.2.1.6,1,.6,2.8,1,3.9l2.2-1.7q-2.85-2.4-2.1-5.4l-2.9.4a5.64,5.64,0,0,0,1.3,2.4c.7.8,1.8,1.3,2.4,2.2a28.8,28.8,0,0,1,1.3,3.1c1.6,3.1,4.2,5.1,7.2,6.8a1.608,1.608,0,0,0,2.1-.6,1.95,1.95,0,0,0,0-1.5,65.248,65.248,0,0,0-8.6-11.7c-1.3-1.4-3.4.7-2.1,2.1a63.133,63.133,0,0,1,8.1,11.1l2.1-2.1a15.919,15.919,0,0,1-6.9-7.6c-.7-1.5-3.7-3.6-4-5-.4-1.8-2.8-1.2-2.9.4a8,8,0,0,0,3.6,8,1.608,1.608,0,0,0,2.1-.6,1.376,1.376,0,0,0,.1-1.1c-1.3-3.5-1.1-8.1-5.5-9-3.3-.7-7.9,1.3-9.2,4.3a1.608,1.608,0,0,0,.6,2.1,1.854,1.854,0,0,0,.7.2c2-.1,2.9-1.3,4.4.6,1.8,2.3,3.3,6.5,4,9.2l2.9-.8c-.8-2.4-1.9-4.5-2.2-7.1l-2.9.4a27.673,27.673,0,0,1,1.1,6.4l2.6-1.1-.2-4.4-2.7-.4.5,1.8c.3,1.1,2.2,1.6,2.7.4l3.1-7-2.7-1.2-2.2,12.8,2.5-.7c-2.3-2.2-4.6-4.2-4.7-7.7a1.538,1.538,0,0,0-1.5-1.5,1.445,1.445,0,0,0-.7.2l-4.7,2.8,1.8,2.4a42.723,42.723,0,0,1,3.8-3.6l-2.2-2.1c-.9.9-1.8,1.8-2.8,2.7-1.3,1.1.4,3.2,1.8,2.4l3.9-2.5-2.1-2.1a44.151,44.151,0,0,1-17.4,15.2l1.5,2.6a40.064,40.064,0,0,0,8.2-7.7c2.4-3.2,5.1-11.6,10.1-10.9a1.456,1.456,0,0,0,.8-2.8,3.91,3.91,0,0,0-2.4-.2c-1.2.2-1.3,1.8-.7,2.5a8.827,8.827,0,0,0,2.2,2.1c1.2,1,3.3-.3,2.4-1.8-3.8-6.1-6.5-2.8-10.3,1.5l2.5,1.5.8-2.3a1.5,1.5,0,0,0-2.2-1.7l-2.2,1.6,1.8,2.4,1.3-1.1-2.5-1.5c-.8,1.9-2.6,3.6.3,4.8l-.9-2.2-1.7,2.4c-.9,1.4,1.3,3.1,2.4,1.8l1.7-2-2.4-1.8-2.6,3.9a1.518,1.518,0,0,0,2.4,1.8,16.66,16.66,0,0,1,2.3-2.3l-2.4-1.8a12.705,12.705,0,0,1-1.8,2.7c-1,1.4,1.3,3.1,2.4,1.8a14.382,14.382,0,0,1,2.8-2.7l-2.1-2.1a21.584,21.584,0,0,1-2.7,3.3c-1.4,1.5.7,3.7,2,2.3Z"/><path class="c" d="M19.5,31.911a19.048,19.048,0,0,0,2.3-3.9,9.049,9.049,0,0,1,3.1-3.6c1.6-1.1.1-3.7-1.5-2.6a12.61,12.61,0,0,0-3.4,3.5c-1,1.5-1.4,3.3-2.5,4.6A1.414,1.414,0,1,0,19.5,31.911Z"/><path class="c" d="M33.2,14.311l.8-5.2a1.456,1.456,0,1,0-2.8-.8,9.173,9.173,0,0,0,.1,5.9l2.7-1.2c-2.1-3.2,1.2-5,1.9-7.9a1.576,1.576,0,0,0-2.3-1.6c-1.9,1.3-3.4,2.9-3.1,5.3a1.561,1.561,0,0,0,1.6,1.5,1.472,1.472,0,0,0,1.4-1.1,10.874,10.874,0,0,1,4.3-5.4c1.6-1.1.1-3.7-1.5-2.6a14.547,14.547,0,0,0-5.7,7.2l2.9.4c-.2-1.3.6-2,1.6-2.7l-2.2-1.7c-.5,1.9-2.2,3.2-2.6,5.2a6.842,6.842,0,0,0,1,5c.9,1.3,3.4.5,2.7-1.2a5.814,5.814,0,0,1-.1-4.3l-2.8-.7-.8,5.2c-.3,1.8,2.6,2.6,2.9.7Z"/><path class="d" d="M11.2,87.111a26.06,26.06,0,0,0,1.7,2.8c1.1,1.6,3.7.1,2.6-1.5a14.3,14.3,0,0,1-2.6-11,1.487,1.487,0,0,0-2.5-1.4c-3.6,2.9-1.2,6.8-.8,10.6.2,1.9,3,2,3,0a47.928,47.928,0,0,1,2.3-14.6,1.487,1.487,0,0,0-2.5-1.4,10.754,10.754,0,0,0-3.1,10.1c.3,1.6,2.4,1.2,2.9,0,3.7-10.1,9.4-19.5,12.1-30,1.2-4.9.5-10.7,3.5-14.7,2.3-3,4.3-5.2,3-9.1a1.461,1.461,0,0,0-1.9-1,1.555,1.555,0,0,0-.8.6c-1.7,3.2-3.4,6.5-5.1,9.8l2.4-.3-.3-.3a1.6,1.6,0,0,0-1.5-.4c-4.5,1.8-3.4,11.7-4.1,15.4a52.817,52.817,0,0,1-9.7,21.6c-1.2,1.5,1.4,3,2.6,1.5a55.56,55.56,0,0,0,8.3-15.8,45.325,45.325,0,0,0,2.1-9c.4-2.6,1.9-8.9.4-10.9a1.45,1.45,0,0,0,2.1,0c.1-.1.2-.2.2-.3,1.7-3.3,3.4-6.5,5.1-9.8l-2.7-.4c1.4,4.3-4.5,7.3-5.1,11.4-.8,5.1-.9,9.8-2.5,14.8-3,8.9-7.7,17.2-10.9,26h2.9a7.991,7.991,0,0,1,2.4-7.3l-2.5-1.5a47.659,47.659,0,0,0-2.4,15.4h3c-.3-2.5-2.4-6.6-.1-8.5l-2.5-1.5a17.533,17.533,0,0,0,2.9,13.3l2.6-1.5a26.06,26.06,0,0,1-1.7-2.8c-1.2-1.5-3.8,0-2.8,1.7Z"/><path d="M23,33.411a12.477,12.477,0,0,0-2.2,5.9c-.4,2.5-.6,5-1.1,7.5a73.091,73.091,0,0,1-4.6,15.1,71.434,71.434,0,0,1-3.7,7.3,40.321,40.321,0,0,0-3.6,6.4,12.847,12.847,0,0,0,1.6,11.7c5.9,8.3,17.2,4.6,24-.4,7.7-5.7,12.4-14.4,14.5-23.5a67.405,67.405,0,0,0,1.5-17.9c-.2-5.3-.8-11-4.1-15.4-1.2-1.6-2.3,1.2-1.4,2.3,2.6,3.5,3.2,7.9,3.3,12.2a69.712,69.712,0,0,1-.9,14.4c-1.5,8.5-5.1,16.8-11.5,22.8a27.443,27.443,0,0,1-10.6,6.4c-4,1.2-8.9,1.5-12.3-1.3A9.217,9.217,0,0,1,9,76.511a39.961,39.961,0,0,1,3.7-6.3c1.2-2,2.2-4,3.2-6.1a68.727,68.727,0,0,0,5-14.9,48,48,0,0,0,1.1-7.6,25.6,25.6,0,0,1,1.4-7.8c0-.1-.2-.6-.4-.4Z"/><path d="M10.1,38.211c3.5-.1,6.1-3,7.6-5.9,1.9-3.7,2.9-7.9,5.4-11.2,2.4-3.1,6-5.3,10-5.1a8.181,8.181,0,0,1,5.4,2.4,27.755,27.755,0,0,1,3.3,5.1,41.557,41.557,0,0,0,9,10.6l.6-2.3a19.392,19.392,0,0,1-12.6-8.4c-.6-.9-1.4-.1-1.5.7a22.439,22.439,0,0,0,.3,11.5l1.3-1.6a40.428,40.428,0,0,1-8.8-9.2.714.714,0,0,0-1-.3l-.3.3c-4.2,6.2-9.8,14.2-18.5,13.1-1-.1-1,2.2.1,2.4,9.2,1.5,15.4-6.9,19.8-13.6H28.9a40.363,40.363,0,0,0,9.2,9.7c1,.7,1.5-.9,1.3-1.6a19.548,19.548,0,0,1-.2-9.9l-1.5.7a20.819,20.819,0,0,0,13.5,8.8c1.2.2,1.3-1.8.6-2.3a39.752,39.752,0,0,1-8.5-9.8c-2-3.4-3.8-7.1-8-8.2a11.665,11.665,0,0,0-10.3,2.5c-3.2,2.6-5,6.3-6.4,10.1-1.7,4.6-3.7,9.1-8.3,11.4-.3-.1-.3.1-.2.1Z"/><path d="M29.6,15.211h0a.56.56,0,0,0,.6-.5c.9-2.4-.4-5.1.6-7.5,1.1-2.4,3.4-4,5.7-5.2a4.053,4.053,0,0,1,.9-.5c.7-.1.3.3.1.6a15.933,15.933,0,0,1-1.3,1.3,9.68,9.68,0,0,0-1.8,3.1,17.777,17.777,0,0,0-.7,3.9,18.751,18.751,0,0,0,.1,4.1c.1.7.9.7,1,0,.1-1.3,0-2.5,0-3.8a12.171,12.171,0,0,1,.7-3.8,7.894,7.894,0,0,1,2-3.1,2.882,2.882,0,0,0,1.1-2.6,1.322,1.322,0,0,0-1.4-1.2.764.764,0,0,0-.5.2,17.4,17.4,0,0,0-3.3,1.8,8.9,8.9,0,0,0-4.2,5.3,11.254,11.254,0,0,0-.1,4.1,14.769,14.769,0,0,1,.1,2.1v1a.6.6,0,0,0,.1.4l.1.2c.1.1.2.2,0,.1C29.4,15.111,29.5,15.311,29.6,15.211Z"/><circle class="e" cx="21.1" cy="55.311" r="3.2"/><circle class="f" cx="21.1" cy="55.311" r="2.9"/><circle cx="20.2" cy="55.711" r="1"/><circle class="f" cx="20.2" cy="55.711" r="0.6"/><path d="M20.3,52.611a3.532,3.532,0,0,0-1.8,3.1,2.97,2.97,0,0,0,2.6,2.5,3.245,3.245,0,0,0,3.4-1.4,2.885,2.885,0,0,0,.3-1.8,3.371,3.371,0,0,0-.5-1.7c-.2-.3-.5-.5-.7-.8a3.552,3.552,0,0,0-.9-.4,5.451,5.451,0,0,0-2.2.1c-.3.1-.3,1,.1.9a8.083,8.083,0,0,1,1.6-.1,1.7,1.7,0,0,1,.7.1,2.092,2.092,0,0,1,.6.4,2.589,2.589,0,0,1,.7,1.1,4.869,4.869,0,0,1,.1,1.2,2.369,2.369,0,0,1-2.4,1.5,2.723,2.723,0,0,1-2.6-1.4c-.5-1.1.5-2.2,1.3-2.8,0-.1-.1-.6-.3-.5Z"/><circle class="e" cx="35.2" cy="55.511" r="3.1"/><circle class="g" cx="35.2" cy="55.511" r="2.8"/><circle cx="34.4" cy="56.311" r="0.9"/><circle class="g" cx="34.4" cy="56.311" r="0.6"/><path d="M33.3,53.011a4.428,4.428,0,0,0-1.2,1.5,2.8,2.8,0,0,0-.2,2,3.159,3.159,0,0,0,3.3,2.5,3.343,3.343,0,0,0,3.1-2.2c.1-.3.1-.7.2-1a2.92,2.92,0,0,0-.2-.9c-.1-.3-.1-.5-.2-.8-.1-.2-.3-.5-.4-.7-.2-.3-.5-.5-.7-.8a1.486,1.486,0,0,0-.9-.2,5.451,5.451,0,0,0-2.2.1c-.4.1-.3,1,.2.9a4.3,4.3,0,0,1,1.6,0,2.01,2.01,0,0,1,1.3.4,2.286,2.286,0,0,1,.7,1,2.344,2.344,0,0,1,.2,1.1,1.606,1.606,0,0,1-.5,1.1,3.766,3.766,0,0,1-1.5.9,2.906,2.906,0,0,1-3.1-1.2c-.7-1.2,0-2.4.9-3.2,0-.2-.1-.7-.4-.5Z"/><path d="M26.5,90.211a15.012,15.012,0,0,0,.5,3.7l.6,3.6c.4,2.3,1,4.7,1.2,7v-.9l.6-1.3c.1-.1-.4.2-.4.2a4.875,4.875,0,0,1-.7.3,8.8,8.8,0,0,1-1.5.5,9.233,9.233,0,0,1-2.9.3c-1.8.1-1.8,3.7-.3,4.2,1.9.6,3.9-.1,5.6-.9,1-.5,1.8-.8,2.2-1.9a6.609,6.609,0,0,0-.3-3.4l-1.3-6c-.2-1-.4-2-.7-3.1a14.883,14.883,0,0,0-.9-3c-.2-.4-.6-.9-1.1-.7-.4.2-.5.9-.6,1.4Z"/><path d="M12.5,90.411a38.838,38.838,0,0,0-.4,4.8c-.1,1.6-.1,3.3-.2,4.9l-.1,2.4v1.1c.1.9.3-.9.5-.8a1.952,1.952,0,0,0-.7.1,17.062,17.062,0,0,1-4.5-.3c-2.3-.6-2.5,4.1-.3,4.5a13.971,13.971,0,0,0,5.4-.2,2.333,2.333,0,0,0,2-1.9,10.734,10.734,0,0,0,0-3.1c-.1-1.9-.1-3.7-.2-5.6a27.823,27.823,0,0,0-.5-5.8c0-.9-.8-.9-1-.1Z"/></svg>