<svg xmlns="http://www.w3.org/2000/svg" width="100" height="100" viewBox="0 0 100 100"><defs><style>.a{fill:#a0d177;}.b{fill:#d8ebc8;}.c{fill:#fff;}.d,.e{fill:none;stroke:#000;}.d{stroke-width:0.342px;}.e{stroke-width:0.329px;}</style></defs><title>brussel-sprouts</title><path d="M55.578,43.5a7.738,7.738,0,0,0-3.89-5.271c-.363-.194-.649.345-.684.623a1,1,0,0,0,.423,1.056,7.183,7.183,0,0,1,3.667,3.92c.056.14.2.25.34.159a.483.483,0,0,0,.144-.487Z"/><path d="M55.116,43.89a.047.047,0,0,1,.02.017l-.073-.1-.015-.05-.005-.17.086-.176-.049.06s-.045.093-.042.094.123-.159.031-.067l-.043.043a2.075,2.075,0,0,0-.226.251c-.115.157-.233.315-.334.481a.786.786,0,0,0-.083.558c.029.136.116.354.272.393a.525.525,0,0,0,.424-.048.934.934,0,0,0,.33-.345,3.3,3.3,0,0,0,.164-.377l.01-.024c.022-.049.013-.031-.026.052.012-.017.02-.037.03-.054.053-.085-.051.048-.018.018a.842.842,0,0,1,.064-.055l-.092.062.021-.013-.491-.4c.1.33.19.663.282,1a1.636,1.636,0,0,0,.242.572.556.556,0,0,0,.64.237.79.79,0,0,0,.431-.512,1.557,1.557,0,0,0-.053-.995,5.067,5.067,0,0,0-.386-.832,1.433,1.433,0,0,0-.76-.7c-.258-.081-.426.159-.481.379a.8.8,0,0,0,.189.786,2.514,2.514,0,0,1,.328.308l-.093-.1a1.841,1.841,0,0,1,.2.274c.014.023.026.047.04.069-.1-.166-.039-.073-.017-.029s.051.1.075.158c.048.106.093.215.136.324.011.03.02.062.033.091-.029-.1-.038-.132-.026-.083a.355.355,0,0,1,.009.047.623.623,0,0,1,.025-.347c-.02.056-.008.032.036-.07a.263.263,0,0,1-.028.04l.087-.108a.3.3,0,0,1-.052.049l.1-.07a.261.261,0,0,1-.084.036l.116-.027a.266.266,0,0,1-.069,0l.118.021a.249.249,0,0,1-.08-.03l.106.064a.389.389,0,0,1-.049-.042l.09.1c-.012-.015-.023-.031-.035-.045-.064-.074.039.043.028.059a.717.717,0,0,0-.046-.109c-.041-.109-.079-.218-.119-.328-.08-.219-.159-.439-.233-.661a.461.461,0,0,0-.24-.267.315.315,0,0,0-.3.067,1.116,1.116,0,0,0-.355.554c-.013.037-.025.074-.038.11l-.017.048c-.028.078.051-.09.019-.037-.01.015-.018.031-.027.045-.041.065-.007,0,.02-.018-.034.024-.06.059-.095.083l.089-.06a.392.392,0,0,1-.086.039l.1-.023a.291.291,0,0,1-.093,0l.1.018-.024,0,.189.951a5.4,5.4,0,0,0,.424-.955.707.707,0,0,0-.016-.659.2.2,0,0,0-.355.01c-.066.106-.08.353.047.431Z"/><path d="M33.256,39.856a2.069,2.069,0,0,1,.49-.2,5.772,5.772,0,0,1,.8-.153c.677-.093,1.358-.162,2.032-.274,1.2-.2,3.264-.566,3.534-2.009.045-.239-.148-1.108-.574-.83-.322.211-.418.442-.652.653a2.969,2.969,0,0,1-.713.468,10.014,10.014,0,0,1-2.012.672c-.652.159-1.311.283-1.963.442a3.164,3.164,0,0,0-1.262.463c-.287.228-.071,1.067.317.768Z"/><path d="M32.841,38.829a.9.9,0,0,0-.3-.141,2.935,2.935,0,0,0-.351-.066,1.844,1.844,0,0,0-.585.07,2.648,2.648,0,0,0-.29.08.56.56,0,0,0-.307.582.9.9,0,0,0,.381.725.85.85,0,0,0,.646.126c.223-.043.443-.115.662-.176a1.425,1.425,0,0,0,.558-.219.687.687,0,0,0,.2-.307.881.881,0,0,0,.029-.444.641.641,0,0,0-.219-.365,3.429,3.429,0,0,0-1.119-.684l.263.38,0-.018.008.294q-.389.405-.183.327l-.1.023a.335.335,0,0,1,.13,0l-.1-.017a1.347,1.347,0,0,1,.285.108c.046.023.09.048.136.073s-.a057-.039,0,0l.076.052a1.953,1.953,0,0,1,.234.2c.018.018.093.075.009.006a.915.915,0,0,1,.077.088.3.3,0,0,0,.272.127c.228-.03.314-.294.308-.494a.783.783,0,0,0-.182-.512,2.775,2.775,0,0,0-.225-.235,2.594,2.594,0,0,0-.49-.342,1.131,1.131,0,0,0-.5-.169.421.421,0,0,0-.288.109.787.787,0,0,0-.166.689.491.491,0,0,0,.264.38,3.094,3.094,0,0,1,.292.121c.043.02.086.042.128.064l.07.039c.01.005.087.051.039.022s.038.024.038.025l.053.035c.045.03.088.061.131.094.085.064.166.133.244.2l-.18-.611a.468.468,0,0,1,.057-.158c.047-.053.057-.069.032-.046s-.011.01.013-.008c.049-.035,0,0-.011,0l-.059.025c-.094.034-.191.058-.287.086-.206.06-.412.129-.621.177l.093-.021a.834.834,0,0,1-.3.011l.094.017a1.158,1.158,0,0,1-.114-.036c-.037-.02-.034-.017.01.009l-.034-.025c-.082-.067.031.055-.014-.009-.027-.041-.02-.028.02.04a.544.544,0,0,1,.031.294l-.233.375a2.514,2.514,0,0,1,.314-.127c.052-.017.105-.029.158-.045.034-.011-.033,0,.026-.007l.1-.019c.073-.013.146-.022.218-.041l.082-.022.039-.01a2.005,2.005,0,0,0,.4-.107.4.4,0,0,0,.037-.6Z"/><path d="M40.508,68.191a7.738,7.738,0,0,0-3.89-5.271c-.363-.194-.65.345-.685.623a1,1,0,0,0,.423,1.056,7.189,7.189,0,0,1,3.668,3.92c.055.14.2.25.34.159a.485.485,0,0,0,.144-.487Z"/><path d="M40.045,68.579a.047.047,0,0,1,.02.017l-.073-.106-.015-.049,0-.17.086-.176-.049.06a.742.742,0,0,0-.042.094c-.009,0,.123-.16.031-.067l-.044.043a2.162,2.162,0,0,0-.226.251c-.115.157-.233.314-.334.481a.78.78,0,0,0-.082.558c.028.136.115.354.271.393a.525.525,0,0,0,.424-.048.934.934,0,0,0,.33-.345,3.43,3.43,0,0,0,.165-.378l.009-.023c.022-.049.013-.032-.025.052.011-.017.019-.037.03-.054.053-.085-.052.048-.018.018a.664.664,0,0,1,.063-.056l-.092.063.021-.014L40,68.72c.1.33.19.663.282,1a1.655,1.655,0,0,0,.242.572.558.558,0,0,0,.641.237.786.786,0,0,0,.43-.512,1.56,1.56,0,0,0-.053-1,4.976,4.976,0,0,0-.386-.831,1.426,1.426,0,0,0-.76-.7c-.257-.082-.426.159-.481.379a.8.8,0,0,0,.189.786,2.451,2.451,0,0,1,.328.308l-.092-.1a1.909,1.909,0,0,1,.2.274c.014.023.026.047.04.069-.1-.166-.039-.073-.016-.029s.051.105.074.157c.048.107.093.216.136.325.012.029.02.062.034.09-.03-.1-.039-.131-.027-.082,0,.015.007.031.01.047a.622.622,0,0,1,.024-.347c-.02.056-.008.032.036-.07a.351.351,0,0,1-.027.04l.086-.108a.337.337,0,0,1-.051.049l.1-.07a.274.274,0,0,1-.084.036l.117-.027a.265.265,0,0,1-.069,0l.117.021a.253.253,0,0,1-.079-.03l.106.064a.337.337,0,0,1-.05-.042l.091.1c-.013-.014-.024-.03-.036-.044-.064-.074.039.043.029.059a.8.8,0,0,0-.047-.109c-.04-.109-.079-.219-.119-.328q-.12-.328-.233-.661a.466.466,0,0,0-.24-.268.318.318,0,0,0-.3.068,1.1,1.1,0,0,0-.354.554l-.039.11-.017.048c-.028.078.051-.09.019-.037-.009.015-.017.03-.027.045-.041.065-.006,0,.02-.018-.034.023-.06.059-.094.083l.089-.06a.347.347,0,0,1-.086.038l.1-.023a.29.29,0,0,1-.093,0l.1.018-.024,0,.188.951a5.323,5.323,0,0,0,.424-.955.7.7,0,0,0-.016-.659.2.2,0,0,0-.355.01c-.065.106-.08.353.047.431Z"/><path d="M18.185,64.545a2.06,2.06,0,0,1,.491-.2,5.73,5.73,0,0,1,.8-.153c.678-.093,1.358-.162,2.033-.275,1.2-.2,3.263-.565,3.534-2.008.044-.239-.148-1.109-.575-.83-.322.211-.418.442-.651.653a3.009,3.009,0,0,1-.713.468,10.107,10.107,0,0,1-2.013.672c-.652.158-1.311.283-1.962.442a3.143,3.143,0,0,0-1.262.463c-.287.228-.071,1.067.316.768Z"/><path d="M17.77,63.518a.893.893,0,0,0-.3-.141,2.817,2.817,0,0,0-.351-.066,1.847,1.847,0,0,0-.586.07,2.648,2.648,0,0,0-.29.08.562.562,0,0,0-.307.582.9.9,0,0,0,.381.725.851.851,0,0,0,.646.126c.224-.044.443-.115.663-.176a1.422,1.422,0,0,0,.557-.22.672.672,0,0,0,.2-.306.892.892,0,0,0,.029-.444.653.653,0,0,0-.219-.366,3.458,3.458,0,0,0-1.12-.683l.263.38,0-.018.007.294q-.389.405-.183.327l-.1.022a.355.355,0,0,1,.13,0l-.1-.017a1.269,1.269,0,0,1,.284.108c.046.022.091.048.136.072s-.057-.038,0,0l.076.053a1.8,1.8,0,0,1,.235.2c.018.018.092.075.009.006a.785.785,0,0,1,.076.088.308.308,0,0,0,.273.127c.228-.031.313-.294.307-.495a.772.772,0,0,0-.182-.511,2.626,2.626,0,0,0-.225-.235,2.562,2.562,0,0,0-.49-.342,1.123,1.123,0,0,0-.5-.169.419.419,0,0,0-.288.109.781.781,0,0,0-.166.689.487.487,0,0,0,.263.38,2.963,2.963,0,0,1,.293.121c.043.02.085.042.128.064l.07.039c.009.005.086.051.039.022s.037.024.037.024l.054.036c.044.03.087.061.13.093.085.065.166.134.244.206l-.179-.611a.489.489,0,0,1,.056-.158c.047-.053.058-.069.032-.046s-.011.01.014-.008c.048-.035,0,0-.012,0l-.059.025c-.093.033-.191.058-.286.086-.206.06-.412.129-.622.177l.094-.022a.836.836,0,0,1-.3.012l.094.017a1.011,1.011,0,0,1-.114-.036c-.038-.02-.035-.017.01.009a.288.288,0,0,1-.035-.026c-.082-.066.031.056-.013-.008-.027-.041-.02-.028.02.04a.552.552,0,0,1,.031.294l-.234.375a2.577,2.577,0,0,1,.314-.127c.052-.017.106-.03.158-.046.034-.01-.033.006.027-.006l.1-.019c.073-.013.146-.023.219-.041l.081-.022.039-.01a2.005,2.005,0,0,0,.4-.107.4.4,0,0,0,.037-.6Z"/><path d="M72.377,67.621a7.738,7.738,0,0,0-3.89-5.271c-.363-.2-.649.344-.684.622a1,1,0,0,0,.423,1.056,7.182,7.182,0,0,1,3.667,3.921c.056.14.2.25.34.159a.483.483,0,0,0,.144-.487Z"/><path d="M71.915,68.009a.041.041,0,0,1,.02.017l-.073-.106-.015-.049,0-.17.086-.177-.048.061a.77.77,0,0,0-.043.094c-.008,0,.124-.16.031-.068l-.043.043a2.237,2.237,0,0,0-.226.251c-.115.157-.233.315-.334.482a.785.785,0,0,0-.083.558c.029.136.116.353.272.392a.529.529,0,0,0,.424-.047.949.949,0,0,0,.33-.345,3.319,3.319,0,0,0,.164-.378l.01-.024c.022-.048.013-.031-.026.052a.554.554,0,0,0,.03-.053c.053-.085-.051.047-.018.017a.842.842,0,0,1,.064-.055l-.092.062.021-.013-.491-.4c.1.33.19.663.282,1a1.624,1.624,0,0,0,.242.571.556.556,0,0,0,.64.237.783.783,0,0,0,.431-.512,1.557,1.557,0,0,0-.053-1,5.067,5.067,0,0,0-.386-.832,1.428,1.428,0,0,0-.76-.694c-.258-.082-.426.158-.481.378a.8.8,0,0,0,.189.786,2.583,2.583,0,0,1,.328.308l-.093-.1a1.841,1.841,0,0,1,.2.274c.014.022.026.046.04.069-.1-.166-.039-.073-.017-.029s.051.1.075.157c.048.107.093.215.136.324.011.03.02.063.033.091-.029-.1-.038-.131-.026-.083a.389.389,0,0,1,.009.047.619.619,0,0,1,.025-.346c-.02.055-.008.032.036-.071a.221.221,0,0,1-.028.04l.087-.107a.406.406,0,0,1-.052.049l.1-.071a.24.24,0,0,1-.084.036l.116-.026a.267.267,0,0,1-.069,0l.118.022a.251.251,0,0,1-.08-.031l.106.065a.389.389,0,0,1-.049-.042l.09.1c-.012-.014-.023-.03-.035-.045-.064-.074.039.044.028.06a.641.641,0,0,0-.046-.109c-.041-.109-.079-.219-.119-.328-.08-.22-.159-.439-.233-.661a.466.466,0,0,0-.24-.268.316.316,0,0,0-.3.068,1.112,1.112,0,0,0-.355.554c-.013.036-.025.073-.038.11l-.017.047c-.028.079.051-.089.019-.037-.01.015-.018.031-.027.046-.041.064-.007,0,.02-.018-.034.023-.06.059-.095.083l.089-.06a.388.388,0,0,1-.086.038l.1-.023a.291.291,0,0,1-.093.005l.1.018-.024-.005.189.95a5.363,5.363,0,0,0,.424-.955.705.705,0,0,0-.016-.658.2.2,0,0,0-.355.01c-.065.106-.08.352.047.431Z"/><path d="M50.055,63.974a2.071,2.071,0,0,1,.49-.2,5.925,5.925,0,0,1,.8-.154c.677-.092,1.358-.162,2.032-.274,1.2-.2,3.264-.566,3.534-2.009.045-.238-.148-1.108-.574-.829-.322.211-.418.441-.652.653a2.969,2.969,0,0,1-.713.468,10.011,10.011,0,0,1-2.012.671c-.652.159-1.311.283-1.963.443a3.168,3.168,0,0,0-1.262.462c-.287.228-.071,1.068.317.768Z"/><path d="M49.64,62.947a.876.876,0,0,0-.3-.14,2.749,2.749,0,0,0-.351-.066,1.872,1.872,0,0,0-.585.069c-.1.023-.2.048-.29.08a.561.561,0,0,0-.307.583.9.9,0,0,0,.381.724.842.842,0,0,0,.646.126c.223-.043.443-.114.662-.175a1.426,1.426,0,0,0,.558-.22.684.684,0,0,0,.2-.306.881.881,0,0,0,.029-.444.644.644,0,0,0-.219-.366,3.409,3.409,0,0,0-1.119-.683l.263.38,0-.019.007.295q-.389.405-.183.327l-.1.022a.335.335,0,0,1,.13,0l-.1-.018a1.31,1.31,0,0,1,.285.109c.046.022.09.047.136.072s-.057-.038,0,0l.076.053a1.79,1.79,0,0,1,.234.2c.018.019.093.076.009.007a.809.809,0,0,1,.077.088.3.3,0,0,0,.273.126c.228-.03.313-.293.307-.494a.782.782,0,0,0-.182-.511,2.788,2.788,0,0,0-.225-.236,2.64,2.64,0,0,0-.49-.342,1.13,1.13,0,0,0-.5-.168.416.416,0,0,0-.288.109.784.784,0,0,0-.166.688.492.492,0,0,0,.264.381,3.087,3.087,0,0,1,.292.12c.043.021.086.042.128.065.024.012.047.025.07.038l.039.023.038.024.054.036c.044.03.087.061.13.093a2.986,2.986,0,0,1,.244.206l-.18-.611a.473.473,0,0,1,.057-.159c.047-.053.057-.068.032-.046s-.011.011.013-.008c.049-.034,0,0-.011,0s-.039.017-.059.024c-.093.034-.191.058-.287.086-.206.06-.411.129-.621.178l.093-.022a.834.834,0,0,1-.3.012l.094.017c-.04-.009-.075-.024-.114-.036s-.034-.017.01.009c-.012-.008-.023-.017-.034-.026-.082-.066.031.056-.014-.008-.026-.042-.02-.029.02.039a.544.544,0,0,1,.031.294l-.233.376a2.514,2.514,0,0,1,.314-.127c.052-.017.1-.03.158-.046.034-.01-.033.006.026-.006.033-.007.066-.014.1-.019.073-.013.146-.023.218-.041l.082-.023c.008,0,.072-.017.039-.01a2,2,0,0,0,.4-.106.4.4,0,0,0,.037-.6Z"/><path class="a" d="M25.64,65.6a7.73,7.73,0,0,0,4.466-1.123,9.23,9.23,0,0,0,1.7-1.376l.907-1.175q.541-.8-.14.276l-2.562,1.493c3.343-1.3,5.973-4.1,4.765-8l-7.142,7.142a10.293,10.293,0,0,1,2.548,1.494,6.618,6.618,0,0,0,6.609,1.286l-6.557-8.529c-.521,1.067-.98,2.163-1.4,3.273-.807,2.119.391,4.841,2.081,6.1a5.917,5.917,0,0,0,6.448.454,11.3,11.3,0,0,0,1.808-1.324l-8.211-8.211c-.65.812-1.218,1.64-1.786,2.5q.627-.639-.087.076.689-.59-.174-.108l4.474-.585a7.089,7.089,0,0,1-1.631-.331c.013.134,1.167.883.227-.079-1.611-1.646-3.438-2-5.638-2.242l2.93.793-.424-.231V67.2l.341-.259c2.493-1.894,3.8-5,2.083-7.943-1.436-2.455-5.432-3.992-7.944-2.083l-.341.259c-1.686,1.281-2.875,2.774-2.875,5.013A5.8,5.8,0,0,0,22.987,67.2a10,10,0,0,0,1.811.817q3.561.678-.876-.791A6.9,6.9,0,0,0,25.8,68.843a11.349,11.349,0,0,0,4.221,1.573,7.88,7.88,0,0,0,6.852-1.924,9.083,9.083,0,0,0,1.13-1.123c-.255.3,2.054-2.895,1.161-1.78,1.958-2.445,2.389-5.822,0-8.211-2.409-2.409-5.768-1.982-8.211,0l.542-.491,8.529,6.556q-.27.471.233-.5a5.89,5.89,0,0,0-.454-6.449c-1.317-1.652-3.955-2.948-6.1-2.08l-.518.209h3.086l1.027.614q-.711-.562-1.438-1.1a14.258,14.258,0,0,0-1.369-.9,21.764,21.764,0,0,0-3.771-1.6c-4.169-1.387-8.414,3.039-7.142,7.142l.092.3.586-4.474-.185.3,2.083-2.083q1.846-.774-.618.263-.756.553-1.472,1.153-.588.738-1.147,1.5a4.421,4.421,0,0,1,2.722-1.745c-3.036-.233-5.939,2.837-5.806,5.806A5.951,5.951,0,0,0,25.64,65.6Z"/><path class="a" d="M21.667,58.52v.024a4.378,4.378,0,0,0,.5,2.237,4.345,4.345,0,0,0,1.2,1.869,4.343,4.343,0,0,0,1.868,1.2,4.36,4.36,0,0,0,2.237.5l1.543-.207a5.8,5.8,0,0,0,2.562-1.493l.908-1.175a5.782,5.782,0,0,0,.793-2.931V58.52a4.381,4.381,0,0,0-.5-2.237,5.228,5.228,0,0,0-3.069-3.069,4.381,4.381,0,0,0-2.237-.5l-1.544.208a5.8,5.8,0,0,0-2.561,1.493L22.46,55.59a5.766,5.766,0,0,0-.793,2.93Z"/><path class="a" d="M22.726,60.556c3.861,0,3.867-6,0-6s-3.867,6,0,6Z"/><path class="a" d="M34.134,57.889c3.861,0,3.867-6,0-6s-3.867,6,0,6Z"/><path class="a" d="M24.532,68.973a10.044,10.044,0,0,0,3.891,1.613,14.891,14.891,0,0,0,4.772.481c1.608-.217,2.484-2.279,2.1-3.69-.477-1.735-2.078-2.313-3.691-2.095l-.409.055h1.6c-1.774-.281-3.725-.507-5.226-1.545a3.027,3.027,0,0,0-4.1,1.076,3.061,3.061,0,0,0,1.076,4.105Z"/><path class="b" d="M29.222,70.585l-2.135-5.722c-1.568-1.234-3.191-1.108-3.852.437a4.16,4.16,0,0,0-.28,1.754A6.655,6.655,0,0,0,27.3,70.5Z"/><path class="b" d="M38.18,67.206c-1.236,2.118-3.986,3.2-6.631,3.746"/><path class="b" d="M28.75,68.853l.43.571a1.159,1.159,0,0,1,.23.694v.02A1.157,1.157,0,0,0,30.566,71.3h2.606a1.538,1.538,0,0,0,.734-.176c.744-.405.474-1.073.752-1.615.238-.465.694-.582,1.151-.747a14.612,14.612,0,0,0,1.562-.625,11.066,11.066,0,0,0,1.372-.812c.757-3.083-1.265-6.289-2.965-3.375-1.235,2.118-1.648,3.584-4.292,4.133.032.057-2.769.719-2.736.775"/><path d="M20.123,55.3a3.07,3.07,0,0,1,.845.029c.422.059.611.4.859.71a7.48,7.48,0,0,0,.856.949,7.582,7.582,0,0,0,.907.653,3.643,3.643,0,0,1,1.5,1.4,7.777,7.777,0,0,1,.373,1.273l.366,1.44c.053.206.206.475.459.378.238-.092.29-.482.239-.691l-.4-1.625a7.684,7.684,0,0,0-.446-1.466,4.412,4.412,0,0,0-1.73-1.724,8.827,8.827,0,0,1-.982-.7c-.373-.326-.641-.747-1-1.086a1.264,1.264,0,0,0-1.024-.373,1.5,1.5,0,0,0-.885.536c-.057.061-.078.318.061.3Z"/><path d="M23.771,57.3a4.886,4.886,0,0,1,.885-.61,1.324,1.324,0,0,1,1.149.021,10.834,10.834,0,0,0,1.087.466,3.3,3.3,0,0,0,1.243.081c.848-.1,1.644-.431,2.481-.576.724-.125,1.689-.023,1.715.892.007.249.227.518.433.259.539-.676-.039-1.723-.7-2.067-.974-.5-2.14.013-3.1.28a4.292,4.292,0,0,1-1.7.2,12.746,12.746,0,0,1-1.51-.552c-1.04-.27-1.67.588-2.093,1.395-.037.07,0,.311.114.212Z"/><path d="M24.841,53.356c.224-.126.445-.009.658.072.137.052.282.075.417.132a.8.8,0,0,1,.459.418,6.824,6.824,0,0,1,.064.712,1.031,1.031,0,0,0,.475.716c.512.285,1.133.036,1.675.18.52.139.784.649,1.024,1.087a.294.294,0,0,0,.517-.013.783.783,0,0,0-.02-.787,2.769,2.769,0,0,0-1.165-1.3,2.149,2.149,0,0,0-.917-.145c-.172,0-.344.011-.517,0-.1,0-.307,0-.385-.068s-.06-.357-.082-.508a1.158,1.158,0,0,0-.406-.783,1.2,1.2,0,0,0-.711-.22.915.915,0,0,0-.483.122c-.192.116-.369.317-.611.307-.041,0-.024.091.008.073Z"/><path d="M21.492,54.9c.169-.015.27.107.437.119a2.291,2.291,0,0,0,1.025-.371,14.793,14.793,0,0,0,3.095-1.836A3.762,3.762,0,0,1,29.856,51.8c1.217.483,2.3,1.091,3.638.674.263-.081.217-.724-.082-.717a6.425,6.425,0,0,1-2.261-.21,12.482,12.482,0,0,0-1.68-.608,4.257,4.257,0,0,0-3.266,1.07,10.651,10.651,0,0,1-1.533,1.145c-.553.287-1.136.517-1.712.752a3.646,3.646,0,0,0-1.136.571c-.128.119-.162.342-.336.4-.01,0-.008.03,0,.029Z"/><path d="M31.184,54.05c.151-.053.327-.083.471-.148a2.471,2.471,0,0,0,.4-.27c.29-.211.568-.426.839-.661a3.384,3.384,0,0,1,1.864-.922,1.5,1.5,0,0,1,1.573,1.116c.219.585.306,1.163.911,1.474.314.161.339-.527.168-.674a2.9,2.9,0,0,1-.543-.771,5.291,5.291,0,0,0-.535-.814,2.207,2.207,0,0,0-1.584-.743,3.331,3.331,0,0,0-1.882.553,5.493,5.493,0,0,0-.9.7c-.134.124-.274.242-.4.368-.168.163-.293.362-.459.529-.066.067-.056.314.081.266Z"/><path d="M40.536,57.336c.806,2.514-.067,5.632-1.355,7.845a13.288,13.288,0,0,1-2.45,3.033c-.639.594-1.364,1.056-2.047,1.592a4.245,4.245,0,0,1-2.144,1.007c-2,.261-3.915-.479-5.851-.822-.207-.036-.161.392-.029.462a13.143,13.143,0,0,0,5.369,1.491,4.44,4.44,0,0,0,2.475-.553,19.882,19.882,0,0,0,2.755-1.9,13.036,13.036,0,0,0,3.709-5.409c.8-2.177,1.165-4.954-.271-6.949-.117-.162-.191.106-.161.2Z"/><path d="M32.573,71.2c-4.181.078-8.146-2.657-10.7-5.795A8.22,8.22,0,0,1,20.2,59.768a24.045,24.045,0,0,0,.1-2.89c-.03-.357-.218-.745-.03-1.056.206-.34.686-.36.973-.62.177-.159.156-.663-.138-.679a1.551,1.551,0,0,0-1.558,1.04A3.317,3.317,0,0,0,19.6,56.9a10.466,10.466,0,0,1-.11,1.768,10.476,10.476,0,0,0,1.059,6.6,14.653,14.653,0,0,0,4.99,4.8,9.465,9.465,0,0,0,7.039,1.281c.061-.014.064-.148,0-.147Z"/><path d="M32.431,58.02c.116,0,.111-.263-.007-.263s-.111.263.007.263Z"/><path d="M40.955,58.651c.513-.619-.041-2.122-.355-2.732A1.765,1.765,0,0,0,39.576,54.9c-.579-.176-1.191.186-1.722.05-.346-.089-.554-.564-.914-.723a1.649,1.649,0,0,0-1.409.058,2.425,2.425,0,0,0-.967.928,2.589,2.589,0,0,1-.479.783,2.8,2.8,0,0,1-.78.344,2.475,2.475,0,0,0-1.122.756c-.416.519-.577.9-1.222,1.175a4.933,4.933,0,0,0-1.224.6c-.463.379-.478,1.029-.879,1.385-.327.291-.841.319-1.194.592a1.516,1.516,0,0,0-.548,1.122,16.787,16.787,0,0,0,.192,3.87,8.512,8.512,0,0,0,1.359,3.763,6.967,6.967,0,0,0,3.149,2.255c.475.191.6-.9.163-1.05a5.57,5.57,0,0,1-3.157-2.326,8.811,8.811,0,0,1-1-4.179c-.015-.374-.019-.748-.02-1.122,0-.3-.1-.952.087-1.2.256-.327.943-.3,1.288-.493.438-.247.519-.593.731-1.008.284-.556.912-.618,1.441-.833a2.408,2.408,0,0,0,1.139-.845,2.372,2.372,0,0,1,1.21-1.068,2.6,2.6,0,0,0,1.143-.7c.425-.518.4-1.276.963-1.687a1.076,1.076,0,0,1,.989-.188c.372.13.378.457.662.626.4.236.9.042,1.342.164.789.218,1.03.844,1.384,1.493.175.319.359,1.091.742,1.214a.03.03,0,0,0,.03-.006Z"/><path d="M36.7,53.983l.046.131c.006.016.014.076.007.021,0,.019,0,.037.008.055.012.083.026.166.04.249a.905.905,0,0,0,.086.273c.029.053.057.1.087.157.043.077.089.152.137.227s.091.138.141.2a1.2,1.2,0,0,0,.264.243c.09.064.185.122.28.177.036.02.073.04.11.057a.572.572,0,0,0,.209.041.368.368,0,0,0,.289-.193.914.914,0,0,0,.111-.441.827.827,0,0,0-.1-.39.728.728,0,0,0-.311-.3l.106.064a2.242,2.242,0,0,1-.347-.265,1.18,1.18,0,0,0-.16-.13c-.057-.039-.113-.079-.168-.121s-.1-.082-.153-.125a.383.383,0,0,0-.148-.1c-.025-.006-.051-.01-.076-.015-.052-.01-.105-.028-.157-.034,0,0-.05-.009-.007.008a.2.2,0,0,1-.037-.027l-.08-.058a.108.108,0,0,0-.163.036.3.3,0,0,0-.015.249Z"/><path d="M23.449,67.577a1.484,1.484,0,0,0,.688-.632,3.039,3.039,0,0,0,.349-1.187c.061-.413.116-.828.144-1.244a4.727,4.727,0,0,0-.083-1.561c-.058-.2-.2-.562-.481-.531-.346.04-.473.449-.466.75a3.216,3.216,0,0,0,.073.467c0,.013.023.148.016.1s.008.085.009.1a6.077,6.077,0,0,1,.009.633c0,.053,0,.105-.007.158a.326.326,0,0,1,0,.054c-.008.12-.019.239-.03.359-.032.359-.074.712-.14,1.066a3.754,3.754,0,0,1-.257,1.037c-.058.118-.057.534.179.436Z"/><path d="M21.185,62.27a4.728,4.728,0,0,0,.37,1.813c.219.57.445,1.131.646,1.709a15.9,15.9,0,0,0,.66,1.7c.126.261.259.52.4.776.146.274.372.627.726.628.278,0,.352-.378.361-.581a3.44,3.44,0,0,0-.736-1.746c-.268-.472-.56-.931-.8-1.419a8.179,8.179,0,0,1-.562-1.6,6.2,6.2,0,0,0-.578-1.6c-.205-.368-.482.1-.485.322Z"/><path d="M36.529,58.253c-.575.633-.167,1.653-.105,2.405a11.4,11.4,0,0,1-.076,2.63,9.768,9.768,0,0,1-2.133,4.819.772.772,0,0,0-.117.791c.079.183.337.41.523.194a11.578,11.578,0,0,0,2.507-4.919,9.945,9.945,0,0,0,.276-2.755,23.733,23.733,0,0,0-.417-2.9c-.032-.179-.261-.487-.458-.269Z"/><path d="M29.858,62.721a5.594,5.594,0,0,0,2.179,3.088,9.331,9.331,0,0,0,3.38,1.72c.5.135.585-.914.159-1.021a8.786,8.786,0,0,1-3.2-1.535,11,11,0,0,1-1.29-1.15,8.165,8.165,0,0,0-1.174-1.17c-.042-.029-.06.037-.055.068Z"/><path d="M32.293,60.847a6.034,6.034,0,0,0,.591,1.424,5.544,5.544,0,0,0,1.008,1.181,6.474,6.474,0,0,0,1.248.892,3.916,3.916,0,0,0,1.407.578c.3.035.426-.415.439-.62a.768.768,0,0,0-.35-.764c-.207-.1-.441-.151-.657-.232s-.409-.165-.606-.262a8.265,8.265,0,0,1-1.095-.676c-.357-.249-.654-.549-.983-.83-.307-.263-.616-.527-.9-.814-.068-.069-.113.076-.1.123Z"/><path d="M37.058,62.99c.125.269.482.191.719.159a2.71,2.71,0,0,0,.784-.2,4.612,4.612,0,0,0,.721-.431,2.666,2.666,0,0,0,.318-.252,2.935,2.935,0,0,0,.3-.375.6.6,0,0,0,.009-.59c-.084-.146-.236-.233-.384-.107a6.976,6.976,0,0,1-1.238.914c-.237.127-.458.273-.706.382a1.527,1.527,0,0,0-.385.181c-.086.073-.2.2-.138.32Z"/><path d="M36.126,66.587a4.317,4.317,0,0,0,1.41-.251,3.064,3.064,0,0,0,.61-.34,2.843,2.843,0,0,0,.588-.545.554.554,0,0,0,.083-.564c-.061-.144-.231-.276-.372-.138-.166.163-.347.309-.517.467a7.261,7.261,0,0,1-.572.462,5.662,5.662,0,0,1-1.247.756c-.053.022-.049.154.017.153Z"/><path d="M21.429,55.317c.48.239,1.1-.083,1.561-.277a16.646,16.646,0,0,0,1.727-.823c1.148-.649,2.136-1.527,3.262-2.2a3.957,3.957,0,0,1,3.45-.023c.851.267,2.183.8,2.954.118a.5.5,0,0,0-.083-.748,15.75,15.75,0,0,0-1.551-.3c-.564-.17-1.114-.383-1.678-.553a3.973,3.973,0,0,0-3.209.439c-1.09.592-2.1,1.307-3.215,1.864-.6.3-1.2.611-1.822.883a3.13,3.13,0,0,0-1.531.941.5.5,0,0,0,.135.682Z"/><path d="M31.075,53.878c.853-.087,1.43-.734,2.144-1.12a2.443,2.443,0,0,1,2.443-.027c.711.423,1.041,1.286,1.625,1.852a3.88,3.88,0,0,0,2.081,1.148c.443.077.368-.863.065-1.009a5.493,5.493,0,0,1-2.039-1.689,3.6,3.6,0,0,0-1.965-1.591,4.178,4.178,0,0,0-2.492.278,3.093,3.093,0,0,0-1.156.751,3.693,3.693,0,0,0-.724,1.363c0,.012,0,.046.018.044Z"/><path class="a" d="M41.283,40.6a7.715,7.715,0,0,0,4.466-1.123,9.266,9.266,0,0,0,1.7-1.375l.908-1.176q.54-.8-.141.277L45.654,38.7c3.344-1.3,5.974-4.1,4.765-8l-7.142,7.142a10.293,10.293,0,0,1,2.548,1.494,6.618,6.618,0,0,0,6.609,1.286l-6.557-8.529c-.521,1.068-.98,2.164-1.4,3.274-.807,2.119.391,4.84,2.081,6.1A5.918,5.918,0,0,0,53,41.923,11.262,11.262,0,0,0,54.811,40.6L46.6,32.387c-.65.813-1.218,1.64-1.785,2.5q.626-.639-.087.076.687-.59-.175-.108l4.474-.586a7.07,7.07,0,0,1-1.63-.331c.012.135,1.166.883.226-.078-1.611-1.647-3.437-2-5.638-2.242l2.931.792-.425-.231V42.209l.341-.259c2.493-1.894,3.8-5.006,2.083-7.944-1.436-2.455-5.431-3.991-7.943-2.083l-.341.259c-1.687,1.282-2.876,2.774-2.876,5.013a5.8,5.8,0,0,0,2.876,5.014,9.964,9.964,0,0,0,1.811.816q3.559.68-.877-.791a6.875,6.875,0,0,0,1.883,1.618,11.345,11.345,0,0,0,4.22,1.573A7.877,7.877,0,0,0,52.52,43.5a8.948,8.948,0,0,0,1.13-1.123c-.255.3,2.054-2.9,1.161-1.78,1.958-2.445,2.389-5.822,0-8.211-2.409-2.409-5.768-1.981-8.211,0l.542-.491,8.529,6.557q-.27.469.233-.5a5.888,5.888,0,0,0-.454-6.448c-1.316-1.653-3.954-2.949-6.1-2.081l-.518.21h3.087l1.026.613q-.711-.562-1.438-1.105a14.126,14.126,0,0,0-1.369-.9,21.813,21.813,0,0,0-3.771-1.6c-4.169-1.387-8.414,3.039-7.142,7.142l.093.3L39.9,29.61l-.184.3L41.8,27.825q1.845-.774-.619.264-.755.552-1.472,1.153-.587.738-1.146,1.5a4.418,4.418,0,0,1,2.721-1.746c-3.035-.233-5.939,2.837-5.806,5.806A5.949,5.949,0,0,0,41.283,40.6Z"/><path class="a" d="M37.31,33.53v.024a4.381,4.381,0,0,0,.5,2.237,5.228,5.228,0,0,0,3.069,3.069,4.381,4.381,0,0,0,2.237.5l1.544-.208a5.794,5.794,0,0,0,2.562-1.493l.907-1.175a5.766,5.766,0,0,0,.793-2.93V33.53a4.368,4.368,0,0,0-.5-2.237,5.214,5.214,0,0,0-3.069-3.069,4.368,4.368,0,0,0-2.237-.5l-1.543.207a5.8,5.8,0,0,0-2.562,1.493L38.1,30.6a5.782,5.782,0,0,0-.793,2.931Z"/><path class="a" d="M38.369,35.566c3.861,0,3.867-6,0-6s-3.867,6,0,6Z"/><path class="a" d="M49.778,32.9c3.86,0,3.867-6,0-6s-3.867,6,0,6Z"/><path class="a" d="M40.175,43.982A10.044,10.044,0,0,0,44.066,45.6a14.9,14.9,0,0,0,4.773.482c1.607-.217,2.483-2.279,2.095-3.691-.477-1.734-2.078-2.313-3.69-2.1l-.41.055h1.595c-1.774-.28-3.725-.507-5.226-1.545a3.028,3.028,0,0,0-4.1,1.076,3.061,3.061,0,0,0,1.076,4.1Z"/><path class="b" d="M44.865,45.594l-2.134-5.722c-1.569-1.233-3.191-1.108-3.852.437a4.145,4.145,0,0,0-.281,1.754,6.653,6.653,0,0,0,4.348,3.449Z"/><path class="b" d="M53.823,42.215c-1.236,2.118-3.986,3.2-6.63,3.746"/><path class="b" d="M44.394,43.863l.429.571a1.154,1.154,0,0,1,.23.694v.02A1.157,1.157,0,0,0,46.21,46.3h2.6a1.534,1.534,0,0,0,.734-.175c.744-.406.474-1.074.752-1.616.239-.464.694-.582,1.151-.746a14.825,14.825,0,0,0,1.562-.625,11,11,0,0,0,1.372-.813c.757-3.083-1.265-6.288-2.964-3.375-1.236,2.118-1.649,3.584-4.293,4.133.033.058-2.769.72-2.735.776"/><path d="M35.766,30.305a3.031,3.031,0,0,1,.845.03c.423.059.611.4.859.71a5.67,5.67,0,0,0,1.763,1.6,3.63,3.63,0,0,1,1.5,1.4,7.574,7.574,0,0,1,.373,1.272l.366,1.441c.053.2.207.474.459.377s.291-.481.239-.691l-.4-1.625a7.7,7.7,0,0,0-.446-1.465,4.415,4.415,0,0,0-1.73-1.725,8.883,8.883,0,0,1-.982-.7c-.373-.325-.641-.747-1-1.085a1.264,1.264,0,0,0-1.025-.373,1.5,1.5,0,0,0-.885.535c-.057.061-.078.319.061.3Z"/><path d="M39.414,32.313A4.881,4.881,0,0,1,40.3,31.7a1.32,1.32,0,0,1,1.149.021,11.425,11.425,0,0,0,1.087.466,3.275,3.275,0,0,0,1.243.08c.848-.1,1.644-.43,2.482-.575.723-.126,1.688-.023,1.714.892.007.248.227.517.433.258.539-.676-.039-1.723-.7-2.067-.975-.5-2.141.013-3.1.28a4.309,4.309,0,0,1-1.7.2,13.178,13.178,0,0,1-1.51-.552c-1.04-.271-1.669.587-2.093,1.394-.036.071,0,.312.114.212Z"/><path d="M40.485,28.365c.223-.125.444-.009.657.072.137.052.282.076.417.133a.8.8,0,0,1,.46.418,6.807,6.807,0,0,1,.063.711,1.029,1.029,0,0,0,.475.716c.512.285,1.134.037,1.675.181.52.138.784.648,1.024,1.086a.294.294,0,0,0,.517-.013.781.781,0,0,0-.019-.787,2.784,2.784,0,0,0-1.165-1.3,2.17,2.17,0,0,0-.917-.145c-.173,0-.345.011-.518,0-.1-.005-.307,0-.385-.068s-.06-.357-.082-.508a1.154,1.154,0,0,0-.406-.783,1.2,1.2,0,0,0-.711-.22.909.909,0,0,0-.482.122c-.193.116-.37.317-.612.306-.04,0-.024.092.009.073Z"/><path d="M37.135,29.913c.169-.015.27.107.437.119a2.279,2.279,0,0,0,1.025-.371,14.764,14.764,0,0,0,3.095-1.835A3.76,3.76,0,0,1,45.5,26.81c1.217.482,2.3,1.091,3.638.674.263-.082.217-.725-.081-.718a6.405,6.405,0,0,1-2.262-.21,12.514,12.514,0,0,0-1.679-.607,4.25,4.25,0,0,0-3.266,1.069,10.8,10.8,0,0,1-1.534,1.146c-.552.287-1.136.516-1.712.752a3.665,3.665,0,0,0-1.136.57c-.128.119-.162.343-.335.4-.011,0-.009.03,0,.029Z"/><path d="M46.827,29.059c.151-.053.327-.082.471-.148a2.465,2.465,0,0,0,.4-.269c.29-.211.568-.427.839-.661a3.384,3.384,0,0,1,1.865-.922,1.5,1.5,0,0,1,1.572,1.116c.22.585.306,1.163.911,1.473.314.162.34-.526.169-.673a2.888,2.888,0,0,1-.544-.772,5.281,5.281,0,0,0-.535-.813,2.208,2.208,0,0,0-1.584-.744,3.332,3.332,0,0,0-1.882.554,5.586,5.586,0,0,0-.9.7c-.133.124-.273.242-.4.369-.168.162-.292.362-.458.529-.067.066-.057.314.08.265Z"/><path d="M56.179,32.345c.807,2.514-.066,5.633-1.355,7.845a13.288,13.288,0,0,1-2.45,3.033c-.639.595-1.364,1.057-2.047,1.592a4.234,4.234,0,0,1-2.144,1.008c-2,.26-3.915-.479-5.85-.822-.207-.037-.162.392-.03.461a13.133,13.133,0,0,0,5.369,1.492,4.447,4.447,0,0,0,2.475-.553A19.976,19.976,0,0,0,52.9,44.5a13.041,13.041,0,0,0,3.71-5.409c.8-2.177,1.164-4.953-.272-6.948-.116-.162-.191.1-.161.2Z"/><path d="M48.216,46.208c-4.18.077-8.146-2.658-10.7-5.8a8.226,8.226,0,0,1-1.673-5.635,24.036,24.036,0,0,0,.1-2.889c-.03-.358-.218-.746-.029-1.057.206-.339.685-.36.973-.619.176-.159.155-.663-.139-.68a1.553,1.553,0,0,0-1.558,1.04,3.335,3.335,0,0,0,.05,1.333,10.466,10.466,0,0,1-.11,1.768,10.475,10.475,0,0,0,1.059,6.6,14.634,14.634,0,0,0,4.99,4.8,9.456,9.456,0,0,0,7.039,1.281c.061-.013.064-.148,0-.146Z"/><path d="M48.074,33.03c.116,0,.111-.264-.007-.264s-.111.264.007.264Z"/><path d="M56.6,33.66c.514-.618-.041-2.122-.355-2.731a1.767,1.767,0,0,0-1.024-1.017c-.578-.176-1.191.186-1.722.05-.346-.088-.554-.564-.914-.723a1.645,1.645,0,0,0-1.409.059,2.423,2.423,0,0,0-.967.927,2.607,2.607,0,0,1-.479.784,2.864,2.864,0,0,1-.779.344,2.471,2.471,0,0,0-1.123.755c-.416.519-.577.9-1.222,1.175a4.936,4.936,0,0,0-1.224.6c-.463.378-.478,1.028-.878,1.384-.328.292-.842.319-1.2.593a1.52,1.52,0,0,0-.548,1.122,16.775,16.775,0,0,0,.192,3.869,8.509,8.509,0,0,0,1.36,3.763,6.957,6.957,0,0,0,3.148,2.255c.476.191.6-.9.164-1.049a5.578,5.578,0,0,1-3.158-2.327,8.807,8.807,0,0,1-1-4.178c-.014-.374-.019-.749-.019-1.123,0-.3-.106-.952.086-1.2.257-.327.943-.3,1.288-.493.439-.246.519-.593.731-1.008.284-.556.912-.618,1.441-.833a2.4,2.4,0,0,0,1.139-.845,2.381,2.381,0,0,1,1.21-1.068,2.6,2.6,0,0,0,1.143-.7c.425-.517.4-1.276.963-1.686a1.073,1.073,0,0,1,.989-.188c.373.129.378.456.662.625.4.236.9.043,1.342.164.789.218,1.03.844,1.385,1.493.174.319.359,1.091.742,1.215a.029.029,0,0,0,.029-.007Z"/><path d="M52.346,28.992l.046.131c0,.016.013.076.006.022,0,.018.006.036.008.054.013.083.026.166.04.249a.871.871,0,0,0,.087.273c.028.053.056.106.086.158.044.076.089.152.137.226s.091.138.141.2a1.19,1.19,0,0,0,.264.242c.09.064.185.122.281.177.035.02.072.041.109.058a.572.572,0,0,0,.21.04.37.37,0,0,0,.289-.192.928.928,0,0,0,.111-.441.856.856,0,0,0-.1-.391.745.745,0,0,0-.311-.3l.105.064a2.167,2.167,0,0,1-.346-.264,1.326,1.326,0,0,0-.16-.131c-.058-.038-.114-.079-.169-.121s-.1-.081-.152-.124a.385.385,0,0,0-.149-.1c-.025-.006-.051-.009-.076-.014a1.468,1.468,0,0,0-.157-.034s-.05-.009-.007.007a.218.218,0,0,1-.036-.026l-.081-.059a.107.107,0,0,0-.162.036.29.29,0,0,0-.015.249Z"/><path d="M39.092,42.587a1.5,1.5,0,0,0,.689-.633,3.037,3.037,0,0,0,.348-1.187c.061-.412.116-.827.144-1.244a4.676,4.676,0,0,0-.083-1.561c-.057-.2-.2-.562-.48-.53-.347.039-.474.448-.467.749a3.336,3.336,0,0,0,.073.467c0,.013.023.148.017.1a.9.9,0,0,0,.008.1,5.571,5.571,0,0,1,.009.633c0,.053,0,.106-.006.159a.323.323,0,0,1,0,.053c-.008.12-.019.24-.029.359-.033.359-.075.712-.141,1.066a3.685,3.685,0,0,1-.257,1.037c-.058.118-.057.534.179.437Z"/><path d="M36.828,37.28a4.723,4.723,0,0,0,.37,1.812c.219.571.445,1.132.646,1.709a15.9,15.9,0,0,0,.66,1.7c.127.262.259.52.4.776.147.275.372.627.726.628.278,0,.352-.377.361-.58a3.444,3.444,0,0,0-.736-1.747c-.267-.472-.56-.931-.8-1.419a8.028,8.028,0,0,1-.562-1.6,6.243,6.243,0,0,0-.579-1.6c-.205-.367-.482.1-.485.323Z"/><path d="M52.172,33.262c-.575.634-.166,1.653-.1,2.406a11.447,11.447,0,0,1-.075,2.629,9.771,9.771,0,0,1-2.134,4.819.769.769,0,0,0-.116.791c.078.184.337.411.522.194a11.569,11.569,0,0,0,2.507-4.918,9.957,9.957,0,0,0,.277-2.756,23.989,23.989,0,0,0-.418-2.9c-.032-.179-.26-.487-.458-.269Z"/><path d="M45.5,37.73a5.584,5.584,0,0,0,2.178,3.088,9.341,9.341,0,0,0,3.38,1.721c.5.134.585-.914.159-1.021a8.8,8.8,0,0,1-3.2-1.535,11.177,11.177,0,0,1-1.29-1.151,8.008,8.008,0,0,0-1.174-1.169c-.042-.03-.06.037-.054.067Z"/><path d="M47.937,35.857a6.066,6.066,0,0,0,.59,1.423,5.549,5.549,0,0,0,1.008,1.182,6.5,6.5,0,0,0,1.248.891,3.941,3.941,0,0,0,1.408.579c.294.034.425-.416.438-.621a.766.766,0,0,0-.35-.763,6.732,6.732,0,0,0-.657-.233c-.206-.077-.408-.165-.606-.261a8.378,8.378,0,0,1-1.095-.677c-.357-.249-.654-.549-.983-.83-.307-.262-.616-.527-.9-.814-.067-.068-.113.077-.1.124Z"/><path d="M52.7,38c.125.269.482.191.719.159a2.715,2.715,0,0,0,.785-.2,4.811,4.811,0,0,0,.72-.431,2.6,2.6,0,0,0,.318-.253,2.725,2.725,0,0,0,.3-.375.6.6,0,0,0,.009-.59c-.083-.145-.236-.233-.383-.106a7.082,7.082,0,0,1-1.239.914c-.237.127-.458.273-.7.382a1.453,1.453,0,0,0-.386.181c-.085.072-.2.2-.138.319Z"/><path d="M51.77,41.6a4.332,4.332,0,0,0,1.409-.25,3.119,3.119,0,0,0,.61-.341,2.79,2.79,0,0,0,.588-.545.55.55,0,0,0,.083-.563c-.061-.145-.231-.277-.372-.138-.166.162-.347.308-.516.467s-.377.311-.572.461a5.654,5.654,0,0,1-1.248.756c-.052.022-.049.155.018.153Z"/><path d="M37.073,30.327c.479.239,1.1-.084,1.56-.278a16.155,16.155,0,0,0,1.727-.823c1.148-.649,2.137-1.527,3.262-2.2A3.959,3.959,0,0,1,47.073,27c.851.268,2.182.8,2.953.118a.5.5,0,0,0-.083-.748,15.694,15.694,0,0,0-1.551-.3c-.564-.17-1.114-.383-1.678-.553a3.974,3.974,0,0,0-3.209.439c-1.09.592-2.1,1.308-3.215,1.865-.6.3-1.2.61-1.822.882a3.145,3.145,0,0,0-1.531.941.505.505,0,0,0,.136.683Z"/><path d="M46.718,28.887c.854-.086,1.43-.734,2.144-1.12a2.448,2.448,0,0,1,2.443-.027c.711.423,1.041,1.286,1.625,1.853a3.893,3.893,0,0,0,2.081,1.148c.443.077.368-.863.065-1.009a5.512,5.512,0,0,1-2.039-1.689,3.6,3.6,0,0,0-1.965-1.592,4.2,4.2,0,0,0-2.492.278,3.105,3.105,0,0,0-1.156.751,3.684,3.684,0,0,0-.723,1.363c0,.012,0,.046.017.044Z"/><path class="a" d="M58.182,64.542a7.722,7.722,0,0,0,4.466-1.123,9.223,9.223,0,0,0,1.7-1.376l.908-1.175q.542-.8-.141.276l-2.562,1.493c3.344-1.3,5.974-4.1,4.766-8l-7.142,7.142a10.311,10.311,0,0,1,2.548,1.494,6.618,6.618,0,0,0,6.609,1.286l-6.557-8.529c-.522,1.068-.98,2.163-1.4,3.274-.808,2.118.391,4.84,2.08,6.1a5.917,5.917,0,0,0,6.449.454,11.3,11.3,0,0,0,1.808-1.324L63.5,56.324c-.651.812-1.219,1.64-1.786,2.5q.627-.639-.087.075.689-.59-.174-.107l4.474-.586a7.067,7.067,0,0,1-1.631-.331c.013.135,1.166.883.226-.078-1.61-1.647-3.437-1.995-5.637-2.243l2.93.793-.424-.231V66.146l.341-.259c2.493-1.894,3.8-5.006,2.083-7.944-1.436-2.455-5.432-3.992-7.944-2.083l-.341.259c-1.687,1.282-2.875,2.774-2.875,5.013a5.8,5.8,0,0,0,2.875,5.014,10.064,10.064,0,0,0,1.811.816q3.561.678-.876-.791a6.886,6.886,0,0,0,1.882,1.618,11.351,11.351,0,0,0,4.22,1.573,7.882,7.882,0,0,0,6.853-1.924,8.94,8.94,0,0,0,1.129-1.123c-.254.3,2.055-2.895,1.162-1.78,1.958-2.445,2.388-5.822,0-8.211-2.409-2.409-5.768-1.982-8.211,0l.542-.491,8.529,6.556q-.27.471.232-.5a5.887,5.887,0,0,0-.454-6.448c-1.316-1.653-3.954-2.949-6.1-2.081l-.519.209h3.087l1.027.614q-.711-.562-1.438-1.1a14.384,14.384,0,0,0-1.369-.9,21.764,21.764,0,0,0-3.771-1.6c-4.169-1.387-8.414,3.039-7.142,7.142l.092.3.585-4.474-.184.3L58.7,51.762q1.846-.774-.618.264-.756.552-1.472,1.153-.588.736-1.147,1.5a4.42,4.42,0,0,1,2.722-1.745c-3.036-.233-5.939,2.837-5.806,5.806a5.949,5.949,0,0,0,5.806,5.806Z"/><path class="a" d="M54.209,57.466v.025a4.37,4.37,0,0,0,.5,2.237A5.221,5.221,0,0,0,57.778,62.8a4.378,4.378,0,0,0,2.237.5l1.543-.208A5.793,5.793,0,0,0,64.12,61.6l.908-1.175a5.789,5.789,0,0,0,.793-2.93v-.025a4.375,4.375,0,0,0-.5-2.236,5.221,5.221,0,0,0-3.069-3.069,4.371,4.371,0,0,0-2.237-.5l-1.544.208a5.8,5.8,0,0,0-2.562,1.493L55,54.536a5.778,5.778,0,0,0-.792,2.93Z"/><path class="a" d="M55.268,59.5c3.86,0,3.867-6,0-6s-3.867,6,0,6Z"/><path class="a" d="M66.676,56.835c3.861,0,3.867-6,0-6s-3.867,6,0,6Z"/><path class="a" d="M57.074,67.919a10.044,10.044,0,0,0,3.891,1.613,14.886,14.886,0,0,0,4.772.481c1.607-.217,2.483-2.278,2.095-3.69-.476-1.734-2.078-2.313-3.69-2.095l-.41.055h1.595C63.553,64,61.6,63.776,60.1,62.738A3.029,3.029,0,0,0,56,63.814a3.061,3.061,0,0,0,1.077,4.1Z"/><path class="b" d="M61.764,69.531l-2.135-5.722c-1.569-1.233-3.191-1.108-3.852.437A4.161,4.161,0,0,0,55.5,66a6.653,6.653,0,0,0,4.348,3.448Z"/><path class="b" d="M70.721,66.152c-1.235,2.118-3.986,3.2-6.63,3.746"/><path class="b" d="M61.292,67.8l.43.571a1.165,1.165,0,0,1,.23.694v.021a1.156,1.156,0,0,0,1.156,1.156h2.606a1.533,1.533,0,0,0,.733-.175c.744-.406.474-1.074.752-1.616.239-.465.694-.582,1.152-.747a14.606,14.606,0,0,0,1.562-.624,11.073,11.073,0,0,0,1.372-.813c.757-3.083-1.265-6.288-2.965-3.375-1.235,2.118-1.648,3.584-4.292,4.133.032.058-2.769.72-2.736.775"/><path d="M52.665,54.242a3.07,3.07,0,0,1,.845.029c.422.059.611.405.859.71a7.48,7.48,0,0,0,.855.949,7.562,7.562,0,0,0,.908.653,3.643,3.643,0,0,1,1.5,1.4,7.676,7.676,0,0,1,.372,1.273l.367,1.44c.052.206.206.475.459.378.238-.091.29-.481.238-.691l-.4-1.625a7.706,7.706,0,0,0-.446-1.466,4.419,4.419,0,0,0-1.73-1.724,8.827,8.827,0,0,1-.982-.7c-.373-.325-.641-.747-1-1.085a1.262,1.262,0,0,0-1.024-.374,1.5,1.5,0,0,0-.885.536c-.058.061-.078.319.061.3Z"/><path d="M56.313,56.25a4.858,4.858,0,0,1,.884-.609,1.322,1.322,0,0,1,1.15.02,10.736,10.736,0,0,0,1.087.466,3.27,3.27,0,0,0,1.242.081c.849-.1,1.644-.431,2.482-.576.724-.125,1.689-.023,1.714.892.007.249.227.518.434.259.539-.676-.039-1.723-.7-2.067-.975-.5-2.14.013-3.1.28a4.288,4.288,0,0,1-1.7.2,12.9,12.9,0,0,1-1.509-.551c-1.041-.271-1.67.587-2.093,1.394-.037.07,0,.312.114.212Z"/><path d="M57.383,52.3c.224-.125.445-.009.658.072.137.052.281.075.417.132a.807.807,0,0,1,.459.418,6.587,6.587,0,0,1,.063.712,1.033,1.033,0,0,0,.476.716c.512.285,1.133.036,1.675.181.52.138.784.648,1.024,1.086a.294.294,0,0,0,.517-.013.783.783,0,0,0-.02-.787,2.774,2.774,0,0,0-1.165-1.3,2.167,2.167,0,0,0-.917-.145c-.172,0-.345.011-.517,0-.1-.005-.308,0-.386-.068s-.059-.358-.082-.509a1.153,1.153,0,0,0-.405-.782,1.205,1.205,0,0,0-.711-.221.923.923,0,0,0-.483.123c-.192.115-.369.317-.611.306-.041,0-.024.092.008.073Z"/><path d="M54.033,53.85c.17-.015.27.107.437.119A2.282,2.282,0,0,0,55.5,53.6a14.839,14.839,0,0,0,3.1-1.835A3.762,3.762,0,0,1,62.4,50.746c1.217.483,2.3,1.091,3.638.675.263-.082.217-.725-.082-.718a6.425,6.425,0,0,1-2.261-.21,12.621,12.621,0,0,0-1.68-.608,4.257,4.257,0,0,0-3.266,1.07A10.686,10.686,0,0,1,57.213,52.1c-.552.286-1.136.516-1.711.751a3.668,3.668,0,0,0-1.136.571c-.128.119-.162.343-.336.4-.01,0-.009.03,0,.029Z"/><path d="M63.726,53c.15-.053.327-.082.47-.148a2.374,2.374,0,0,0,.4-.27c.29-.21.568-.426.838-.661A3.4,3.4,0,0,1,67.3,51a1.505,1.505,0,0,1,1.573,1.116c.219.585.305,1.164.91,1.474.315.162.34-.526.169-.673a2.923,2.923,0,0,1-.543-.772,5.215,5.215,0,0,0-.536-.813,2.2,2.2,0,0,0-1.583-.744,3.339,3.339,0,0,0-1.882.553,5.613,5.613,0,0,0-.9.7c-.133.124-.273.242-.4.369-.169.162-.293.361-.459.528-.066.067-.056.315.081.266Z"/><path d="M73.077,56.282c.807,2.514-.066,5.633-1.354,7.845a13.288,13.288,0,0,1-2.45,3.033c-.64.594-1.364,1.056-2.047,1.592a4.246,4.246,0,0,1-2.144,1.008c-2,.26-3.915-.48-5.851-.822-.207-.037-.161.391-.029.461a13.16,13.16,0,0,0,5.368,1.492,4.46,4.46,0,0,0,2.476-.553,19.976,19.976,0,0,0,2.755-1.9,13.036,13.036,0,0,0,3.709-5.409c.8-2.177,1.165-4.953-.271-6.949-.117-.161-.192.106-.162.2Z"/><path d="M65.115,70.145c-4.181.077-8.147-2.658-10.7-5.8a8.215,8.215,0,0,1-1.673-5.635,24.244,24.244,0,0,0,.1-2.889c-.031-.358-.218-.746-.03-1.057.206-.34.685-.36.973-.62.176-.159.155-.663-.138-.679a1.552,1.552,0,0,0-1.558,1.04,3.317,3.317,0,0,0,.049,1.333,10.363,10.363,0,0,1-.11,1.768,10.482,10.482,0,0,0,1.06,6.6,14.635,14.635,0,0,0,4.99,4.8,9.457,9.457,0,0,0,7.038,1.281c.062-.013.065-.148,0-.146Z"/><path d="M64.973,56.966c.116,0,.111-.263-.007-.263s-.111.263.007.263Z"/><path d="M73.5,57.6c.513-.619-.041-2.122-.355-2.732a1.765,1.765,0,0,0-1.024-1.016c-.579-.176-1.192.186-1.722.05-.347-.089-.554-.564-.914-.723a1.645,1.645,0,0,0-1.409.059,2.416,2.416,0,0,0-.967.927,2.607,2.607,0,0,1-.479.784,2.851,2.851,0,0,1-.78.343,2.478,2.478,0,0,0-1.122.756c-.416.519-.577.9-1.222,1.175a4.868,4.868,0,0,0-1.224.6c-.464.378-.478,1.028-.879,1.384-.328.291-.842.319-1.194.593a1.515,1.515,0,0,0-.548,1.122,16.665,16.665,0,0,0,.192,3.869,8.508,8.508,0,0,0,1.359,3.763,6.96,6.96,0,0,0,3.149,2.255c.475.191.6-.9.163-1.05a5.57,5.57,0,0,1-3.157-2.326,8.8,8.8,0,0,1-1-4.179c-.015-.374-.019-.748-.02-1.122,0-.295-.106-.952.087-1.2.256-.327.943-.3,1.287-.493.439-.246.52-.593.731-1.008.285-.556.913-.618,1.441-.833a2.4,2.4,0,0,0,1.139-.845,2.38,2.38,0,0,1,1.21-1.068,2.592,2.592,0,0,0,1.143-.7c.425-.518.4-1.276.963-1.686a1.076,1.076,0,0,1,.99-.189c.372.13.377.457.662.626.4.236.9.042,1.341.164.789.218,1.031.844,1.385,1.493.174.319.359,1.091.742,1.215a.03.03,0,0,0,.03-.007Z"/><path d="M69.244,52.929l.046.131c.006.016.013.076.007.022,0,.018.005.036.008.054.012.083.025.166.04.249a.905.905,0,0,0,.086.273c.028.053.057.1.087.157.043.077.089.153.136.227s.091.138.142.2a1.19,1.19,0,0,0,.264.242,3.225,3.225,0,0,0,.28.177c.036.02.072.04.11.058a.571.571,0,0,0,.209.04.368.368,0,0,0,.289-.193.924.924,0,0,0,.111-.44.828.828,0,0,0-.1-.391.734.734,0,0,0-.311-.3l.105.064a2.16,2.16,0,0,1-.346-.265,1.18,1.18,0,0,0-.16-.13c-.057-.038-.113-.079-.168-.121s-.1-.082-.153-.124a.381.381,0,0,0-.148-.1c-.025-.006-.051-.009-.077-.015-.051-.01-.1-.028-.156-.034-.006,0-.05-.009-.007.008A.2.2,0,0,1,69.5,52.7l-.08-.058a.108.108,0,0,0-.163.036.294.294,0,0,0-.015.249Z"/><path d="M55.991,66.524a1.5,1.5,0,0,0,.688-.633,3.037,3.037,0,0,0,.348-1.187c.062-.413.117-.828.144-1.244a4.674,4.674,0,0,0-.083-1.561c-.057-.2-.2-.562-.48-.53-.346.039-.474.448-.466.749a3.216,3.216,0,0,0,.073.467c0,.013.023.148.016.1s.008.084.009.1a6.077,6.077,0,0,1,.009.633c0,.053,0,.106-.007.158a.489.489,0,0,1,0,.054c-.009.12-.019.239-.03.359-.032.359-.075.712-.14,1.066a3.754,3.754,0,0,1-.257,1.037c-.058.118-.058.534.179.437Z"/><path d="M53.727,61.216a4.687,4.687,0,0,0,.37,1.813c.219.571.445,1.132.646,1.709a15.689,15.689,0,0,0,.66,1.7c.126.261.259.52.4.776.146.274.372.627.725.628.279,0,.353-.378.361-.581a3.434,3.434,0,0,0-.735-1.746c-.268-.472-.56-.931-.8-1.419a8.028,8.028,0,0,1-.562-1.6,6.241,6.241,0,0,0-.578-1.6c-.205-.367-.482.1-.485.322Z"/><path d="M69.07,57.2c-.574.634-.166,1.653-.1,2.405a11.455,11.455,0,0,1-.076,2.63,9.779,9.779,0,0,1-2.134,4.819.771.771,0,0,0-.116.791c.079.183.337.411.523.194a11.553,11.553,0,0,0,2.506-4.919,9.908,9.908,0,0,0,.277-2.755,23.958,23.958,0,0,0-.417-2.9c-.033-.179-.261-.487-.459-.269Z"/><path d="M62.4,61.667a5.592,5.592,0,0,0,2.178,3.088,9.337,9.337,0,0,0,3.381,1.721c.5.134.585-.914.159-1.022a8.77,8.77,0,0,1-3.2-1.535,10.915,10.915,0,0,1-1.29-1.15A8.108,8.108,0,0,0,62.455,61.6c-.042-.03-.061.036-.055.067Z"/><path d="M64.835,59.794a6.045,6.045,0,0,0,.591,1.423A5.491,5.491,0,0,0,66.434,62.4a6.431,6.431,0,0,0,1.248.892,3.916,3.916,0,0,0,1.407.578c.3.035.425-.415.439-.62a.767.767,0,0,0-.35-.763,6.75,6.75,0,0,0-.658-.233c-.206-.077-.408-.165-.6-.262a8.276,8.276,0,0,1-1.1-.676c-.356-.249-.654-.549-.982-.83-.307-.263-.616-.527-.9-.814-.068-.068-.114.076-.1.124Z"/><path d="M69.6,61.936c.125.269.482.191.718.159a2.708,2.708,0,0,0,.785-.2,4.684,4.684,0,0,0,.721-.43,2.757,2.757,0,0,0,.318-.253,2.935,2.935,0,0,0,.3-.375.6.6,0,0,0,.008-.59c-.083-.145-.236-.233-.383-.106a6.99,6.99,0,0,1-1.239.913c-.236.128-.457.274-.7.382a1.533,1.533,0,0,0-.386.181c-.085.073-.195.2-.137.32Z"/><path d="M68.668,65.533a4.342,4.342,0,0,0,1.41-.25,3.083,3.083,0,0,0,.609-.341,2.791,2.791,0,0,0,.588-.545.547.547,0,0,0,.083-.563c-.06-.145-.23-.277-.372-.138-.166.162-.346.308-.516.466s-.377.312-.572.462a5.662,5.662,0,0,1-1.247.756c-.053.022-.049.154.017.153Z"/><path d="M53.971,54.264c.479.238,1.1-.084,1.561-.278a16.744,16.744,0,0,0,1.727-.823c1.148-.649,2.136-1.527,3.262-2.2a3.957,3.957,0,0,1,3.45-.023c.851.268,2.183.8,2.954.118a.5.5,0,0,0-.083-.748,15.771,15.771,0,0,0-1.552-.3c-.564-.17-1.113-.383-1.677-.553a3.973,3.973,0,0,0-3.209.439c-1.091.592-2.1,1.307-3.215,1.864-.6.3-1.2.611-1.823.883a3.139,3.139,0,0,0-1.53.941.5.5,0,0,0,.135.683Z"/><path d="M63.617,52.824c.853-.086,1.429-.734,2.144-1.12a2.445,2.445,0,0,1,2.443-.027c.71.423,1.04,1.286,1.625,1.853a3.878,3.878,0,0,0,2.081,1.147c.443.078.368-.862.065-1.009a5.492,5.492,0,0,1-2.039-1.688,3.6,3.6,0,0,0-1.966-1.592,4.184,4.184,0,0,0-2.491.278,3.1,3.1,0,0,0-1.156.751A3.671,3.671,0,0,0,63.6,52.78c0,.012,0,.046.018.044Z"/><circle class="c" cx="58.285" cy="61.24" r="1.71"/><circle class="d" cx="58.285" cy="61.24" r="1.539"/><circle cx="57.772" cy="61.41" r="0.513"/><circle class="d" cx="57.772" cy="61.41" r="0.342"/><circle class="c" cx="61.701" cy="61.337" r="1.643"/><circle class="e" cx="61.701" cy="61.337" r="1.479"/><circle cx="61.239" cy="61.763" r="0.493"/><circle class="e" cx="61.239" cy="61.763" r="0.329"/><path d="M57.827,59.791a1.916,1.916,0,0,0-.958,1.667,1.6,1.6,0,0,0,1.419,1.353,1.749,1.749,0,0,0,1.816-.767,1.6,1.6,0,0,0,.16-.98A2.123,2.123,0,0,0,60,60.127a1.762,1.762,0,0,0-.4-.406.911.911,0,0,0-.5-.2,3.147,3.147,0,0,0-1.181.034c-.181.05-.137.531.055.489a2.906,2.906,0,0,1,.843-.031,3.13,3.13,0,0,1,.388.041.741.741,0,0,1,.323.206,1.031,1.031,0,0,1,.36.595,1.545,1.545,0,0,1,.028.652,1.289,1.289,0,0,1-1.307.785,1.446,1.446,0,0,1-1.374-.728c-.261-.591.291-1.161.7-1.52.088-.078.028-.349-.1-.252Z"/><path d="M60.692,59.989a2.329,2.329,0,0,0-.671.808,1.825,1.825,0,0,0-.126,1.1,1.718,1.718,0,0,0,1.757,1.336,1.775,1.775,0,0,0,1.661-1.167,2.418,2.418,0,0,0,.086-.535,1.656,1.656,0,0,0-.089-.51c-.041-.146-.075-.3-.128-.438a1.2,1.2,0,0,0-.237-.354,2.162,2.162,0,0,0-.4-.409.961.961,0,0,0-.484-.129,3.1,3.1,0,0,0-1.206.038c-.21.064-.146.565.1.5a2.725,2.725,0,0,1,.841-.019,1.02,1.02,0,0,1,.7.193,1.4,1.4,0,0,1,.395.536,1.674,1.674,0,0,1,.13.615.891.891,0,0,1-.25.6,1.715,1.715,0,0,1-.788.465,1.543,1.543,0,0,1-1.674-.625,1.441,1.441,0,0,1,.486-1.739c.086-.085.024-.374-.109-.265Z"/><circle class="c" cx="26.416" cy="61.81" r="1.71"/><circle class="d" cx="26.416" cy="61.81" r="1.539"/><circle cx="25.902" cy="61.981" r="0.513"/><circle class="d" cx="25.902" cy="61.981" r="0.342"/><circle class="c" cx="29.832" cy="61.907" r="1.643"/><circle class="e" cx="29.832" cy="61.907" r="1.479"/><circle cx="29.37" cy="62.333" r="0.493"/><circle class="e" cx="29.37" cy="62.333" r="0.329"/><path d="M25.957,60.361A1.918,1.918,0,0,0,25,62.029a1.6,1.6,0,0,0,1.419,1.353,1.75,1.75,0,0,0,1.816-.768,1.61,1.61,0,0,0,.161-.979,2.107,2.107,0,0,0-.27-.937,1.766,1.766,0,0,0-.4-.407.9.9,0,0,0-.5-.2,3.107,3.107,0,0,0-1.181.034c-.18.05-.137.53.056.488a2.869,2.869,0,0,1,.843-.03,2.791,2.791,0,0,1,.387.041.742.742,0,0,1,.323.2,1.031,1.031,0,0,1,.361.595,1.546,1.546,0,0,1,.027.652,1.287,1.287,0,0,1-1.306.785,1.446,1.446,0,0,1-1.375-.728c-.261-.591.292-1.161.7-1.52.088-.078.027-.348-.1-.252Z"/><path d="M28.822,60.559a2.319,2.319,0,0,0-.67.809,1.815,1.815,0,0,0-.126,1.095A1.716,1.716,0,0,0,29.782,63.8a1.775,1.775,0,0,0,1.662-1.166,2.435,2.435,0,0,0,.085-.536,1.674,1.674,0,0,0-.088-.509c-.042-.147-.075-.3-.129-.438a1.209,1.209,0,0,0-.236-.355,2.192,2.192,0,0,0-.4-.409.982.982,0,0,0-.485-.129,3.078,3.078,0,0,0-1.206.039c-.209.063-.145.564.1.5a2.732,2.732,0,0,1,.842-.02,1.028,1.028,0,0,1,.7.193,1.415,1.415,0,0,1,.394.537,1.651,1.651,0,0,1,.131.615.9.9,0,0,1-.25.6,1.722,1.722,0,0,1-.789.464,1.542,1.542,0,0,1-1.674-.625,1.441,1.441,0,0,1,.486-1.739c.087-.084.024-.374-.109-.265Z"/><circle class="c" cx="41.486" cy="37.121" r="1.71"/><circle class="d" cx="41.486" cy="37.121" r="1.539"/><circle cx="40.973" cy="37.292" r="0.513"/><circle class="d" cx="40.973" cy="37.292" r="0.342"/><circle class="c" cx="44.902" cy="37.219" r="1.643"/><circle class="e" cx="44.902" cy="37.219" r="1.479"/><circle cx="44.44" cy="37.644" r="0.493"/><circle class="e" cx="44.44" cy="37.644" r="0.329"/><path d="M41.028,35.673a1.911,1.911,0,0,0-.958,1.667,1.6,1.6,0,0,0,1.419,1.353,1.75,1.75,0,0,0,1.816-.768,1.609,1.609,0,0,0,.16-.979,2.119,2.119,0,0,0-.269-.937,1.787,1.787,0,0,0-.4-.407.91.91,0,0,0-.5-.2,3.127,3.127,0,0,0-1.181.034c-.181.05-.137.531.055.489a2.872,2.872,0,0,1,.843-.031,2.789,2.789,0,0,1,.388.041.748.748,0,0,1,.323.2,1.038,1.038,0,0,1,.36.595,1.547,1.547,0,0,1,.028.652,1.288,1.288,0,0,1-1.307.785,1.444,1.444,0,0,1-1.374-.728c-.261-.591.291-1.16.7-1.52.088-.077.028-.348-.1-.251Z"/><path d="M43.893,35.871a2.309,2.309,0,0,0-.671.808,1.823,1.823,0,0,0-.126,1.095,1.717,1.717,0,0,0,1.757,1.336,1.774,1.774,0,0,0,1.661-1.166,2.437,2.437,0,0,0,.086-.535,1.645,1.645,0,0,0-.089-.51c-.041-.146-.075-.3-.128-.438a1.193,1.193,0,0,0-.237-.355,2.187,2.187,0,0,0-.4-.408.961.961,0,0,0-.484-.129,3.059,3.059,0,0,0-1.206.038c-.21.063-.146.564.1.5a2.757,2.757,0,0,1,.841-.02,1.021,1.021,0,0,1,.7.194,1.4,1.4,0,0,1,.395.536,1.674,1.674,0,0,1,.13.615.893.893,0,0,1-.25.6,1.711,1.711,0,0,1-.789.464,1.54,1.54,0,0,1-1.673-.625A1.441,1.441,0,0,1,44,36.135c.086-.084.024-.374-.109-.264Z"/></svg>